%TF.GenerationSoftware,KiCad,Pcbnew,9.0.2+dfsg-1*%
%TF.CreationDate,2026-04-19T09:26:02-07:00*%
%TF.ProjectId,gx01-adapter-v2b,67783031-2d61-4646-9170-7465722d7632,rev?*%
%TF.SameCoordinates,Original*%
%TF.FileFunction,Soldermask,Top*%
%TF.FilePolarity,Negative*%
%FSLAX46Y46*%
G04 Gerber Fmt 4.6, Leading zero omitted, Abs format (unit mm)*
G04 Created by KiCad (PCBNEW 9.0.2+dfsg-1) date 2026-04-19 09:26:02*
%MOMM*%
%LPD*%
G01*
G04 APERTURE LIST*
G04 Aperture macros list*
%AMRoundRect*
0 Rectangle with rounded corners*
0 $1 Rounding radius*
0 $2 $3 $4 $5 $6 $7 $8 $9 X,Y pos of 4 corners*
0 Add a 4 corners polygon primitive as box body*
4,1,4,$2,$3,$4,$5,$6,$7,$8,$9,$2,$3,0*
0 Add four circle primitives for the rounded corners*
1,1,$1+$1,$2,$3*
1,1,$1+$1,$4,$5*
1,1,$1+$1,$6,$7*
1,1,$1+$1,$8,$9*
0 Add four rect primitives between the rounded corners*
20,1,$1+$1,$2,$3,$4,$5,0*
20,1,$1+$1,$4,$5,$6,$7,0*
20,1,$1+$1,$6,$7,$8,$9,0*
20,1,$1+$1,$8,$9,$2,$3,0*%
G04 Aperture macros list end*
%ADD10RoundRect,0.200000X-0.200000X-0.275000X0.200000X-0.275000X0.200000X0.275000X-0.200000X0.275000X0*%
%ADD11C,2.700000*%
%ADD12R,1.500000X2.500000*%
%ADD13R,0.350000X0.500000*%
%ADD14R,1.700000X1.700000*%
%ADD15C,1.700000*%
%ADD16RoundRect,0.250000X-0.350000X-0.625000X0.350000X-0.625000X0.350000X0.625000X-0.350000X0.625000X0*%
%ADD17O,1.200000X1.750000*%
%ADD18RoundRect,0.162500X-0.312500X-0.162500X0.312500X-0.162500X0.312500X0.162500X-0.312500X0.162500X0*%
%ADD19RoundRect,0.150000X-0.150000X-0.625000X0.150000X-0.625000X0.150000X0.625000X-0.150000X0.625000X0*%
%ADD20RoundRect,0.250000X-0.350000X-0.650000X0.350000X-0.650000X0.350000X0.650000X-0.350000X0.650000X0*%
%ADD21RoundRect,0.225000X-0.225000X-0.250000X0.225000X-0.250000X0.225000X0.250000X-0.225000X0.250000X0*%
%ADD22RoundRect,0.150000X-0.825000X-0.150000X0.825000X-0.150000X0.825000X0.150000X-0.825000X0.150000X0*%
%ADD23RoundRect,0.150000X-0.587500X-0.150000X0.587500X-0.150000X0.587500X0.150000X-0.587500X0.150000X0*%
%ADD24RoundRect,0.100000X-0.712500X-0.100000X0.712500X-0.100000X0.712500X0.100000X-0.712500X0.100000X0*%
G04 APERTURE END LIST*
D10*
%TO.C,R4*%
X19175000Y-29000000D03*
X20825000Y-29000000D03*
%TD*%
D11*
%TO.C,H2*%
X61500000Y-3500000D03*
%TD*%
D12*
%TO.C,C1*%
X51200000Y-25750000D03*
X51200000Y-28250000D03*
X56800000Y-25750000D03*
X56800000Y-28250000D03*
%TD*%
D10*
%TO.C,R5*%
X36175000Y-20000000D03*
X37825000Y-20000000D03*
%TD*%
%TO.C,R7*%
X25175000Y-20000000D03*
X26825000Y-20000000D03*
%TD*%
D13*
%TO.C,U2*%
X52025000Y-40975000D03*
X52675000Y-40975000D03*
X53325000Y-40975000D03*
X53975000Y-40975000D03*
X53975000Y-43025000D03*
X53325000Y-43025000D03*
X52675000Y-43025000D03*
X52025000Y-43025000D03*
%TD*%
D14*
%TO.C,J1*%
X7110000Y-3500000D03*
D15*
X7110000Y-6040000D03*
X9650000Y-3500000D03*
X9650000Y-6040000D03*
X12190000Y-3500000D03*
X12190000Y-6040000D03*
X14730000Y-3500000D03*
X14730000Y-6040000D03*
X17270000Y-3500000D03*
X17270000Y-6040000D03*
X19810000Y-3500000D03*
X19810000Y-6040000D03*
X22350000Y-3500000D03*
X22350000Y-6040000D03*
X24890000Y-3500000D03*
X24890000Y-6040000D03*
X27430000Y-3500000D03*
X27430000Y-6040000D03*
X29970000Y-3500000D03*
X29970000Y-6040000D03*
X32510000Y-3500000D03*
X32510000Y-6040000D03*
X35050000Y-3500000D03*
X35050000Y-6040000D03*
X37590000Y-3500000D03*
X37590000Y-6040000D03*
X40130000Y-3500000D03*
X40130000Y-6040000D03*
X42670000Y-3500000D03*
X42670000Y-6040000D03*
X45210000Y-3500000D03*
X45210000Y-6040000D03*
X47750000Y-3500000D03*
X47750000Y-6040000D03*
X50290000Y-3500000D03*
X50290000Y-6040000D03*
X52830000Y-3500000D03*
X52830000Y-6040000D03*
X55370000Y-3500000D03*
X55370000Y-6040000D03*
%TD*%
D11*
%TO.C,H3*%
X3500000Y-52500000D03*
%TD*%
D16*
%TO.C,J4*%
X27000000Y-51000000D03*
D17*
X29000000Y-51000000D03*
X31000000Y-51000000D03*
X33000000Y-51000000D03*
%TD*%
D18*
%TO.C,U1*%
X44350000Y-25650000D03*
X44350000Y-26550000D03*
X44350000Y-27450000D03*
X44350000Y-28350000D03*
X45650000Y-28350000D03*
X45650000Y-27450000D03*
X45650000Y-26550000D03*
X45650000Y-25650000D03*
%TD*%
D16*
%TO.C,J3*%
X13000000Y-51000000D03*
D17*
X15000000Y-51000000D03*
X17000000Y-51000000D03*
X19000000Y-51000000D03*
%TD*%
D19*
%TO.C,J5*%
X49500000Y-53325000D03*
X50500000Y-53325000D03*
X51500000Y-53325000D03*
X52500000Y-53325000D03*
X53500000Y-53325000D03*
X54500000Y-53325000D03*
D20*
X48200000Y-50800000D03*
X55800000Y-50800000D03*
%TD*%
D21*
%TO.C,C2*%
X48225000Y-30000000D03*
X49775000Y-30000000D03*
%TD*%
%TO.C,C5*%
X16225000Y-30000000D03*
X17775000Y-30000000D03*
%TD*%
D11*
%TO.C,H4*%
X61500000Y-52500000D03*
%TD*%
D22*
%TO.C,U4*%
X10525000Y-28095000D03*
X10525000Y-29365000D03*
X10525000Y-30635000D03*
X10525000Y-31905000D03*
X15475000Y-31905000D03*
X15475000Y-30635000D03*
X15475000Y-29365000D03*
X15475000Y-28095000D03*
%TD*%
D10*
%TO.C,R3*%
X19175000Y-27000000D03*
X20825000Y-27000000D03*
%TD*%
%TO.C,R6*%
X19175000Y-20000000D03*
X20825000Y-20000000D03*
%TD*%
D11*
%TO.C,H1*%
X3500000Y-3500000D03*
%TD*%
D10*
%TO.C,R2*%
X41175000Y-24000000D03*
X42825000Y-24000000D03*
%TD*%
D23*
%TO.C,Q1*%
X32062500Y-19050000D03*
X32062500Y-20950000D03*
X33937500Y-20000000D03*
%TD*%
D21*
%TO.C,C4*%
X16225000Y-40000000D03*
X17775000Y-40000000D03*
%TD*%
D10*
%TO.C,R1*%
X41175000Y-22000000D03*
X42825000Y-22000000D03*
%TD*%
D14*
%TO.C,J2*%
X7110000Y-11500000D03*
D15*
X7110000Y-8960000D03*
X9650000Y-11500000D03*
X9650000Y-8960000D03*
X12190000Y-11500000D03*
X12190000Y-8960000D03*
X14730000Y-11500000D03*
X14730000Y-8960000D03*
X17270000Y-11500000D03*
X17270000Y-8960000D03*
X19810000Y-11500000D03*
X19810000Y-8960000D03*
X22350000Y-11500000D03*
X22350000Y-8960000D03*
X24890000Y-11500000D03*
X24890000Y-8960000D03*
X27430000Y-11500000D03*
X27430000Y-8960000D03*
X29970000Y-11500000D03*
X29970000Y-8960000D03*
%TD*%
D21*
%TO.C,C3*%
X47225000Y-42000000D03*
X48775000Y-42000000D03*
%TD*%
D24*
%TO.C,U3*%
X10887500Y-39025000D03*
X10887500Y-39675000D03*
X10887500Y-40325000D03*
X10887500Y-40975000D03*
X15112500Y-40975000D03*
X15112500Y-40325000D03*
X15112500Y-39675000D03*
X15112500Y-39025000D03*
%TD*%
M02*
