%TF.GenerationSoftware,KiCad,Pcbnew,9.0.2+dfsg-1*%
%TF.CreationDate,2026-04-19T10:01:21-07:00*%
%TF.ProjectId,gx01-adapter-v2b,67783031-2d61-4646-9170-7465722d7632,rev?*%
%TF.SameCoordinates,Original*%
%TF.FileFunction,Copper,L2,Bot*%
%TF.FilePolarity,Positive*%
%FSLAX46Y46*%
G04 Gerber Fmt 4.6, Leading zero omitted, Abs format (unit mm)*
G04 Created by KiCad (PCBNEW 9.0.2+dfsg-1) date 2026-04-19 10:01:21*
%MOMM*%
%LPD*%
G01*
G04 APERTURE LIST*
G04 Aperture macros list*
%AMRoundRect*
0 Rectangle with rounded corners*
0 $1 Rounding radius*
0 $2 $3 $4 $5 $6 $7 $8 $9 X,Y pos of 4 corners*
0 Add a 4 corners polygon primitive as box body*
4,1,4,$2,$3,$4,$5,$6,$7,$8,$9,$2,$3,0*
0 Add four circle primitives for the rounded corners*
1,1,$1+$1,$2,$3*
1,1,$1+$1,$4,$5*
1,1,$1+$1,$6,$7*
1,1,$1+$1,$8,$9*
0 Add four rect primitives between the rounded corners*
20,1,$1+$1,$2,$3,$4,$5,0*
20,1,$1+$1,$4,$5,$6,$7,0*
20,1,$1+$1,$6,$7,$8,$9,0*
20,1,$1+$1,$8,$9,$2,$3,0*%
G04 Aperture macros list end*
%TA.AperFunction,ComponentPad*%
%ADD10R,1.700000X1.700000*%
%TD*%
%TA.AperFunction,ComponentPad*%
%ADD11C,1.700000*%
%TD*%
%TA.AperFunction,ComponentPad*%
%ADD12RoundRect,0.250000X-0.350000X-0.625000X0.350000X-0.625000X0.350000X0.625000X-0.350000X0.625000X0*%
%TD*%
%TA.AperFunction,ComponentPad*%
%ADD13O,1.200000X1.750000*%
%TD*%
%TA.AperFunction,ViaPad*%
%ADD14C,0.600000*%
%TD*%
%TA.AperFunction,Conductor*%
%ADD15C,0.200000*%
%TD*%
G04 APERTURE END LIST*
D10*
%TO.P,J1,1*%
%TO.N,+3V3*%
X7110000Y-3500000D03*
D11*
%TO.P,J1,2*%
%TO.N,+5V*%
X7110000Y-6040000D03*
%TO.P,J1,3*%
%TO.N,SDA1*%
X9650000Y-3500000D03*
%TO.P,J1,4*%
%TO.N,+5V*%
X9650000Y-6040000D03*
%TO.P,J1,5*%
%TO.N,SCL1*%
X12190000Y-3500000D03*
%TO.P,J1,6*%
%TO.N,GND*%
X12190000Y-6040000D03*
%TO.P,J1,7*%
%TO.N,FPB_INT*%
X14730000Y-3500000D03*
%TO.P,J1,8*%
%TO.N,UART_TX*%
X14730000Y-6040000D03*
%TO.P,J1,9*%
%TO.N,GND*%
X17270000Y-3500000D03*
%TO.P,J1,10*%
%TO.N,UART_RX*%
X17270000Y-6040000D03*
%TO.P,J1,11*%
%TO.N,LCD_RS*%
X19810000Y-3500000D03*
%TO.P,J1,12*%
%TO.N,PPS*%
X19810000Y-6040000D03*
%TO.P,J1,13*%
%TO.N,LCD_RW*%
X22350000Y-3500000D03*
%TO.P,J1,14*%
%TO.N,GND*%
X22350000Y-6040000D03*
%TO.P,J1,15*%
%TO.N,LCD_E*%
X24890000Y-3500000D03*
%TO.P,J1,16*%
%TO.N,FAN2_TACH*%
X24890000Y-6040000D03*
%TO.P,J1,17*%
%TO.N,+3V3*%
X27430000Y-3500000D03*
%TO.P,J1,18*%
%TO.N,LCD_DB0*%
X27430000Y-6040000D03*
%TO.P,J1,19*%
%TO.N,LCD_DB1*%
X29970000Y-3500000D03*
%TO.P,J1,20*%
%TO.N,GND*%
X29970000Y-6040000D03*
%TO.P,J1,21*%
%TO.N,N/C*%
X32510000Y-3500000D03*
%TO.P,J1,22*%
%TO.N,LCD_DB2*%
X32510000Y-6040000D03*
%TO.P,J1,23*%
%TO.N,LCD_DB3*%
X35050000Y-3500000D03*
%TO.P,J1,24*%
%TO.N,N/C*%
X35050000Y-6040000D03*
%TO.P,J1,25*%
%TO.N,GND*%
X37590000Y-3500000D03*
%TO.P,J1,26*%
%TO.N,LCD_DB4*%
X37590000Y-6040000D03*
%TO.P,J1,27*%
%TO.N,ID_SD*%
X40130000Y-3500000D03*
%TO.P,J1,28*%
%TO.N,ID_SC*%
X40130000Y-6040000D03*
%TO.P,J1,29*%
%TO.N,LCD_DB6*%
X42670000Y-3500000D03*
%TO.P,J1,30*%
%TO.N,GND*%
X42670000Y-6040000D03*
%TO.P,J1,31*%
%TO.N,LCD_DB7*%
X45210000Y-3500000D03*
%TO.P,J1,32*%
%TO.N,BL_PWM*%
X45210000Y-6040000D03*
%TO.P,J1,33*%
%TO.N,LCD_CS1*%
X47750000Y-3500000D03*
%TO.P,J1,34*%
%TO.N,GND*%
X47750000Y-6040000D03*
%TO.P,J1,35*%
%TO.N,LCD_CS2*%
X50290000Y-3500000D03*
%TO.P,J1,36*%
%TO.N,FAN_PWM*%
X50290000Y-6040000D03*
%TO.P,J1,37*%
%TO.N,LCD_RST*%
X52830000Y-3500000D03*
%TO.P,J1,38*%
%TO.N,FAN1_TACH*%
X52830000Y-6040000D03*
%TO.P,J1,39*%
%TO.N,GND*%
X55370000Y-3500000D03*
%TO.P,J1,40*%
%TO.N,LCD_DB5*%
X55370000Y-6040000D03*
%TD*%
D10*
%TO.P,J2,1*%
%TO.N,GND*%
X7110000Y-15000000D03*
D11*
%TO.P,J2,2*%
%TO.N,+5V*%
X7110000Y-12460000D03*
%TO.P,J2,3*%
%TO.N,LCD_V0*%
X9650000Y-15000000D03*
%TO.P,J2,4*%
%TO.N,LCD_RS*%
X9650000Y-12460000D03*
%TO.P,J2,5*%
%TO.N,LCD_RW*%
X12190000Y-15000000D03*
%TO.P,J2,6*%
%TO.N,LCD_E*%
X12190000Y-12460000D03*
%TO.P,J2,7*%
%TO.N,LCD_DB0*%
X14730000Y-15000000D03*
%TO.P,J2,8*%
%TO.N,LCD_DB1*%
X14730000Y-12460000D03*
%TO.P,J2,9*%
%TO.N,LCD_DB2*%
X17270000Y-15000000D03*
%TO.P,J2,10*%
%TO.N,LCD_DB3*%
X17270000Y-12460000D03*
%TO.P,J2,11*%
%TO.N,LCD_DB4*%
X19810000Y-15000000D03*
%TO.P,J2,12*%
%TO.N,LCD_DB5*%
X19810000Y-12460000D03*
%TO.P,J2,13*%
%TO.N,LCD_DB6*%
X22350000Y-15000000D03*
%TO.P,J2,14*%
%TO.N,LCD_DB7*%
X22350000Y-12460000D03*
%TO.P,J2,15*%
%TO.N,LCD_CS1*%
X24890000Y-15000000D03*
%TO.P,J2,16*%
%TO.N,LCD_CS2*%
X24890000Y-12460000D03*
%TO.P,J2,17*%
%TO.N,LCD_RST*%
X27430000Y-15000000D03*
%TO.P,J2,18*%
%TO.N,LCD_VEE*%
X27430000Y-12460000D03*
%TO.P,J2,19*%
%TO.N,LCD_BLA*%
X29970000Y-15000000D03*
%TO.P,J2,20*%
%TO.N,LCD_BLK*%
X29970000Y-12460000D03*
%TD*%
D12*
%TO.P,J4,1*%
%TO.N,GND*%
X27000000Y-51000000D03*
D13*
%TO.P,J4,2*%
%TO.N,+5V*%
X29000000Y-51000000D03*
%TO.P,J4,3*%
%TO.N,FAN2_TACH*%
X31000000Y-51000000D03*
%TO.P,J4,4*%
%TO.N,FAN_PWM*%
X33000000Y-51000000D03*
%TD*%
D12*
%TO.P,J3,1*%
%TO.N,GND*%
X13000000Y-51000000D03*
D13*
%TO.P,J3,2*%
%TO.N,+5V*%
X15000000Y-51000000D03*
%TO.P,J3,3*%
%TO.N,FAN1_TACH*%
X17000000Y-51000000D03*
%TO.P,J3,4*%
%TO.N,FAN_PWM*%
X19000000Y-51000000D03*
%TD*%
D14*
%TO.N,+3V3*%
X28053600Y-25116800D03*
X40818300Y-25368400D03*
%TO.N,GND*%
X50395300Y-52044200D03*
X17066400Y-30219300D03*
X31018900Y-22513200D03*
X10273000Y-43164100D03*
X10273000Y-27275700D03*
X37825000Y-19019100D03*
X49467900Y-43077500D03*
X52580000Y-42258300D03*
X53888400Y-42228300D03*
X48804000Y-31600700D03*
X42873700Y-34112800D03*
X16200400Y-43170600D03*
X45208900Y-29182500D03*
X20735600Y-30189700D03*
X19982200Y-41008100D03*
%TO.N,SDA1*%
X15007800Y-20841500D03*
X42000000Y-21243000D03*
%TO.N,SCL1*%
X48804000Y-40109100D03*
X13027200Y-40186300D03*
X53787500Y-39709600D03*
%TO.N,ID_SD*%
X32396600Y-9500500D03*
%TO.N,FPB_INT*%
X22124800Y-22355500D03*
X41097000Y-26561000D03*
%TO.N,LCD_V0*%
X24977900Y-18664100D03*
%TO.N,BL_PWM*%
X36286200Y-17753900D03*
X33319100Y-18751700D03*
%TO.N,FAN2_TACH*%
X30320100Y-9263700D03*
X33767200Y-14283800D03*
X25197500Y-9889200D03*
X43179100Y-13643400D03*
%TO.N,VBACKUP*%
X28055200Y-31233400D03*
X46630100Y-28450400D03*
%TD*%
D15*
%TO.N,+5V*%
X29000000Y-51000000D02*
X28098300Y-51000000D01*
X7110000Y-6040000D02*
X9650000Y-6040000D01*
X15901700Y-51000000D02*
X15901700Y-50436400D01*
X16558900Y-49779200D02*
X27555800Y-49779200D01*
X15901700Y-50436400D02*
X16558900Y-49779200D01*
X15000000Y-51000000D02*
X15901700Y-51000000D01*
X28098300Y-50321700D02*
X28098300Y-51000000D01*
X27555800Y-49779200D02*
X28098300Y-50321700D01*
%TO.N,+3V3*%
X9134700Y-2339100D02*
X26269100Y-2339100D01*
X40566700Y-25116800D02*
X40818300Y-25368400D01*
X7110000Y-3500000D02*
X8261700Y-3500000D01*
X26269100Y-2339100D02*
X27430000Y-3500000D01*
X8261700Y-3212100D02*
X9134700Y-2339100D01*
X28053600Y-25116800D02*
X40566700Y-25116800D01*
X8261700Y-3500000D02*
X8261700Y-3212100D01*
%TO.N,SDA1*%
X41598500Y-20841500D02*
X15007800Y-20841500D01*
X42000000Y-21243000D02*
X41598500Y-20841500D01*
%TO.N,SCL1*%
X13104400Y-40109100D02*
X48804000Y-40109100D01*
X13027200Y-40186300D02*
X13104400Y-40109100D01*
X53388000Y-40109100D02*
X53787500Y-39709600D01*
X48804000Y-40109100D02*
X53388000Y-40109100D01*
%TO.N,ID_SD*%
X35350100Y-4888300D02*
X34523800Y-4888300D01*
X37084400Y-2315100D02*
X36320000Y-3079500D01*
X33780000Y-5632100D02*
X33780000Y-8117100D01*
X36320000Y-3918400D02*
X35350100Y-4888300D01*
X33780000Y-8117100D02*
X32396600Y-9500500D01*
X34523800Y-4888300D02*
X33780000Y-5632100D01*
X38945100Y-2315100D02*
X37084400Y-2315100D01*
X36320000Y-3079500D02*
X36320000Y-3918400D01*
X40130000Y-3500000D02*
X38945100Y-2315100D01*
%TO.N,FPB_INT*%
X41097000Y-26561000D02*
X26330300Y-26561000D01*
X26330300Y-26561000D02*
X22124800Y-22355500D01*
%TO.N,LCD_RS*%
X19810000Y-3500000D02*
X18540000Y-4770000D01*
X9976300Y-12460000D02*
X9650000Y-12460000D01*
X18540000Y-4770000D02*
X16911300Y-4770000D01*
X16911300Y-4770000D02*
X16011900Y-5669400D01*
X16011900Y-5669400D02*
X16011900Y-6424400D01*
X16011900Y-6424400D02*
X9976300Y-12460000D01*
%TO.N,LCD_RW*%
X18540000Y-6413600D02*
X17761900Y-7191700D01*
X18540000Y-5637100D02*
X18540000Y-6413600D01*
X15821100Y-7191700D02*
X10999400Y-12013400D01*
X17761900Y-7191700D02*
X15821100Y-7191700D01*
X10999400Y-12013400D02*
X10999400Y-13809400D01*
X19288800Y-4888300D02*
X18540000Y-5637100D01*
X22350000Y-3500000D02*
X20961700Y-4888300D01*
X10999400Y-13809400D02*
X12190000Y-15000000D01*
X20961700Y-4888300D02*
X19288800Y-4888300D01*
%TO.N,LCD_E*%
X19814200Y-7704500D02*
X21080000Y-6438700D01*
X21080000Y-5590300D02*
X21900300Y-4770000D01*
X16945500Y-7704500D02*
X19814200Y-7704500D01*
X23620000Y-4770000D02*
X24890000Y-3500000D01*
X21080000Y-6438700D02*
X21080000Y-5590300D01*
X12190000Y-12460000D02*
X16945500Y-7704500D01*
X21900300Y-4770000D02*
X23620000Y-4770000D01*
%TO.N,LCD_CS1*%
X36756100Y-13647900D02*
X26242100Y-13647900D01*
X44058300Y-5470600D02*
X44058300Y-6345700D01*
X44058300Y-6345700D02*
X36756100Y-13647900D01*
X26242100Y-13647900D02*
X24890000Y-15000000D01*
X47750000Y-3500000D02*
X46480000Y-4770000D01*
X44758900Y-4770000D02*
X44058300Y-5470600D01*
X46480000Y-4770000D02*
X44758900Y-4770000D01*
%TO.N,LCD_RST*%
X28593300Y-16163300D02*
X27430000Y-15000000D01*
X51560000Y-4770000D02*
X51560000Y-6457200D01*
X52830000Y-3500000D02*
X51560000Y-4770000D01*
X51560000Y-6457200D02*
X41853900Y-16163300D01*
X41853900Y-16163300D02*
X28593300Y-16163300D01*
%TO.N,LCD_DB0*%
X17027800Y-10988800D02*
X16000000Y-12016600D01*
X27430000Y-6040000D02*
X25488600Y-7981400D01*
X21154500Y-7981400D02*
X18147100Y-10988800D01*
X25488600Y-7981400D02*
X21154500Y-7981400D01*
X16000000Y-13730000D02*
X14730000Y-15000000D01*
X16000000Y-12016600D02*
X16000000Y-13730000D01*
X18147100Y-10988800D02*
X17027800Y-10988800D01*
%TO.N,LCD_DB1*%
X29970000Y-3500000D02*
X28700000Y-4770000D01*
X20672300Y-7469000D02*
X17590500Y-10550800D01*
X28700000Y-4770000D02*
X27011600Y-4770000D01*
X25103100Y-7469000D02*
X20672300Y-7469000D01*
X26041700Y-6530400D02*
X25103100Y-7469000D01*
X16639200Y-10550800D02*
X14730000Y-12460000D01*
X26041700Y-5739900D02*
X26041700Y-6530400D01*
X27011600Y-4770000D02*
X26041700Y-5739900D01*
X17590500Y-10550800D02*
X16639200Y-10550800D01*
%TO.N,LCD_DB2*%
X18499500Y-13770500D02*
X17270000Y-15000000D01*
X29262500Y-9287500D02*
X21298700Y-9287500D01*
X18499500Y-12086700D02*
X18499500Y-13770500D01*
X21298700Y-9287500D02*
X18499500Y-12086700D01*
X32510000Y-6040000D02*
X29262500Y-9287500D01*
%TO.N,LCD_DB3*%
X35050000Y-3500000D02*
X33798000Y-4752000D01*
X31121700Y-5739900D02*
X31121700Y-6570100D01*
X31121700Y-6570100D02*
X28914800Y-8777000D01*
X28914800Y-8777000D02*
X20953000Y-8777000D01*
X33798000Y-4752000D02*
X32109600Y-4752000D01*
X20953000Y-8777000D02*
X17270000Y-12460000D01*
X32109600Y-4752000D02*
X31121700Y-5739900D01*
%TO.N,LCD_DB4*%
X21080000Y-13730000D02*
X22801200Y-13730000D01*
X19810000Y-15000000D02*
X21080000Y-13730000D01*
X23501700Y-13029500D02*
X23501700Y-12194000D01*
X23501700Y-12194000D02*
X24782500Y-10913200D01*
X32716800Y-10913200D02*
X37590000Y-6040000D01*
X24782500Y-10913200D02*
X32716800Y-10913200D01*
X22801200Y-13730000D02*
X23501700Y-13029500D01*
%TO.N,LCD_DB5*%
X55370000Y-6040000D02*
X44343300Y-17066700D01*
X20219300Y-17066700D02*
X18640000Y-15487400D01*
X18640000Y-14282700D02*
X19810000Y-13112700D01*
X44343300Y-17066700D02*
X20219300Y-17066700D01*
X18640000Y-15487400D02*
X18640000Y-14282700D01*
X19810000Y-13112700D02*
X19810000Y-12460000D01*
%TO.N,LCD_DB6*%
X23951500Y-16601500D02*
X22350000Y-15000000D01*
X54003400Y-6605600D02*
X44007500Y-16601500D01*
X42670000Y-3500000D02*
X43841300Y-2328700D01*
X54003400Y-3004500D02*
X54003400Y-6605600D01*
X44007500Y-16601500D02*
X23951500Y-16601500D01*
X43841300Y-2328700D02*
X53327600Y-2328700D01*
X53327600Y-2328700D02*
X54003400Y-3004500D01*
%TO.N,LCD_DB7*%
X32301100Y-10490900D02*
X36201700Y-6590300D01*
X37189600Y-4752000D02*
X43958000Y-4752000D01*
X22350000Y-12460000D02*
X24319100Y-10490900D01*
X36201700Y-6590300D02*
X36201700Y-5739900D01*
X36201700Y-5739900D02*
X37189600Y-4752000D01*
X24319100Y-10490900D02*
X32301100Y-10490900D01*
X43958000Y-4752000D02*
X45210000Y-3500000D01*
%TO.N,LCD_V0*%
X13314100Y-18664100D02*
X9650000Y-15000000D01*
X24977900Y-18664100D02*
X13314100Y-18664100D01*
%TO.N,BL_PWM*%
X33319100Y-18751700D02*
X35288400Y-18751700D01*
X35288400Y-18751700D02*
X36286200Y-17753900D01*
%TO.N,FAN_PWM*%
X32098300Y-51563600D02*
X31453000Y-52208900D01*
X31453000Y-52208900D02*
X21110600Y-52208900D01*
X19000000Y-51000000D02*
X19901700Y-51000000D01*
X21110600Y-52208900D02*
X19901700Y-51000000D01*
X33000000Y-51000000D02*
X32098300Y-51000000D01*
X32098300Y-51000000D02*
X32098300Y-51563600D01*
%TO.N,FAN2_TACH*%
X43179100Y-13643400D02*
X42538700Y-14283800D01*
X29694600Y-9889200D02*
X25197500Y-9889200D01*
X42538700Y-14283800D02*
X33767200Y-14283800D01*
X30320100Y-9263700D02*
X29694600Y-9889200D01*
%TO.N,VBACKUP*%
X30838200Y-28450400D02*
X46630100Y-28450400D01*
X28055200Y-31233400D02*
X30838200Y-28450400D01*
%TD*%
%TA.AperFunction,Conductor*%
%TO.N,GND*%
G36*
X26002762Y-50149385D02*
G01*
X26048517Y-50202189D01*
X26058662Y-50269886D01*
X26050000Y-50335669D01*
X26050000Y-50825000D01*
X26668024Y-50825000D01*
X26650556Y-50855255D01*
X26625000Y-50950630D01*
X26625000Y-51049370D01*
X26650556Y-51144745D01*
X26668024Y-51175000D01*
X26050001Y-51175000D01*
X26050001Y-51664325D01*
X26057095Y-51718217D01*
X26046328Y-51787252D01*
X25999948Y-51839507D01*
X25934156Y-51858400D01*
X21307144Y-51858400D01*
X21240105Y-51838715D01*
X21219463Y-51822081D01*
X20116913Y-50719531D01*
X20116908Y-50719527D01*
X20036990Y-50673387D01*
X20036989Y-50673386D01*
X20036988Y-50673386D01*
X20036687Y-50673305D01*
X20032558Y-50672198D01*
X20032558Y-50672199D01*
X19947844Y-50649500D01*
X19947843Y-50649500D01*
X19939784Y-50648439D01*
X19940175Y-50645467D01*
X19886870Y-50629815D01*
X19841115Y-50577011D01*
X19832292Y-50549691D01*
X19817817Y-50476925D01*
X19817816Y-50476918D01*
X19753703Y-50322137D01*
X19753700Y-50322133D01*
X19750834Y-50316770D01*
X19751989Y-50316152D01*
X19733128Y-50255914D01*
X19751612Y-50188534D01*
X19803591Y-50141843D01*
X19857108Y-50129700D01*
X25935723Y-50129700D01*
X26002762Y-50149385D01*
G37*
%TD.AperFunction*%
%TA.AperFunction,Conductor*%
G36*
X49107000Y-6048653D02*
G01*
X49165233Y-6087263D01*
X49192843Y-6147721D01*
X49206349Y-6232993D01*
X49216598Y-6297701D01*
X49268749Y-6458205D01*
X49270128Y-6462447D01*
X49328263Y-6576544D01*
X49348768Y-6616788D01*
X49450586Y-6756928D01*
X49573072Y-6879414D01*
X49713212Y-6981232D01*
X49867555Y-7059873D01*
X50032299Y-7113402D01*
X50116367Y-7126717D01*
X50179498Y-7156644D01*
X50216430Y-7215956D01*
X50215432Y-7285818D01*
X50184647Y-7336870D01*
X43928168Y-13593348D01*
X43866845Y-13626833D01*
X43797153Y-13621849D01*
X43741220Y-13579977D01*
X43720715Y-13537766D01*
X43692084Y-13430915D01*
X43688683Y-13425025D01*
X43619611Y-13305388D01*
X43619606Y-13305382D01*
X43517117Y-13202893D01*
X43517111Y-13202888D01*
X43391588Y-13130417D01*
X43391589Y-13130417D01*
X43346110Y-13118231D01*
X43251575Y-13092900D01*
X43106625Y-13092900D01*
X43012090Y-13118231D01*
X42966611Y-13130417D01*
X42841088Y-13202888D01*
X42841082Y-13202893D01*
X42738593Y-13305382D01*
X42738588Y-13305388D01*
X42666117Y-13430911D01*
X42666116Y-13430915D01*
X42628600Y-13570925D01*
X42628600Y-13570927D01*
X42628600Y-13646856D01*
X42619955Y-13676296D01*
X42613432Y-13706283D01*
X42609677Y-13711298D01*
X42608915Y-13713895D01*
X42592281Y-13734537D01*
X42429837Y-13896981D01*
X42368514Y-13930466D01*
X42342156Y-13933300D01*
X37265744Y-13933300D01*
X37198705Y-13913615D01*
X37152950Y-13860811D01*
X37143006Y-13791653D01*
X37172031Y-13728097D01*
X37178063Y-13721619D01*
X38181985Y-12717697D01*
X44172052Y-6727627D01*
X44233373Y-6694144D01*
X44303065Y-6699128D01*
X44358998Y-6741000D01*
X44360037Y-6742409D01*
X44370586Y-6756928D01*
X44493072Y-6879414D01*
X44633212Y-6981232D01*
X44787555Y-7059873D01*
X44952299Y-7113402D01*
X45123389Y-7140500D01*
X45123390Y-7140500D01*
X45296610Y-7140500D01*
X45296611Y-7140500D01*
X45467701Y-7113402D01*
X45632445Y-7059873D01*
X45786788Y-6981232D01*
X45926928Y-6879414D01*
X46049414Y-6756928D01*
X46151232Y-6616788D01*
X46229873Y-6462445D01*
X46283402Y-6297701D01*
X46307156Y-6147720D01*
X46337085Y-6084587D01*
X46396396Y-6047655D01*
X46466259Y-6048653D01*
X46524492Y-6087262D01*
X46552102Y-6147720D01*
X46579548Y-6321002D01*
X46637914Y-6500637D01*
X46723666Y-6668933D01*
X46786749Y-6755761D01*
X47293387Y-6249123D01*
X47349901Y-6347007D01*
X47442993Y-6440099D01*
X47540875Y-6496611D01*
X47034237Y-7003248D01*
X47034237Y-7003249D01*
X47121066Y-7066333D01*
X47289362Y-7152085D01*
X47468997Y-7210451D01*
X47655553Y-7240000D01*
X47844447Y-7240000D01*
X48031002Y-7210451D01*
X48210637Y-7152085D01*
X48378940Y-7066329D01*
X48465761Y-7003251D01*
X48465762Y-7003249D01*
X47959124Y-6496611D01*
X48057007Y-6440099D01*
X48150099Y-6347007D01*
X48206611Y-6249124D01*
X48713249Y-6755762D01*
X48713251Y-6755761D01*
X48776329Y-6668940D01*
X48862085Y-6500637D01*
X48920451Y-6321002D01*
X48947897Y-6147721D01*
X48977826Y-6084586D01*
X49037138Y-6047655D01*
X49107000Y-6048653D01*
G37*
%TD.AperFunction*%
%TA.AperFunction,Conductor*%
G36*
X39233041Y-5108738D02*
G01*
X39255130Y-5110318D01*
X39265913Y-5118390D01*
X39278835Y-5122185D01*
X39293334Y-5138918D01*
X39311063Y-5152190D01*
X39315770Y-5164810D01*
X39324590Y-5174989D01*
X39327741Y-5196906D01*
X39335480Y-5217654D01*
X39332617Y-5230814D01*
X39334534Y-5244147D01*
X39325334Y-5264290D01*
X39320628Y-5285927D01*
X39307359Y-5303652D01*
X39305509Y-5307703D01*
X39299477Y-5314181D01*
X39290588Y-5323069D01*
X39290588Y-5323070D01*
X39290586Y-5323072D01*
X39277693Y-5340818D01*
X39188768Y-5463211D01*
X39110128Y-5617552D01*
X39056597Y-5782302D01*
X39056597Y-5782303D01*
X39029500Y-5953389D01*
X39029500Y-6126611D01*
X39032844Y-6147722D01*
X39042244Y-6207077D01*
X39056598Y-6297701D01*
X39108749Y-6458205D01*
X39110128Y-6462447D01*
X39168263Y-6576544D01*
X39188768Y-6616788D01*
X39290586Y-6756928D01*
X39413072Y-6879414D01*
X39553212Y-6981232D01*
X39707555Y-7059873D01*
X39872299Y-7113402D01*
X40043389Y-7140500D01*
X40043390Y-7140500D01*
X40216610Y-7140500D01*
X40216611Y-7140500D01*
X40387701Y-7113402D01*
X40552445Y-7059873D01*
X40706788Y-6981232D01*
X40846928Y-6879414D01*
X40969414Y-6756928D01*
X41071232Y-6616788D01*
X41149873Y-6462445D01*
X41203402Y-6297701D01*
X41227156Y-6147720D01*
X41257085Y-6084587D01*
X41316396Y-6047655D01*
X41386259Y-6048653D01*
X41444492Y-6087262D01*
X41472102Y-6147720D01*
X41499548Y-6321002D01*
X41557914Y-6500637D01*
X41643666Y-6668933D01*
X41706749Y-6755761D01*
X42213387Y-6249122D01*
X42269901Y-6347007D01*
X42362993Y-6440099D01*
X42460874Y-6496610D01*
X41954237Y-7003248D01*
X41954237Y-7003249D01*
X42041066Y-7066333D01*
X42209362Y-7152085D01*
X42388994Y-7210450D01*
X42415265Y-7214611D01*
X42478400Y-7244539D01*
X42515333Y-7303850D01*
X42514337Y-7373712D01*
X42483551Y-7424766D01*
X36647237Y-13261081D01*
X36585914Y-13294566D01*
X36559556Y-13297400D01*
X30965250Y-13297400D01*
X30898211Y-13277715D01*
X30852456Y-13224911D01*
X30842512Y-13155753D01*
X30864932Y-13100514D01*
X30889500Y-13066699D01*
X30911232Y-13036788D01*
X30989873Y-12882445D01*
X31043402Y-12717701D01*
X31070500Y-12546611D01*
X31070500Y-12373389D01*
X31043402Y-12202299D01*
X30989873Y-12037555D01*
X30911232Y-11883212D01*
X30809414Y-11743072D01*
X30686928Y-11620586D01*
X30546788Y-11518768D01*
X30506390Y-11498184D01*
X30455595Y-11450211D01*
X30438800Y-11382390D01*
X30461337Y-11316255D01*
X30516052Y-11272803D01*
X30562686Y-11263700D01*
X32762942Y-11263700D01*
X32762944Y-11263700D01*
X32852088Y-11239814D01*
X32932012Y-11193670D01*
X37037031Y-7088649D01*
X37098352Y-7055166D01*
X37163029Y-7058401D01*
X37167547Y-7059869D01*
X37167555Y-7059873D01*
X37332299Y-7113402D01*
X37503389Y-7140500D01*
X37503390Y-7140500D01*
X37676610Y-7140500D01*
X37676611Y-7140500D01*
X37847701Y-7113402D01*
X38012445Y-7059873D01*
X38166788Y-6981232D01*
X38306928Y-6879414D01*
X38429414Y-6756928D01*
X38531232Y-6616788D01*
X38609873Y-6462445D01*
X38663402Y-6297701D01*
X38690500Y-6126611D01*
X38690500Y-5953389D01*
X38663402Y-5782299D01*
X38609873Y-5617555D01*
X38531232Y-5463212D01*
X38429414Y-5323072D01*
X38420523Y-5314181D01*
X38387038Y-5252858D01*
X38392022Y-5183166D01*
X38433894Y-5127233D01*
X38499358Y-5102816D01*
X38508204Y-5102500D01*
X39211796Y-5102500D01*
X39233041Y-5108738D01*
G37*
%TD.AperFunction*%
%TA.AperFunction,Conductor*%
G36*
X28686259Y-6048653D02*
G01*
X28744492Y-6087262D01*
X28772102Y-6147720D01*
X28799548Y-6321002D01*
X28857914Y-6500637D01*
X28943666Y-6668933D01*
X29006749Y-6755761D01*
X29513387Y-6249123D01*
X29569901Y-6347007D01*
X29662993Y-6440099D01*
X29760875Y-6496611D01*
X29254237Y-7003248D01*
X29254237Y-7003249D01*
X29341066Y-7066333D01*
X29509362Y-7152085D01*
X29688994Y-7210450D01*
X29704732Y-7212943D01*
X29767868Y-7242871D01*
X29804801Y-7302181D01*
X29803805Y-7372044D01*
X29773019Y-7423098D01*
X28805937Y-8390181D01*
X28744614Y-8423666D01*
X28718256Y-8426500D01*
X25838544Y-8426500D01*
X25771505Y-8406815D01*
X25725750Y-8354011D01*
X25715806Y-8284853D01*
X25744831Y-8221297D01*
X25750863Y-8214819D01*
X26024917Y-7940765D01*
X26877031Y-7088649D01*
X26938352Y-7055166D01*
X27003029Y-7058401D01*
X27007547Y-7059869D01*
X27007555Y-7059873D01*
X27172299Y-7113402D01*
X27343389Y-7140500D01*
X27343390Y-7140500D01*
X27516610Y-7140500D01*
X27516611Y-7140500D01*
X27687701Y-7113402D01*
X27852445Y-7059873D01*
X28006788Y-6981232D01*
X28146928Y-6879414D01*
X28269414Y-6756928D01*
X28371232Y-6616788D01*
X28449873Y-6462445D01*
X28503402Y-6297701D01*
X28527156Y-6147720D01*
X28557085Y-6084587D01*
X28616396Y-6047655D01*
X28686259Y-6048653D01*
G37*
%TD.AperFunction*%
%TA.AperFunction,Conductor*%
G36*
X21949901Y-6347007D02*
G01*
X22042993Y-6440099D01*
X22140874Y-6496610D01*
X21631110Y-7006375D01*
X21631925Y-7011991D01*
X21622898Y-7031821D01*
X21618419Y-7053148D01*
X21608709Y-7062997D01*
X21602981Y-7075583D01*
X21584666Y-7087386D01*
X21569368Y-7102905D01*
X21555875Y-7105941D01*
X21544251Y-7113433D01*
X21509165Y-7118500D01*
X21195244Y-7118500D01*
X21128205Y-7098815D01*
X21082450Y-7046011D01*
X21072506Y-6976853D01*
X21101531Y-6913297D01*
X21107548Y-6906833D01*
X21230172Y-6784209D01*
X21257037Y-6769540D01*
X21282764Y-6752960D01*
X21287412Y-6752954D01*
X21291491Y-6750727D01*
X21322023Y-6752910D01*
X21329632Y-6752900D01*
X21329760Y-6751277D01*
X21350068Y-6752875D01*
X21352633Y-6752872D01*
X21353177Y-6753119D01*
X21386749Y-6755762D01*
X21893388Y-6249123D01*
X21949901Y-6347007D01*
G37*
%TD.AperFunction*%
%TA.AperFunction,Conductor*%
G36*
X23707000Y-6048653D02*
G01*
X23765233Y-6087263D01*
X23792843Y-6147721D01*
X23806349Y-6232993D01*
X23816598Y-6297701D01*
X23868749Y-6458205D01*
X23870128Y-6462447D01*
X23928263Y-6576544D01*
X23948768Y-6616788D01*
X24050586Y-6756928D01*
X24173072Y-6879414D01*
X24193399Y-6894183D01*
X24236064Y-6949513D01*
X24242043Y-7019126D01*
X24209437Y-7080921D01*
X24148598Y-7115278D01*
X24120513Y-7118500D01*
X23190834Y-7118500D01*
X23123795Y-7098815D01*
X23078040Y-7046011D01*
X23071495Y-7008982D01*
X22559124Y-6496611D01*
X22657007Y-6440099D01*
X22750099Y-6347007D01*
X22806611Y-6249124D01*
X23313249Y-6755762D01*
X23313251Y-6755761D01*
X23376329Y-6668940D01*
X23462085Y-6500637D01*
X23520451Y-6321002D01*
X23547897Y-6147721D01*
X23577826Y-6084586D01*
X23637138Y-6047655D01*
X23707000Y-6048653D01*
G37*
%TD.AperFunction*%
%TA.AperFunction,Conductor*%
G36*
X13782172Y-2709285D02*
G01*
X13827927Y-2762089D01*
X13837871Y-2831247D01*
X13815451Y-2886485D01*
X13788770Y-2923208D01*
X13710128Y-3077552D01*
X13656597Y-3242302D01*
X13632844Y-3392277D01*
X13629500Y-3413389D01*
X13629500Y-3586611D01*
X13632844Y-3607722D01*
X13656597Y-3757697D01*
X13656597Y-3757699D01*
X13656598Y-3757701D01*
X13710127Y-3922445D01*
X13788768Y-4076788D01*
X13890586Y-4216928D01*
X14013072Y-4339414D01*
X14153212Y-4441232D01*
X14307555Y-4519873D01*
X14472299Y-4573402D01*
X14643389Y-4600500D01*
X14643390Y-4600500D01*
X14816610Y-4600500D01*
X14816611Y-4600500D01*
X14987701Y-4573402D01*
X15152445Y-4519873D01*
X15306788Y-4441232D01*
X15446928Y-4339414D01*
X15569414Y-4216928D01*
X15671232Y-4076788D01*
X15749873Y-3922445D01*
X15803402Y-3757701D01*
X15827156Y-3607720D01*
X15857085Y-3544587D01*
X15916396Y-3507655D01*
X15986259Y-3508653D01*
X16044492Y-3547262D01*
X16072102Y-3607720D01*
X16099548Y-3781002D01*
X16157914Y-3960637D01*
X16243666Y-4128933D01*
X16306749Y-4215761D01*
X16813387Y-3709122D01*
X16869901Y-3807007D01*
X16962993Y-3900099D01*
X17060874Y-3956610D01*
X16554237Y-4463248D01*
X16555241Y-4476001D01*
X16576824Y-4503989D01*
X16582805Y-4573603D01*
X16550200Y-4635398D01*
X16548955Y-4636661D01*
X15795427Y-5390190D01*
X15734104Y-5423675D01*
X15664413Y-5418691D01*
X15608479Y-5376819D01*
X15607428Y-5375394D01*
X15582306Y-5340817D01*
X15569414Y-5323072D01*
X15446928Y-5200586D01*
X15306788Y-5098768D01*
X15211993Y-5050468D01*
X15152447Y-5020128D01*
X15152446Y-5020127D01*
X15152445Y-5020127D01*
X14987701Y-4966598D01*
X14987699Y-4966597D01*
X14987698Y-4966597D01*
X14856271Y-4945781D01*
X14816611Y-4939500D01*
X14643389Y-4939500D01*
X14603728Y-4945781D01*
X14472302Y-4966597D01*
X14307552Y-5020128D01*
X14153211Y-5098768D01*
X14103577Y-5134830D01*
X14013072Y-5200586D01*
X14013070Y-5200588D01*
X14013069Y-5200588D01*
X13890588Y-5323069D01*
X13890588Y-5323070D01*
X13890586Y-5323072D01*
X13877693Y-5340818D01*
X13788768Y-5463211D01*
X13710128Y-5617552D01*
X13656597Y-5782302D01*
X13632843Y-5932278D01*
X13602914Y-5995413D01*
X13543602Y-6032344D01*
X13473739Y-6031346D01*
X13415507Y-5992736D01*
X13387897Y-5932278D01*
X13360451Y-5758997D01*
X13302085Y-5579362D01*
X13216333Y-5411066D01*
X13153249Y-5324237D01*
X12646611Y-5830875D01*
X12590099Y-5732993D01*
X12497007Y-5639901D01*
X12399123Y-5583388D01*
X12905761Y-5076749D01*
X12818933Y-5013666D01*
X12650637Y-4927914D01*
X12471002Y-4869548D01*
X12297720Y-4842102D01*
X12234586Y-4812172D01*
X12197655Y-4752861D01*
X12198653Y-4682998D01*
X12237263Y-4624766D01*
X12297720Y-4597156D01*
X12391306Y-4582334D01*
X12447696Y-4573403D01*
X12447696Y-4573402D01*
X12447701Y-4573402D01*
X12612445Y-4519873D01*
X12766788Y-4441232D01*
X12906928Y-4339414D01*
X13029414Y-4216928D01*
X13131232Y-4076788D01*
X13209873Y-3922445D01*
X13263402Y-3757701D01*
X13290500Y-3586611D01*
X13290500Y-3413389D01*
X13263402Y-3242299D01*
X13209873Y-3077555D01*
X13131232Y-2923212D01*
X13128471Y-2919412D01*
X13104549Y-2886485D01*
X13081069Y-2820679D01*
X13096895Y-2752625D01*
X13147000Y-2703930D01*
X13204867Y-2689600D01*
X13715133Y-2689600D01*
X13782172Y-2709285D01*
G37*
%TD.AperFunction*%
%TA.AperFunction,Conductor*%
G36*
X29543029Y-4518401D02*
G01*
X29547547Y-4519869D01*
X29547555Y-4519873D01*
X29712299Y-4573402D01*
X29712305Y-4573403D01*
X29712303Y-4573403D01*
X29791631Y-4585967D01*
X29862277Y-4597156D01*
X29925412Y-4627085D01*
X29962344Y-4686396D01*
X29961346Y-4756259D01*
X29922737Y-4814492D01*
X29862279Y-4842102D01*
X29688997Y-4869548D01*
X29509362Y-4927914D01*
X29341064Y-5013667D01*
X29341062Y-5013668D01*
X29254237Y-5076748D01*
X29254237Y-5076749D01*
X29760876Y-5583388D01*
X29662993Y-5639901D01*
X29569901Y-5732993D01*
X29513388Y-5830876D01*
X29006749Y-5324237D01*
X29006748Y-5324237D01*
X28943668Y-5411062D01*
X28943667Y-5411064D01*
X28857914Y-5579362D01*
X28799548Y-5758997D01*
X28772102Y-5932279D01*
X28742172Y-5995413D01*
X28682861Y-6032344D01*
X28612998Y-6031346D01*
X28554766Y-5992736D01*
X28527156Y-5932277D01*
X28503403Y-5782303D01*
X28503402Y-5782302D01*
X28503402Y-5782299D01*
X28449873Y-5617555D01*
X28371232Y-5463212D01*
X28269414Y-5323072D01*
X28269411Y-5323069D01*
X28266550Y-5319131D01*
X28267975Y-5318094D01*
X28242515Y-5261255D01*
X28252961Y-5192171D01*
X28299098Y-5139700D01*
X28365378Y-5120500D01*
X28746142Y-5120500D01*
X28746144Y-5120500D01*
X28835288Y-5096614D01*
X28915212Y-5050470D01*
X29417031Y-4548649D01*
X29478352Y-4515166D01*
X29543029Y-4518401D01*
G37*
%TD.AperFunction*%
%TA.AperFunction,Conductor*%
G36*
X47323029Y-4518401D02*
G01*
X47327547Y-4519869D01*
X47327555Y-4519873D01*
X47492299Y-4573402D01*
X47492305Y-4573403D01*
X47492303Y-4573403D01*
X47571631Y-4585967D01*
X47642277Y-4597156D01*
X47705412Y-4627085D01*
X47742344Y-4686396D01*
X47741346Y-4756259D01*
X47702737Y-4814492D01*
X47642279Y-4842102D01*
X47468997Y-4869548D01*
X47289362Y-4927914D01*
X47121064Y-5013667D01*
X47121062Y-5013668D01*
X47034237Y-5076748D01*
X47034237Y-5076749D01*
X47540876Y-5583388D01*
X47442993Y-5639901D01*
X47349901Y-5732993D01*
X47293388Y-5830876D01*
X46786749Y-5324237D01*
X46786748Y-5324237D01*
X46723668Y-5411062D01*
X46723667Y-5411064D01*
X46637914Y-5579362D01*
X46579548Y-5758997D01*
X46552102Y-5932279D01*
X46522172Y-5995413D01*
X46462861Y-6032344D01*
X46392998Y-6031346D01*
X46334766Y-5992736D01*
X46307156Y-5932277D01*
X46283403Y-5782303D01*
X46283402Y-5782302D01*
X46283402Y-5782299D01*
X46229873Y-5617555D01*
X46151232Y-5463212D01*
X46049414Y-5323072D01*
X46049411Y-5323069D01*
X46046550Y-5319131D01*
X46047975Y-5318094D01*
X46022515Y-5261255D01*
X46032961Y-5192171D01*
X46079098Y-5139700D01*
X46145378Y-5120500D01*
X46526142Y-5120500D01*
X46526144Y-5120500D01*
X46615288Y-5096614D01*
X46695212Y-5050470D01*
X47197031Y-4548649D01*
X47258352Y-4515166D01*
X47323029Y-4518401D01*
G37*
%TD.AperFunction*%
%TA.AperFunction,Conductor*%
G36*
X49294769Y-2682747D02*
G01*
X49307314Y-2681670D01*
X49327658Y-2692404D01*
X49349728Y-2698885D01*
X49357972Y-2708400D01*
X49369109Y-2714276D01*
X49380420Y-2734306D01*
X49395483Y-2751689D01*
X49397274Y-2764150D01*
X49403466Y-2775114D01*
X49402153Y-2798078D01*
X49405427Y-2820847D01*
X49400101Y-2833968D01*
X49399478Y-2844870D01*
X49383007Y-2876085D01*
X49348770Y-2923208D01*
X49270128Y-3077552D01*
X49216597Y-3242302D01*
X49192844Y-3392277D01*
X49189500Y-3413389D01*
X49189500Y-3586611D01*
X49192844Y-3607722D01*
X49216597Y-3757697D01*
X49216597Y-3757699D01*
X49216598Y-3757701D01*
X49270127Y-3922445D01*
X49348768Y-4076788D01*
X49450586Y-4216928D01*
X49573072Y-4339414D01*
X49713212Y-4441232D01*
X49867555Y-4519873D01*
X50032299Y-4573402D01*
X50203389Y-4600500D01*
X50203390Y-4600500D01*
X50376610Y-4600500D01*
X50376611Y-4600500D01*
X50547701Y-4573402D01*
X50712445Y-4519873D01*
X50866788Y-4441232D01*
X51006928Y-4339414D01*
X51129414Y-4216928D01*
X51231232Y-4076788D01*
X51309873Y-3922445D01*
X51363402Y-3757701D01*
X51390500Y-3586611D01*
X51390500Y-3413389D01*
X51363402Y-3242299D01*
X51309873Y-3077555D01*
X51231232Y-2923212D01*
X51227933Y-2918671D01*
X51196993Y-2876085D01*
X51173513Y-2810279D01*
X51189339Y-2742225D01*
X51239444Y-2693530D01*
X51297311Y-2679200D01*
X51822689Y-2679200D01*
X51889728Y-2698885D01*
X51935483Y-2751689D01*
X51945427Y-2820847D01*
X51923007Y-2876085D01*
X51888770Y-2923208D01*
X51810128Y-3077552D01*
X51756597Y-3242302D01*
X51732844Y-3392277D01*
X51729500Y-3413389D01*
X51729500Y-3586611D01*
X51732844Y-3607722D01*
X51756597Y-3757698D01*
X51811597Y-3926970D01*
X51813592Y-3996811D01*
X51781347Y-4052969D01*
X51279531Y-4554786D01*
X51279527Y-4554791D01*
X51248906Y-4607830D01*
X51248906Y-4607831D01*
X51233386Y-4634710D01*
X51209500Y-4723856D01*
X51209500Y-5104622D01*
X51189815Y-5171661D01*
X51137011Y-5217416D01*
X51067853Y-5227360D01*
X51011888Y-5202046D01*
X51010869Y-5203450D01*
X51006930Y-5200588D01*
X51006928Y-5200586D01*
X50866788Y-5098768D01*
X50771993Y-5050468D01*
X50712447Y-5020128D01*
X50712446Y-5020127D01*
X50712445Y-5020127D01*
X50547701Y-4966598D01*
X50547699Y-4966597D01*
X50547698Y-4966597D01*
X50416271Y-4945781D01*
X50376611Y-4939500D01*
X50203389Y-4939500D01*
X50163728Y-4945781D01*
X50032302Y-4966597D01*
X49867552Y-5020128D01*
X49713211Y-5098768D01*
X49663577Y-5134830D01*
X49573072Y-5200586D01*
X49573070Y-5200588D01*
X49573069Y-5200588D01*
X49450588Y-5323069D01*
X49450588Y-5323070D01*
X49450586Y-5323072D01*
X49437693Y-5340818D01*
X49348768Y-5463211D01*
X49270128Y-5617552D01*
X49216597Y-5782302D01*
X49192843Y-5932278D01*
X49162914Y-5995413D01*
X49103602Y-6032344D01*
X49033739Y-6031346D01*
X48975507Y-5992736D01*
X48947897Y-5932278D01*
X48920451Y-5758997D01*
X48862085Y-5579362D01*
X48776333Y-5411066D01*
X48713249Y-5324237D01*
X48206611Y-5830875D01*
X48150099Y-5732993D01*
X48057007Y-5639901D01*
X47959123Y-5583388D01*
X48465761Y-5076749D01*
X48378933Y-5013666D01*
X48210637Y-4927914D01*
X48031002Y-4869548D01*
X47857720Y-4842102D01*
X47794586Y-4812172D01*
X47757655Y-4752861D01*
X47758653Y-4682998D01*
X47797263Y-4624766D01*
X47857720Y-4597156D01*
X47951306Y-4582334D01*
X48007696Y-4573403D01*
X48007696Y-4573402D01*
X48007701Y-4573402D01*
X48172445Y-4519873D01*
X48326788Y-4441232D01*
X48466928Y-4339414D01*
X48589414Y-4216928D01*
X48691232Y-4076788D01*
X48769873Y-3922445D01*
X48823402Y-3757701D01*
X48850500Y-3586611D01*
X48850500Y-3413389D01*
X48823402Y-3242299D01*
X48769873Y-3077555D01*
X48691232Y-2923212D01*
X48687933Y-2918671D01*
X48656993Y-2876085D01*
X48633513Y-2810279D01*
X48649339Y-2742225D01*
X48699444Y-2693530D01*
X48757311Y-2679200D01*
X49282689Y-2679200D01*
X49294769Y-2682747D01*
G37*
%TD.AperFunction*%
%TA.AperFunction,Conductor*%
G36*
X37189901Y-3807007D02*
G01*
X37282993Y-3900099D01*
X37380874Y-3956610D01*
X36874236Y-4463249D01*
X36877662Y-4506782D01*
X36863297Y-4575159D01*
X36841725Y-4604191D01*
X36090305Y-5355611D01*
X36028982Y-5389096D01*
X35959290Y-5384112D01*
X35903357Y-5342240D01*
X35902308Y-5340818D01*
X35889416Y-5323075D01*
X35889411Y-5323069D01*
X35766931Y-5200589D01*
X35766930Y-5200588D01*
X35766928Y-5200586D01*
X35749179Y-5187690D01*
X35706516Y-5132364D01*
X35700537Y-5062751D01*
X35733142Y-5000955D01*
X35734305Y-4999776D01*
X36485811Y-4248270D01*
X36547130Y-4214788D01*
X36583217Y-4212336D01*
X36626748Y-4215761D01*
X37133387Y-3709122D01*
X37189901Y-3807007D01*
G37*
%TD.AperFunction*%
%TA.AperFunction,Conductor*%
G36*
X54969901Y-3807007D02*
G01*
X55062993Y-3900099D01*
X55160875Y-3956611D01*
X54654237Y-4463248D01*
X54654237Y-4463249D01*
X54741066Y-4526333D01*
X54909362Y-4612085D01*
X55088997Y-4670451D01*
X55262278Y-4697897D01*
X55325413Y-4727826D01*
X55362344Y-4787138D01*
X55361346Y-4857000D01*
X55322736Y-4915233D01*
X55262278Y-4942843D01*
X55112302Y-4966597D01*
X54947552Y-5020128D01*
X54793211Y-5098768D01*
X54743577Y-5134830D01*
X54653072Y-5200586D01*
X54653070Y-5200588D01*
X54653069Y-5200588D01*
X54565581Y-5288077D01*
X54504258Y-5321562D01*
X54434566Y-5316578D01*
X54378633Y-5274706D01*
X54354216Y-5209242D01*
X54353900Y-5200396D01*
X54353900Y-4319973D01*
X54373585Y-4252934D01*
X54390219Y-4232292D01*
X54913388Y-3709123D01*
X54969901Y-3807007D01*
G37*
%TD.AperFunction*%
%TA.AperFunction,Conductor*%
G36*
X64442539Y-520185D02*
G01*
X64488294Y-572989D01*
X64499500Y-624500D01*
X64499500Y-55875500D01*
X64479815Y-55942539D01*
X64427011Y-55988294D01*
X64375500Y-55999500D01*
X624500Y-55999500D01*
X557461Y-55979815D01*
X511706Y-55927011D01*
X500500Y-55875500D01*
X500500Y-52499998D01*
X1000000Y-52499998D01*
X1000000Y-52500001D01*
X1085184Y-53147045D01*
X1085185Y-53147047D01*
X1334936Y-53750000D01*
X1732233Y-54267766D01*
X2250000Y-54665063D01*
X2852952Y-54914814D01*
X3176476Y-54957407D01*
X3499999Y-55000000D01*
X3500000Y-55000000D01*
X3500001Y-55000000D01*
X3715682Y-54971604D01*
X4147047Y-54914814D01*
X4750000Y-54665063D01*
X5267766Y-54267766D01*
X5665063Y-53750000D01*
X5914814Y-53147047D01*
X6000000Y-52500000D01*
X5998600Y-52489368D01*
X5914814Y-51852953D01*
X5914814Y-51852952D01*
X5710116Y-51358768D01*
X5665064Y-51250002D01*
X5665062Y-51249998D01*
X5626025Y-51199125D01*
X5626024Y-51199124D01*
X5598914Y-51163794D01*
X5267766Y-50732233D01*
X4750955Y-50335669D01*
X12050000Y-50335669D01*
X12050000Y-50825000D01*
X12668024Y-50825000D01*
X12650556Y-50855255D01*
X12625000Y-50950630D01*
X12625000Y-51049370D01*
X12650556Y-51144745D01*
X12668024Y-51175000D01*
X12050001Y-51175000D01*
X12050001Y-51664324D01*
X12065442Y-51781628D01*
X12065444Y-51781633D01*
X12125899Y-51927585D01*
X12222075Y-52052924D01*
X12347413Y-52149100D01*
X12493365Y-52209554D01*
X12493369Y-52209555D01*
X12610676Y-52224999D01*
X12824999Y-52224999D01*
X12825000Y-52224998D01*
X12825000Y-51331976D01*
X12855255Y-51349444D01*
X12950630Y-51375000D01*
X13049370Y-51375000D01*
X13144745Y-51349444D01*
X13175000Y-51331976D01*
X13175000Y-52224999D01*
X13389324Y-52224999D01*
X13506628Y-52209557D01*
X13506633Y-52209555D01*
X13652585Y-52149100D01*
X13777924Y-52052924D01*
X13874100Y-51927586D01*
X13934554Y-51781634D01*
X13934555Y-51781630D01*
X13949999Y-51664330D01*
X13949999Y-51585931D01*
X13969683Y-51518891D01*
X14022486Y-51473135D01*
X14091645Y-51463191D01*
X14155201Y-51492215D01*
X14188560Y-51538476D01*
X14246295Y-51677860D01*
X14339373Y-51817162D01*
X14457837Y-51935626D01*
X14550494Y-51997537D01*
X14597137Y-52028703D01*
X14751918Y-52092816D01*
X14914800Y-52125215D01*
X14916228Y-52125499D01*
X14916232Y-52125500D01*
X14916233Y-52125500D01*
X15083768Y-52125500D01*
X15083769Y-52125499D01*
X15248082Y-52092816D01*
X15402863Y-52028703D01*
X15542162Y-51935626D01*
X15660626Y-51817162D01*
X15753703Y-51677863D01*
X15817816Y-51523082D01*
X15829729Y-51463191D01*
X15832292Y-51450309D01*
X15864677Y-51388398D01*
X15925344Y-51353835D01*
X15939432Y-51350500D01*
X15947844Y-51350500D01*
X16011641Y-51333405D01*
X16013380Y-51332994D01*
X16046516Y-51334756D01*
X16079700Y-51335547D01*
X16081264Y-51336605D01*
X16083151Y-51336706D01*
X16110087Y-51356113D01*
X16137563Y-51374709D01*
X16138429Y-51376533D01*
X16139839Y-51377549D01*
X16144356Y-51389017D01*
X16163562Y-51429467D01*
X16182182Y-51523076D01*
X16182184Y-51523082D01*
X16246295Y-51677860D01*
X16339373Y-51817162D01*
X16457837Y-51935626D01*
X16550494Y-51997537D01*
X16597137Y-52028703D01*
X16751918Y-52092816D01*
X16914800Y-52125215D01*
X16916228Y-52125499D01*
X16916232Y-52125500D01*
X16916233Y-52125500D01*
X17083768Y-52125500D01*
X17083769Y-52125499D01*
X17248082Y-52092816D01*
X17402863Y-52028703D01*
X17542162Y-51935626D01*
X17660626Y-51817162D01*
X17753703Y-51677863D01*
X17817816Y-51523082D01*
X17850500Y-51358767D01*
X17850500Y-50641233D01*
X17817816Y-50476918D01*
X17753703Y-50322137D01*
X17753700Y-50322133D01*
X17750834Y-50316770D01*
X17751989Y-50316152D01*
X17733128Y-50255914D01*
X17751612Y-50188534D01*
X17803591Y-50141843D01*
X17857108Y-50129700D01*
X18142892Y-50129700D01*
X18209931Y-50149385D01*
X18255686Y-50202189D01*
X18265630Y-50271347D01*
X18248384Y-50316352D01*
X18249166Y-50316770D01*
X18246296Y-50322138D01*
X18182184Y-50476917D01*
X18182182Y-50476925D01*
X18149500Y-50641228D01*
X18149500Y-51358771D01*
X18182182Y-51523074D01*
X18182184Y-51523082D01*
X18246295Y-51677860D01*
X18339373Y-51817162D01*
X18457837Y-51935626D01*
X18550494Y-51997537D01*
X18597137Y-52028703D01*
X18751918Y-52092816D01*
X18914800Y-52125215D01*
X18916228Y-52125499D01*
X18916232Y-52125500D01*
X18916233Y-52125500D01*
X19083768Y-52125500D01*
X19083769Y-52125499D01*
X19248082Y-52092816D01*
X19402863Y-52028703D01*
X19542162Y-51935626D01*
X19660626Y-51817162D01*
X19753703Y-51677863D01*
X19779392Y-51615845D01*
X19823233Y-51561441D01*
X19889527Y-51539376D01*
X19957226Y-51556655D01*
X19981634Y-51575616D01*
X20895388Y-52489370D01*
X20975312Y-52535514D01*
X21064456Y-52559400D01*
X21064458Y-52559400D01*
X31499142Y-52559400D01*
X31499144Y-52559400D01*
X31588288Y-52535514D01*
X31649804Y-52499998D01*
X59000000Y-52499998D01*
X59000000Y-52500001D01*
X59085184Y-53147045D01*
X59085185Y-53147047D01*
X59334936Y-53750000D01*
X59732233Y-54267766D01*
X60250000Y-54665063D01*
X60852952Y-54914814D01*
X61176476Y-54957407D01*
X61499999Y-55000000D01*
X61500000Y-55000000D01*
X61500001Y-55000000D01*
X61715682Y-54971604D01*
X62147047Y-54914814D01*
X62750000Y-54665063D01*
X63267766Y-54267766D01*
X63665063Y-53750000D01*
X63914814Y-53147047D01*
X64000000Y-52500000D01*
X63998600Y-52489368D01*
X63914814Y-51852953D01*
X63914814Y-51852952D01*
X63710116Y-51358768D01*
X63665064Y-51250002D01*
X63665063Y-51250001D01*
X63665063Y-51250000D01*
X63267766Y-50732233D01*
X62750000Y-50334936D01*
X62749995Y-50334934D01*
X62147047Y-50085185D01*
X62147045Y-50085184D01*
X61500001Y-50000000D01*
X61499999Y-50000000D01*
X60852953Y-50085184D01*
X60852951Y-50085185D01*
X60250002Y-50334934D01*
X59732233Y-50732233D01*
X59334934Y-51250002D01*
X59085185Y-51852951D01*
X59085184Y-51852953D01*
X59000000Y-52499998D01*
X31649804Y-52499998D01*
X31668212Y-52489370D01*
X32252217Y-51905364D01*
X32313538Y-51871881D01*
X32383229Y-51876865D01*
X32427577Y-51905366D01*
X32457837Y-51935626D01*
X32550494Y-51997537D01*
X32597137Y-52028703D01*
X32751918Y-52092816D01*
X32914800Y-52125215D01*
X32916228Y-52125499D01*
X32916232Y-52125500D01*
X32916233Y-52125500D01*
X33083768Y-52125500D01*
X33083769Y-52125499D01*
X33248082Y-52092816D01*
X33402863Y-52028703D01*
X33542162Y-51935626D01*
X33660626Y-51817162D01*
X33753703Y-51677863D01*
X33817816Y-51523082D01*
X33850500Y-51358767D01*
X33850500Y-50641233D01*
X33817816Y-50476918D01*
X33753703Y-50322137D01*
X33709454Y-50255914D01*
X33660626Y-50182837D01*
X33542162Y-50064373D01*
X33402860Y-49971295D01*
X33248082Y-49907184D01*
X33248074Y-49907182D01*
X33083771Y-49874500D01*
X33083767Y-49874500D01*
X32916233Y-49874500D01*
X32916228Y-49874500D01*
X32751925Y-49907182D01*
X32751917Y-49907184D01*
X32597139Y-49971295D01*
X32457837Y-50064373D01*
X32339373Y-50182837D01*
X32246295Y-50322139D01*
X32182184Y-50476917D01*
X32182182Y-50476925D01*
X32167708Y-50549691D01*
X32135323Y-50611602D01*
X32074655Y-50646165D01*
X32060567Y-50649500D01*
X32052156Y-50649500D01*
X31988405Y-50666581D01*
X31986618Y-50667005D01*
X31953481Y-50665242D01*
X31920297Y-50664452D01*
X31918732Y-50663393D01*
X31916847Y-50663293D01*
X31889924Y-50643895D01*
X31862434Y-50625289D01*
X31861567Y-50623463D01*
X31860159Y-50622449D01*
X31855644Y-50610988D01*
X31836437Y-50570531D01*
X31826527Y-50520714D01*
X31817816Y-50476918D01*
X31753703Y-50322137D01*
X31709454Y-50255914D01*
X31660626Y-50182837D01*
X31542162Y-50064373D01*
X31402860Y-49971295D01*
X31248082Y-49907184D01*
X31248074Y-49907182D01*
X31083771Y-49874500D01*
X31083767Y-49874500D01*
X30916233Y-49874500D01*
X30916228Y-49874500D01*
X30751925Y-49907182D01*
X30751917Y-49907184D01*
X30597139Y-49971295D01*
X30457837Y-50064373D01*
X30339373Y-50182837D01*
X30246295Y-50322139D01*
X30182184Y-50476917D01*
X30182182Y-50476925D01*
X30149500Y-50641228D01*
X30149500Y-51358771D01*
X30182182Y-51523074D01*
X30182184Y-51523082D01*
X30248628Y-51683491D01*
X30246986Y-51684170D01*
X30259514Y-51744357D01*
X30234509Y-51809599D01*
X30178202Y-51850966D01*
X30135914Y-51858400D01*
X29864086Y-51858400D01*
X29797047Y-51838715D01*
X29751292Y-51785911D01*
X29741348Y-51716753D01*
X29752147Y-51683812D01*
X29751372Y-51683491D01*
X29779392Y-51615845D01*
X29817816Y-51523082D01*
X29850500Y-51358767D01*
X29850500Y-50641233D01*
X29817816Y-50476918D01*
X29753703Y-50322137D01*
X29709454Y-50255914D01*
X29660626Y-50182837D01*
X29542162Y-50064373D01*
X29402860Y-49971295D01*
X29248082Y-49907184D01*
X29248074Y-49907182D01*
X29083771Y-49874500D01*
X29083767Y-49874500D01*
X28916233Y-49874500D01*
X28916228Y-49874500D01*
X28751925Y-49907182D01*
X28751917Y-49907184D01*
X28597140Y-49971295D01*
X28469807Y-50056376D01*
X28403130Y-50077253D01*
X28335750Y-50058768D01*
X28313236Y-50040954D01*
X27771013Y-49498731D01*
X27771008Y-49498727D01*
X27691090Y-49452587D01*
X27691089Y-49452586D01*
X27691088Y-49452586D01*
X27601944Y-49428700D01*
X16512756Y-49428700D01*
X16423612Y-49452586D01*
X16423609Y-49452587D01*
X16343691Y-49498727D01*
X16343686Y-49498731D01*
X15747784Y-50094633D01*
X15686461Y-50128118D01*
X15616769Y-50123134D01*
X15572422Y-50094633D01*
X15542162Y-50064373D01*
X15402860Y-49971295D01*
X15248082Y-49907184D01*
X15248074Y-49907182D01*
X15083771Y-49874500D01*
X15083767Y-49874500D01*
X14916233Y-49874500D01*
X14916228Y-49874500D01*
X14751925Y-49907182D01*
X14751917Y-49907184D01*
X14597139Y-49971295D01*
X14457837Y-50064373D01*
X14339373Y-50182837D01*
X14246295Y-50322139D01*
X14188560Y-50461525D01*
X14144719Y-50515928D01*
X14078425Y-50537993D01*
X14010725Y-50520714D01*
X13963115Y-50469576D01*
X13949999Y-50414072D01*
X13949999Y-50335675D01*
X13934557Y-50218371D01*
X13934555Y-50218366D01*
X13874100Y-50072414D01*
X13777924Y-49947075D01*
X13652586Y-49850899D01*
X13506634Y-49790445D01*
X13506630Y-49790444D01*
X13389330Y-49775000D01*
X13175000Y-49775000D01*
X13175000Y-50668023D01*
X13144745Y-50650556D01*
X13049370Y-50625000D01*
X12950630Y-50625000D01*
X12855255Y-50650556D01*
X12825000Y-50668023D01*
X12825000Y-49775000D01*
X12610675Y-49775000D01*
X12493371Y-49790442D01*
X12493366Y-49790444D01*
X12347414Y-49850899D01*
X12222075Y-49947075D01*
X12125899Y-50072413D01*
X12065445Y-50218365D01*
X12065444Y-50218369D01*
X12050000Y-50335669D01*
X4750955Y-50335669D01*
X4750000Y-50334936D01*
X4147047Y-50085185D01*
X4147045Y-50085184D01*
X3500000Y-50000000D01*
X3499998Y-50000000D01*
X2852953Y-50085184D01*
X2852951Y-50085185D01*
X2250000Y-50334935D01*
X1732233Y-50732233D01*
X1334934Y-51250002D01*
X1085185Y-51852951D01*
X1085184Y-51852953D01*
X1000000Y-52499998D01*
X500500Y-52499998D01*
X500500Y-40113825D01*
X12476700Y-40113825D01*
X12476700Y-40258775D01*
X12511747Y-40389570D01*
X12514217Y-40398788D01*
X12586688Y-40524311D01*
X12586690Y-40524313D01*
X12586691Y-40524315D01*
X12689185Y-40626809D01*
X12689186Y-40626810D01*
X12689188Y-40626811D01*
X12814711Y-40699282D01*
X12814712Y-40699282D01*
X12814715Y-40699284D01*
X12954725Y-40736800D01*
X12954728Y-40736800D01*
X13099672Y-40736800D01*
X13099675Y-40736800D01*
X13239685Y-40699284D01*
X13365215Y-40626809D01*
X13467709Y-40524315D01*
X13469277Y-40521598D01*
X13471199Y-40519765D01*
X13472659Y-40517864D01*
X13472955Y-40518091D01*
X13519845Y-40473384D01*
X13576664Y-40459600D01*
X48324614Y-40459600D01*
X48391653Y-40479285D01*
X48412295Y-40495919D01*
X48465985Y-40549609D01*
X48465986Y-40549610D01*
X48465988Y-40549611D01*
X48591511Y-40622082D01*
X48591512Y-40622082D01*
X48591515Y-40622084D01*
X48731525Y-40659600D01*
X48731528Y-40659600D01*
X48876472Y-40659600D01*
X48876475Y-40659600D01*
X49016485Y-40622084D01*
X49142015Y-40549609D01*
X49195705Y-40495919D01*
X49257028Y-40462434D01*
X49283386Y-40459600D01*
X53434142Y-40459600D01*
X53434144Y-40459600D01*
X53523288Y-40435714D01*
X53533912Y-40429580D01*
X53603212Y-40389570D01*
X53700886Y-40291895D01*
X53705848Y-40287864D01*
X53732412Y-40276734D01*
X53757686Y-40262934D01*
X53767998Y-40261825D01*
X53770290Y-40260865D01*
X53772805Y-40261308D01*
X53784044Y-40260100D01*
X53859972Y-40260100D01*
X53859975Y-40260100D01*
X53999985Y-40222584D01*
X54125515Y-40150109D01*
X54228009Y-40047615D01*
X54300484Y-39922085D01*
X54338000Y-39782075D01*
X54338000Y-39637125D01*
X54300484Y-39497115D01*
X54228009Y-39371585D01*
X54125515Y-39269091D01*
X54125513Y-39269090D01*
X54125511Y-39269088D01*
X53999988Y-39196617D01*
X53999989Y-39196617D01*
X53988506Y-39193540D01*
X53859975Y-39159100D01*
X53715025Y-39159100D01*
X53586493Y-39193540D01*
X53575011Y-39196617D01*
X53449488Y-39269088D01*
X53449482Y-39269093D01*
X53346993Y-39371582D01*
X53346988Y-39371588D01*
X53274517Y-39497111D01*
X53236999Y-39637128D01*
X53235939Y-39645185D01*
X53233968Y-39644925D01*
X53217315Y-39701639D01*
X53164511Y-39747394D01*
X53113000Y-39758600D01*
X49283386Y-39758600D01*
X49216347Y-39738915D01*
X49195705Y-39722281D01*
X49142017Y-39668593D01*
X49142011Y-39668588D01*
X49016488Y-39596117D01*
X49016489Y-39596117D01*
X49005006Y-39593040D01*
X48876475Y-39558600D01*
X48731525Y-39558600D01*
X48602993Y-39593040D01*
X48591511Y-39596117D01*
X48465988Y-39668588D01*
X48465982Y-39668593D01*
X48412295Y-39722281D01*
X48350972Y-39755766D01*
X48324614Y-39758600D01*
X13420626Y-39758600D01*
X13358627Y-39741987D01*
X13239685Y-39673316D01*
X13099675Y-39635800D01*
X12954725Y-39635800D01*
X12832360Y-39668588D01*
X12814711Y-39673317D01*
X12689188Y-39745788D01*
X12689182Y-39745793D01*
X12586693Y-39848282D01*
X12586688Y-39848288D01*
X12514217Y-39973811D01*
X12514216Y-39973815D01*
X12476700Y-40113825D01*
X500500Y-40113825D01*
X500500Y-31160925D01*
X27504700Y-31160925D01*
X27504700Y-31305875D01*
X27542216Y-31445885D01*
X27542217Y-31445888D01*
X27614688Y-31571411D01*
X27614690Y-31571413D01*
X27614691Y-31571415D01*
X27717185Y-31673909D01*
X27717186Y-31673910D01*
X27717188Y-31673911D01*
X27842711Y-31746382D01*
X27842712Y-31746382D01*
X27842715Y-31746384D01*
X27982725Y-31783900D01*
X27982728Y-31783900D01*
X28127672Y-31783900D01*
X28127675Y-31783900D01*
X28267685Y-31746384D01*
X28393215Y-31673909D01*
X28495709Y-31571415D01*
X28568184Y-31445885D01*
X28605700Y-31305875D01*
X28605700Y-31229943D01*
X28625385Y-31162904D01*
X28642019Y-31142262D01*
X30947062Y-28837219D01*
X31008385Y-28803734D01*
X31034743Y-28800900D01*
X46150714Y-28800900D01*
X46217753Y-28820585D01*
X46238395Y-28837219D01*
X46292085Y-28890909D01*
X46292086Y-28890910D01*
X46292088Y-28890911D01*
X46417611Y-28963382D01*
X46417612Y-28963382D01*
X46417615Y-28963384D01*
X46557625Y-29000900D01*
X46557628Y-29000900D01*
X46702572Y-29000900D01*
X46702575Y-29000900D01*
X46842585Y-28963384D01*
X46968115Y-28890909D01*
X47070609Y-28788415D01*
X47143084Y-28662885D01*
X47180600Y-28522875D01*
X47180600Y-28377925D01*
X47143084Y-28237915D01*
X47103834Y-28169933D01*
X47070611Y-28112388D01*
X47070606Y-28112382D01*
X46968117Y-28009893D01*
X46968111Y-28009888D01*
X46842588Y-27937417D01*
X46842589Y-27937417D01*
X46831106Y-27934340D01*
X46702575Y-27899900D01*
X46557625Y-27899900D01*
X46429093Y-27934340D01*
X46417611Y-27937417D01*
X46292088Y-28009888D01*
X46292082Y-28009893D01*
X46238395Y-28063581D01*
X46177072Y-28097066D01*
X46150714Y-28099900D01*
X30792056Y-28099900D01*
X30702912Y-28123786D01*
X30702911Y-28123786D01*
X30702909Y-28123787D01*
X30702906Y-28123788D01*
X30622994Y-28169926D01*
X30622985Y-28169933D01*
X28146337Y-30646581D01*
X28085014Y-30680066D01*
X28058656Y-30682900D01*
X27982725Y-30682900D01*
X27854193Y-30717340D01*
X27842711Y-30720417D01*
X27717188Y-30792888D01*
X27717182Y-30792893D01*
X27614693Y-30895382D01*
X27614688Y-30895388D01*
X27542217Y-31020911D01*
X27542216Y-31020915D01*
X27504700Y-31160925D01*
X500500Y-31160925D01*
X500500Y-22283025D01*
X21574300Y-22283025D01*
X21574300Y-22427975D01*
X21579301Y-22446637D01*
X21611817Y-22567988D01*
X21684288Y-22693511D01*
X21684290Y-22693513D01*
X21684291Y-22693515D01*
X21786785Y-22796009D01*
X21786786Y-22796010D01*
X21786788Y-22796011D01*
X21912311Y-22868482D01*
X21912312Y-22868482D01*
X21912315Y-22868484D01*
X22052325Y-22906000D01*
X22128256Y-22906000D01*
X22195295Y-22925685D01*
X22215937Y-22942319D01*
X26115088Y-26841470D01*
X26184385Y-26881478D01*
X26184387Y-26881480D01*
X26191642Y-26885668D01*
X26195012Y-26887614D01*
X26284156Y-26911500D01*
X40617614Y-26911500D01*
X40684653Y-26931185D01*
X40705295Y-26947819D01*
X40758985Y-27001509D01*
X40758986Y-27001510D01*
X40758988Y-27001511D01*
X40884511Y-27073982D01*
X40884512Y-27073982D01*
X40884515Y-27073984D01*
X41024525Y-27111500D01*
X41024528Y-27111500D01*
X41169472Y-27111500D01*
X41169475Y-27111500D01*
X41309485Y-27073984D01*
X41435015Y-27001509D01*
X41537509Y-26899015D01*
X41609984Y-26773485D01*
X41647500Y-26633475D01*
X41647500Y-26488525D01*
X41609984Y-26348515D01*
X41537509Y-26222985D01*
X41435015Y-26120491D01*
X41435013Y-26120490D01*
X41435011Y-26120488D01*
X41309488Y-26048017D01*
X41309484Y-26048015D01*
X41207560Y-26020704D01*
X41147900Y-25984339D01*
X41117372Y-25921492D01*
X41125667Y-25852116D01*
X41151974Y-25813248D01*
X41156310Y-25808911D01*
X41156315Y-25808909D01*
X41258809Y-25706415D01*
X41331284Y-25580885D01*
X41368800Y-25440875D01*
X41368800Y-25295925D01*
X41331284Y-25155915D01*
X41266858Y-25044327D01*
X41258811Y-25030388D01*
X41258806Y-25030382D01*
X41156317Y-24927893D01*
X41156311Y-24927888D01*
X41030788Y-24855417D01*
X41030789Y-24855417D01*
X41019306Y-24852340D01*
X40890775Y-24817900D01*
X40890772Y-24817900D01*
X40783215Y-24817900D01*
X40721216Y-24801287D01*
X40701988Y-24790186D01*
X40612844Y-24766300D01*
X40612843Y-24766300D01*
X28532986Y-24766300D01*
X28465947Y-24746615D01*
X28445305Y-24729981D01*
X28391617Y-24676293D01*
X28391611Y-24676288D01*
X28266088Y-24603817D01*
X28266089Y-24603817D01*
X28254606Y-24600740D01*
X28126075Y-24566300D01*
X27981125Y-24566300D01*
X27852593Y-24600740D01*
X27841111Y-24603817D01*
X27715588Y-24676288D01*
X27715582Y-24676293D01*
X27613093Y-24778782D01*
X27613088Y-24778788D01*
X27540617Y-24904311D01*
X27540616Y-24904315D01*
X27503100Y-25044325D01*
X27503100Y-25189275D01*
X27531677Y-25295925D01*
X27540617Y-25329288D01*
X27613088Y-25454811D01*
X27613090Y-25454813D01*
X27613091Y-25454815D01*
X27715585Y-25557309D01*
X27715586Y-25557310D01*
X27715588Y-25557311D01*
X27841111Y-25629782D01*
X27841112Y-25629782D01*
X27841115Y-25629784D01*
X27981125Y-25667300D01*
X27981128Y-25667300D01*
X28126072Y-25667300D01*
X28126075Y-25667300D01*
X28266085Y-25629784D01*
X28391615Y-25557309D01*
X28445305Y-25503619D01*
X28506628Y-25470134D01*
X28532986Y-25467300D01*
X40179733Y-25467300D01*
X40246772Y-25486985D01*
X40292527Y-25539789D01*
X40299505Y-25559200D01*
X40305316Y-25580885D01*
X40305317Y-25580888D01*
X40377788Y-25706411D01*
X40377790Y-25706413D01*
X40377791Y-25706415D01*
X40480285Y-25808909D01*
X40480286Y-25808910D01*
X40480288Y-25808911D01*
X40605811Y-25881382D01*
X40605812Y-25881382D01*
X40605815Y-25881384D01*
X40707739Y-25908694D01*
X40712922Y-25911853D01*
X40718977Y-25912287D01*
X40742403Y-25929824D01*
X40767398Y-25945059D01*
X40770051Y-25950520D01*
X40774910Y-25954158D01*
X40785138Y-25981579D01*
X40797927Y-26007907D01*
X40797206Y-26013933D01*
X40799328Y-26019622D01*
X40793106Y-26048223D01*
X40789632Y-26077282D01*
X40785437Y-26083479D01*
X40784477Y-26087895D01*
X40763326Y-26116149D01*
X40705296Y-26174180D01*
X40643973Y-26207666D01*
X40617614Y-26210500D01*
X26526844Y-26210500D01*
X26459805Y-26190815D01*
X26439163Y-26174181D01*
X22711619Y-22446637D01*
X22678134Y-22385314D01*
X22675300Y-22358956D01*
X22675300Y-22283027D01*
X22675300Y-22283025D01*
X22637784Y-22143015D01*
X22565309Y-22017485D01*
X22462815Y-21914991D01*
X22462813Y-21914990D01*
X22462811Y-21914988D01*
X22337288Y-21842517D01*
X22337289Y-21842517D01*
X22325806Y-21839440D01*
X22197275Y-21805000D01*
X22052325Y-21805000D01*
X21923793Y-21839440D01*
X21912311Y-21842517D01*
X21786788Y-21914988D01*
X21786782Y-21914993D01*
X21684293Y-22017482D01*
X21684288Y-22017488D01*
X21611817Y-22143011D01*
X21611816Y-22143015D01*
X21574300Y-22283025D01*
X500500Y-22283025D01*
X500500Y-20769025D01*
X14457300Y-20769025D01*
X14457300Y-20913975D01*
X14488526Y-21030511D01*
X14494817Y-21053988D01*
X14567288Y-21179511D01*
X14567290Y-21179513D01*
X14567291Y-21179515D01*
X14669785Y-21282009D01*
X14669786Y-21282010D01*
X14669788Y-21282011D01*
X14795311Y-21354482D01*
X14795312Y-21354482D01*
X14795315Y-21354484D01*
X14935325Y-21392000D01*
X14935328Y-21392000D01*
X15080272Y-21392000D01*
X15080275Y-21392000D01*
X15220285Y-21354484D01*
X15345815Y-21282009D01*
X15399505Y-21228319D01*
X15460828Y-21194834D01*
X15487186Y-21192000D01*
X41325500Y-21192000D01*
X41392539Y-21211685D01*
X41438294Y-21264489D01*
X41447654Y-21307518D01*
X41448439Y-21307415D01*
X41449499Y-21315471D01*
X41487017Y-21455488D01*
X41559488Y-21581011D01*
X41559490Y-21581013D01*
X41559491Y-21581015D01*
X41661985Y-21683509D01*
X41661986Y-21683510D01*
X41661988Y-21683511D01*
X41787511Y-21755982D01*
X41787512Y-21755982D01*
X41787515Y-21755984D01*
X41927525Y-21793500D01*
X41927528Y-21793500D01*
X42072472Y-21793500D01*
X42072475Y-21793500D01*
X42212485Y-21755984D01*
X42338015Y-21683509D01*
X42440509Y-21581015D01*
X42512984Y-21455485D01*
X42550500Y-21315475D01*
X42550500Y-21170525D01*
X42512984Y-21030515D01*
X42445699Y-20913975D01*
X42440511Y-20904988D01*
X42440506Y-20904982D01*
X42338017Y-20802493D01*
X42338011Y-20802488D01*
X42212488Y-20730017D01*
X42212489Y-20730017D01*
X42201006Y-20726940D01*
X42072475Y-20692500D01*
X42072472Y-20692500D01*
X41996544Y-20692500D01*
X41929505Y-20672815D01*
X41908863Y-20656181D01*
X41813713Y-20561031D01*
X41813708Y-20561027D01*
X41733790Y-20514887D01*
X41733789Y-20514886D01*
X41733788Y-20514886D01*
X41644644Y-20491000D01*
X41644643Y-20491000D01*
X15487186Y-20491000D01*
X15420147Y-20471315D01*
X15399505Y-20454681D01*
X15345817Y-20400993D01*
X15345811Y-20400988D01*
X15220288Y-20328517D01*
X15220289Y-20328517D01*
X15208806Y-20325440D01*
X15080275Y-20291000D01*
X14935325Y-20291000D01*
X14806793Y-20325440D01*
X14795311Y-20328517D01*
X14669788Y-20400988D01*
X14669782Y-20400993D01*
X14567293Y-20503482D01*
X14567288Y-20503488D01*
X14494817Y-20629011D01*
X14494816Y-20629015D01*
X14457300Y-20769025D01*
X500500Y-20769025D01*
X500500Y-14116780D01*
X5910000Y-14116780D01*
X5910000Y-14825000D01*
X6639254Y-14825000D01*
X6610000Y-14934174D01*
X6610000Y-15065826D01*
X6639254Y-15175000D01*
X5910001Y-15175000D01*
X5910001Y-15883217D01*
X5919912Y-15951249D01*
X5971215Y-16056191D01*
X6053811Y-16138787D01*
X6158748Y-16190087D01*
X6158751Y-16190088D01*
X6226780Y-16199999D01*
X6934999Y-16199999D01*
X6935000Y-16199998D01*
X6935000Y-15470746D01*
X7044174Y-15500000D01*
X7175826Y-15500000D01*
X7285000Y-15470746D01*
X7285000Y-16199999D01*
X7993218Y-16199999D01*
X8061249Y-16190087D01*
X8166191Y-16138784D01*
X8248787Y-16056188D01*
X8300087Y-15951251D01*
X8300088Y-15951248D01*
X8309999Y-15883219D01*
X8309999Y-15150031D01*
X8329683Y-15082992D01*
X8382487Y-15037237D01*
X8451646Y-15027293D01*
X8515202Y-15056318D01*
X8552976Y-15115096D01*
X8556472Y-15130633D01*
X8563499Y-15175000D01*
X8576598Y-15257701D01*
X8630127Y-15422445D01*
X8708768Y-15576788D01*
X8810586Y-15716928D01*
X8933072Y-15839414D01*
X9073212Y-15941232D01*
X9227555Y-16019873D01*
X9392299Y-16073402D01*
X9563389Y-16100500D01*
X9563390Y-16100500D01*
X9736610Y-16100500D01*
X9736611Y-16100500D01*
X9907701Y-16073402D01*
X10072445Y-16019873D01*
X10072447Y-16019871D01*
X10076971Y-16018402D01*
X10146812Y-16016407D01*
X10202970Y-16048652D01*
X13098888Y-18944570D01*
X13098889Y-18944571D01*
X13098891Y-18944572D01*
X13132868Y-18964188D01*
X13137586Y-18966912D01*
X13178812Y-18990714D01*
X13267956Y-19014600D01*
X24498514Y-19014600D01*
X24565553Y-19034285D01*
X24586195Y-19050919D01*
X24639885Y-19104609D01*
X24639886Y-19104610D01*
X24639888Y-19104611D01*
X24765411Y-19177082D01*
X24765412Y-19177082D01*
X24765415Y-19177084D01*
X24905425Y-19214600D01*
X24905428Y-19214600D01*
X25050372Y-19214600D01*
X25050375Y-19214600D01*
X25190385Y-19177084D01*
X25315915Y-19104609D01*
X25418409Y-19002115D01*
X25490884Y-18876585D01*
X25528400Y-18736575D01*
X25528400Y-18591625D01*
X25490884Y-18451615D01*
X25468983Y-18413682D01*
X25418411Y-18326088D01*
X25418406Y-18326082D01*
X25315917Y-18223593D01*
X25315911Y-18223588D01*
X25190388Y-18151117D01*
X25190389Y-18151117D01*
X25178906Y-18148040D01*
X25050375Y-18113600D01*
X24905425Y-18113600D01*
X24776893Y-18148040D01*
X24765411Y-18151117D01*
X24639888Y-18223588D01*
X24639882Y-18223593D01*
X24586195Y-18277281D01*
X24524872Y-18310766D01*
X24498514Y-18313600D01*
X13510644Y-18313600D01*
X13443605Y-18293915D01*
X13422963Y-18277281D01*
X10698652Y-15552970D01*
X10665167Y-15491647D01*
X10668402Y-15426971D01*
X10669873Y-15422445D01*
X10723402Y-15257701D01*
X10750500Y-15086611D01*
X10750500Y-14913389D01*
X10723402Y-14742299D01*
X10669873Y-14577555D01*
X10591232Y-14423212D01*
X10489414Y-14283072D01*
X10366928Y-14160586D01*
X10226788Y-14058768D01*
X10159754Y-14024613D01*
X10072447Y-13980128D01*
X10072446Y-13980127D01*
X10072445Y-13980127D01*
X9907701Y-13926598D01*
X9907699Y-13926597D01*
X9907698Y-13926597D01*
X9776271Y-13905781D01*
X9736611Y-13899500D01*
X9563389Y-13899500D01*
X9523728Y-13905781D01*
X9392302Y-13926597D01*
X9227552Y-13980128D01*
X9073211Y-14058768D01*
X9007959Y-14106177D01*
X8933072Y-14160586D01*
X8933070Y-14160588D01*
X8933069Y-14160588D01*
X8810588Y-14283069D01*
X8810588Y-14283070D01*
X8810586Y-14283072D01*
X8766859Y-14343256D01*
X8708768Y-14423211D01*
X8630128Y-14577552D01*
X8576597Y-14742302D01*
X8556472Y-14869367D01*
X8526543Y-14932502D01*
X8467231Y-14969433D01*
X8397369Y-14968435D01*
X8339136Y-14929825D01*
X8311022Y-14865861D01*
X8309999Y-14849969D01*
X8309999Y-14116782D01*
X8300087Y-14048750D01*
X8248784Y-13943808D01*
X8166188Y-13861212D01*
X8061251Y-13809912D01*
X8061248Y-13809911D01*
X7993220Y-13800000D01*
X7260031Y-13800000D01*
X7192992Y-13780315D01*
X7147237Y-13727511D01*
X7137293Y-13658353D01*
X7166318Y-13594797D01*
X7225096Y-13557023D01*
X7240627Y-13553528D01*
X7340186Y-13537760D01*
X7367696Y-13533403D01*
X7367696Y-13533402D01*
X7367701Y-13533402D01*
X7532445Y-13479873D01*
X7686788Y-13401232D01*
X7826928Y-13299414D01*
X7949414Y-13176928D01*
X8051232Y-13036788D01*
X8129873Y-12882445D01*
X8183402Y-12717701D01*
X8210500Y-12546611D01*
X8210500Y-12373389D01*
X8183402Y-12202299D01*
X8129873Y-12037555D01*
X8051232Y-11883212D01*
X7949414Y-11743072D01*
X7826928Y-11620586D01*
X7686788Y-11518768D01*
X7532445Y-11440127D01*
X7367701Y-11386598D01*
X7367699Y-11386597D01*
X7367698Y-11386597D01*
X7232972Y-11365259D01*
X7196611Y-11359500D01*
X7023389Y-11359500D01*
X6987028Y-11365259D01*
X6852302Y-11386597D01*
X6687552Y-11440128D01*
X6533211Y-11518768D01*
X6453256Y-11576859D01*
X6393072Y-11620586D01*
X6393070Y-11620588D01*
X6393069Y-11620588D01*
X6270588Y-11743069D01*
X6270588Y-11743070D01*
X6270586Y-11743072D01*
X6226859Y-11803256D01*
X6168768Y-11883211D01*
X6090128Y-12037552D01*
X6036597Y-12202302D01*
X6036597Y-12202304D01*
X6009500Y-12373389D01*
X6009500Y-12546611D01*
X6036598Y-12717701D01*
X6090127Y-12882445D01*
X6168768Y-13036788D01*
X6270586Y-13176928D01*
X6393072Y-13299414D01*
X6533212Y-13401232D01*
X6687555Y-13479873D01*
X6852299Y-13533402D01*
X6852302Y-13533402D01*
X6852303Y-13533403D01*
X6910026Y-13542545D01*
X6979367Y-13553527D01*
X7042501Y-13583456D01*
X7079433Y-13642767D01*
X7078435Y-13712630D01*
X7039826Y-13770862D01*
X6975862Y-13798977D01*
X6959969Y-13800000D01*
X6226782Y-13800000D01*
X6158750Y-13809912D01*
X6053808Y-13861215D01*
X5971212Y-13943811D01*
X5919912Y-14048748D01*
X5919911Y-14048751D01*
X5910000Y-14116780D01*
X500500Y-14116780D01*
X500500Y-3499998D01*
X1000000Y-3499998D01*
X1000000Y-3500001D01*
X1085184Y-4147045D01*
X1085185Y-4147047D01*
X1287989Y-4636661D01*
X1334936Y-4750000D01*
X1732233Y-5267766D01*
X2250000Y-5665063D01*
X2852952Y-5914814D01*
X3176476Y-5957407D01*
X3499999Y-6000000D01*
X3500000Y-6000000D01*
X3500001Y-6000000D01*
X3743571Y-5967933D01*
X4147047Y-5914814D01*
X4750000Y-5665063D01*
X5267766Y-5267766D01*
X5665063Y-4750000D01*
X5792588Y-4442126D01*
X5836428Y-4387725D01*
X5902722Y-4365660D01*
X5970421Y-4382939D01*
X6018032Y-4434076D01*
X6021708Y-4442127D01*
X6024031Y-4447735D01*
X6024033Y-4447739D01*
X6024034Y-4447740D01*
X6079399Y-4530601D01*
X6143458Y-4573403D01*
X6162260Y-4585966D01*
X6162264Y-4585967D01*
X6235321Y-4600499D01*
X6235324Y-4600500D01*
X6235326Y-4600500D01*
X7984676Y-4600500D01*
X7984677Y-4600499D01*
X8057740Y-4585966D01*
X8140601Y-4530601D01*
X8195966Y-4447740D01*
X8210500Y-4374674D01*
X8210500Y-3971731D01*
X8216834Y-3950158D01*
X8218565Y-3927742D01*
X8226488Y-3917281D01*
X8230185Y-3904692D01*
X8247176Y-3889969D01*
X8260752Y-3872046D01*
X8276783Y-3864314D01*
X8282989Y-3858937D01*
X8291824Y-3855306D01*
X8304935Y-3850500D01*
X8307844Y-3850500D01*
X8396988Y-3826614D01*
X8443745Y-3799617D01*
X8453793Y-3795935D01*
X8478398Y-3794315D01*
X8502365Y-3788500D01*
X8512651Y-3792059D01*
X8523511Y-3791345D01*
X8545084Y-3803283D01*
X8568393Y-3811350D01*
X8575122Y-3819906D01*
X8584644Y-3825176D01*
X8596338Y-3846883D01*
X8611585Y-3866270D01*
X8614394Y-3874026D01*
X8630127Y-3922445D01*
X8708768Y-4076788D01*
X8810586Y-4216928D01*
X8933072Y-4339414D01*
X9073212Y-4441232D01*
X9227555Y-4519873D01*
X9392299Y-4573402D01*
X9563389Y-4600500D01*
X9563390Y-4600500D01*
X9736610Y-4600500D01*
X9736611Y-4600500D01*
X9907701Y-4573402D01*
X10072445Y-4519873D01*
X10226788Y-4441232D01*
X10366928Y-4339414D01*
X10489414Y-4216928D01*
X10591232Y-4076788D01*
X10669873Y-3922445D01*
X10723402Y-3757701D01*
X10750500Y-3586611D01*
X10750500Y-3413389D01*
X10723402Y-3242299D01*
X10669873Y-3077555D01*
X10591232Y-2923212D01*
X10588471Y-2919412D01*
X10564549Y-2886485D01*
X10541069Y-2820679D01*
X10556895Y-2752625D01*
X10607000Y-2703930D01*
X10664867Y-2689600D01*
X11175133Y-2689600D01*
X11242172Y-2709285D01*
X11287927Y-2762089D01*
X11297871Y-2831247D01*
X11275451Y-2886485D01*
X11248770Y-2923208D01*
X11170128Y-3077552D01*
X11116597Y-3242302D01*
X11092844Y-3392277D01*
X11089500Y-3413389D01*
X11089500Y-3586611D01*
X11092844Y-3607722D01*
X11116597Y-3757697D01*
X11116597Y-3757699D01*
X11116598Y-3757701D01*
X11170127Y-3922445D01*
X11248768Y-4076788D01*
X11350586Y-4216928D01*
X11473072Y-4339414D01*
X11613212Y-4441232D01*
X11767555Y-4519873D01*
X11932299Y-4573402D01*
X11932302Y-4573402D01*
X11932303Y-4573403D01*
X12011631Y-4585967D01*
X12082277Y-4597156D01*
X12145412Y-4627085D01*
X12182344Y-4686396D01*
X12181346Y-4756259D01*
X12142737Y-4814492D01*
X12082279Y-4842102D01*
X11908997Y-4869548D01*
X11729362Y-4927914D01*
X11561064Y-5013667D01*
X11561062Y-5013668D01*
X11474237Y-5076748D01*
X11474237Y-5076749D01*
X11980876Y-5583388D01*
X11882993Y-5639901D01*
X11789901Y-5732993D01*
X11733388Y-5830876D01*
X11226749Y-5324237D01*
X11226748Y-5324237D01*
X11163668Y-5411062D01*
X11163667Y-5411064D01*
X11077914Y-5579362D01*
X11019548Y-5758997D01*
X10992102Y-5932279D01*
X10962172Y-5995413D01*
X10902861Y-6032344D01*
X10832998Y-6031346D01*
X10774766Y-5992736D01*
X10747156Y-5932277D01*
X10723403Y-5782303D01*
X10723402Y-5782302D01*
X10723402Y-5782299D01*
X10669873Y-5617555D01*
X10591232Y-5463212D01*
X10489414Y-5323072D01*
X10366928Y-5200586D01*
X10226788Y-5098768D01*
X10131993Y-5050468D01*
X10072447Y-5020128D01*
X10072446Y-5020127D01*
X10072445Y-5020127D01*
X9907701Y-4966598D01*
X9907699Y-4966597D01*
X9907698Y-4966597D01*
X9776271Y-4945781D01*
X9736611Y-4939500D01*
X9563389Y-4939500D01*
X9523728Y-4945781D01*
X9392302Y-4966597D01*
X9227552Y-5020128D01*
X9073211Y-5098768D01*
X9023577Y-5134830D01*
X8933072Y-5200586D01*
X8933070Y-5200588D01*
X8933069Y-5200588D01*
X8810588Y-5323069D01*
X8810588Y-5323070D01*
X8810586Y-5323072D01*
X8797693Y-5340818D01*
X8708768Y-5463211D01*
X8627966Y-5621795D01*
X8579991Y-5672591D01*
X8517481Y-5689500D01*
X8242519Y-5689500D01*
X8175480Y-5669815D01*
X8132034Y-5621795D01*
X8062689Y-5485698D01*
X8051232Y-5463212D01*
X7949414Y-5323072D01*
X7826928Y-5200586D01*
X7686788Y-5098768D01*
X7591993Y-5050468D01*
X7532447Y-5020128D01*
X7532446Y-5020127D01*
X7532445Y-5020127D01*
X7367701Y-4966598D01*
X7367699Y-4966597D01*
X7367698Y-4966597D01*
X7236271Y-4945781D01*
X7196611Y-4939500D01*
X7023389Y-4939500D01*
X6983728Y-4945781D01*
X6852302Y-4966597D01*
X6687552Y-5020128D01*
X6533211Y-5098768D01*
X6483577Y-5134830D01*
X6393072Y-5200586D01*
X6393070Y-5200588D01*
X6393069Y-5200588D01*
X6270588Y-5323069D01*
X6270588Y-5323070D01*
X6270586Y-5323072D01*
X6257693Y-5340818D01*
X6168768Y-5463211D01*
X6090128Y-5617552D01*
X6036597Y-5782302D01*
X6036597Y-5782303D01*
X6009500Y-5953389D01*
X6009500Y-6126611D01*
X6012844Y-6147722D01*
X6022244Y-6207077D01*
X6036598Y-6297701D01*
X6088749Y-6458205D01*
X6090128Y-6462447D01*
X6148263Y-6576544D01*
X6168768Y-6616788D01*
X6270586Y-6756928D01*
X6393072Y-6879414D01*
X6533212Y-6981232D01*
X6687555Y-7059873D01*
X6852299Y-7113402D01*
X7023389Y-7140500D01*
X7023390Y-7140500D01*
X7196610Y-7140500D01*
X7196611Y-7140500D01*
X7367701Y-7113402D01*
X7532445Y-7059873D01*
X7686788Y-6981232D01*
X7826928Y-6879414D01*
X7949414Y-6756928D01*
X8051232Y-6616788D01*
X8107719Y-6505925D01*
X8132034Y-6458205D01*
X8180009Y-6407409D01*
X8242519Y-6390500D01*
X8517481Y-6390500D01*
X8584520Y-6410185D01*
X8627966Y-6458205D01*
X8701181Y-6601897D01*
X8708768Y-6616788D01*
X8810586Y-6756928D01*
X8933072Y-6879414D01*
X9073212Y-6981232D01*
X9227555Y-7059873D01*
X9392299Y-7113402D01*
X9563389Y-7140500D01*
X9563390Y-7140500D01*
X9736610Y-7140500D01*
X9736611Y-7140500D01*
X9907701Y-7113402D01*
X10072445Y-7059873D01*
X10226788Y-6981232D01*
X10366928Y-6879414D01*
X10489414Y-6756928D01*
X10591232Y-6616788D01*
X10669873Y-6462445D01*
X10723402Y-6297701D01*
X10747156Y-6147720D01*
X10777085Y-6084587D01*
X10836396Y-6047655D01*
X10906259Y-6048653D01*
X10964492Y-6087262D01*
X10992102Y-6147720D01*
X11019548Y-6321002D01*
X11077914Y-6500637D01*
X11163666Y-6668933D01*
X11226749Y-6755761D01*
X11733387Y-6249123D01*
X11789901Y-6347007D01*
X11882993Y-6440099D01*
X11980875Y-6496611D01*
X11474237Y-7003248D01*
X11474237Y-7003249D01*
X11561066Y-7066333D01*
X11729362Y-7152085D01*
X11908997Y-7210451D01*
X12095553Y-7240000D01*
X12284447Y-7240000D01*
X12471002Y-7210451D01*
X12650637Y-7152085D01*
X12818940Y-7066329D01*
X12905761Y-7003251D01*
X12905762Y-7003249D01*
X12399124Y-6496611D01*
X12497007Y-6440099D01*
X12590099Y-6347007D01*
X12646611Y-6249124D01*
X13153249Y-6755762D01*
X13153251Y-6755761D01*
X13216329Y-6668940D01*
X13302085Y-6500637D01*
X13360451Y-6321002D01*
X13387897Y-6147721D01*
X13417826Y-6084586D01*
X13477138Y-6047655D01*
X13547000Y-6048653D01*
X13605233Y-6087263D01*
X13632843Y-6147721D01*
X13646349Y-6232993D01*
X13656598Y-6297701D01*
X13708749Y-6458205D01*
X13710128Y-6462447D01*
X13768263Y-6576544D01*
X13788768Y-6616788D01*
X13890586Y-6756928D01*
X14013072Y-6879414D01*
X14153212Y-6981232D01*
X14307555Y-7059873D01*
X14472299Y-7113402D01*
X14538322Y-7123859D01*
X14601456Y-7153788D01*
X14638388Y-7213099D01*
X14637390Y-7282962D01*
X14606605Y-7334013D01*
X10414652Y-11525964D01*
X10353329Y-11559449D01*
X10283637Y-11554465D01*
X10254085Y-11538601D01*
X10240184Y-11528501D01*
X10226794Y-11518772D01*
X10226789Y-11518769D01*
X10226790Y-11518769D01*
X10226788Y-11518768D01*
X10072445Y-11440127D01*
X9907701Y-11386598D01*
X9907699Y-11386597D01*
X9907698Y-11386597D01*
X9772972Y-11365259D01*
X9736611Y-11359500D01*
X9563389Y-11359500D01*
X9527028Y-11365259D01*
X9392302Y-11386597D01*
X9227552Y-11440128D01*
X9073211Y-11518768D01*
X8993256Y-11576859D01*
X8933072Y-11620586D01*
X8933070Y-11620588D01*
X8933069Y-11620588D01*
X8810588Y-11743069D01*
X8810588Y-11743070D01*
X8810586Y-11743072D01*
X8766859Y-11803256D01*
X8708768Y-11883211D01*
X8630128Y-12037552D01*
X8576597Y-12202302D01*
X8576597Y-12202304D01*
X8549500Y-12373389D01*
X8549500Y-12546611D01*
X8576598Y-12717701D01*
X8630127Y-12882445D01*
X8708768Y-13036788D01*
X8810586Y-13176928D01*
X8933072Y-13299414D01*
X9073212Y-13401232D01*
X9227555Y-13479873D01*
X9392299Y-13533402D01*
X9563389Y-13560500D01*
X9563390Y-13560500D01*
X9736610Y-13560500D01*
X9736611Y-13560500D01*
X9907701Y-13533402D01*
X10072445Y-13479873D01*
X10226788Y-13401232D01*
X10366928Y-13299414D01*
X10437219Y-13229123D01*
X10498542Y-13195638D01*
X10568234Y-13200622D01*
X10624167Y-13242494D01*
X10648584Y-13307958D01*
X10648900Y-13316804D01*
X10648900Y-13855544D01*
X10650419Y-13861212D01*
X10668413Y-13928367D01*
X10668413Y-13928368D01*
X10672785Y-13944687D01*
X10718927Y-14024608D01*
X10718931Y-14024613D01*
X11141347Y-14447029D01*
X11174832Y-14508352D01*
X11171597Y-14573028D01*
X11116597Y-14742301D01*
X11099298Y-14851525D01*
X11089500Y-14913389D01*
X11089500Y-15086611D01*
X11116598Y-15257701D01*
X11170127Y-15422445D01*
X11248768Y-15576788D01*
X11350586Y-15716928D01*
X11473072Y-15839414D01*
X11613212Y-15941232D01*
X11767555Y-16019873D01*
X11932299Y-16073402D01*
X12103389Y-16100500D01*
X12103390Y-16100500D01*
X12276610Y-16100500D01*
X12276611Y-16100500D01*
X12447701Y-16073402D01*
X12612445Y-16019873D01*
X12766788Y-15941232D01*
X12906928Y-15839414D01*
X13029414Y-15716928D01*
X13131232Y-15576788D01*
X13209873Y-15422445D01*
X13263402Y-15257701D01*
X13290500Y-15086611D01*
X13290500Y-14913389D01*
X13263402Y-14742299D01*
X13209873Y-14577555D01*
X13131232Y-14423212D01*
X13029414Y-14283072D01*
X12906928Y-14160586D01*
X12766788Y-14058768D01*
X12699754Y-14024613D01*
X12612447Y-13980128D01*
X12612446Y-13980127D01*
X12612445Y-13980127D01*
X12447701Y-13926598D01*
X12447699Y-13926597D01*
X12447698Y-13926597D01*
X12316271Y-13905781D01*
X12276611Y-13899500D01*
X12103389Y-13899500D01*
X12071192Y-13904599D01*
X11932301Y-13926597D01*
X11763028Y-13981597D01*
X11693186Y-13983592D01*
X11637029Y-13951347D01*
X11386219Y-13700537D01*
X11371515Y-13673609D01*
X11354923Y-13647791D01*
X11354031Y-13641590D01*
X11352734Y-13639214D01*
X11349900Y-13612856D01*
X11349900Y-13453288D01*
X11369585Y-13386249D01*
X11422389Y-13340494D01*
X11491547Y-13330550D01*
X11546784Y-13352969D01*
X11613212Y-13401232D01*
X11767555Y-13479873D01*
X11932299Y-13533402D01*
X12103389Y-13560500D01*
X12103390Y-13560500D01*
X12276610Y-13560500D01*
X12276611Y-13560500D01*
X12447701Y-13533402D01*
X12612445Y-13479873D01*
X12766788Y-13401232D01*
X12906928Y-13299414D01*
X13029414Y-13176928D01*
X13131232Y-13036788D01*
X13209873Y-12882445D01*
X13263402Y-12717701D01*
X13290500Y-12546611D01*
X13290500Y-12373389D01*
X13263402Y-12202299D01*
X13209873Y-12037555D01*
X13209869Y-12037547D01*
X13208401Y-12033029D01*
X13206406Y-11963188D01*
X13238649Y-11907031D01*
X17054363Y-8091319D01*
X17115686Y-8057834D01*
X17142044Y-8055000D01*
X19291257Y-8055000D01*
X19358296Y-8074685D01*
X19404051Y-8127489D01*
X19413995Y-8196647D01*
X19384970Y-8260203D01*
X19378939Y-8266679D01*
X18369536Y-9276082D01*
X17481637Y-10163981D01*
X17420314Y-10197466D01*
X17393956Y-10200300D01*
X16593054Y-10200300D01*
X16535155Y-10215814D01*
X16535154Y-10215813D01*
X16503916Y-10224184D01*
X16503909Y-10224187D01*
X16423991Y-10270327D01*
X16423986Y-10270331D01*
X15282969Y-11411347D01*
X15221646Y-11444832D01*
X15156970Y-11441597D01*
X14987698Y-11386597D01*
X14852972Y-11365259D01*
X14816611Y-11359500D01*
X14643389Y-11359500D01*
X14607028Y-11365259D01*
X14472302Y-11386597D01*
X14307552Y-11440128D01*
X14153211Y-11518768D01*
X14073256Y-11576859D01*
X14013072Y-11620586D01*
X14013070Y-11620588D01*
X14013069Y-11620588D01*
X13890588Y-11743069D01*
X13890588Y-11743070D01*
X13890586Y-11743072D01*
X13846859Y-11803256D01*
X13788768Y-11883211D01*
X13710128Y-12037552D01*
X13656597Y-12202302D01*
X13656597Y-12202304D01*
X13629500Y-12373389D01*
X13629500Y-12546611D01*
X13656598Y-12717701D01*
X13710127Y-12882445D01*
X13788768Y-13036788D01*
X13890586Y-13176928D01*
X14013072Y-13299414D01*
X14153212Y-13401232D01*
X14307555Y-13479873D01*
X14472299Y-13533402D01*
X14643389Y-13560500D01*
X14643390Y-13560500D01*
X14816610Y-13560500D01*
X14816611Y-13560500D01*
X14987701Y-13533402D01*
X15152445Y-13479873D01*
X15306788Y-13401232D01*
X15446928Y-13299414D01*
X15446930Y-13299411D01*
X15450869Y-13296550D01*
X15451909Y-13297982D01*
X15460835Y-13293980D01*
X15473989Y-13282583D01*
X15492051Y-13279985D01*
X15508704Y-13272520D01*
X15525916Y-13275116D01*
X15543147Y-13272639D01*
X15559746Y-13280219D01*
X15577792Y-13282942D01*
X15590868Y-13294432D01*
X15606703Y-13301664D01*
X15616568Y-13317015D01*
X15630278Y-13329062D01*
X15635180Y-13345976D01*
X15644477Y-13360442D01*
X15649500Y-13395377D01*
X15649500Y-13533455D01*
X15629815Y-13600494D01*
X15613181Y-13621136D01*
X15282969Y-13951347D01*
X15221646Y-13984832D01*
X15156970Y-13981597D01*
X14987698Y-13926597D01*
X14856271Y-13905781D01*
X14816611Y-13899500D01*
X14643389Y-13899500D01*
X14603728Y-13905781D01*
X14472302Y-13926597D01*
X14307552Y-13980128D01*
X14153211Y-14058768D01*
X14087959Y-14106177D01*
X14013072Y-14160586D01*
X14013070Y-14160588D01*
X14013069Y-14160588D01*
X13890588Y-14283069D01*
X13890588Y-14283070D01*
X13890586Y-14283072D01*
X13846859Y-14343256D01*
X13788768Y-14423211D01*
X13710128Y-14577552D01*
X13656597Y-14742302D01*
X13640176Y-14845981D01*
X13629500Y-14913389D01*
X13629500Y-15086611D01*
X13656598Y-15257701D01*
X13710127Y-15422445D01*
X13788768Y-15576788D01*
X13890586Y-15716928D01*
X14013072Y-15839414D01*
X14153212Y-15941232D01*
X14307555Y-16019873D01*
X14472299Y-16073402D01*
X14643389Y-16100500D01*
X14643390Y-16100500D01*
X14816610Y-16100500D01*
X14816611Y-16100500D01*
X14987701Y-16073402D01*
X15152445Y-16019873D01*
X15306788Y-15941232D01*
X15446928Y-15839414D01*
X15569414Y-15716928D01*
X15671232Y-15576788D01*
X15749873Y-15422445D01*
X15803402Y-15257701D01*
X15830500Y-15086611D01*
X15830500Y-14913389D01*
X15803402Y-14742299D01*
X15749873Y-14577555D01*
X15749869Y-14577547D01*
X15748401Y-14573029D01*
X15746406Y-14503188D01*
X15778649Y-14447031D01*
X16280470Y-13945212D01*
X16326614Y-13865288D01*
X16328403Y-13858612D01*
X16350500Y-13776144D01*
X16350500Y-13395377D01*
X16370185Y-13328338D01*
X16422989Y-13282583D01*
X16492147Y-13272639D01*
X16548106Y-13297960D01*
X16549131Y-13296550D01*
X16553069Y-13299411D01*
X16553072Y-13299414D01*
X16693212Y-13401232D01*
X16847555Y-13479873D01*
X17012299Y-13533402D01*
X17183389Y-13560500D01*
X17183390Y-13560500D01*
X17356610Y-13560500D01*
X17356611Y-13560500D01*
X17527701Y-13533402D01*
X17692445Y-13479873D01*
X17846788Y-13401232D01*
X17952116Y-13324706D01*
X17963975Y-13320474D01*
X17973489Y-13312231D01*
X17996253Y-13308957D01*
X18017920Y-13301227D01*
X18030184Y-13304078D01*
X18042647Y-13302287D01*
X18063570Y-13311842D01*
X18085974Y-13317052D01*
X18094749Y-13326081D01*
X18106203Y-13331312D01*
X18118638Y-13350662D01*
X18134669Y-13367157D01*
X18138073Y-13380903D01*
X18143977Y-13390090D01*
X18149000Y-13425025D01*
X18149000Y-13573955D01*
X18129315Y-13640994D01*
X18112681Y-13661636D01*
X17822969Y-13951347D01*
X17761646Y-13984832D01*
X17696970Y-13981597D01*
X17527698Y-13926597D01*
X17396271Y-13905781D01*
X17356611Y-13899500D01*
X17183389Y-13899500D01*
X17143728Y-13905781D01*
X17012302Y-13926597D01*
X16847552Y-13980128D01*
X16693211Y-14058768D01*
X16627959Y-14106177D01*
X16553072Y-14160586D01*
X16553070Y-14160588D01*
X16553069Y-14160588D01*
X16430588Y-14283069D01*
X16430588Y-14283070D01*
X16430586Y-14283072D01*
X16386859Y-14343256D01*
X16328768Y-14423211D01*
X16250128Y-14577552D01*
X16196597Y-14742302D01*
X16180176Y-14845981D01*
X16169500Y-14913389D01*
X16169500Y-15086611D01*
X16196598Y-15257701D01*
X16250127Y-15422445D01*
X16328768Y-15576788D01*
X16430586Y-15716928D01*
X16553072Y-15839414D01*
X16693212Y-15941232D01*
X16847555Y-16019873D01*
X17012299Y-16073402D01*
X17183389Y-16100500D01*
X17183390Y-16100500D01*
X17356610Y-16100500D01*
X17356611Y-16100500D01*
X17527701Y-16073402D01*
X17692445Y-16019873D01*
X17846788Y-15941232D01*
X17986928Y-15839414D01*
X18109414Y-15716928D01*
X18141153Y-15673242D01*
X18196483Y-15630577D01*
X18266096Y-15624598D01*
X18327891Y-15657204D01*
X18348858Y-15684128D01*
X18359527Y-15702608D01*
X18359529Y-15702611D01*
X18359530Y-15702612D01*
X20004087Y-17347169D01*
X20062152Y-17380693D01*
X20084012Y-17393314D01*
X20173156Y-17417200D01*
X35644900Y-17417200D01*
X35662565Y-17422387D01*
X35680976Y-17422564D01*
X35695393Y-17432026D01*
X35711939Y-17436885D01*
X35723994Y-17450798D01*
X35739388Y-17460901D01*
X35746401Y-17476657D01*
X35757694Y-17489689D01*
X35760314Y-17507910D01*
X35767802Y-17524732D01*
X35766234Y-17549082D01*
X35767638Y-17558847D01*
X35767463Y-17560025D01*
X35766433Y-17566726D01*
X35735700Y-17681425D01*
X35735700Y-17766825D01*
X35734263Y-17776181D01*
X35723297Y-17799595D01*
X35716015Y-17824395D01*
X35705669Y-17837233D01*
X35704629Y-17839455D01*
X35703107Y-17840411D01*
X35699381Y-17845037D01*
X35179537Y-18364881D01*
X35118214Y-18398366D01*
X35091856Y-18401200D01*
X33798486Y-18401200D01*
X33731447Y-18381515D01*
X33710805Y-18364881D01*
X33657117Y-18311193D01*
X33657111Y-18311188D01*
X33531588Y-18238717D01*
X33531589Y-18238717D01*
X33520106Y-18235640D01*
X33391575Y-18201200D01*
X33246625Y-18201200D01*
X33118093Y-18235640D01*
X33106611Y-18238717D01*
X32981088Y-18311188D01*
X32981082Y-18311193D01*
X32878593Y-18413682D01*
X32878588Y-18413688D01*
X32806117Y-18539211D01*
X32806116Y-18539215D01*
X32768600Y-18679225D01*
X32768600Y-18824175D01*
X32800860Y-18944568D01*
X32806117Y-18964188D01*
X32878588Y-19089711D01*
X32878590Y-19089713D01*
X32878591Y-19089715D01*
X32981085Y-19192209D01*
X32981086Y-19192210D01*
X32981088Y-19192211D01*
X33106611Y-19264682D01*
X33106612Y-19264682D01*
X33106615Y-19264684D01*
X33246625Y-19302200D01*
X33246628Y-19302200D01*
X33391572Y-19302200D01*
X33391575Y-19302200D01*
X33531585Y-19264684D01*
X33657115Y-19192209D01*
X33710805Y-19138519D01*
X33772128Y-19105034D01*
X33798486Y-19102200D01*
X35334542Y-19102200D01*
X35334544Y-19102200D01*
X35423688Y-19078314D01*
X35447441Y-19064600D01*
X35503612Y-19032170D01*
X36195062Y-18340718D01*
X36256385Y-18307234D01*
X36282743Y-18304400D01*
X36358672Y-18304400D01*
X36358675Y-18304400D01*
X36498685Y-18266884D01*
X36624215Y-18194409D01*
X36726709Y-18091915D01*
X36799184Y-17966385D01*
X36836700Y-17826375D01*
X36836700Y-17681425D01*
X36807725Y-17573290D01*
X36809388Y-17503444D01*
X36848550Y-17445582D01*
X36912778Y-17418077D01*
X36927500Y-17417200D01*
X44389442Y-17417200D01*
X44389444Y-17417200D01*
X44478588Y-17393314D01*
X44500448Y-17380693D01*
X44558512Y-17347170D01*
X54817031Y-7088649D01*
X54878352Y-7055166D01*
X54943029Y-7058401D01*
X54947547Y-7059869D01*
X54947555Y-7059873D01*
X55112299Y-7113402D01*
X55283389Y-7140500D01*
X55283390Y-7140500D01*
X55456610Y-7140500D01*
X55456611Y-7140500D01*
X55627701Y-7113402D01*
X55792445Y-7059873D01*
X55946788Y-6981232D01*
X56086928Y-6879414D01*
X56209414Y-6756928D01*
X56311232Y-6616788D01*
X56389873Y-6462445D01*
X56443402Y-6297701D01*
X56470500Y-6126611D01*
X56470500Y-5953389D01*
X56443402Y-5782299D01*
X56389873Y-5617555D01*
X56311232Y-5463212D01*
X56209414Y-5323072D01*
X56086928Y-5200586D01*
X55946788Y-5098768D01*
X55851993Y-5050468D01*
X55792447Y-5020128D01*
X55792446Y-5020127D01*
X55792445Y-5020127D01*
X55627701Y-4966598D01*
X55627699Y-4966597D01*
X55627697Y-4966597D01*
X55477721Y-4942843D01*
X55414586Y-4912914D01*
X55377655Y-4853602D01*
X55378653Y-4783740D01*
X55417263Y-4725507D01*
X55477721Y-4697897D01*
X55651002Y-4670451D01*
X55830637Y-4612085D01*
X55998940Y-4526329D01*
X56085761Y-4463251D01*
X56085762Y-4463249D01*
X55579124Y-3956611D01*
X55677007Y-3900099D01*
X55770099Y-3807007D01*
X55826611Y-3709124D01*
X56333249Y-4215762D01*
X56333251Y-4215761D01*
X56396329Y-4128940D01*
X56482085Y-3960637D01*
X56540451Y-3781002D01*
X56570000Y-3594447D01*
X56570000Y-3499998D01*
X59000000Y-3499998D01*
X59000000Y-3500001D01*
X59085184Y-4147045D01*
X59085185Y-4147047D01*
X59287989Y-4636661D01*
X59334936Y-4750000D01*
X59732233Y-5267766D01*
X60250000Y-5665063D01*
X60852952Y-5914814D01*
X61176476Y-5957407D01*
X61499999Y-6000000D01*
X61500000Y-6000000D01*
X61500001Y-6000000D01*
X61743571Y-5967933D01*
X62147047Y-5914814D01*
X62750000Y-5665063D01*
X63267766Y-5267766D01*
X63665063Y-4750000D01*
X63914814Y-4147047D01*
X63987566Y-3594447D01*
X64000000Y-3500001D01*
X64000000Y-3499998D01*
X63934593Y-3003186D01*
X63914814Y-2852952D01*
X63665063Y-2249999D01*
X63267766Y-1732233D01*
X62750000Y-1334936D01*
X62749995Y-1334934D01*
X62147047Y-1085185D01*
X62147045Y-1085184D01*
X61500001Y-1000000D01*
X61499999Y-1000000D01*
X60852953Y-1085184D01*
X60852951Y-1085185D01*
X60250002Y-1334934D01*
X59732233Y-1732233D01*
X59334934Y-2250002D01*
X59085185Y-2852951D01*
X59085184Y-2852953D01*
X59000000Y-3499998D01*
X56570000Y-3499998D01*
X56570000Y-3405552D01*
X56540451Y-3218997D01*
X56482085Y-3039362D01*
X56396333Y-2871066D01*
X56333249Y-2784237D01*
X56333248Y-2784237D01*
X55826611Y-3290875D01*
X55770099Y-3192993D01*
X55677007Y-3099901D01*
X55579123Y-3043388D01*
X56085761Y-2536749D01*
X55998933Y-2473666D01*
X55830637Y-2387914D01*
X55651002Y-2329548D01*
X55464447Y-2300000D01*
X55275553Y-2300000D01*
X55088997Y-2329548D01*
X54909362Y-2387914D01*
X54741064Y-2473667D01*
X54741062Y-2473668D01*
X54654237Y-2536748D01*
X54654237Y-2536749D01*
X55160876Y-3043388D01*
X55062993Y-3099901D01*
X54969901Y-3192993D01*
X54913388Y-3290876D01*
X54406749Y-2784237D01*
X54356006Y-2788231D01*
X54346779Y-2791673D01*
X54330184Y-2788062D01*
X54313262Y-2789510D01*
X54296750Y-2780789D01*
X54278506Y-2776821D01*
X54252805Y-2757581D01*
X54251479Y-2756881D01*
X54250252Y-2755670D01*
X53542813Y-2048231D01*
X53542808Y-2048227D01*
X53462890Y-2002087D01*
X53462889Y-2002086D01*
X53462888Y-2002086D01*
X53373744Y-1978200D01*
X43795156Y-1978200D01*
X43706012Y-2002086D01*
X43706011Y-2002086D01*
X43706009Y-2002087D01*
X43706006Y-2002088D01*
X43626094Y-2048226D01*
X43626085Y-2048233D01*
X43222970Y-2451347D01*
X43161647Y-2484832D01*
X43096971Y-2481597D01*
X42927698Y-2426597D01*
X42796271Y-2405781D01*
X42756611Y-2399500D01*
X42583389Y-2399500D01*
X42543728Y-2405781D01*
X42412302Y-2426597D01*
X42247552Y-2480128D01*
X42093211Y-2558768D01*
X42059043Y-2583593D01*
X41953072Y-2660586D01*
X41953070Y-2660588D01*
X41953069Y-2660588D01*
X41830588Y-2783069D01*
X41830588Y-2783070D01*
X41830586Y-2783072D01*
X41803263Y-2820679D01*
X41728768Y-2923211D01*
X41650128Y-3077552D01*
X41596597Y-3242302D01*
X41572844Y-3392277D01*
X41569500Y-3413389D01*
X41569500Y-3586611D01*
X41572844Y-3607722D01*
X41596597Y-3757697D01*
X41596597Y-3757699D01*
X41596598Y-3757701D01*
X41650127Y-3922445D01*
X41728768Y-4076788D01*
X41821640Y-4204615D01*
X41845120Y-4270420D01*
X41829295Y-4338474D01*
X41779189Y-4387169D01*
X41721322Y-4401500D01*
X41078678Y-4401500D01*
X41011639Y-4381815D01*
X40965884Y-4329011D01*
X40955940Y-4259853D01*
X40978360Y-4204615D01*
X41071232Y-4076788D01*
X41149873Y-3922445D01*
X41203402Y-3757701D01*
X41230500Y-3586611D01*
X41230500Y-3413389D01*
X41203402Y-3242299D01*
X41149873Y-3077555D01*
X41071232Y-2923212D01*
X40969414Y-2783072D01*
X40846928Y-2660586D01*
X40706788Y-2558768D01*
X40552445Y-2480127D01*
X40387701Y-2426598D01*
X40387699Y-2426597D01*
X40387698Y-2426597D01*
X40256271Y-2405781D01*
X40216611Y-2399500D01*
X40043389Y-2399500D01*
X40011192Y-2404599D01*
X39872301Y-2426597D01*
X39703028Y-2481597D01*
X39633186Y-2483592D01*
X39577029Y-2451347D01*
X39160313Y-2034631D01*
X39160308Y-2034627D01*
X39080390Y-1988487D01*
X39080389Y-1988486D01*
X39080388Y-1988486D01*
X38991244Y-1964600D01*
X37130544Y-1964600D01*
X37038256Y-1964600D01*
X36949112Y-1988486D01*
X36949109Y-1988487D01*
X36869191Y-2034627D01*
X36869186Y-2034631D01*
X36089421Y-2814396D01*
X36028098Y-2847881D01*
X35958406Y-2842897D01*
X35902473Y-2801025D01*
X35901461Y-2799653D01*
X35889414Y-2783072D01*
X35766928Y-2660586D01*
X35626788Y-2558768D01*
X35472445Y-2480127D01*
X35307701Y-2426598D01*
X35307699Y-2426597D01*
X35307698Y-2426597D01*
X35176271Y-2405781D01*
X35136611Y-2399500D01*
X34963389Y-2399500D01*
X34923728Y-2405781D01*
X34792302Y-2426597D01*
X34627552Y-2480128D01*
X34473211Y-2558768D01*
X34439043Y-2583593D01*
X34333072Y-2660586D01*
X34333070Y-2660588D01*
X34333069Y-2660588D01*
X34210588Y-2783069D01*
X34210588Y-2783070D01*
X34210586Y-2783072D01*
X34183263Y-2820679D01*
X34108768Y-2923211D01*
X34030128Y-3077552D01*
X33976597Y-3242302D01*
X33952844Y-3392277D01*
X33949500Y-3413389D01*
X33949500Y-3586611D01*
X33952844Y-3607722D01*
X33976597Y-3757698D01*
X34031597Y-3926971D01*
X34033592Y-3996812D01*
X34001347Y-4052970D01*
X33689137Y-4365181D01*
X33662209Y-4379884D01*
X33636391Y-4396477D01*
X33630190Y-4397368D01*
X33627814Y-4398666D01*
X33601456Y-4401500D01*
X33458678Y-4401500D01*
X33391639Y-4381815D01*
X33345884Y-4329011D01*
X33335940Y-4259853D01*
X33358360Y-4204615D01*
X33451232Y-4076788D01*
X33529873Y-3922445D01*
X33583402Y-3757701D01*
X33610500Y-3586611D01*
X33610500Y-3413389D01*
X33583402Y-3242299D01*
X33529873Y-3077555D01*
X33451232Y-2923212D01*
X33349414Y-2783072D01*
X33226928Y-2660586D01*
X33086788Y-2558768D01*
X32932445Y-2480127D01*
X32767701Y-2426598D01*
X32767699Y-2426597D01*
X32767698Y-2426597D01*
X32636271Y-2405781D01*
X32596611Y-2399500D01*
X32423389Y-2399500D01*
X32383728Y-2405781D01*
X32252302Y-2426597D01*
X32087552Y-2480128D01*
X31933211Y-2558768D01*
X31899043Y-2583593D01*
X31793072Y-2660586D01*
X31793070Y-2660588D01*
X31793069Y-2660588D01*
X31670588Y-2783069D01*
X31670588Y-2783070D01*
X31670586Y-2783072D01*
X31643263Y-2820679D01*
X31568768Y-2923211D01*
X31490128Y-3077552D01*
X31436597Y-3242302D01*
X31412844Y-3392277D01*
X31409500Y-3413389D01*
X31409500Y-3586611D01*
X31412844Y-3607722D01*
X31436597Y-3757697D01*
X31436597Y-3757699D01*
X31436598Y-3757701D01*
X31490127Y-3922445D01*
X31568768Y-4076788D01*
X31670586Y-4216928D01*
X31793072Y-4339414D01*
X31810816Y-4352306D01*
X31853481Y-4407632D01*
X31859462Y-4477245D01*
X31826857Y-4539041D01*
X31825612Y-4540304D01*
X31074191Y-5291725D01*
X31012868Y-5325210D01*
X30976782Y-5327662D01*
X30933249Y-5324236D01*
X30426611Y-5830875D01*
X30370099Y-5732993D01*
X30277007Y-5639901D01*
X30179123Y-5583388D01*
X30685761Y-5076749D01*
X30598933Y-5013666D01*
X30430637Y-4927914D01*
X30251002Y-4869548D01*
X30077720Y-4842102D01*
X30014586Y-4812172D01*
X29977655Y-4752861D01*
X29978653Y-4682998D01*
X30017263Y-4624766D01*
X30077720Y-4597156D01*
X30171306Y-4582334D01*
X30227696Y-4573403D01*
X30227696Y-4573402D01*
X30227701Y-4573402D01*
X30392445Y-4519873D01*
X30546788Y-4441232D01*
X30686928Y-4339414D01*
X30809414Y-4216928D01*
X30911232Y-4076788D01*
X30989873Y-3922445D01*
X31043402Y-3757701D01*
X31070500Y-3586611D01*
X31070500Y-3413389D01*
X31043402Y-3242299D01*
X30989873Y-3077555D01*
X30911232Y-2923212D01*
X30809414Y-2783072D01*
X30686928Y-2660586D01*
X30546788Y-2558768D01*
X30392445Y-2480127D01*
X30227701Y-2426598D01*
X30227699Y-2426597D01*
X30227698Y-2426597D01*
X30096271Y-2405781D01*
X30056611Y-2399500D01*
X29883389Y-2399500D01*
X29843728Y-2405781D01*
X29712302Y-2426597D01*
X29547552Y-2480128D01*
X29393211Y-2558768D01*
X29359043Y-2583593D01*
X29253072Y-2660586D01*
X29253070Y-2660588D01*
X29253069Y-2660588D01*
X29130588Y-2783069D01*
X29130588Y-2783070D01*
X29130586Y-2783072D01*
X29103263Y-2820679D01*
X29028768Y-2923211D01*
X28950128Y-3077552D01*
X28896597Y-3242302D01*
X28872844Y-3392277D01*
X28869500Y-3413389D01*
X28869500Y-3586611D01*
X28872844Y-3607722D01*
X28896597Y-3757698D01*
X28951597Y-3926970D01*
X28953592Y-3996811D01*
X28921347Y-4052969D01*
X28591135Y-4383182D01*
X28564206Y-4397886D01*
X28538391Y-4414477D01*
X28532190Y-4415368D01*
X28529814Y-4416666D01*
X28503456Y-4419500D01*
X28365378Y-4419500D01*
X28298339Y-4399815D01*
X28252584Y-4347011D01*
X28242640Y-4277853D01*
X28267953Y-4221888D01*
X28266550Y-4220869D01*
X28269413Y-4216929D01*
X28269414Y-4216928D01*
X28371232Y-4076788D01*
X28449873Y-3922445D01*
X28503402Y-3757701D01*
X28530500Y-3586611D01*
X28530500Y-3413389D01*
X28503402Y-3242299D01*
X28449873Y-3077555D01*
X28371232Y-2923212D01*
X28269414Y-2783072D01*
X28146928Y-2660586D01*
X28006788Y-2558768D01*
X27852445Y-2480127D01*
X27687701Y-2426598D01*
X27687699Y-2426597D01*
X27687698Y-2426597D01*
X27556271Y-2405781D01*
X27516611Y-2399500D01*
X27343389Y-2399500D01*
X27311192Y-2404599D01*
X27172301Y-2426597D01*
X27003028Y-2481597D01*
X26933186Y-2483592D01*
X26877029Y-2451347D01*
X26484313Y-2058631D01*
X26484308Y-2058627D01*
X26404390Y-2012487D01*
X26404389Y-2012486D01*
X26404388Y-2012486D01*
X26315244Y-1988600D01*
X9088556Y-1988600D01*
X8999411Y-2012486D01*
X8919487Y-2058631D01*
X8919484Y-2058633D01*
X8394524Y-2583593D01*
X8333201Y-2617078D01*
X8263509Y-2612094D01*
X8207576Y-2570222D01*
X8203025Y-2562231D01*
X8202751Y-2562415D01*
X8185601Y-2536748D01*
X8140601Y-2469399D01*
X8057740Y-2414034D01*
X8057739Y-2414033D01*
X8057735Y-2414032D01*
X7984677Y-2399500D01*
X7984674Y-2399500D01*
X6235326Y-2399500D01*
X6235323Y-2399500D01*
X6162264Y-2414032D01*
X6162260Y-2414033D01*
X6079399Y-2469399D01*
X6024030Y-2552264D01*
X6021707Y-2557875D01*
X5977864Y-2612277D01*
X5911570Y-2634339D01*
X5843871Y-2617058D01*
X5796262Y-2565919D01*
X5792589Y-2557875D01*
X5665063Y-2249999D01*
X5267766Y-1732233D01*
X4750000Y-1334936D01*
X4749995Y-1334934D01*
X4147047Y-1085185D01*
X4147045Y-1085184D01*
X3500000Y-1000000D01*
X3499998Y-1000000D01*
X2852953Y-1085184D01*
X2852951Y-1085185D01*
X2250000Y-1334935D01*
X1732233Y-1732233D01*
X1334934Y-2250002D01*
X1085185Y-2852951D01*
X1085184Y-2852953D01*
X1000000Y-3499998D01*
X500500Y-3499998D01*
X500500Y-624500D01*
X520185Y-557461D01*
X572989Y-511706D01*
X624500Y-500500D01*
X64375500Y-500500D01*
X64442539Y-520185D01*
G37*
%TD.AperFunction*%
%TD*%
M02*
