%TF.GenerationSoftware,KiCad,Pcbnew,9.0.2+dfsg-1*%
%TF.CreationDate,2026-04-19T09:26:02-07:00*%
%TF.ProjectId,gx01-adapter-v2b,67783031-2d61-4646-9170-7465722d7632,rev?*%
%TF.SameCoordinates,Original*%
%TF.FileFunction,Copper,L2,Bot*%
%TF.FilePolarity,Positive*%
%FSLAX46Y46*%
G04 Gerber Fmt 4.6, Leading zero omitted, Abs format (unit mm)*
G04 Created by KiCad (PCBNEW 9.0.2+dfsg-1) date 2026-04-19 09:26:02*
%MOMM*%
%LPD*%
G01*
G04 APERTURE LIST*
G04 Aperture macros list*
%AMRoundRect*
0 Rectangle with rounded corners*
0 $1 Rounding radius*
0 $2 $3 $4 $5 $6 $7 $8 $9 X,Y pos of 4 corners*
0 Add a 4 corners polygon primitive as box body*
4,1,4,$2,$3,$4,$5,$6,$7,$8,$9,$2,$3,0*
0 Add four circle primitives for the rounded corners*
1,1,$1+$1,$2,$3*
1,1,$1+$1,$4,$5*
1,1,$1+$1,$6,$7*
1,1,$1+$1,$8,$9*
0 Add four rect primitives between the rounded corners*
20,1,$1+$1,$2,$3,$4,$5,0*
20,1,$1+$1,$4,$5,$6,$7,0*
20,1,$1+$1,$6,$7,$8,$9,0*
20,1,$1+$1,$8,$9,$2,$3,0*%
G04 Aperture macros list end*
%TA.AperFunction,ComponentPad*%
%ADD10R,1.700000X1.700000*%
%TD*%
%TA.AperFunction,ComponentPad*%
%ADD11C,1.700000*%
%TD*%
%TA.AperFunction,ComponentPad*%
%ADD12RoundRect,0.250000X-0.350000X-0.625000X0.350000X-0.625000X0.350000X0.625000X-0.350000X0.625000X0*%
%TD*%
%TA.AperFunction,ComponentPad*%
%ADD13O,1.200000X1.750000*%
%TD*%
%TA.AperFunction,ViaPad*%
%ADD14C,0.600000*%
%TD*%
%TA.AperFunction,Conductor*%
%ADD15C,0.200000*%
%TD*%
G04 APERTURE END LIST*
D10*
%TO.P,J1,1*%
%TO.N,+3V3*%
X7110000Y-3500000D03*
D11*
%TO.P,J1,2*%
%TO.N,+5V*%
X7110000Y-6040000D03*
%TO.P,J1,3*%
%TO.N,SDA1*%
X9650000Y-3500000D03*
%TO.P,J1,4*%
%TO.N,+5V*%
X9650000Y-6040000D03*
%TO.P,J1,5*%
%TO.N,SCL1*%
X12190000Y-3500000D03*
%TO.P,J1,6*%
%TO.N,GND*%
X12190000Y-6040000D03*
%TO.P,J1,7*%
%TO.N,FPB_INT*%
X14730000Y-3500000D03*
%TO.P,J1,8*%
%TO.N,UART_TX*%
X14730000Y-6040000D03*
%TO.P,J1,9*%
%TO.N,GND*%
X17270000Y-3500000D03*
%TO.P,J1,10*%
%TO.N,UART_RX*%
X17270000Y-6040000D03*
%TO.P,J1,11*%
%TO.N,LCD_RS*%
X19810000Y-3500000D03*
%TO.P,J1,12*%
%TO.N,PPS*%
X19810000Y-6040000D03*
%TO.P,J1,13*%
%TO.N,LCD_RW*%
X22350000Y-3500000D03*
%TO.P,J1,14*%
%TO.N,GND*%
X22350000Y-6040000D03*
%TO.P,J1,15*%
%TO.N,LCD_E*%
X24890000Y-3500000D03*
%TO.P,J1,16*%
%TO.N,FAN2_TACH*%
X24890000Y-6040000D03*
%TO.P,J1,17*%
%TO.N,+3V3*%
X27430000Y-3500000D03*
%TO.P,J1,18*%
%TO.N,LCD_DB0*%
X27430000Y-6040000D03*
%TO.P,J1,19*%
%TO.N,LCD_DB1*%
X29970000Y-3500000D03*
%TO.P,J1,20*%
%TO.N,GND*%
X29970000Y-6040000D03*
%TO.P,J1,21*%
%TO.N,N/C*%
X32510000Y-3500000D03*
%TO.P,J1,22*%
%TO.N,LCD_DB2*%
X32510000Y-6040000D03*
%TO.P,J1,23*%
%TO.N,LCD_DB3*%
X35050000Y-3500000D03*
%TO.P,J1,24*%
%TO.N,N/C*%
X35050000Y-6040000D03*
%TO.P,J1,25*%
%TO.N,GND*%
X37590000Y-3500000D03*
%TO.P,J1,26*%
%TO.N,LCD_DB4*%
X37590000Y-6040000D03*
%TO.P,J1,27*%
%TO.N,ID_SD*%
X40130000Y-3500000D03*
%TO.P,J1,28*%
%TO.N,ID_SC*%
X40130000Y-6040000D03*
%TO.P,J1,29*%
%TO.N,LCD_DB6*%
X42670000Y-3500000D03*
%TO.P,J1,30*%
%TO.N,GND*%
X42670000Y-6040000D03*
%TO.P,J1,31*%
%TO.N,LCD_DB7*%
X45210000Y-3500000D03*
%TO.P,J1,32*%
%TO.N,BL_PWM*%
X45210000Y-6040000D03*
%TO.P,J1,33*%
%TO.N,LCD_CS1*%
X47750000Y-3500000D03*
%TO.P,J1,34*%
%TO.N,GND*%
X47750000Y-6040000D03*
%TO.P,J1,35*%
%TO.N,LCD_CS2*%
X50290000Y-3500000D03*
%TO.P,J1,36*%
%TO.N,FAN_PWM*%
X50290000Y-6040000D03*
%TO.P,J1,37*%
%TO.N,LCD_RST*%
X52830000Y-3500000D03*
%TO.P,J1,38*%
%TO.N,FAN1_TACH*%
X52830000Y-6040000D03*
%TO.P,J1,39*%
%TO.N,GND*%
X55370000Y-3500000D03*
%TO.P,J1,40*%
%TO.N,LCD_DB5*%
X55370000Y-6040000D03*
%TD*%
D12*
%TO.P,J4,1*%
%TO.N,GND*%
X27000000Y-51000000D03*
D13*
%TO.P,J4,2*%
%TO.N,+5V*%
X29000000Y-51000000D03*
%TO.P,J4,3*%
%TO.N,FAN2_TACH*%
X31000000Y-51000000D03*
%TO.P,J4,4*%
%TO.N,FAN_PWM*%
X33000000Y-51000000D03*
%TD*%
D12*
%TO.P,J3,1*%
%TO.N,GND*%
X13000000Y-51000000D03*
D13*
%TO.P,J3,2*%
%TO.N,+5V*%
X15000000Y-51000000D03*
%TO.P,J3,3*%
%TO.N,FAN1_TACH*%
X17000000Y-51000000D03*
%TO.P,J3,4*%
%TO.N,FAN_PWM*%
X19000000Y-51000000D03*
%TD*%
D10*
%TO.P,J2,1*%
%TO.N,GND*%
X7110000Y-11500000D03*
D11*
%TO.P,J2,2*%
%TO.N,+5V*%
X7110000Y-8960000D03*
%TO.P,J2,3*%
%TO.N,LCD_V0*%
X9650000Y-11500000D03*
%TO.P,J2,4*%
%TO.N,LCD_RS*%
X9650000Y-8960000D03*
%TO.P,J2,5*%
%TO.N,LCD_RW*%
X12190000Y-11500000D03*
%TO.P,J2,6*%
%TO.N,LCD_E*%
X12190000Y-8960000D03*
%TO.P,J2,7*%
%TO.N,LCD_DB0*%
X14730000Y-11500000D03*
%TO.P,J2,8*%
%TO.N,LCD_DB1*%
X14730000Y-8960000D03*
%TO.P,J2,9*%
%TO.N,LCD_DB2*%
X17270000Y-11500000D03*
%TO.P,J2,10*%
%TO.N,LCD_DB3*%
X17270000Y-8960000D03*
%TO.P,J2,11*%
%TO.N,LCD_DB4*%
X19810000Y-11500000D03*
%TO.P,J2,12*%
%TO.N,LCD_DB5*%
X19810000Y-8960000D03*
%TO.P,J2,13*%
%TO.N,LCD_DB6*%
X22350000Y-11500000D03*
%TO.P,J2,14*%
%TO.N,LCD_DB7*%
X22350000Y-8960000D03*
%TO.P,J2,15*%
%TO.N,LCD_CS1*%
X24890000Y-11500000D03*
%TO.P,J2,16*%
%TO.N,LCD_CS2*%
X24890000Y-8960000D03*
%TO.P,J2,17*%
%TO.N,LCD_RST*%
X27430000Y-11500000D03*
%TO.P,J2,18*%
%TO.N,LCD_VEE*%
X27430000Y-8960000D03*
%TO.P,J2,19*%
%TO.N,LCD_BLA*%
X29970000Y-11500000D03*
%TO.P,J2,20*%
%TO.N,LCD_BLK*%
X29970000Y-8960000D03*
%TD*%
D14*
%TO.N,+3V3*%
X6096000Y-14276100D03*
X20936200Y-23352300D03*
X39601200Y-24511400D03*
%TO.N,GND*%
X46722400Y-28372000D03*
X49762100Y-31084600D03*
X16200400Y-43170600D03*
X10273000Y-43170600D03*
X37926200Y-18664100D03*
X17775000Y-40987600D03*
X51391500Y-39709600D03*
X18766400Y-30113000D03*
X54857400Y-43567900D03*
X48739700Y-43505100D03*
X13251300Y-27792500D03*
X10525000Y-27275700D03*
X55958900Y-30003000D03*
X50395300Y-52044200D03*
X52615100Y-43968900D03*
X31769000Y-21761500D03*
%TO.N,SDA1*%
X42825000Y-23000000D03*
X13954600Y-23000000D03*
%TO.N,SCL1*%
X43026300Y-25350100D03*
X7309300Y-25264800D03*
X51763200Y-22280500D03*
%TO.N,ID_SD*%
X27525900Y-16311900D03*
X33362000Y-14078400D03*
%TO.N,ID_SC*%
X31873500Y-16311900D03*
X24191900Y-20444200D03*
%TO.N,FPB_INT*%
X51755700Y-7989200D03*
X13236700Y-1112900D03*
%TO.N,LCD_RST*%
X28219500Y-20404100D03*
%TO.N,LCD_DB2*%
X31873500Y-14226600D03*
%TO.N,LCD_DB5*%
X20300600Y-14573200D03*
X50966900Y-8497100D03*
%TO.N,LCD_DB6*%
X36648400Y-13533500D03*
%TO.N,FAN1_TACH*%
X49468400Y-27053500D03*
%TD*%
D15*
%TO.N,+5V*%
X16531100Y-52193000D02*
X27583600Y-52193000D01*
X28098300Y-51678300D02*
X28098300Y-51000000D01*
X27583600Y-52193000D02*
X28098300Y-51678300D01*
X15901700Y-51000000D02*
X15901700Y-51563600D01*
X15901700Y-51563600D02*
X16531100Y-52193000D01*
X29000000Y-51000000D02*
X28098300Y-51000000D01*
X7110000Y-6040000D02*
X9650000Y-6040000D01*
X15000000Y-51000000D02*
X15901700Y-51000000D01*
%TO.N,+3V3*%
X22095300Y-24511400D02*
X39601200Y-24511400D01*
X13655900Y-23611900D02*
X20676600Y-23611900D01*
X26245800Y-2315800D02*
X27430000Y-3500000D01*
X20936200Y-23352300D02*
X22095300Y-24511400D01*
X20676600Y-23611900D02*
X20936200Y-23352300D01*
X7110000Y-3500000D02*
X8261700Y-3500000D01*
X9158000Y-2315800D02*
X26245800Y-2315800D01*
X8261700Y-3212100D02*
X9158000Y-2315800D01*
X6096000Y-14075000D02*
X6096000Y-16052000D01*
X6096000Y-14075000D02*
X6096000Y-14276100D01*
X6096000Y-16052000D02*
X13655900Y-23611900D01*
X8261700Y-3500000D02*
X8261700Y-3212100D01*
%TO.N,SDA1*%
X14244700Y-22709900D02*
X13954600Y-23000000D01*
X42825000Y-23000000D02*
X42534900Y-22709900D01*
X42534900Y-22709900D02*
X14244700Y-22709900D01*
%TO.N,SCL1*%
X43026300Y-25350100D02*
X46095900Y-22280500D01*
X51764800Y-22280500D02*
X51763200Y-22280500D01*
X46095900Y-22280500D02*
X51764800Y-22280500D01*
X7309300Y-25264800D02*
X7394600Y-25350100D01*
X7394600Y-25350100D02*
X43026300Y-25350100D01*
%TO.N,ID_SD*%
X32171200Y-15269200D02*
X28568600Y-15269200D01*
X28568600Y-15269200D02*
X27525900Y-16311900D01*
X33362000Y-14078400D02*
X32171200Y-15269200D01*
%TO.N,ID_SC*%
X31460900Y-16311900D02*
X27328600Y-20444200D01*
X27328600Y-20444200D02*
X24191900Y-20444200D01*
X31873500Y-16311900D02*
X31460900Y-16311900D01*
%TO.N,FPB_INT*%
X51441700Y-2967600D02*
X51441700Y-7675200D01*
X13236700Y-1112900D02*
X49587000Y-1112900D01*
X49587000Y-1112900D02*
X51441700Y-2967600D01*
X51441700Y-7675200D02*
X51755700Y-7989200D01*
%TO.N,LCD_RS*%
X11110000Y-7500000D02*
X9650000Y-8960000D01*
X18540000Y-4770000D02*
X16851600Y-4770000D01*
X16851600Y-4770000D02*
X16000000Y-5621600D01*
X16000000Y-6405900D02*
X14905900Y-7500000D01*
X14905900Y-7500000D02*
X11110000Y-7500000D01*
X19810000Y-3500000D02*
X18540000Y-4770000D01*
X16000000Y-5621600D02*
X16000000Y-6405900D01*
%TO.N,LCD_CS1*%
X43913500Y-5699600D02*
X43913500Y-6494000D01*
X44779800Y-4833300D02*
X43913500Y-5699600D01*
X46416700Y-4833300D02*
X44779800Y-4833300D01*
X37700200Y-12707300D02*
X26097300Y-12707300D01*
X43913500Y-6494000D02*
X37700200Y-12707300D01*
X47750000Y-3500000D02*
X46416700Y-4833300D01*
X26097300Y-12707300D02*
X24890000Y-11500000D01*
%TO.N,LCD_CS2*%
X35468400Y-4770000D02*
X36320000Y-3918400D01*
X26266300Y-7583700D02*
X32619400Y-7583700D01*
X49093100Y-2303100D02*
X50290000Y-3500000D01*
X32619400Y-7583700D02*
X33898300Y-6304800D01*
X33898300Y-6304800D02*
X33898300Y-5470600D01*
X24890000Y-8960000D02*
X26266300Y-7583700D01*
X36320000Y-3918400D02*
X36320000Y-3134100D01*
X34598900Y-4770000D02*
X35468400Y-4770000D01*
X37151000Y-2303100D02*
X49093100Y-2303100D01*
X33898300Y-5470600D02*
X34598900Y-4770000D01*
X36320000Y-3134100D02*
X37151000Y-2303100D01*
%TO.N,LCD_RST*%
X54020600Y-6584900D02*
X54020600Y-4690600D01*
X54020600Y-4690600D02*
X52830000Y-3500000D01*
X28219500Y-20404100D02*
X40201400Y-20404100D01*
X40201400Y-20404100D02*
X54020600Y-6584900D01*
%TO.N,LCD_DB0*%
X14730000Y-11500000D02*
X16000000Y-10230000D01*
X16000000Y-10230000D02*
X17688400Y-10230000D01*
X18658300Y-8430000D02*
X19379400Y-7708900D01*
X19379400Y-7708900D02*
X25522000Y-7708900D01*
X27190900Y-6040000D02*
X27430000Y-6040000D01*
X25522000Y-7708900D02*
X27190900Y-6040000D01*
X17688400Y-10230000D02*
X18658300Y-9260100D01*
X18658300Y-9260100D02*
X18658300Y-8430000D01*
%TO.N,LCD_DB2*%
X19741500Y-13971500D02*
X17270000Y-11500000D01*
X31873500Y-14226600D02*
X31618400Y-13971500D01*
X31618400Y-13971500D02*
X19741500Y-13971500D01*
%TO.N,LCD_DB3*%
X21125500Y-5555700D02*
X21851200Y-4830000D01*
X20288300Y-7248700D02*
X21125500Y-6411500D01*
X21851200Y-4830000D02*
X33720000Y-4830000D01*
X21125500Y-6411500D02*
X21125500Y-5555700D01*
X33720000Y-4830000D02*
X35050000Y-3500000D01*
X17270000Y-8960000D02*
X18981300Y-7248700D01*
X18981300Y-7248700D02*
X20288300Y-7248700D01*
%TO.N,LCD_DB5*%
X29205500Y-16942300D02*
X30457000Y-15690800D01*
X30457000Y-15690800D02*
X43773200Y-15690800D01*
X20300600Y-14573200D02*
X22669700Y-16942300D01*
X43773200Y-15690800D02*
X50966900Y-8497100D01*
X22669700Y-16942300D02*
X29205500Y-16942300D01*
%TO.N,LCD_DB6*%
X24326700Y-13476700D02*
X22350000Y-11500000D01*
X36591600Y-13476700D02*
X24326700Y-13476700D01*
X36648400Y-13533500D02*
X36591600Y-13476700D01*
%TO.N,LCD_DB7*%
X37023300Y-4888300D02*
X36201700Y-5709900D01*
X23538300Y-10148300D02*
X22350000Y-8960000D01*
X45210000Y-3500000D02*
X43821700Y-4888300D01*
X36201700Y-5709900D02*
X36201700Y-6531700D01*
X43821700Y-4888300D02*
X37023300Y-4888300D01*
X36201700Y-6531700D02*
X32585100Y-10148300D01*
X32585100Y-10148300D02*
X23538300Y-10148300D01*
%TO.N,FAN_PWM*%
X30594500Y-52192800D02*
X30000000Y-51598300D01*
X30000000Y-51598300D02*
X30000000Y-50447300D01*
X32098300Y-51563600D02*
X31469100Y-52192800D01*
X30000000Y-50447300D02*
X29335600Y-49782900D01*
X29335600Y-49782900D02*
X21118800Y-49782900D01*
X21118800Y-49782900D02*
X19901700Y-51000000D01*
X32098300Y-51000000D02*
X32098300Y-51563600D01*
X33000000Y-51000000D02*
X32098300Y-51000000D01*
X19000000Y-51000000D02*
X19901700Y-51000000D01*
X31469100Y-52192800D02*
X30594500Y-52192800D01*
%TO.N,FAN1_TACH*%
X49468400Y-27053500D02*
X41284500Y-27053500D01*
X17901700Y-50436300D02*
X17901700Y-51000000D01*
X41284500Y-27053500D02*
X17901700Y-50436300D01*
X17000000Y-51000000D02*
X17901700Y-51000000D01*
%TD*%
%TA.AperFunction,Conductor*%
%TO.N,GND*%
G36*
X26002275Y-50153085D02*
G01*
X26048030Y-50205889D01*
X26058175Y-50273586D01*
X26050000Y-50335669D01*
X26050000Y-50825000D01*
X26668024Y-50825000D01*
X26650556Y-50855255D01*
X26625000Y-50950630D01*
X26625000Y-51049370D01*
X26650556Y-51144745D01*
X26668024Y-51175000D01*
X26050001Y-51175000D01*
X26050001Y-51664325D01*
X26055002Y-51702317D01*
X26044235Y-51771352D01*
X25997854Y-51823607D01*
X25932063Y-51842500D01*
X19871087Y-51842500D01*
X19804048Y-51822815D01*
X19758293Y-51770011D01*
X19748349Y-51700853D01*
X19756526Y-51671047D01*
X19817816Y-51523082D01*
X19829729Y-51463191D01*
X19832292Y-51450309D01*
X19864677Y-51388398D01*
X19917467Y-51355976D01*
X19935277Y-51350500D01*
X19947844Y-51350500D01*
X20036988Y-51326614D01*
X20052202Y-51317830D01*
X20116912Y-51280470D01*
X21227662Y-50169718D01*
X21288985Y-50136234D01*
X21315343Y-50133400D01*
X25935236Y-50133400D01*
X26002275Y-50153085D01*
G37*
%TD.AperFunction*%
%TA.AperFunction,Conductor*%
G36*
X12838253Y-520185D02*
G01*
X12884008Y-572989D01*
X12893952Y-642147D01*
X12864927Y-705703D01*
X12858895Y-712181D01*
X12796193Y-774882D01*
X12796188Y-774888D01*
X12723717Y-900411D01*
X12723716Y-900415D01*
X12686200Y-1040425D01*
X12686200Y-1185375D01*
X12723716Y-1325385D01*
X12723717Y-1325388D01*
X12796188Y-1450911D01*
X12796190Y-1450913D01*
X12796191Y-1450915D01*
X12898685Y-1553409D01*
X12898686Y-1553410D01*
X12898688Y-1553411D01*
X13024211Y-1625882D01*
X13024212Y-1625882D01*
X13024215Y-1625884D01*
X13164225Y-1663400D01*
X13164228Y-1663400D01*
X13309172Y-1663400D01*
X13309175Y-1663400D01*
X13449185Y-1625884D01*
X13574715Y-1553409D01*
X13628405Y-1499719D01*
X13689728Y-1466234D01*
X13716086Y-1463400D01*
X49390456Y-1463400D01*
X49457495Y-1483085D01*
X49478137Y-1499719D01*
X50181971Y-2203553D01*
X50215456Y-2264876D01*
X50210472Y-2334568D01*
X50168600Y-2390501D01*
X50113688Y-2413707D01*
X50032302Y-2426597D01*
X50032301Y-2426597D01*
X49863028Y-2481597D01*
X49793186Y-2483592D01*
X49737029Y-2451347D01*
X49308313Y-2022631D01*
X49308308Y-2022627D01*
X49228390Y-1976487D01*
X49228389Y-1976486D01*
X49228388Y-1976486D01*
X49139244Y-1952600D01*
X37104856Y-1952600D01*
X37015711Y-1976486D01*
X36935787Y-2022631D01*
X36935784Y-2022633D01*
X36112397Y-2846019D01*
X36051074Y-2879504D01*
X35981382Y-2874520D01*
X35925449Y-2832648D01*
X35924435Y-2831275D01*
X35889414Y-2783072D01*
X35766928Y-2660586D01*
X35626788Y-2558768D01*
X35472445Y-2480127D01*
X35307701Y-2426598D01*
X35307699Y-2426597D01*
X35307698Y-2426597D01*
X35176271Y-2405781D01*
X35136611Y-2399500D01*
X34963389Y-2399500D01*
X34923728Y-2405781D01*
X34792302Y-2426597D01*
X34627552Y-2480128D01*
X34473211Y-2558768D01*
X34439043Y-2583593D01*
X34333072Y-2660586D01*
X34333070Y-2660588D01*
X34333069Y-2660588D01*
X34210588Y-2783069D01*
X34210588Y-2783070D01*
X34210586Y-2783072D01*
X34175059Y-2831971D01*
X34108768Y-2923211D01*
X34030128Y-3077552D01*
X33976597Y-3242302D01*
X33952844Y-3392277D01*
X33949500Y-3413389D01*
X33949500Y-3586611D01*
X33952844Y-3607722D01*
X33976597Y-3757698D01*
X34031597Y-3926970D01*
X34033592Y-3996811D01*
X34001347Y-4052969D01*
X33611137Y-4443181D01*
X33584209Y-4457884D01*
X33558391Y-4474477D01*
X33552190Y-4475368D01*
X33549814Y-4476666D01*
X33523456Y-4479500D01*
X33386204Y-4479500D01*
X33319165Y-4459815D01*
X33273410Y-4407011D01*
X33263466Y-4337853D01*
X33292491Y-4274297D01*
X33298523Y-4267819D01*
X33320801Y-4245541D01*
X33349414Y-4216928D01*
X33451232Y-4076788D01*
X33529873Y-3922445D01*
X33583402Y-3757701D01*
X33610500Y-3586611D01*
X33610500Y-3413389D01*
X33583402Y-3242299D01*
X33529873Y-3077555D01*
X33451232Y-2923212D01*
X33349414Y-2783072D01*
X33226928Y-2660586D01*
X33086788Y-2558768D01*
X32932445Y-2480127D01*
X32767701Y-2426598D01*
X32767699Y-2426597D01*
X32767698Y-2426597D01*
X32636271Y-2405781D01*
X32596611Y-2399500D01*
X32423389Y-2399500D01*
X32383728Y-2405781D01*
X32252302Y-2426597D01*
X32087552Y-2480128D01*
X31933211Y-2558768D01*
X31899043Y-2583593D01*
X31793072Y-2660586D01*
X31793070Y-2660588D01*
X31793069Y-2660588D01*
X31670588Y-2783069D01*
X31670588Y-2783070D01*
X31670586Y-2783072D01*
X31635059Y-2831971D01*
X31568768Y-2923211D01*
X31490128Y-3077552D01*
X31436597Y-3242302D01*
X31412844Y-3392277D01*
X31409500Y-3413389D01*
X31409500Y-3586611D01*
X31412844Y-3607722D01*
X31436597Y-3757697D01*
X31436597Y-3757699D01*
X31436598Y-3757701D01*
X31490127Y-3922445D01*
X31568768Y-4076788D01*
X31670586Y-4216928D01*
X31670588Y-4216930D01*
X31721477Y-4267819D01*
X31754962Y-4329142D01*
X31749978Y-4398834D01*
X31708106Y-4454767D01*
X31642642Y-4479184D01*
X31633796Y-4479500D01*
X30846204Y-4479500D01*
X30779165Y-4459815D01*
X30733410Y-4407011D01*
X30723466Y-4337853D01*
X30752491Y-4274297D01*
X30758523Y-4267819D01*
X30780801Y-4245541D01*
X30809414Y-4216928D01*
X30911232Y-4076788D01*
X30989873Y-3922445D01*
X31043402Y-3757701D01*
X31070500Y-3586611D01*
X31070500Y-3413389D01*
X31043402Y-3242299D01*
X30989873Y-3077555D01*
X30911232Y-2923212D01*
X30809414Y-2783072D01*
X30686928Y-2660586D01*
X30546788Y-2558768D01*
X30392445Y-2480127D01*
X30227701Y-2426598D01*
X30227699Y-2426597D01*
X30227698Y-2426597D01*
X30096271Y-2405781D01*
X30056611Y-2399500D01*
X29883389Y-2399500D01*
X29843728Y-2405781D01*
X29712302Y-2426597D01*
X29547552Y-2480128D01*
X29393211Y-2558768D01*
X29359043Y-2583593D01*
X29253072Y-2660586D01*
X29253070Y-2660588D01*
X29253069Y-2660588D01*
X29130588Y-2783069D01*
X29130588Y-2783070D01*
X29130586Y-2783072D01*
X29095059Y-2831971D01*
X29028768Y-2923211D01*
X28950128Y-3077552D01*
X28896597Y-3242302D01*
X28872844Y-3392277D01*
X28869500Y-3413389D01*
X28869500Y-3586611D01*
X28872844Y-3607722D01*
X28896597Y-3757697D01*
X28896597Y-3757699D01*
X28896598Y-3757701D01*
X28950127Y-3922445D01*
X29028768Y-4076788D01*
X29130586Y-4216928D01*
X29130588Y-4216930D01*
X29181477Y-4267819D01*
X29214962Y-4329142D01*
X29209978Y-4398834D01*
X29168106Y-4454767D01*
X29102642Y-4479184D01*
X29093796Y-4479500D01*
X28306204Y-4479500D01*
X28239165Y-4459815D01*
X28193410Y-4407011D01*
X28183466Y-4337853D01*
X28212491Y-4274297D01*
X28218523Y-4267819D01*
X28240801Y-4245541D01*
X28269414Y-4216928D01*
X28371232Y-4076788D01*
X28449873Y-3922445D01*
X28503402Y-3757701D01*
X28530500Y-3586611D01*
X28530500Y-3413389D01*
X28503402Y-3242299D01*
X28449873Y-3077555D01*
X28371232Y-2923212D01*
X28269414Y-2783072D01*
X28146928Y-2660586D01*
X28006788Y-2558768D01*
X27852445Y-2480127D01*
X27687701Y-2426598D01*
X27687699Y-2426597D01*
X27687698Y-2426597D01*
X27556271Y-2405781D01*
X27516611Y-2399500D01*
X27343389Y-2399500D01*
X27311192Y-2404599D01*
X27172301Y-2426597D01*
X27003028Y-2481597D01*
X26933186Y-2483592D01*
X26877029Y-2451347D01*
X26461013Y-2035331D01*
X26461008Y-2035327D01*
X26381090Y-1989187D01*
X26381089Y-1989186D01*
X26381088Y-1989186D01*
X26291944Y-1965300D01*
X9111856Y-1965300D01*
X9022712Y-1989186D01*
X9022709Y-1989187D01*
X8942791Y-2035327D01*
X8942786Y-2035331D01*
X8394524Y-2583593D01*
X8333201Y-2617078D01*
X8263509Y-2612094D01*
X8207576Y-2570222D01*
X8203025Y-2562231D01*
X8202751Y-2562415D01*
X8185601Y-2536748D01*
X8140601Y-2469399D01*
X8057740Y-2414034D01*
X8057739Y-2414033D01*
X8057735Y-2414032D01*
X7984677Y-2399500D01*
X7984674Y-2399500D01*
X6235326Y-2399500D01*
X6235323Y-2399500D01*
X6162264Y-2414032D01*
X6162260Y-2414033D01*
X6079399Y-2469399D01*
X6024030Y-2552264D01*
X6021707Y-2557875D01*
X5977864Y-2612277D01*
X5911570Y-2634339D01*
X5843871Y-2617058D01*
X5796262Y-2565919D01*
X5792589Y-2557875D01*
X5665063Y-2249999D01*
X5267766Y-1732233D01*
X4750000Y-1334936D01*
X4749995Y-1334934D01*
X4147047Y-1085185D01*
X4147045Y-1085184D01*
X3500000Y-1000000D01*
X3499998Y-1000000D01*
X2852953Y-1085184D01*
X2852951Y-1085185D01*
X2250000Y-1334935D01*
X1732233Y-1732233D01*
X1334934Y-2250002D01*
X1085185Y-2852951D01*
X1085184Y-2852953D01*
X1000000Y-3499998D01*
X1000000Y-3500001D01*
X1085184Y-4147045D01*
X1085185Y-4147047D01*
X1274515Y-4604132D01*
X1334936Y-4750000D01*
X1732233Y-5267766D01*
X2250000Y-5665063D01*
X2852952Y-5914814D01*
X3176476Y-5957407D01*
X3499999Y-6000000D01*
X3500000Y-6000000D01*
X3500001Y-6000000D01*
X3743571Y-5967933D01*
X4147047Y-5914814D01*
X4750000Y-5665063D01*
X5267766Y-5267766D01*
X5665063Y-4750000D01*
X5792588Y-4442126D01*
X5836428Y-4387725D01*
X5902722Y-4365660D01*
X5970421Y-4382939D01*
X6018032Y-4434076D01*
X6021708Y-4442127D01*
X6024031Y-4447735D01*
X6024033Y-4447739D01*
X6024034Y-4447740D01*
X6079399Y-4530601D01*
X6162260Y-4585966D01*
X6162264Y-4585967D01*
X6235321Y-4600499D01*
X6235324Y-4600500D01*
X6235326Y-4600500D01*
X7984676Y-4600500D01*
X7984677Y-4600499D01*
X8057740Y-4585966D01*
X8140601Y-4530601D01*
X8195966Y-4447740D01*
X8210500Y-4374674D01*
X8210500Y-3971731D01*
X8216834Y-3950158D01*
X8218565Y-3927742D01*
X8226488Y-3917281D01*
X8230185Y-3904692D01*
X8247176Y-3889969D01*
X8260752Y-3872046D01*
X8276783Y-3864314D01*
X8282989Y-3858937D01*
X8291824Y-3855306D01*
X8304935Y-3850500D01*
X8307844Y-3850500D01*
X8396988Y-3826614D01*
X8443745Y-3799617D01*
X8453793Y-3795935D01*
X8478398Y-3794315D01*
X8502365Y-3788500D01*
X8512651Y-3792059D01*
X8523511Y-3791345D01*
X8545084Y-3803283D01*
X8568393Y-3811350D01*
X8575122Y-3819906D01*
X8584644Y-3825176D01*
X8596338Y-3846883D01*
X8611585Y-3866270D01*
X8614394Y-3874026D01*
X8630127Y-3922445D01*
X8708768Y-4076788D01*
X8810586Y-4216928D01*
X8933072Y-4339414D01*
X9073212Y-4441232D01*
X9227555Y-4519873D01*
X9392299Y-4573402D01*
X9563389Y-4600500D01*
X9563390Y-4600500D01*
X9736610Y-4600500D01*
X9736611Y-4600500D01*
X9907701Y-4573402D01*
X10072445Y-4519873D01*
X10226788Y-4441232D01*
X10366928Y-4339414D01*
X10489414Y-4216928D01*
X10591232Y-4076788D01*
X10669873Y-3922445D01*
X10723402Y-3757701D01*
X10750500Y-3586611D01*
X10750500Y-3413389D01*
X10723402Y-3242299D01*
X10669873Y-3077555D01*
X10591232Y-2923212D01*
X10547619Y-2863184D01*
X10524140Y-2797380D01*
X10539965Y-2729326D01*
X10590071Y-2680631D01*
X10647938Y-2666300D01*
X11192062Y-2666300D01*
X11259101Y-2685985D01*
X11304856Y-2738789D01*
X11314800Y-2807947D01*
X11292380Y-2863184D01*
X11284145Y-2874520D01*
X11248768Y-2923211D01*
X11170128Y-3077552D01*
X11116597Y-3242302D01*
X11092844Y-3392277D01*
X11089500Y-3413389D01*
X11089500Y-3586611D01*
X11092844Y-3607722D01*
X11116597Y-3757697D01*
X11116597Y-3757699D01*
X11116598Y-3757701D01*
X11170127Y-3922445D01*
X11248768Y-4076788D01*
X11350586Y-4216928D01*
X11473072Y-4339414D01*
X11613212Y-4441232D01*
X11767555Y-4519873D01*
X11932299Y-4573402D01*
X11932302Y-4573402D01*
X11932303Y-4573403D01*
X12011631Y-4585967D01*
X12082277Y-4597156D01*
X12145412Y-4627085D01*
X12182344Y-4686396D01*
X12181346Y-4756259D01*
X12142737Y-4814492D01*
X12082279Y-4842102D01*
X11908997Y-4869548D01*
X11729362Y-4927914D01*
X11561064Y-5013667D01*
X11561062Y-5013668D01*
X11474237Y-5076748D01*
X11474237Y-5076749D01*
X11980876Y-5583388D01*
X11882993Y-5639901D01*
X11789901Y-5732993D01*
X11733388Y-5830876D01*
X11226749Y-5324237D01*
X11226748Y-5324237D01*
X11163668Y-5411062D01*
X11163667Y-5411064D01*
X11077914Y-5579362D01*
X11019548Y-5758997D01*
X10992102Y-5932279D01*
X10962172Y-5995413D01*
X10902861Y-6032344D01*
X10832998Y-6031346D01*
X10774766Y-5992736D01*
X10747156Y-5932277D01*
X10723403Y-5782303D01*
X10723402Y-5782302D01*
X10723402Y-5782299D01*
X10669873Y-5617555D01*
X10591232Y-5463212D01*
X10489414Y-5323072D01*
X10366928Y-5200586D01*
X10226788Y-5098768D01*
X10131993Y-5050468D01*
X10072447Y-5020128D01*
X10072446Y-5020127D01*
X10072445Y-5020127D01*
X9907701Y-4966598D01*
X9907699Y-4966597D01*
X9907698Y-4966597D01*
X9776271Y-4945781D01*
X9736611Y-4939500D01*
X9563389Y-4939500D01*
X9523728Y-4945781D01*
X9392302Y-4966597D01*
X9227552Y-5020128D01*
X9073211Y-5098768D01*
X8993256Y-5156859D01*
X8933072Y-5200586D01*
X8933070Y-5200588D01*
X8933069Y-5200588D01*
X8810588Y-5323069D01*
X8810588Y-5323070D01*
X8810586Y-5323072D01*
X8768727Y-5380686D01*
X8708768Y-5463211D01*
X8627966Y-5621795D01*
X8579991Y-5672591D01*
X8517481Y-5689500D01*
X8242519Y-5689500D01*
X8175480Y-5669815D01*
X8132034Y-5621795D01*
X8086571Y-5532570D01*
X8051232Y-5463212D01*
X7949414Y-5323072D01*
X7826928Y-5200586D01*
X7686788Y-5098768D01*
X7591993Y-5050468D01*
X7532447Y-5020128D01*
X7532446Y-5020127D01*
X7532445Y-5020127D01*
X7367701Y-4966598D01*
X7367699Y-4966597D01*
X7367698Y-4966597D01*
X7236271Y-4945781D01*
X7196611Y-4939500D01*
X7023389Y-4939500D01*
X6983728Y-4945781D01*
X6852302Y-4966597D01*
X6687552Y-5020128D01*
X6533211Y-5098768D01*
X6453256Y-5156859D01*
X6393072Y-5200586D01*
X6393070Y-5200588D01*
X6393069Y-5200588D01*
X6270588Y-5323069D01*
X6270588Y-5323070D01*
X6270586Y-5323072D01*
X6228727Y-5380686D01*
X6168768Y-5463211D01*
X6090128Y-5617552D01*
X6036597Y-5782302D01*
X6036597Y-5782303D01*
X6009500Y-5953389D01*
X6009500Y-6126611D01*
X6012844Y-6147722D01*
X6022244Y-6207077D01*
X6036598Y-6297701D01*
X6090127Y-6462445D01*
X6168768Y-6616788D01*
X6270586Y-6756928D01*
X6393072Y-6879414D01*
X6533212Y-6981232D01*
X6687555Y-7059873D01*
X6852299Y-7113402D01*
X7023389Y-7140500D01*
X7023390Y-7140500D01*
X7196610Y-7140500D01*
X7196611Y-7140500D01*
X7367701Y-7113402D01*
X7532445Y-7059873D01*
X7686788Y-6981232D01*
X7826928Y-6879414D01*
X7949414Y-6756928D01*
X8051232Y-6616788D01*
X8108900Y-6503607D01*
X8132034Y-6458205D01*
X8180009Y-6407409D01*
X8242519Y-6390500D01*
X8517481Y-6390500D01*
X8584520Y-6410185D01*
X8627966Y-6458205D01*
X8687296Y-6574647D01*
X8708768Y-6616788D01*
X8810586Y-6756928D01*
X8933072Y-6879414D01*
X9073212Y-6981232D01*
X9227555Y-7059873D01*
X9392299Y-7113402D01*
X9563389Y-7140500D01*
X9563390Y-7140500D01*
X9736610Y-7140500D01*
X9736611Y-7140500D01*
X9907701Y-7113402D01*
X10072445Y-7059873D01*
X10226788Y-6981232D01*
X10366928Y-6879414D01*
X10489414Y-6756928D01*
X10591232Y-6616788D01*
X10669873Y-6462445D01*
X10723402Y-6297701D01*
X10747156Y-6147720D01*
X10777085Y-6084587D01*
X10836396Y-6047655D01*
X10906259Y-6048653D01*
X10964492Y-6087262D01*
X10992102Y-6147720D01*
X11019548Y-6321002D01*
X11077914Y-6500637D01*
X11163666Y-6668933D01*
X11226749Y-6755761D01*
X11733387Y-6249123D01*
X11789901Y-6347007D01*
X11882993Y-6440099D01*
X11980875Y-6496611D01*
X11474237Y-7003248D01*
X11475223Y-7015770D01*
X11460859Y-7084148D01*
X11411808Y-7133905D01*
X11351605Y-7149500D01*
X11063856Y-7149500D01*
X10974712Y-7173386D01*
X10974709Y-7173387D01*
X10894791Y-7219527D01*
X10894786Y-7219531D01*
X10202969Y-7911347D01*
X10141646Y-7944832D01*
X10076970Y-7941597D01*
X9907698Y-7886597D01*
X9766096Y-7864170D01*
X9736611Y-7859500D01*
X9563389Y-7859500D01*
X9533904Y-7864170D01*
X9392302Y-7886597D01*
X9227552Y-7940128D01*
X9073211Y-8018768D01*
X9017287Y-8059400D01*
X8933072Y-8120586D01*
X8933070Y-8120588D01*
X8933069Y-8120588D01*
X8810588Y-8243069D01*
X8810588Y-8243070D01*
X8810586Y-8243072D01*
X8780406Y-8284611D01*
X8708768Y-8383211D01*
X8630128Y-8537552D01*
X8576597Y-8702302D01*
X8576597Y-8702304D01*
X8549500Y-8873389D01*
X8549500Y-9046611D01*
X8576598Y-9217701D01*
X8630127Y-9382445D01*
X8708768Y-9536788D01*
X8810586Y-9676928D01*
X8933072Y-9799414D01*
X9073212Y-9901232D01*
X9227555Y-9979873D01*
X9392299Y-10033402D01*
X9563389Y-10060500D01*
X9563390Y-10060500D01*
X9736610Y-10060500D01*
X9736611Y-10060500D01*
X9907701Y-10033402D01*
X10072445Y-9979873D01*
X10226788Y-9901232D01*
X10366928Y-9799414D01*
X10489414Y-9676928D01*
X10591232Y-9536788D01*
X10669873Y-9382445D01*
X10723402Y-9217701D01*
X10750500Y-9046611D01*
X10750500Y-8873389D01*
X10723402Y-8702299D01*
X10669873Y-8537555D01*
X10669869Y-8537547D01*
X10668401Y-8533029D01*
X10666406Y-8463188D01*
X10698649Y-8407031D01*
X11218863Y-7886819D01*
X11280186Y-7853334D01*
X11306544Y-7850500D01*
X11463181Y-7850500D01*
X11530220Y-7870185D01*
X11575975Y-7922989D01*
X11585919Y-7992147D01*
X11556894Y-8055703D01*
X11536070Y-8074814D01*
X11486008Y-8111187D01*
X11473069Y-8120588D01*
X11350588Y-8243069D01*
X11350588Y-8243070D01*
X11350586Y-8243072D01*
X11320406Y-8284611D01*
X11248768Y-8383211D01*
X11170128Y-8537552D01*
X11116597Y-8702302D01*
X11116597Y-8702304D01*
X11089500Y-8873389D01*
X11089500Y-9046611D01*
X11116598Y-9217701D01*
X11170127Y-9382445D01*
X11248768Y-9536788D01*
X11350586Y-9676928D01*
X11473072Y-9799414D01*
X11613212Y-9901232D01*
X11767555Y-9979873D01*
X11932299Y-10033402D01*
X12103389Y-10060500D01*
X12103390Y-10060500D01*
X12276610Y-10060500D01*
X12276611Y-10060500D01*
X12447701Y-10033402D01*
X12612445Y-9979873D01*
X12766788Y-9901232D01*
X12906928Y-9799414D01*
X13029414Y-9676928D01*
X13131232Y-9536788D01*
X13209873Y-9382445D01*
X13263402Y-9217701D01*
X13290500Y-9046611D01*
X13290500Y-8873389D01*
X13263402Y-8702299D01*
X13209873Y-8537555D01*
X13131232Y-8383212D01*
X13029414Y-8243072D01*
X12906928Y-8120586D01*
X12843931Y-8074816D01*
X12801268Y-8019488D01*
X12795289Y-7949875D01*
X12827895Y-7888080D01*
X12888734Y-7853722D01*
X12916819Y-7850500D01*
X14003181Y-7850500D01*
X14070220Y-7870185D01*
X14115975Y-7922989D01*
X14125919Y-7992147D01*
X14096894Y-8055703D01*
X14076070Y-8074814D01*
X14026008Y-8111187D01*
X14013069Y-8120588D01*
X13890588Y-8243069D01*
X13890588Y-8243070D01*
X13890586Y-8243072D01*
X13860406Y-8284611D01*
X13788768Y-8383211D01*
X13710128Y-8537552D01*
X13656597Y-8702302D01*
X13656597Y-8702304D01*
X13629500Y-8873389D01*
X13629500Y-9046611D01*
X13656598Y-9217701D01*
X13710127Y-9382445D01*
X13788768Y-9536788D01*
X13890586Y-9676928D01*
X14013072Y-9799414D01*
X14153212Y-9901232D01*
X14307555Y-9979873D01*
X14472299Y-10033402D01*
X14643389Y-10060500D01*
X14643390Y-10060500D01*
X14816610Y-10060500D01*
X14816611Y-10060500D01*
X14987701Y-10033402D01*
X15152445Y-9979873D01*
X15306788Y-9901232D01*
X15446928Y-9799414D01*
X15569414Y-9676928D01*
X15671232Y-9536788D01*
X15749873Y-9382445D01*
X15803402Y-9217701D01*
X15830500Y-9046611D01*
X15830500Y-8873389D01*
X15803402Y-8702299D01*
X15749873Y-8537555D01*
X15671232Y-8383212D01*
X15569414Y-8243072D01*
X15446928Y-8120586D01*
X15362713Y-8059400D01*
X15306786Y-8018766D01*
X15177991Y-7953143D01*
X15127194Y-7905169D01*
X15110399Y-7837348D01*
X15132936Y-7771213D01*
X15146598Y-7754983D01*
X16207604Y-6693977D01*
X16268925Y-6660494D01*
X16338617Y-6665478D01*
X16394550Y-6707350D01*
X16395579Y-6708746D01*
X16430586Y-6756928D01*
X16553072Y-6879414D01*
X16693212Y-6981232D01*
X16847555Y-7059873D01*
X17012299Y-7113402D01*
X17183389Y-7140500D01*
X17183390Y-7140500D01*
X17356610Y-7140500D01*
X17356611Y-7140500D01*
X17527701Y-7113402D01*
X17692445Y-7059873D01*
X17846788Y-6981232D01*
X17986928Y-6879414D01*
X18109414Y-6756928D01*
X18211232Y-6616788D01*
X18289873Y-6462445D01*
X18343402Y-6297701D01*
X18370500Y-6126611D01*
X18370500Y-5953389D01*
X18343402Y-5782299D01*
X18289873Y-5617555D01*
X18211232Y-5463212D01*
X18109414Y-5323072D01*
X18109411Y-5323069D01*
X18106550Y-5319131D01*
X18107975Y-5318094D01*
X18082515Y-5261255D01*
X18092961Y-5192171D01*
X18139098Y-5139700D01*
X18205378Y-5120500D01*
X18586142Y-5120500D01*
X18586144Y-5120500D01*
X18675288Y-5096614D01*
X18755212Y-5050470D01*
X19257031Y-4548649D01*
X19318352Y-4515166D01*
X19383029Y-4518401D01*
X19387547Y-4519869D01*
X19387555Y-4519873D01*
X19552299Y-4573402D01*
X19723389Y-4600500D01*
X19723390Y-4600500D01*
X19896610Y-4600500D01*
X19896611Y-4600500D01*
X20067701Y-4573402D01*
X20232445Y-4519873D01*
X20386788Y-4441232D01*
X20526928Y-4339414D01*
X20649414Y-4216928D01*
X20751232Y-4076788D01*
X20829873Y-3922445D01*
X20883402Y-3757701D01*
X20910500Y-3586611D01*
X20910500Y-3413389D01*
X20883402Y-3242299D01*
X20829873Y-3077555D01*
X20751232Y-2923212D01*
X20707619Y-2863184D01*
X20684140Y-2797380D01*
X20699965Y-2729326D01*
X20750071Y-2680631D01*
X20807938Y-2666300D01*
X21352062Y-2666300D01*
X21419101Y-2685985D01*
X21464856Y-2738789D01*
X21474800Y-2807947D01*
X21452380Y-2863184D01*
X21444145Y-2874520D01*
X21408768Y-2923211D01*
X21330128Y-3077552D01*
X21276597Y-3242302D01*
X21252844Y-3392277D01*
X21249500Y-3413389D01*
X21249500Y-3586611D01*
X21252844Y-3607722D01*
X21276597Y-3757697D01*
X21276597Y-3757699D01*
X21276598Y-3757701D01*
X21330127Y-3922445D01*
X21408768Y-4076788D01*
X21510586Y-4216928D01*
X21633072Y-4339414D01*
X21633075Y-4339416D01*
X21641034Y-4345199D01*
X21683698Y-4400529D01*
X21689676Y-4470143D01*
X21657068Y-4531937D01*
X21641839Y-4543799D01*
X21642439Y-4544580D01*
X21635986Y-4549531D01*
X20841720Y-5343797D01*
X20780397Y-5377282D01*
X20710705Y-5372298D01*
X20654772Y-5330426D01*
X20653770Y-5329067D01*
X20649414Y-5323072D01*
X20526928Y-5200586D01*
X20386788Y-5098768D01*
X20291993Y-5050468D01*
X20232447Y-5020128D01*
X20232446Y-5020127D01*
X20232445Y-5020127D01*
X20067701Y-4966598D01*
X20067699Y-4966597D01*
X20067698Y-4966597D01*
X19936271Y-4945781D01*
X19896611Y-4939500D01*
X19723389Y-4939500D01*
X19683728Y-4945781D01*
X19552302Y-4966597D01*
X19387552Y-5020128D01*
X19233211Y-5098768D01*
X19153256Y-5156859D01*
X19093072Y-5200586D01*
X19093070Y-5200588D01*
X19093069Y-5200588D01*
X18970588Y-5323069D01*
X18970588Y-5323070D01*
X18970586Y-5323072D01*
X18928727Y-5380686D01*
X18868768Y-5463211D01*
X18790128Y-5617552D01*
X18736597Y-5782302D01*
X18736597Y-5782303D01*
X18709500Y-5953389D01*
X18709500Y-6126611D01*
X18712844Y-6147722D01*
X18722244Y-6207077D01*
X18736598Y-6297701D01*
X18790127Y-6462445D01*
X18868768Y-6616788D01*
X18944678Y-6721269D01*
X18968158Y-6787074D01*
X18952333Y-6855128D01*
X18902227Y-6903823D01*
X18876456Y-6913928D01*
X18846014Y-6922085D01*
X18846009Y-6922087D01*
X18766091Y-6968227D01*
X18766086Y-6968231D01*
X17822969Y-7911347D01*
X17761646Y-7944832D01*
X17696970Y-7941597D01*
X17527698Y-7886597D01*
X17386096Y-7864170D01*
X17356611Y-7859500D01*
X17183389Y-7859500D01*
X17153904Y-7864170D01*
X17012302Y-7886597D01*
X16847552Y-7940128D01*
X16693211Y-8018768D01*
X16637287Y-8059400D01*
X16553072Y-8120586D01*
X16553070Y-8120588D01*
X16553069Y-8120588D01*
X16430588Y-8243069D01*
X16430588Y-8243070D01*
X16430586Y-8243072D01*
X16400406Y-8284611D01*
X16328768Y-8383211D01*
X16250128Y-8537552D01*
X16196597Y-8702302D01*
X16196597Y-8702304D01*
X16169500Y-8873389D01*
X16169500Y-9046611D01*
X16196598Y-9217701D01*
X16250127Y-9382445D01*
X16328768Y-9536788D01*
X16430586Y-9676928D01*
X16430587Y-9676929D01*
X16433450Y-9680869D01*
X16432024Y-9681905D01*
X16457485Y-9738745D01*
X16447039Y-9807829D01*
X16400902Y-9860300D01*
X16334622Y-9879500D01*
X15953856Y-9879500D01*
X15872753Y-9901230D01*
X15872754Y-9901231D01*
X15864713Y-9903385D01*
X15864709Y-9903387D01*
X15784791Y-9949527D01*
X15784786Y-9949531D01*
X15282969Y-10451347D01*
X15221646Y-10484832D01*
X15156970Y-10481597D01*
X14987698Y-10426597D01*
X14856271Y-10405781D01*
X14816611Y-10399500D01*
X14643389Y-10399500D01*
X14603728Y-10405781D01*
X14472302Y-10426597D01*
X14307552Y-10480128D01*
X14153211Y-10558768D01*
X14077255Y-10613954D01*
X14013072Y-10660586D01*
X14013070Y-10660588D01*
X14013069Y-10660588D01*
X13890588Y-10783069D01*
X13890588Y-10783070D01*
X13890586Y-10783072D01*
X13846859Y-10843256D01*
X13788768Y-10923211D01*
X13710128Y-11077552D01*
X13656597Y-11242302D01*
X13639545Y-11349969D01*
X13629500Y-11413389D01*
X13629500Y-11586611D01*
X13656598Y-11757701D01*
X13710127Y-11922445D01*
X13788768Y-12076788D01*
X13890586Y-12216928D01*
X14013072Y-12339414D01*
X14153212Y-12441232D01*
X14307555Y-12519873D01*
X14472299Y-12573402D01*
X14643389Y-12600500D01*
X14643390Y-12600500D01*
X14816610Y-12600500D01*
X14816611Y-12600500D01*
X14987701Y-12573402D01*
X15152445Y-12519873D01*
X15306788Y-12441232D01*
X15446928Y-12339414D01*
X15569414Y-12216928D01*
X15671232Y-12076788D01*
X15749873Y-11922445D01*
X15803402Y-11757701D01*
X15830500Y-11586611D01*
X15830500Y-11413389D01*
X15803402Y-11242299D01*
X15749873Y-11077555D01*
X15749869Y-11077547D01*
X15748401Y-11073029D01*
X15746406Y-11003188D01*
X15778648Y-10947033D01*
X16108865Y-10616816D01*
X16135796Y-10602111D01*
X16161609Y-10585523D01*
X16167809Y-10584631D01*
X16170186Y-10583334D01*
X16196544Y-10580500D01*
X16334622Y-10580500D01*
X16401661Y-10600185D01*
X16447416Y-10652989D01*
X16457360Y-10722147D01*
X16432046Y-10778111D01*
X16433450Y-10779131D01*
X16430588Y-10783069D01*
X16430586Y-10783072D01*
X16382587Y-10849135D01*
X16328768Y-10923211D01*
X16250128Y-11077552D01*
X16196597Y-11242302D01*
X16179545Y-11349969D01*
X16169500Y-11413389D01*
X16169500Y-11586611D01*
X16196598Y-11757701D01*
X16250127Y-11922445D01*
X16328768Y-12076788D01*
X16430586Y-12216928D01*
X16553072Y-12339414D01*
X16693212Y-12441232D01*
X16847555Y-12519873D01*
X17012299Y-12573402D01*
X17183389Y-12600500D01*
X17183390Y-12600500D01*
X17356610Y-12600500D01*
X17356611Y-12600500D01*
X17527701Y-12573402D01*
X17692445Y-12519873D01*
X17692447Y-12519871D01*
X17696971Y-12518402D01*
X17766812Y-12516407D01*
X17822970Y-12548652D01*
X19526288Y-14251970D01*
X19526290Y-14251971D01*
X19526294Y-14251974D01*
X19583364Y-14284923D01*
X19593691Y-14290885D01*
X19606212Y-14298114D01*
X19675541Y-14316690D01*
X19679648Y-14318106D01*
X19704729Y-14335916D01*
X19731000Y-14351929D01*
X19732959Y-14355962D01*
X19736616Y-14358559D01*
X19748086Y-14387103D01*
X19761529Y-14414775D01*
X19761282Y-14419940D01*
X19762669Y-14423390D01*
X19760604Y-14434175D01*
X19759021Y-14467431D01*
X19750100Y-14500725D01*
X19750100Y-14645675D01*
X19779524Y-14755486D01*
X19787617Y-14785688D01*
X19860088Y-14911211D01*
X19860090Y-14911213D01*
X19860091Y-14911215D01*
X19962585Y-15013709D01*
X19962586Y-15013710D01*
X19962588Y-15013711D01*
X20088111Y-15086182D01*
X20088112Y-15086182D01*
X20088115Y-15086184D01*
X20228125Y-15123700D01*
X20304056Y-15123700D01*
X20371095Y-15143385D01*
X20391737Y-15160019D01*
X22389231Y-17157512D01*
X22454488Y-17222769D01*
X22454491Y-17222770D01*
X22454494Y-17222773D01*
X22534406Y-17268911D01*
X22534407Y-17268911D01*
X22534412Y-17268914D01*
X22623556Y-17292800D01*
X22623558Y-17292800D01*
X29251642Y-17292800D01*
X29251644Y-17292800D01*
X29340788Y-17268914D01*
X29420712Y-17222770D01*
X30565862Y-16077618D01*
X30627185Y-16044134D01*
X30653543Y-16041300D01*
X30936456Y-16041300D01*
X31003495Y-16060985D01*
X31049250Y-16113789D01*
X31059194Y-16182947D01*
X31030169Y-16246503D01*
X31024137Y-16252981D01*
X27219737Y-20057381D01*
X27158414Y-20090866D01*
X27132056Y-20093700D01*
X24671286Y-20093700D01*
X24604247Y-20074015D01*
X24583605Y-20057381D01*
X24529917Y-20003693D01*
X24529911Y-20003688D01*
X24404388Y-19931217D01*
X24404389Y-19931217D01*
X24392906Y-19928140D01*
X24264375Y-19893700D01*
X24119425Y-19893700D01*
X23990893Y-19928140D01*
X23979411Y-19931217D01*
X23853888Y-20003688D01*
X23853882Y-20003693D01*
X23751393Y-20106182D01*
X23751388Y-20106188D01*
X23678917Y-20231711D01*
X23678916Y-20231715D01*
X23641400Y-20371725D01*
X23641400Y-20516675D01*
X23656629Y-20573508D01*
X23678917Y-20656688D01*
X23751388Y-20782211D01*
X23751390Y-20782213D01*
X23751391Y-20782215D01*
X23853885Y-20884709D01*
X23853886Y-20884710D01*
X23853888Y-20884711D01*
X23979411Y-20957182D01*
X23979412Y-20957182D01*
X23979415Y-20957184D01*
X24119425Y-20994700D01*
X24119428Y-20994700D01*
X24264372Y-20994700D01*
X24264375Y-20994700D01*
X24404385Y-20957184D01*
X24529915Y-20884709D01*
X24583605Y-20831019D01*
X24644928Y-20797534D01*
X24671286Y-20794700D01*
X27374742Y-20794700D01*
X27374744Y-20794700D01*
X27463888Y-20770814D01*
X27474512Y-20764680D01*
X27543812Y-20724670D01*
X27579515Y-20688966D01*
X27587863Y-20683004D01*
X27611555Y-20674765D01*
X27633576Y-20662741D01*
X27643993Y-20663485D01*
X27653857Y-20660056D01*
X27678247Y-20665935D01*
X27703268Y-20667725D01*
X27711627Y-20673982D01*
X27721781Y-20676430D01*
X27739119Y-20694562D01*
X27759202Y-20709595D01*
X27767322Y-20721904D01*
X27778991Y-20742115D01*
X27881485Y-20844609D01*
X27881486Y-20844610D01*
X27881488Y-20844611D01*
X28007011Y-20917082D01*
X28007012Y-20917082D01*
X28007015Y-20917084D01*
X28147025Y-20954600D01*
X28147028Y-20954600D01*
X28291972Y-20954600D01*
X28291975Y-20954600D01*
X28431985Y-20917084D01*
X28557515Y-20844609D01*
X28611205Y-20790919D01*
X28672528Y-20757434D01*
X28698886Y-20754600D01*
X40247542Y-20754600D01*
X40247544Y-20754600D01*
X40336688Y-20730714D01*
X40416612Y-20684570D01*
X54301070Y-6800112D01*
X54321117Y-6765388D01*
X54371683Y-6717172D01*
X54440290Y-6703948D01*
X54505155Y-6729915D01*
X54528820Y-6754498D01*
X54530586Y-6756928D01*
X54653072Y-6879414D01*
X54793212Y-6981232D01*
X54947555Y-7059873D01*
X55112299Y-7113402D01*
X55283389Y-7140500D01*
X55283390Y-7140500D01*
X55456610Y-7140500D01*
X55456611Y-7140500D01*
X55627701Y-7113402D01*
X55792445Y-7059873D01*
X55946788Y-6981232D01*
X56086928Y-6879414D01*
X56209414Y-6756928D01*
X56311232Y-6616788D01*
X56389873Y-6462445D01*
X56443402Y-6297701D01*
X56470500Y-6126611D01*
X56470500Y-5953389D01*
X56443402Y-5782299D01*
X56389873Y-5617555D01*
X56311232Y-5463212D01*
X56209414Y-5323072D01*
X56086928Y-5200586D01*
X55946788Y-5098768D01*
X55851993Y-5050468D01*
X55792447Y-5020128D01*
X55792446Y-5020127D01*
X55792445Y-5020127D01*
X55627701Y-4966598D01*
X55627699Y-4966597D01*
X55627697Y-4966597D01*
X55477721Y-4942843D01*
X55414586Y-4912914D01*
X55377655Y-4853602D01*
X55378653Y-4783740D01*
X55417263Y-4725507D01*
X55477721Y-4697897D01*
X55651002Y-4670451D01*
X55830637Y-4612085D01*
X55998940Y-4526329D01*
X56085761Y-4463251D01*
X56085762Y-4463249D01*
X55579124Y-3956611D01*
X55677007Y-3900099D01*
X55770099Y-3807007D01*
X55826611Y-3709124D01*
X56333249Y-4215762D01*
X56333251Y-4215761D01*
X56396329Y-4128940D01*
X56482085Y-3960637D01*
X56540451Y-3781002D01*
X56570000Y-3594447D01*
X56570000Y-3499998D01*
X59000000Y-3499998D01*
X59000000Y-3500001D01*
X59085184Y-4147045D01*
X59085185Y-4147047D01*
X59274515Y-4604132D01*
X59334936Y-4750000D01*
X59732233Y-5267766D01*
X60250000Y-5665063D01*
X60852952Y-5914814D01*
X61176476Y-5957407D01*
X61499999Y-6000000D01*
X61500000Y-6000000D01*
X61500001Y-6000000D01*
X61743571Y-5967933D01*
X62147047Y-5914814D01*
X62750000Y-5665063D01*
X63267766Y-5267766D01*
X63665063Y-4750000D01*
X63914814Y-4147047D01*
X63987566Y-3594447D01*
X64000000Y-3500001D01*
X64000000Y-3499998D01*
X63935273Y-3008352D01*
X63914814Y-2852952D01*
X63665063Y-2249999D01*
X63267766Y-1732233D01*
X62750000Y-1334936D01*
X62749995Y-1334934D01*
X62147047Y-1085185D01*
X62147045Y-1085184D01*
X61500001Y-1000000D01*
X61499999Y-1000000D01*
X60852953Y-1085184D01*
X60852951Y-1085185D01*
X60250002Y-1334934D01*
X59732233Y-1732233D01*
X59334934Y-2250002D01*
X59085185Y-2852951D01*
X59085184Y-2852953D01*
X59000000Y-3499998D01*
X56570000Y-3499998D01*
X56570000Y-3405552D01*
X56540451Y-3218997D01*
X56482085Y-3039362D01*
X56396333Y-2871066D01*
X56333249Y-2784237D01*
X55826611Y-3290875D01*
X55770099Y-3192993D01*
X55677007Y-3099901D01*
X55579123Y-3043388D01*
X56085761Y-2536749D01*
X55998933Y-2473666D01*
X55830637Y-2387914D01*
X55651002Y-2329548D01*
X55464447Y-2300000D01*
X55275553Y-2300000D01*
X55088997Y-2329548D01*
X54909362Y-2387914D01*
X54741064Y-2473667D01*
X54741062Y-2473668D01*
X54654237Y-2536748D01*
X54654237Y-2536749D01*
X55160876Y-3043388D01*
X55062993Y-3099901D01*
X54969901Y-3192993D01*
X54913388Y-3290876D01*
X54406749Y-2784237D01*
X54406748Y-2784237D01*
X54343668Y-2871062D01*
X54343667Y-2871064D01*
X54257914Y-3039362D01*
X54199548Y-3218997D01*
X54172102Y-3392279D01*
X54142172Y-3455413D01*
X54082861Y-3492344D01*
X54012998Y-3491346D01*
X53954766Y-3452736D01*
X53927156Y-3392277D01*
X53903403Y-3242303D01*
X53903402Y-3242302D01*
X53903402Y-3242301D01*
X53903402Y-3242299D01*
X53849873Y-3077555D01*
X53771232Y-2923212D01*
X53669414Y-2783072D01*
X53546928Y-2660586D01*
X53406788Y-2558768D01*
X53252445Y-2480127D01*
X53087701Y-2426598D01*
X53087699Y-2426597D01*
X53087698Y-2426597D01*
X52956271Y-2405781D01*
X52916611Y-2399500D01*
X52743389Y-2399500D01*
X52703728Y-2405781D01*
X52572302Y-2426597D01*
X52407552Y-2480128D01*
X52253211Y-2558768D01*
X52219043Y-2583593D01*
X52113072Y-2660586D01*
X52113070Y-2660588D01*
X52113069Y-2660588D01*
X51990585Y-2783072D01*
X51963125Y-2820868D01*
X51907794Y-2863533D01*
X51838181Y-2869511D01*
X51776386Y-2836904D01*
X51755422Y-2809983D01*
X51722170Y-2752388D01*
X49802212Y-832430D01*
X49802211Y-832429D01*
X49802208Y-832427D01*
X49722290Y-786287D01*
X49722289Y-786286D01*
X49722288Y-786286D01*
X49633144Y-762400D01*
X49633143Y-762400D01*
X13716086Y-762400D01*
X13686645Y-753755D01*
X13656659Y-747232D01*
X13651643Y-743477D01*
X13649047Y-742715D01*
X13628405Y-726081D01*
X13614505Y-712181D01*
X13581020Y-650858D01*
X13586004Y-581166D01*
X13627876Y-525233D01*
X13693340Y-500816D01*
X13702186Y-500500D01*
X64375500Y-500500D01*
X64442539Y-520185D01*
X64488294Y-572989D01*
X64499500Y-624500D01*
X64499500Y-55875500D01*
X64479815Y-55942539D01*
X64427011Y-55988294D01*
X64375500Y-55999500D01*
X624500Y-55999500D01*
X557461Y-55979815D01*
X511706Y-55927011D01*
X500500Y-55875500D01*
X500500Y-52499998D01*
X1000000Y-52499998D01*
X1000000Y-52500001D01*
X1085184Y-53147045D01*
X1085185Y-53147047D01*
X1334936Y-53750000D01*
X1732233Y-54267766D01*
X2250000Y-54665063D01*
X2852952Y-54914814D01*
X3176476Y-54957407D01*
X3499999Y-55000000D01*
X3500000Y-55000000D01*
X3500001Y-55000000D01*
X3715682Y-54971604D01*
X4147047Y-54914814D01*
X4750000Y-54665063D01*
X5267766Y-54267766D01*
X5665063Y-53750000D01*
X5914814Y-53147047D01*
X5994273Y-52543499D01*
X6000000Y-52500001D01*
X6000000Y-52499998D01*
X5914814Y-51852953D01*
X5914814Y-51852952D01*
X5710116Y-51358768D01*
X5665064Y-51250002D01*
X5665062Y-51249998D01*
X5626025Y-51199125D01*
X5626024Y-51199124D01*
X5598914Y-51163794D01*
X5267766Y-50732233D01*
X4750955Y-50335669D01*
X12050000Y-50335669D01*
X12050000Y-50825000D01*
X12668024Y-50825000D01*
X12650556Y-50855255D01*
X12625000Y-50950630D01*
X12625000Y-51049370D01*
X12650556Y-51144745D01*
X12668024Y-51175000D01*
X12050001Y-51175000D01*
X12050001Y-51664324D01*
X12065442Y-51781628D01*
X12065444Y-51781633D01*
X12125899Y-51927585D01*
X12222075Y-52052924D01*
X12347413Y-52149100D01*
X12493365Y-52209554D01*
X12493369Y-52209555D01*
X12610676Y-52224999D01*
X12824999Y-52224999D01*
X12825000Y-52224998D01*
X12825000Y-51331976D01*
X12855255Y-51349444D01*
X12950630Y-51375000D01*
X13049370Y-51375000D01*
X13144745Y-51349444D01*
X13175000Y-51331976D01*
X13175000Y-52224999D01*
X13389324Y-52224999D01*
X13506628Y-52209557D01*
X13506633Y-52209555D01*
X13652585Y-52149100D01*
X13777924Y-52052924D01*
X13874100Y-51927586D01*
X13934554Y-51781634D01*
X13934555Y-51781630D01*
X13949999Y-51664330D01*
X13949999Y-51585931D01*
X13969683Y-51518891D01*
X14022486Y-51473135D01*
X14091645Y-51463191D01*
X14155201Y-51492215D01*
X14188560Y-51538476D01*
X14246295Y-51677860D01*
X14339373Y-51817162D01*
X14457837Y-51935626D01*
X14550494Y-51997537D01*
X14597137Y-52028703D01*
X14751918Y-52092816D01*
X14914800Y-52125215D01*
X14916228Y-52125499D01*
X14916232Y-52125500D01*
X14916233Y-52125500D01*
X15083768Y-52125500D01*
X15083769Y-52125499D01*
X15248082Y-52092816D01*
X15402863Y-52028703D01*
X15542162Y-51935626D01*
X15572422Y-51905365D01*
X15633743Y-51871881D01*
X15703435Y-51876865D01*
X15747784Y-51905366D01*
X16315888Y-52473470D01*
X16395466Y-52519414D01*
X16395812Y-52519614D01*
X16484956Y-52543500D01*
X16484958Y-52543500D01*
X27629742Y-52543500D01*
X27629744Y-52543500D01*
X27718888Y-52519614D01*
X27719234Y-52519414D01*
X27798812Y-52473470D01*
X28313238Y-51959043D01*
X28374559Y-51925560D01*
X28444250Y-51930544D01*
X28469807Y-51943623D01*
X28597137Y-52028703D01*
X28751918Y-52092816D01*
X28914800Y-52125215D01*
X28916228Y-52125499D01*
X28916232Y-52125500D01*
X28916233Y-52125500D01*
X29083768Y-52125500D01*
X29083769Y-52125499D01*
X29248082Y-52092816D01*
X29402863Y-52028703D01*
X29542162Y-51935626D01*
X29604223Y-51873564D01*
X29665544Y-51840081D01*
X29735236Y-51845065D01*
X29779584Y-51873566D01*
X30379288Y-52473270D01*
X30379289Y-52473271D01*
X30379291Y-52473272D01*
X30379634Y-52473470D01*
X30459212Y-52519414D01*
X30548356Y-52543300D01*
X30548358Y-52543300D01*
X31515242Y-52543300D01*
X31515244Y-52543300D01*
X31604388Y-52519414D01*
X31638018Y-52499998D01*
X59000000Y-52499998D01*
X59000000Y-52500001D01*
X59085184Y-53147045D01*
X59085185Y-53147047D01*
X59334936Y-53750000D01*
X59732233Y-54267766D01*
X60250000Y-54665063D01*
X60852952Y-54914814D01*
X61176476Y-54957407D01*
X61499999Y-55000000D01*
X61500000Y-55000000D01*
X61500001Y-55000000D01*
X61715682Y-54971604D01*
X62147047Y-54914814D01*
X62750000Y-54665063D01*
X63267766Y-54267766D01*
X63665063Y-53750000D01*
X63914814Y-53147047D01*
X63994273Y-52543499D01*
X64000000Y-52500001D01*
X64000000Y-52499998D01*
X63914814Y-51852953D01*
X63914814Y-51852952D01*
X63710116Y-51358768D01*
X63665064Y-51250002D01*
X63665063Y-51250001D01*
X63665063Y-51250000D01*
X63267766Y-50732233D01*
X62750000Y-50334936D01*
X62749995Y-50334934D01*
X62147047Y-50085185D01*
X62147045Y-50085184D01*
X61500001Y-50000000D01*
X61499999Y-50000000D01*
X60852953Y-50085184D01*
X60852951Y-50085185D01*
X60250002Y-50334934D01*
X59732233Y-50732233D01*
X59334934Y-51250002D01*
X59085185Y-51852951D01*
X59085184Y-51852953D01*
X59000000Y-52499998D01*
X31638018Y-52499998D01*
X31684312Y-52473270D01*
X32252217Y-51905364D01*
X32313538Y-51871881D01*
X32383229Y-51876865D01*
X32427577Y-51905366D01*
X32457837Y-51935626D01*
X32550494Y-51997537D01*
X32597137Y-52028703D01*
X32751918Y-52092816D01*
X32914800Y-52125215D01*
X32916228Y-52125499D01*
X32916232Y-52125500D01*
X32916233Y-52125500D01*
X33083768Y-52125500D01*
X33083769Y-52125499D01*
X33248082Y-52092816D01*
X33402863Y-52028703D01*
X33542162Y-51935626D01*
X33660626Y-51817162D01*
X33753703Y-51677863D01*
X33817816Y-51523082D01*
X33850500Y-51358767D01*
X33850500Y-50641233D01*
X33817816Y-50476918D01*
X33753703Y-50322137D01*
X33707480Y-50252959D01*
X33660626Y-50182837D01*
X33542162Y-50064373D01*
X33402860Y-49971295D01*
X33248082Y-49907184D01*
X33248074Y-49907182D01*
X33083771Y-49874500D01*
X33083767Y-49874500D01*
X32916233Y-49874500D01*
X32916228Y-49874500D01*
X32751925Y-49907182D01*
X32751917Y-49907184D01*
X32597139Y-49971295D01*
X32457837Y-50064373D01*
X32339373Y-50182837D01*
X32246295Y-50322139D01*
X32182184Y-50476917D01*
X32182182Y-50476925D01*
X32167708Y-50549691D01*
X32135323Y-50611602D01*
X32074655Y-50646165D01*
X32060567Y-50649500D01*
X32052156Y-50649500D01*
X31988405Y-50666581D01*
X31986618Y-50667005D01*
X31953481Y-50665242D01*
X31920297Y-50664452D01*
X31918732Y-50663393D01*
X31916847Y-50663293D01*
X31889924Y-50643895D01*
X31862434Y-50625289D01*
X31861567Y-50623463D01*
X31860159Y-50622449D01*
X31855644Y-50610988D01*
X31836437Y-50570531D01*
X31826527Y-50520714D01*
X31817816Y-50476918D01*
X31753703Y-50322137D01*
X31707480Y-50252959D01*
X31660626Y-50182837D01*
X31542162Y-50064373D01*
X31402860Y-49971295D01*
X31248082Y-49907184D01*
X31248074Y-49907182D01*
X31083771Y-49874500D01*
X31083767Y-49874500D01*
X30916233Y-49874500D01*
X30916228Y-49874500D01*
X30751925Y-49907182D01*
X30751917Y-49907184D01*
X30597139Y-49971295D01*
X30457837Y-50064373D01*
X30457834Y-50064376D01*
X30372978Y-50149233D01*
X30311655Y-50182718D01*
X30241963Y-50177734D01*
X30197616Y-50149233D01*
X29550813Y-49502431D01*
X29550808Y-49502427D01*
X29470890Y-49456287D01*
X29470889Y-49456286D01*
X29470888Y-49456286D01*
X29381744Y-49432400D01*
X21072656Y-49432400D01*
X20983512Y-49456286D01*
X20983511Y-49456286D01*
X20983509Y-49456287D01*
X20983506Y-49456288D01*
X20903594Y-49502426D01*
X20903585Y-49502433D01*
X19981634Y-50424383D01*
X19920311Y-50457868D01*
X19850619Y-50452884D01*
X19794686Y-50411012D01*
X19779392Y-50384155D01*
X19753704Y-50322139D01*
X19660626Y-50182837D01*
X19542162Y-50064373D01*
X19402860Y-49971295D01*
X19248082Y-49907184D01*
X19248077Y-49907182D01*
X19207380Y-49899087D01*
X19145469Y-49866701D01*
X19110896Y-49805985D01*
X19114637Y-49736215D01*
X19143890Y-49689791D01*
X41393363Y-27440319D01*
X41454686Y-27406834D01*
X41481044Y-27404000D01*
X48989014Y-27404000D01*
X49056053Y-27423685D01*
X49076695Y-27440319D01*
X49130385Y-27494009D01*
X49130386Y-27494010D01*
X49130388Y-27494011D01*
X49255911Y-27566482D01*
X49255912Y-27566482D01*
X49255915Y-27566484D01*
X49395925Y-27604000D01*
X49395928Y-27604000D01*
X49540872Y-27604000D01*
X49540875Y-27604000D01*
X49680885Y-27566484D01*
X49806415Y-27494009D01*
X49908909Y-27391515D01*
X49981384Y-27265985D01*
X50018900Y-27125975D01*
X50018900Y-26981025D01*
X49981384Y-26841015D01*
X49942133Y-26773031D01*
X49908911Y-26715488D01*
X49908906Y-26715482D01*
X49806417Y-26612993D01*
X49806411Y-26612988D01*
X49680888Y-26540517D01*
X49680889Y-26540517D01*
X49669406Y-26537440D01*
X49540875Y-26503000D01*
X49395925Y-26503000D01*
X49267393Y-26537440D01*
X49255911Y-26540517D01*
X49130388Y-26612988D01*
X49130382Y-26612993D01*
X49076695Y-26666681D01*
X49015372Y-26700166D01*
X48989014Y-26703000D01*
X41238356Y-26703000D01*
X41149212Y-26726886D01*
X41149209Y-26726887D01*
X41069291Y-26773027D01*
X41069286Y-26773031D01*
X17747734Y-50094583D01*
X17686411Y-50128068D01*
X17616719Y-50123084D01*
X17572372Y-50094583D01*
X17542162Y-50064373D01*
X17402860Y-49971295D01*
X17248082Y-49907184D01*
X17248074Y-49907182D01*
X17083771Y-49874500D01*
X17083767Y-49874500D01*
X16916233Y-49874500D01*
X16916228Y-49874500D01*
X16751925Y-49907182D01*
X16751917Y-49907184D01*
X16597139Y-49971295D01*
X16457837Y-50064373D01*
X16339373Y-50182837D01*
X16246295Y-50322139D01*
X16182184Y-50476917D01*
X16182182Y-50476923D01*
X16163562Y-50570532D01*
X16158328Y-50580537D01*
X16157317Y-50591786D01*
X16142424Y-50610941D01*
X16131177Y-50632443D01*
X16121362Y-50638031D01*
X16114432Y-50646946D01*
X16091549Y-50655008D01*
X16070461Y-50667017D01*
X16057475Y-50667014D01*
X16048533Y-50670165D01*
X16018362Y-50667006D01*
X16013381Y-50667005D01*
X16011602Y-50666583D01*
X15947844Y-50649500D01*
X15939433Y-50649500D01*
X15925345Y-50646165D01*
X15907061Y-50635743D01*
X15886870Y-50629815D01*
X15877317Y-50618791D01*
X15864643Y-50611567D01*
X15854895Y-50592914D01*
X15841115Y-50577011D01*
X15832292Y-50549691D01*
X15817817Y-50476925D01*
X15817817Y-50476923D01*
X15817816Y-50476918D01*
X15753703Y-50322137D01*
X15707480Y-50252959D01*
X15660626Y-50182837D01*
X15542162Y-50064373D01*
X15402860Y-49971295D01*
X15248082Y-49907184D01*
X15248074Y-49907182D01*
X15083771Y-49874500D01*
X15083767Y-49874500D01*
X14916233Y-49874500D01*
X14916228Y-49874500D01*
X14751925Y-49907182D01*
X14751917Y-49907184D01*
X14597139Y-49971295D01*
X14457837Y-50064373D01*
X14339373Y-50182837D01*
X14246295Y-50322139D01*
X14188560Y-50461525D01*
X14144719Y-50515928D01*
X14078425Y-50537993D01*
X14010725Y-50520714D01*
X13963115Y-50469576D01*
X13949999Y-50414072D01*
X13949999Y-50335675D01*
X13934557Y-50218371D01*
X13934555Y-50218366D01*
X13874100Y-50072414D01*
X13777924Y-49947075D01*
X13652586Y-49850899D01*
X13506634Y-49790445D01*
X13506630Y-49790444D01*
X13389330Y-49775000D01*
X13175000Y-49775000D01*
X13175000Y-50668023D01*
X13144745Y-50650556D01*
X13049370Y-50625000D01*
X12950630Y-50625000D01*
X12855255Y-50650556D01*
X12825000Y-50668023D01*
X12825000Y-49775000D01*
X12610675Y-49775000D01*
X12493371Y-49790442D01*
X12493366Y-49790444D01*
X12347414Y-49850899D01*
X12222075Y-49947075D01*
X12125899Y-50072413D01*
X12065445Y-50218365D01*
X12065444Y-50218369D01*
X12050000Y-50335669D01*
X4750955Y-50335669D01*
X4750000Y-50334936D01*
X4147047Y-50085185D01*
X4147045Y-50085184D01*
X3500000Y-50000000D01*
X3499998Y-50000000D01*
X2852953Y-50085184D01*
X2852951Y-50085185D01*
X2250000Y-50334935D01*
X1732233Y-50732233D01*
X1334934Y-51250002D01*
X1085185Y-51852951D01*
X1085184Y-51852953D01*
X1000000Y-52499998D01*
X500500Y-52499998D01*
X500500Y-14203625D01*
X5545500Y-14203625D01*
X5545500Y-14348575D01*
X5574214Y-14455736D01*
X5583017Y-14488588D01*
X5655488Y-14614111D01*
X5655493Y-14614117D01*
X5709181Y-14667805D01*
X5742666Y-14729128D01*
X5745500Y-14755486D01*
X5745500Y-16098144D01*
X5745840Y-16099411D01*
X5769386Y-16187287D01*
X5769387Y-16187290D01*
X5815527Y-16267208D01*
X5815529Y-16267211D01*
X5815530Y-16267212D01*
X13440688Y-23892370D01*
X13520612Y-23938514D01*
X13609756Y-23962400D01*
X13609758Y-23962400D01*
X20722742Y-23962400D01*
X20722744Y-23962400D01*
X20811888Y-23938514D01*
X20844972Y-23919412D01*
X20860460Y-23915262D01*
X20872037Y-23907823D01*
X20906972Y-23902800D01*
X20939656Y-23902800D01*
X21006695Y-23922485D01*
X21027337Y-23939119D01*
X21876137Y-24787919D01*
X21909622Y-24849242D01*
X21904638Y-24918934D01*
X21862766Y-24974867D01*
X21797302Y-24999284D01*
X21788456Y-24999600D01*
X7863440Y-24999600D01*
X7796401Y-24979915D01*
X7756053Y-24937600D01*
X7749997Y-24927111D01*
X7749809Y-24926785D01*
X7647315Y-24824291D01*
X7647313Y-24824290D01*
X7647311Y-24824288D01*
X7521788Y-24751817D01*
X7521789Y-24751817D01*
X7510306Y-24748740D01*
X7381775Y-24714300D01*
X7236825Y-24714300D01*
X7108293Y-24748740D01*
X7096811Y-24751817D01*
X6971288Y-24824288D01*
X6971282Y-24824293D01*
X6868793Y-24926782D01*
X6868788Y-24926788D01*
X6796317Y-25052311D01*
X6796316Y-25052315D01*
X6758800Y-25192325D01*
X6758800Y-25337275D01*
X6796316Y-25477285D01*
X6796317Y-25477288D01*
X6868788Y-25602811D01*
X6868790Y-25602813D01*
X6868791Y-25602815D01*
X6971285Y-25705309D01*
X6971286Y-25705310D01*
X6971288Y-25705311D01*
X7096811Y-25777782D01*
X7096812Y-25777782D01*
X7096815Y-25777784D01*
X7236825Y-25815300D01*
X7236828Y-25815300D01*
X7381772Y-25815300D01*
X7381775Y-25815300D01*
X7521785Y-25777784D01*
X7626697Y-25717213D01*
X7688697Y-25700600D01*
X42546914Y-25700600D01*
X42613953Y-25720285D01*
X42634595Y-25736919D01*
X42688285Y-25790609D01*
X42688286Y-25790610D01*
X42688288Y-25790611D01*
X42813811Y-25863082D01*
X42813812Y-25863082D01*
X42813815Y-25863084D01*
X42953825Y-25900600D01*
X42953828Y-25900600D01*
X43098772Y-25900600D01*
X43098775Y-25900600D01*
X43238785Y-25863084D01*
X43364315Y-25790609D01*
X43466809Y-25688115D01*
X43539284Y-25562585D01*
X43576800Y-25422575D01*
X43576800Y-25346644D01*
X43596485Y-25279605D01*
X43613119Y-25258963D01*
X46204763Y-22667319D01*
X46266086Y-22633834D01*
X46292444Y-22631000D01*
X51283814Y-22631000D01*
X51350853Y-22650685D01*
X51371495Y-22667319D01*
X51425185Y-22721009D01*
X51425186Y-22721010D01*
X51425188Y-22721011D01*
X51550711Y-22793482D01*
X51550712Y-22793482D01*
X51550715Y-22793484D01*
X51690725Y-22831000D01*
X51690728Y-22831000D01*
X51835672Y-22831000D01*
X51835675Y-22831000D01*
X51975685Y-22793484D01*
X52101215Y-22721009D01*
X52203709Y-22618515D01*
X52276184Y-22492985D01*
X52313700Y-22352975D01*
X52313700Y-22208025D01*
X52276184Y-22068015D01*
X52236933Y-22000031D01*
X52203711Y-21942488D01*
X52203706Y-21942482D01*
X52101217Y-21839993D01*
X52101211Y-21839988D01*
X51975688Y-21767517D01*
X51975689Y-21767517D01*
X51964206Y-21764440D01*
X51835675Y-21730000D01*
X51690725Y-21730000D01*
X51562193Y-21764440D01*
X51550711Y-21767517D01*
X51425188Y-21839988D01*
X51425182Y-21839993D01*
X51371495Y-21893681D01*
X51310172Y-21927166D01*
X51283814Y-21930000D01*
X46049756Y-21930000D01*
X45960612Y-21953886D01*
X45960609Y-21953887D01*
X45880691Y-22000027D01*
X45880686Y-22000031D01*
X43117437Y-24763281D01*
X43056114Y-24796766D01*
X43029756Y-24799600D01*
X42953825Y-24799600D01*
X42861671Y-24824293D01*
X42813811Y-24837117D01*
X42688288Y-24909588D01*
X42688282Y-24909593D01*
X42634595Y-24963281D01*
X42573272Y-24996766D01*
X42546914Y-24999600D01*
X40169774Y-24999600D01*
X40102735Y-24979915D01*
X40056980Y-24927111D01*
X40047036Y-24857953D01*
X40062387Y-24813599D01*
X40114184Y-24723885D01*
X40151700Y-24583875D01*
X40151700Y-24438925D01*
X40114184Y-24298915D01*
X40041709Y-24173385D01*
X39939215Y-24070891D01*
X39939213Y-24070890D01*
X39939211Y-24070888D01*
X39813688Y-23998417D01*
X39813689Y-23998417D01*
X39802206Y-23995340D01*
X39673675Y-23960900D01*
X39528725Y-23960900D01*
X39400193Y-23995340D01*
X39388711Y-23998417D01*
X39263188Y-24070888D01*
X39263182Y-24070893D01*
X39209495Y-24124581D01*
X39148172Y-24158066D01*
X39121814Y-24160900D01*
X22291844Y-24160900D01*
X22224805Y-24141215D01*
X22204163Y-24124581D01*
X21523019Y-23443437D01*
X21511839Y-23422963D01*
X21496911Y-23405032D01*
X21493769Y-23389870D01*
X21489534Y-23382114D01*
X21487638Y-23370978D01*
X21486700Y-23363394D01*
X21486700Y-23279825D01*
X21467500Y-23208172D01*
X21466443Y-23199622D01*
X21470758Y-23173305D01*
X21471393Y-23146643D01*
X21476325Y-23139355D01*
X21477749Y-23130673D01*
X21495607Y-23110866D01*
X21510556Y-23088781D01*
X21518644Y-23085317D01*
X21524537Y-23078782D01*
X21550269Y-23071774D01*
X21574784Y-23061277D01*
X21589505Y-23060400D01*
X42176117Y-23060400D01*
X42243156Y-23080085D01*
X42288911Y-23132889D01*
X42295888Y-23152297D01*
X42312016Y-23212485D01*
X42312017Y-23212487D01*
X42312017Y-23212488D01*
X42384488Y-23338011D01*
X42384490Y-23338013D01*
X42384491Y-23338015D01*
X42486985Y-23440509D01*
X42486986Y-23440510D01*
X42486988Y-23440511D01*
X42612511Y-23512982D01*
X42612512Y-23512982D01*
X42612515Y-23512984D01*
X42752525Y-23550500D01*
X42752528Y-23550500D01*
X42897472Y-23550500D01*
X42897475Y-23550500D01*
X43037485Y-23512984D01*
X43163015Y-23440509D01*
X43265509Y-23338015D01*
X43337984Y-23212485D01*
X43375500Y-23072475D01*
X43375500Y-22927525D01*
X43337984Y-22787515D01*
X43334535Y-22781542D01*
X43265511Y-22661988D01*
X43265506Y-22661982D01*
X43163017Y-22559493D01*
X43163011Y-22559488D01*
X43037488Y-22487017D01*
X43037489Y-22487017D01*
X43026006Y-22483940D01*
X42897475Y-22449500D01*
X42897472Y-22449500D01*
X42818100Y-22449500D01*
X42756100Y-22432887D01*
X42670190Y-22383287D01*
X42670189Y-22383286D01*
X42670188Y-22383286D01*
X42581044Y-22359400D01*
X14198556Y-22359400D01*
X14109412Y-22383286D01*
X14109411Y-22383286D01*
X14109409Y-22383287D01*
X14109406Y-22383288D01*
X14023503Y-22432886D01*
X13961502Y-22449500D01*
X13882125Y-22449500D01*
X13753593Y-22483940D01*
X13742111Y-22487017D01*
X13616588Y-22559488D01*
X13616582Y-22559493D01*
X13514093Y-22661982D01*
X13514087Y-22661991D01*
X13480534Y-22720105D01*
X13429967Y-22768320D01*
X13361360Y-22781542D01*
X13296495Y-22755574D01*
X13285467Y-22745785D01*
X6482819Y-15943137D01*
X6449334Y-15881814D01*
X6446500Y-15855456D01*
X6446500Y-14755486D01*
X6466185Y-14688447D01*
X6482819Y-14667805D01*
X6509103Y-14641521D01*
X6536509Y-14614115D01*
X6608984Y-14488585D01*
X6646500Y-14348575D01*
X6646500Y-14203625D01*
X6608984Y-14063615D01*
X6599093Y-14046484D01*
X6536511Y-13938088D01*
X6536506Y-13938082D01*
X6434017Y-13835593D01*
X6434011Y-13835588D01*
X6308488Y-13763117D01*
X6308489Y-13763117D01*
X6297006Y-13760040D01*
X6168475Y-13725600D01*
X6168472Y-13725600D01*
X6146249Y-13725600D01*
X6142144Y-13724500D01*
X6049856Y-13724500D01*
X6045751Y-13725600D01*
X6023525Y-13725600D01*
X5894993Y-13760040D01*
X5883511Y-13763117D01*
X5757988Y-13835588D01*
X5757982Y-13835593D01*
X5655493Y-13938082D01*
X5655488Y-13938088D01*
X5583017Y-14063611D01*
X5583016Y-14063615D01*
X5545500Y-14203625D01*
X500500Y-14203625D01*
X500500Y-10616780D01*
X5910000Y-10616780D01*
X5910000Y-11325000D01*
X6639254Y-11325000D01*
X6610000Y-11434174D01*
X6610000Y-11565826D01*
X6639254Y-11675000D01*
X5910001Y-11675000D01*
X5910001Y-12383217D01*
X5919912Y-12451249D01*
X5971215Y-12556191D01*
X6053811Y-12638787D01*
X6158748Y-12690087D01*
X6158751Y-12690088D01*
X6226780Y-12699999D01*
X6934999Y-12699999D01*
X6935000Y-12699998D01*
X6935000Y-11970746D01*
X7044174Y-12000000D01*
X7175826Y-12000000D01*
X7285000Y-11970746D01*
X7285000Y-12699999D01*
X7993218Y-12699999D01*
X8061249Y-12690087D01*
X8166191Y-12638784D01*
X8248787Y-12556188D01*
X8300087Y-12451251D01*
X8300088Y-12451248D01*
X8309999Y-12383219D01*
X8309999Y-11650031D01*
X8329683Y-11582992D01*
X8382487Y-11537237D01*
X8451646Y-11527293D01*
X8515202Y-11556318D01*
X8552976Y-11615096D01*
X8556472Y-11630633D01*
X8563499Y-11675000D01*
X8576598Y-11757701D01*
X8630127Y-11922445D01*
X8708768Y-12076788D01*
X8810586Y-12216928D01*
X8933072Y-12339414D01*
X9073212Y-12441232D01*
X9227555Y-12519873D01*
X9392299Y-12573402D01*
X9563389Y-12600500D01*
X9563390Y-12600500D01*
X9736610Y-12600500D01*
X9736611Y-12600500D01*
X9907701Y-12573402D01*
X10072445Y-12519873D01*
X10226788Y-12441232D01*
X10366928Y-12339414D01*
X10489414Y-12216928D01*
X10591232Y-12076788D01*
X10669873Y-11922445D01*
X10723402Y-11757701D01*
X10750500Y-11586611D01*
X10750500Y-11413389D01*
X11089500Y-11413389D01*
X11089500Y-11586611D01*
X11116598Y-11757701D01*
X11170127Y-11922445D01*
X11248768Y-12076788D01*
X11350586Y-12216928D01*
X11473072Y-12339414D01*
X11613212Y-12441232D01*
X11767555Y-12519873D01*
X11932299Y-12573402D01*
X12103389Y-12600500D01*
X12103390Y-12600500D01*
X12276610Y-12600500D01*
X12276611Y-12600500D01*
X12447701Y-12573402D01*
X12612445Y-12519873D01*
X12766788Y-12441232D01*
X12906928Y-12339414D01*
X13029414Y-12216928D01*
X13131232Y-12076788D01*
X13209873Y-11922445D01*
X13263402Y-11757701D01*
X13290500Y-11586611D01*
X13290500Y-11413389D01*
X13263402Y-11242299D01*
X13209873Y-11077555D01*
X13131232Y-10923212D01*
X13029414Y-10783072D01*
X12906928Y-10660586D01*
X12766788Y-10558768D01*
X12612445Y-10480127D01*
X12447701Y-10426598D01*
X12447699Y-10426597D01*
X12447698Y-10426597D01*
X12316271Y-10405781D01*
X12276611Y-10399500D01*
X12103389Y-10399500D01*
X12063728Y-10405781D01*
X11932302Y-10426597D01*
X11767552Y-10480128D01*
X11613211Y-10558768D01*
X11537255Y-10613954D01*
X11473072Y-10660586D01*
X11473070Y-10660588D01*
X11473069Y-10660588D01*
X11350588Y-10783069D01*
X11350588Y-10783070D01*
X11350586Y-10783072D01*
X11306859Y-10843256D01*
X11248768Y-10923211D01*
X11170128Y-11077552D01*
X11116597Y-11242302D01*
X11099545Y-11349969D01*
X11089500Y-11413389D01*
X10750500Y-11413389D01*
X10723402Y-11242299D01*
X10669873Y-11077555D01*
X10591232Y-10923212D01*
X10489414Y-10783072D01*
X10366928Y-10660586D01*
X10226788Y-10558768D01*
X10072445Y-10480127D01*
X9907701Y-10426598D01*
X9907699Y-10426597D01*
X9907698Y-10426597D01*
X9776271Y-10405781D01*
X9736611Y-10399500D01*
X9563389Y-10399500D01*
X9523728Y-10405781D01*
X9392302Y-10426597D01*
X9227552Y-10480128D01*
X9073211Y-10558768D01*
X8997255Y-10613954D01*
X8933072Y-10660586D01*
X8933070Y-10660588D01*
X8933069Y-10660588D01*
X8810588Y-10783069D01*
X8810588Y-10783070D01*
X8810586Y-10783072D01*
X8766859Y-10843256D01*
X8708768Y-10923211D01*
X8630128Y-11077552D01*
X8576597Y-11242302D01*
X8556472Y-11369367D01*
X8526543Y-11432502D01*
X8467231Y-11469433D01*
X8397369Y-11468435D01*
X8339136Y-11429825D01*
X8311022Y-11365861D01*
X8309999Y-11349969D01*
X8309999Y-10616782D01*
X8300087Y-10548750D01*
X8248784Y-10443808D01*
X8166188Y-10361212D01*
X8061251Y-10309912D01*
X8061248Y-10309911D01*
X7993220Y-10300000D01*
X7260031Y-10300000D01*
X7192992Y-10280315D01*
X7147237Y-10227511D01*
X7137293Y-10158353D01*
X7166318Y-10094797D01*
X7225096Y-10057023D01*
X7240627Y-10053528D01*
X7326913Y-10039862D01*
X7367696Y-10033403D01*
X7367696Y-10033402D01*
X7367701Y-10033402D01*
X7532445Y-9979873D01*
X7686788Y-9901232D01*
X7826928Y-9799414D01*
X7949414Y-9676928D01*
X8051232Y-9536788D01*
X8129873Y-9382445D01*
X8183402Y-9217701D01*
X8210500Y-9046611D01*
X8210500Y-8873389D01*
X8183402Y-8702299D01*
X8129873Y-8537555D01*
X8051232Y-8383212D01*
X7949414Y-8243072D01*
X7826928Y-8120586D01*
X7686788Y-8018768D01*
X7592093Y-7970519D01*
X7532447Y-7940128D01*
X7532446Y-7940127D01*
X7532445Y-7940127D01*
X7367701Y-7886598D01*
X7367699Y-7886597D01*
X7367698Y-7886597D01*
X7226096Y-7864170D01*
X7196611Y-7859500D01*
X7023389Y-7859500D01*
X6993904Y-7864170D01*
X6852302Y-7886597D01*
X6687552Y-7940128D01*
X6533211Y-8018768D01*
X6477287Y-8059400D01*
X6393072Y-8120586D01*
X6393070Y-8120588D01*
X6393069Y-8120588D01*
X6270588Y-8243069D01*
X6270588Y-8243070D01*
X6270586Y-8243072D01*
X6240406Y-8284611D01*
X6168768Y-8383211D01*
X6090128Y-8537552D01*
X6036597Y-8702302D01*
X6036597Y-8702304D01*
X6009500Y-8873389D01*
X6009500Y-9046611D01*
X6036598Y-9217701D01*
X6090127Y-9382445D01*
X6168768Y-9536788D01*
X6270586Y-9676928D01*
X6393072Y-9799414D01*
X6533212Y-9901232D01*
X6687555Y-9979873D01*
X6852299Y-10033402D01*
X6852302Y-10033402D01*
X6852303Y-10033403D01*
X6910026Y-10042545D01*
X6979367Y-10053527D01*
X7042501Y-10083456D01*
X7079433Y-10142767D01*
X7078435Y-10212630D01*
X7039826Y-10270862D01*
X6975862Y-10298977D01*
X6959969Y-10300000D01*
X6226782Y-10300000D01*
X6158750Y-10309912D01*
X6053808Y-10361215D01*
X5971212Y-10443811D01*
X5919912Y-10548748D01*
X5919911Y-10548751D01*
X5910000Y-10616780D01*
X500500Y-10616780D01*
X500500Y-624500D01*
X520185Y-557461D01*
X572989Y-511706D01*
X624500Y-500500D01*
X12771214Y-500500D01*
X12838253Y-520185D01*
G37*
%TD.AperFunction*%
%TA.AperFunction,Conductor*%
G36*
X43836195Y-16060985D02*
G01*
X43881950Y-16113789D01*
X43891894Y-16182947D01*
X43862869Y-16246503D01*
X43856837Y-16252981D01*
X40092537Y-20017281D01*
X40031214Y-20050766D01*
X40004856Y-20053600D01*
X28698886Y-20053600D01*
X28673936Y-20046273D01*
X28648172Y-20042755D01*
X28637940Y-20035704D01*
X28631847Y-20033915D01*
X28618346Y-20023883D01*
X28614648Y-20020724D01*
X28557515Y-19963591D01*
X28527434Y-19946224D01*
X28518766Y-19938819D01*
X28505649Y-19918723D01*
X28489090Y-19901355D01*
X28486901Y-19889996D01*
X28480578Y-19880309D01*
X28480408Y-19856308D01*
X28475868Y-19832748D01*
X28480166Y-19822010D01*
X28480085Y-19810441D01*
X28492917Y-19790160D01*
X28501836Y-19767883D01*
X28511616Y-19756864D01*
X31455899Y-16812582D01*
X31517220Y-16779099D01*
X31586912Y-16784083D01*
X31605578Y-16792878D01*
X31661011Y-16824882D01*
X31661012Y-16824882D01*
X31661015Y-16824884D01*
X31801025Y-16862400D01*
X31801028Y-16862400D01*
X31945972Y-16862400D01*
X31945975Y-16862400D01*
X32085985Y-16824884D01*
X32211515Y-16752409D01*
X32314009Y-16649915D01*
X32386484Y-16524385D01*
X32424000Y-16384375D01*
X32424000Y-16239425D01*
X32412737Y-16197391D01*
X32414400Y-16127544D01*
X32453562Y-16069681D01*
X32517790Y-16042177D01*
X32532512Y-16041300D01*
X43769156Y-16041300D01*
X43836195Y-16060985D01*
G37*
%TD.AperFunction*%
%TA.AperFunction,Conductor*%
G36*
X49107000Y-6048653D02*
G01*
X49165233Y-6087263D01*
X49192843Y-6147721D01*
X49206349Y-6232993D01*
X49216598Y-6297701D01*
X49270127Y-6462445D01*
X49348768Y-6616788D01*
X49450586Y-6756928D01*
X49573072Y-6879414D01*
X49713212Y-6981232D01*
X49867555Y-7059873D01*
X50032299Y-7113402D01*
X50203389Y-7140500D01*
X50203390Y-7140500D01*
X50376610Y-7140500D01*
X50376611Y-7140500D01*
X50547701Y-7113402D01*
X50712445Y-7059873D01*
X50866788Y-6981232D01*
X50894313Y-6961233D01*
X50960118Y-6937752D01*
X51028172Y-6953576D01*
X51076868Y-7003681D01*
X51091200Y-7061550D01*
X51091200Y-7721343D01*
X51107039Y-7780458D01*
X51107044Y-7780474D01*
X51109733Y-7790511D01*
X51108068Y-7860361D01*
X51068903Y-7918222D01*
X51004674Y-7945724D01*
X50989957Y-7946600D01*
X50894425Y-7946600D01*
X50765893Y-7981040D01*
X50754411Y-7984117D01*
X50628888Y-8056588D01*
X50628882Y-8056593D01*
X50526393Y-8159082D01*
X50526388Y-8159088D01*
X50453917Y-8284611D01*
X50453916Y-8284615D01*
X50416400Y-8424625D01*
X50416400Y-8424627D01*
X50416400Y-8500556D01*
X50396715Y-8567595D01*
X50380081Y-8588237D01*
X43664337Y-15303981D01*
X43603014Y-15337466D01*
X43576656Y-15340300D01*
X32895144Y-15340300D01*
X32828105Y-15320615D01*
X32782350Y-15267811D01*
X32772406Y-15198653D01*
X32801431Y-15135097D01*
X32807463Y-15128619D01*
X33270863Y-14665219D01*
X33332186Y-14631734D01*
X33358544Y-14628900D01*
X33434472Y-14628900D01*
X33434475Y-14628900D01*
X33574485Y-14591384D01*
X33700015Y-14518909D01*
X33802509Y-14416415D01*
X33874984Y-14290885D01*
X33912500Y-14150875D01*
X33912500Y-14005925D01*
X33906436Y-13983294D01*
X33908098Y-13913445D01*
X33947259Y-13855582D01*
X34011487Y-13828077D01*
X34026210Y-13827200D01*
X36112737Y-13827200D01*
X36179776Y-13846885D01*
X36201262Y-13866649D01*
X36202144Y-13865768D01*
X36207891Y-13871515D01*
X36310385Y-13974009D01*
X36310386Y-13974010D01*
X36310388Y-13974011D01*
X36435911Y-14046482D01*
X36435912Y-14046482D01*
X36435915Y-14046484D01*
X36575925Y-14084000D01*
X36575928Y-14084000D01*
X36720872Y-14084000D01*
X36720875Y-14084000D01*
X36860885Y-14046484D01*
X36986415Y-13974009D01*
X37088909Y-13871515D01*
X37161384Y-13745985D01*
X37198900Y-13605975D01*
X37198900Y-13461025D01*
X37161384Y-13321015D01*
X37116804Y-13243800D01*
X37100331Y-13175900D01*
X37123183Y-13109873D01*
X37178104Y-13066683D01*
X37224191Y-13057800D01*
X37746342Y-13057800D01*
X37746344Y-13057800D01*
X37835488Y-13033914D01*
X37858694Y-13020516D01*
X37915412Y-12987770D01*
X44173525Y-6729656D01*
X44234846Y-6696173D01*
X44304538Y-6701157D01*
X44360471Y-6743029D01*
X44361519Y-6744449D01*
X44363308Y-6746911D01*
X44370586Y-6756928D01*
X44493072Y-6879414D01*
X44633212Y-6981232D01*
X44787555Y-7059873D01*
X44952299Y-7113402D01*
X45123389Y-7140500D01*
X45123390Y-7140500D01*
X45296610Y-7140500D01*
X45296611Y-7140500D01*
X45467701Y-7113402D01*
X45632445Y-7059873D01*
X45786788Y-6981232D01*
X45926928Y-6879414D01*
X46049414Y-6756928D01*
X46151232Y-6616788D01*
X46229873Y-6462445D01*
X46283402Y-6297701D01*
X46307156Y-6147720D01*
X46337085Y-6084587D01*
X46396396Y-6047655D01*
X46466259Y-6048653D01*
X46524492Y-6087262D01*
X46552102Y-6147720D01*
X46579548Y-6321002D01*
X46637914Y-6500637D01*
X46723666Y-6668933D01*
X46786749Y-6755761D01*
X47293387Y-6249123D01*
X47349901Y-6347007D01*
X47442993Y-6440099D01*
X47540875Y-6496611D01*
X47034237Y-7003248D01*
X47034237Y-7003249D01*
X47121066Y-7066333D01*
X47289362Y-7152085D01*
X47468997Y-7210451D01*
X47655553Y-7240000D01*
X47844447Y-7240000D01*
X48031002Y-7210451D01*
X48210637Y-7152085D01*
X48378940Y-7066329D01*
X48465761Y-7003251D01*
X48465762Y-7003249D01*
X47959124Y-6496611D01*
X48057007Y-6440099D01*
X48150099Y-6347007D01*
X48206611Y-6249124D01*
X48713249Y-6755762D01*
X48713251Y-6755761D01*
X48776329Y-6668940D01*
X48862085Y-6500637D01*
X48920451Y-6321002D01*
X48947897Y-6147721D01*
X48977826Y-6084586D01*
X49037138Y-6047655D01*
X49107000Y-6048653D01*
G37*
%TD.AperFunction*%
%TA.AperFunction,Conductor*%
G36*
X39175488Y-5258485D02*
G01*
X39221243Y-5311289D01*
X39231187Y-5380447D01*
X39208767Y-5435686D01*
X39188768Y-5463211D01*
X39110128Y-5617552D01*
X39056597Y-5782302D01*
X39056597Y-5782303D01*
X39029500Y-5953389D01*
X39029500Y-6126611D01*
X39032844Y-6147722D01*
X39042244Y-6207077D01*
X39056598Y-6297701D01*
X39110127Y-6462445D01*
X39188768Y-6616788D01*
X39290586Y-6756928D01*
X39413072Y-6879414D01*
X39553212Y-6981232D01*
X39707555Y-7059873D01*
X39872299Y-7113402D01*
X40043389Y-7140500D01*
X40043390Y-7140500D01*
X40216610Y-7140500D01*
X40216611Y-7140500D01*
X40387701Y-7113402D01*
X40552445Y-7059873D01*
X40706788Y-6981232D01*
X40846928Y-6879414D01*
X40969414Y-6756928D01*
X41071232Y-6616788D01*
X41149873Y-6462445D01*
X41203402Y-6297701D01*
X41227156Y-6147720D01*
X41257085Y-6084587D01*
X41316396Y-6047655D01*
X41386259Y-6048653D01*
X41444492Y-6087262D01*
X41472102Y-6147720D01*
X41499548Y-6321002D01*
X41557914Y-6500637D01*
X41643666Y-6668933D01*
X41706749Y-6755761D01*
X42213387Y-6249122D01*
X42269901Y-6347007D01*
X42362993Y-6440099D01*
X42460874Y-6496610D01*
X41954237Y-7003248D01*
X41954237Y-7003249D01*
X42041066Y-7066333D01*
X42209362Y-7152085D01*
X42388998Y-7210452D01*
X42418288Y-7215091D01*
X42481423Y-7245020D01*
X42518355Y-7304331D01*
X42517357Y-7374193D01*
X42486572Y-7425245D01*
X37591337Y-12320481D01*
X37530014Y-12353966D01*
X37503656Y-12356800D01*
X30951155Y-12356800D01*
X30884116Y-12337115D01*
X30838361Y-12284311D01*
X30828417Y-12215153D01*
X30850837Y-12159914D01*
X30911232Y-12076788D01*
X30989873Y-11922445D01*
X31043402Y-11757701D01*
X31070500Y-11586611D01*
X31070500Y-11413389D01*
X31043402Y-11242299D01*
X30989873Y-11077555D01*
X30911232Y-10923212D01*
X30809414Y-10783072D01*
X30736823Y-10710481D01*
X30703338Y-10649158D01*
X30708322Y-10579466D01*
X30750194Y-10523533D01*
X30815658Y-10499116D01*
X30824504Y-10498800D01*
X32631242Y-10498800D01*
X32631244Y-10498800D01*
X32720388Y-10474914D01*
X32800312Y-10428770D01*
X36482170Y-6746912D01*
X36502328Y-6711996D01*
X36552894Y-6663782D01*
X36621501Y-6650558D01*
X36686366Y-6676526D01*
X36710030Y-6701108D01*
X36750586Y-6756928D01*
X36873072Y-6879414D01*
X37013212Y-6981232D01*
X37167555Y-7059873D01*
X37332299Y-7113402D01*
X37503389Y-7140500D01*
X37503390Y-7140500D01*
X37676610Y-7140500D01*
X37676611Y-7140500D01*
X37847701Y-7113402D01*
X38012445Y-7059873D01*
X38166788Y-6981232D01*
X38306928Y-6879414D01*
X38429414Y-6756928D01*
X38531232Y-6616788D01*
X38609873Y-6462445D01*
X38663402Y-6297701D01*
X38690500Y-6126611D01*
X38690500Y-5953389D01*
X38663402Y-5782299D01*
X38609873Y-5617555D01*
X38531232Y-5463212D01*
X38511232Y-5435685D01*
X38487753Y-5369879D01*
X38503578Y-5301825D01*
X38553684Y-5253131D01*
X38611551Y-5238800D01*
X39108449Y-5238800D01*
X39175488Y-5258485D01*
G37*
%TD.AperFunction*%
%TA.AperFunction,Conductor*%
G36*
X21949901Y-6347007D02*
G01*
X22042993Y-6440099D01*
X22140874Y-6496610D01*
X21634237Y-7003248D01*
X21634237Y-7003249D01*
X21721067Y-7066333D01*
X21834075Y-7123915D01*
X21884871Y-7171890D01*
X21901666Y-7239711D01*
X21879128Y-7305846D01*
X21824413Y-7349297D01*
X21777780Y-7358400D01*
X20973644Y-7358400D01*
X20906605Y-7338715D01*
X20860850Y-7285911D01*
X20850906Y-7216753D01*
X20879931Y-7153197D01*
X20885963Y-7146719D01*
X20972811Y-7059871D01*
X21244514Y-6788167D01*
X21305833Y-6754685D01*
X21341921Y-6752233D01*
X21386749Y-6755761D01*
X21893387Y-6249122D01*
X21949901Y-6347007D01*
G37*
%TD.AperFunction*%
%TA.AperFunction,Conductor*%
G36*
X23707000Y-6048653D02*
G01*
X23765233Y-6087263D01*
X23792843Y-6147721D01*
X23806349Y-6232993D01*
X23816598Y-6297701D01*
X23870127Y-6462445D01*
X23948768Y-6616788D01*
X24050586Y-6756928D01*
X24173072Y-6879414D01*
X24313212Y-6981232D01*
X24467555Y-7059873D01*
X24632299Y-7113402D01*
X24632305Y-7113403D01*
X24634071Y-7113827D01*
X24634674Y-7114173D01*
X24636932Y-7114907D01*
X24636777Y-7115381D01*
X24694662Y-7148621D01*
X24726823Y-7210648D01*
X24720344Y-7280217D01*
X24677282Y-7335239D01*
X24611309Y-7358245D01*
X24605119Y-7358400D01*
X22922220Y-7358400D01*
X22855181Y-7338715D01*
X22809426Y-7285911D01*
X22799482Y-7216753D01*
X22828507Y-7153197D01*
X22865925Y-7123915D01*
X22978940Y-7066329D01*
X23065761Y-7003251D01*
X23065762Y-7003249D01*
X22559124Y-6496611D01*
X22657007Y-6440099D01*
X22750099Y-6347007D01*
X22806611Y-6249124D01*
X23313249Y-6755762D01*
X23313251Y-6755761D01*
X23376329Y-6668940D01*
X23462085Y-6500637D01*
X23520451Y-6321002D01*
X23547897Y-6147721D01*
X23577826Y-6084586D01*
X23637138Y-6047655D01*
X23707000Y-6048653D01*
G37*
%TD.AperFunction*%
%TA.AperFunction,Conductor*%
G36*
X28686259Y-6048653D02*
G01*
X28744492Y-6087262D01*
X28772102Y-6147720D01*
X28799548Y-6321002D01*
X28857914Y-6500637D01*
X28943666Y-6668933D01*
X29006749Y-6755761D01*
X29513387Y-6249122D01*
X29569901Y-6347007D01*
X29662993Y-6440099D01*
X29760874Y-6496610D01*
X29254237Y-7003248D01*
X29254237Y-7003249D01*
X29261989Y-7008881D01*
X29304655Y-7064211D01*
X29310634Y-7133824D01*
X29278029Y-7195620D01*
X29217190Y-7229977D01*
X29189104Y-7233200D01*
X28028770Y-7233200D01*
X27961731Y-7213515D01*
X27915976Y-7160711D01*
X27906032Y-7091553D01*
X27935057Y-7027997D01*
X27972476Y-6998715D01*
X28006786Y-6981233D01*
X28006785Y-6981233D01*
X28006788Y-6981232D01*
X28146928Y-6879414D01*
X28269414Y-6756928D01*
X28371232Y-6616788D01*
X28449873Y-6462445D01*
X28503402Y-6297701D01*
X28527156Y-6147720D01*
X28557085Y-6084587D01*
X28616396Y-6047655D01*
X28686259Y-6048653D01*
G37*
%TD.AperFunction*%
%TA.AperFunction,Conductor*%
G36*
X31327000Y-6048653D02*
G01*
X31385233Y-6087263D01*
X31412843Y-6147721D01*
X31426349Y-6232993D01*
X31436598Y-6297701D01*
X31490127Y-6462445D01*
X31568768Y-6616788D01*
X31670586Y-6756928D01*
X31793072Y-6879414D01*
X31873367Y-6937752D01*
X31933213Y-6981233D01*
X31967524Y-6998715D01*
X32018321Y-7046689D01*
X32035116Y-7114510D01*
X32012579Y-7180645D01*
X31957864Y-7224097D01*
X31911230Y-7233200D01*
X30750897Y-7233200D01*
X30683858Y-7213515D01*
X30638103Y-7160711D01*
X30628159Y-7091553D01*
X30657184Y-7027997D01*
X30678011Y-7008882D01*
X30685761Y-7003250D01*
X30685762Y-7003249D01*
X30179124Y-6496611D01*
X30277007Y-6440099D01*
X30370099Y-6347007D01*
X30426611Y-6249124D01*
X30933249Y-6755762D01*
X30933251Y-6755761D01*
X30996329Y-6668940D01*
X31082085Y-6500637D01*
X31140451Y-6321002D01*
X31167897Y-6147721D01*
X31197826Y-6084586D01*
X31257138Y-6047655D01*
X31327000Y-6048653D01*
G37*
%TD.AperFunction*%
%TA.AperFunction,Conductor*%
G36*
X13547000Y-6048653D02*
G01*
X13605233Y-6087263D01*
X13632843Y-6147721D01*
X13646349Y-6232993D01*
X13656598Y-6297701D01*
X13710127Y-6462445D01*
X13788768Y-6616788D01*
X13890586Y-6756928D01*
X14013072Y-6879414D01*
X14076068Y-6925183D01*
X14118732Y-6980512D01*
X14124711Y-7050125D01*
X14092105Y-7111920D01*
X14031266Y-7146278D01*
X14003181Y-7149500D01*
X13028395Y-7149500D01*
X12961356Y-7129815D01*
X12915601Y-7077011D01*
X12904777Y-7015772D01*
X12905762Y-7003249D01*
X12399124Y-6496611D01*
X12497007Y-6440099D01*
X12590099Y-6347007D01*
X12646611Y-6249124D01*
X13153249Y-6755762D01*
X13153251Y-6755761D01*
X13216329Y-6668940D01*
X13302085Y-6500637D01*
X13360451Y-6321002D01*
X13387897Y-6147721D01*
X13417826Y-6084586D01*
X13477138Y-6047655D01*
X13547000Y-6048653D01*
G37*
%TD.AperFunction*%
%TA.AperFunction,Conductor*%
G36*
X13799101Y-2685985D02*
G01*
X13844856Y-2738789D01*
X13854800Y-2807947D01*
X13832380Y-2863184D01*
X13824145Y-2874520D01*
X13788768Y-2923211D01*
X13710128Y-3077552D01*
X13656597Y-3242302D01*
X13632844Y-3392277D01*
X13629500Y-3413389D01*
X13629500Y-3586611D01*
X13632844Y-3607722D01*
X13656597Y-3757697D01*
X13656597Y-3757699D01*
X13656598Y-3757701D01*
X13710127Y-3922445D01*
X13788768Y-4076788D01*
X13890586Y-4216928D01*
X14013072Y-4339414D01*
X14153212Y-4441232D01*
X14307555Y-4519873D01*
X14472299Y-4573402D01*
X14643389Y-4600500D01*
X14643390Y-4600500D01*
X14816610Y-4600500D01*
X14816611Y-4600500D01*
X14987701Y-4573402D01*
X15152445Y-4519873D01*
X15306788Y-4441232D01*
X15446928Y-4339414D01*
X15569414Y-4216928D01*
X15671232Y-4076788D01*
X15749873Y-3922445D01*
X15803402Y-3757701D01*
X15827156Y-3607720D01*
X15857085Y-3544587D01*
X15916396Y-3507655D01*
X15986259Y-3508653D01*
X16044492Y-3547262D01*
X16072102Y-3607720D01*
X16099548Y-3781002D01*
X16157914Y-3960637D01*
X16243666Y-4128933D01*
X16306749Y-4215761D01*
X16813387Y-3709122D01*
X16869901Y-3807007D01*
X16962993Y-3900099D01*
X17060874Y-3956611D01*
X16554237Y-4463249D01*
X16557663Y-4506781D01*
X16543299Y-4575158D01*
X16521726Y-4604191D01*
X15770305Y-5355612D01*
X15708982Y-5389097D01*
X15639290Y-5384113D01*
X15583357Y-5342241D01*
X15582340Y-5340863D01*
X15569414Y-5323072D01*
X15446928Y-5200586D01*
X15306788Y-5098768D01*
X15211993Y-5050468D01*
X15152447Y-5020128D01*
X15152446Y-5020127D01*
X15152445Y-5020127D01*
X14987701Y-4966598D01*
X14987699Y-4966597D01*
X14987698Y-4966597D01*
X14856271Y-4945781D01*
X14816611Y-4939500D01*
X14643389Y-4939500D01*
X14603728Y-4945781D01*
X14472302Y-4966597D01*
X14307552Y-5020128D01*
X14153211Y-5098768D01*
X14073256Y-5156859D01*
X14013072Y-5200586D01*
X14013070Y-5200588D01*
X14013069Y-5200588D01*
X13890588Y-5323069D01*
X13890588Y-5323070D01*
X13890586Y-5323072D01*
X13848727Y-5380686D01*
X13788768Y-5463211D01*
X13710128Y-5617552D01*
X13656597Y-5782302D01*
X13632843Y-5932278D01*
X13602914Y-5995413D01*
X13543602Y-6032344D01*
X13473739Y-6031346D01*
X13415507Y-5992736D01*
X13387897Y-5932278D01*
X13360451Y-5758997D01*
X13302085Y-5579362D01*
X13216333Y-5411066D01*
X13153249Y-5324237D01*
X13153248Y-5324237D01*
X12646611Y-5830875D01*
X12590099Y-5732993D01*
X12497007Y-5639901D01*
X12399123Y-5583388D01*
X12905761Y-5076749D01*
X12818933Y-5013666D01*
X12650637Y-4927914D01*
X12471002Y-4869548D01*
X12297720Y-4842102D01*
X12234586Y-4812172D01*
X12197655Y-4752861D01*
X12198653Y-4682998D01*
X12237263Y-4624766D01*
X12297720Y-4597156D01*
X12391306Y-4582334D01*
X12447696Y-4573403D01*
X12447696Y-4573402D01*
X12447701Y-4573402D01*
X12612445Y-4519873D01*
X12766788Y-4441232D01*
X12906928Y-4339414D01*
X13029414Y-4216928D01*
X13131232Y-4076788D01*
X13209873Y-3922445D01*
X13263402Y-3757701D01*
X13290500Y-3586611D01*
X13290500Y-3413389D01*
X13263402Y-3242299D01*
X13209873Y-3077555D01*
X13131232Y-2923212D01*
X13087619Y-2863184D01*
X13064140Y-2797380D01*
X13079965Y-2729326D01*
X13130071Y-2680631D01*
X13187938Y-2666300D01*
X13732062Y-2666300D01*
X13799101Y-2685985D01*
G37*
%TD.AperFunction*%
%TA.AperFunction,Conductor*%
G36*
X47323029Y-4518401D02*
G01*
X47327547Y-4519869D01*
X47327555Y-4519873D01*
X47492299Y-4573402D01*
X47492305Y-4573403D01*
X47492303Y-4573403D01*
X47571631Y-4585967D01*
X47642277Y-4597156D01*
X47705412Y-4627085D01*
X47742344Y-4686396D01*
X47741346Y-4756259D01*
X47702737Y-4814492D01*
X47642279Y-4842102D01*
X47468997Y-4869548D01*
X47289362Y-4927914D01*
X47121064Y-5013667D01*
X47121062Y-5013668D01*
X47034237Y-5076748D01*
X47034237Y-5076749D01*
X47540876Y-5583388D01*
X47442993Y-5639901D01*
X47349901Y-5732993D01*
X47293388Y-5830876D01*
X46786749Y-5324237D01*
X46786748Y-5324237D01*
X46723668Y-5411062D01*
X46723667Y-5411064D01*
X46637914Y-5579362D01*
X46579548Y-5758997D01*
X46552102Y-5932279D01*
X46522172Y-5995413D01*
X46462861Y-6032344D01*
X46392998Y-6031346D01*
X46334766Y-5992736D01*
X46307156Y-5932277D01*
X46283403Y-5782303D01*
X46283402Y-5782302D01*
X46283402Y-5782299D01*
X46229873Y-5617555D01*
X46151232Y-5463212D01*
X46091272Y-5380685D01*
X46067793Y-5314879D01*
X46083618Y-5246825D01*
X46133724Y-5198130D01*
X46191591Y-5183800D01*
X46462842Y-5183800D01*
X46462844Y-5183800D01*
X46551988Y-5159914D01*
X46552697Y-5159505D01*
X46579574Y-5143987D01*
X46579576Y-5143986D01*
X46631912Y-5113770D01*
X47197031Y-4548649D01*
X47258352Y-4515166D01*
X47323029Y-4518401D01*
G37*
%TD.AperFunction*%
%TA.AperFunction,Conductor*%
G36*
X48963595Y-2673285D02*
G01*
X48984237Y-2689919D01*
X49241347Y-2947029D01*
X49274832Y-3008352D01*
X49271597Y-3073028D01*
X49216597Y-3242301D01*
X49192844Y-3392277D01*
X49189500Y-3413389D01*
X49189500Y-3586611D01*
X49192844Y-3607722D01*
X49216597Y-3757697D01*
X49216597Y-3757699D01*
X49216598Y-3757701D01*
X49270127Y-3922445D01*
X49348768Y-4076788D01*
X49450586Y-4216928D01*
X49573072Y-4339414D01*
X49713212Y-4441232D01*
X49867555Y-4519873D01*
X50032299Y-4573402D01*
X50203389Y-4600500D01*
X50203390Y-4600500D01*
X50376610Y-4600500D01*
X50376611Y-4600500D01*
X50547701Y-4573402D01*
X50712445Y-4519873D01*
X50866788Y-4441232D01*
X50894313Y-4421233D01*
X50960118Y-4397752D01*
X51028172Y-4413576D01*
X51076868Y-4463681D01*
X51091200Y-4521550D01*
X51091200Y-5018449D01*
X51071515Y-5085488D01*
X51018711Y-5131243D01*
X50949553Y-5141187D01*
X50894314Y-5118767D01*
X50866788Y-5098768D01*
X50712447Y-5020128D01*
X50712446Y-5020127D01*
X50712445Y-5020127D01*
X50547701Y-4966598D01*
X50547699Y-4966597D01*
X50547698Y-4966597D01*
X50416271Y-4945781D01*
X50376611Y-4939500D01*
X50203389Y-4939500D01*
X50163728Y-4945781D01*
X50032302Y-4966597D01*
X49867552Y-5020128D01*
X49713211Y-5098768D01*
X49633256Y-5156859D01*
X49573072Y-5200586D01*
X49573070Y-5200588D01*
X49573069Y-5200588D01*
X49450588Y-5323069D01*
X49450588Y-5323070D01*
X49450586Y-5323072D01*
X49408727Y-5380686D01*
X49348768Y-5463211D01*
X49270128Y-5617552D01*
X49216597Y-5782302D01*
X49192843Y-5932278D01*
X49162914Y-5995413D01*
X49103602Y-6032344D01*
X49033739Y-6031346D01*
X48975507Y-5992736D01*
X48947897Y-5932278D01*
X48920451Y-5758997D01*
X48862085Y-5579362D01*
X48776333Y-5411066D01*
X48713249Y-5324237D01*
X48713248Y-5324237D01*
X48206611Y-5830875D01*
X48150099Y-5732993D01*
X48057007Y-5639901D01*
X47959123Y-5583388D01*
X48465761Y-5076749D01*
X48378933Y-5013666D01*
X48210637Y-4927914D01*
X48031002Y-4869548D01*
X47857720Y-4842102D01*
X47794586Y-4812172D01*
X47757655Y-4752861D01*
X47758653Y-4682998D01*
X47797263Y-4624766D01*
X47857720Y-4597156D01*
X47951306Y-4582334D01*
X48007696Y-4573403D01*
X48007696Y-4573402D01*
X48007701Y-4573402D01*
X48172445Y-4519873D01*
X48326788Y-4441232D01*
X48466928Y-4339414D01*
X48589414Y-4216928D01*
X48691232Y-4076788D01*
X48769873Y-3922445D01*
X48823402Y-3757701D01*
X48850500Y-3586611D01*
X48850500Y-3413389D01*
X48823402Y-3242299D01*
X48769873Y-3077555D01*
X48691232Y-2923212D01*
X48638392Y-2850485D01*
X48634161Y-2838625D01*
X48625917Y-2829111D01*
X48622643Y-2806345D01*
X48614913Y-2784679D01*
X48617764Y-2772414D01*
X48615973Y-2759953D01*
X48625528Y-2739030D01*
X48630738Y-2716626D01*
X48639767Y-2707851D01*
X48644998Y-2696397D01*
X48664350Y-2683959D01*
X48680844Y-2667931D01*
X48694589Y-2664526D01*
X48703776Y-2658623D01*
X48738711Y-2653600D01*
X48896556Y-2653600D01*
X48963595Y-2673285D01*
G37*
%TD.AperFunction*%
%TA.AperFunction,Conductor*%
G36*
X37189901Y-3807007D02*
G01*
X37282993Y-3900099D01*
X37380874Y-3956610D01*
X36874237Y-4463248D01*
X36876108Y-4487017D01*
X36871246Y-4510160D01*
X36870824Y-4533800D01*
X36864196Y-4543718D01*
X36861744Y-4555394D01*
X36845142Y-4572234D01*
X36832006Y-4591894D01*
X36814492Y-4604132D01*
X36808091Y-4607827D01*
X36808086Y-4607831D01*
X36077681Y-5338235D01*
X36016358Y-5371720D01*
X35946666Y-5366736D01*
X35892919Y-5326500D01*
X35892586Y-5326785D01*
X35891321Y-5325304D01*
X35890733Y-5324864D01*
X35889686Y-5323444D01*
X35889424Y-5323083D01*
X35889415Y-5323073D01*
X35766927Y-5200585D01*
X35749181Y-5187692D01*
X35706516Y-5132362D01*
X35700538Y-5062748D01*
X35733145Y-5000953D01*
X35734317Y-4999763D01*
X36485811Y-4248269D01*
X36490806Y-4245541D01*
X36493972Y-4240805D01*
X36521131Y-4228983D01*
X36547130Y-4214787D01*
X36554970Y-4214254D01*
X36558036Y-4212920D01*
X36562931Y-4213713D01*
X36583218Y-4212335D01*
X36626749Y-4215761D01*
X37133387Y-3709122D01*
X37189901Y-3807007D01*
G37*
%TD.AperFunction*%
%TA.AperFunction,Conductor*%
G36*
X54086259Y-3508653D02*
G01*
X54144492Y-3547262D01*
X54172102Y-3607720D01*
X54199548Y-3781002D01*
X54257914Y-3960637D01*
X54343666Y-4128933D01*
X54406749Y-4215761D01*
X54913387Y-3709123D01*
X54969901Y-3807007D01*
X55062993Y-3900099D01*
X55160875Y-3956611D01*
X54654237Y-4463248D01*
X54654237Y-4463249D01*
X54741066Y-4526333D01*
X54909362Y-4612085D01*
X55088997Y-4670451D01*
X55262278Y-4697897D01*
X55325413Y-4727826D01*
X55362344Y-4787138D01*
X55361346Y-4857000D01*
X55322736Y-4915233D01*
X55262278Y-4942843D01*
X55112302Y-4966597D01*
X54947552Y-5020128D01*
X54793211Y-5098768D01*
X54713256Y-5156859D01*
X54653072Y-5200586D01*
X54653070Y-5200588D01*
X54653069Y-5200588D01*
X54582781Y-5270877D01*
X54521458Y-5304362D01*
X54451766Y-5299378D01*
X54395833Y-5257506D01*
X54371416Y-5192042D01*
X54371100Y-5183196D01*
X54371100Y-4644458D01*
X54371100Y-4644456D01*
X54347214Y-4555312D01*
X54326753Y-4519873D01*
X54326753Y-4519872D01*
X54301072Y-4475391D01*
X54301068Y-4475386D01*
X53878652Y-4052970D01*
X53845167Y-3991647D01*
X53848402Y-3926971D01*
X53849873Y-3922445D01*
X53903402Y-3757701D01*
X53927156Y-3607720D01*
X53957085Y-3544587D01*
X54016396Y-3507655D01*
X54086259Y-3508653D01*
G37*
%TD.AperFunction*%
%TA.AperFunction,Conductor*%
G36*
X38947000Y-3508653D02*
G01*
X39005233Y-3547263D01*
X39032843Y-3607721D01*
X39056597Y-3757697D01*
X39056597Y-3757699D01*
X39056598Y-3757701D01*
X39110127Y-3922445D01*
X39188768Y-4076788D01*
X39290586Y-4216928D01*
X39290588Y-4216930D01*
X39399777Y-4326119D01*
X39433262Y-4387442D01*
X39428278Y-4457134D01*
X39386406Y-4513067D01*
X39320942Y-4537484D01*
X39312096Y-4537800D01*
X38431675Y-4537800D01*
X38364636Y-4518115D01*
X38343994Y-4501481D01*
X37799124Y-3956611D01*
X37897007Y-3900099D01*
X37990099Y-3807007D01*
X38046611Y-3709124D01*
X38553249Y-4215762D01*
X38553251Y-4215761D01*
X38616329Y-4128940D01*
X38702085Y-3960637D01*
X38760451Y-3781002D01*
X38787897Y-3607721D01*
X38817826Y-3544586D01*
X38877138Y-3507655D01*
X38947000Y-3508653D01*
G37*
%TD.AperFunction*%
%TD*%
M02*
