%TF.GenerationSoftware,KiCad,Pcbnew,9.0.2+dfsg-1*%
%TF.CreationDate,2026-04-19T09:26:02-07:00*%
%TF.ProjectId,gx01-adapter-v2b,67783031-2d61-4646-9170-7465722d7632,rev?*%
%TF.SameCoordinates,Original*%
%TF.FileFunction,Legend,Top*%
%TF.FilePolarity,Positive*%
%FSLAX46Y46*%
G04 Gerber Fmt 4.6, Leading zero omitted, Abs format (unit mm)*
G04 Created by KiCad (PCBNEW 9.0.2+dfsg-1) date 2026-04-19 09:26:02*
%MOMM*%
%LPD*%
G01*
G04 APERTURE LIST*
%ADD10C,0.150000*%
%ADD11C,0.120000*%
%ADD12C,0.100000*%
G04 APERTURE END LIST*
D10*
X19833333Y-28024819D02*
X19500000Y-27548628D01*
X19261905Y-28024819D02*
X19261905Y-27024819D01*
X19261905Y-27024819D02*
X19642857Y-27024819D01*
X19642857Y-27024819D02*
X19738095Y-27072438D01*
X19738095Y-27072438D02*
X19785714Y-27120057D01*
X19785714Y-27120057D02*
X19833333Y-27215295D01*
X19833333Y-27215295D02*
X19833333Y-27358152D01*
X19833333Y-27358152D02*
X19785714Y-27453390D01*
X19785714Y-27453390D02*
X19738095Y-27501009D01*
X19738095Y-27501009D02*
X19642857Y-27548628D01*
X19642857Y-27548628D02*
X19261905Y-27548628D01*
X20690476Y-27358152D02*
X20690476Y-28024819D01*
X20452381Y-26977200D02*
X20214286Y-27691485D01*
X20214286Y-27691485D02*
X20833333Y-27691485D01*
X60738095Y-304819D02*
X60738095Y695180D01*
X60738095Y218990D02*
X61309523Y218990D01*
X61309523Y-304819D02*
X61309523Y695180D01*
X61738095Y599942D02*
X61785714Y647561D01*
X61785714Y647561D02*
X61880952Y695180D01*
X61880952Y695180D02*
X62119047Y695180D01*
X62119047Y695180D02*
X62214285Y647561D01*
X62214285Y647561D02*
X62261904Y599942D01*
X62261904Y599942D02*
X62309523Y504704D01*
X62309523Y504704D02*
X62309523Y409466D01*
X62309523Y409466D02*
X62261904Y266609D01*
X62261904Y266609D02*
X61690476Y-304819D01*
X61690476Y-304819D02*
X62309523Y-304819D01*
X53788333Y-27458773D02*
X53727857Y-27519250D01*
X53727857Y-27519250D02*
X53546428Y-27579726D01*
X53546428Y-27579726D02*
X53425476Y-27579726D01*
X53425476Y-27579726D02*
X53244047Y-27519250D01*
X53244047Y-27519250D02*
X53123095Y-27398297D01*
X53123095Y-27398297D02*
X53062618Y-27277345D01*
X53062618Y-27277345D02*
X53002142Y-27035440D01*
X53002142Y-27035440D02*
X53002142Y-26854011D01*
X53002142Y-26854011D02*
X53062618Y-26612107D01*
X53062618Y-26612107D02*
X53123095Y-26491154D01*
X53123095Y-26491154D02*
X53244047Y-26370202D01*
X53244047Y-26370202D02*
X53425476Y-26309726D01*
X53425476Y-26309726D02*
X53546428Y-26309726D01*
X53546428Y-26309726D02*
X53727857Y-26370202D01*
X53727857Y-26370202D02*
X53788333Y-26430678D01*
X54997857Y-27579726D02*
X54272142Y-27579726D01*
X54634999Y-27579726D02*
X54634999Y-26309726D01*
X54634999Y-26309726D02*
X54514047Y-26491154D01*
X54514047Y-26491154D02*
X54393095Y-26612107D01*
X54393095Y-26612107D02*
X54272142Y-26672583D01*
X36833333Y-19024819D02*
X36500000Y-18548628D01*
X36261905Y-19024819D02*
X36261905Y-18024819D01*
X36261905Y-18024819D02*
X36642857Y-18024819D01*
X36642857Y-18024819D02*
X36738095Y-18072438D01*
X36738095Y-18072438D02*
X36785714Y-18120057D01*
X36785714Y-18120057D02*
X36833333Y-18215295D01*
X36833333Y-18215295D02*
X36833333Y-18358152D01*
X36833333Y-18358152D02*
X36785714Y-18453390D01*
X36785714Y-18453390D02*
X36738095Y-18501009D01*
X36738095Y-18501009D02*
X36642857Y-18548628D01*
X36642857Y-18548628D02*
X36261905Y-18548628D01*
X37738095Y-18024819D02*
X37261905Y-18024819D01*
X37261905Y-18024819D02*
X37214286Y-18501009D01*
X37214286Y-18501009D02*
X37261905Y-18453390D01*
X37261905Y-18453390D02*
X37357143Y-18405771D01*
X37357143Y-18405771D02*
X37595238Y-18405771D01*
X37595238Y-18405771D02*
X37690476Y-18453390D01*
X37690476Y-18453390D02*
X37738095Y-18501009D01*
X37738095Y-18501009D02*
X37785714Y-18596247D01*
X37785714Y-18596247D02*
X37785714Y-18834342D01*
X37785714Y-18834342D02*
X37738095Y-18929580D01*
X37738095Y-18929580D02*
X37690476Y-18977200D01*
X37690476Y-18977200D02*
X37595238Y-19024819D01*
X37595238Y-19024819D02*
X37357143Y-19024819D01*
X37357143Y-19024819D02*
X37261905Y-18977200D01*
X37261905Y-18977200D02*
X37214286Y-18929580D01*
X25833333Y-19024819D02*
X25500000Y-18548628D01*
X25261905Y-19024819D02*
X25261905Y-18024819D01*
X25261905Y-18024819D02*
X25642857Y-18024819D01*
X25642857Y-18024819D02*
X25738095Y-18072438D01*
X25738095Y-18072438D02*
X25785714Y-18120057D01*
X25785714Y-18120057D02*
X25833333Y-18215295D01*
X25833333Y-18215295D02*
X25833333Y-18358152D01*
X25833333Y-18358152D02*
X25785714Y-18453390D01*
X25785714Y-18453390D02*
X25738095Y-18501009D01*
X25738095Y-18501009D02*
X25642857Y-18548628D01*
X25642857Y-18548628D02*
X25261905Y-18548628D01*
X26166667Y-18024819D02*
X26833333Y-18024819D01*
X26833333Y-18024819D02*
X26404762Y-19024819D01*
X52253095Y-38989819D02*
X52253095Y-39799342D01*
X52253095Y-39799342D02*
X52300714Y-39894580D01*
X52300714Y-39894580D02*
X52348333Y-39942200D01*
X52348333Y-39942200D02*
X52443571Y-39989819D01*
X52443571Y-39989819D02*
X52634047Y-39989819D01*
X52634047Y-39989819D02*
X52729285Y-39942200D01*
X52729285Y-39942200D02*
X52776904Y-39894580D01*
X52776904Y-39894580D02*
X52824523Y-39799342D01*
X52824523Y-39799342D02*
X52824523Y-38989819D01*
X53253095Y-39085057D02*
X53300714Y-39037438D01*
X53300714Y-39037438D02*
X53395952Y-38989819D01*
X53395952Y-38989819D02*
X53634047Y-38989819D01*
X53634047Y-38989819D02*
X53729285Y-39037438D01*
X53729285Y-39037438D02*
X53776904Y-39085057D01*
X53776904Y-39085057D02*
X53824523Y-39180295D01*
X53824523Y-39180295D02*
X53824523Y-39275533D01*
X53824523Y-39275533D02*
X53776904Y-39418390D01*
X53776904Y-39418390D02*
X53205476Y-39989819D01*
X53205476Y-39989819D02*
X53824523Y-39989819D01*
X3794819Y-5103333D02*
X4509104Y-5103333D01*
X4509104Y-5103333D02*
X4651961Y-5150952D01*
X4651961Y-5150952D02*
X4747200Y-5246190D01*
X4747200Y-5246190D02*
X4794819Y-5389047D01*
X4794819Y-5389047D02*
X4794819Y-5484285D01*
X4794819Y-4103333D02*
X4794819Y-4674761D01*
X4794819Y-4389047D02*
X3794819Y-4389047D01*
X3794819Y-4389047D02*
X3937676Y-4484285D01*
X3937676Y-4484285D02*
X4032914Y-4579523D01*
X4032914Y-4579523D02*
X4080533Y-4674761D01*
X2738095Y-49304819D02*
X2738095Y-48304819D01*
X2738095Y-48781009D02*
X3309523Y-48781009D01*
X3309523Y-49304819D02*
X3309523Y-48304819D01*
X3690476Y-48304819D02*
X4309523Y-48304819D01*
X4309523Y-48304819D02*
X3976190Y-48685771D01*
X3976190Y-48685771D02*
X4119047Y-48685771D01*
X4119047Y-48685771D02*
X4214285Y-48733390D01*
X4214285Y-48733390D02*
X4261904Y-48781009D01*
X4261904Y-48781009D02*
X4309523Y-48876247D01*
X4309523Y-48876247D02*
X4309523Y-49114342D01*
X4309523Y-49114342D02*
X4261904Y-49209580D01*
X4261904Y-49209580D02*
X4214285Y-49257200D01*
X4214285Y-49257200D02*
X4119047Y-49304819D01*
X4119047Y-49304819D02*
X3833333Y-49304819D01*
X3833333Y-49304819D02*
X3738095Y-49257200D01*
X3738095Y-49257200D02*
X3690476Y-49209580D01*
X29666666Y-47554819D02*
X29666666Y-48269104D01*
X29666666Y-48269104D02*
X29619047Y-48411961D01*
X29619047Y-48411961D02*
X29523809Y-48507200D01*
X29523809Y-48507200D02*
X29380952Y-48554819D01*
X29380952Y-48554819D02*
X29285714Y-48554819D01*
X30571428Y-47888152D02*
X30571428Y-48554819D01*
X30333333Y-47507200D02*
X30095238Y-48221485D01*
X30095238Y-48221485D02*
X30714285Y-48221485D01*
X44238095Y-23824819D02*
X44238095Y-24634342D01*
X44238095Y-24634342D02*
X44285714Y-24729580D01*
X44285714Y-24729580D02*
X44333333Y-24777200D01*
X44333333Y-24777200D02*
X44428571Y-24824819D01*
X44428571Y-24824819D02*
X44619047Y-24824819D01*
X44619047Y-24824819D02*
X44714285Y-24777200D01*
X44714285Y-24777200D02*
X44761904Y-24729580D01*
X44761904Y-24729580D02*
X44809523Y-24634342D01*
X44809523Y-24634342D02*
X44809523Y-23824819D01*
X45809523Y-24824819D02*
X45238095Y-24824819D01*
X45523809Y-24824819D02*
X45523809Y-23824819D01*
X45523809Y-23824819D02*
X45428571Y-23967676D01*
X45428571Y-23967676D02*
X45333333Y-24062914D01*
X45333333Y-24062914D02*
X45238095Y-24110533D01*
X15666666Y-47554819D02*
X15666666Y-48269104D01*
X15666666Y-48269104D02*
X15619047Y-48411961D01*
X15619047Y-48411961D02*
X15523809Y-48507200D01*
X15523809Y-48507200D02*
X15380952Y-48554819D01*
X15380952Y-48554819D02*
X15285714Y-48554819D01*
X16047619Y-47554819D02*
X16666666Y-47554819D01*
X16666666Y-47554819D02*
X16333333Y-47935771D01*
X16333333Y-47935771D02*
X16476190Y-47935771D01*
X16476190Y-47935771D02*
X16571428Y-47983390D01*
X16571428Y-47983390D02*
X16619047Y-48031009D01*
X16619047Y-48031009D02*
X16666666Y-48126247D01*
X16666666Y-48126247D02*
X16666666Y-48364342D01*
X16666666Y-48364342D02*
X16619047Y-48459580D01*
X16619047Y-48459580D02*
X16571428Y-48507200D01*
X16571428Y-48507200D02*
X16476190Y-48554819D01*
X16476190Y-48554819D02*
X16190476Y-48554819D01*
X16190476Y-48554819D02*
X16095238Y-48507200D01*
X16095238Y-48507200D02*
X16047619Y-48459580D01*
X51666666Y-48154819D02*
X51666666Y-48869104D01*
X51666666Y-48869104D02*
X51619047Y-49011961D01*
X51619047Y-49011961D02*
X51523809Y-49107200D01*
X51523809Y-49107200D02*
X51380952Y-49154819D01*
X51380952Y-49154819D02*
X51285714Y-49154819D01*
X52619047Y-48154819D02*
X52142857Y-48154819D01*
X52142857Y-48154819D02*
X52095238Y-48631009D01*
X52095238Y-48631009D02*
X52142857Y-48583390D01*
X52142857Y-48583390D02*
X52238095Y-48535771D01*
X52238095Y-48535771D02*
X52476190Y-48535771D01*
X52476190Y-48535771D02*
X52571428Y-48583390D01*
X52571428Y-48583390D02*
X52619047Y-48631009D01*
X52619047Y-48631009D02*
X52666666Y-48726247D01*
X52666666Y-48726247D02*
X52666666Y-48964342D01*
X52666666Y-48964342D02*
X52619047Y-49059580D01*
X52619047Y-49059580D02*
X52571428Y-49107200D01*
X52571428Y-49107200D02*
X52476190Y-49154819D01*
X52476190Y-49154819D02*
X52238095Y-49154819D01*
X52238095Y-49154819D02*
X52142857Y-49107200D01*
X52142857Y-49107200D02*
X52095238Y-49059580D01*
X48833333Y-28929580D02*
X48785714Y-28977200D01*
X48785714Y-28977200D02*
X48642857Y-29024819D01*
X48642857Y-29024819D02*
X48547619Y-29024819D01*
X48547619Y-29024819D02*
X48404762Y-28977200D01*
X48404762Y-28977200D02*
X48309524Y-28881961D01*
X48309524Y-28881961D02*
X48261905Y-28786723D01*
X48261905Y-28786723D02*
X48214286Y-28596247D01*
X48214286Y-28596247D02*
X48214286Y-28453390D01*
X48214286Y-28453390D02*
X48261905Y-28262914D01*
X48261905Y-28262914D02*
X48309524Y-28167676D01*
X48309524Y-28167676D02*
X48404762Y-28072438D01*
X48404762Y-28072438D02*
X48547619Y-28024819D01*
X48547619Y-28024819D02*
X48642857Y-28024819D01*
X48642857Y-28024819D02*
X48785714Y-28072438D01*
X48785714Y-28072438D02*
X48833333Y-28120057D01*
X49214286Y-28120057D02*
X49261905Y-28072438D01*
X49261905Y-28072438D02*
X49357143Y-28024819D01*
X49357143Y-28024819D02*
X49595238Y-28024819D01*
X49595238Y-28024819D02*
X49690476Y-28072438D01*
X49690476Y-28072438D02*
X49738095Y-28120057D01*
X49738095Y-28120057D02*
X49785714Y-28215295D01*
X49785714Y-28215295D02*
X49785714Y-28310533D01*
X49785714Y-28310533D02*
X49738095Y-28453390D01*
X49738095Y-28453390D02*
X49166667Y-29024819D01*
X49166667Y-29024819D02*
X49785714Y-29024819D01*
X16833333Y-28929580D02*
X16785714Y-28977200D01*
X16785714Y-28977200D02*
X16642857Y-29024819D01*
X16642857Y-29024819D02*
X16547619Y-29024819D01*
X16547619Y-29024819D02*
X16404762Y-28977200D01*
X16404762Y-28977200D02*
X16309524Y-28881961D01*
X16309524Y-28881961D02*
X16261905Y-28786723D01*
X16261905Y-28786723D02*
X16214286Y-28596247D01*
X16214286Y-28596247D02*
X16214286Y-28453390D01*
X16214286Y-28453390D02*
X16261905Y-28262914D01*
X16261905Y-28262914D02*
X16309524Y-28167676D01*
X16309524Y-28167676D02*
X16404762Y-28072438D01*
X16404762Y-28072438D02*
X16547619Y-28024819D01*
X16547619Y-28024819D02*
X16642857Y-28024819D01*
X16642857Y-28024819D02*
X16785714Y-28072438D01*
X16785714Y-28072438D02*
X16833333Y-28120057D01*
X17738095Y-28024819D02*
X17261905Y-28024819D01*
X17261905Y-28024819D02*
X17214286Y-28501009D01*
X17214286Y-28501009D02*
X17261905Y-28453390D01*
X17261905Y-28453390D02*
X17357143Y-28405771D01*
X17357143Y-28405771D02*
X17595238Y-28405771D01*
X17595238Y-28405771D02*
X17690476Y-28453390D01*
X17690476Y-28453390D02*
X17738095Y-28501009D01*
X17738095Y-28501009D02*
X17785714Y-28596247D01*
X17785714Y-28596247D02*
X17785714Y-28834342D01*
X17785714Y-28834342D02*
X17738095Y-28929580D01*
X17738095Y-28929580D02*
X17690476Y-28977200D01*
X17690476Y-28977200D02*
X17595238Y-29024819D01*
X17595238Y-29024819D02*
X17357143Y-29024819D01*
X17357143Y-29024819D02*
X17261905Y-28977200D01*
X17261905Y-28977200D02*
X17214286Y-28929580D01*
X60738095Y-49304819D02*
X60738095Y-48304819D01*
X60738095Y-48781009D02*
X61309523Y-48781009D01*
X61309523Y-49304819D02*
X61309523Y-48304819D01*
X62214285Y-48638152D02*
X62214285Y-49304819D01*
X61976190Y-48257200D02*
X61738095Y-48971485D01*
X61738095Y-48971485D02*
X62357142Y-48971485D01*
X12238095Y-26054819D02*
X12238095Y-26864342D01*
X12238095Y-26864342D02*
X12285714Y-26959580D01*
X12285714Y-26959580D02*
X12333333Y-27007200D01*
X12333333Y-27007200D02*
X12428571Y-27054819D01*
X12428571Y-27054819D02*
X12619047Y-27054819D01*
X12619047Y-27054819D02*
X12714285Y-27007200D01*
X12714285Y-27007200D02*
X12761904Y-26959580D01*
X12761904Y-26959580D02*
X12809523Y-26864342D01*
X12809523Y-26864342D02*
X12809523Y-26054819D01*
X13714285Y-26388152D02*
X13714285Y-27054819D01*
X13476190Y-26007200D02*
X13238095Y-26721485D01*
X13238095Y-26721485D02*
X13857142Y-26721485D01*
X19833333Y-26024819D02*
X19500000Y-25548628D01*
X19261905Y-26024819D02*
X19261905Y-25024819D01*
X19261905Y-25024819D02*
X19642857Y-25024819D01*
X19642857Y-25024819D02*
X19738095Y-25072438D01*
X19738095Y-25072438D02*
X19785714Y-25120057D01*
X19785714Y-25120057D02*
X19833333Y-25215295D01*
X19833333Y-25215295D02*
X19833333Y-25358152D01*
X19833333Y-25358152D02*
X19785714Y-25453390D01*
X19785714Y-25453390D02*
X19738095Y-25501009D01*
X19738095Y-25501009D02*
X19642857Y-25548628D01*
X19642857Y-25548628D02*
X19261905Y-25548628D01*
X20166667Y-25024819D02*
X20785714Y-25024819D01*
X20785714Y-25024819D02*
X20452381Y-25405771D01*
X20452381Y-25405771D02*
X20595238Y-25405771D01*
X20595238Y-25405771D02*
X20690476Y-25453390D01*
X20690476Y-25453390D02*
X20738095Y-25501009D01*
X20738095Y-25501009D02*
X20785714Y-25596247D01*
X20785714Y-25596247D02*
X20785714Y-25834342D01*
X20785714Y-25834342D02*
X20738095Y-25929580D01*
X20738095Y-25929580D02*
X20690476Y-25977200D01*
X20690476Y-25977200D02*
X20595238Y-26024819D01*
X20595238Y-26024819D02*
X20309524Y-26024819D01*
X20309524Y-26024819D02*
X20214286Y-25977200D01*
X20214286Y-25977200D02*
X20166667Y-25929580D01*
X19833333Y-19024819D02*
X19500000Y-18548628D01*
X19261905Y-19024819D02*
X19261905Y-18024819D01*
X19261905Y-18024819D02*
X19642857Y-18024819D01*
X19642857Y-18024819D02*
X19738095Y-18072438D01*
X19738095Y-18072438D02*
X19785714Y-18120057D01*
X19785714Y-18120057D02*
X19833333Y-18215295D01*
X19833333Y-18215295D02*
X19833333Y-18358152D01*
X19833333Y-18358152D02*
X19785714Y-18453390D01*
X19785714Y-18453390D02*
X19738095Y-18501009D01*
X19738095Y-18501009D02*
X19642857Y-18548628D01*
X19642857Y-18548628D02*
X19261905Y-18548628D01*
X20690476Y-18024819D02*
X20500000Y-18024819D01*
X20500000Y-18024819D02*
X20404762Y-18072438D01*
X20404762Y-18072438D02*
X20357143Y-18120057D01*
X20357143Y-18120057D02*
X20261905Y-18262914D01*
X20261905Y-18262914D02*
X20214286Y-18453390D01*
X20214286Y-18453390D02*
X20214286Y-18834342D01*
X20214286Y-18834342D02*
X20261905Y-18929580D01*
X20261905Y-18929580D02*
X20309524Y-18977200D01*
X20309524Y-18977200D02*
X20404762Y-19024819D01*
X20404762Y-19024819D02*
X20595238Y-19024819D01*
X20595238Y-19024819D02*
X20690476Y-18977200D01*
X20690476Y-18977200D02*
X20738095Y-18929580D01*
X20738095Y-18929580D02*
X20785714Y-18834342D01*
X20785714Y-18834342D02*
X20785714Y-18596247D01*
X20785714Y-18596247D02*
X20738095Y-18501009D01*
X20738095Y-18501009D02*
X20690476Y-18453390D01*
X20690476Y-18453390D02*
X20595238Y-18405771D01*
X20595238Y-18405771D02*
X20404762Y-18405771D01*
X20404762Y-18405771D02*
X20309524Y-18453390D01*
X20309524Y-18453390D02*
X20261905Y-18501009D01*
X20261905Y-18501009D02*
X20214286Y-18596247D01*
X2738095Y-304819D02*
X2738095Y695180D01*
X2738095Y218990D02*
X3309523Y218990D01*
X3309523Y-304819D02*
X3309523Y695180D01*
X4309523Y-304819D02*
X3738095Y-304819D01*
X4023809Y-304819D02*
X4023809Y695180D01*
X4023809Y695180D02*
X3928571Y552323D01*
X3928571Y552323D02*
X3833333Y457085D01*
X3833333Y457085D02*
X3738095Y409466D01*
X41833333Y-23024819D02*
X41500000Y-22548628D01*
X41261905Y-23024819D02*
X41261905Y-22024819D01*
X41261905Y-22024819D02*
X41642857Y-22024819D01*
X41642857Y-22024819D02*
X41738095Y-22072438D01*
X41738095Y-22072438D02*
X41785714Y-22120057D01*
X41785714Y-22120057D02*
X41833333Y-22215295D01*
X41833333Y-22215295D02*
X41833333Y-22358152D01*
X41833333Y-22358152D02*
X41785714Y-22453390D01*
X41785714Y-22453390D02*
X41738095Y-22501009D01*
X41738095Y-22501009D02*
X41642857Y-22548628D01*
X41642857Y-22548628D02*
X41261905Y-22548628D01*
X42214286Y-22120057D02*
X42261905Y-22072438D01*
X42261905Y-22072438D02*
X42357143Y-22024819D01*
X42357143Y-22024819D02*
X42595238Y-22024819D01*
X42595238Y-22024819D02*
X42690476Y-22072438D01*
X42690476Y-22072438D02*
X42738095Y-22120057D01*
X42738095Y-22120057D02*
X42785714Y-22215295D01*
X42785714Y-22215295D02*
X42785714Y-22310533D01*
X42785714Y-22310533D02*
X42738095Y-22453390D01*
X42738095Y-22453390D02*
X42166667Y-23024819D01*
X42166667Y-23024819D02*
X42785714Y-23024819D01*
X32904761Y-18150057D02*
X32809523Y-18102438D01*
X32809523Y-18102438D02*
X32714285Y-18007200D01*
X32714285Y-18007200D02*
X32571428Y-17864342D01*
X32571428Y-17864342D02*
X32476190Y-17816723D01*
X32476190Y-17816723D02*
X32380952Y-17816723D01*
X32428571Y-18054819D02*
X32333333Y-18007200D01*
X32333333Y-18007200D02*
X32238095Y-17911961D01*
X32238095Y-17911961D02*
X32190476Y-17721485D01*
X32190476Y-17721485D02*
X32190476Y-17388152D01*
X32190476Y-17388152D02*
X32238095Y-17197676D01*
X32238095Y-17197676D02*
X32333333Y-17102438D01*
X32333333Y-17102438D02*
X32428571Y-17054819D01*
X32428571Y-17054819D02*
X32619047Y-17054819D01*
X32619047Y-17054819D02*
X32714285Y-17102438D01*
X32714285Y-17102438D02*
X32809523Y-17197676D01*
X32809523Y-17197676D02*
X32857142Y-17388152D01*
X32857142Y-17388152D02*
X32857142Y-17721485D01*
X32857142Y-17721485D02*
X32809523Y-17911961D01*
X32809523Y-17911961D02*
X32714285Y-18007200D01*
X32714285Y-18007200D02*
X32619047Y-18054819D01*
X32619047Y-18054819D02*
X32428571Y-18054819D01*
X33809523Y-18054819D02*
X33238095Y-18054819D01*
X33523809Y-18054819D02*
X33523809Y-17054819D01*
X33523809Y-17054819D02*
X33428571Y-17197676D01*
X33428571Y-17197676D02*
X33333333Y-17292914D01*
X33333333Y-17292914D02*
X33238095Y-17340533D01*
X16833333Y-38929580D02*
X16785714Y-38977200D01*
X16785714Y-38977200D02*
X16642857Y-39024819D01*
X16642857Y-39024819D02*
X16547619Y-39024819D01*
X16547619Y-39024819D02*
X16404762Y-38977200D01*
X16404762Y-38977200D02*
X16309524Y-38881961D01*
X16309524Y-38881961D02*
X16261905Y-38786723D01*
X16261905Y-38786723D02*
X16214286Y-38596247D01*
X16214286Y-38596247D02*
X16214286Y-38453390D01*
X16214286Y-38453390D02*
X16261905Y-38262914D01*
X16261905Y-38262914D02*
X16309524Y-38167676D01*
X16309524Y-38167676D02*
X16404762Y-38072438D01*
X16404762Y-38072438D02*
X16547619Y-38024819D01*
X16547619Y-38024819D02*
X16642857Y-38024819D01*
X16642857Y-38024819D02*
X16785714Y-38072438D01*
X16785714Y-38072438D02*
X16833333Y-38120057D01*
X17690476Y-38358152D02*
X17690476Y-39024819D01*
X17452381Y-37977200D02*
X17214286Y-38691485D01*
X17214286Y-38691485D02*
X17833333Y-38691485D01*
X41833333Y-21024819D02*
X41500000Y-20548628D01*
X41261905Y-21024819D02*
X41261905Y-20024819D01*
X41261905Y-20024819D02*
X41642857Y-20024819D01*
X41642857Y-20024819D02*
X41738095Y-20072438D01*
X41738095Y-20072438D02*
X41785714Y-20120057D01*
X41785714Y-20120057D02*
X41833333Y-20215295D01*
X41833333Y-20215295D02*
X41833333Y-20358152D01*
X41833333Y-20358152D02*
X41785714Y-20453390D01*
X41785714Y-20453390D02*
X41738095Y-20501009D01*
X41738095Y-20501009D02*
X41642857Y-20548628D01*
X41642857Y-20548628D02*
X41261905Y-20548628D01*
X42785714Y-21024819D02*
X42214286Y-21024819D01*
X42500000Y-21024819D02*
X42500000Y-20024819D01*
X42500000Y-20024819D02*
X42404762Y-20167676D01*
X42404762Y-20167676D02*
X42309524Y-20262914D01*
X42309524Y-20262914D02*
X42214286Y-20310533D01*
X4184819Y-10563333D02*
X4899104Y-10563333D01*
X4899104Y-10563333D02*
X5041961Y-10610952D01*
X5041961Y-10610952D02*
X5137200Y-10706190D01*
X5137200Y-10706190D02*
X5184819Y-10849047D01*
X5184819Y-10849047D02*
X5184819Y-10944285D01*
X4280057Y-10134761D02*
X4232438Y-10087142D01*
X4232438Y-10087142D02*
X4184819Y-9991904D01*
X4184819Y-9991904D02*
X4184819Y-9753809D01*
X4184819Y-9753809D02*
X4232438Y-9658571D01*
X4232438Y-9658571D02*
X4280057Y-9610952D01*
X4280057Y-9610952D02*
X4375295Y-9563333D01*
X4375295Y-9563333D02*
X4470533Y-9563333D01*
X4470533Y-9563333D02*
X4613390Y-9610952D01*
X4613390Y-9610952D02*
X5184819Y-10182380D01*
X5184819Y-10182380D02*
X5184819Y-9563333D01*
X47833333Y-40929580D02*
X47785714Y-40977200D01*
X47785714Y-40977200D02*
X47642857Y-41024819D01*
X47642857Y-41024819D02*
X47547619Y-41024819D01*
X47547619Y-41024819D02*
X47404762Y-40977200D01*
X47404762Y-40977200D02*
X47309524Y-40881961D01*
X47309524Y-40881961D02*
X47261905Y-40786723D01*
X47261905Y-40786723D02*
X47214286Y-40596247D01*
X47214286Y-40596247D02*
X47214286Y-40453390D01*
X47214286Y-40453390D02*
X47261905Y-40262914D01*
X47261905Y-40262914D02*
X47309524Y-40167676D01*
X47309524Y-40167676D02*
X47404762Y-40072438D01*
X47404762Y-40072438D02*
X47547619Y-40024819D01*
X47547619Y-40024819D02*
X47642857Y-40024819D01*
X47642857Y-40024819D02*
X47785714Y-40072438D01*
X47785714Y-40072438D02*
X47833333Y-40120057D01*
X48166667Y-40024819D02*
X48785714Y-40024819D01*
X48785714Y-40024819D02*
X48452381Y-40405771D01*
X48452381Y-40405771D02*
X48595238Y-40405771D01*
X48595238Y-40405771D02*
X48690476Y-40453390D01*
X48690476Y-40453390D02*
X48738095Y-40501009D01*
X48738095Y-40501009D02*
X48785714Y-40596247D01*
X48785714Y-40596247D02*
X48785714Y-40834342D01*
X48785714Y-40834342D02*
X48738095Y-40929580D01*
X48738095Y-40929580D02*
X48690476Y-40977200D01*
X48690476Y-40977200D02*
X48595238Y-41024819D01*
X48595238Y-41024819D02*
X48309524Y-41024819D01*
X48309524Y-41024819D02*
X48214286Y-40977200D01*
X48214286Y-40977200D02*
X48166667Y-40929580D01*
X12238095Y-37004819D02*
X12238095Y-37814342D01*
X12238095Y-37814342D02*
X12285714Y-37909580D01*
X12285714Y-37909580D02*
X12333333Y-37957200D01*
X12333333Y-37957200D02*
X12428571Y-38004819D01*
X12428571Y-38004819D02*
X12619047Y-38004819D01*
X12619047Y-38004819D02*
X12714285Y-37957200D01*
X12714285Y-37957200D02*
X12761904Y-37909580D01*
X12761904Y-37909580D02*
X12809523Y-37814342D01*
X12809523Y-37814342D02*
X12809523Y-37004819D01*
X13190476Y-37004819D02*
X13809523Y-37004819D01*
X13809523Y-37004819D02*
X13476190Y-37385771D01*
X13476190Y-37385771D02*
X13619047Y-37385771D01*
X13619047Y-37385771D02*
X13714285Y-37433390D01*
X13714285Y-37433390D02*
X13761904Y-37481009D01*
X13761904Y-37481009D02*
X13809523Y-37576247D01*
X13809523Y-37576247D02*
X13809523Y-37814342D01*
X13809523Y-37814342D02*
X13761904Y-37909580D01*
X13761904Y-37909580D02*
X13714285Y-37957200D01*
X13714285Y-37957200D02*
X13619047Y-38004819D01*
X13619047Y-38004819D02*
X13333333Y-38004819D01*
X13333333Y-38004819D02*
X13238095Y-37957200D01*
X13238095Y-37957200D02*
X13190476Y-37909580D01*
D11*
%TO.C,R4*%
X19762742Y-28477500D02*
X20237258Y-28477500D01*
X19762742Y-29522500D02*
X20237258Y-29522500D01*
D10*
%TO.C,C1*%
X50600000Y-23600000D02*
X57400000Y-23600000D01*
X50600000Y-30400000D02*
X50600000Y-23600000D01*
X57400000Y-23600000D02*
X57400000Y-30400000D01*
X57400000Y-30400000D02*
X50600000Y-30400000D01*
D11*
%TO.C,R5*%
X36762742Y-19477500D02*
X37237258Y-19477500D01*
X36762742Y-20522500D02*
X37237258Y-20522500D01*
%TO.C,R7*%
X25762742Y-19477500D02*
X26237258Y-19477500D01*
X25762742Y-20522500D02*
X26237258Y-20522500D01*
D12*
%TO.C,U2*%
X51650000Y-43350000D02*
X51650000Y-43200000D01*
X51650000Y-43360000D02*
X51800000Y-43360000D01*
X54200000Y-40650000D02*
X54350000Y-40650000D01*
X54350000Y-40650000D02*
X54350000Y-40800000D01*
X54350000Y-43350000D02*
X54200000Y-43350000D01*
X54350000Y-43350000D02*
X54350000Y-43200000D01*
D11*
X51650000Y-40650000D02*
X51290000Y-40650000D01*
X51650000Y-40290000D01*
X51650000Y-40650000D01*
G36*
X51650000Y-40650000D02*
G01*
X51290000Y-40650000D01*
X51650000Y-40290000D01*
X51650000Y-40650000D01*
G37*
%TO.C,J1*%
X5780000Y-2170000D02*
X7110000Y-2170000D01*
X5780000Y-3500000D02*
X5780000Y-2170000D01*
X5780000Y-4770000D02*
X8380000Y-4770000D01*
X5780000Y-7370000D02*
X5780000Y-4770000D01*
X5780000Y-7370000D02*
X56700000Y-7370000D01*
X8380000Y-2170000D02*
X56700000Y-2170000D01*
X8380000Y-4770000D02*
X8380000Y-2170000D01*
X56700000Y-7370000D02*
X56700000Y-2170000D01*
%TO.C,J4*%
X24640000Y-48890000D02*
X24640000Y-50140000D01*
X24940000Y-49190000D02*
X24940000Y-53910000D01*
X24940000Y-50500000D02*
X25550000Y-50500000D01*
X24940000Y-51800000D02*
X25550000Y-51800000D01*
X24940000Y-53910000D02*
X35060000Y-53910000D01*
X25550000Y-49800000D02*
X25550000Y-53300000D01*
X25550000Y-53300000D02*
X34450000Y-53300000D01*
X25890000Y-48890000D02*
X24640000Y-48890000D01*
X26400000Y-48990000D02*
X26400000Y-49190000D01*
X26700000Y-48990000D02*
X26400000Y-48990000D01*
X26700000Y-49090000D02*
X26400000Y-49090000D01*
X26700000Y-49190000D02*
X26700000Y-48990000D01*
X27500000Y-49190000D02*
X27500000Y-49800000D01*
X27500000Y-49800000D02*
X25550000Y-49800000D01*
X27900000Y-52800000D02*
X28100000Y-52800000D01*
X27900000Y-53300000D02*
X27900000Y-52800000D01*
X28000000Y-53300000D02*
X28000000Y-52800000D01*
X28100000Y-52800000D02*
X28100000Y-53300000D01*
X29900000Y-52800000D02*
X30100000Y-52800000D01*
X29900000Y-53300000D02*
X29900000Y-52800000D01*
X30000000Y-53300000D02*
X30000000Y-52800000D01*
X30100000Y-52800000D02*
X30100000Y-53300000D01*
X31900000Y-52800000D02*
X32100000Y-52800000D01*
X31900000Y-53300000D02*
X31900000Y-52800000D01*
X32000000Y-53300000D02*
X32000000Y-52800000D01*
X32100000Y-52800000D02*
X32100000Y-53300000D01*
X32500000Y-49800000D02*
X32500000Y-49190000D01*
X34450000Y-49800000D02*
X32500000Y-49800000D01*
X34450000Y-53300000D02*
X34450000Y-49800000D01*
X35060000Y-49190000D02*
X24940000Y-49190000D01*
X35060000Y-50500000D02*
X34450000Y-50500000D01*
X35060000Y-51800000D02*
X34450000Y-51800000D01*
X35060000Y-53910000D02*
X35060000Y-49190000D01*
%TO.C,U1*%
X44250000Y-25065000D02*
X45750000Y-25065000D01*
X44250000Y-28935000D02*
X45750000Y-28935000D01*
X43730000Y-25180000D02*
X43450000Y-25180000D01*
X43730000Y-24900000D01*
X43730000Y-25180000D01*
G36*
X43730000Y-25180000D02*
G01*
X43450000Y-25180000D01*
X43730000Y-24900000D01*
X43730000Y-25180000D01*
G37*
%TO.C,J3*%
X10640000Y-48890000D02*
X10640000Y-50140000D01*
X10940000Y-49190000D02*
X10940000Y-53910000D01*
X10940000Y-50500000D02*
X11550000Y-50500000D01*
X10940000Y-51800000D02*
X11550000Y-51800000D01*
X10940000Y-53910000D02*
X21060000Y-53910000D01*
X11550000Y-49800000D02*
X11550000Y-53300000D01*
X11550000Y-53300000D02*
X20450000Y-53300000D01*
X11890000Y-48890000D02*
X10640000Y-48890000D01*
X12400000Y-48990000D02*
X12400000Y-49190000D01*
X12700000Y-48990000D02*
X12400000Y-48990000D01*
X12700000Y-49090000D02*
X12400000Y-49090000D01*
X12700000Y-49190000D02*
X12700000Y-48990000D01*
X13500000Y-49190000D02*
X13500000Y-49800000D01*
X13500000Y-49800000D02*
X11550000Y-49800000D01*
X13900000Y-52800000D02*
X14100000Y-52800000D01*
X13900000Y-53300000D02*
X13900000Y-52800000D01*
X14000000Y-53300000D02*
X14000000Y-52800000D01*
X14100000Y-52800000D02*
X14100000Y-53300000D01*
X15900000Y-52800000D02*
X16100000Y-52800000D01*
X15900000Y-53300000D02*
X15900000Y-52800000D01*
X16000000Y-53300000D02*
X16000000Y-52800000D01*
X16100000Y-52800000D02*
X16100000Y-53300000D01*
X17900000Y-52800000D02*
X18100000Y-52800000D01*
X17900000Y-53300000D02*
X17900000Y-52800000D01*
X18000000Y-53300000D02*
X18000000Y-52800000D01*
X18100000Y-52800000D02*
X18100000Y-53300000D01*
X18500000Y-49800000D02*
X18500000Y-49190000D01*
X20450000Y-49800000D02*
X18500000Y-49800000D01*
X20450000Y-53300000D02*
X20450000Y-49800000D01*
X21060000Y-49190000D02*
X10940000Y-49190000D01*
X21060000Y-50500000D02*
X20450000Y-50500000D01*
X21060000Y-51800000D02*
X20450000Y-51800000D01*
X21060000Y-53910000D02*
X21060000Y-49190000D01*
%TO.C,J5*%
X47890000Y-51960000D02*
X47890000Y-53110000D01*
X47890000Y-53110000D02*
X48940000Y-53110000D01*
X48940000Y-53110000D02*
X48940000Y-54100000D01*
X49060000Y-49990000D02*
X54940000Y-49990000D01*
X56110000Y-51960000D02*
X56110000Y-53110000D01*
X56110000Y-53110000D02*
X55060000Y-53110000D01*
%TO.C,C2*%
X48859420Y-29490000D02*
X49140580Y-29490000D01*
X48859420Y-30510000D02*
X49140580Y-30510000D01*
%TO.C,C5*%
X16859420Y-29490000D02*
X17140580Y-29490000D01*
X16859420Y-30510000D02*
X17140580Y-30510000D01*
%TO.C,U4*%
X13000000Y-27440000D02*
X11050000Y-27440000D01*
X13000000Y-27440000D02*
X14950000Y-27440000D01*
X13000000Y-32560000D02*
X11050000Y-32560000D01*
X13000000Y-32560000D02*
X14950000Y-32560000D01*
X10300000Y-27535000D02*
X10060000Y-27205000D01*
X10540000Y-27205000D01*
X10300000Y-27535000D01*
G36*
X10300000Y-27535000D02*
G01*
X10060000Y-27205000D01*
X10540000Y-27205000D01*
X10300000Y-27535000D01*
G37*
%TO.C,R3*%
X19762742Y-26477500D02*
X20237258Y-26477500D01*
X19762742Y-27522500D02*
X20237258Y-27522500D01*
%TO.C,R6*%
X19762742Y-19477500D02*
X20237258Y-19477500D01*
X19762742Y-20522500D02*
X20237258Y-20522500D01*
%TO.C,R2*%
X41762742Y-23477500D02*
X42237258Y-23477500D01*
X41762742Y-24522500D02*
X42237258Y-24522500D01*
%TO.C,Q1*%
X33000000Y-18440000D02*
X32350000Y-18440000D01*
X33000000Y-18440000D02*
X33650000Y-18440000D01*
X33000000Y-21560000D02*
X32350000Y-21560000D01*
X33000000Y-21560000D02*
X33650000Y-21560000D01*
X31837500Y-18490000D02*
X31597500Y-18160000D01*
X32077500Y-18160000D01*
X31837500Y-18490000D01*
G36*
X31837500Y-18490000D02*
G01*
X31597500Y-18160000D01*
X32077500Y-18160000D01*
X31837500Y-18490000D01*
G37*
%TO.C,C4*%
X16859420Y-39490000D02*
X17140580Y-39490000D01*
X16859420Y-40510000D02*
X17140580Y-40510000D01*
%TO.C,R1*%
X41762742Y-21477500D02*
X42237258Y-21477500D01*
X41762742Y-22522500D02*
X42237258Y-22522500D01*
%TO.C,J2*%
X5730000Y-7580000D02*
X31350000Y-7580000D01*
X5730000Y-10230000D02*
X5730000Y-7580000D01*
X5730000Y-12880000D02*
X5730000Y-11500000D01*
X7110000Y-12880000D02*
X5730000Y-12880000D01*
X8380000Y-10230000D02*
X5730000Y-10230000D01*
X8380000Y-12880000D02*
X8380000Y-10230000D01*
X8380000Y-12880000D02*
X31350000Y-12880000D01*
X31350000Y-12880000D02*
X31350000Y-7580000D01*
%TO.C,C3*%
X47859420Y-41490000D02*
X48140580Y-41490000D01*
X47859420Y-42510000D02*
X48140580Y-42510000D01*
%TO.C,U3*%
X13000000Y-38390000D02*
X11500000Y-38390000D01*
X13000000Y-38390000D02*
X14500000Y-38390000D01*
X13000000Y-41610000D02*
X11500000Y-41610000D01*
X13000000Y-41610000D02*
X14500000Y-41610000D01*
X10787500Y-38565000D02*
X10547500Y-38235000D01*
X11027500Y-38235000D01*
X10787500Y-38565000D01*
G36*
X10787500Y-38565000D02*
G01*
X10547500Y-38235000D01*
X11027500Y-38235000D01*
X10787500Y-38565000D01*
G37*
%TD*%
M02*
