M48
; DRILL file {KiCad 9.0.2+dfsg-1} date 2026-04-19T10:01:21-0700
; FORMAT={-:-/ absolute / metric / decimal}
; #@! TF.CreationDate,2026-04-19T10:01:21-07:00
; #@! TF.GenerationSoftware,Kicad,Pcbnew,9.0.2+dfsg-1
; #@! TF.FileFunction,MixedPlating,1,2
FMAT,2
METRIC
; #@! TA.AperFunction,Plated,PTH,ViaDrill
T1C0.300
; #@! TA.AperFunction,Plated,PTH,ComponentDrill
T2C0.750
; #@! TA.AperFunction,Plated,PTH,ComponentDrill
T3C1.000
; #@! TA.AperFunction,NonPlated,NPTH,ComponentDrill
T4C2.700
%
G90
G05
T1
X10.273Y-27.276
X10.273Y-43.164
X13.027Y-40.186
X15.008Y-20.841
X16.2Y-43.171
X17.066Y-30.219
X19.982Y-41.008
X20.736Y-30.19
X22.125Y-22.355
X24.978Y-18.664
X25.197Y-9.889
X28.054Y-25.117
X28.055Y-31.233
X30.32Y-9.264
X31.019Y-22.513
X32.397Y-9.5
X33.319Y-18.752
X33.767Y-14.284
X36.286Y-17.754
X37.825Y-19.019
X40.818Y-25.368
X41.097Y-26.561
X42.0Y-21.243
X42.874Y-34.113
X43.179Y-13.643
X45.209Y-29.182
X46.63Y-28.45
X48.804Y-31.601
X48.804Y-40.109
X49.468Y-43.078
X50.395Y-52.044
X52.58Y-42.258
X53.787Y-39.71
X53.888Y-42.228
T2
X13.0Y-51.0
X15.0Y-51.0
X17.0Y-51.0
X19.0Y-51.0
X27.0Y-51.0
X29.0Y-51.0
X31.0Y-51.0
X33.0Y-51.0
T3
X7.11Y-3.5
X7.11Y-6.04
X7.11Y-12.46
X7.11Y-15.0
X9.65Y-3.5
X9.65Y-6.04
X9.65Y-12.46
X9.65Y-15.0
X12.19Y-3.5
X12.19Y-6.04
X12.19Y-12.46
X12.19Y-15.0
X14.73Y-3.5
X14.73Y-6.04
X14.73Y-12.46
X14.73Y-15.0
X17.27Y-3.5
X17.27Y-6.04
X17.27Y-12.46
X17.27Y-15.0
X19.81Y-3.5
X19.81Y-6.04
X19.81Y-12.46
X19.81Y-15.0
X22.35Y-3.5
X22.35Y-6.04
X22.35Y-12.46
X22.35Y-15.0
X24.89Y-3.5
X24.89Y-6.04
X24.89Y-12.46
X24.89Y-15.0
X27.43Y-3.5
X27.43Y-6.04
X27.43Y-12.46
X27.43Y-15.0
X29.97Y-3.5
X29.97Y-6.04
X29.97Y-12.46
X29.97Y-15.0
X32.51Y-3.5
X32.51Y-6.04
X35.05Y-3.5
X35.05Y-6.04
X37.59Y-3.5
X37.59Y-6.04
X40.13Y-3.5
X40.13Y-6.04
X42.67Y-3.5
X42.67Y-6.04
X45.21Y-3.5
X45.21Y-6.04
X47.75Y-3.5
X47.75Y-6.04
X50.29Y-3.5
X50.29Y-6.04
X52.83Y-3.5
X52.83Y-6.04
X55.37Y-3.5
X55.37Y-6.04
T4
X3.5Y-3.5
X3.5Y-52.5
X61.5Y-3.5
X61.5Y-52.5
M30
