M48
; DRILL file {KiCad 9.0.2+dfsg-1} date 2026-04-19T10:23:55-0700
; FORMAT={-:-/ absolute / metric / decimal}
; #@! TF.CreationDate,2026-04-19T10:23:55-07:00
; #@! TF.GenerationSoftware,Kicad,Pcbnew,9.0.2+dfsg-1
; #@! TF.FileFunction,MixedPlating,1,2
FMAT,2
METRIC
; #@! TA.AperFunction,Plated,PTH,ViaDrill
T1C0.300
; #@! TA.AperFunction,Plated,PTH,ComponentDrill
T2C0.750
; #@! TA.AperFunction,Plated,PTH,ComponentDrill
T3C1.000
; #@! TA.AperFunction,NonPlated,NPTH,ComponentDrill
T4C2.700
%
G90
G05
T1
X4.346Y-22.28
X10.098Y-17.002
X10.273Y-27.276
X10.273Y-43.164
X13.027Y-40.186
X13.661Y-25.616
X15.715Y-27.276
X16.2Y-43.171
X18.032Y-20.438
X18.466Y-21.762
X19.873Y-28.14
X19.873Y-41.077
X21.174Y-9.065
X22.128Y-34.218
X24.876Y-17.473
X25.316Y-31.233
X25.438Y-7.93
X27.587Y-17.043
X28.528Y-8.741
X31.957Y-24.883
X34.751Y-17.378
X37.203Y-16.853
X37.825Y-22.011
X39.139Y-18.514
X39.91Y-37.202
X42.054Y-25.616
X42.874Y-34.113
X43.362Y-26.723
X45.112Y-29.208
X46.538Y-2.747
X46.718Y-24.437
X47.009Y-40.901
X48.804Y-31.601
X48.804Y-40.109
X49.502Y-43.276
X50.841Y-51.59
X51.066Y-40.944
X52.423Y-43.969
X55.18Y-43.171
T2
X13.0Y-51.0
X15.0Y-51.0
X17.0Y-51.0
X19.0Y-51.0
X27.0Y-51.0
X29.0Y-51.0
X31.0Y-51.0
X33.0Y-51.0
T3
X7.11Y-3.5
X7.11Y-6.04
X7.11Y-12.46
X7.11Y-15.0
X9.65Y-3.5
X9.65Y-6.04
X9.65Y-12.46
X9.65Y-15.0
X12.19Y-3.5
X12.19Y-6.04
X12.19Y-12.46
X12.19Y-15.0
X14.73Y-3.5
X14.73Y-6.04
X14.73Y-12.46
X14.73Y-15.0
X17.27Y-3.5
X17.27Y-6.04
X17.27Y-12.46
X17.27Y-15.0
X19.81Y-3.5
X19.81Y-6.04
X19.81Y-12.46
X19.81Y-15.0
X22.35Y-3.5
X22.35Y-6.04
X22.35Y-12.46
X22.35Y-15.0
X24.89Y-3.5
X24.89Y-6.04
X24.89Y-12.46
X24.89Y-15.0
X27.43Y-3.5
X27.43Y-6.04
X27.43Y-12.46
X27.43Y-15.0
X29.97Y-3.5
X29.97Y-6.04
X29.97Y-12.46
X29.97Y-15.0
X32.51Y-3.5
X32.51Y-6.04
X35.05Y-3.5
X35.05Y-6.04
X37.59Y-3.5
X37.59Y-6.04
X40.13Y-3.5
X40.13Y-6.04
X42.67Y-3.5
X42.67Y-6.04
X45.21Y-3.5
X45.21Y-6.04
X47.75Y-3.5
X47.75Y-6.04
X50.29Y-3.5
X50.29Y-6.04
X52.83Y-3.5
X52.83Y-6.04
X55.37Y-3.5
X55.37Y-6.04
T4
X3.5Y-3.5
X3.5Y-52.5
X61.5Y-3.5
X61.5Y-52.5
M30
