%TF.GenerationSoftware,KiCad,Pcbnew,9.0.2+dfsg-1*%
%TF.CreationDate,2026-04-19T10:23:54-07:00*%
%TF.ProjectId,gx01-adapter-v2b,67783031-2d61-4646-9170-7465722d7632,rev?*%
%TF.SameCoordinates,Original*%
%TF.FileFunction,Copper,L2,Bot*%
%TF.FilePolarity,Positive*%
%FSLAX46Y46*%
G04 Gerber Fmt 4.6, Leading zero omitted, Abs format (unit mm)*
G04 Created by KiCad (PCBNEW 9.0.2+dfsg-1) date 2026-04-19 10:23:54*
%MOMM*%
%LPD*%
G01*
G04 APERTURE LIST*
G04 Aperture macros list*
%AMRoundRect*
0 Rectangle with rounded corners*
0 $1 Rounding radius*
0 $2 $3 $4 $5 $6 $7 $8 $9 X,Y pos of 4 corners*
0 Add a 4 corners polygon primitive as box body*
4,1,4,$2,$3,$4,$5,$6,$7,$8,$9,$2,$3,0*
0 Add four circle primitives for the rounded corners*
1,1,$1+$1,$2,$3*
1,1,$1+$1,$4,$5*
1,1,$1+$1,$6,$7*
1,1,$1+$1,$8,$9*
0 Add four rect primitives between the rounded corners*
20,1,$1+$1,$2,$3,$4,$5,0*
20,1,$1+$1,$4,$5,$6,$7,0*
20,1,$1+$1,$6,$7,$8,$9,0*
20,1,$1+$1,$8,$9,$2,$3,0*%
G04 Aperture macros list end*
%TA.AperFunction,ComponentPad*%
%ADD10RoundRect,0.250000X-0.350000X-0.625000X0.350000X-0.625000X0.350000X0.625000X-0.350000X0.625000X0*%
%TD*%
%TA.AperFunction,ComponentPad*%
%ADD11O,1.200000X1.750000*%
%TD*%
%TA.AperFunction,ComponentPad*%
%ADD12R,1.700000X1.700000*%
%TD*%
%TA.AperFunction,ComponentPad*%
%ADD13C,1.700000*%
%TD*%
%TA.AperFunction,ViaPad*%
%ADD14C,0.600000*%
%TD*%
%TA.AperFunction,Conductor*%
%ADD15C,0.200000*%
%TD*%
G04 APERTURE END LIST*
D10*
%TO.P,J3,1*%
%TO.N,GND*%
X13000000Y-51000000D03*
D11*
%TO.P,J3,2*%
%TO.N,+5V*%
X15000000Y-51000000D03*
%TO.P,J3,3*%
%TO.N,FAN1_TACH*%
X17000000Y-51000000D03*
%TO.P,J3,4*%
%TO.N,FAN_PWM*%
X19000000Y-51000000D03*
%TD*%
D10*
%TO.P,J4,1*%
%TO.N,GND*%
X27000000Y-51000000D03*
D11*
%TO.P,J4,2*%
%TO.N,+5V*%
X29000000Y-51000000D03*
%TO.P,J4,3*%
%TO.N,FAN2_TACH*%
X31000000Y-51000000D03*
%TO.P,J4,4*%
%TO.N,FAN_PWM*%
X33000000Y-51000000D03*
%TD*%
D12*
%TO.P,J2,1*%
%TO.N,GND*%
X7110000Y-15000000D03*
D13*
%TO.P,J2,2*%
%TO.N,+5V*%
X7110000Y-12460000D03*
%TO.P,J2,3*%
%TO.N,LCD_V0*%
X9650000Y-15000000D03*
%TO.P,J2,4*%
%TO.N,LCD_RS*%
X9650000Y-12460000D03*
%TO.P,J2,5*%
%TO.N,LCD_RW*%
X12190000Y-15000000D03*
%TO.P,J2,6*%
%TO.N,LCD_E*%
X12190000Y-12460000D03*
%TO.P,J2,7*%
%TO.N,LCD_DB0*%
X14730000Y-15000000D03*
%TO.P,J2,8*%
%TO.N,LCD_DB1*%
X14730000Y-12460000D03*
%TO.P,J2,9*%
%TO.N,LCD_DB2*%
X17270000Y-15000000D03*
%TO.P,J2,10*%
%TO.N,LCD_DB3*%
X17270000Y-12460000D03*
%TO.P,J2,11*%
%TO.N,LCD_DB4*%
X19810000Y-15000000D03*
%TO.P,J2,12*%
%TO.N,LCD_DB5*%
X19810000Y-12460000D03*
%TO.P,J2,13*%
%TO.N,LCD_DB6*%
X22350000Y-15000000D03*
%TO.P,J2,14*%
%TO.N,LCD_DB7*%
X22350000Y-12460000D03*
%TO.P,J2,15*%
%TO.N,LCD_CS1*%
X24890000Y-15000000D03*
%TO.P,J2,16*%
%TO.N,LCD_CS2*%
X24890000Y-12460000D03*
%TO.P,J2,17*%
%TO.N,LCD_RST*%
X27430000Y-15000000D03*
%TO.P,J2,18*%
%TO.N,LCD_VEE*%
X27430000Y-12460000D03*
%TO.P,J2,19*%
%TO.N,LCD_BLA*%
X29970000Y-15000000D03*
%TO.P,J2,20*%
%TO.N,LCD_BLK*%
X29970000Y-12460000D03*
%TD*%
D12*
%TO.P,J1,1*%
%TO.N,+3V3*%
X7110000Y-3500000D03*
D13*
%TO.P,J1,2*%
%TO.N,+5V*%
X7110000Y-6040000D03*
%TO.P,J1,3*%
%TO.N,SDA1*%
X9650000Y-3500000D03*
%TO.P,J1,4*%
%TO.N,+5V*%
X9650000Y-6040000D03*
%TO.P,J1,5*%
%TO.N,SCL1*%
X12190000Y-3500000D03*
%TO.P,J1,6*%
%TO.N,GND*%
X12190000Y-6040000D03*
%TO.P,J1,7*%
%TO.N,FPB_INT*%
X14730000Y-3500000D03*
%TO.P,J1,8*%
%TO.N,UART_TX*%
X14730000Y-6040000D03*
%TO.P,J1,9*%
%TO.N,GND*%
X17270000Y-3500000D03*
%TO.P,J1,10*%
%TO.N,UART_RX*%
X17270000Y-6040000D03*
%TO.P,J1,11*%
%TO.N,LCD_RS*%
X19810000Y-3500000D03*
%TO.P,J1,12*%
%TO.N,PPS*%
X19810000Y-6040000D03*
%TO.P,J1,13*%
%TO.N,LCD_RW*%
X22350000Y-3500000D03*
%TO.P,J1,14*%
%TO.N,GND*%
X22350000Y-6040000D03*
%TO.P,J1,15*%
%TO.N,LCD_E*%
X24890000Y-3500000D03*
%TO.P,J1,16*%
%TO.N,FAN2_TACH*%
X24890000Y-6040000D03*
%TO.P,J1,17*%
%TO.N,+3V3*%
X27430000Y-3500000D03*
%TO.P,J1,18*%
%TO.N,LCD_DB0*%
X27430000Y-6040000D03*
%TO.P,J1,19*%
%TO.N,LCD_DB1*%
X29970000Y-3500000D03*
%TO.P,J1,20*%
%TO.N,GND*%
X29970000Y-6040000D03*
%TO.P,J1,21*%
%TO.N,N/C*%
X32510000Y-3500000D03*
%TO.P,J1,22*%
%TO.N,LCD_DB2*%
X32510000Y-6040000D03*
%TO.P,J1,23*%
%TO.N,LCD_DB3*%
X35050000Y-3500000D03*
%TO.P,J1,24*%
%TO.N,N/C*%
X35050000Y-6040000D03*
%TO.P,J1,25*%
%TO.N,GND*%
X37590000Y-3500000D03*
%TO.P,J1,26*%
%TO.N,LCD_DB4*%
X37590000Y-6040000D03*
%TO.P,J1,27*%
%TO.N,ID_SD*%
X40130000Y-3500000D03*
%TO.P,J1,28*%
%TO.N,ID_SC*%
X40130000Y-6040000D03*
%TO.P,J1,29*%
%TO.N,LCD_DB6*%
X42670000Y-3500000D03*
%TO.P,J1,30*%
%TO.N,GND*%
X42670000Y-6040000D03*
%TO.P,J1,31*%
%TO.N,LCD_DB7*%
X45210000Y-3500000D03*
%TO.P,J1,32*%
%TO.N,BL_PWM*%
X45210000Y-6040000D03*
%TO.P,J1,33*%
%TO.N,LCD_CS1*%
X47750000Y-3500000D03*
%TO.P,J1,34*%
%TO.N,GND*%
X47750000Y-6040000D03*
%TO.P,J1,35*%
%TO.N,LCD_CS2*%
X50290000Y-3500000D03*
%TO.P,J1,36*%
%TO.N,FAN_PWM*%
X50290000Y-6040000D03*
%TO.P,J1,37*%
%TO.N,LCD_RST*%
X52830000Y-3500000D03*
%TO.P,J1,38*%
%TO.N,FAN1_TACH*%
X52830000Y-6040000D03*
%TO.P,J1,39*%
%TO.N,GND*%
X55370000Y-3500000D03*
%TO.P,J1,40*%
%TO.N,LCD_DB5*%
X55370000Y-6040000D03*
%TD*%
D14*
%TO.N,+3V3*%
X22127800Y-34217700D03*
X10098400Y-17001600D03*
X39910000Y-37202000D03*
%TO.N,GND*%
X19873000Y-41077200D03*
X48804000Y-31600700D03*
X55180200Y-43170600D03*
X52423300Y-43968900D03*
X31956700Y-24883500D03*
X42873700Y-34112800D03*
X37825000Y-22011300D03*
X16200400Y-43170600D03*
X51066500Y-40943800D03*
X10273000Y-43164100D03*
X15715300Y-27275700D03*
X50841500Y-51590400D03*
X45112100Y-29208400D03*
X49502100Y-43276000D03*
X19873000Y-28140500D03*
X10273000Y-27275700D03*
%TO.N,SDA1*%
X4345600Y-22280500D03*
X42054000Y-25616400D03*
X13660600Y-25616400D03*
%TO.N,SCL1*%
X43361800Y-26722900D03*
X13027200Y-40186300D03*
X48804000Y-40109100D03*
%TO.N,ID_SD*%
X39138500Y-18514500D03*
X18466500Y-21761600D03*
%TO.N,ID_SC*%
X27586700Y-17043000D03*
X37203500Y-16852700D03*
X18032400Y-20438200D03*
%TO.N,FPB_INT*%
X46537700Y-2747100D03*
%TO.N,LCD_CS1*%
X34751000Y-17378400D03*
X24876400Y-17473500D03*
%TO.N,LCD_DB0*%
X28528000Y-8741300D03*
X21174400Y-9065300D03*
%TO.N,LCD_DB6*%
X25437800Y-7929800D03*
%TO.N,FAN_PWM*%
X47009200Y-40900700D03*
%TO.N,VBACKUP*%
X46718300Y-24437300D03*
X25315700Y-31233400D03*
%TD*%
D15*
%TO.N,+5V*%
X28098300Y-51678300D02*
X28098300Y-51000000D01*
X15901700Y-51000000D02*
X15901700Y-51563600D01*
X15000000Y-51000000D02*
X15901700Y-51000000D01*
X16531100Y-52193000D02*
X27583600Y-52193000D01*
X15901700Y-51563600D02*
X16531100Y-52193000D01*
X7110000Y-6040000D02*
X9650000Y-6040000D01*
X27583600Y-52193000D02*
X28098300Y-51678300D01*
X29000000Y-51000000D02*
X28098300Y-51000000D01*
%TO.N,+3V3*%
X25112100Y-37202000D02*
X22127800Y-34217700D01*
X39910000Y-37202000D02*
X25112100Y-37202000D01*
X10817300Y-4651700D02*
X10817300Y-16282700D01*
X8261700Y-3788000D02*
X8261700Y-3500000D01*
X7110000Y-3500000D02*
X8261700Y-3500000D01*
X10817300Y-4651700D02*
X9125400Y-4651700D01*
X9125400Y-4651700D02*
X8261700Y-3788000D01*
X10817300Y-16282700D02*
X10098400Y-17001600D01*
X26278300Y-4651700D02*
X10817300Y-4651700D01*
X27430000Y-3500000D02*
X26278300Y-4651700D01*
%TO.N,SDA1*%
X10324700Y-22280500D02*
X4345600Y-22280500D01*
X13660600Y-25616400D02*
X10324700Y-22280500D01*
X13660600Y-25616400D02*
X42054000Y-25616400D01*
%TO.N,SCL1*%
X43481400Y-26842500D02*
X43361800Y-26722900D01*
X13104400Y-40109100D02*
X13027200Y-40186300D01*
X48804000Y-40109100D02*
X43481400Y-40109100D01*
X43481400Y-40109100D02*
X13104400Y-40109100D01*
X43481400Y-40109100D02*
X43481400Y-26842500D01*
%TO.N,ID_SD*%
X35891400Y-21761600D02*
X39138500Y-18514500D01*
X18466500Y-21761600D02*
X35891400Y-21761600D01*
%TO.N,ID_SC*%
X27586700Y-17043000D02*
X27415500Y-16871800D01*
X37127500Y-16776700D02*
X27853000Y-16776700D01*
X27853000Y-16776700D02*
X27586700Y-17043000D01*
X37203500Y-16852700D02*
X37127500Y-16776700D01*
X27415500Y-16871800D02*
X21598800Y-16871800D01*
X21598800Y-16871800D02*
X18032400Y-20438200D01*
%TO.N,FPB_INT*%
X16351800Y-1878200D02*
X14730000Y-3500000D01*
X46537700Y-2747100D02*
X45668800Y-1878200D01*
X45668800Y-1878200D02*
X16351800Y-1878200D01*
%TO.N,LCD_CS1*%
X34464500Y-17664900D02*
X25067800Y-17664900D01*
X34751000Y-17378400D02*
X34464500Y-17664900D01*
X25067800Y-17664900D02*
X24876400Y-17473500D01*
%TO.N,LCD_CS2*%
X26066900Y-11283100D02*
X41607100Y-11283100D01*
X47256000Y-4832600D02*
X48957400Y-4832600D01*
X41607100Y-11283100D02*
X46543400Y-6346800D01*
X46543400Y-6346800D02*
X46543400Y-5545200D01*
X46543400Y-5545200D02*
X47256000Y-4832600D01*
X24890000Y-12460000D02*
X26066900Y-11283100D01*
X48957400Y-4832600D02*
X50290000Y-3500000D01*
%TO.N,LCD_RST*%
X51560000Y-4770000D02*
X52830000Y-3500000D01*
X27430000Y-15000000D02*
X28682100Y-13747900D01*
X28682100Y-13747900D02*
X44246000Y-13747900D01*
X51560000Y-6433900D02*
X51560000Y-4770000D01*
X44246000Y-13747900D02*
X51560000Y-6433900D01*
%TO.N,LCD_DB0*%
X28204000Y-9065300D02*
X21174400Y-9065300D01*
X28528000Y-8741300D02*
X28204000Y-9065300D01*
%TO.N,LCD_DB1*%
X26160000Y-6438700D02*
X25270600Y-7328100D01*
X19861900Y-7328100D02*
X14730000Y-12460000D01*
X26160000Y-5621600D02*
X26160000Y-6438700D01*
X25270600Y-7328100D02*
X19861900Y-7328100D01*
X28700000Y-4770000D02*
X27011600Y-4770000D01*
X27011600Y-4770000D02*
X26160000Y-5621600D01*
X29970000Y-3500000D02*
X28700000Y-4770000D01*
%TO.N,LCD_DB2*%
X23178800Y-9947700D02*
X28602300Y-9947700D01*
X28602300Y-9947700D02*
X32510000Y-6040000D01*
X21080000Y-12862800D02*
X21080000Y-12046500D01*
X20193200Y-13749600D02*
X21080000Y-12862800D01*
X17270000Y-15000000D02*
X18520400Y-13749600D01*
X21080000Y-12046500D02*
X23178800Y-9947700D01*
X18520400Y-13749600D02*
X20193200Y-13749600D01*
%TO.N,LCD_DB3*%
X28278900Y-8139600D02*
X27887100Y-8531400D01*
X33780000Y-4770000D02*
X32091600Y-4770000D01*
X25188700Y-8531500D02*
X25074400Y-8417200D01*
X17270000Y-12059800D02*
X17270000Y-12460000D01*
X35050000Y-3500000D02*
X33780000Y-4770000D01*
X32091600Y-4770000D02*
X31121700Y-5739900D01*
X31121700Y-6578700D02*
X29560800Y-8139600D01*
X27887100Y-8531400D02*
X27887100Y-8531500D01*
X27887100Y-8531500D02*
X25188700Y-8531500D01*
X29560800Y-8139600D02*
X28278900Y-8139600D01*
X31121700Y-5739900D02*
X31121700Y-6578700D01*
X20912600Y-8417200D02*
X17270000Y-12059800D01*
X25074400Y-8417200D02*
X20912600Y-8417200D01*
%TO.N,LCD_DB4*%
X23738300Y-12760100D02*
X22768400Y-13730000D01*
X21080000Y-13730000D02*
X19810000Y-15000000D01*
X32775500Y-10854500D02*
X24813800Y-10854500D01*
X24813800Y-10854500D02*
X23738300Y-11930000D01*
X22768400Y-13730000D02*
X21080000Y-13730000D01*
X23738300Y-11930000D02*
X23738300Y-12760100D01*
X37590000Y-6040000D02*
X32775500Y-10854500D01*
%TO.N,LCD_DB5*%
X16073100Y-15487800D02*
X16742200Y-16156900D01*
X19810000Y-12460000D02*
X19157300Y-12460000D01*
X16742200Y-16156900D02*
X45253100Y-16156900D01*
X45253100Y-16156900D02*
X55370000Y-6040000D01*
X19157300Y-12460000D02*
X17886900Y-13730400D01*
X16073100Y-14542100D02*
X16073100Y-15487800D01*
X16884800Y-13730400D02*
X16073100Y-14542100D01*
X17886900Y-13730400D02*
X16884800Y-13730400D01*
%TO.N,LCD_DB6*%
X31240000Y-3918400D02*
X31240000Y-3068600D01*
X30270100Y-4888300D02*
X31240000Y-3918400D01*
X28700000Y-6456700D02*
X28700000Y-5637100D01*
X41470300Y-2300300D02*
X42670000Y-3500000D01*
X28700000Y-5637100D02*
X29448800Y-4888300D01*
X25437800Y-7929800D02*
X27226900Y-7929800D01*
X31240000Y-3068600D02*
X32008300Y-2300300D01*
X29448800Y-4888300D02*
X30270100Y-4888300D01*
X27226900Y-7929800D02*
X28700000Y-6456700D01*
X32008300Y-2300300D02*
X41470300Y-2300300D01*
%TO.N,LCD_DB7*%
X36201700Y-5739900D02*
X37171600Y-4770000D01*
X22350000Y-12460000D02*
X24404600Y-10405400D01*
X36201700Y-6570100D02*
X36201700Y-5739900D01*
X43940000Y-4770000D02*
X45210000Y-3500000D01*
X32366400Y-10405400D02*
X36201700Y-6570100D01*
X37171600Y-4770000D02*
X43940000Y-4770000D01*
X24404600Y-10405400D02*
X32366400Y-10405400D01*
%TO.N,FAN_PWM*%
X21107500Y-49794200D02*
X31379000Y-49794200D01*
X19901700Y-51000000D02*
X21107500Y-49794200D01*
X19000000Y-51000000D02*
X19901700Y-51000000D01*
X32098300Y-50513500D02*
X41711100Y-40900700D01*
X31379000Y-49794200D02*
X32098300Y-50513500D01*
X32098300Y-50513500D02*
X32098300Y-51000000D01*
X41711100Y-40900700D02*
X47009200Y-40900700D01*
X33000000Y-51000000D02*
X32098300Y-51000000D01*
%TO.N,VBACKUP*%
X25315700Y-31233400D02*
X37946400Y-31233400D01*
X37946400Y-31233400D02*
X44742500Y-24437300D01*
X44742500Y-24437300D02*
X46718300Y-24437300D01*
%TD*%
%TA.AperFunction,Conductor*%
%TO.N,GND*%
G36*
X26000787Y-50164385D02*
G01*
X26046542Y-50217189D01*
X26056687Y-50284886D01*
X26050000Y-50335669D01*
X26050000Y-50825000D01*
X26668024Y-50825000D01*
X26650556Y-50855255D01*
X26625000Y-50950630D01*
X26625000Y-51049370D01*
X26650556Y-51144745D01*
X26668024Y-51175000D01*
X26050001Y-51175000D01*
X26050001Y-51664325D01*
X26055002Y-51702317D01*
X26044235Y-51771352D01*
X25997854Y-51823607D01*
X25932063Y-51842500D01*
X19871087Y-51842500D01*
X19804048Y-51822815D01*
X19758293Y-51770011D01*
X19748349Y-51700853D01*
X19756526Y-51671047D01*
X19817816Y-51523082D01*
X19829729Y-51463191D01*
X19832292Y-51450309D01*
X19864677Y-51388398D01*
X19925392Y-51353824D01*
X19939859Y-51352137D01*
X19939784Y-51351561D01*
X19947835Y-51350500D01*
X19947844Y-51350500D01*
X20036988Y-51326614D01*
X20116912Y-51280470D01*
X21216363Y-50181019D01*
X21277686Y-50147534D01*
X21304044Y-50144700D01*
X25933748Y-50144700D01*
X26000787Y-50164385D01*
G37*
%TD.AperFunction*%
%TA.AperFunction,Conductor*%
G36*
X54086259Y-3508653D02*
G01*
X54144492Y-3547262D01*
X54172102Y-3607720D01*
X54199548Y-3781002D01*
X54257914Y-3960637D01*
X54343666Y-4128933D01*
X54406749Y-4215761D01*
X54913387Y-3709123D01*
X54969901Y-3807007D01*
X55062993Y-3900099D01*
X55160875Y-3956611D01*
X54654237Y-4463248D01*
X54654237Y-4463249D01*
X54741066Y-4526333D01*
X54909362Y-4612085D01*
X55088997Y-4670451D01*
X55262278Y-4697897D01*
X55325413Y-4727826D01*
X55362344Y-4787138D01*
X55361346Y-4857000D01*
X55322736Y-4915233D01*
X55262278Y-4942843D01*
X55112302Y-4966597D01*
X54947552Y-5020128D01*
X54793211Y-5098768D01*
X54719177Y-5152558D01*
X54653072Y-5200586D01*
X54653070Y-5200588D01*
X54653069Y-5200588D01*
X54530588Y-5323069D01*
X54530588Y-5323070D01*
X54530586Y-5323072D01*
X54516660Y-5342240D01*
X54428768Y-5463211D01*
X54350128Y-5617552D01*
X54296597Y-5782302D01*
X54286349Y-5847007D01*
X54269500Y-5953389D01*
X54269500Y-6126611D01*
X54272844Y-6147722D01*
X54296597Y-6297698D01*
X54351597Y-6466970D01*
X54353592Y-6536811D01*
X54321347Y-6592969D01*
X45144237Y-15770081D01*
X45082914Y-15803566D01*
X45056556Y-15806400D01*
X30987773Y-15806400D01*
X30920734Y-15786715D01*
X30874979Y-15733911D01*
X30865035Y-15664753D01*
X30887455Y-15609514D01*
X30911232Y-15576788D01*
X30989873Y-15422445D01*
X31043402Y-15257701D01*
X31070500Y-15086611D01*
X31070500Y-14913389D01*
X31043402Y-14742299D01*
X30989873Y-14577555D01*
X30911232Y-14423212D01*
X30818286Y-14295283D01*
X30794807Y-14229480D01*
X30810632Y-14161426D01*
X30860738Y-14112731D01*
X30918605Y-14098400D01*
X44292142Y-14098400D01*
X44292144Y-14098400D01*
X44381288Y-14074514D01*
X44461212Y-14028370D01*
X51779385Y-6710197D01*
X51840708Y-6676712D01*
X51910400Y-6681696D01*
X51966333Y-6723568D01*
X51967369Y-6724973D01*
X51990586Y-6756928D01*
X52113072Y-6879414D01*
X52253212Y-6981232D01*
X52407555Y-7059873D01*
X52572299Y-7113402D01*
X52743389Y-7140500D01*
X52743390Y-7140500D01*
X52916610Y-7140500D01*
X52916611Y-7140500D01*
X53087701Y-7113402D01*
X53252445Y-7059873D01*
X53406788Y-6981232D01*
X53546928Y-6879414D01*
X53669414Y-6756928D01*
X53771232Y-6616788D01*
X53849873Y-6462445D01*
X53903402Y-6297701D01*
X53930500Y-6126611D01*
X53930500Y-5953389D01*
X53903402Y-5782299D01*
X53849873Y-5617555D01*
X53771232Y-5463212D01*
X53669414Y-5323072D01*
X53546928Y-5200586D01*
X53406788Y-5098768D01*
X53252445Y-5020127D01*
X53087701Y-4966598D01*
X53087699Y-4966597D01*
X53087698Y-4966597D01*
X52956271Y-4945781D01*
X52916611Y-4939500D01*
X52743389Y-4939500D01*
X52703728Y-4945781D01*
X52572302Y-4966597D01*
X52407552Y-5020128D01*
X52253211Y-5098768D01*
X52191166Y-5143847D01*
X52113072Y-5200586D01*
X52113069Y-5200588D01*
X52109131Y-5203450D01*
X52108094Y-5202024D01*
X52099150Y-5206030D01*
X52086011Y-5217416D01*
X52067929Y-5220015D01*
X52051255Y-5227485D01*
X52034062Y-5224885D01*
X52016853Y-5227360D01*
X52000233Y-5219770D01*
X51982171Y-5217039D01*
X51969114Y-5205558D01*
X51953297Y-5198335D01*
X51943419Y-5182965D01*
X51929700Y-5170902D01*
X51924802Y-5153997D01*
X51915523Y-5139557D01*
X51910500Y-5104622D01*
X51910500Y-4966543D01*
X51930185Y-4899504D01*
X51946815Y-4878866D01*
X52277031Y-4548649D01*
X52338352Y-4515166D01*
X52403029Y-4518401D01*
X52407547Y-4519869D01*
X52407555Y-4519873D01*
X52572299Y-4573402D01*
X52743389Y-4600500D01*
X52743390Y-4600500D01*
X52916610Y-4600500D01*
X52916611Y-4600500D01*
X53087701Y-4573402D01*
X53252445Y-4519873D01*
X53406788Y-4441232D01*
X53546928Y-4339414D01*
X53669414Y-4216928D01*
X53771232Y-4076788D01*
X53849873Y-3922445D01*
X53903402Y-3757701D01*
X53927156Y-3607720D01*
X53957085Y-3544587D01*
X54016396Y-3507655D01*
X54086259Y-3508653D01*
G37*
%TD.AperFunction*%
%TA.AperFunction,Conductor*%
G36*
X49107000Y-6048653D02*
G01*
X49165233Y-6087263D01*
X49192843Y-6147721D01*
X49216597Y-6297697D01*
X49216597Y-6297699D01*
X49216598Y-6297701D01*
X49270127Y-6462445D01*
X49348768Y-6616788D01*
X49450586Y-6756928D01*
X49573072Y-6879414D01*
X49713212Y-6981232D01*
X49867555Y-7059873D01*
X50032299Y-7113402D01*
X50096252Y-7123531D01*
X50159383Y-7153458D01*
X50196315Y-7212769D01*
X50195319Y-7282632D01*
X50164533Y-7333684D01*
X44137137Y-13361081D01*
X44075814Y-13394566D01*
X44049456Y-13397400D01*
X30888304Y-13397400D01*
X30821265Y-13377715D01*
X30775510Y-13324911D01*
X30765566Y-13255753D01*
X30794591Y-13192197D01*
X30800623Y-13185719D01*
X30809414Y-13176928D01*
X30911232Y-13036788D01*
X30989873Y-12882445D01*
X31043402Y-12717701D01*
X31070500Y-12546611D01*
X31070500Y-12373389D01*
X31043402Y-12202299D01*
X30989873Y-12037555D01*
X30911232Y-11883212D01*
X30872923Y-11830485D01*
X30849444Y-11764679D01*
X30865269Y-11696625D01*
X30915375Y-11647931D01*
X30973242Y-11633600D01*
X41653242Y-11633600D01*
X41653244Y-11633600D01*
X41742388Y-11609714D01*
X41753348Y-11603386D01*
X41822312Y-11563570D01*
X46618178Y-6767702D01*
X46679499Y-6734219D01*
X46749191Y-6739203D01*
X46769495Y-6754403D01*
X46786749Y-6755761D01*
X47293387Y-6249122D01*
X47349901Y-6347007D01*
X47442993Y-6440099D01*
X47540874Y-6496610D01*
X47034237Y-7003248D01*
X47034237Y-7003249D01*
X47121066Y-7066333D01*
X47289362Y-7152085D01*
X47468997Y-7210451D01*
X47655553Y-7240000D01*
X47844447Y-7240000D01*
X48031002Y-7210451D01*
X48210637Y-7152085D01*
X48378940Y-7066329D01*
X48465761Y-7003251D01*
X48465762Y-7003249D01*
X47959124Y-6496611D01*
X48057007Y-6440099D01*
X48150099Y-6347007D01*
X48206611Y-6249124D01*
X48713249Y-6755762D01*
X48713251Y-6755761D01*
X48776329Y-6668940D01*
X48862085Y-6500637D01*
X48920451Y-6321002D01*
X48947897Y-6147721D01*
X48977826Y-6084586D01*
X49037138Y-6047655D01*
X49107000Y-6048653D01*
G37*
%TD.AperFunction*%
%TA.AperFunction,Conductor*%
G36*
X39261661Y-5140185D02*
G01*
X39307416Y-5192989D01*
X39317360Y-5262147D01*
X39292046Y-5318111D01*
X39293450Y-5319131D01*
X39290588Y-5323069D01*
X39290586Y-5323072D01*
X39246238Y-5384112D01*
X39188768Y-5463211D01*
X39110128Y-5617552D01*
X39056597Y-5782302D01*
X39046349Y-5847007D01*
X39029500Y-5953389D01*
X39029500Y-6126611D01*
X39032844Y-6147722D01*
X39056597Y-6297697D01*
X39056597Y-6297699D01*
X39056598Y-6297701D01*
X39110127Y-6462445D01*
X39188768Y-6616788D01*
X39290586Y-6756928D01*
X39413072Y-6879414D01*
X39553212Y-6981232D01*
X39707555Y-7059873D01*
X39872299Y-7113402D01*
X40043389Y-7140500D01*
X40043390Y-7140500D01*
X40216610Y-7140500D01*
X40216611Y-7140500D01*
X40387701Y-7113402D01*
X40552445Y-7059873D01*
X40706788Y-6981232D01*
X40846928Y-6879414D01*
X40969414Y-6756928D01*
X41071232Y-6616788D01*
X41149873Y-6462445D01*
X41203402Y-6297701D01*
X41227156Y-6147720D01*
X41257085Y-6084587D01*
X41316396Y-6047655D01*
X41386259Y-6048653D01*
X41444492Y-6087262D01*
X41472102Y-6147720D01*
X41499548Y-6321002D01*
X41557914Y-6500637D01*
X41643666Y-6668933D01*
X41706749Y-6755761D01*
X42213387Y-6249122D01*
X42269901Y-6347007D01*
X42362993Y-6440099D01*
X42460874Y-6496610D01*
X41954237Y-7003248D01*
X41954237Y-7003249D01*
X42041066Y-7066333D01*
X42209362Y-7152085D01*
X42388997Y-7210451D01*
X42575553Y-7240000D01*
X42764447Y-7240000D01*
X42951002Y-7210451D01*
X43130637Y-7152085D01*
X43298940Y-7066329D01*
X43385761Y-7003251D01*
X43385762Y-7003249D01*
X42879124Y-6496611D01*
X42977007Y-6440099D01*
X43070099Y-6347007D01*
X43126611Y-6249124D01*
X43633249Y-6755762D01*
X43633251Y-6755761D01*
X43696329Y-6668940D01*
X43782085Y-6500637D01*
X43840451Y-6321002D01*
X43867897Y-6147721D01*
X43897826Y-6084586D01*
X43957138Y-6047655D01*
X44027000Y-6048653D01*
X44085233Y-6087263D01*
X44112843Y-6147721D01*
X44136597Y-6297697D01*
X44136597Y-6297699D01*
X44136598Y-6297701D01*
X44190127Y-6462445D01*
X44268768Y-6616788D01*
X44370586Y-6756928D01*
X44493072Y-6879414D01*
X44633212Y-6981232D01*
X44787555Y-7059873D01*
X44952299Y-7113402D01*
X44995792Y-7120290D01*
X45058924Y-7150218D01*
X45095856Y-7209529D01*
X45094860Y-7279392D01*
X45064074Y-7330444D01*
X41498237Y-10896281D01*
X41436914Y-10929766D01*
X41410556Y-10932600D01*
X33492444Y-10932600D01*
X33425405Y-10912915D01*
X33379650Y-10860111D01*
X33369706Y-10790953D01*
X33398731Y-10727397D01*
X33404763Y-10720919D01*
X34282463Y-9843219D01*
X37037031Y-7088649D01*
X37098352Y-7055166D01*
X37163029Y-7058401D01*
X37167547Y-7059869D01*
X37167555Y-7059873D01*
X37332299Y-7113402D01*
X37503389Y-7140500D01*
X37503390Y-7140500D01*
X37676610Y-7140500D01*
X37676611Y-7140500D01*
X37847701Y-7113402D01*
X38012445Y-7059873D01*
X38166788Y-6981232D01*
X38306928Y-6879414D01*
X38429414Y-6756928D01*
X38531232Y-6616788D01*
X38609873Y-6462445D01*
X38663402Y-6297701D01*
X38690500Y-6126611D01*
X38690500Y-5953389D01*
X38663402Y-5782299D01*
X38609873Y-5617555D01*
X38531232Y-5463212D01*
X38429414Y-5323072D01*
X38429411Y-5323069D01*
X38426550Y-5319131D01*
X38427975Y-5318094D01*
X38402515Y-5261255D01*
X38412961Y-5192171D01*
X38459098Y-5139700D01*
X38525378Y-5120500D01*
X39194622Y-5120500D01*
X39261661Y-5140185D01*
G37*
%TD.AperFunction*%
%TA.AperFunction,Conductor*%
G36*
X36306259Y-3508653D02*
G01*
X36364492Y-3547262D01*
X36392102Y-3607720D01*
X36419548Y-3781002D01*
X36477914Y-3960637D01*
X36563666Y-4128933D01*
X36626749Y-4215761D01*
X37133387Y-3709122D01*
X37189901Y-3807007D01*
X37282993Y-3900099D01*
X37380874Y-3956610D01*
X36874236Y-4463249D01*
X36877662Y-4506782D01*
X36863297Y-4575159D01*
X36841725Y-4604191D01*
X36090305Y-5355611D01*
X36028982Y-5389096D01*
X35959290Y-5384112D01*
X35903357Y-5342240D01*
X35902308Y-5340818D01*
X35889416Y-5323075D01*
X35889411Y-5323069D01*
X35766930Y-5200588D01*
X35766929Y-5200587D01*
X35766928Y-5200586D01*
X35626788Y-5098768D01*
X35472445Y-5020127D01*
X35307701Y-4966598D01*
X35307699Y-4966597D01*
X35307698Y-4966597D01*
X35176271Y-4945781D01*
X35136611Y-4939500D01*
X34963389Y-4939500D01*
X34923728Y-4945781D01*
X34792302Y-4966597D01*
X34627552Y-5020128D01*
X34473211Y-5098768D01*
X34399177Y-5152558D01*
X34333072Y-5200586D01*
X34333070Y-5200588D01*
X34333069Y-5200588D01*
X34210588Y-5323069D01*
X34210588Y-5323070D01*
X34210586Y-5323072D01*
X34196660Y-5342240D01*
X34108768Y-5463211D01*
X34030128Y-5617552D01*
X33976597Y-5782302D01*
X33966349Y-5847007D01*
X33949500Y-5953389D01*
X33949500Y-6126611D01*
X33952844Y-6147722D01*
X33976597Y-6297697D01*
X33976597Y-6297699D01*
X33976598Y-6297701D01*
X34030127Y-6462445D01*
X34108768Y-6616788D01*
X34210586Y-6756928D01*
X34333072Y-6879414D01*
X34473212Y-6981232D01*
X34627555Y-7059873D01*
X34792299Y-7113402D01*
X34792302Y-7113402D01*
X34792303Y-7113403D01*
X34843438Y-7121501D01*
X34871702Y-7125978D01*
X34934837Y-7155907D01*
X34971769Y-7215218D01*
X34970771Y-7285081D01*
X34939986Y-7336132D01*
X32257537Y-10018581D01*
X32196214Y-10052066D01*
X32169856Y-10054900D01*
X29290144Y-10054900D01*
X29223105Y-10035215D01*
X29177350Y-9982411D01*
X29167406Y-9913253D01*
X29196431Y-9849697D01*
X29202463Y-9843219D01*
X29659902Y-9385780D01*
X31957030Y-7088649D01*
X32018351Y-7055166D01*
X32083028Y-7058401D01*
X32087549Y-7059869D01*
X32087555Y-7059873D01*
X32252299Y-7113402D01*
X32423389Y-7140500D01*
X32423390Y-7140500D01*
X32596610Y-7140500D01*
X32596611Y-7140500D01*
X32767701Y-7113402D01*
X32932445Y-7059873D01*
X33086788Y-6981232D01*
X33226928Y-6879414D01*
X33349414Y-6756928D01*
X33451232Y-6616788D01*
X33529873Y-6462445D01*
X33583402Y-6297701D01*
X33610500Y-6126611D01*
X33610500Y-5953389D01*
X33583402Y-5782299D01*
X33529873Y-5617555D01*
X33451232Y-5463212D01*
X33349414Y-5323072D01*
X33349411Y-5323069D01*
X33346550Y-5319131D01*
X33347975Y-5318094D01*
X33322515Y-5261255D01*
X33332961Y-5192171D01*
X33379098Y-5139700D01*
X33445378Y-5120500D01*
X33826142Y-5120500D01*
X33826144Y-5120500D01*
X33915288Y-5096614D01*
X33995212Y-5050470D01*
X34497031Y-4548649D01*
X34558352Y-4515166D01*
X34623029Y-4518401D01*
X34627547Y-4519869D01*
X34627555Y-4519873D01*
X34792299Y-4573402D01*
X34963389Y-4600500D01*
X34963390Y-4600500D01*
X35136610Y-4600500D01*
X35136611Y-4600500D01*
X35307701Y-4573402D01*
X35472445Y-4519873D01*
X35626788Y-4441232D01*
X35766928Y-4339414D01*
X35889414Y-4216928D01*
X35991232Y-4076788D01*
X36069873Y-3922445D01*
X36123402Y-3757701D01*
X36147156Y-3607720D01*
X36177085Y-3544587D01*
X36236396Y-3507655D01*
X36306259Y-3508653D01*
G37*
%TD.AperFunction*%
%TA.AperFunction,Conductor*%
G36*
X29569901Y-6347007D02*
G01*
X29662993Y-6440099D01*
X29760875Y-6496611D01*
X29254237Y-7003248D01*
X29254237Y-7003249D01*
X29341066Y-7066333D01*
X29509362Y-7152085D01*
X29688993Y-7210450D01*
X29712158Y-7214119D01*
X29775293Y-7244048D01*
X29812225Y-7303359D01*
X29811229Y-7373221D01*
X29780443Y-7424274D01*
X29451937Y-7752781D01*
X29390614Y-7786266D01*
X29364256Y-7789100D01*
X28232752Y-7789100D01*
X28175046Y-7804562D01*
X28105197Y-7802898D01*
X28047335Y-7763735D01*
X28019832Y-7699506D01*
X28031419Y-7630604D01*
X28055269Y-7597112D01*
X28864236Y-6788145D01*
X28925555Y-6754663D01*
X28961643Y-6752211D01*
X29006749Y-6755761D01*
X29513387Y-6249123D01*
X29569901Y-6347007D01*
G37*
%TD.AperFunction*%
%TA.AperFunction,Conductor*%
G36*
X13979135Y-5021885D02*
G01*
X14024890Y-5074689D01*
X14034834Y-5143847D01*
X14005809Y-5207403D01*
X13999777Y-5213881D01*
X13890588Y-5323069D01*
X13890588Y-5323070D01*
X13890586Y-5323072D01*
X13876660Y-5342240D01*
X13788768Y-5463211D01*
X13710128Y-5617552D01*
X13656597Y-5782302D01*
X13632843Y-5932278D01*
X13602914Y-5995413D01*
X13543602Y-6032344D01*
X13473739Y-6031346D01*
X13415507Y-5992736D01*
X13387897Y-5932278D01*
X13360451Y-5758997D01*
X13302085Y-5579362D01*
X13216333Y-5411066D01*
X13153249Y-5324237D01*
X13153248Y-5324237D01*
X12646611Y-5830875D01*
X12590099Y-5732993D01*
X12497007Y-5639901D01*
X12399123Y-5583388D01*
X12943992Y-5038519D01*
X13005315Y-5005034D01*
X13031673Y-5002200D01*
X13912096Y-5002200D01*
X13979135Y-5021885D01*
G37*
%TD.AperFunction*%
%TA.AperFunction,Conductor*%
G36*
X21575365Y-5021885D02*
G01*
X21596007Y-5038519D01*
X22140876Y-5583388D01*
X22042993Y-5639901D01*
X21949901Y-5732993D01*
X21893388Y-5830876D01*
X21386749Y-5324237D01*
X21386748Y-5324237D01*
X21323668Y-5411062D01*
X21323667Y-5411064D01*
X21237914Y-5579362D01*
X21179548Y-5758997D01*
X21152102Y-5932279D01*
X21122172Y-5995413D01*
X21062861Y-6032344D01*
X20992998Y-6031346D01*
X20934766Y-5992736D01*
X20907156Y-5932277D01*
X20883403Y-5782303D01*
X20883402Y-5782302D01*
X20883402Y-5782299D01*
X20829873Y-5617555D01*
X20751232Y-5463212D01*
X20649414Y-5323072D01*
X20540223Y-5213881D01*
X20506738Y-5152558D01*
X20511722Y-5082866D01*
X20553594Y-5026933D01*
X20619058Y-5002516D01*
X20627904Y-5002200D01*
X21508326Y-5002200D01*
X21575365Y-5021885D01*
G37*
%TD.AperFunction*%
%TA.AperFunction,Conductor*%
G36*
X24093341Y-5008438D02*
G01*
X24115430Y-5010018D01*
X24126213Y-5018090D01*
X24139135Y-5021885D01*
X24153634Y-5038618D01*
X24171363Y-5051890D01*
X24176070Y-5064510D01*
X24184890Y-5074689D01*
X24188041Y-5096606D01*
X24195780Y-5117354D01*
X24192917Y-5130514D01*
X24194834Y-5143847D01*
X24185634Y-5163990D01*
X24180928Y-5185627D01*
X24167659Y-5203352D01*
X24165809Y-5207403D01*
X24159777Y-5213881D01*
X24050588Y-5323069D01*
X24050588Y-5323070D01*
X24050586Y-5323072D01*
X24036660Y-5342240D01*
X23948768Y-5463211D01*
X23870128Y-5617552D01*
X23816597Y-5782302D01*
X23792843Y-5932278D01*
X23762914Y-5995413D01*
X23703602Y-6032344D01*
X23633739Y-6031346D01*
X23575507Y-5992736D01*
X23547897Y-5932278D01*
X23520451Y-5758997D01*
X23462085Y-5579362D01*
X23376333Y-5411066D01*
X23313248Y-5324237D01*
X22806610Y-5830874D01*
X22750099Y-5732993D01*
X22657007Y-5639901D01*
X22559122Y-5583387D01*
X23103992Y-5038519D01*
X23165315Y-5005034D01*
X23191673Y-5002200D01*
X24072096Y-5002200D01*
X24093341Y-5008438D01*
G37*
%TD.AperFunction*%
%TA.AperFunction,Conductor*%
G36*
X31600709Y-4155886D02*
G01*
X31656642Y-4197758D01*
X31657692Y-4199181D01*
X31670586Y-4216928D01*
X31793072Y-4339414D01*
X31810817Y-4352307D01*
X31853482Y-4407637D01*
X31859461Y-4477250D01*
X31826855Y-4539045D01*
X31825612Y-4540305D01*
X31074191Y-5291725D01*
X31012868Y-5325210D01*
X30976782Y-5327662D01*
X30933249Y-5324236D01*
X30426611Y-5830875D01*
X30370099Y-5732993D01*
X30277007Y-5639901D01*
X30179123Y-5583388D01*
X30685762Y-5076749D01*
X30682336Y-5033217D01*
X30696700Y-4964840D01*
X30718267Y-4935814D01*
X31469696Y-4184385D01*
X31531017Y-4150902D01*
X31600709Y-4155886D01*
G37*
%TD.AperFunction*%
%TA.AperFunction,Conductor*%
G36*
X16672381Y-2248385D02*
G01*
X16718136Y-2301189D01*
X16728080Y-2370347D01*
X16699055Y-2433903D01*
X16661637Y-2463184D01*
X16641074Y-2473661D01*
X16641062Y-2473668D01*
X16554237Y-2536748D01*
X16554237Y-2536749D01*
X17060876Y-3043388D01*
X16962993Y-3099901D01*
X16869901Y-3192993D01*
X16813388Y-3290876D01*
X16306749Y-2784237D01*
X16306748Y-2784237D01*
X16243668Y-2871062D01*
X16243667Y-2871064D01*
X16157914Y-3039362D01*
X16099548Y-3218997D01*
X16072102Y-3392279D01*
X16042172Y-3455413D01*
X15982861Y-3492344D01*
X15912998Y-3491346D01*
X15854766Y-3452736D01*
X15827156Y-3392277D01*
X15822171Y-3360805D01*
X15813651Y-3307007D01*
X15803403Y-3242304D01*
X15803402Y-3242301D01*
X15803402Y-3242299D01*
X15749873Y-3077555D01*
X15749869Y-3077547D01*
X15748401Y-3073029D01*
X15746406Y-3003188D01*
X15778649Y-2947031D01*
X16460663Y-2265019D01*
X16521986Y-2231534D01*
X16548344Y-2228700D01*
X16605342Y-2228700D01*
X16672381Y-2248385D01*
G37*
%TD.AperFunction*%
%TA.AperFunction,Conductor*%
G36*
X19393901Y-2233233D02*
G01*
X19409985Y-2232774D01*
X19426734Y-2242874D01*
X19445502Y-2248385D01*
X19456038Y-2260544D01*
X19469818Y-2268854D01*
X19478448Y-2286407D01*
X19491257Y-2301189D01*
X19493546Y-2317114D01*
X19500647Y-2331555D01*
X19498417Y-2350987D01*
X19501201Y-2370347D01*
X19494517Y-2384982D01*
X19492683Y-2400969D01*
X19480301Y-2416111D01*
X19472176Y-2433903D01*
X19458147Y-2443204D01*
X19448455Y-2455058D01*
X19416785Y-2470629D01*
X19407446Y-2473664D01*
X19387550Y-2480128D01*
X19233211Y-2558768D01*
X19159563Y-2612277D01*
X19093072Y-2660586D01*
X19093070Y-2660588D01*
X19093069Y-2660588D01*
X18970588Y-2783069D01*
X18970588Y-2783070D01*
X18970586Y-2783072D01*
X18946321Y-2816470D01*
X18868768Y-2923211D01*
X18790128Y-3077552D01*
X18736597Y-3242302D01*
X18712843Y-3392278D01*
X18682914Y-3455413D01*
X18623602Y-3492344D01*
X18553739Y-3491346D01*
X18495507Y-3452736D01*
X18467897Y-3392278D01*
X18440451Y-3218997D01*
X18382085Y-3039362D01*
X18296333Y-2871066D01*
X18233248Y-2784237D01*
X17726610Y-3290874D01*
X17670099Y-3192993D01*
X17577007Y-3099901D01*
X17479122Y-3043387D01*
X17985761Y-2536749D01*
X17898930Y-2473664D01*
X17898925Y-2473661D01*
X17878363Y-2463184D01*
X17827567Y-2415210D01*
X17810772Y-2347389D01*
X17833310Y-2281254D01*
X17888025Y-2237803D01*
X17934658Y-2228700D01*
X19378463Y-2228700D01*
X19393901Y-2233233D01*
G37*
%TD.AperFunction*%
%TA.AperFunction,Conductor*%
G36*
X64442539Y-520185D02*
G01*
X64488294Y-572989D01*
X64499500Y-624500D01*
X64499500Y-55875500D01*
X64479815Y-55942539D01*
X64427011Y-55988294D01*
X64375500Y-55999500D01*
X624500Y-55999500D01*
X557461Y-55979815D01*
X511706Y-55927011D01*
X500500Y-55875500D01*
X500500Y-52499998D01*
X1000000Y-52499998D01*
X1000000Y-52500001D01*
X1085184Y-53147045D01*
X1085185Y-53147047D01*
X1334936Y-53750000D01*
X1732233Y-54267766D01*
X2250000Y-54665063D01*
X2852952Y-54914814D01*
X3176476Y-54957407D01*
X3499999Y-55000000D01*
X3500000Y-55000000D01*
X3500001Y-55000000D01*
X3715682Y-54971604D01*
X4147047Y-54914814D01*
X4750000Y-54665063D01*
X5267766Y-54267766D01*
X5665063Y-53750000D01*
X5914814Y-53147047D01*
X6000000Y-52500000D01*
X5914814Y-51852952D01*
X5665063Y-51250000D01*
X5665062Y-51249998D01*
X5626025Y-51199125D01*
X5626024Y-51199124D01*
X5598914Y-51163794D01*
X5267766Y-50732233D01*
X4750000Y-50334936D01*
X4147047Y-50085185D01*
X4147045Y-50085184D01*
X3500000Y-50000000D01*
X3499998Y-50000000D01*
X2852953Y-50085184D01*
X2852951Y-50085185D01*
X2250000Y-50334935D01*
X1732233Y-50732233D01*
X1334934Y-51250002D01*
X1085185Y-51852951D01*
X1085184Y-51852953D01*
X1000000Y-52499998D01*
X500500Y-52499998D01*
X500500Y-34145225D01*
X21577300Y-34145225D01*
X21577300Y-34290175D01*
X21582301Y-34308837D01*
X21614817Y-34430188D01*
X21687288Y-34555711D01*
X21687290Y-34555713D01*
X21687291Y-34555715D01*
X21789785Y-34658209D01*
X21789786Y-34658210D01*
X21789788Y-34658211D01*
X21915311Y-34730682D01*
X21915312Y-34730682D01*
X21915315Y-34730684D01*
X22055325Y-34768200D01*
X22131256Y-34768200D01*
X22198295Y-34787885D01*
X22218937Y-34804519D01*
X24896888Y-37482470D01*
X24966185Y-37522478D01*
X24966187Y-37522480D01*
X24973442Y-37526668D01*
X24976812Y-37528614D01*
X25065956Y-37552500D01*
X25065957Y-37552500D01*
X25158244Y-37552500D01*
X39430614Y-37552500D01*
X39497653Y-37572185D01*
X39518295Y-37588819D01*
X39571985Y-37642509D01*
X39571986Y-37642510D01*
X39571988Y-37642511D01*
X39697511Y-37714982D01*
X39697512Y-37714982D01*
X39697515Y-37714984D01*
X39837525Y-37752500D01*
X39837528Y-37752500D01*
X39982472Y-37752500D01*
X39982475Y-37752500D01*
X40122485Y-37714984D01*
X40248015Y-37642509D01*
X40350509Y-37540015D01*
X40422984Y-37414485D01*
X40460500Y-37274475D01*
X40460500Y-37129525D01*
X40422984Y-36989515D01*
X40350509Y-36863985D01*
X40248015Y-36761491D01*
X40248013Y-36761490D01*
X40248011Y-36761488D01*
X40122488Y-36689017D01*
X40122489Y-36689017D01*
X40111006Y-36685940D01*
X39982475Y-36651500D01*
X39837525Y-36651500D01*
X39708993Y-36685940D01*
X39697511Y-36689017D01*
X39571988Y-36761488D01*
X39571982Y-36761493D01*
X39518295Y-36815181D01*
X39456972Y-36848666D01*
X39430614Y-36851500D01*
X25308644Y-36851500D01*
X25241605Y-36831815D01*
X25220963Y-36815181D01*
X22714619Y-34308837D01*
X22681134Y-34247514D01*
X22678300Y-34221156D01*
X22678300Y-34145227D01*
X22678300Y-34145225D01*
X22640784Y-34005215D01*
X22568309Y-33879685D01*
X22465815Y-33777191D01*
X22465813Y-33777190D01*
X22465811Y-33777188D01*
X22340288Y-33704717D01*
X22340289Y-33704717D01*
X22328806Y-33701640D01*
X22200275Y-33667200D01*
X22055325Y-33667200D01*
X21926793Y-33701640D01*
X21915311Y-33704717D01*
X21789788Y-33777188D01*
X21789782Y-33777193D01*
X21687293Y-33879682D01*
X21687288Y-33879688D01*
X21614817Y-34005211D01*
X21614816Y-34005215D01*
X21577300Y-34145225D01*
X500500Y-34145225D01*
X500500Y-22208025D01*
X3795100Y-22208025D01*
X3795100Y-22352975D01*
X3832616Y-22492985D01*
X3832617Y-22492988D01*
X3905088Y-22618511D01*
X3905090Y-22618513D01*
X3905091Y-22618515D01*
X4007585Y-22721009D01*
X4007586Y-22721010D01*
X4007588Y-22721011D01*
X4133111Y-22793482D01*
X4133112Y-22793482D01*
X4133115Y-22793484D01*
X4273125Y-22831000D01*
X4273128Y-22831000D01*
X4418072Y-22831000D01*
X4418075Y-22831000D01*
X4558085Y-22793484D01*
X4683615Y-22721009D01*
X4737305Y-22667319D01*
X4798628Y-22633834D01*
X4824986Y-22631000D01*
X10128156Y-22631000D01*
X10195195Y-22650685D01*
X10215837Y-22667319D01*
X13073781Y-25525263D01*
X13107266Y-25586586D01*
X13110100Y-25612944D01*
X13110100Y-25688875D01*
X13144318Y-25816575D01*
X13147617Y-25828888D01*
X13220088Y-25954411D01*
X13220090Y-25954413D01*
X13220091Y-25954415D01*
X13322585Y-26056909D01*
X13322586Y-26056910D01*
X13322588Y-26056911D01*
X13448111Y-26129382D01*
X13448112Y-26129382D01*
X13448115Y-26129384D01*
X13588125Y-26166900D01*
X13588128Y-26166900D01*
X13733072Y-26166900D01*
X13733075Y-26166900D01*
X13873085Y-26129384D01*
X13998615Y-26056909D01*
X14052305Y-26003219D01*
X14113628Y-25969734D01*
X14139986Y-25966900D01*
X41574614Y-25966900D01*
X41641653Y-25986585D01*
X41662295Y-26003219D01*
X41715985Y-26056909D01*
X41715986Y-26056910D01*
X41715988Y-26056911D01*
X41841511Y-26129382D01*
X41841512Y-26129382D01*
X41841515Y-26129384D01*
X41981525Y-26166900D01*
X41981528Y-26166900D01*
X42126473Y-26166900D01*
X42126475Y-26166900D01*
X42213236Y-26143652D01*
X42283084Y-26145314D01*
X42340947Y-26184475D01*
X42368452Y-26248704D01*
X42356866Y-26317606D01*
X42333010Y-26351107D01*
X37837537Y-30846581D01*
X37776214Y-30880066D01*
X37749856Y-30882900D01*
X25795086Y-30882900D01*
X25728047Y-30863215D01*
X25707405Y-30846581D01*
X25653717Y-30792893D01*
X25653711Y-30792888D01*
X25528188Y-30720417D01*
X25528189Y-30720417D01*
X25516706Y-30717340D01*
X25388175Y-30682900D01*
X25243225Y-30682900D01*
X25114693Y-30717340D01*
X25103211Y-30720417D01*
X24977688Y-30792888D01*
X24977682Y-30792893D01*
X24875193Y-30895382D01*
X24875188Y-30895388D01*
X24802717Y-31020911D01*
X24802716Y-31020915D01*
X24765200Y-31160925D01*
X24765200Y-31305875D01*
X24802716Y-31445885D01*
X24802717Y-31445888D01*
X24875188Y-31571411D01*
X24875190Y-31571413D01*
X24875191Y-31571415D01*
X24977685Y-31673909D01*
X24977686Y-31673910D01*
X24977688Y-31673911D01*
X25103211Y-31746382D01*
X25103212Y-31746382D01*
X25103215Y-31746384D01*
X25243225Y-31783900D01*
X25243228Y-31783900D01*
X25388172Y-31783900D01*
X25388175Y-31783900D01*
X25528185Y-31746384D01*
X25653715Y-31673909D01*
X25707405Y-31620219D01*
X25768728Y-31586734D01*
X25795086Y-31583900D01*
X37992542Y-31583900D01*
X37992544Y-31583900D01*
X38081688Y-31560014D01*
X38092312Y-31553880D01*
X38161612Y-31513870D01*
X42694755Y-26980725D01*
X42756076Y-26947242D01*
X42825768Y-26952226D01*
X42881701Y-26994098D01*
X42889818Y-27006403D01*
X42921291Y-27060915D01*
X43023785Y-27163409D01*
X43068900Y-27189456D01*
X43117115Y-27240023D01*
X43130900Y-27296843D01*
X43130900Y-39634600D01*
X43111215Y-39701639D01*
X43058411Y-39747394D01*
X43006900Y-39758600D01*
X13420626Y-39758600D01*
X13358627Y-39741987D01*
X13239685Y-39673316D01*
X13099675Y-39635800D01*
X12954725Y-39635800D01*
X12832360Y-39668588D01*
X12814711Y-39673317D01*
X12689188Y-39745788D01*
X12689182Y-39745793D01*
X12586693Y-39848282D01*
X12586688Y-39848288D01*
X12514217Y-39973811D01*
X12514216Y-39973815D01*
X12476700Y-40113825D01*
X12476700Y-40258775D01*
X12493531Y-40321588D01*
X12514217Y-40398788D01*
X12586688Y-40524311D01*
X12586690Y-40524313D01*
X12586691Y-40524315D01*
X12689185Y-40626809D01*
X12689186Y-40626810D01*
X12689188Y-40626811D01*
X12814711Y-40699282D01*
X12814712Y-40699282D01*
X12814715Y-40699284D01*
X12954725Y-40736800D01*
X12954728Y-40736800D01*
X13099672Y-40736800D01*
X13099675Y-40736800D01*
X13239685Y-40699284D01*
X13365215Y-40626809D01*
X13467709Y-40524315D01*
X13469277Y-40521598D01*
X13471199Y-40519765D01*
X13472659Y-40517864D01*
X13472955Y-40518091D01*
X13519845Y-40473384D01*
X13576664Y-40459600D01*
X41357156Y-40459600D01*
X41424195Y-40479285D01*
X41469950Y-40532089D01*
X41479894Y-40601247D01*
X41450869Y-40664803D01*
X41444837Y-40671281D01*
X32185981Y-49930137D01*
X32124658Y-49963622D01*
X32054966Y-49958638D01*
X32010619Y-49930137D01*
X31594213Y-49513731D01*
X31594208Y-49513727D01*
X31514290Y-49467587D01*
X31514289Y-49467586D01*
X31514288Y-49467586D01*
X31425144Y-49443700D01*
X21061356Y-49443700D01*
X20972212Y-49467586D01*
X20972209Y-49467587D01*
X20892291Y-49513727D01*
X20892286Y-49513731D01*
X19981634Y-50424383D01*
X19920311Y-50457868D01*
X19850619Y-50452884D01*
X19794686Y-50411012D01*
X19779392Y-50384155D01*
X19753704Y-50322139D01*
X19749573Y-50315957D01*
X19711298Y-50258673D01*
X19660626Y-50182837D01*
X19542162Y-50064373D01*
X19402860Y-49971295D01*
X19248082Y-49907184D01*
X19248074Y-49907182D01*
X19083771Y-49874500D01*
X19083767Y-49874500D01*
X18916233Y-49874500D01*
X18916228Y-49874500D01*
X18751925Y-49907182D01*
X18751917Y-49907184D01*
X18597139Y-49971295D01*
X18457837Y-50064373D01*
X18339373Y-50182837D01*
X18246295Y-50322139D01*
X18182184Y-50476917D01*
X18182182Y-50476925D01*
X18149500Y-50641228D01*
X18149500Y-51358771D01*
X18182182Y-51523074D01*
X18182184Y-51523082D01*
X18240691Y-51664330D01*
X18243474Y-51671047D01*
X18250943Y-51740516D01*
X18219668Y-51802995D01*
X18159579Y-51838648D01*
X18128913Y-51842500D01*
X17871087Y-51842500D01*
X17804048Y-51822815D01*
X17758293Y-51770011D01*
X17748349Y-51700853D01*
X17756526Y-51671047D01*
X17817816Y-51523082D01*
X17850500Y-51358767D01*
X17850500Y-50641233D01*
X17817816Y-50476918D01*
X17753703Y-50322137D01*
X17711298Y-50258673D01*
X17660626Y-50182837D01*
X17542162Y-50064373D01*
X17402860Y-49971295D01*
X17248082Y-49907184D01*
X17248074Y-49907182D01*
X17083771Y-49874500D01*
X17083767Y-49874500D01*
X16916233Y-49874500D01*
X16916228Y-49874500D01*
X16751925Y-49907182D01*
X16751917Y-49907184D01*
X16597139Y-49971295D01*
X16457837Y-50064373D01*
X16339373Y-50182837D01*
X16246295Y-50322139D01*
X16182184Y-50476917D01*
X16182182Y-50476923D01*
X16163562Y-50570532D01*
X16158328Y-50580537D01*
X16157317Y-50591786D01*
X16142424Y-50610941D01*
X16131177Y-50632443D01*
X16121362Y-50638031D01*
X16114432Y-50646946D01*
X16091549Y-50655008D01*
X16070461Y-50667017D01*
X16057475Y-50667014D01*
X16048533Y-50670165D01*
X16018362Y-50667006D01*
X16013381Y-50667005D01*
X16011602Y-50666583D01*
X15947844Y-50649500D01*
X15939433Y-50649500D01*
X15925345Y-50646165D01*
X15907061Y-50635743D01*
X15886870Y-50629815D01*
X15877317Y-50618791D01*
X15864643Y-50611567D01*
X15854895Y-50592914D01*
X15841115Y-50577011D01*
X15832292Y-50549691D01*
X15817817Y-50476925D01*
X15817817Y-50476923D01*
X15817816Y-50476918D01*
X15753703Y-50322137D01*
X15711298Y-50258673D01*
X15660626Y-50182837D01*
X15542162Y-50064373D01*
X15402860Y-49971295D01*
X15248082Y-49907184D01*
X15248074Y-49907182D01*
X15083771Y-49874500D01*
X15083767Y-49874500D01*
X14916233Y-49874500D01*
X14916228Y-49874500D01*
X14751925Y-49907182D01*
X14751917Y-49907184D01*
X14597139Y-49971295D01*
X14457837Y-50064373D01*
X14339373Y-50182837D01*
X14246295Y-50322139D01*
X14188560Y-50461525D01*
X14144719Y-50515928D01*
X14078425Y-50537993D01*
X14010725Y-50520714D01*
X13963115Y-50469576D01*
X13949999Y-50414072D01*
X13949999Y-50335675D01*
X13934557Y-50218371D01*
X13934555Y-50218366D01*
X13874100Y-50072414D01*
X13777924Y-49947075D01*
X13652586Y-49850899D01*
X13506634Y-49790445D01*
X13506630Y-49790444D01*
X13389330Y-49775000D01*
X13175000Y-49775000D01*
X13175000Y-50668023D01*
X13144745Y-50650556D01*
X13049370Y-50625000D01*
X12950630Y-50625000D01*
X12855255Y-50650556D01*
X12825000Y-50668023D01*
X12825000Y-49775000D01*
X12610675Y-49775000D01*
X12493371Y-49790442D01*
X12493366Y-49790444D01*
X12347414Y-49850899D01*
X12222075Y-49947075D01*
X12125899Y-50072413D01*
X12065445Y-50218365D01*
X12065444Y-50218369D01*
X12050000Y-50335669D01*
X12050000Y-50825000D01*
X12668024Y-50825000D01*
X12650556Y-50855255D01*
X12625000Y-50950630D01*
X12625000Y-51049370D01*
X12650556Y-51144745D01*
X12668024Y-51175000D01*
X12050001Y-51175000D01*
X12050001Y-51664324D01*
X12065442Y-51781628D01*
X12065444Y-51781633D01*
X12125899Y-51927585D01*
X12222075Y-52052924D01*
X12347413Y-52149100D01*
X12493365Y-52209554D01*
X12493369Y-52209555D01*
X12610676Y-52224999D01*
X12824999Y-52224999D01*
X12825000Y-52224998D01*
X12825000Y-51331976D01*
X12855255Y-51349444D01*
X12950630Y-51375000D01*
X13049370Y-51375000D01*
X13144745Y-51349444D01*
X13175000Y-51331976D01*
X13175000Y-52224999D01*
X13389324Y-52224999D01*
X13506628Y-52209557D01*
X13506633Y-52209555D01*
X13652585Y-52149100D01*
X13777924Y-52052924D01*
X13874100Y-51927586D01*
X13934554Y-51781634D01*
X13934555Y-51781630D01*
X13949999Y-51664330D01*
X13949999Y-51585931D01*
X13969683Y-51518891D01*
X14022486Y-51473135D01*
X14091645Y-51463191D01*
X14155201Y-51492215D01*
X14188560Y-51538476D01*
X14246295Y-51677860D01*
X14339373Y-51817162D01*
X14457837Y-51935626D01*
X14550494Y-51997537D01*
X14597137Y-52028703D01*
X14751918Y-52092816D01*
X14914800Y-52125215D01*
X14916228Y-52125499D01*
X14916232Y-52125500D01*
X14916233Y-52125500D01*
X15083768Y-52125500D01*
X15083769Y-52125499D01*
X15248082Y-52092816D01*
X15402863Y-52028703D01*
X15542162Y-51935626D01*
X15572422Y-51905365D01*
X15633743Y-51871881D01*
X15703435Y-51876865D01*
X15747784Y-51905366D01*
X16315888Y-52473470D01*
X16395812Y-52519614D01*
X16484956Y-52543500D01*
X16484958Y-52543500D01*
X27629742Y-52543500D01*
X27629744Y-52543500D01*
X27718888Y-52519614D01*
X27752864Y-52499998D01*
X59000000Y-52499998D01*
X59000000Y-52500001D01*
X59085184Y-53147045D01*
X59085185Y-53147047D01*
X59334936Y-53750000D01*
X59732233Y-54267766D01*
X60250000Y-54665063D01*
X60852952Y-54914814D01*
X61176476Y-54957407D01*
X61499999Y-55000000D01*
X61500000Y-55000000D01*
X61500001Y-55000000D01*
X61715682Y-54971604D01*
X62147047Y-54914814D01*
X62750000Y-54665063D01*
X63267766Y-54267766D01*
X63665063Y-53750000D01*
X63914814Y-53147047D01*
X64000000Y-52500000D01*
X63914814Y-51852952D01*
X63665063Y-51250000D01*
X63267766Y-50732233D01*
X62750000Y-50334936D01*
X62749995Y-50334934D01*
X62147047Y-50085185D01*
X62147045Y-50085184D01*
X61500001Y-50000000D01*
X61499999Y-50000000D01*
X60852953Y-50085184D01*
X60852951Y-50085185D01*
X60250002Y-50334934D01*
X59732233Y-50732233D01*
X59334934Y-51250002D01*
X59085185Y-51852951D01*
X59085184Y-51852953D01*
X59000000Y-52499998D01*
X27752864Y-52499998D01*
X27798812Y-52473470D01*
X28313238Y-51959043D01*
X28374559Y-51925560D01*
X28444250Y-51930544D01*
X28469807Y-51943623D01*
X28597137Y-52028703D01*
X28751918Y-52092816D01*
X28914800Y-52125215D01*
X28916228Y-52125499D01*
X28916232Y-52125500D01*
X28916233Y-52125500D01*
X29083768Y-52125500D01*
X29083769Y-52125499D01*
X29248082Y-52092816D01*
X29402863Y-52028703D01*
X29542162Y-51935626D01*
X29660626Y-51817162D01*
X29753703Y-51677863D01*
X29817816Y-51523082D01*
X29850500Y-51358767D01*
X29850500Y-50641233D01*
X29817816Y-50476918D01*
X29753703Y-50322137D01*
X29751372Y-50316509D01*
X29753932Y-50315448D01*
X29742149Y-50258673D01*
X29767190Y-50193445D01*
X29823521Y-50152110D01*
X29865743Y-50144700D01*
X30134257Y-50144700D01*
X30201296Y-50164385D01*
X30247051Y-50217189D01*
X30256995Y-50286347D01*
X30247296Y-50315957D01*
X30248628Y-50316509D01*
X30182184Y-50476917D01*
X30182182Y-50476925D01*
X30149500Y-50641228D01*
X30149500Y-51358771D01*
X30182182Y-51523074D01*
X30182184Y-51523082D01*
X30246295Y-51677860D01*
X30339373Y-51817162D01*
X30457837Y-51935626D01*
X30550494Y-51997537D01*
X30597137Y-52028703D01*
X30751918Y-52092816D01*
X30914800Y-52125215D01*
X30916228Y-52125499D01*
X30916232Y-52125500D01*
X30916233Y-52125500D01*
X31083768Y-52125500D01*
X31083769Y-52125499D01*
X31248082Y-52092816D01*
X31402863Y-52028703D01*
X31542162Y-51935626D01*
X31660626Y-51817162D01*
X31753703Y-51677863D01*
X31817816Y-51523082D01*
X31836437Y-51429468D01*
X31841670Y-51419462D01*
X31842682Y-51408212D01*
X31857575Y-51389056D01*
X31868821Y-51367557D01*
X31878635Y-51361967D01*
X31885568Y-51353052D01*
X31908453Y-51344988D01*
X31929537Y-51332983D01*
X31942522Y-51332985D01*
X31951467Y-51329834D01*
X31981638Y-51332993D01*
X31986619Y-51332994D01*
X31988366Y-51333407D01*
X32052156Y-51350500D01*
X32060568Y-51350500D01*
X32074656Y-51353835D01*
X32092939Y-51364256D01*
X32113130Y-51370185D01*
X32122682Y-51381209D01*
X32135358Y-51388434D01*
X32145105Y-51407086D01*
X32158885Y-51422989D01*
X32167708Y-51450309D01*
X32182182Y-51523074D01*
X32182184Y-51523082D01*
X32246295Y-51677860D01*
X32339373Y-51817162D01*
X32457837Y-51935626D01*
X32550494Y-51997537D01*
X32597137Y-52028703D01*
X32751918Y-52092816D01*
X32914800Y-52125215D01*
X32916228Y-52125499D01*
X32916232Y-52125500D01*
X32916233Y-52125500D01*
X33083768Y-52125500D01*
X33083769Y-52125499D01*
X33248082Y-52092816D01*
X33402863Y-52028703D01*
X33542162Y-51935626D01*
X33660626Y-51817162D01*
X33753703Y-51677863D01*
X33817816Y-51523082D01*
X33850500Y-51358767D01*
X33850500Y-50641233D01*
X33817816Y-50476918D01*
X33753703Y-50322137D01*
X33711298Y-50258673D01*
X33660626Y-50182837D01*
X33542162Y-50064373D01*
X33402860Y-49971295D01*
X33402858Y-49971294D01*
X33385745Y-49964206D01*
X33331341Y-49920365D01*
X33309276Y-49854071D01*
X33326555Y-49786372D01*
X33345512Y-49761968D01*
X41819963Y-41287519D01*
X41881286Y-41254034D01*
X41907644Y-41251200D01*
X46529814Y-41251200D01*
X46596853Y-41270885D01*
X46617495Y-41287519D01*
X46671185Y-41341209D01*
X46671186Y-41341210D01*
X46671188Y-41341211D01*
X46796711Y-41413682D01*
X46796712Y-41413682D01*
X46796715Y-41413684D01*
X46936725Y-41451200D01*
X46936728Y-41451200D01*
X47081672Y-41451200D01*
X47081675Y-41451200D01*
X47221685Y-41413684D01*
X47347215Y-41341209D01*
X47449709Y-41238715D01*
X47522184Y-41113185D01*
X47559700Y-40973175D01*
X47559700Y-40828225D01*
X47522184Y-40688215D01*
X47522182Y-40688211D01*
X47497581Y-40645600D01*
X47481108Y-40577700D01*
X47503961Y-40511673D01*
X47558882Y-40468482D01*
X47604968Y-40459600D01*
X48324614Y-40459600D01*
X48391653Y-40479285D01*
X48412295Y-40495919D01*
X48465985Y-40549609D01*
X48465986Y-40549610D01*
X48465988Y-40549611D01*
X48591511Y-40622082D01*
X48591512Y-40622082D01*
X48591515Y-40622084D01*
X48731525Y-40659600D01*
X48731528Y-40659600D01*
X48876472Y-40659600D01*
X48876475Y-40659600D01*
X49016485Y-40622084D01*
X49142015Y-40549609D01*
X49244509Y-40447115D01*
X49316984Y-40321585D01*
X49354500Y-40181575D01*
X49354500Y-40036625D01*
X49316984Y-39896615D01*
X49289082Y-39848288D01*
X49244511Y-39771088D01*
X49244506Y-39771082D01*
X49142017Y-39668593D01*
X49142011Y-39668588D01*
X49016488Y-39596117D01*
X49016489Y-39596117D01*
X49005006Y-39593040D01*
X48876475Y-39558600D01*
X48731525Y-39558600D01*
X48602993Y-39593040D01*
X48591511Y-39596117D01*
X48465988Y-39668588D01*
X48465982Y-39668593D01*
X48412295Y-39722281D01*
X48350972Y-39755766D01*
X48324614Y-39758600D01*
X43955900Y-39758600D01*
X43888861Y-39738915D01*
X43843106Y-39686111D01*
X43831900Y-39634600D01*
X43831900Y-27042887D01*
X43848514Y-26980885D01*
X43874784Y-26935385D01*
X43912300Y-26795375D01*
X43912300Y-26650425D01*
X43874784Y-26510415D01*
X43802309Y-26384885D01*
X43699815Y-26282391D01*
X43645306Y-26250920D01*
X43597092Y-26200354D01*
X43583870Y-26131746D01*
X43609838Y-26066882D01*
X43619618Y-26055862D01*
X44851363Y-24824119D01*
X44912686Y-24790634D01*
X44939044Y-24787800D01*
X46238914Y-24787800D01*
X46305953Y-24807485D01*
X46326595Y-24824119D01*
X46380285Y-24877809D01*
X46380286Y-24877810D01*
X46380288Y-24877811D01*
X46505811Y-24950282D01*
X46505812Y-24950282D01*
X46505815Y-24950284D01*
X46645825Y-24987800D01*
X46645828Y-24987800D01*
X46790772Y-24987800D01*
X46790775Y-24987800D01*
X46930785Y-24950284D01*
X47056315Y-24877809D01*
X47158809Y-24775315D01*
X47231284Y-24649785D01*
X47268800Y-24509775D01*
X47268800Y-24364825D01*
X47231284Y-24224815D01*
X47192033Y-24156831D01*
X47158811Y-24099288D01*
X47158806Y-24099282D01*
X47056317Y-23996793D01*
X47056311Y-23996788D01*
X46930788Y-23924317D01*
X46930789Y-23924317D01*
X46919306Y-23921240D01*
X46790775Y-23886800D01*
X46645825Y-23886800D01*
X46517293Y-23921240D01*
X46505811Y-23924317D01*
X46380288Y-23996788D01*
X46380282Y-23996793D01*
X46326595Y-24050481D01*
X46265272Y-24083966D01*
X46238914Y-24086800D01*
X44696356Y-24086800D01*
X44607212Y-24110686D01*
X44607209Y-24110687D01*
X44527291Y-24156827D01*
X44527286Y-24156831D01*
X42788707Y-25895410D01*
X42727384Y-25928895D01*
X42657692Y-25923911D01*
X42601759Y-25882039D01*
X42577342Y-25816575D01*
X42581251Y-25775638D01*
X42604500Y-25688875D01*
X42604500Y-25543925D01*
X42566984Y-25403915D01*
X42494509Y-25278385D01*
X42392015Y-25175891D01*
X42392013Y-25175890D01*
X42392011Y-25175888D01*
X42266488Y-25103417D01*
X42266489Y-25103417D01*
X42255006Y-25100340D01*
X42126475Y-25065900D01*
X41981525Y-25065900D01*
X41852993Y-25100340D01*
X41841511Y-25103417D01*
X41715988Y-25175888D01*
X41715982Y-25175893D01*
X41662295Y-25229581D01*
X41600972Y-25263066D01*
X41574614Y-25265900D01*
X14139986Y-25265900D01*
X14072947Y-25246215D01*
X14052305Y-25229581D01*
X13998617Y-25175893D01*
X13998611Y-25175888D01*
X13873088Y-25103417D01*
X13873089Y-25103417D01*
X13861606Y-25100340D01*
X13733075Y-25065900D01*
X13733072Y-25065900D01*
X13657144Y-25065900D01*
X13590105Y-25046215D01*
X13569463Y-25029581D01*
X10539913Y-22000031D01*
X10539908Y-22000027D01*
X10459990Y-21953887D01*
X10459989Y-21953886D01*
X10459988Y-21953886D01*
X10370844Y-21930000D01*
X10370843Y-21930000D01*
X4824986Y-21930000D01*
X4757947Y-21910315D01*
X4751178Y-21905641D01*
X4743799Y-21900175D01*
X4683615Y-21839991D01*
X4588107Y-21784849D01*
X4558088Y-21767517D01*
X4558089Y-21767517D01*
X4546606Y-21764440D01*
X4418075Y-21730000D01*
X4273125Y-21730000D01*
X4144593Y-21764440D01*
X4133111Y-21767517D01*
X4007588Y-21839988D01*
X4007582Y-21839993D01*
X3905093Y-21942482D01*
X3905088Y-21942488D01*
X3832617Y-22068011D01*
X3832616Y-22068015D01*
X3795100Y-22208025D01*
X500500Y-22208025D01*
X500500Y-21689125D01*
X17916000Y-21689125D01*
X17916000Y-21834075D01*
X17945048Y-21942482D01*
X17953517Y-21974088D01*
X18025988Y-22099611D01*
X18025990Y-22099613D01*
X18025991Y-22099615D01*
X18128485Y-22202109D01*
X18128486Y-22202110D01*
X18128488Y-22202111D01*
X18254011Y-22274582D01*
X18254012Y-22274582D01*
X18254015Y-22274584D01*
X18394025Y-22312100D01*
X18394028Y-22312100D01*
X18538972Y-22312100D01*
X18538975Y-22312100D01*
X18678985Y-22274584D01*
X18804515Y-22202109D01*
X18858205Y-22148419D01*
X18919528Y-22114934D01*
X18945886Y-22112100D01*
X35937542Y-22112100D01*
X35937544Y-22112100D01*
X36026688Y-22088214D01*
X36037312Y-22082080D01*
X36106612Y-22042070D01*
X39047363Y-19101319D01*
X39108686Y-19067834D01*
X39135044Y-19065000D01*
X39210972Y-19065000D01*
X39210975Y-19065000D01*
X39350985Y-19027484D01*
X39476515Y-18955009D01*
X39579009Y-18852515D01*
X39651484Y-18726985D01*
X39689000Y-18586975D01*
X39689000Y-18442025D01*
X39651484Y-18302015D01*
X39579009Y-18176485D01*
X39476515Y-18073991D01*
X39476513Y-18073990D01*
X39476511Y-18073988D01*
X39350988Y-18001517D01*
X39350989Y-18001517D01*
X39313657Y-17991514D01*
X39210975Y-17964000D01*
X39066025Y-17964000D01*
X38963343Y-17991514D01*
X38926011Y-18001517D01*
X38800488Y-18073988D01*
X38800482Y-18073993D01*
X38697993Y-18176482D01*
X38697988Y-18176488D01*
X38625517Y-18302011D01*
X38625516Y-18302015D01*
X38588000Y-18442025D01*
X38588000Y-18442027D01*
X38588000Y-18517956D01*
X38568315Y-18584995D01*
X38551681Y-18605637D01*
X35782537Y-21374781D01*
X35721214Y-21408266D01*
X35694856Y-21411100D01*
X18945886Y-21411100D01*
X18878847Y-21391415D01*
X18858205Y-21374781D01*
X18804517Y-21321093D01*
X18804511Y-21321088D01*
X18678988Y-21248617D01*
X18678989Y-21248617D01*
X18667506Y-21245540D01*
X18538975Y-21211100D01*
X18394025Y-21211100D01*
X18265493Y-21245540D01*
X18254011Y-21248617D01*
X18128488Y-21321088D01*
X18128482Y-21321093D01*
X18025993Y-21423582D01*
X18025988Y-21423588D01*
X17953517Y-21549111D01*
X17953516Y-21549115D01*
X17916000Y-21689125D01*
X500500Y-21689125D01*
X500500Y-3499998D01*
X1000000Y-3499998D01*
X1000000Y-3500001D01*
X1085184Y-4147045D01*
X1085185Y-4147047D01*
X1262514Y-4575159D01*
X1334936Y-4750000D01*
X1732233Y-5267766D01*
X2250000Y-5665063D01*
X2852952Y-5914814D01*
X3176476Y-5957407D01*
X3499999Y-6000000D01*
X3500000Y-6000000D01*
X3500001Y-6000000D01*
X3743571Y-5967933D01*
X4147047Y-5914814D01*
X4750000Y-5665063D01*
X5267766Y-5267766D01*
X5665063Y-4750000D01*
X5792588Y-4442126D01*
X5836428Y-4387725D01*
X5902722Y-4365660D01*
X5970421Y-4382939D01*
X6018032Y-4434076D01*
X6021708Y-4442127D01*
X6024031Y-4447735D01*
X6024033Y-4447739D01*
X6024034Y-4447740D01*
X6079399Y-4530601D01*
X6146086Y-4575159D01*
X6162260Y-4585966D01*
X6162264Y-4585967D01*
X6235321Y-4600499D01*
X6235324Y-4600500D01*
X6235326Y-4600500D01*
X7984676Y-4600500D01*
X7984677Y-4600499D01*
X8057740Y-4585966D01*
X8140601Y-4530601D01*
X8195966Y-4447740D01*
X8195966Y-4447739D01*
X8202751Y-4437585D01*
X8205942Y-4439717D01*
X8236088Y-4402305D01*
X8302381Y-4380236D01*
X8370082Y-4397512D01*
X8394495Y-4416476D01*
X8844931Y-4866912D01*
X8910188Y-4932169D01*
X8928676Y-4942843D01*
X8963436Y-4962913D01*
X9011651Y-5013480D01*
X9024873Y-5082087D01*
X8998905Y-5146952D01*
X8974322Y-5170615D01*
X8972884Y-5171661D01*
X8933070Y-5200587D01*
X8810588Y-5323069D01*
X8810588Y-5323070D01*
X8810586Y-5323072D01*
X8796660Y-5342240D01*
X8708768Y-5463211D01*
X8627966Y-5621795D01*
X8579991Y-5672591D01*
X8517481Y-5689500D01*
X8242519Y-5689500D01*
X8175480Y-5669815D01*
X8132034Y-5621795D01*
X8062689Y-5485698D01*
X8051232Y-5463212D01*
X7949414Y-5323072D01*
X7826928Y-5200586D01*
X7686788Y-5098768D01*
X7532445Y-5020127D01*
X7367701Y-4966598D01*
X7367699Y-4966597D01*
X7367698Y-4966597D01*
X7236271Y-4945781D01*
X7196611Y-4939500D01*
X7023389Y-4939500D01*
X6983728Y-4945781D01*
X6852302Y-4966597D01*
X6687552Y-5020128D01*
X6533211Y-5098768D01*
X6459177Y-5152558D01*
X6393072Y-5200586D01*
X6393070Y-5200588D01*
X6393069Y-5200588D01*
X6270588Y-5323069D01*
X6270588Y-5323070D01*
X6270586Y-5323072D01*
X6256660Y-5342240D01*
X6168768Y-5463211D01*
X6090128Y-5617552D01*
X6036597Y-5782302D01*
X6026349Y-5847007D01*
X6009500Y-5953389D01*
X6009500Y-6126611D01*
X6012844Y-6147722D01*
X6036597Y-6297697D01*
X6036597Y-6297699D01*
X6036598Y-6297701D01*
X6090127Y-6462445D01*
X6168768Y-6616788D01*
X6270586Y-6756928D01*
X6393072Y-6879414D01*
X6533212Y-6981232D01*
X6687555Y-7059873D01*
X6852299Y-7113402D01*
X7023389Y-7140500D01*
X7023390Y-7140500D01*
X7196610Y-7140500D01*
X7196611Y-7140500D01*
X7367701Y-7113402D01*
X7532445Y-7059873D01*
X7686788Y-6981232D01*
X7826928Y-6879414D01*
X7949414Y-6756928D01*
X8051232Y-6616788D01*
X8109289Y-6502844D01*
X8132034Y-6458205D01*
X8180009Y-6407409D01*
X8242519Y-6390500D01*
X8517481Y-6390500D01*
X8584520Y-6410185D01*
X8627966Y-6458205D01*
X8664470Y-6529848D01*
X8708768Y-6616788D01*
X8810586Y-6756928D01*
X8933072Y-6879414D01*
X9073212Y-6981232D01*
X9227555Y-7059873D01*
X9392299Y-7113402D01*
X9563389Y-7140500D01*
X9563390Y-7140500D01*
X9736610Y-7140500D01*
X9736611Y-7140500D01*
X9907701Y-7113402D01*
X10072445Y-7059873D01*
X10226788Y-6981232D01*
X10269915Y-6949898D01*
X10335719Y-6926418D01*
X10403773Y-6942243D01*
X10452469Y-6992348D01*
X10466800Y-7050216D01*
X10466800Y-11449783D01*
X10447115Y-11516822D01*
X10394311Y-11562577D01*
X10325153Y-11572521D01*
X10269914Y-11550101D01*
X10226788Y-11518768D01*
X10072447Y-11440128D01*
X10072446Y-11440127D01*
X10072445Y-11440127D01*
X9907701Y-11386598D01*
X9907699Y-11386597D01*
X9907698Y-11386597D01*
X9767820Y-11364443D01*
X9736611Y-11359500D01*
X9563389Y-11359500D01*
X9532180Y-11364443D01*
X9392302Y-11386597D01*
X9227552Y-11440128D01*
X9073211Y-11518768D01*
X9011545Y-11563572D01*
X8933072Y-11620586D01*
X8933070Y-11620588D01*
X8933069Y-11620588D01*
X8810588Y-11743069D01*
X8810588Y-11743070D01*
X8810586Y-11743072D01*
X8766859Y-11803256D01*
X8708768Y-11883211D01*
X8630128Y-12037552D01*
X8576597Y-12202302D01*
X8576597Y-12202304D01*
X8549500Y-12373389D01*
X8549500Y-12546611D01*
X8576598Y-12717701D01*
X8630127Y-12882445D01*
X8708768Y-13036788D01*
X8810586Y-13176928D01*
X8933072Y-13299414D01*
X9073212Y-13401232D01*
X9227555Y-13479873D01*
X9392299Y-13533402D01*
X9563389Y-13560500D01*
X9563390Y-13560500D01*
X9736610Y-13560500D01*
X9736611Y-13560500D01*
X9907701Y-13533402D01*
X10072445Y-13479873D01*
X10226788Y-13401232D01*
X10269915Y-13369898D01*
X10335719Y-13346418D01*
X10403773Y-13362243D01*
X10452469Y-13412348D01*
X10466800Y-13470216D01*
X10466800Y-13989783D01*
X10447115Y-14056822D01*
X10394311Y-14102577D01*
X10325153Y-14112521D01*
X10269914Y-14090101D01*
X10226788Y-14058768D01*
X10072447Y-13980128D01*
X10072446Y-13980127D01*
X10072445Y-13980127D01*
X9907701Y-13926598D01*
X9907699Y-13926597D01*
X9907698Y-13926597D01*
X9776271Y-13905781D01*
X9736611Y-13899500D01*
X9563389Y-13899500D01*
X9523728Y-13905781D01*
X9392302Y-13926597D01*
X9227552Y-13980128D01*
X9073211Y-14058768D01*
X8993366Y-14116780D01*
X8933072Y-14160586D01*
X8933070Y-14160588D01*
X8933069Y-14160588D01*
X8810588Y-14283069D01*
X8810588Y-14283070D01*
X8810586Y-14283072D01*
X8774576Y-14332635D01*
X8708768Y-14423211D01*
X8630128Y-14577552D01*
X8576597Y-14742302D01*
X8556472Y-14869367D01*
X8526543Y-14932502D01*
X8467231Y-14969433D01*
X8397369Y-14968435D01*
X8339136Y-14929825D01*
X8311022Y-14865861D01*
X8309999Y-14849969D01*
X8309999Y-14116782D01*
X8300087Y-14048750D01*
X8248784Y-13943808D01*
X8166188Y-13861212D01*
X8061251Y-13809912D01*
X8061248Y-13809911D01*
X7993220Y-13800000D01*
X7260031Y-13800000D01*
X7192992Y-13780315D01*
X7147237Y-13727511D01*
X7137293Y-13658353D01*
X7166318Y-13594797D01*
X7225096Y-13557023D01*
X7240627Y-13553528D01*
X7326913Y-13539862D01*
X7367696Y-13533403D01*
X7367696Y-13533402D01*
X7367701Y-13533402D01*
X7532445Y-13479873D01*
X7686788Y-13401232D01*
X7826928Y-13299414D01*
X7949414Y-13176928D01*
X8051232Y-13036788D01*
X8129873Y-12882445D01*
X8183402Y-12717701D01*
X8210500Y-12546611D01*
X8210500Y-12373389D01*
X8183402Y-12202299D01*
X8129873Y-12037555D01*
X8051232Y-11883212D01*
X7949414Y-11743072D01*
X7826928Y-11620586D01*
X7686788Y-11518768D01*
X7532445Y-11440127D01*
X7367701Y-11386598D01*
X7367699Y-11386597D01*
X7367698Y-11386597D01*
X7227820Y-11364443D01*
X7196611Y-11359500D01*
X7023389Y-11359500D01*
X6992180Y-11364443D01*
X6852302Y-11386597D01*
X6687552Y-11440128D01*
X6533211Y-11518768D01*
X6471545Y-11563572D01*
X6393072Y-11620586D01*
X6393070Y-11620588D01*
X6393069Y-11620588D01*
X6270588Y-11743069D01*
X6270588Y-11743070D01*
X6270586Y-11743072D01*
X6226859Y-11803256D01*
X6168768Y-11883211D01*
X6090128Y-12037552D01*
X6036597Y-12202302D01*
X6036597Y-12202304D01*
X6009500Y-12373389D01*
X6009500Y-12546611D01*
X6036598Y-12717701D01*
X6090127Y-12882445D01*
X6168768Y-13036788D01*
X6270586Y-13176928D01*
X6393072Y-13299414D01*
X6533212Y-13401232D01*
X6687555Y-13479873D01*
X6852299Y-13533402D01*
X6852302Y-13533402D01*
X6852303Y-13533403D01*
X6910026Y-13542545D01*
X6979367Y-13553527D01*
X7042501Y-13583456D01*
X7079433Y-13642767D01*
X7078435Y-13712630D01*
X7039826Y-13770862D01*
X6975862Y-13798977D01*
X6959969Y-13800000D01*
X6226782Y-13800000D01*
X6158750Y-13809912D01*
X6053808Y-13861215D01*
X5971212Y-13943811D01*
X5919912Y-14048748D01*
X5919911Y-14048751D01*
X5910000Y-14116780D01*
X5910000Y-14825000D01*
X6639254Y-14825000D01*
X6610000Y-14934174D01*
X6610000Y-15065826D01*
X6639254Y-15175000D01*
X5910001Y-15175000D01*
X5910001Y-15883217D01*
X5919912Y-15951249D01*
X5971215Y-16056191D01*
X6053811Y-16138787D01*
X6158748Y-16190087D01*
X6158751Y-16190088D01*
X6226780Y-16199999D01*
X6934999Y-16199999D01*
X6935000Y-16199998D01*
X6935000Y-15470746D01*
X7044174Y-15500000D01*
X7175826Y-15500000D01*
X7285000Y-15470746D01*
X7285000Y-16199999D01*
X7993218Y-16199999D01*
X8061249Y-16190087D01*
X8166191Y-16138784D01*
X8248787Y-16056188D01*
X8300087Y-15951251D01*
X8300088Y-15951248D01*
X8309999Y-15883219D01*
X8309999Y-15150031D01*
X8329683Y-15082992D01*
X8382487Y-15037237D01*
X8451646Y-15027293D01*
X8515202Y-15056318D01*
X8552976Y-15115096D01*
X8556472Y-15130633D01*
X8563499Y-15175000D01*
X8576598Y-15257701D01*
X8630127Y-15422445D01*
X8708768Y-15576788D01*
X8810586Y-15716928D01*
X8933072Y-15839414D01*
X9073212Y-15941232D01*
X9227555Y-16019873D01*
X9392299Y-16073402D01*
X9563389Y-16100500D01*
X9563390Y-16100500D01*
X9736610Y-16100500D01*
X9736611Y-16100500D01*
X9907701Y-16073402D01*
X10072445Y-16019873D01*
X10226788Y-15941232D01*
X10269915Y-15909898D01*
X10281774Y-15905666D01*
X10291289Y-15897422D01*
X10314053Y-15894148D01*
X10335719Y-15886418D01*
X10347983Y-15889270D01*
X10360447Y-15887478D01*
X10381371Y-15897033D01*
X10403773Y-15902243D01*
X10412547Y-15911271D01*
X10424003Y-15916503D01*
X10436439Y-15935854D01*
X10452469Y-15952348D01*
X10455873Y-15966094D01*
X10461777Y-15975281D01*
X10466800Y-16010216D01*
X10466800Y-16086156D01*
X10447115Y-16153195D01*
X10430481Y-16173837D01*
X10189537Y-16414781D01*
X10128214Y-16448266D01*
X10101856Y-16451100D01*
X10025925Y-16451100D01*
X9904956Y-16483514D01*
X9885911Y-16488617D01*
X9760388Y-16561088D01*
X9760382Y-16561093D01*
X9657893Y-16663582D01*
X9657888Y-16663588D01*
X9585417Y-16789111D01*
X9585416Y-16789115D01*
X9547900Y-16929125D01*
X9547900Y-17074075D01*
X9585245Y-17213445D01*
X9585417Y-17214088D01*
X9657888Y-17339611D01*
X9657890Y-17339613D01*
X9657891Y-17339615D01*
X9760385Y-17442109D01*
X9760386Y-17442110D01*
X9760388Y-17442111D01*
X9885911Y-17514582D01*
X9885912Y-17514582D01*
X9885915Y-17514584D01*
X10025925Y-17552100D01*
X10025928Y-17552100D01*
X10170872Y-17552100D01*
X10170875Y-17552100D01*
X10310885Y-17514584D01*
X10436415Y-17442109D01*
X10538909Y-17339615D01*
X10611384Y-17214085D01*
X10648900Y-17074075D01*
X10648900Y-16998144D01*
X10668585Y-16931105D01*
X10685219Y-16910463D01*
X10883079Y-16712603D01*
X11097770Y-16497912D01*
X11143914Y-16417988D01*
X11156206Y-16372112D01*
X11167800Y-16328844D01*
X11167800Y-15833504D01*
X11187485Y-15766465D01*
X11240289Y-15720710D01*
X11309447Y-15710766D01*
X11373003Y-15739791D01*
X11379481Y-15745823D01*
X11473072Y-15839414D01*
X11613212Y-15941232D01*
X11767555Y-16019873D01*
X11932299Y-16073402D01*
X12103389Y-16100500D01*
X12103390Y-16100500D01*
X12276610Y-16100500D01*
X12276611Y-16100500D01*
X12447701Y-16073402D01*
X12612445Y-16019873D01*
X12766788Y-15941232D01*
X12906928Y-15839414D01*
X13029414Y-15716928D01*
X13131232Y-15576788D01*
X13209873Y-15422445D01*
X13263402Y-15257701D01*
X13290500Y-15086611D01*
X13290500Y-14913389D01*
X13263402Y-14742299D01*
X13209873Y-14577555D01*
X13131232Y-14423212D01*
X13029414Y-14283072D01*
X12906928Y-14160586D01*
X12766788Y-14058768D01*
X12612445Y-13980127D01*
X12447701Y-13926598D01*
X12447699Y-13926597D01*
X12447698Y-13926597D01*
X12316271Y-13905781D01*
X12276611Y-13899500D01*
X12103389Y-13899500D01*
X12063728Y-13905781D01*
X11932302Y-13926597D01*
X11767552Y-13980128D01*
X11613211Y-14058768D01*
X11533366Y-14116780D01*
X11473072Y-14160586D01*
X11473070Y-14160588D01*
X11473069Y-14160588D01*
X11379481Y-14254177D01*
X11318158Y-14287662D01*
X11248466Y-14282678D01*
X11192533Y-14240806D01*
X11168116Y-14175342D01*
X11167800Y-14166496D01*
X11167800Y-13293504D01*
X11187485Y-13226465D01*
X11240289Y-13180710D01*
X11309447Y-13170766D01*
X11373003Y-13199791D01*
X11379481Y-13205823D01*
X11473072Y-13299414D01*
X11613212Y-13401232D01*
X11767555Y-13479873D01*
X11932299Y-13533402D01*
X12103389Y-13560500D01*
X12103390Y-13560500D01*
X12276610Y-13560500D01*
X12276611Y-13560500D01*
X12447701Y-13533402D01*
X12612445Y-13479873D01*
X12766788Y-13401232D01*
X12906928Y-13299414D01*
X13029414Y-13176928D01*
X13131232Y-13036788D01*
X13209873Y-12882445D01*
X13263402Y-12717701D01*
X13290500Y-12546611D01*
X13290500Y-12373389D01*
X13263402Y-12202299D01*
X13209873Y-12037555D01*
X13131232Y-11883212D01*
X13029414Y-11743072D01*
X12906928Y-11620586D01*
X12766788Y-11518768D01*
X12612445Y-11440127D01*
X12447701Y-11386598D01*
X12447699Y-11386597D01*
X12447698Y-11386597D01*
X12307820Y-11364443D01*
X12276611Y-11359500D01*
X12103389Y-11359500D01*
X12072180Y-11364443D01*
X11932302Y-11386597D01*
X11767552Y-11440128D01*
X11613211Y-11518768D01*
X11551545Y-11563572D01*
X11473072Y-11620586D01*
X11473070Y-11620588D01*
X11473069Y-11620588D01*
X11379481Y-11714177D01*
X11318158Y-11747662D01*
X11248466Y-11742678D01*
X11192533Y-11700806D01*
X11168116Y-11635342D01*
X11167800Y-11626496D01*
X11167800Y-6866073D01*
X11187485Y-6799034D01*
X11204119Y-6778392D01*
X11733388Y-6249123D01*
X11789901Y-6347007D01*
X11882993Y-6440099D01*
X11980875Y-6496611D01*
X11474237Y-7003248D01*
X11474237Y-7003249D01*
X11561066Y-7066333D01*
X11729362Y-7152085D01*
X11908997Y-7210451D01*
X12095553Y-7240000D01*
X12284447Y-7240000D01*
X12471002Y-7210451D01*
X12650637Y-7152085D01*
X12818940Y-7066329D01*
X12905761Y-7003251D01*
X12905762Y-7003249D01*
X12399124Y-6496611D01*
X12497007Y-6440099D01*
X12590099Y-6347007D01*
X12646611Y-6249124D01*
X13153249Y-6755762D01*
X13153251Y-6755761D01*
X13216329Y-6668940D01*
X13302085Y-6500637D01*
X13360451Y-6321002D01*
X13387897Y-6147721D01*
X13417826Y-6084586D01*
X13477138Y-6047655D01*
X13547000Y-6048653D01*
X13605233Y-6087263D01*
X13632843Y-6147721D01*
X13656597Y-6297697D01*
X13656597Y-6297699D01*
X13656598Y-6297701D01*
X13710127Y-6462445D01*
X13788768Y-6616788D01*
X13890586Y-6756928D01*
X14013072Y-6879414D01*
X14153212Y-6981232D01*
X14307555Y-7059873D01*
X14472299Y-7113402D01*
X14643389Y-7140500D01*
X14643390Y-7140500D01*
X14816610Y-7140500D01*
X14816611Y-7140500D01*
X14987701Y-7113402D01*
X15152445Y-7059873D01*
X15306788Y-6981232D01*
X15446928Y-6879414D01*
X15569414Y-6756928D01*
X15671232Y-6616788D01*
X15749873Y-6462445D01*
X15803402Y-6297701D01*
X15830500Y-6126611D01*
X15830500Y-5953389D01*
X15803402Y-5782299D01*
X15749873Y-5617555D01*
X15671232Y-5463212D01*
X15569414Y-5323072D01*
X15460223Y-5213881D01*
X15426738Y-5152558D01*
X15431722Y-5082866D01*
X15473594Y-5026933D01*
X15539058Y-5002516D01*
X15547904Y-5002200D01*
X16452096Y-5002200D01*
X16519135Y-5021885D01*
X16564890Y-5074689D01*
X16574834Y-5143847D01*
X16545809Y-5207403D01*
X16539777Y-5213881D01*
X16430588Y-5323069D01*
X16430588Y-5323070D01*
X16430586Y-5323072D01*
X16416660Y-5342240D01*
X16328768Y-5463211D01*
X16250128Y-5617552D01*
X16196597Y-5782302D01*
X16186349Y-5847007D01*
X16169500Y-5953389D01*
X16169500Y-6126611D01*
X16172844Y-6147722D01*
X16196597Y-6297697D01*
X16196597Y-6297699D01*
X16196598Y-6297701D01*
X16250127Y-6462445D01*
X16328768Y-6616788D01*
X16430586Y-6756928D01*
X16553072Y-6879414D01*
X16693212Y-6981232D01*
X16847555Y-7059873D01*
X17012299Y-7113402D01*
X17183389Y-7140500D01*
X17183390Y-7140500D01*
X17356610Y-7140500D01*
X17356611Y-7140500D01*
X17527701Y-7113402D01*
X17692445Y-7059873D01*
X17846788Y-6981232D01*
X17986928Y-6879414D01*
X18109414Y-6756928D01*
X18211232Y-6616788D01*
X18289873Y-6462445D01*
X18343402Y-6297701D01*
X18370500Y-6126611D01*
X18370500Y-5953389D01*
X18343402Y-5782299D01*
X18289873Y-5617555D01*
X18211232Y-5463212D01*
X18109414Y-5323072D01*
X18000223Y-5213881D01*
X17966738Y-5152558D01*
X17971722Y-5082866D01*
X18013594Y-5026933D01*
X18079058Y-5002516D01*
X18087904Y-5002200D01*
X18992096Y-5002200D01*
X19059135Y-5021885D01*
X19104890Y-5074689D01*
X19114834Y-5143847D01*
X19085809Y-5207403D01*
X19079777Y-5213881D01*
X18970588Y-5323069D01*
X18970588Y-5323070D01*
X18970586Y-5323072D01*
X18956660Y-5342240D01*
X18868768Y-5463211D01*
X18790128Y-5617552D01*
X18736597Y-5782302D01*
X18726349Y-5847007D01*
X18709500Y-5953389D01*
X18709500Y-6126611D01*
X18712844Y-6147722D01*
X18736597Y-6297697D01*
X18736597Y-6297699D01*
X18736598Y-6297701D01*
X18790127Y-6462445D01*
X18868768Y-6616788D01*
X18970586Y-6756928D01*
X19093072Y-6879414D01*
X19233212Y-6981232D01*
X19320151Y-7025529D01*
X19387555Y-7059873D01*
X19390674Y-7061165D01*
X19391677Y-7061973D01*
X19391896Y-7062085D01*
X19391872Y-7062130D01*
X19445079Y-7105004D01*
X19467147Y-7171297D01*
X19449870Y-7238997D01*
X19430907Y-7263409D01*
X15282969Y-11411347D01*
X15221646Y-11444832D01*
X15156970Y-11441597D01*
X14987698Y-11386597D01*
X14847820Y-11364443D01*
X14816611Y-11359500D01*
X14643389Y-11359500D01*
X14612180Y-11364443D01*
X14472302Y-11386597D01*
X14307552Y-11440128D01*
X14153211Y-11518768D01*
X14091545Y-11563572D01*
X14013072Y-11620586D01*
X14013070Y-11620588D01*
X14013069Y-11620588D01*
X13890588Y-11743069D01*
X13890588Y-11743070D01*
X13890586Y-11743072D01*
X13846859Y-11803256D01*
X13788768Y-11883211D01*
X13710128Y-12037552D01*
X13656597Y-12202302D01*
X13656597Y-12202304D01*
X13629500Y-12373389D01*
X13629500Y-12546611D01*
X13656598Y-12717701D01*
X13710127Y-12882445D01*
X13788768Y-13036788D01*
X13890586Y-13176928D01*
X14013072Y-13299414D01*
X14153212Y-13401232D01*
X14307555Y-13479873D01*
X14472299Y-13533402D01*
X14643389Y-13560500D01*
X14643390Y-13560500D01*
X14816610Y-13560500D01*
X14816611Y-13560500D01*
X14987701Y-13533402D01*
X15152445Y-13479873D01*
X15306788Y-13401232D01*
X15446928Y-13299414D01*
X15569414Y-13176928D01*
X15671232Y-13036788D01*
X15749873Y-12882445D01*
X15803402Y-12717701D01*
X15830500Y-12546611D01*
X15830500Y-12373389D01*
X15803402Y-12202299D01*
X15749873Y-12037555D01*
X15749869Y-12037547D01*
X15748401Y-12033029D01*
X15746406Y-11963188D01*
X15778649Y-11907031D01*
X19970763Y-7714919D01*
X20032086Y-7681434D01*
X20058444Y-7678600D01*
X24773590Y-7678600D01*
X24840629Y-7698285D01*
X24886384Y-7751089D01*
X24897257Y-7811683D01*
X24896398Y-7823368D01*
X24887300Y-7857325D01*
X24887300Y-7947249D01*
X24886967Y-7951783D01*
X24876226Y-7980412D01*
X24867615Y-8009739D01*
X24864072Y-8012808D01*
X24862425Y-8017200D01*
X24837908Y-8035480D01*
X24814811Y-8055494D01*
X24809523Y-8056644D01*
X24806411Y-8058965D01*
X24795302Y-8059737D01*
X24763300Y-8066700D01*
X20866456Y-8066700D01*
X20777312Y-8090586D01*
X20777311Y-8090586D01*
X20777309Y-8090587D01*
X20777306Y-8090588D01*
X20697394Y-8136726D01*
X20697385Y-8136733D01*
X17503158Y-11330958D01*
X17441835Y-11364443D01*
X17396080Y-11365750D01*
X17356611Y-11359500D01*
X17183389Y-11359500D01*
X17152180Y-11364443D01*
X17012302Y-11386597D01*
X16847552Y-11440128D01*
X16693211Y-11518768D01*
X16631545Y-11563572D01*
X16553072Y-11620586D01*
X16553070Y-11620588D01*
X16553069Y-11620588D01*
X16430588Y-11743069D01*
X16430588Y-11743070D01*
X16430586Y-11743072D01*
X16386859Y-11803256D01*
X16328768Y-11883211D01*
X16250128Y-12037552D01*
X16196597Y-12202302D01*
X16196597Y-12202304D01*
X16169500Y-12373389D01*
X16169500Y-12546611D01*
X16196598Y-12717701D01*
X16250127Y-12882445D01*
X16328768Y-13036788D01*
X16430586Y-13176928D01*
X16553072Y-13299414D01*
X16553078Y-13299418D01*
X16590277Y-13326446D01*
X16632943Y-13381776D01*
X16638921Y-13451390D01*
X16606314Y-13513184D01*
X16605072Y-13514444D01*
X15786883Y-14332635D01*
X15785066Y-14330818D01*
X15738969Y-14364467D01*
X15669223Y-14368612D01*
X15608308Y-14334390D01*
X15596721Y-14320657D01*
X15569416Y-14283075D01*
X15569411Y-14283069D01*
X15446930Y-14160588D01*
X15446928Y-14160586D01*
X15306788Y-14058768D01*
X15152445Y-13980127D01*
X14987701Y-13926598D01*
X14987699Y-13926597D01*
X14987698Y-13926597D01*
X14856271Y-13905781D01*
X14816611Y-13899500D01*
X14643389Y-13899500D01*
X14603728Y-13905781D01*
X14472302Y-13926597D01*
X14307552Y-13980128D01*
X14153211Y-14058768D01*
X14073366Y-14116780D01*
X14013072Y-14160586D01*
X14013070Y-14160588D01*
X14013069Y-14160588D01*
X13890588Y-14283069D01*
X13890588Y-14283070D01*
X13890586Y-14283072D01*
X13854576Y-14332635D01*
X13788768Y-14423211D01*
X13710128Y-14577552D01*
X13656597Y-14742302D01*
X13639545Y-14849969D01*
X13629500Y-14913389D01*
X13629500Y-15086611D01*
X13656598Y-15257701D01*
X13710127Y-15422445D01*
X13788768Y-15576788D01*
X13890586Y-15716928D01*
X14013072Y-15839414D01*
X14153212Y-15941232D01*
X14307555Y-16019873D01*
X14472299Y-16073402D01*
X14643389Y-16100500D01*
X14643390Y-16100500D01*
X14816610Y-16100500D01*
X14816611Y-16100500D01*
X14987701Y-16073402D01*
X15152445Y-16019873D01*
X15306788Y-15941232D01*
X15446928Y-15839414D01*
X15569414Y-15716928D01*
X15586036Y-15694049D01*
X15641362Y-15651385D01*
X15710976Y-15645404D01*
X15772771Y-15678009D01*
X15787390Y-15696782D01*
X15787680Y-15696561D01*
X15792629Y-15703010D01*
X15792630Y-15703012D01*
X16461731Y-16372112D01*
X16526988Y-16437369D01*
X16526991Y-16437370D01*
X16526994Y-16437373D01*
X16606906Y-16483511D01*
X16606907Y-16483511D01*
X16606912Y-16483514D01*
X16696056Y-16507400D01*
X21168157Y-16507400D01*
X21235196Y-16527085D01*
X21280951Y-16579889D01*
X21290895Y-16649047D01*
X21261870Y-16712603D01*
X21255838Y-16719081D01*
X18123537Y-19851381D01*
X18062214Y-19884866D01*
X18035856Y-19887700D01*
X17959925Y-19887700D01*
X17831393Y-19922140D01*
X17819911Y-19925217D01*
X17694388Y-19997688D01*
X17694382Y-19997693D01*
X17591893Y-20100182D01*
X17591888Y-20100188D01*
X17519417Y-20225711D01*
X17519416Y-20225715D01*
X17481900Y-20365725D01*
X17481900Y-20510675D01*
X17519416Y-20650685D01*
X17519417Y-20650688D01*
X17591888Y-20776211D01*
X17591890Y-20776213D01*
X17591891Y-20776215D01*
X17694385Y-20878709D01*
X17694386Y-20878710D01*
X17694388Y-20878711D01*
X17819911Y-20951182D01*
X17819912Y-20951182D01*
X17819915Y-20951184D01*
X17959925Y-20988700D01*
X17959928Y-20988700D01*
X18104872Y-20988700D01*
X18104875Y-20988700D01*
X18244885Y-20951184D01*
X18370415Y-20878709D01*
X18472909Y-20776215D01*
X18545384Y-20650685D01*
X18582900Y-20510675D01*
X18582900Y-20434743D01*
X18602585Y-20367704D01*
X18619219Y-20347062D01*
X21707662Y-17258619D01*
X21768985Y-17225134D01*
X21795343Y-17222300D01*
X24212190Y-17222300D01*
X24279229Y-17241985D01*
X24324984Y-17294789D01*
X24334928Y-17363947D01*
X24331964Y-17378395D01*
X24325900Y-17401023D01*
X24325900Y-17401025D01*
X24325900Y-17545975D01*
X24337934Y-17590885D01*
X24363417Y-17685988D01*
X24435888Y-17811511D01*
X24435890Y-17811513D01*
X24435891Y-17811515D01*
X24538385Y-17914009D01*
X24538386Y-17914010D01*
X24538388Y-17914011D01*
X24663911Y-17986482D01*
X24663912Y-17986482D01*
X24663915Y-17986484D01*
X24803925Y-18024000D01*
X24803928Y-18024000D01*
X24948872Y-18024000D01*
X24948875Y-18024000D01*
X24970551Y-18018191D01*
X25018837Y-18015028D01*
X25021651Y-18015398D01*
X25021656Y-18015400D01*
X25021661Y-18015400D01*
X34510642Y-18015400D01*
X34510644Y-18015400D01*
X34599788Y-17991514D01*
X34608500Y-17986484D01*
X34679468Y-17945511D01*
X34679486Y-17945506D01*
X34741465Y-17928900D01*
X34823472Y-17928900D01*
X34823475Y-17928900D01*
X34963485Y-17891384D01*
X35089015Y-17818909D01*
X35191509Y-17716415D01*
X35263984Y-17590885D01*
X35301500Y-17450875D01*
X35301500Y-17305925D01*
X35295436Y-17283294D01*
X35297098Y-17213445D01*
X35336259Y-17155582D01*
X35400487Y-17128077D01*
X35415210Y-17127200D01*
X36654729Y-17127200D01*
X36721768Y-17146885D01*
X36757678Y-17184545D01*
X36758043Y-17184266D01*
X36760643Y-17187654D01*
X36762114Y-17189197D01*
X36762986Y-17190708D01*
X36762989Y-17190712D01*
X36762991Y-17190715D01*
X36865485Y-17293209D01*
X36865486Y-17293210D01*
X36865488Y-17293211D01*
X36991011Y-17365682D01*
X36991012Y-17365682D01*
X36991015Y-17365684D01*
X37131025Y-17403200D01*
X37131028Y-17403200D01*
X37275972Y-17403200D01*
X37275975Y-17403200D01*
X37415985Y-17365684D01*
X37541515Y-17293209D01*
X37644009Y-17190715D01*
X37716484Y-17065185D01*
X37754000Y-16925175D01*
X37754000Y-16780225D01*
X37722721Y-16663491D01*
X37724384Y-16593644D01*
X37763546Y-16535781D01*
X37827775Y-16508277D01*
X37842496Y-16507400D01*
X45299242Y-16507400D01*
X45299244Y-16507400D01*
X45388388Y-16483514D01*
X45468312Y-16437370D01*
X54817031Y-7088649D01*
X54878352Y-7055166D01*
X54943029Y-7058401D01*
X54947547Y-7059869D01*
X54947555Y-7059873D01*
X55112299Y-7113402D01*
X55283389Y-7140500D01*
X55283390Y-7140500D01*
X55456610Y-7140500D01*
X55456611Y-7140500D01*
X55627701Y-7113402D01*
X55792445Y-7059873D01*
X55946788Y-6981232D01*
X56086928Y-6879414D01*
X56209414Y-6756928D01*
X56311232Y-6616788D01*
X56389873Y-6462445D01*
X56443402Y-6297701D01*
X56470500Y-6126611D01*
X56470500Y-5953389D01*
X56443402Y-5782299D01*
X56389873Y-5617555D01*
X56311232Y-5463212D01*
X56209414Y-5323072D01*
X56086928Y-5200586D01*
X55946788Y-5098768D01*
X55792445Y-5020127D01*
X55627701Y-4966598D01*
X55627699Y-4966597D01*
X55627697Y-4966597D01*
X55477721Y-4942843D01*
X55414586Y-4912914D01*
X55377655Y-4853602D01*
X55378653Y-4783740D01*
X55417263Y-4725507D01*
X55477721Y-4697897D01*
X55651002Y-4670451D01*
X55830637Y-4612085D01*
X55998940Y-4526329D01*
X56085761Y-4463251D01*
X56085762Y-4463249D01*
X55579124Y-3956611D01*
X55677007Y-3900099D01*
X55770099Y-3807007D01*
X55826611Y-3709124D01*
X56333249Y-4215762D01*
X56333251Y-4215761D01*
X56396329Y-4128940D01*
X56482085Y-3960637D01*
X56540451Y-3781002D01*
X56570000Y-3594447D01*
X56570000Y-3499998D01*
X59000000Y-3499998D01*
X59000000Y-3500001D01*
X59085184Y-4147045D01*
X59085185Y-4147047D01*
X59262514Y-4575159D01*
X59334936Y-4750000D01*
X59732233Y-5267766D01*
X60250000Y-5665063D01*
X60852952Y-5914814D01*
X61176476Y-5957407D01*
X61499999Y-6000000D01*
X61500000Y-6000000D01*
X61500001Y-6000000D01*
X61743571Y-5967933D01*
X62147047Y-5914814D01*
X62750000Y-5665063D01*
X63267766Y-5267766D01*
X63665063Y-4750000D01*
X63914814Y-4147047D01*
X63987732Y-3593182D01*
X64000000Y-3500001D01*
X64000000Y-3499998D01*
X63934593Y-3003188D01*
X63914814Y-2852952D01*
X63665063Y-2249999D01*
X63267766Y-1732233D01*
X62750000Y-1334936D01*
X62749995Y-1334934D01*
X62147047Y-1085185D01*
X62147045Y-1085184D01*
X61500001Y-1000000D01*
X61499999Y-1000000D01*
X60852953Y-1085184D01*
X60852951Y-1085185D01*
X60250002Y-1334934D01*
X59732233Y-1732233D01*
X59334934Y-2250002D01*
X59085185Y-2852951D01*
X59085184Y-2852953D01*
X59000000Y-3499998D01*
X56570000Y-3499998D01*
X56570000Y-3405552D01*
X56540451Y-3218997D01*
X56482085Y-3039362D01*
X56396333Y-2871066D01*
X56333249Y-2784237D01*
X55826611Y-3290875D01*
X55770099Y-3192993D01*
X55677007Y-3099901D01*
X55579123Y-3043388D01*
X56085761Y-2536749D01*
X55998933Y-2473666D01*
X55830637Y-2387914D01*
X55651002Y-2329548D01*
X55464447Y-2300000D01*
X55275553Y-2300000D01*
X55088997Y-2329548D01*
X54909362Y-2387914D01*
X54741064Y-2473667D01*
X54741062Y-2473668D01*
X54654237Y-2536748D01*
X54654237Y-2536749D01*
X55160876Y-3043388D01*
X55062993Y-3099901D01*
X54969901Y-3192993D01*
X54913388Y-3290876D01*
X54406749Y-2784237D01*
X54406748Y-2784237D01*
X54343668Y-2871062D01*
X54343667Y-2871064D01*
X54257914Y-3039362D01*
X54199548Y-3218997D01*
X54172102Y-3392279D01*
X54142172Y-3455413D01*
X54082861Y-3492344D01*
X54012998Y-3491346D01*
X53954766Y-3452736D01*
X53927156Y-3392277D01*
X53922171Y-3360805D01*
X53917978Y-3334331D01*
X53903403Y-3242303D01*
X53903402Y-3242302D01*
X53903402Y-3242301D01*
X53903402Y-3242299D01*
X53849873Y-3077555D01*
X53771232Y-2923212D01*
X53669414Y-2783072D01*
X53546928Y-2660586D01*
X53406788Y-2558768D01*
X53252445Y-2480127D01*
X53087701Y-2426598D01*
X53087699Y-2426597D01*
X53087698Y-2426597D01*
X52956271Y-2405781D01*
X52916611Y-2399500D01*
X52743389Y-2399500D01*
X52703728Y-2405781D01*
X52572302Y-2426597D01*
X52407552Y-2480128D01*
X52253211Y-2558768D01*
X52179563Y-2612277D01*
X52113072Y-2660586D01*
X52113070Y-2660588D01*
X52113069Y-2660588D01*
X51990588Y-2783069D01*
X51990588Y-2783070D01*
X51990586Y-2783072D01*
X51966321Y-2816470D01*
X51888768Y-2923211D01*
X51810128Y-3077552D01*
X51756597Y-3242302D01*
X51732844Y-3392277D01*
X51729500Y-3413389D01*
X51729500Y-3586611D01*
X51732844Y-3607722D01*
X51756597Y-3757698D01*
X51811597Y-3926970D01*
X51813592Y-3996811D01*
X51781347Y-4052969D01*
X51279531Y-4554786D01*
X51279527Y-4554791D01*
X51248906Y-4607830D01*
X51248906Y-4607831D01*
X51233386Y-4634710D01*
X51209500Y-4723856D01*
X51209500Y-5104622D01*
X51189815Y-5171661D01*
X51137011Y-5217416D01*
X51067853Y-5227360D01*
X51011888Y-5202046D01*
X51010869Y-5203450D01*
X51006930Y-5200588D01*
X51006928Y-5200586D01*
X50866788Y-5098768D01*
X50712445Y-5020127D01*
X50547701Y-4966598D01*
X50547699Y-4966597D01*
X50547698Y-4966597D01*
X50416271Y-4945781D01*
X50376611Y-4939500D01*
X50203389Y-4939500D01*
X50163728Y-4945781D01*
X50032302Y-4966597D01*
X49867552Y-5020128D01*
X49713211Y-5098768D01*
X49639177Y-5152558D01*
X49573072Y-5200586D01*
X49573070Y-5200588D01*
X49573069Y-5200588D01*
X49450588Y-5323069D01*
X49450588Y-5323070D01*
X49450586Y-5323072D01*
X49436660Y-5342240D01*
X49348768Y-5463211D01*
X49270128Y-5617552D01*
X49216597Y-5782302D01*
X49192843Y-5932278D01*
X49162914Y-5995413D01*
X49103602Y-6032344D01*
X49033739Y-6031346D01*
X48975507Y-5992736D01*
X48947897Y-5932278D01*
X48920451Y-5758997D01*
X48862085Y-5579362D01*
X48776331Y-5411062D01*
X48753753Y-5379986D01*
X48730273Y-5314179D01*
X48746098Y-5246126D01*
X48796204Y-5197431D01*
X48854071Y-5183100D01*
X49003542Y-5183100D01*
X49003544Y-5183100D01*
X49092688Y-5159214D01*
X49172612Y-5113070D01*
X49737031Y-4548649D01*
X49798352Y-4515166D01*
X49863029Y-4518401D01*
X49867547Y-4519869D01*
X49867555Y-4519873D01*
X50032299Y-4573402D01*
X50203389Y-4600500D01*
X50203390Y-4600500D01*
X50376610Y-4600500D01*
X50376611Y-4600500D01*
X50547701Y-4573402D01*
X50712445Y-4519873D01*
X50866788Y-4441232D01*
X51006928Y-4339414D01*
X51129414Y-4216928D01*
X51231232Y-4076788D01*
X51309873Y-3922445D01*
X51363402Y-3757701D01*
X51390500Y-3586611D01*
X51390500Y-3413389D01*
X51363402Y-3242299D01*
X51309873Y-3077555D01*
X51231232Y-2923212D01*
X51129414Y-2783072D01*
X51006928Y-2660586D01*
X50866788Y-2558768D01*
X50712445Y-2480127D01*
X50547701Y-2426598D01*
X50547699Y-2426597D01*
X50547698Y-2426597D01*
X50416271Y-2405781D01*
X50376611Y-2399500D01*
X50203389Y-2399500D01*
X50163728Y-2405781D01*
X50032302Y-2426597D01*
X49867552Y-2480128D01*
X49713211Y-2558768D01*
X49639563Y-2612277D01*
X49573072Y-2660586D01*
X49573070Y-2660588D01*
X49573069Y-2660588D01*
X49450588Y-2783069D01*
X49450588Y-2783070D01*
X49450586Y-2783072D01*
X49426321Y-2816470D01*
X49348768Y-2923211D01*
X49270128Y-3077552D01*
X49216597Y-3242302D01*
X49192844Y-3392277D01*
X49189500Y-3413389D01*
X49189500Y-3586611D01*
X49192844Y-3607722D01*
X49216597Y-3757698D01*
X49271597Y-3926970D01*
X49273592Y-3996811D01*
X49241347Y-4052969D01*
X48848537Y-4445781D01*
X48821609Y-4460484D01*
X48795791Y-4477077D01*
X48789590Y-4477968D01*
X48787214Y-4479266D01*
X48760856Y-4482100D01*
X48623604Y-4482100D01*
X48556565Y-4462415D01*
X48510810Y-4409611D01*
X48500866Y-4340453D01*
X48529891Y-4276897D01*
X48535923Y-4270419D01*
X48552028Y-4254314D01*
X48589414Y-4216928D01*
X48691232Y-4076788D01*
X48769873Y-3922445D01*
X48823402Y-3757701D01*
X48850500Y-3586611D01*
X48850500Y-3413389D01*
X48823402Y-3242299D01*
X48769873Y-3077555D01*
X48691232Y-2923212D01*
X48589414Y-2783072D01*
X48466928Y-2660586D01*
X48326788Y-2558768D01*
X48172445Y-2480127D01*
X48007701Y-2426598D01*
X48007699Y-2426597D01*
X48007698Y-2426597D01*
X47876271Y-2405781D01*
X47836611Y-2399500D01*
X47663389Y-2399500D01*
X47623728Y-2405781D01*
X47492302Y-2426597D01*
X47492299Y-2426598D01*
X47356781Y-2470631D01*
X47327549Y-2480129D01*
X47194155Y-2548096D01*
X47125486Y-2560992D01*
X47060746Y-2534715D01*
X47030474Y-2499611D01*
X46978209Y-2409085D01*
X46875715Y-2306591D01*
X46875713Y-2306590D01*
X46875711Y-2306588D01*
X46750188Y-2234117D01*
X46750189Y-2234117D01*
X46729972Y-2228700D01*
X46610175Y-2196600D01*
X46610172Y-2196600D01*
X46534244Y-2196600D01*
X46467205Y-2176915D01*
X46446563Y-2160281D01*
X45884013Y-1597731D01*
X45884008Y-1597727D01*
X45804090Y-1551587D01*
X45804089Y-1551586D01*
X45804088Y-1551586D01*
X45714944Y-1527700D01*
X16305656Y-1527700D01*
X16216512Y-1551586D01*
X16216509Y-1551587D01*
X16136591Y-1597727D01*
X16136586Y-1597731D01*
X15282969Y-2451347D01*
X15221646Y-2484832D01*
X15156970Y-2481597D01*
X14987698Y-2426597D01*
X14856271Y-2405781D01*
X14816611Y-2399500D01*
X14643389Y-2399500D01*
X14603728Y-2405781D01*
X14472302Y-2426597D01*
X14307552Y-2480128D01*
X14153211Y-2558768D01*
X14079563Y-2612277D01*
X14013072Y-2660586D01*
X14013070Y-2660588D01*
X14013069Y-2660588D01*
X13890588Y-2783069D01*
X13890588Y-2783070D01*
X13890586Y-2783072D01*
X13866321Y-2816470D01*
X13788768Y-2923211D01*
X13710128Y-3077552D01*
X13656597Y-3242302D01*
X13632844Y-3392277D01*
X13629500Y-3413389D01*
X13629500Y-3586611D01*
X13632844Y-3607722D01*
X13656597Y-3757697D01*
X13656597Y-3757699D01*
X13656598Y-3757701D01*
X13702866Y-3900099D01*
X13710128Y-3922447D01*
X13788768Y-4076788D01*
X13808767Y-4104314D01*
X13832247Y-4170121D01*
X13816422Y-4238175D01*
X13766316Y-4286869D01*
X13708449Y-4301200D01*
X13211551Y-4301200D01*
X13144512Y-4281515D01*
X13098757Y-4228711D01*
X13088813Y-4159553D01*
X13111233Y-4104314D01*
X13131232Y-4076788D01*
X13209873Y-3922445D01*
X13263402Y-3757701D01*
X13290500Y-3586611D01*
X13290500Y-3413389D01*
X13263402Y-3242299D01*
X13209873Y-3077555D01*
X13131232Y-2923212D01*
X13029414Y-2783072D01*
X12906928Y-2660586D01*
X12766788Y-2558768D01*
X12612445Y-2480127D01*
X12447701Y-2426598D01*
X12447699Y-2426597D01*
X12447698Y-2426597D01*
X12316271Y-2405781D01*
X12276611Y-2399500D01*
X12103389Y-2399500D01*
X12063728Y-2405781D01*
X11932302Y-2426597D01*
X11767552Y-2480128D01*
X11613211Y-2558768D01*
X11539563Y-2612277D01*
X11473072Y-2660586D01*
X11473070Y-2660588D01*
X11473069Y-2660588D01*
X11350588Y-2783069D01*
X11350588Y-2783070D01*
X11350586Y-2783072D01*
X11326321Y-2816470D01*
X11248768Y-2923211D01*
X11170128Y-3077552D01*
X11116597Y-3242302D01*
X11092844Y-3392277D01*
X11089500Y-3413389D01*
X11089500Y-3586611D01*
X11092844Y-3607722D01*
X11116597Y-3757697D01*
X11116597Y-3757699D01*
X11116598Y-3757701D01*
X11162866Y-3900099D01*
X11170128Y-3922447D01*
X11248768Y-4076788D01*
X11268767Y-4104314D01*
X11292247Y-4170121D01*
X11276422Y-4238175D01*
X11226316Y-4286869D01*
X11168449Y-4301200D01*
X10671551Y-4301200D01*
X10604512Y-4281515D01*
X10558757Y-4228711D01*
X10548813Y-4159553D01*
X10571233Y-4104314D01*
X10591232Y-4076788D01*
X10669873Y-3922445D01*
X10723402Y-3757701D01*
X10750500Y-3586611D01*
X10750500Y-3413389D01*
X10723402Y-3242299D01*
X10669873Y-3077555D01*
X10591232Y-2923212D01*
X10489414Y-2783072D01*
X10366928Y-2660586D01*
X10226788Y-2558768D01*
X10072445Y-2480127D01*
X9907701Y-2426598D01*
X9907699Y-2426597D01*
X9907698Y-2426597D01*
X9776271Y-2405781D01*
X9736611Y-2399500D01*
X9563389Y-2399500D01*
X9523728Y-2405781D01*
X9392302Y-2426597D01*
X9227552Y-2480128D01*
X9073211Y-2558768D01*
X8999563Y-2612277D01*
X8933072Y-2660586D01*
X8933070Y-2660588D01*
X8933069Y-2660588D01*
X8810588Y-2783069D01*
X8810588Y-2783070D01*
X8810586Y-2783072D01*
X8786321Y-2816470D01*
X8708768Y-2923211D01*
X8630128Y-3077550D01*
X8614400Y-3125958D01*
X8574962Y-3183633D01*
X8510603Y-3210831D01*
X8453793Y-3204064D01*
X8443741Y-3200379D01*
X8396988Y-3173386D01*
X8307844Y-3149500D01*
X8304938Y-3149500D01*
X8291824Y-3144693D01*
X8268026Y-3127087D01*
X8242746Y-3111678D01*
X8240248Y-3106537D01*
X8235654Y-3103138D01*
X8225150Y-3075455D01*
X8212217Y-3048830D01*
X8211418Y-3039262D01*
X8210868Y-3037813D01*
X8211175Y-3036359D01*
X8210500Y-3028268D01*
X8210500Y-2625323D01*
X8210499Y-2625321D01*
X8195967Y-2552264D01*
X8195966Y-2552260D01*
X8170716Y-2514470D01*
X8140601Y-2469399D01*
X8060849Y-2416111D01*
X8057739Y-2414033D01*
X8057735Y-2414032D01*
X7984677Y-2399500D01*
X7984674Y-2399500D01*
X6235326Y-2399500D01*
X6235323Y-2399500D01*
X6162264Y-2414032D01*
X6162260Y-2414033D01*
X6079399Y-2469399D01*
X6024030Y-2552264D01*
X6021707Y-2557875D01*
X5977864Y-2612277D01*
X5911570Y-2634339D01*
X5843871Y-2617058D01*
X5796262Y-2565919D01*
X5792589Y-2557875D01*
X5665063Y-2249999D01*
X5267766Y-1732233D01*
X4750000Y-1334936D01*
X4749995Y-1334934D01*
X4147047Y-1085185D01*
X4147045Y-1085184D01*
X3500000Y-1000000D01*
X3499998Y-1000000D01*
X2852953Y-1085184D01*
X2852951Y-1085185D01*
X2250000Y-1334935D01*
X1732233Y-1732233D01*
X1334934Y-2250002D01*
X1085185Y-2852951D01*
X1085184Y-2852953D01*
X1000000Y-3499998D01*
X500500Y-3499998D01*
X500500Y-624500D01*
X520185Y-557461D01*
X572989Y-511706D01*
X624500Y-500500D01*
X64375500Y-500500D01*
X64442539Y-520185D01*
G37*
%TD.AperFunction*%
%TD*%
M02*
