M48
; DRILL file {KiCad 9.0.2+dfsg-1} date 2026-04-19T09:26:03-0700
; FORMAT={-:-/ absolute / metric / decimal}
; #@! TF.CreationDate,2026-04-19T09:26:03-07:00
; #@! TF.GenerationSoftware,Kicad,Pcbnew,9.0.2+dfsg-1
; #@! TF.FileFunction,MixedPlating,1,2
FMAT,2
METRIC
; #@! TA.AperFunction,Plated,PTH,ViaDrill
T1C0.300
; #@! TA.AperFunction,Plated,PTH,ComponentDrill
T2C0.750
; #@! TA.AperFunction,Plated,PTH,ComponentDrill
T3C1.000
; #@! TA.AperFunction,NonPlated,NPTH,ComponentDrill
T4C2.700
%
G90
G05
T1
X6.096Y-14.276
X7.309Y-25.265
X10.273Y-43.171
X10.525Y-27.276
X13.237Y-1.113
X13.251Y-27.793
X13.955Y-23.0
X16.2Y-43.171
X17.775Y-40.988
X18.766Y-30.113
X20.301Y-14.573
X20.936Y-23.352
X24.192Y-20.444
X27.526Y-16.312
X28.22Y-20.404
X31.769Y-21.761
X31.873Y-14.227
X31.873Y-16.312
X33.362Y-14.078
X36.648Y-13.534
X37.926Y-18.664
X39.601Y-24.511
X42.825Y-23.0
X43.026Y-25.35
X46.722Y-28.372
X48.74Y-43.505
X49.468Y-27.053
X49.762Y-31.085
X50.395Y-52.044
X50.967Y-8.497
X51.392Y-39.71
X51.756Y-7.989
X51.763Y-22.28
X52.615Y-43.969
X54.857Y-43.568
X55.959Y-30.003
T2
X13.0Y-51.0
X15.0Y-51.0
X17.0Y-51.0
X19.0Y-51.0
X27.0Y-51.0
X29.0Y-51.0
X31.0Y-51.0
X33.0Y-51.0
T3
X7.11Y-3.5
X7.11Y-6.04
X7.11Y-8.96
X7.11Y-11.5
X9.65Y-3.5
X9.65Y-6.04
X9.65Y-8.96
X9.65Y-11.5
X12.19Y-3.5
X12.19Y-6.04
X12.19Y-8.96
X12.19Y-11.5
X14.73Y-3.5
X14.73Y-6.04
X14.73Y-8.96
X14.73Y-11.5
X17.27Y-3.5
X17.27Y-6.04
X17.27Y-8.96
X17.27Y-11.5
X19.81Y-3.5
X19.81Y-6.04
X19.81Y-8.96
X19.81Y-11.5
X22.35Y-3.5
X22.35Y-6.04
X22.35Y-8.96
X22.35Y-11.5
X24.89Y-3.5
X24.89Y-6.04
X24.89Y-8.96
X24.89Y-11.5
X27.43Y-3.5
X27.43Y-6.04
X27.43Y-8.96
X27.43Y-11.5
X29.97Y-3.5
X29.97Y-6.04
X29.97Y-8.96
X29.97Y-11.5
X32.51Y-3.5
X32.51Y-6.04
X35.05Y-3.5
X35.05Y-6.04
X37.59Y-3.5
X37.59Y-6.04
X40.13Y-3.5
X40.13Y-6.04
X42.67Y-3.5
X42.67Y-6.04
X45.21Y-3.5
X45.21Y-6.04
X47.75Y-3.5
X47.75Y-6.04
X50.29Y-3.5
X50.29Y-6.04
X52.83Y-3.5
X52.83Y-6.04
X55.37Y-3.5
X55.37Y-6.04
T4
X3.5Y-3.5
X3.5Y-52.5
X61.5Y-3.5
X61.5Y-52.5
M30
