%TF.GenerationSoftware,KiCad,Pcbnew,9.0.2+dfsg-1*%
%TF.CreationDate,2026-04-19T10:23:54-07:00*%
%TF.ProjectId,gx01-adapter-v2b,67783031-2d61-4646-9170-7465722d7632,rev?*%
%TF.SameCoordinates,Original*%
%TF.FileFunction,Copper,L1,Top*%
%TF.FilePolarity,Positive*%
%FSLAX46Y46*%
G04 Gerber Fmt 4.6, Leading zero omitted, Abs format (unit mm)*
G04 Created by KiCad (PCBNEW 9.0.2+dfsg-1) date 2026-04-19 10:23:54*
%MOMM*%
%LPD*%
G01*
G04 APERTURE LIST*
G04 Aperture macros list*
%AMRoundRect*
0 Rectangle with rounded corners*
0 $1 Rounding radius*
0 $2 $3 $4 $5 $6 $7 $8 $9 X,Y pos of 4 corners*
0 Add a 4 corners polygon primitive as box body*
4,1,4,$2,$3,$4,$5,$6,$7,$8,$9,$2,$3,0*
0 Add four circle primitives for the rounded corners*
1,1,$1+$1,$2,$3*
1,1,$1+$1,$4,$5*
1,1,$1+$1,$6,$7*
1,1,$1+$1,$8,$9*
0 Add four rect primitives between the rounded corners*
20,1,$1+$1,$2,$3,$4,$5,0*
20,1,$1+$1,$4,$5,$6,$7,0*
20,1,$1+$1,$6,$7,$8,$9,0*
20,1,$1+$1,$8,$9,$2,$3,0*%
G04 Aperture macros list end*
%TA.AperFunction,SMDPad,CuDef*%
%ADD10RoundRect,0.200000X-0.200000X-0.275000X0.200000X-0.275000X0.200000X0.275000X-0.200000X0.275000X0*%
%TD*%
%TA.AperFunction,SMDPad,CuDef*%
%ADD11RoundRect,0.225000X-0.225000X-0.250000X0.225000X-0.250000X0.225000X0.250000X-0.225000X0.250000X0*%
%TD*%
%TA.AperFunction,SMDPad,CuDef*%
%ADD12RoundRect,0.150000X-0.825000X-0.150000X0.825000X-0.150000X0.825000X0.150000X-0.825000X0.150000X0*%
%TD*%
%TA.AperFunction,SMDPad,CuDef*%
%ADD13RoundRect,0.100000X-0.712500X-0.100000X0.712500X-0.100000X0.712500X0.100000X-0.712500X0.100000X0*%
%TD*%
%TA.AperFunction,ComponentPad*%
%ADD14RoundRect,0.250000X-0.350000X-0.625000X0.350000X-0.625000X0.350000X0.625000X-0.350000X0.625000X0*%
%TD*%
%TA.AperFunction,ComponentPad*%
%ADD15O,1.200000X1.750000*%
%TD*%
%TA.AperFunction,SMDPad,CuDef*%
%ADD16RoundRect,0.162500X-0.312500X-0.162500X0.312500X-0.162500X0.312500X0.162500X-0.312500X0.162500X0*%
%TD*%
%TA.AperFunction,SMDPad,CuDef*%
%ADD17RoundRect,0.150000X-0.150000X-0.625000X0.150000X-0.625000X0.150000X0.625000X-0.150000X0.625000X0*%
%TD*%
%TA.AperFunction,SMDPad,CuDef*%
%ADD18RoundRect,0.250000X-0.350000X-0.650000X0.350000X-0.650000X0.350000X0.650000X-0.350000X0.650000X0*%
%TD*%
%TA.AperFunction,ComponentPad*%
%ADD19R,1.700000X1.700000*%
%TD*%
%TA.AperFunction,ComponentPad*%
%ADD20C,1.700000*%
%TD*%
%TA.AperFunction,SMDPad,CuDef*%
%ADD21R,0.350000X0.500000*%
%TD*%
%TA.AperFunction,SMDPad,CuDef*%
%ADD22R,2.500000X3.000000*%
%TD*%
%TA.AperFunction,SMDPad,CuDef*%
%ADD23RoundRect,0.150000X-0.587500X-0.150000X0.587500X-0.150000X0.587500X0.150000X-0.587500X0.150000X0*%
%TD*%
%TA.AperFunction,ViaPad*%
%ADD24C,0.600000*%
%TD*%
%TA.AperFunction,Conductor*%
%ADD25C,0.200000*%
%TD*%
G04 APERTURE END LIST*
D10*
%TO.P,R2,1*%
%TO.N,+3V3*%
X41175000Y-24000000D03*
%TO.P,R2,2*%
%TO.N,SCL1*%
X42825000Y-24000000D03*
%TD*%
D11*
%TO.P,C5,1*%
%TO.N,+3V3*%
X18225000Y-30000000D03*
%TO.P,C5,2*%
%TO.N,GND*%
X19775000Y-30000000D03*
%TD*%
D12*
%TO.P,U4,1*%
%TO.N,GND*%
X10525000Y-28095000D03*
%TO.P,U4,2*%
X10525000Y-29365000D03*
%TO.P,U4,3*%
X10525000Y-30635000D03*
%TO.P,U4,4*%
X10525000Y-31905000D03*
%TO.P,U4,5*%
%TO.N,ID_SD*%
X15475000Y-31905000D03*
%TO.P,U4,6*%
%TO.N,ID_SC*%
X15475000Y-30635000D03*
%TO.P,U4,7*%
%TO.N,GND*%
X15475000Y-29365000D03*
%TO.P,U4,8*%
%TO.N,+3V3*%
X15475000Y-28095000D03*
%TD*%
D10*
%TO.P,R3,1*%
%TO.N,+3V3*%
X21175000Y-27000000D03*
%TO.P,R3,2*%
%TO.N,ID_SD*%
X22825000Y-27000000D03*
%TD*%
%TO.P,R5,1*%
%TO.N,BL_PWM*%
X36175000Y-23000000D03*
%TO.P,R5,2*%
%TO.N,GND*%
X37825000Y-23000000D03*
%TD*%
D11*
%TO.P,C4,1*%
%TO.N,+3V3*%
X18225000Y-40000000D03*
%TO.P,C4,2*%
%TO.N,GND*%
X19775000Y-40000000D03*
%TD*%
D13*
%TO.P,U3,1*%
%TO.N,SDA1*%
X10887500Y-39025000D03*
%TO.P,U3,2*%
%TO.N,SCL1*%
X10887500Y-39675000D03*
%TO.P,U3,3*%
%TO.N,N/C*%
X10887500Y-40325000D03*
%TO.P,U3,4*%
%TO.N,GND*%
X10887500Y-40975000D03*
%TO.P,U3,5*%
X15112500Y-40975000D03*
%TO.P,U3,6*%
X15112500Y-40325000D03*
%TO.P,U3,7*%
X15112500Y-39675000D03*
%TO.P,U3,8*%
%TO.N,+3V3*%
X15112500Y-39025000D03*
%TD*%
D10*
%TO.P,R6,1*%
%TO.N,+5V*%
X19175000Y-23000000D03*
%TO.P,R6,2*%
%TO.N,LCD_V0*%
X20825000Y-23000000D03*
%TD*%
D11*
%TO.P,C2,1*%
%TO.N,+3V3*%
X46225000Y-30000000D03*
%TO.P,C2,2*%
%TO.N,GND*%
X47775000Y-30000000D03*
%TD*%
D14*
%TO.P,J3,1*%
%TO.N,GND*%
X13000000Y-51000000D03*
D15*
%TO.P,J3,2*%
%TO.N,+5V*%
X15000000Y-51000000D03*
%TO.P,J3,3*%
%TO.N,FAN1_TACH*%
X17000000Y-51000000D03*
%TO.P,J3,4*%
%TO.N,FAN_PWM*%
X19000000Y-51000000D03*
%TD*%
D11*
%TO.P,C3,1*%
%TO.N,+3V3*%
X47225000Y-42000000D03*
%TO.P,C3,2*%
%TO.N,GND*%
X48775000Y-42000000D03*
%TD*%
D10*
%TO.P,R1,1*%
%TO.N,+3V3*%
X41175000Y-22000000D03*
%TO.P,R1,2*%
%TO.N,SDA1*%
X42825000Y-22000000D03*
%TD*%
D16*
%TO.P,U1,1*%
%TO.N,N/C*%
X44350000Y-25650000D03*
%TO.P,U1,2*%
X44350000Y-26550000D03*
%TO.P,U1,3*%
%TO.N,SCL1*%
X44350000Y-27450000D03*
%TO.P,U1,4*%
%TO.N,SDA1*%
X44350000Y-28350000D03*
%TO.P,U1,5*%
%TO.N,GND*%
X45650000Y-28350000D03*
%TO.P,U1,6*%
%TO.N,VBACKUP*%
X45650000Y-27450000D03*
%TO.P,U1,7*%
%TO.N,+3V3*%
X45650000Y-26550000D03*
%TO.P,U1,8*%
%TO.N,N/C*%
X45650000Y-25650000D03*
%TD*%
D10*
%TO.P,R4,1*%
%TO.N,+3V3*%
X21175000Y-29000000D03*
%TO.P,R4,2*%
%TO.N,ID_SC*%
X22825000Y-29000000D03*
%TD*%
D14*
%TO.P,J4,1*%
%TO.N,GND*%
X27000000Y-51000000D03*
D15*
%TO.P,J4,2*%
%TO.N,+5V*%
X29000000Y-51000000D03*
%TO.P,J4,3*%
%TO.N,FAN2_TACH*%
X31000000Y-51000000D03*
%TO.P,J4,4*%
%TO.N,FAN_PWM*%
X33000000Y-51000000D03*
%TD*%
D17*
%TO.P,J5,1*%
%TO.N,+3V3*%
X49500000Y-53325000D03*
%TO.P,J5,2*%
%TO.N,GND*%
X50500000Y-53325000D03*
%TO.P,J5,3*%
%TO.N,SDA1*%
X51500000Y-53325000D03*
%TO.P,J5,4*%
%TO.N,SCL1*%
X52500000Y-53325000D03*
%TO.P,J5,5*%
%TO.N,FPB_INT*%
X53500000Y-53325000D03*
%TO.P,J5,6*%
%TO.N,FPB_RST*%
X54500000Y-53325000D03*
D18*
%TO.P,J5,MP*%
%TO.N,N/C*%
X48200000Y-50800000D03*
X55800000Y-50800000D03*
%TD*%
D19*
%TO.P,J2,1*%
%TO.N,GND*%
X7110000Y-15000000D03*
D20*
%TO.P,J2,2*%
%TO.N,+5V*%
X7110000Y-12460000D03*
%TO.P,J2,3*%
%TO.N,LCD_V0*%
X9650000Y-15000000D03*
%TO.P,J2,4*%
%TO.N,LCD_RS*%
X9650000Y-12460000D03*
%TO.P,J2,5*%
%TO.N,LCD_RW*%
X12190000Y-15000000D03*
%TO.P,J2,6*%
%TO.N,LCD_E*%
X12190000Y-12460000D03*
%TO.P,J2,7*%
%TO.N,LCD_DB0*%
X14730000Y-15000000D03*
%TO.P,J2,8*%
%TO.N,LCD_DB1*%
X14730000Y-12460000D03*
%TO.P,J2,9*%
%TO.N,LCD_DB2*%
X17270000Y-15000000D03*
%TO.P,J2,10*%
%TO.N,LCD_DB3*%
X17270000Y-12460000D03*
%TO.P,J2,11*%
%TO.N,LCD_DB4*%
X19810000Y-15000000D03*
%TO.P,J2,12*%
%TO.N,LCD_DB5*%
X19810000Y-12460000D03*
%TO.P,J2,13*%
%TO.N,LCD_DB6*%
X22350000Y-15000000D03*
%TO.P,J2,14*%
%TO.N,LCD_DB7*%
X22350000Y-12460000D03*
%TO.P,J2,15*%
%TO.N,LCD_CS1*%
X24890000Y-15000000D03*
%TO.P,J2,16*%
%TO.N,LCD_CS2*%
X24890000Y-12460000D03*
%TO.P,J2,17*%
%TO.N,LCD_RST*%
X27430000Y-15000000D03*
%TO.P,J2,18*%
%TO.N,LCD_VEE*%
X27430000Y-12460000D03*
%TO.P,J2,19*%
%TO.N,LCD_BLA*%
X29970000Y-15000000D03*
%TO.P,J2,20*%
%TO.N,LCD_BLK*%
X29970000Y-12460000D03*
%TD*%
D19*
%TO.P,J1,1*%
%TO.N,+3V3*%
X7110000Y-3500000D03*
D20*
%TO.P,J1,2*%
%TO.N,+5V*%
X7110000Y-6040000D03*
%TO.P,J1,3*%
%TO.N,SDA1*%
X9650000Y-3500000D03*
%TO.P,J1,4*%
%TO.N,+5V*%
X9650000Y-6040000D03*
%TO.P,J1,5*%
%TO.N,SCL1*%
X12190000Y-3500000D03*
%TO.P,J1,6*%
%TO.N,GND*%
X12190000Y-6040000D03*
%TO.P,J1,7*%
%TO.N,FPB_INT*%
X14730000Y-3500000D03*
%TO.P,J1,8*%
%TO.N,UART_TX*%
X14730000Y-6040000D03*
%TO.P,J1,9*%
%TO.N,GND*%
X17270000Y-3500000D03*
%TO.P,J1,10*%
%TO.N,UART_RX*%
X17270000Y-6040000D03*
%TO.P,J1,11*%
%TO.N,LCD_RS*%
X19810000Y-3500000D03*
%TO.P,J1,12*%
%TO.N,PPS*%
X19810000Y-6040000D03*
%TO.P,J1,13*%
%TO.N,LCD_RW*%
X22350000Y-3500000D03*
%TO.P,J1,14*%
%TO.N,GND*%
X22350000Y-6040000D03*
%TO.P,J1,15*%
%TO.N,LCD_E*%
X24890000Y-3500000D03*
%TO.P,J1,16*%
%TO.N,FAN2_TACH*%
X24890000Y-6040000D03*
%TO.P,J1,17*%
%TO.N,+3V3*%
X27430000Y-3500000D03*
%TO.P,J1,18*%
%TO.N,LCD_DB0*%
X27430000Y-6040000D03*
%TO.P,J1,19*%
%TO.N,LCD_DB1*%
X29970000Y-3500000D03*
%TO.P,J1,20*%
%TO.N,GND*%
X29970000Y-6040000D03*
%TO.P,J1,21*%
%TO.N,N/C*%
X32510000Y-3500000D03*
%TO.P,J1,22*%
%TO.N,LCD_DB2*%
X32510000Y-6040000D03*
%TO.P,J1,23*%
%TO.N,LCD_DB3*%
X35050000Y-3500000D03*
%TO.P,J1,24*%
%TO.N,N/C*%
X35050000Y-6040000D03*
%TO.P,J1,25*%
%TO.N,GND*%
X37590000Y-3500000D03*
%TO.P,J1,26*%
%TO.N,LCD_DB4*%
X37590000Y-6040000D03*
%TO.P,J1,27*%
%TO.N,ID_SD*%
X40130000Y-3500000D03*
%TO.P,J1,28*%
%TO.N,ID_SC*%
X40130000Y-6040000D03*
%TO.P,J1,29*%
%TO.N,LCD_DB6*%
X42670000Y-3500000D03*
%TO.P,J1,30*%
%TO.N,GND*%
X42670000Y-6040000D03*
%TO.P,J1,31*%
%TO.N,LCD_DB7*%
X45210000Y-3500000D03*
%TO.P,J1,32*%
%TO.N,BL_PWM*%
X45210000Y-6040000D03*
%TO.P,J1,33*%
%TO.N,LCD_CS1*%
X47750000Y-3500000D03*
%TO.P,J1,34*%
%TO.N,GND*%
X47750000Y-6040000D03*
%TO.P,J1,35*%
%TO.N,LCD_CS2*%
X50290000Y-3500000D03*
%TO.P,J1,36*%
%TO.N,FAN_PWM*%
X50290000Y-6040000D03*
%TO.P,J1,37*%
%TO.N,LCD_RST*%
X52830000Y-3500000D03*
%TO.P,J1,38*%
%TO.N,FAN1_TACH*%
X52830000Y-6040000D03*
%TO.P,J1,39*%
%TO.N,GND*%
X55370000Y-3500000D03*
%TO.P,J1,40*%
%TO.N,LCD_DB5*%
X55370000Y-6040000D03*
%TD*%
D21*
%TO.P,U2,1*%
%TO.N,GND*%
X52025000Y-40975000D03*
%TO.P,U2,2*%
%TO.N,+3V3*%
X52675000Y-40975000D03*
%TO.P,U2,3*%
%TO.N,SDA1*%
X53325000Y-40975000D03*
%TO.P,U2,4*%
%TO.N,SCL1*%
X53975000Y-40975000D03*
%TO.P,U2,5*%
%TO.N,GND*%
X53975000Y-43025000D03*
%TO.P,U2,6*%
%TO.N,+3V3*%
X53325000Y-43025000D03*
%TO.P,U2,7*%
%TO.N,GND*%
X52675000Y-43025000D03*
%TO.P,U2,8*%
%TO.N,+3V3*%
X52025000Y-43025000D03*
%TD*%
D10*
%TO.P,R7,1*%
%TO.N,LCD_V0*%
X25175000Y-23000000D03*
%TO.P,R7,2*%
%TO.N,LCD_VEE*%
X26825000Y-23000000D03*
%TD*%
D22*
%TO.P,C1,1*%
%TO.N,VBACKUP*%
X25250000Y-37000000D03*
%TO.P,C1,2*%
%TO.N,GND*%
X42750000Y-37000000D03*
%TD*%
D23*
%TO.P,Q1,1*%
%TO.N,BL_PWM*%
X32062500Y-22050000D03*
%TO.P,Q1,2*%
%TO.N,GND*%
X32062500Y-23950000D03*
%TO.P,Q1,3*%
%TO.N,LCD_BLK*%
X33937500Y-23000000D03*
%TD*%
D24*
%TO.N,+3V3*%
X22127800Y-34217700D03*
X10098400Y-17001600D03*
X39910000Y-37202000D03*
%TO.N,GND*%
X19873000Y-41077200D03*
X48804000Y-31600700D03*
X55180200Y-43170600D03*
X52423300Y-43968900D03*
X31956700Y-24883500D03*
X42873700Y-34112800D03*
X37825000Y-22011300D03*
X16200400Y-43170600D03*
X51066500Y-40943800D03*
X10273000Y-43164100D03*
X15715300Y-27275700D03*
X50841500Y-51590400D03*
X45112100Y-29208400D03*
X49502100Y-43276000D03*
X19873000Y-28140500D03*
X10273000Y-27275700D03*
%TO.N,SDA1*%
X4345600Y-22280500D03*
X42054000Y-25616400D03*
X13660600Y-25616400D03*
%TO.N,SCL1*%
X43361800Y-26722900D03*
X13027200Y-40186300D03*
X48804000Y-40109100D03*
%TO.N,ID_SD*%
X39138500Y-18514500D03*
X18466500Y-21761600D03*
%TO.N,ID_SC*%
X27586700Y-17043000D03*
X37203500Y-16852700D03*
X18032400Y-20438200D03*
%TO.N,FPB_INT*%
X46537700Y-2747100D03*
%TO.N,LCD_CS1*%
X34751000Y-17378400D03*
X24876400Y-17473500D03*
%TO.N,LCD_DB0*%
X28528000Y-8741300D03*
X21174400Y-9065300D03*
%TO.N,LCD_DB6*%
X25437800Y-7929800D03*
%TO.N,FAN_PWM*%
X47009200Y-40900700D03*
%TO.N,VBACKUP*%
X46718300Y-24437300D03*
X25315700Y-31233400D03*
%TD*%
D25*
%TO.N,+5V*%
X23653300Y-34777400D02*
X23653300Y-45653300D01*
X14098300Y-51000000D02*
X14098300Y-50098300D01*
X23653300Y-45653300D02*
X28098300Y-50098300D01*
X7110000Y-12460000D02*
X7110000Y-6040000D01*
X14098300Y-50098300D02*
X5958300Y-41958300D01*
X19175000Y-23428900D02*
X22000000Y-26253900D01*
X28098300Y-50098300D02*
X28098300Y-51000000D01*
X22000000Y-33124100D02*
X23653300Y-34777400D01*
X5958300Y-41958300D02*
X5958300Y-13611700D01*
X5958300Y-13611700D02*
X7110000Y-12460000D01*
X29000000Y-51000000D02*
X28098300Y-51000000D01*
X15000000Y-51000000D02*
X14098300Y-51000000D01*
X19175000Y-23000000D02*
X19175000Y-23428900D01*
X22000000Y-26253900D02*
X22000000Y-33124100D01*
%TO.N,+3V3*%
X46427300Y-26005000D02*
X45882300Y-26550000D01*
X49500000Y-53325000D02*
X49500000Y-45073300D01*
X46047000Y-23792400D02*
X46047000Y-24616800D01*
X52025000Y-43025000D02*
X52025000Y-42473300D01*
X21175000Y-34217700D02*
X21175000Y-40647800D01*
X18225000Y-40000000D02*
X17250000Y-39025000D01*
X46047000Y-23792400D02*
X46975200Y-23792400D01*
X43426200Y-21171600D02*
X46047000Y-23792400D01*
X47225000Y-42000000D02*
X46225000Y-41000000D01*
X14173000Y-28474400D02*
X14173000Y-38085500D01*
X15475000Y-28095000D02*
X14552400Y-28095000D01*
X41175000Y-24000000D02*
X41175000Y-35937000D01*
X41175000Y-35937000D02*
X39910000Y-37202000D01*
X49899200Y-44674100D02*
X51548300Y-43025000D01*
X53325000Y-42473300D02*
X52675000Y-42473300D01*
X52675000Y-42473300D02*
X52675000Y-40975000D01*
X21175000Y-29000000D02*
X21175000Y-27000000D01*
X14173000Y-38085500D02*
X15112500Y-39025000D01*
X21175000Y-40647800D02*
X20120500Y-41702300D01*
X46975200Y-23792400D02*
X47333200Y-24150400D01*
X18225000Y-40337800D02*
X18225000Y-40000000D01*
X20120500Y-41702300D02*
X19589500Y-41702300D01*
X49500000Y-45073300D02*
X49899200Y-44674100D01*
X17250000Y-39025000D02*
X15112500Y-39025000D01*
X46427300Y-24997100D02*
X46427300Y-26005000D01*
X14552400Y-28095000D02*
X14173000Y-28474400D01*
X17250000Y-39025000D02*
X18225000Y-38050000D01*
X41175000Y-22000000D02*
X42003400Y-21171600D01*
X53325000Y-43025000D02*
X53325000Y-42473300D01*
X18225000Y-38050000D02*
X18225000Y-30000000D01*
X52025000Y-43025000D02*
X51548300Y-43025000D01*
X21175000Y-29000000D02*
X21175000Y-34217700D01*
X49899200Y-44674100D02*
X47225000Y-42000000D01*
X46225000Y-41000000D02*
X46225000Y-30000000D01*
X52675000Y-42473300D02*
X52025000Y-42473300D01*
X41175000Y-22000000D02*
X41175000Y-24000000D01*
X10098400Y-17001600D02*
X14552400Y-21455600D01*
X46047000Y-24616800D02*
X46427300Y-24997100D01*
X19589500Y-41702300D02*
X18225000Y-40337800D01*
X47333200Y-28891800D02*
X46225000Y-30000000D01*
X42003400Y-21171600D02*
X43426200Y-21171600D01*
X45882300Y-26550000D02*
X45650000Y-26550000D01*
X22127800Y-34217700D02*
X21175000Y-34217700D01*
X47333200Y-24150400D02*
X47333200Y-28891800D01*
X14552400Y-21455600D02*
X14552400Y-28095000D01*
%TO.N,GND*%
X47775000Y-30571700D02*
X47775000Y-30000000D01*
X10525000Y-27527700D02*
X10525000Y-28095000D01*
X19873000Y-41077200D02*
X19775000Y-40979200D01*
X15715300Y-27275700D02*
X16314100Y-27275700D01*
X45650000Y-28670500D02*
X45650000Y-28350000D01*
X15112500Y-40975000D02*
X15112500Y-40325000D01*
X42873700Y-34112800D02*
X42750000Y-34236500D01*
X10887500Y-42549600D02*
X10887500Y-40975000D01*
X51517100Y-40943800D02*
X51548300Y-40975000D01*
X37825000Y-23000000D02*
X37825000Y-22011300D01*
X16314100Y-27275700D02*
X16812100Y-27773700D01*
X52675000Y-43717200D02*
X52675000Y-43025000D01*
X19873000Y-28140500D02*
X19775000Y-28238500D01*
X10525000Y-30635000D02*
X10525000Y-29365000D01*
X32062500Y-24777700D02*
X32062500Y-23950000D01*
X15112500Y-42082700D02*
X15112500Y-40975000D01*
X10273000Y-27275700D02*
X10525000Y-27527700D01*
X10273000Y-43164100D02*
X10887500Y-42549600D01*
X19775000Y-40979200D02*
X19775000Y-40000000D01*
X50500000Y-51931900D02*
X50500000Y-53325000D01*
X48804000Y-31600700D02*
X47775000Y-30571700D01*
X31956700Y-24883500D02*
X32062500Y-24777700D01*
X55180200Y-43170600D02*
X54597300Y-43170600D01*
X54597300Y-43170600D02*
X54451700Y-43025000D01*
X52423300Y-43968900D02*
X52675000Y-43717200D01*
X16812100Y-27773700D02*
X16812100Y-28372600D01*
X49502100Y-43276000D02*
X48775000Y-42548900D01*
X42750000Y-34236500D02*
X42750000Y-37000000D01*
X50841500Y-51590400D02*
X50500000Y-51931900D01*
X45112100Y-29208400D02*
X45650000Y-28670500D01*
X15112500Y-39675000D02*
X15112500Y-40325000D01*
X52025000Y-40975000D02*
X51548300Y-40975000D01*
X10525000Y-31905000D02*
X10525000Y-30635000D01*
X19775000Y-28238500D02*
X19775000Y-30000000D01*
X16200400Y-43170600D02*
X15112500Y-42082700D01*
X48775000Y-42548900D02*
X48775000Y-42000000D01*
X10525000Y-28095000D02*
X10525000Y-29365000D01*
X53975000Y-43025000D02*
X54451700Y-43025000D01*
X51066500Y-40943800D02*
X51517100Y-40943800D01*
X15819700Y-29365000D02*
X15475000Y-29365000D01*
X16812100Y-28372600D02*
X15819700Y-29365000D01*
%TO.N,SDA1*%
X42103100Y-26399000D02*
X44054100Y-28350000D01*
X6589300Y-4888300D02*
X8261700Y-4888300D01*
X51500000Y-48276200D02*
X55810100Y-43966100D01*
X53325000Y-40975000D02*
X53325000Y-41526700D01*
X55810100Y-42899200D02*
X54437600Y-41526700D01*
X51500000Y-53325000D02*
X51500000Y-48276200D01*
X54437600Y-41526700D02*
X53325000Y-41526700D01*
X4345600Y-22280500D02*
X4345600Y-7132000D01*
X49122700Y-54436600D02*
X50856500Y-54436600D01*
X8261700Y-4888300D02*
X9650000Y-3500000D01*
X44054100Y-28350000D02*
X44350000Y-28350000D01*
X42103100Y-25616400D02*
X42054000Y-25616400D01*
X42825000Y-22000000D02*
X42103100Y-22721900D01*
X51500000Y-53793100D02*
X51500000Y-53325000D01*
X4345600Y-7132000D02*
X6589300Y-4888300D01*
X44350000Y-49663900D02*
X49122700Y-54436600D01*
X13660600Y-25616400D02*
X13660600Y-36251900D01*
X42103100Y-22721900D02*
X42103100Y-25616400D01*
X42103100Y-25616400D02*
X42103100Y-26399000D01*
X55810100Y-43966100D02*
X55810100Y-42899200D01*
X13660600Y-36251900D02*
X10887500Y-39025000D01*
X44350000Y-28350000D02*
X44350000Y-49663900D01*
X50856500Y-54436600D02*
X51500000Y-53793100D01*
%TO.N,SCL1*%
X43361800Y-24536800D02*
X43361800Y-26722900D01*
X42825000Y-24000000D02*
X43361800Y-24536800D01*
X52901700Y-49358200D02*
X52901700Y-47442500D01*
X52500000Y-53325000D02*
X52500000Y-49759900D01*
X10124300Y-39675000D02*
X8461700Y-38012400D01*
X53975000Y-40423300D02*
X53660800Y-40109100D01*
X53975000Y-40975000D02*
X54451700Y-40975000D01*
X56211800Y-42664100D02*
X54522700Y-40975000D01*
X54522700Y-40975000D02*
X54451700Y-40975000D01*
X10801700Y-4888300D02*
X12190000Y-3500000D01*
X56211800Y-44132400D02*
X56211800Y-42664100D01*
X10887500Y-39675000D02*
X10124300Y-39675000D01*
X52500000Y-49759900D02*
X52901700Y-49358200D01*
X8461700Y-38012400D02*
X8461700Y-10914800D01*
X43361800Y-26722900D02*
X44088900Y-27450000D01*
X53975000Y-40975000D02*
X53975000Y-40423300D01*
X44088900Y-27450000D02*
X44350000Y-27450000D01*
X10801700Y-8574800D02*
X10801700Y-4888300D01*
X8461700Y-10914800D02*
X10801700Y-8574800D01*
X12515900Y-39675000D02*
X10887500Y-39675000D01*
X52901700Y-47442500D02*
X56211800Y-44132400D01*
X13027200Y-40186300D02*
X12515900Y-39675000D01*
X53660800Y-40109100D02*
X48804000Y-40109100D01*
%TO.N,ID_SD*%
X17273600Y-30451100D02*
X15819700Y-31905000D01*
X18466500Y-27977400D02*
X17273600Y-29170300D01*
X41304200Y-16348800D02*
X39138500Y-18514500D01*
X19596700Y-22216900D02*
X18466500Y-22216900D01*
X22825000Y-26432000D02*
X20000000Y-23607000D01*
X22825000Y-27000000D02*
X22825000Y-26432000D01*
X39138600Y-18514600D02*
X39138500Y-18514500D01*
X17273600Y-29170300D02*
X17273600Y-30451100D01*
X18466500Y-21761600D02*
X18466500Y-22216900D01*
X15819700Y-31905000D02*
X15475000Y-31905000D01*
X41304200Y-4674200D02*
X41304200Y-16348800D01*
X18466500Y-22216900D02*
X18466500Y-27977400D01*
X20000000Y-22620200D02*
X19596700Y-22216900D01*
X40130000Y-3500000D02*
X41304200Y-4674200D01*
X20000000Y-23607000D02*
X20000000Y-22620200D01*
%TO.N,ID_SC*%
X16812100Y-29063800D02*
X17213800Y-28662100D01*
X40130000Y-6040000D02*
X40130000Y-13926200D01*
X27586700Y-24238300D02*
X27586700Y-17043000D01*
X22825000Y-29000000D02*
X27586700Y-24238300D01*
X16812100Y-29715300D02*
X16812100Y-29063800D01*
X15475000Y-30635000D02*
X15892400Y-30635000D01*
X40130000Y-13926200D02*
X37203500Y-16852700D01*
X15892400Y-30635000D02*
X16812100Y-29715300D01*
X17213800Y-21256800D02*
X18032400Y-20438200D01*
X17213800Y-28662100D02*
X17213800Y-21256800D01*
%TO.N,FPB_INT*%
X53500000Y-47412200D02*
X56613500Y-44298700D01*
X53500000Y-53325000D02*
X53500000Y-47412200D01*
X54176400Y-39563700D02*
X54176400Y-5748400D01*
X54176400Y-5748400D02*
X53263100Y-4835100D01*
X52444100Y-4835100D02*
X51549000Y-3940000D01*
X56613500Y-44298700D02*
X56613500Y-42000800D01*
X46936500Y-2348300D02*
X46537700Y-2747100D01*
X51549000Y-3102500D02*
X50794800Y-2348300D01*
X53263100Y-4835100D02*
X52444100Y-4835100D01*
X56613500Y-42000800D02*
X54176400Y-39563700D01*
X51549000Y-3940000D02*
X51549000Y-3102500D01*
X50794800Y-2348300D02*
X46936500Y-2348300D01*
%TO.N,LCD_RS*%
X16000000Y-5621600D02*
X16000000Y-6431600D01*
X16851600Y-4770000D02*
X16000000Y-5621600D01*
X16000000Y-6431600D02*
X9971600Y-12460000D01*
X19810000Y-3500000D02*
X18540000Y-4770000D01*
X9971600Y-12460000D02*
X9650000Y-12460000D01*
X18540000Y-4770000D02*
X16851600Y-4770000D01*
%TO.N,LCD_RW*%
X22827100Y-7191700D02*
X23501700Y-6517100D01*
X16118300Y-11960500D02*
X20887100Y-7191700D01*
X23501700Y-4651700D02*
X22350000Y-3500000D01*
X13460000Y-13730000D02*
X15148400Y-13730000D01*
X23501700Y-6517100D02*
X23501700Y-4651700D01*
X20887100Y-7191700D02*
X22827100Y-7191700D01*
X15148400Y-13730000D02*
X16118300Y-12760100D01*
X16118300Y-12760100D02*
X16118300Y-11960500D01*
X12190000Y-15000000D02*
X13460000Y-13730000D01*
%TO.N,LCD_E*%
X18540000Y-6416600D02*
X12496600Y-12460000D01*
X19304100Y-4873000D02*
X18540000Y-5637100D01*
X24890000Y-3500000D02*
X23717400Y-2327400D01*
X12496600Y-12460000D02*
X12190000Y-12460000D01*
X20961700Y-3245800D02*
X20961700Y-3987400D01*
X20076100Y-4873000D02*
X19304100Y-4873000D01*
X18540000Y-5637100D02*
X18540000Y-6416600D01*
X23717400Y-2327400D02*
X21880100Y-2327400D01*
X20961700Y-3987400D02*
X20076100Y-4873000D01*
X21880100Y-2327400D02*
X20961700Y-3245800D01*
%TO.N,LCD_CS1*%
X24890000Y-17459900D02*
X24890000Y-15000000D01*
X43940000Y-13996000D02*
X42800500Y-15135500D01*
X42800500Y-15135500D02*
X42800500Y-15703600D01*
X42800500Y-15703600D02*
X38856300Y-19647800D01*
X46480000Y-4770000D02*
X44791600Y-4770000D01*
X44791600Y-4770000D02*
X43940000Y-5621600D01*
X43940000Y-5621600D02*
X43940000Y-13996000D01*
X47750000Y-3500000D02*
X46480000Y-4770000D01*
X38856300Y-19647800D02*
X37020400Y-19647800D01*
X37020400Y-19647800D02*
X34751000Y-17378400D01*
X24876400Y-17473500D02*
X24890000Y-17459900D01*
%TO.N,LCD_DB0*%
X27430000Y-6040000D02*
X28528000Y-7138000D01*
X21174400Y-12724400D02*
X21174400Y-9065300D01*
X16118300Y-13611700D02*
X20287100Y-13611700D01*
X20287100Y-13611700D02*
X21174400Y-12724400D01*
X14730000Y-15000000D02*
X16118300Y-13611700D01*
X28528000Y-7138000D02*
X28528000Y-8741300D01*
%TO.N,LCD_DB6*%
X23620000Y-9747600D02*
X23620000Y-13730000D01*
X23620000Y-13730000D02*
X22350000Y-15000000D01*
X25437800Y-7929800D02*
X23620000Y-9747600D01*
%TO.N,LCD_VEE*%
X27430000Y-12460000D02*
X26243100Y-13646900D01*
X26243100Y-13646900D02*
X26243100Y-22418100D01*
X26243100Y-22418100D02*
X26825000Y-23000000D01*
%TO.N,LCD_V0*%
X17879000Y-19433900D02*
X14083900Y-19433900D01*
X20825000Y-22379900D02*
X17879000Y-19433900D01*
X14083900Y-19433900D02*
X9650000Y-15000000D01*
X20825000Y-23000000D02*
X20825000Y-22379900D01*
X20825000Y-23000000D02*
X25175000Y-23000000D01*
%TO.N,LCD_BLK*%
X29970000Y-12460000D02*
X33937500Y-16427500D01*
X33937500Y-16427500D02*
X33937500Y-23000000D01*
%TO.N,BL_PWM*%
X36175000Y-22755600D02*
X38550300Y-20380300D01*
X38691800Y-20380300D02*
X45210000Y-13862100D01*
X32062500Y-22562400D02*
X33156800Y-23656700D01*
X35518300Y-23656700D02*
X36175000Y-23000000D01*
X38550300Y-20380300D02*
X38691800Y-20380300D01*
X45210000Y-13862100D02*
X45210000Y-6040000D01*
X33156800Y-23656700D02*
X35518300Y-23656700D01*
X32062500Y-22050000D02*
X32062500Y-22562400D01*
X36175000Y-23000000D02*
X36175000Y-22755600D01*
%TO.N,FAN_PWM*%
X50290000Y-37619900D02*
X50290000Y-6040000D01*
X47009200Y-40900700D02*
X50290000Y-37619900D01*
%TO.N,FAN1_TACH*%
X49020000Y-11552500D02*
X49020000Y-5621600D01*
X17901700Y-51000000D02*
X17901700Y-51563600D01*
X51666400Y-4876400D02*
X52830000Y-6040000D01*
X49765200Y-4876400D02*
X51666400Y-4876400D01*
X40465500Y-23137300D02*
X40465500Y-20107000D01*
X31412000Y-52197800D02*
X32000000Y-51609800D01*
X49020000Y-5621600D02*
X49765200Y-4876400D01*
X17901700Y-51563600D02*
X18535900Y-52197800D01*
X32000000Y-51609800D02*
X32000000Y-31602800D01*
X32000000Y-31602800D02*
X40465500Y-23137300D01*
X40465500Y-20107000D02*
X49020000Y-11552500D01*
X17000000Y-51000000D02*
X17901700Y-51000000D01*
X18535900Y-52197800D02*
X31412000Y-52197800D01*
%TO.N,FAN2_TACH*%
X30098300Y-50098300D02*
X28700000Y-48700000D01*
X28700000Y-48700000D02*
X28700000Y-9850000D01*
X28700000Y-9850000D02*
X24890000Y-6040000D01*
X31000000Y-51000000D02*
X30098300Y-51000000D01*
X30098300Y-51000000D02*
X30098300Y-50098300D01*
%TO.N,VBACKUP*%
X25250000Y-31233400D02*
X25315700Y-31233400D01*
X46863700Y-26541400D02*
X45955100Y-27450000D01*
X45955100Y-27450000D02*
X45650000Y-27450000D01*
X46863700Y-24582700D02*
X46863700Y-26541400D01*
X46718300Y-24437300D02*
X46863700Y-24582700D01*
X25250000Y-37000000D02*
X25250000Y-31233400D01*
%TD*%
M02*
