M48
; DRILL file {KiCad 9.0.2+dfsg-1} date 2026-04-19T09:48:58-0700
; FORMAT={-:-/ absolute / metric / decimal}
; #@! TF.CreationDate,2026-04-19T09:48:58-07:00
; #@! TF.GenerationSoftware,Kicad,Pcbnew,9.0.2+dfsg-1
; #@! TF.FileFunction,MixedPlating,1,2
FMAT,2
METRIC
; #@! TA.AperFunction,Plated,PTH,ViaDrill
T1C0.300
; #@! TA.AperFunction,Plated,PTH,ComponentDrill
T2C0.750
; #@! TA.AperFunction,Plated,PTH,ComponentDrill
T3C1.000
; #@! TA.AperFunction,NonPlated,NPTH,ComponentDrill
T4C2.700
%
G90
G05
T1
X9.511Y-40.197
X10.273Y-27.276
X12.481Y-31.233
X13.237Y-17.262
X13.862Y-24.558
X16.2Y-1.119
X16.2Y-43.171
X17.066Y-29.068
X19.982Y-41.008
X20.772Y-30.069
X21.196Y-19.008
X21.694Y-28.044
X21.741Y-10.351
X24.932Y-17.054
X31.019Y-22.512
X32.106Y-20.0
X36.961Y-28.249
X37.825Y-19.019
X39.583Y-18.969
X41.853Y-16.766
X43.035Y-25.35
X43.351Y-27.9
X45.252Y-29.21
X48.092Y-28.326
X48.801Y-43.569
X48.987Y-26.582
X49.107Y-2.737
X50.841Y-51.59
X51.392Y-39.71
X51.765Y-31.233
X52.864Y-43.969
X54.78Y-43.264
X55.959Y-30.003
T2
X13.0Y-51.0
X15.0Y-51.0
X17.0Y-51.0
X19.0Y-51.0
X27.0Y-51.0
X29.0Y-51.0
X31.0Y-51.0
X33.0Y-51.0
T3
X7.11Y-3.5
X7.11Y-6.04
X7.11Y-12.46
X7.11Y-15.0
X9.65Y-3.5
X9.65Y-6.04
X9.65Y-12.46
X9.65Y-15.0
X12.19Y-3.5
X12.19Y-6.04
X12.19Y-12.46
X12.19Y-15.0
X14.73Y-3.5
X14.73Y-6.04
X14.73Y-12.46
X14.73Y-15.0
X17.27Y-3.5
X17.27Y-6.04
X17.27Y-12.46
X17.27Y-15.0
X19.81Y-3.5
X19.81Y-6.04
X19.81Y-12.46
X19.81Y-15.0
X22.35Y-3.5
X22.35Y-6.04
X22.35Y-12.46
X22.35Y-15.0
X24.89Y-3.5
X24.89Y-6.04
X24.89Y-12.46
X24.89Y-15.0
X27.43Y-3.5
X27.43Y-6.04
X27.43Y-12.46
X27.43Y-15.0
X29.97Y-3.5
X29.97Y-6.04
X29.97Y-12.46
X29.97Y-15.0
X32.51Y-3.5
X32.51Y-6.04
X35.05Y-3.5
X35.05Y-6.04
X37.59Y-3.5
X37.59Y-6.04
X40.13Y-3.5
X40.13Y-6.04
X42.67Y-3.5
X42.67Y-6.04
X45.21Y-3.5
X45.21Y-6.04
X47.75Y-3.5
X47.75Y-6.04
X50.29Y-3.5
X50.29Y-6.04
X52.83Y-3.5
X52.83Y-6.04
X55.37Y-3.5
X55.37Y-6.04
T4
X3.5Y-3.5
X3.5Y-52.5
X61.5Y-3.5
X61.5Y-52.5
M30
