%TF.GenerationSoftware,KiCad,Pcbnew,9.0.2+dfsg-1*%
%TF.CreationDate,2026-04-19T10:23:54-07:00*%
%TF.ProjectId,gx01-adapter-v2b,67783031-2d61-4646-9170-7465722d7632,rev?*%
%TF.SameCoordinates,Original*%
%TF.FileFunction,Soldermask,Bot*%
%TF.FilePolarity,Negative*%
%FSLAX46Y46*%
G04 Gerber Fmt 4.6, Leading zero omitted, Abs format (unit mm)*
G04 Created by KiCad (PCBNEW 9.0.2+dfsg-1) date 2026-04-19 10:23:54*
%MOMM*%
%LPD*%
G01*
G04 APERTURE LIST*
G04 Aperture macros list*
%AMRoundRect*
0 Rectangle with rounded corners*
0 $1 Rounding radius*
0 $2 $3 $4 $5 $6 $7 $8 $9 X,Y pos of 4 corners*
0 Add a 4 corners polygon primitive as box body*
4,1,4,$2,$3,$4,$5,$6,$7,$8,$9,$2,$3,0*
0 Add four circle primitives for the rounded corners*
1,1,$1+$1,$2,$3*
1,1,$1+$1,$4,$5*
1,1,$1+$1,$6,$7*
1,1,$1+$1,$8,$9*
0 Add four rect primitives between the rounded corners*
20,1,$1+$1,$2,$3,$4,$5,0*
20,1,$1+$1,$4,$5,$6,$7,0*
20,1,$1+$1,$6,$7,$8,$9,0*
20,1,$1+$1,$8,$9,$2,$3,0*%
G04 Aperture macros list end*
%ADD10C,2.700000*%
%ADD11RoundRect,0.250000X-0.350000X-0.625000X0.350000X-0.625000X0.350000X0.625000X-0.350000X0.625000X0*%
%ADD12O,1.200000X1.750000*%
%ADD13R,1.700000X1.700000*%
%ADD14C,1.700000*%
G04 APERTURE END LIST*
D10*
%TO.C,H4*%
X61500000Y-52500000D03*
%TD*%
D11*
%TO.C,J3*%
X13000000Y-51000000D03*
D12*
X15000000Y-51000000D03*
X17000000Y-51000000D03*
X19000000Y-51000000D03*
%TD*%
D10*
%TO.C,H1*%
X3500000Y-3500000D03*
%TD*%
%TO.C,H2*%
X61500000Y-3500000D03*
%TD*%
%TO.C,H3*%
X3500000Y-52500000D03*
%TD*%
D11*
%TO.C,J4*%
X27000000Y-51000000D03*
D12*
X29000000Y-51000000D03*
X31000000Y-51000000D03*
X33000000Y-51000000D03*
%TD*%
D13*
%TO.C,J2*%
X7110000Y-15000000D03*
D14*
X7110000Y-12460000D03*
X9650000Y-15000000D03*
X9650000Y-12460000D03*
X12190000Y-15000000D03*
X12190000Y-12460000D03*
X14730000Y-15000000D03*
X14730000Y-12460000D03*
X17270000Y-15000000D03*
X17270000Y-12460000D03*
X19810000Y-15000000D03*
X19810000Y-12460000D03*
X22350000Y-15000000D03*
X22350000Y-12460000D03*
X24890000Y-15000000D03*
X24890000Y-12460000D03*
X27430000Y-15000000D03*
X27430000Y-12460000D03*
X29970000Y-15000000D03*
X29970000Y-12460000D03*
%TD*%
D13*
%TO.C,J1*%
X7110000Y-3500000D03*
D14*
X7110000Y-6040000D03*
X9650000Y-3500000D03*
X9650000Y-6040000D03*
X12190000Y-3500000D03*
X12190000Y-6040000D03*
X14730000Y-3500000D03*
X14730000Y-6040000D03*
X17270000Y-3500000D03*
X17270000Y-6040000D03*
X19810000Y-3500000D03*
X19810000Y-6040000D03*
X22350000Y-3500000D03*
X22350000Y-6040000D03*
X24890000Y-3500000D03*
X24890000Y-6040000D03*
X27430000Y-3500000D03*
X27430000Y-6040000D03*
X29970000Y-3500000D03*
X29970000Y-6040000D03*
X32510000Y-3500000D03*
X32510000Y-6040000D03*
X35050000Y-3500000D03*
X35050000Y-6040000D03*
X37590000Y-3500000D03*
X37590000Y-6040000D03*
X40130000Y-3500000D03*
X40130000Y-6040000D03*
X42670000Y-3500000D03*
X42670000Y-6040000D03*
X45210000Y-3500000D03*
X45210000Y-6040000D03*
X47750000Y-3500000D03*
X47750000Y-6040000D03*
X50290000Y-3500000D03*
X50290000Y-6040000D03*
X52830000Y-3500000D03*
X52830000Y-6040000D03*
X55370000Y-3500000D03*
X55370000Y-6040000D03*
%TD*%
M02*
