M48
; DRILL file {KiCad 9.0.2+dfsg-1} date 2026-04-18T03:38:00-0700
; FORMAT={-:-/ absolute / metric / decimal}
; #@! TF.CreationDate,2026-04-18T03:38:00-07:00
; #@! TF.GenerationSoftware,Kicad,Pcbnew,9.0.2+dfsg-1
; #@! TF.FileFunction,MixedPlating,1,2
FMAT,2
METRIC
; #@! TA.AperFunction,Plated,PTH,ComponentDrill
T1C0.800
; #@! TA.AperFunction,Plated,PTH,ComponentDrill
T2C1.000
; #@! TA.AperFunction,NonPlated,NPTH,ComponentDrill
T3C2.700
%
G90
G05
T1
X41.92Y-30.0
X44.46Y-30.0
X46.0Y-20.0
X46.0Y-44.0
X47.0Y-30.0
X48.5Y-44.0
X53.62Y-20.0
T2
X7.11Y-3.5
X7.11Y-6.04
X8.0Y-13.46
X8.0Y-16.0
X9.65Y-3.5
X9.65Y-6.04
X10.54Y-13.46
X10.54Y-16.0
X12.19Y-3.5
X12.19Y-6.04
X13.08Y-13.46
X13.08Y-16.0
X14.0Y-48.0
X14.73Y-3.5
X14.73Y-6.04
X15.62Y-13.46
X15.62Y-16.0
X16.5Y-48.0
X17.27Y-3.5
X17.27Y-6.04
X18.16Y-13.46
X18.16Y-16.0
X19.81Y-3.5
X19.81Y-6.04
X20.7Y-13.46
X20.7Y-16.0
X22.35Y-3.5
X22.35Y-6.04
X23.24Y-13.46
X23.24Y-16.0
X24.89Y-3.5
X24.89Y-6.04
X25.78Y-13.46
X25.78Y-16.0
X26.0Y-48.0
X27.43Y-3.5
X27.43Y-6.04
X28.32Y-13.46
X28.32Y-16.0
X28.5Y-48.0
X29.97Y-3.5
X29.97Y-6.04
X30.86Y-13.46
X30.86Y-16.0
X32.51Y-3.5
X32.51Y-6.04
X35.05Y-3.5
X35.05Y-6.04
X37.59Y-3.5
X37.59Y-6.04
X40.13Y-3.5
X40.13Y-6.04
X42.67Y-3.5
X42.67Y-6.04
X45.21Y-3.5
X45.21Y-6.04
X47.75Y-3.5
X47.75Y-6.04
X50.29Y-3.5
X50.29Y-6.04
X52.83Y-3.5
X52.83Y-6.04
X55.37Y-3.5
X55.37Y-6.04
T3
X3.5Y-3.5
X3.5Y-52.5
X61.5Y-3.5
X61.5Y-52.5
M30
