%TF.GenerationSoftware,KiCad,Pcbnew,9.0.2+dfsg-1*%
%TF.CreationDate,2026-04-18T03:55:43-07:00*%
%TF.ProjectId,gx01-adapter,67783031-2d61-4646-9170-7465722e6b69,rev?*%
%TF.SameCoordinates,Original*%
%TF.FileFunction,Copper,L2,Bot*%
%TF.FilePolarity,Positive*%
%FSLAX46Y46*%
G04 Gerber Fmt 4.6, Leading zero omitted, Abs format (unit mm)*
G04 Created by KiCad (PCBNEW 9.0.2+dfsg-1) date 2026-04-18 03:55:43*
%MOMM*%
%LPD*%
G01*
G04 APERTURE LIST*
G04 Aperture macros list*
%AMRoundRect*
0 Rectangle with rounded corners*
0 $1 Rounding radius*
0 $2 $3 $4 $5 $6 $7 $8 $9 X,Y pos of 4 corners*
0 Add a 4 corners polygon primitive as box body*
4,1,4,$2,$3,$4,$5,$6,$7,$8,$9,$2,$3,0*
0 Add four circle primitives for the rounded corners*
1,1,$1+$1,$2,$3*
1,1,$1+$1,$4,$5*
1,1,$1+$1,$6,$7*
1,1,$1+$1,$8,$9*
0 Add four rect primitives between the rounded corners*
20,1,$1+$1,$2,$3,$4,$5,0*
20,1,$1+$1,$4,$5,$6,$7,0*
20,1,$1+$1,$6,$7,$8,$9,0*
20,1,$1+$1,$8,$9,$2,$3,0*%
G04 Aperture macros list end*
%TA.AperFunction,ComponentPad*%
%ADD10C,1.440000*%
%TD*%
%TA.AperFunction,ComponentPad*%
%ADD11R,1.700000X1.700000*%
%TD*%
%TA.AperFunction,ComponentPad*%
%ADD12C,1.700000*%
%TD*%
%TA.AperFunction,ComponentPad*%
%ADD13RoundRect,0.250000X-0.600000X-0.750000X0.600000X-0.750000X0.600000X0.750000X-0.600000X0.750000X0*%
%TD*%
%TA.AperFunction,ComponentPad*%
%ADD14O,1.700000X2.000000*%
%TD*%
%TA.AperFunction,ComponentPad*%
%ADD15C,1.600000*%
%TD*%
%TA.AperFunction,ViaPad*%
%ADD16C,0.800000*%
%TD*%
%TA.AperFunction,Conductor*%
%ADD17C,0.500000*%
%TD*%
G04 APERTURE END LIST*
D10*
%TO.P,RV1,1*%
%TO.N,+5V*%
X50000000Y-25000000D03*
%TO.P,RV1,2*%
%TO.N,V0*%
X47460000Y-25000000D03*
%TO.P,RV1,3*%
%TO.N,VEE*%
X44920000Y-25000000D03*
%TD*%
D11*
%TO.P,J2,1*%
%TO.N,GND*%
X7110000Y-16000000D03*
D12*
%TO.P,J2,2*%
%TO.N,+5V*%
X9650000Y-16000000D03*
%TO.P,J2,3*%
%TO.N,V0*%
X12190000Y-16000000D03*
%TO.P,J2,4*%
%TO.N,LCD_RS*%
X14730000Y-16000000D03*
%TO.P,J2,5*%
%TO.N,LCD_RW*%
X17270000Y-16000000D03*
%TO.P,J2,6*%
%TO.N,LCD_E*%
X19810000Y-16000000D03*
%TO.P,J2,7*%
%TO.N,LCD_DB0*%
X22350000Y-16000000D03*
%TO.P,J2,8*%
%TO.N,LCD_DB1*%
X24890000Y-16000000D03*
%TO.P,J2,9*%
%TO.N,LCD_DB2*%
X27430000Y-16000000D03*
%TO.P,J2,10*%
%TO.N,LCD_DB3*%
X29970000Y-16000000D03*
%TO.P,J2,11*%
%TO.N,LCD_DB4*%
X32510000Y-16000000D03*
%TO.P,J2,12*%
%TO.N,LCD_DB5*%
X35050000Y-16000000D03*
%TO.P,J2,13*%
%TO.N,LCD_DB6*%
X37590000Y-16000000D03*
%TO.P,J2,14*%
%TO.N,LCD_DB7*%
X40130000Y-16000000D03*
%TO.P,J2,15*%
%TO.N,LCD_CS1*%
X42670000Y-16000000D03*
%TO.P,J2,16*%
%TO.N,LCD_CS2*%
X45210000Y-16000000D03*
%TO.P,J2,17*%
%TO.N,LCD_RST*%
X47750000Y-16000000D03*
%TO.P,J2,18*%
%TO.N,VEE*%
X50290000Y-16000000D03*
%TO.P,J2,19*%
%TO.N,BLA*%
X52830000Y-16000000D03*
%TO.P,J2,20*%
%TO.N,GND*%
X55370000Y-16000000D03*
%TD*%
D13*
%TO.P,J3,1*%
%TO.N,+5V*%
X12000000Y-48000000D03*
D14*
%TO.P,J3,2*%
%TO.N,GND*%
X14500000Y-48000000D03*
%TD*%
D15*
%TO.P,R1,1*%
%TO.N,+5V*%
X52000000Y-35000000D03*
%TO.P,R1,2*%
%TO.N,BLA*%
X59620000Y-35000000D03*
%TD*%
%TO.P,C1,1*%
%TO.N,+5V*%
X10000000Y-30000000D03*
%TO.P,C1,2*%
%TO.N,GND*%
X12500000Y-30000000D03*
%TD*%
D13*
%TO.P,J4,1*%
%TO.N,+5V*%
X22000000Y-48000000D03*
D14*
%TO.P,J4,2*%
%TO.N,GND*%
X24500000Y-48000000D03*
%TD*%
D11*
%TO.P,J1,1*%
%TO.N,N/C*%
X7110000Y-3500000D03*
D12*
%TO.P,J1,2*%
%TO.N,+5V*%
X7110000Y-6040000D03*
%TO.P,J1,3*%
%TO.N,N/C*%
X9650000Y-3500000D03*
%TO.P,J1,4*%
%TO.N,+5V*%
X9650000Y-6040000D03*
%TO.P,J1,5*%
%TO.N,N/C*%
X12190000Y-3500000D03*
%TO.P,J1,6*%
%TO.N,GND*%
X12190000Y-6040000D03*
%TO.P,J1,7*%
%TO.N,N/C*%
X14730000Y-3500000D03*
%TO.P,J1,8*%
X14730000Y-6040000D03*
%TO.P,J1,9*%
%TO.N,GND*%
X17270000Y-3500000D03*
%TO.P,J1,10*%
%TO.N,N/C*%
X17270000Y-6040000D03*
%TO.P,J1,11*%
%TO.N,LCD_RS*%
X19810000Y-3500000D03*
%TO.P,J1,12*%
%TO.N,N/C*%
X19810000Y-6040000D03*
%TO.P,J1,13*%
%TO.N,LCD_RW*%
X22350000Y-3500000D03*
%TO.P,J1,14*%
%TO.N,GND*%
X22350000Y-6040000D03*
%TO.P,J1,15*%
%TO.N,LCD_E*%
X24890000Y-3500000D03*
%TO.P,J1,16*%
%TO.N,N/C*%
X24890000Y-6040000D03*
%TO.P,J1,17*%
X27430000Y-3500000D03*
%TO.P,J1,18*%
%TO.N,LCD_DB0*%
X27430000Y-6040000D03*
%TO.P,J1,19*%
%TO.N,LCD_DB1*%
X29970000Y-3500000D03*
%TO.P,J1,20*%
%TO.N,GND*%
X29970000Y-6040000D03*
%TO.P,J1,21*%
%TO.N,N/C*%
X32510000Y-3500000D03*
%TO.P,J1,22*%
%TO.N,LCD_DB2*%
X32510000Y-6040000D03*
%TO.P,J1,23*%
%TO.N,LCD_DB3*%
X35050000Y-3500000D03*
%TO.P,J1,24*%
%TO.N,N/C*%
X35050000Y-6040000D03*
%TO.P,J1,25*%
%TO.N,GND*%
X37590000Y-3500000D03*
%TO.P,J1,26*%
%TO.N,LCD_DB4*%
X37590000Y-6040000D03*
%TO.P,J1,27*%
%TO.N,N/C*%
X40130000Y-3500000D03*
%TO.P,J1,28*%
X40130000Y-6040000D03*
%TO.P,J1,29*%
%TO.N,LCD_DB6*%
X42670000Y-3500000D03*
%TO.P,J1,30*%
%TO.N,GND*%
X42670000Y-6040000D03*
%TO.P,J1,31*%
%TO.N,LCD_DB7*%
X45210000Y-3500000D03*
%TO.P,J1,32*%
%TO.N,N/C*%
X45210000Y-6040000D03*
%TO.P,J1,33*%
%TO.N,LCD_CS1*%
X47750000Y-3500000D03*
%TO.P,J1,34*%
%TO.N,GND*%
X47750000Y-6040000D03*
%TO.P,J1,35*%
%TO.N,LCD_CS2*%
X50290000Y-3500000D03*
%TO.P,J1,36*%
%TO.N,N/C*%
X50290000Y-6040000D03*
%TO.P,J1,37*%
%TO.N,LCD_RST*%
X52830000Y-3500000D03*
%TO.P,J1,38*%
%TO.N,N/C*%
X52830000Y-6040000D03*
%TO.P,J1,39*%
%TO.N,GND*%
X55370000Y-3500000D03*
%TO.P,J1,40*%
%TO.N,LCD_DB5*%
X55370000Y-6040000D03*
%TD*%
D16*
%TO.N,+5V*%
X52000000Y-45000000D03*
X27000000Y-45000000D03*
%TD*%
D17*
%TO.N,+5V*%
X27000000Y-45000000D02*
X52000000Y-45000000D01*
%TD*%
%TA.AperFunction,Conductor*%
%TO.N,GND*%
G36*
X10974712Y-3766238D02*
G01*
X11026188Y-3813482D01*
X11037931Y-3839196D01*
X11077454Y-3960836D01*
X11113668Y-4031909D01*
X11163240Y-4129199D01*
X11274310Y-4282073D01*
X11407927Y-4415690D01*
X11560801Y-4526760D01*
X11729168Y-4612547D01*
X11851612Y-4652331D01*
X11909287Y-4691769D01*
X11936485Y-4756127D01*
X11924570Y-4824974D01*
X11877326Y-4876449D01*
X11851612Y-4888193D01*
X11729361Y-4927915D01*
X11561064Y-5013667D01*
X11561062Y-5013668D01*
X11474237Y-5076748D01*
X11474237Y-5076749D01*
X11980876Y-5583388D01*
X11882993Y-5639901D01*
X11789901Y-5732993D01*
X11733388Y-5830876D01*
X11226749Y-5324237D01*
X11226748Y-5324237D01*
X11163668Y-5411062D01*
X11163667Y-5411064D01*
X11077915Y-5579361D01*
X11038193Y-5701612D01*
X10998755Y-5759287D01*
X10934396Y-5786485D01*
X10865550Y-5774570D01*
X10814074Y-5727326D01*
X10802332Y-5701614D01*
X10762547Y-5579168D01*
X10676760Y-5410801D01*
X10565690Y-5257927D01*
X10432073Y-5124310D01*
X10279199Y-5013240D01*
X10110836Y-4927454D01*
X10036472Y-4903291D01*
X9989195Y-4887930D01*
X9931521Y-4848493D01*
X9904323Y-4784134D01*
X9916238Y-4715288D01*
X9963482Y-4663812D01*
X9989194Y-4652069D01*
X10110832Y-4612547D01*
X10279199Y-4526760D01*
X10432073Y-4415690D01*
X10565690Y-4282073D01*
X10676760Y-4129199D01*
X10762547Y-3960832D01*
X10802069Y-3839195D01*
X10841507Y-3781521D01*
X10905866Y-3754323D01*
X10974712Y-3766238D01*
G37*
%TD.AperFunction*%
%TA.AperFunction,Conductor*%
G36*
X21134712Y-3766238D02*
G01*
X21186188Y-3813482D01*
X21197931Y-3839196D01*
X21237454Y-3960836D01*
X21273668Y-4031909D01*
X21323240Y-4129199D01*
X21434310Y-4282073D01*
X21567927Y-4415690D01*
X21720801Y-4526760D01*
X21889168Y-4612547D01*
X22011612Y-4652331D01*
X22069287Y-4691769D01*
X22096485Y-4756127D01*
X22084570Y-4824974D01*
X22037326Y-4876449D01*
X22011612Y-4888193D01*
X21889361Y-4927915D01*
X21721064Y-5013667D01*
X21721062Y-5013668D01*
X21634237Y-5076748D01*
X21634237Y-5076749D01*
X22140876Y-5583388D01*
X22042993Y-5639901D01*
X21949901Y-5732993D01*
X21893388Y-5830876D01*
X21386749Y-5324237D01*
X21386748Y-5324237D01*
X21323668Y-5411062D01*
X21323667Y-5411064D01*
X21237915Y-5579361D01*
X21198193Y-5701612D01*
X21158755Y-5759287D01*
X21094396Y-5786485D01*
X21025550Y-5774570D01*
X20974074Y-5727326D01*
X20962332Y-5701614D01*
X20922547Y-5579168D01*
X20836760Y-5410801D01*
X20725690Y-5257927D01*
X20592073Y-5124310D01*
X20439199Y-5013240D01*
X20270836Y-4927454D01*
X20196472Y-4903291D01*
X20149195Y-4887930D01*
X20091521Y-4848493D01*
X20064323Y-4784134D01*
X20076238Y-4715288D01*
X20123482Y-4663812D01*
X20149194Y-4652069D01*
X20270832Y-4612547D01*
X20439199Y-4526760D01*
X20592073Y-4415690D01*
X20725690Y-4282073D01*
X20836760Y-4129199D01*
X20922547Y-3960832D01*
X20962069Y-3839195D01*
X21001507Y-3781521D01*
X21065866Y-3754323D01*
X21134712Y-3766238D01*
G37*
%TD.AperFunction*%
%TA.AperFunction,Conductor*%
G36*
X28754712Y-3766238D02*
G01*
X28806188Y-3813482D01*
X28817931Y-3839196D01*
X28857454Y-3960836D01*
X28893668Y-4031909D01*
X28943240Y-4129199D01*
X29054310Y-4282073D01*
X29187927Y-4415690D01*
X29340801Y-4526760D01*
X29509168Y-4612547D01*
X29631612Y-4652331D01*
X29689287Y-4691769D01*
X29716485Y-4756127D01*
X29704570Y-4824974D01*
X29657326Y-4876449D01*
X29631612Y-4888193D01*
X29509361Y-4927915D01*
X29341064Y-5013667D01*
X29341062Y-5013668D01*
X29254237Y-5076748D01*
X29254237Y-5076749D01*
X29760876Y-5583388D01*
X29662993Y-5639901D01*
X29569901Y-5732993D01*
X29513388Y-5830876D01*
X29006749Y-5324237D01*
X29006748Y-5324237D01*
X28943668Y-5411062D01*
X28943667Y-5411064D01*
X28857915Y-5579361D01*
X28818193Y-5701612D01*
X28778755Y-5759287D01*
X28714396Y-5786485D01*
X28645550Y-5774570D01*
X28594074Y-5727326D01*
X28582332Y-5701614D01*
X28542547Y-5579168D01*
X28456760Y-5410801D01*
X28345690Y-5257927D01*
X28212073Y-5124310D01*
X28059199Y-5013240D01*
X27890836Y-4927454D01*
X27816472Y-4903291D01*
X27769195Y-4887930D01*
X27711521Y-4848493D01*
X27684323Y-4784134D01*
X27696238Y-4715288D01*
X27743482Y-4663812D01*
X27769194Y-4652069D01*
X27890832Y-4612547D01*
X28059199Y-4526760D01*
X28212073Y-4415690D01*
X28345690Y-4282073D01*
X28456760Y-4129199D01*
X28542547Y-3960832D01*
X28582069Y-3839195D01*
X28621507Y-3781521D01*
X28685866Y-3754323D01*
X28754712Y-3766238D01*
G37*
%TD.AperFunction*%
%TA.AperFunction,Conductor*%
G36*
X41454712Y-3766238D02*
G01*
X41506188Y-3813482D01*
X41517931Y-3839196D01*
X41557454Y-3960836D01*
X41593668Y-4031909D01*
X41643240Y-4129199D01*
X41754310Y-4282073D01*
X41887927Y-4415690D01*
X42040801Y-4526760D01*
X42209168Y-4612547D01*
X42331612Y-4652331D01*
X42389287Y-4691769D01*
X42416485Y-4756127D01*
X42404570Y-4824974D01*
X42357326Y-4876449D01*
X42331612Y-4888193D01*
X42209361Y-4927915D01*
X42041064Y-5013667D01*
X42041062Y-5013668D01*
X41954237Y-5076748D01*
X41954237Y-5076749D01*
X42460876Y-5583388D01*
X42362993Y-5639901D01*
X42269901Y-5732993D01*
X42213388Y-5830876D01*
X41706749Y-5324237D01*
X41706748Y-5324237D01*
X41643668Y-5411062D01*
X41643667Y-5411064D01*
X41557915Y-5579361D01*
X41518193Y-5701612D01*
X41478755Y-5759287D01*
X41414396Y-5786485D01*
X41345550Y-5774570D01*
X41294074Y-5727326D01*
X41282332Y-5701614D01*
X41242547Y-5579168D01*
X41156760Y-5410801D01*
X41045690Y-5257927D01*
X40912073Y-5124310D01*
X40759199Y-5013240D01*
X40590836Y-4927454D01*
X40516472Y-4903291D01*
X40469195Y-4887930D01*
X40411521Y-4848493D01*
X40384323Y-4784134D01*
X40396238Y-4715288D01*
X40443482Y-4663812D01*
X40469194Y-4652069D01*
X40590832Y-4612547D01*
X40759199Y-4526760D01*
X40912073Y-4415690D01*
X41045690Y-4282073D01*
X41156760Y-4129199D01*
X41242547Y-3960832D01*
X41282069Y-3839195D01*
X41321507Y-3781521D01*
X41385866Y-3754323D01*
X41454712Y-3766238D01*
G37*
%TD.AperFunction*%
%TA.AperFunction,Conductor*%
G36*
X46534712Y-3766238D02*
G01*
X46586188Y-3813482D01*
X46597931Y-3839196D01*
X46637454Y-3960836D01*
X46673668Y-4031909D01*
X46723240Y-4129199D01*
X46834310Y-4282073D01*
X46967927Y-4415690D01*
X47120801Y-4526760D01*
X47289168Y-4612547D01*
X47411612Y-4652331D01*
X47469287Y-4691769D01*
X47496485Y-4756127D01*
X47484570Y-4824974D01*
X47437326Y-4876449D01*
X47411612Y-4888193D01*
X47289361Y-4927915D01*
X47121064Y-5013667D01*
X47121062Y-5013668D01*
X47034237Y-5076748D01*
X47034237Y-5076749D01*
X47540876Y-5583388D01*
X47442993Y-5639901D01*
X47349901Y-5732993D01*
X47293388Y-5830876D01*
X46786749Y-5324237D01*
X46786748Y-5324237D01*
X46723668Y-5411062D01*
X46723667Y-5411064D01*
X46637915Y-5579361D01*
X46598193Y-5701612D01*
X46558755Y-5759287D01*
X46494396Y-5786485D01*
X46425550Y-5774570D01*
X46374074Y-5727326D01*
X46362332Y-5701614D01*
X46322547Y-5579168D01*
X46236760Y-5410801D01*
X46125690Y-5257927D01*
X45992073Y-5124310D01*
X45839199Y-5013240D01*
X45670836Y-4927454D01*
X45596472Y-4903291D01*
X45549195Y-4887930D01*
X45491521Y-4848493D01*
X45464323Y-4784134D01*
X45476238Y-4715288D01*
X45523482Y-4663812D01*
X45549194Y-4652069D01*
X45670832Y-4612547D01*
X45839199Y-4526760D01*
X45992073Y-4415690D01*
X46125690Y-4282073D01*
X46236760Y-4129199D01*
X46322547Y-3960832D01*
X46362069Y-3839195D01*
X46401507Y-3781521D01*
X46465866Y-3754323D01*
X46534712Y-3766238D01*
G37*
%TD.AperFunction*%
%TA.AperFunction,Conductor*%
G36*
X13514712Y-3766238D02*
G01*
X13566188Y-3813482D01*
X13577931Y-3839196D01*
X13617454Y-3960836D01*
X13653668Y-4031909D01*
X13703240Y-4129199D01*
X13814310Y-4282073D01*
X13947927Y-4415690D01*
X14100801Y-4526760D01*
X14180347Y-4567290D01*
X14269163Y-4612545D01*
X14269165Y-4612545D01*
X14269168Y-4612547D01*
X14351185Y-4639196D01*
X14390803Y-4652069D01*
X14448478Y-4691507D01*
X14475676Y-4755866D01*
X14463761Y-4824712D01*
X14416516Y-4876188D01*
X14390803Y-4887931D01*
X14269163Y-4927454D01*
X14100800Y-5013240D01*
X14013579Y-5076610D01*
X13947927Y-5124310D01*
X13947925Y-5124312D01*
X13947924Y-5124312D01*
X13814312Y-5257924D01*
X13814312Y-5257925D01*
X13814310Y-5257927D01*
X13807162Y-5267766D01*
X13703240Y-5410800D01*
X13617454Y-5579163D01*
X13577668Y-5701612D01*
X13538230Y-5759287D01*
X13473871Y-5786485D01*
X13405025Y-5774570D01*
X13353549Y-5727325D01*
X13341806Y-5701611D01*
X13302085Y-5579362D01*
X13216333Y-5411066D01*
X13153249Y-5324237D01*
X13153248Y-5324237D01*
X12646611Y-5830875D01*
X12590099Y-5732993D01*
X12497007Y-5639901D01*
X12399123Y-5583388D01*
X12905761Y-5076749D01*
X12818933Y-5013666D01*
X12650637Y-4927914D01*
X12528388Y-4888193D01*
X12470712Y-4848755D01*
X12443514Y-4784397D01*
X12455429Y-4715550D01*
X12502673Y-4664075D01*
X12528382Y-4652333D01*
X12650832Y-4612547D01*
X12819199Y-4526760D01*
X12972073Y-4415690D01*
X13105690Y-4282073D01*
X13216760Y-4129199D01*
X13302547Y-3960832D01*
X13342069Y-3839195D01*
X13381507Y-3781521D01*
X13445866Y-3754323D01*
X13514712Y-3766238D01*
G37*
%TD.AperFunction*%
%TA.AperFunction,Conductor*%
G36*
X23674712Y-3766238D02*
G01*
X23726188Y-3813482D01*
X23737931Y-3839196D01*
X23777454Y-3960836D01*
X23813668Y-4031909D01*
X23863240Y-4129199D01*
X23974310Y-4282073D01*
X24107927Y-4415690D01*
X24260801Y-4526760D01*
X24340347Y-4567290D01*
X24429163Y-4612545D01*
X24429165Y-4612545D01*
X24429168Y-4612547D01*
X24511185Y-4639196D01*
X24550803Y-4652069D01*
X24608478Y-4691507D01*
X24635676Y-4755866D01*
X24623761Y-4824712D01*
X24576516Y-4876188D01*
X24550803Y-4887931D01*
X24429163Y-4927454D01*
X24260800Y-5013240D01*
X24173579Y-5076610D01*
X24107927Y-5124310D01*
X24107925Y-5124312D01*
X24107924Y-5124312D01*
X23974312Y-5257924D01*
X23974312Y-5257925D01*
X23974310Y-5257927D01*
X23967162Y-5267766D01*
X23863240Y-5410800D01*
X23777454Y-5579163D01*
X23737668Y-5701612D01*
X23698230Y-5759287D01*
X23633871Y-5786485D01*
X23565025Y-5774570D01*
X23513549Y-5727325D01*
X23501806Y-5701611D01*
X23462085Y-5579362D01*
X23376333Y-5411066D01*
X23313249Y-5324237D01*
X22806611Y-5830875D01*
X22750099Y-5732993D01*
X22657007Y-5639901D01*
X22559123Y-5583388D01*
X23065761Y-5076749D01*
X22978933Y-5013666D01*
X22810637Y-4927914D01*
X22688388Y-4888193D01*
X22630712Y-4848755D01*
X22603514Y-4784397D01*
X22615429Y-4715550D01*
X22662673Y-4664075D01*
X22688382Y-4652333D01*
X22810832Y-4612547D01*
X22979199Y-4526760D01*
X23132073Y-4415690D01*
X23265690Y-4282073D01*
X23376760Y-4129199D01*
X23462547Y-3960832D01*
X23502069Y-3839195D01*
X23541507Y-3781521D01*
X23605866Y-3754323D01*
X23674712Y-3766238D01*
G37*
%TD.AperFunction*%
%TA.AperFunction,Conductor*%
G36*
X31294712Y-3766238D02*
G01*
X31346188Y-3813482D01*
X31357931Y-3839196D01*
X31397454Y-3960836D01*
X31433668Y-4031909D01*
X31483240Y-4129199D01*
X31594310Y-4282073D01*
X31727927Y-4415690D01*
X31880801Y-4526760D01*
X31960347Y-4567290D01*
X32049163Y-4612545D01*
X32049165Y-4612545D01*
X32049168Y-4612547D01*
X32131185Y-4639196D01*
X32170803Y-4652069D01*
X32228478Y-4691507D01*
X32255676Y-4755866D01*
X32243761Y-4824712D01*
X32196516Y-4876188D01*
X32170803Y-4887931D01*
X32049163Y-4927454D01*
X31880800Y-5013240D01*
X31793579Y-5076610D01*
X31727927Y-5124310D01*
X31727925Y-5124312D01*
X31727924Y-5124312D01*
X31594312Y-5257924D01*
X31594312Y-5257925D01*
X31594310Y-5257927D01*
X31587162Y-5267766D01*
X31483240Y-5410800D01*
X31397454Y-5579163D01*
X31357668Y-5701612D01*
X31318230Y-5759287D01*
X31253871Y-5786485D01*
X31185025Y-5774570D01*
X31133549Y-5727325D01*
X31121806Y-5701611D01*
X31082085Y-5579362D01*
X30996333Y-5411066D01*
X30933249Y-5324237D01*
X30426611Y-5830875D01*
X30370099Y-5732993D01*
X30277007Y-5639901D01*
X30179123Y-5583388D01*
X30685761Y-5076749D01*
X30598933Y-5013666D01*
X30430637Y-4927914D01*
X30308388Y-4888193D01*
X30250712Y-4848755D01*
X30223514Y-4784397D01*
X30235429Y-4715550D01*
X30282673Y-4664075D01*
X30308382Y-4652333D01*
X30430832Y-4612547D01*
X30599199Y-4526760D01*
X30752073Y-4415690D01*
X30885690Y-4282073D01*
X30996760Y-4129199D01*
X31082547Y-3960832D01*
X31122069Y-3839195D01*
X31161507Y-3781521D01*
X31225866Y-3754323D01*
X31294712Y-3766238D01*
G37*
%TD.AperFunction*%
%TA.AperFunction,Conductor*%
G36*
X43994712Y-3766238D02*
G01*
X44046188Y-3813482D01*
X44057931Y-3839196D01*
X44097454Y-3960836D01*
X44133668Y-4031909D01*
X44183240Y-4129199D01*
X44294310Y-4282073D01*
X44427927Y-4415690D01*
X44580801Y-4526760D01*
X44660347Y-4567290D01*
X44749163Y-4612545D01*
X44749165Y-4612545D01*
X44749168Y-4612547D01*
X44831185Y-4639196D01*
X44870803Y-4652069D01*
X44928478Y-4691507D01*
X44955676Y-4755866D01*
X44943761Y-4824712D01*
X44896516Y-4876188D01*
X44870803Y-4887931D01*
X44749163Y-4927454D01*
X44580800Y-5013240D01*
X44493579Y-5076610D01*
X44427927Y-5124310D01*
X44427925Y-5124312D01*
X44427924Y-5124312D01*
X44294312Y-5257924D01*
X44294312Y-5257925D01*
X44294310Y-5257927D01*
X44287162Y-5267766D01*
X44183240Y-5410800D01*
X44097454Y-5579163D01*
X44057668Y-5701612D01*
X44018230Y-5759287D01*
X43953871Y-5786485D01*
X43885025Y-5774570D01*
X43833549Y-5727325D01*
X43821806Y-5701611D01*
X43782085Y-5579362D01*
X43696333Y-5411066D01*
X43633249Y-5324237D01*
X43633248Y-5324237D01*
X43126611Y-5830875D01*
X43070099Y-5732993D01*
X42977007Y-5639901D01*
X42879123Y-5583388D01*
X43385761Y-5076749D01*
X43298933Y-5013666D01*
X43130637Y-4927914D01*
X43008388Y-4888193D01*
X42950712Y-4848755D01*
X42923514Y-4784397D01*
X42935429Y-4715550D01*
X42982673Y-4664075D01*
X43008382Y-4652333D01*
X43130832Y-4612547D01*
X43299199Y-4526760D01*
X43452073Y-4415690D01*
X43585690Y-4282073D01*
X43696760Y-4129199D01*
X43782547Y-3960832D01*
X43822069Y-3839195D01*
X43861507Y-3781521D01*
X43925866Y-3754323D01*
X43994712Y-3766238D01*
G37*
%TD.AperFunction*%
%TA.AperFunction,Conductor*%
G36*
X49074712Y-3766238D02*
G01*
X49126188Y-3813482D01*
X49137931Y-3839196D01*
X49177454Y-3960836D01*
X49213668Y-4031909D01*
X49263240Y-4129199D01*
X49374310Y-4282073D01*
X49507927Y-4415690D01*
X49660801Y-4526760D01*
X49740347Y-4567290D01*
X49829163Y-4612545D01*
X49829165Y-4612545D01*
X49829168Y-4612547D01*
X49911185Y-4639196D01*
X49950803Y-4652069D01*
X50008478Y-4691507D01*
X50035676Y-4755866D01*
X50023761Y-4824712D01*
X49976516Y-4876188D01*
X49950803Y-4887931D01*
X49829163Y-4927454D01*
X49660800Y-5013240D01*
X49573579Y-5076610D01*
X49507927Y-5124310D01*
X49507925Y-5124312D01*
X49507924Y-5124312D01*
X49374312Y-5257924D01*
X49374312Y-5257925D01*
X49374310Y-5257927D01*
X49367162Y-5267766D01*
X49263240Y-5410800D01*
X49177454Y-5579163D01*
X49137668Y-5701612D01*
X49098230Y-5759287D01*
X49033871Y-5786485D01*
X48965025Y-5774570D01*
X48913549Y-5727325D01*
X48901806Y-5701611D01*
X48862085Y-5579362D01*
X48776333Y-5411066D01*
X48713249Y-5324237D01*
X48713248Y-5324237D01*
X48206611Y-5830875D01*
X48150099Y-5732993D01*
X48057007Y-5639901D01*
X47959123Y-5583388D01*
X48465761Y-5076749D01*
X48378933Y-5013666D01*
X48210637Y-4927914D01*
X48088388Y-4888193D01*
X48030712Y-4848755D01*
X48003514Y-4784397D01*
X48015429Y-4715550D01*
X48062673Y-4664075D01*
X48088382Y-4652333D01*
X48210832Y-4612547D01*
X48379199Y-4526760D01*
X48532073Y-4415690D01*
X48665690Y-4282073D01*
X48776760Y-4129199D01*
X48862547Y-3960832D01*
X48902069Y-3839195D01*
X48941507Y-3781521D01*
X49005866Y-3754323D01*
X49074712Y-3766238D01*
G37*
%TD.AperFunction*%
%TA.AperFunction,Conductor*%
G36*
X16869901Y-3807007D02*
G01*
X16962993Y-3900099D01*
X17060875Y-3956611D01*
X16554237Y-4463248D01*
X16554237Y-4463249D01*
X16641066Y-4526333D01*
X16809362Y-4612085D01*
X16931611Y-4651806D01*
X16989286Y-4691243D01*
X17016485Y-4755602D01*
X17004571Y-4824448D01*
X16957327Y-4875924D01*
X16931612Y-4887668D01*
X16809163Y-4927454D01*
X16640800Y-5013240D01*
X16553579Y-5076610D01*
X16487927Y-5124310D01*
X16487925Y-5124312D01*
X16487924Y-5124312D01*
X16354312Y-5257924D01*
X16354312Y-5257925D01*
X16354310Y-5257927D01*
X16347162Y-5267766D01*
X16243240Y-5410800D01*
X16157454Y-5579163D01*
X16117931Y-5700803D01*
X16078493Y-5758478D01*
X16014134Y-5785676D01*
X15945288Y-5773761D01*
X15893812Y-5726516D01*
X15882069Y-5700803D01*
X15842610Y-5579362D01*
X15842547Y-5579168D01*
X15842545Y-5579165D01*
X15842545Y-5579163D01*
X15756894Y-5411064D01*
X15756760Y-5410801D01*
X15645690Y-5257927D01*
X15512073Y-5124310D01*
X15359199Y-5013240D01*
X15190836Y-4927454D01*
X15116472Y-4903291D01*
X15069195Y-4887930D01*
X15011521Y-4848493D01*
X14984323Y-4784134D01*
X14996238Y-4715288D01*
X15043482Y-4663812D01*
X15069194Y-4652069D01*
X15190832Y-4612547D01*
X15359199Y-4526760D01*
X15512073Y-4415690D01*
X15645690Y-4282073D01*
X15756760Y-4129199D01*
X15842547Y-3960832D01*
X15882332Y-3838385D01*
X15921768Y-3780713D01*
X15986127Y-3753514D01*
X16054973Y-3765429D01*
X16106449Y-3812673D01*
X16118193Y-3838388D01*
X16157914Y-3960637D01*
X16243666Y-4128933D01*
X16306749Y-4215761D01*
X16813387Y-3709123D01*
X16869901Y-3807007D01*
G37*
%TD.AperFunction*%
%TA.AperFunction,Conductor*%
G36*
X18233249Y-4215762D02*
G01*
X18233251Y-4215761D01*
X18296329Y-4128940D01*
X18382086Y-3960635D01*
X18421806Y-3838389D01*
X18461243Y-3780713D01*
X18525601Y-3753514D01*
X18594448Y-3765428D01*
X18645924Y-3812672D01*
X18657668Y-3838387D01*
X18697454Y-3960836D01*
X18733668Y-4031909D01*
X18783240Y-4129199D01*
X18894310Y-4282073D01*
X19027927Y-4415690D01*
X19180801Y-4526760D01*
X19260347Y-4567290D01*
X19349163Y-4612545D01*
X19349165Y-4612545D01*
X19349168Y-4612547D01*
X19431185Y-4639196D01*
X19470803Y-4652069D01*
X19528478Y-4691507D01*
X19555676Y-4755866D01*
X19543761Y-4824712D01*
X19496516Y-4876188D01*
X19470803Y-4887931D01*
X19349163Y-4927454D01*
X19180800Y-5013240D01*
X19093579Y-5076610D01*
X19027927Y-5124310D01*
X19027925Y-5124312D01*
X19027924Y-5124312D01*
X18894312Y-5257924D01*
X18894312Y-5257925D01*
X18894310Y-5257927D01*
X18887162Y-5267766D01*
X18783240Y-5410800D01*
X18697454Y-5579163D01*
X18657931Y-5700803D01*
X18618493Y-5758478D01*
X18554134Y-5785676D01*
X18485288Y-5773761D01*
X18433812Y-5726516D01*
X18422069Y-5700803D01*
X18382610Y-5579362D01*
X18382547Y-5579168D01*
X18382545Y-5579165D01*
X18382545Y-5579163D01*
X18296894Y-5411064D01*
X18296760Y-5410801D01*
X18185690Y-5257927D01*
X18052073Y-5124310D01*
X17899199Y-5013240D01*
X17730836Y-4927454D01*
X17610003Y-4888193D01*
X17608386Y-4887667D01*
X17550712Y-4848230D01*
X17523514Y-4783871D01*
X17535429Y-4715025D01*
X17582673Y-4663549D01*
X17608389Y-4651806D01*
X17730635Y-4612086D01*
X17898940Y-4526329D01*
X17985761Y-4463251D01*
X17985762Y-4463249D01*
X17479124Y-3956611D01*
X17577007Y-3900099D01*
X17670099Y-3807007D01*
X17726611Y-3709124D01*
X18233249Y-4215762D01*
G37*
%TD.AperFunction*%
%TA.AperFunction,Conductor*%
G36*
X37189901Y-3807007D02*
G01*
X37282993Y-3900099D01*
X37380875Y-3956611D01*
X36874237Y-4463248D01*
X36874237Y-4463249D01*
X36961066Y-4526333D01*
X37129362Y-4612085D01*
X37251611Y-4651806D01*
X37309286Y-4691243D01*
X37336485Y-4755602D01*
X37324571Y-4824448D01*
X37277327Y-4875924D01*
X37251612Y-4887668D01*
X37129163Y-4927454D01*
X36960800Y-5013240D01*
X36873579Y-5076610D01*
X36807927Y-5124310D01*
X36807925Y-5124312D01*
X36807924Y-5124312D01*
X36674312Y-5257924D01*
X36674312Y-5257925D01*
X36674310Y-5257927D01*
X36667162Y-5267766D01*
X36563240Y-5410800D01*
X36477454Y-5579163D01*
X36437931Y-5700803D01*
X36398493Y-5758478D01*
X36334134Y-5785676D01*
X36265288Y-5773761D01*
X36213812Y-5726516D01*
X36202069Y-5700803D01*
X36162610Y-5579362D01*
X36162547Y-5579168D01*
X36162545Y-5579165D01*
X36162545Y-5579163D01*
X36076894Y-5411064D01*
X36076760Y-5410801D01*
X35965690Y-5257927D01*
X35832073Y-5124310D01*
X35679199Y-5013240D01*
X35510836Y-4927454D01*
X35436472Y-4903291D01*
X35389195Y-4887930D01*
X35331521Y-4848493D01*
X35304323Y-4784134D01*
X35316238Y-4715288D01*
X35363482Y-4663812D01*
X35389194Y-4652069D01*
X35510832Y-4612547D01*
X35679199Y-4526760D01*
X35832073Y-4415690D01*
X35965690Y-4282073D01*
X36076760Y-4129199D01*
X36162547Y-3960832D01*
X36202332Y-3838385D01*
X36241768Y-3780713D01*
X36306127Y-3753514D01*
X36374973Y-3765429D01*
X36426449Y-3812673D01*
X36438193Y-3838388D01*
X36477914Y-3960637D01*
X36563666Y-4128933D01*
X36626749Y-4215761D01*
X37133387Y-3709123D01*
X37189901Y-3807007D01*
G37*
%TD.AperFunction*%
%TA.AperFunction,Conductor*%
G36*
X38553249Y-4215762D02*
G01*
X38553251Y-4215761D01*
X38616329Y-4128940D01*
X38702086Y-3960635D01*
X38741806Y-3838389D01*
X38781243Y-3780713D01*
X38845601Y-3753514D01*
X38914448Y-3765428D01*
X38965924Y-3812672D01*
X38977668Y-3838387D01*
X39017454Y-3960836D01*
X39053668Y-4031909D01*
X39103240Y-4129199D01*
X39214310Y-4282073D01*
X39347927Y-4415690D01*
X39500801Y-4526760D01*
X39580347Y-4567290D01*
X39669163Y-4612545D01*
X39669165Y-4612545D01*
X39669168Y-4612547D01*
X39751185Y-4639196D01*
X39790803Y-4652069D01*
X39848478Y-4691507D01*
X39875676Y-4755866D01*
X39863761Y-4824712D01*
X39816516Y-4876188D01*
X39790803Y-4887931D01*
X39669163Y-4927454D01*
X39500800Y-5013240D01*
X39413579Y-5076610D01*
X39347927Y-5124310D01*
X39347925Y-5124312D01*
X39347924Y-5124312D01*
X39214312Y-5257924D01*
X39214312Y-5257925D01*
X39214310Y-5257927D01*
X39207162Y-5267766D01*
X39103240Y-5410800D01*
X39017454Y-5579163D01*
X38977931Y-5700803D01*
X38938493Y-5758478D01*
X38874134Y-5785676D01*
X38805288Y-5773761D01*
X38753812Y-5726516D01*
X38742069Y-5700803D01*
X38702610Y-5579362D01*
X38702547Y-5579168D01*
X38702545Y-5579165D01*
X38702545Y-5579163D01*
X38616894Y-5411064D01*
X38616760Y-5410801D01*
X38505690Y-5257927D01*
X38372073Y-5124310D01*
X38219199Y-5013240D01*
X38050836Y-4927454D01*
X37930003Y-4888193D01*
X37928386Y-4887667D01*
X37870712Y-4848230D01*
X37843514Y-4783871D01*
X37855429Y-4715025D01*
X37902673Y-4663549D01*
X37928389Y-4651806D01*
X38050635Y-4612086D01*
X38218940Y-4526329D01*
X38305761Y-4463251D01*
X38305762Y-4463249D01*
X37799124Y-3956611D01*
X37897007Y-3900099D01*
X37990099Y-3807007D01*
X38046611Y-3709124D01*
X38553249Y-4215762D01*
G37*
%TD.AperFunction*%
%TA.AperFunction,Conductor*%
G36*
X54969901Y-3807007D02*
G01*
X55062993Y-3900099D01*
X55160875Y-3956611D01*
X54654237Y-4463248D01*
X54654237Y-4463249D01*
X54741066Y-4526333D01*
X54909362Y-4612085D01*
X55031611Y-4651806D01*
X55089286Y-4691243D01*
X55116485Y-4755602D01*
X55104571Y-4824448D01*
X55057327Y-4875924D01*
X55031612Y-4887668D01*
X54909163Y-4927454D01*
X54740800Y-5013240D01*
X54653579Y-5076610D01*
X54587927Y-5124310D01*
X54587925Y-5124312D01*
X54587924Y-5124312D01*
X54454312Y-5257924D01*
X54454312Y-5257925D01*
X54454310Y-5257927D01*
X54447162Y-5267766D01*
X54343240Y-5410800D01*
X54257454Y-5579163D01*
X54217931Y-5700803D01*
X54178493Y-5758478D01*
X54114134Y-5785676D01*
X54045288Y-5773761D01*
X53993812Y-5726516D01*
X53982069Y-5700803D01*
X53942610Y-5579362D01*
X53942547Y-5579168D01*
X53942545Y-5579165D01*
X53942545Y-5579163D01*
X53856894Y-5411064D01*
X53856760Y-5410801D01*
X53745690Y-5257927D01*
X53612073Y-5124310D01*
X53459199Y-5013240D01*
X53290836Y-4927454D01*
X53216472Y-4903291D01*
X53169195Y-4887930D01*
X53111521Y-4848493D01*
X53084323Y-4784134D01*
X53096238Y-4715288D01*
X53143482Y-4663812D01*
X53169194Y-4652069D01*
X53290832Y-4612547D01*
X53459199Y-4526760D01*
X53612073Y-4415690D01*
X53745690Y-4282073D01*
X53856760Y-4129199D01*
X53942547Y-3960832D01*
X53982332Y-3838385D01*
X54021768Y-3780713D01*
X54086127Y-3753514D01*
X54154973Y-3765429D01*
X54206449Y-3812673D01*
X54218193Y-3838388D01*
X54257914Y-3960637D01*
X54343666Y-4128933D01*
X54406749Y-4215761D01*
X54913387Y-3709123D01*
X54969901Y-3807007D01*
G37*
%TD.AperFunction*%
%TA.AperFunction,Conductor*%
G36*
X64443039Y-519685D02*
G01*
X64488794Y-572489D01*
X64500000Y-624000D01*
X64500000Y-55876000D01*
X64480315Y-55943039D01*
X64427511Y-55988794D01*
X64376000Y-56000000D01*
X624000Y-56000000D01*
X556961Y-55980315D01*
X511206Y-55927511D01*
X500000Y-55876000D01*
X500000Y-52499998D01*
X1000000Y-52499998D01*
X1000000Y-52500001D01*
X1085184Y-53147045D01*
X1085185Y-53147047D01*
X1334936Y-53750000D01*
X1732233Y-54267766D01*
X2250000Y-54665063D01*
X2852952Y-54914814D01*
X3176476Y-54957407D01*
X3499999Y-55000000D01*
X3500000Y-55000000D01*
X3500001Y-55000000D01*
X3715682Y-54971604D01*
X4147047Y-54914814D01*
X4750000Y-54665063D01*
X5267766Y-54267766D01*
X5665063Y-53750000D01*
X5914814Y-53147047D01*
X6000000Y-52500000D01*
X6000000Y-52499998D01*
X59000000Y-52499998D01*
X59000000Y-52500001D01*
X59085184Y-53147045D01*
X59085185Y-53147047D01*
X59334936Y-53750000D01*
X59732233Y-54267766D01*
X60250000Y-54665063D01*
X60852952Y-54914814D01*
X61176476Y-54957407D01*
X61499999Y-55000000D01*
X61500000Y-55000000D01*
X61500001Y-55000000D01*
X61715682Y-54971604D01*
X62147047Y-54914814D01*
X62750000Y-54665063D01*
X63267766Y-54267766D01*
X63665063Y-53750000D01*
X63914814Y-53147047D01*
X64000000Y-52500000D01*
X63914814Y-51852952D01*
X63665063Y-51250000D01*
X63267766Y-50732233D01*
X62750000Y-50334936D01*
X62749995Y-50334934D01*
X62147047Y-50085185D01*
X62147045Y-50085184D01*
X61500001Y-50000000D01*
X61499999Y-50000000D01*
X60852953Y-50085184D01*
X60852951Y-50085185D01*
X60250002Y-50334934D01*
X59732233Y-50732233D01*
X59334934Y-51250002D01*
X59085185Y-51852951D01*
X59085184Y-51852953D01*
X59000000Y-52499998D01*
X6000000Y-52499998D01*
X5914814Y-51852952D01*
X5665063Y-51250000D01*
X5267766Y-50732233D01*
X4750000Y-50334936D01*
X4749995Y-50334934D01*
X4147047Y-50085185D01*
X4147045Y-50085184D01*
X3500000Y-50000000D01*
X3499998Y-50000000D01*
X2852953Y-50085184D01*
X2852951Y-50085185D01*
X2250000Y-50334935D01*
X1732233Y-50732233D01*
X1334934Y-51250002D01*
X1085185Y-51852951D01*
X1085184Y-51852953D01*
X1000000Y-52499998D01*
X500000Y-52499998D01*
X500000Y-47210645D01*
X10799500Y-47210645D01*
X10799500Y-48789363D01*
X10814953Y-48906753D01*
X10814956Y-48906762D01*
X10875464Y-49052841D01*
X10971718Y-49178282D01*
X11097159Y-49274536D01*
X11243238Y-49335044D01*
X11360639Y-49350500D01*
X12639360Y-49350499D01*
X12639363Y-49350499D01*
X12756753Y-49335046D01*
X12756757Y-49335044D01*
X12756762Y-49335044D01*
X12902841Y-49274536D01*
X13028282Y-49178282D01*
X13124536Y-49052841D01*
X13185044Y-48906762D01*
X13200500Y-48789361D01*
X13200499Y-48759312D01*
X13220182Y-48692276D01*
X13272984Y-48646519D01*
X13342142Y-48636574D01*
X13405699Y-48665597D01*
X13434983Y-48703016D01*
X13473668Y-48778938D01*
X13584685Y-48931741D01*
X13584689Y-48931746D01*
X13718253Y-49065310D01*
X13718258Y-49065314D01*
X13871059Y-49176329D01*
X14039362Y-49262085D01*
X14218995Y-49320451D01*
X14219000Y-49320452D01*
X14324999Y-49337240D01*
X14325000Y-49337240D01*
X14325000Y-48470746D01*
X14434174Y-48500000D01*
X14565826Y-48500000D01*
X14675000Y-48470746D01*
X14675000Y-49337240D01*
X14780999Y-49320452D01*
X14781004Y-49320451D01*
X14960637Y-49262085D01*
X15128940Y-49176329D01*
X15281741Y-49065314D01*
X15281746Y-49065310D01*
X15415310Y-48931746D01*
X15415314Y-48931741D01*
X15526329Y-48778940D01*
X15612085Y-48610637D01*
X15670451Y-48431002D01*
X15700000Y-48244447D01*
X15700000Y-48175000D01*
X14970746Y-48175000D01*
X15000000Y-48065826D01*
X15000000Y-47934174D01*
X14970746Y-47825000D01*
X15700000Y-47825000D01*
X15700000Y-47755552D01*
X15670451Y-47568997D01*
X15612085Y-47389362D01*
X15547636Y-47262875D01*
X15526329Y-47221058D01*
X15518764Y-47210645D01*
X20799500Y-47210645D01*
X20799500Y-48789363D01*
X20814953Y-48906753D01*
X20814956Y-48906762D01*
X20875464Y-49052841D01*
X20971718Y-49178282D01*
X21097159Y-49274536D01*
X21243238Y-49335044D01*
X21360639Y-49350500D01*
X22639360Y-49350499D01*
X22639363Y-49350499D01*
X22756753Y-49335046D01*
X22756757Y-49335044D01*
X22756762Y-49335044D01*
X22902841Y-49274536D01*
X23028282Y-49178282D01*
X23124536Y-49052841D01*
X23185044Y-48906762D01*
X23200500Y-48789361D01*
X23200499Y-48759312D01*
X23220182Y-48692276D01*
X23272984Y-48646519D01*
X23342142Y-48636574D01*
X23405699Y-48665597D01*
X23434983Y-48703016D01*
X23473668Y-48778938D01*
X23584685Y-48931741D01*
X23584689Y-48931746D01*
X23718253Y-49065310D01*
X23718258Y-49065314D01*
X23871059Y-49176329D01*
X24039362Y-49262085D01*
X24218995Y-49320451D01*
X24219000Y-49320452D01*
X24324999Y-49337240D01*
X24325000Y-49337240D01*
X24325000Y-48470746D01*
X24434174Y-48500000D01*
X24565826Y-48500000D01*
X24675000Y-48470746D01*
X24675000Y-49337240D01*
X24780999Y-49320452D01*
X24781004Y-49320451D01*
X24960637Y-49262085D01*
X25128940Y-49176329D01*
X25281741Y-49065314D01*
X25281746Y-49065310D01*
X25415310Y-48931746D01*
X25415314Y-48931741D01*
X25526329Y-48778940D01*
X25612085Y-48610637D01*
X25670451Y-48431002D01*
X25700000Y-48244447D01*
X25700000Y-48175000D01*
X24970746Y-48175000D01*
X25000000Y-48065826D01*
X25000000Y-47934174D01*
X24970746Y-47825000D01*
X25700000Y-47825000D01*
X25700000Y-47755552D01*
X25670451Y-47568997D01*
X25612085Y-47389362D01*
X25526329Y-47221059D01*
X25415314Y-47068258D01*
X25415310Y-47068253D01*
X25281746Y-46934689D01*
X25281741Y-46934685D01*
X25128940Y-46823670D01*
X24960637Y-46737914D01*
X24781002Y-46679548D01*
X24675000Y-46662758D01*
X24675000Y-47529253D01*
X24565826Y-47500000D01*
X24434174Y-47500000D01*
X24325000Y-47529253D01*
X24325000Y-46662758D01*
X24218997Y-46679548D01*
X24039362Y-46737914D01*
X23871059Y-46823670D01*
X23718258Y-46934685D01*
X23718253Y-46934689D01*
X23584689Y-47068253D01*
X23584685Y-47068258D01*
X23473670Y-47221059D01*
X23434984Y-47296984D01*
X23387009Y-47347780D01*
X23319188Y-47364575D01*
X23253053Y-47342037D01*
X23209602Y-47287322D01*
X23200499Y-47240689D01*
X23200499Y-47210636D01*
X23185046Y-47093246D01*
X23185044Y-47093239D01*
X23185044Y-47093238D01*
X23124536Y-46947159D01*
X23028282Y-46821718D01*
X22902841Y-46725464D01*
X22756762Y-46664956D01*
X22756760Y-46664955D01*
X22639370Y-46649501D01*
X22639367Y-46649500D01*
X22639361Y-46649500D01*
X22639354Y-46649500D01*
X21360636Y-46649500D01*
X21243246Y-46664953D01*
X21243237Y-46664956D01*
X21097160Y-46725463D01*
X20971718Y-46821718D01*
X20875463Y-46947160D01*
X20814956Y-47093237D01*
X20814955Y-47093239D01*
X20799501Y-47210629D01*
X20799501Y-47210636D01*
X20799500Y-47210645D01*
X15518764Y-47210645D01*
X15415314Y-47068258D01*
X15415310Y-47068253D01*
X15281746Y-46934689D01*
X15281741Y-46934685D01*
X15128940Y-46823670D01*
X14960637Y-46737914D01*
X14781002Y-46679548D01*
X14675000Y-46662758D01*
X14675000Y-47529253D01*
X14565826Y-47500000D01*
X14434174Y-47500000D01*
X14325000Y-47529253D01*
X14325000Y-46662758D01*
X14218997Y-46679548D01*
X14039362Y-46737914D01*
X13871059Y-46823670D01*
X13718258Y-46934685D01*
X13718253Y-46934689D01*
X13584689Y-47068253D01*
X13584685Y-47068258D01*
X13473670Y-47221059D01*
X13434984Y-47296984D01*
X13387009Y-47347780D01*
X13319188Y-47364575D01*
X13253053Y-47342037D01*
X13209602Y-47287322D01*
X13200499Y-47240689D01*
X13200499Y-47210636D01*
X13185046Y-47093246D01*
X13185044Y-47093239D01*
X13185044Y-47093238D01*
X13124536Y-46947159D01*
X13028282Y-46821718D01*
X12902841Y-46725464D01*
X12756762Y-46664956D01*
X12756760Y-46664955D01*
X12639370Y-46649501D01*
X12639367Y-46649500D01*
X12639361Y-46649500D01*
X12639354Y-46649500D01*
X11360636Y-46649500D01*
X11243246Y-46664953D01*
X11243237Y-46664956D01*
X11097160Y-46725463D01*
X10971718Y-46821718D01*
X10875463Y-46947160D01*
X10814956Y-47093237D01*
X10814955Y-47093239D01*
X10799501Y-47210629D01*
X10799501Y-47210636D01*
X10799500Y-47210645D01*
X500000Y-47210645D01*
X500000Y-45073920D01*
X26249499Y-45073920D01*
X26278340Y-45218907D01*
X26278343Y-45218917D01*
X26334912Y-45355488D01*
X26334919Y-45355501D01*
X26417048Y-45478415D01*
X26417051Y-45478419D01*
X26521580Y-45582948D01*
X26521584Y-45582951D01*
X26644498Y-45665080D01*
X26644511Y-45665087D01*
X26781082Y-45721656D01*
X26781087Y-45721658D01*
X26781091Y-45721658D01*
X26781092Y-45721659D01*
X26926079Y-45750500D01*
X26926082Y-45750500D01*
X27073920Y-45750500D01*
X27171462Y-45731096D01*
X27218913Y-45721658D01*
X27355495Y-45665084D01*
X27420876Y-45621398D01*
X27487553Y-45600520D01*
X27489767Y-45600500D01*
X51510233Y-45600500D01*
X51577272Y-45620185D01*
X51579124Y-45621398D01*
X51644498Y-45665080D01*
X51644511Y-45665087D01*
X51781082Y-45721656D01*
X51781087Y-45721658D01*
X51781091Y-45721658D01*
X51781092Y-45721659D01*
X51926079Y-45750500D01*
X51926082Y-45750500D01*
X52073920Y-45750500D01*
X52171462Y-45731096D01*
X52218913Y-45721658D01*
X52355495Y-45665084D01*
X52478416Y-45582951D01*
X52582951Y-45478416D01*
X52665084Y-45355495D01*
X52721658Y-45218913D01*
X52750500Y-45073918D01*
X52750500Y-44926082D01*
X52750500Y-44926079D01*
X52721659Y-44781092D01*
X52721658Y-44781091D01*
X52721658Y-44781087D01*
X52721656Y-44781082D01*
X52665087Y-44644511D01*
X52665080Y-44644498D01*
X52582951Y-44521584D01*
X52582948Y-44521580D01*
X52478419Y-44417051D01*
X52478415Y-44417048D01*
X52355501Y-44334919D01*
X52355488Y-44334912D01*
X52218917Y-44278343D01*
X52218907Y-44278340D01*
X52073920Y-44249500D01*
X52073918Y-44249500D01*
X51926082Y-44249500D01*
X51926080Y-44249500D01*
X51781092Y-44278340D01*
X51781082Y-44278343D01*
X51644511Y-44334912D01*
X51644498Y-44334919D01*
X51579124Y-44378602D01*
X51512447Y-44399480D01*
X51510233Y-44399500D01*
X27489767Y-44399500D01*
X27422728Y-44379815D01*
X27420876Y-44378602D01*
X27355501Y-44334919D01*
X27355488Y-44334912D01*
X27218917Y-44278343D01*
X27218907Y-44278340D01*
X27073920Y-44249500D01*
X27073918Y-44249500D01*
X26926082Y-44249500D01*
X26926080Y-44249500D01*
X26781092Y-44278340D01*
X26781082Y-44278343D01*
X26644511Y-44334912D01*
X26644498Y-44334919D01*
X26521584Y-44417048D01*
X26521580Y-44417051D01*
X26417051Y-44521580D01*
X26417048Y-44521584D01*
X26334919Y-44644498D01*
X26334912Y-44644511D01*
X26278343Y-44781082D01*
X26278340Y-44781092D01*
X26249500Y-44926079D01*
X26249500Y-44926082D01*
X26249500Y-45073918D01*
X26249500Y-45073920D01*
X26249499Y-45073920D01*
X500000Y-45073920D01*
X500000Y-34909448D01*
X50849500Y-34909448D01*
X50849500Y-35090551D01*
X50877829Y-35269410D01*
X50933787Y-35441636D01*
X50933788Y-35441639D01*
X51016006Y-35602997D01*
X51122441Y-35749494D01*
X51122445Y-35749499D01*
X51250500Y-35877554D01*
X51250505Y-35877558D01*
X51378287Y-35970396D01*
X51397006Y-35983996D01*
X51502484Y-36037740D01*
X51558360Y-36066211D01*
X51558363Y-36066212D01*
X51644476Y-36094191D01*
X51730591Y-36122171D01*
X51813429Y-36135291D01*
X51909449Y-36150500D01*
X51909454Y-36150500D01*
X52090551Y-36150500D01*
X52177259Y-36136765D01*
X52269409Y-36122171D01*
X52441639Y-36066211D01*
X52602994Y-35983996D01*
X52749501Y-35877553D01*
X52877553Y-35749501D01*
X52983996Y-35602994D01*
X53066211Y-35441639D01*
X53122171Y-35269409D01*
X53136765Y-35177259D01*
X53150500Y-35090551D01*
X53150500Y-34909448D01*
X58469500Y-34909448D01*
X58469500Y-35090551D01*
X58497829Y-35269410D01*
X58553787Y-35441636D01*
X58553788Y-35441639D01*
X58636006Y-35602997D01*
X58742441Y-35749494D01*
X58742445Y-35749499D01*
X58870500Y-35877554D01*
X58870505Y-35877558D01*
X58998287Y-35970396D01*
X59017006Y-35983996D01*
X59122484Y-36037740D01*
X59178360Y-36066211D01*
X59178363Y-36066212D01*
X59264476Y-36094191D01*
X59350591Y-36122171D01*
X59433429Y-36135291D01*
X59529449Y-36150500D01*
X59529454Y-36150500D01*
X59710551Y-36150500D01*
X59797259Y-36136765D01*
X59889409Y-36122171D01*
X60061639Y-36066211D01*
X60222994Y-35983996D01*
X60369501Y-35877553D01*
X60497553Y-35749501D01*
X60603996Y-35602994D01*
X60686211Y-35441639D01*
X60742171Y-35269409D01*
X60756765Y-35177259D01*
X60770500Y-35090551D01*
X60770500Y-34909448D01*
X60754019Y-34805397D01*
X60742171Y-34730591D01*
X60686211Y-34558361D01*
X60686211Y-34558360D01*
X60657740Y-34502484D01*
X60603996Y-34397006D01*
X60590396Y-34378287D01*
X60497558Y-34250505D01*
X60497554Y-34250500D01*
X60369499Y-34122445D01*
X60369494Y-34122441D01*
X60222997Y-34016006D01*
X60222996Y-34016005D01*
X60222994Y-34016004D01*
X60171300Y-33989664D01*
X60061639Y-33933788D01*
X60061636Y-33933787D01*
X59889410Y-33877829D01*
X59710551Y-33849500D01*
X59710546Y-33849500D01*
X59529454Y-33849500D01*
X59529449Y-33849500D01*
X59350589Y-33877829D01*
X59178363Y-33933787D01*
X59178360Y-33933788D01*
X59017002Y-34016006D01*
X58870505Y-34122441D01*
X58870500Y-34122445D01*
X58742445Y-34250500D01*
X58742441Y-34250505D01*
X58636006Y-34397002D01*
X58553788Y-34558360D01*
X58553787Y-34558363D01*
X58497829Y-34730589D01*
X58469500Y-34909448D01*
X53150500Y-34909448D01*
X53134019Y-34805397D01*
X53122171Y-34730591D01*
X53066211Y-34558361D01*
X53066211Y-34558360D01*
X53037740Y-34502484D01*
X52983996Y-34397006D01*
X52970396Y-34378287D01*
X52877558Y-34250505D01*
X52877554Y-34250500D01*
X52749499Y-34122445D01*
X52749494Y-34122441D01*
X52602997Y-34016006D01*
X52602996Y-34016005D01*
X52602994Y-34016004D01*
X52551300Y-33989664D01*
X52441639Y-33933788D01*
X52441636Y-33933787D01*
X52269410Y-33877829D01*
X52090551Y-33849500D01*
X52090546Y-33849500D01*
X51909454Y-33849500D01*
X51909449Y-33849500D01*
X51730589Y-33877829D01*
X51558363Y-33933787D01*
X51558360Y-33933788D01*
X51397002Y-34016006D01*
X51250505Y-34122441D01*
X51250500Y-34122445D01*
X51122445Y-34250500D01*
X51122441Y-34250505D01*
X51016006Y-34397002D01*
X50933788Y-34558360D01*
X50933787Y-34558363D01*
X50877829Y-34730589D01*
X50849500Y-34909448D01*
X500000Y-34909448D01*
X500000Y-29909448D01*
X8849500Y-29909448D01*
X8849500Y-30090551D01*
X8877829Y-30269410D01*
X8933787Y-30441636D01*
X8933788Y-30441639D01*
X9016006Y-30602997D01*
X9122441Y-30749494D01*
X9122445Y-30749499D01*
X9250500Y-30877554D01*
X9250505Y-30877558D01*
X9378287Y-30970396D01*
X9397006Y-30983996D01*
X9502484Y-31037740D01*
X9558360Y-31066211D01*
X9558363Y-31066212D01*
X9644476Y-31094191D01*
X9730591Y-31122171D01*
X9813429Y-31135291D01*
X9909449Y-31150500D01*
X9909454Y-31150500D01*
X10090551Y-31150500D01*
X10177259Y-31136765D01*
X10269409Y-31122171D01*
X10441639Y-31066211D01*
X10602994Y-30983996D01*
X10749501Y-30877553D01*
X10877553Y-30749501D01*
X10983996Y-30602994D01*
X11066211Y-30441639D01*
X11122171Y-30269409D01*
X11127780Y-30233991D01*
X11157708Y-30170860D01*
X11217020Y-30133928D01*
X11286882Y-30134926D01*
X11345115Y-30173535D01*
X11372726Y-30233994D01*
X11378316Y-30269293D01*
X11434251Y-30441444D01*
X11434252Y-30441447D01*
X11516434Y-30602734D01*
X11572545Y-30679965D01*
X11572547Y-30679965D01*
X12121100Y-30131411D01*
X12127259Y-30154394D01*
X12179920Y-30245606D01*
X12254394Y-30320080D01*
X12345606Y-30372741D01*
X12368587Y-30378898D01*
X11820032Y-30927452D01*
X11820033Y-30927453D01*
X11897265Y-30983565D01*
X12058552Y-31065747D01*
X12058555Y-31065748D01*
X12230706Y-31121682D01*
X12409494Y-31150000D01*
X12590506Y-31150000D01*
X12769293Y-31121682D01*
X12941444Y-31065748D01*
X12941447Y-31065747D01*
X13102731Y-30983567D01*
X13179965Y-30927452D01*
X13179966Y-30927452D01*
X12631412Y-30378898D01*
X12654394Y-30372741D01*
X12745606Y-30320080D01*
X12820080Y-30245606D01*
X12872741Y-30154394D01*
X12878898Y-30131412D01*
X13427452Y-30679966D01*
X13427452Y-30679965D01*
X13483567Y-30602731D01*
X13565747Y-30441447D01*
X13565748Y-30441444D01*
X13621682Y-30269293D01*
X13650000Y-30090506D01*
X13650000Y-29909493D01*
X13621682Y-29730706D01*
X13565748Y-29558555D01*
X13565747Y-29558552D01*
X13483565Y-29397265D01*
X13427453Y-29320033D01*
X13427452Y-29320032D01*
X12878898Y-29868586D01*
X12872741Y-29845606D01*
X12820080Y-29754394D01*
X12745606Y-29679920D01*
X12654394Y-29627259D01*
X12631411Y-29621101D01*
X13179965Y-29072547D01*
X13179965Y-29072545D01*
X13102734Y-29016434D01*
X12941447Y-28934252D01*
X12941444Y-28934251D01*
X12769293Y-28878317D01*
X12590506Y-28850000D01*
X12409494Y-28850000D01*
X12230706Y-28878317D01*
X12058555Y-28934251D01*
X12058552Y-28934252D01*
X11897272Y-29016430D01*
X11820033Y-29072546D01*
X12368588Y-29621100D01*
X12345606Y-29627259D01*
X12254394Y-29679920D01*
X12179920Y-29754394D01*
X12127259Y-29845606D01*
X12121101Y-29868588D01*
X11572546Y-29320033D01*
X11516430Y-29397272D01*
X11434252Y-29558552D01*
X11434251Y-29558555D01*
X11378317Y-29730706D01*
X11372726Y-29766006D01*
X11342796Y-29829140D01*
X11283484Y-29866071D01*
X11213622Y-29865073D01*
X11155389Y-29826462D01*
X11127780Y-29766004D01*
X11122171Y-29730590D01*
X11066212Y-29558363D01*
X11066211Y-29558360D01*
X11037740Y-29502484D01*
X10983996Y-29397006D01*
X10928072Y-29320033D01*
X10877558Y-29250505D01*
X10877554Y-29250500D01*
X10749499Y-29122445D01*
X10749494Y-29122441D01*
X10602997Y-29016006D01*
X10602996Y-29016005D01*
X10602994Y-29016004D01*
X10551300Y-28989664D01*
X10441639Y-28933788D01*
X10441636Y-28933787D01*
X10269410Y-28877829D01*
X10090551Y-28849500D01*
X10090546Y-28849500D01*
X9909454Y-28849500D01*
X9909449Y-28849500D01*
X9730589Y-28877829D01*
X9558363Y-28933787D01*
X9558360Y-28933788D01*
X9397002Y-29016006D01*
X9250505Y-29122441D01*
X9250500Y-29122445D01*
X9122445Y-29250500D01*
X9122441Y-29250505D01*
X9016006Y-29397002D01*
X8933788Y-29558360D01*
X8933787Y-29558363D01*
X8877829Y-29730589D01*
X8849500Y-29909448D01*
X500000Y-29909448D01*
X500000Y-24894560D01*
X43849500Y-24894560D01*
X43849500Y-25105439D01*
X43890636Y-25312245D01*
X43890638Y-25312253D01*
X43971333Y-25507069D01*
X43971338Y-25507078D01*
X44088487Y-25682403D01*
X44088490Y-25682407D01*
X44237592Y-25831509D01*
X44237596Y-25831512D01*
X44412921Y-25948661D01*
X44412927Y-25948664D01*
X44412928Y-25948665D01*
X44607747Y-26029362D01*
X44814560Y-26070499D01*
X44814564Y-26070500D01*
X44814565Y-26070500D01*
X45025436Y-26070500D01*
X45025437Y-26070499D01*
X45232253Y-26029362D01*
X45427072Y-25948665D01*
X45602404Y-25831512D01*
X45751512Y-25682404D01*
X45868665Y-25507072D01*
X45949362Y-25312253D01*
X45990500Y-25105435D01*
X45990500Y-24894565D01*
X45990499Y-24894560D01*
X46389500Y-24894560D01*
X46389500Y-25105439D01*
X46430636Y-25312245D01*
X46430638Y-25312253D01*
X46511333Y-25507069D01*
X46511338Y-25507078D01*
X46628487Y-25682403D01*
X46628490Y-25682407D01*
X46777592Y-25831509D01*
X46777596Y-25831512D01*
X46952921Y-25948661D01*
X46952927Y-25948664D01*
X46952928Y-25948665D01*
X47147747Y-26029362D01*
X47354560Y-26070499D01*
X47354564Y-26070500D01*
X47354565Y-26070500D01*
X47565436Y-26070500D01*
X47565437Y-26070499D01*
X47772253Y-26029362D01*
X47967072Y-25948665D01*
X48142404Y-25831512D01*
X48291512Y-25682404D01*
X48408665Y-25507072D01*
X48489362Y-25312253D01*
X48530500Y-25105435D01*
X48530500Y-24894565D01*
X48530499Y-24894560D01*
X48929500Y-24894560D01*
X48929500Y-25105439D01*
X48970636Y-25312245D01*
X48970638Y-25312253D01*
X49051333Y-25507069D01*
X49051338Y-25507078D01*
X49168487Y-25682403D01*
X49168490Y-25682407D01*
X49317592Y-25831509D01*
X49317596Y-25831512D01*
X49492921Y-25948661D01*
X49492927Y-25948664D01*
X49492928Y-25948665D01*
X49687747Y-26029362D01*
X49894560Y-26070499D01*
X49894564Y-26070500D01*
X49894565Y-26070500D01*
X50105436Y-26070500D01*
X50105437Y-26070499D01*
X50312253Y-26029362D01*
X50507072Y-25948665D01*
X50682404Y-25831512D01*
X50831512Y-25682404D01*
X50948665Y-25507072D01*
X51029362Y-25312253D01*
X51070500Y-25105435D01*
X51070500Y-24894565D01*
X51029362Y-24687747D01*
X50948665Y-24492928D01*
X50948664Y-24492927D01*
X50948661Y-24492921D01*
X50831512Y-24317596D01*
X50831509Y-24317592D01*
X50682407Y-24168490D01*
X50682403Y-24168487D01*
X50507078Y-24051338D01*
X50507069Y-24051333D01*
X50312253Y-23970638D01*
X50312245Y-23970636D01*
X50105439Y-23929500D01*
X50105435Y-23929500D01*
X49894565Y-23929500D01*
X49894560Y-23929500D01*
X49687754Y-23970636D01*
X49687746Y-23970638D01*
X49492930Y-24051333D01*
X49492921Y-24051338D01*
X49317596Y-24168487D01*
X49317592Y-24168490D01*
X49168490Y-24317592D01*
X49168487Y-24317596D01*
X49051338Y-24492921D01*
X49051333Y-24492930D01*
X48970638Y-24687746D01*
X48970636Y-24687754D01*
X48929500Y-24894560D01*
X48530499Y-24894560D01*
X48489362Y-24687747D01*
X48408665Y-24492928D01*
X48408664Y-24492927D01*
X48408661Y-24492921D01*
X48291512Y-24317596D01*
X48291509Y-24317592D01*
X48142407Y-24168490D01*
X48142403Y-24168487D01*
X47967078Y-24051338D01*
X47967069Y-24051333D01*
X47772253Y-23970638D01*
X47772245Y-23970636D01*
X47565439Y-23929500D01*
X47565435Y-23929500D01*
X47354565Y-23929500D01*
X47354560Y-23929500D01*
X47147754Y-23970636D01*
X47147746Y-23970638D01*
X46952930Y-24051333D01*
X46952921Y-24051338D01*
X46777596Y-24168487D01*
X46777592Y-24168490D01*
X46628490Y-24317592D01*
X46628487Y-24317596D01*
X46511338Y-24492921D01*
X46511333Y-24492930D01*
X46430638Y-24687746D01*
X46430636Y-24687754D01*
X46389500Y-24894560D01*
X45990499Y-24894560D01*
X45949362Y-24687747D01*
X45868665Y-24492928D01*
X45868664Y-24492927D01*
X45868661Y-24492921D01*
X45751512Y-24317596D01*
X45751509Y-24317592D01*
X45602407Y-24168490D01*
X45602403Y-24168487D01*
X45427078Y-24051338D01*
X45427069Y-24051333D01*
X45232253Y-23970638D01*
X45232245Y-23970636D01*
X45025439Y-23929500D01*
X45025435Y-23929500D01*
X44814565Y-23929500D01*
X44814560Y-23929500D01*
X44607754Y-23970636D01*
X44607746Y-23970638D01*
X44412930Y-24051333D01*
X44412921Y-24051338D01*
X44237596Y-24168487D01*
X44237592Y-24168490D01*
X44088490Y-24317592D01*
X44088487Y-24317596D01*
X43971338Y-24492921D01*
X43971333Y-24492930D01*
X43890638Y-24687746D01*
X43890636Y-24687754D01*
X43849500Y-24894560D01*
X500000Y-24894560D01*
X500000Y-15116780D01*
X5910000Y-15116780D01*
X5910000Y-15825000D01*
X6639254Y-15825000D01*
X6610000Y-15934174D01*
X6610000Y-16065826D01*
X6639254Y-16175000D01*
X5910001Y-16175000D01*
X5910001Y-16883217D01*
X5919912Y-16951249D01*
X5971215Y-17056191D01*
X6053811Y-17138787D01*
X6158748Y-17190087D01*
X6158751Y-17190088D01*
X6226780Y-17199999D01*
X6934999Y-17199999D01*
X6935000Y-17199998D01*
X6935000Y-16470746D01*
X7044174Y-16500000D01*
X7175826Y-16500000D01*
X7285000Y-16470746D01*
X7285000Y-17199999D01*
X7993218Y-17199999D01*
X8061249Y-17190087D01*
X8166191Y-17138784D01*
X8248787Y-17056188D01*
X8300087Y-16951251D01*
X8300088Y-16951248D01*
X8309999Y-16883219D01*
X8309999Y-16530927D01*
X8329683Y-16463888D01*
X8382487Y-16418133D01*
X8451646Y-16408189D01*
X8515201Y-16437214D01*
X8544484Y-16474632D01*
X8623240Y-16629199D01*
X8734310Y-16782073D01*
X8867927Y-16915690D01*
X9020801Y-17026760D01*
X9078557Y-17056188D01*
X9189163Y-17112545D01*
X9189165Y-17112545D01*
X9189168Y-17112547D01*
X9269917Y-17138784D01*
X9368881Y-17170940D01*
X9555514Y-17200500D01*
X9555519Y-17200500D01*
X9744486Y-17200500D01*
X9931118Y-17170940D01*
X9932623Y-17170451D01*
X10110832Y-17112547D01*
X10279199Y-17026760D01*
X10432073Y-16915690D01*
X10565690Y-16782073D01*
X10676760Y-16629199D01*
X10762547Y-16460832D01*
X10802069Y-16339195D01*
X10841507Y-16281521D01*
X10905866Y-16254323D01*
X10974712Y-16266238D01*
X11026188Y-16313482D01*
X11037931Y-16339196D01*
X11077454Y-16460836D01*
X11163104Y-16628933D01*
X11163240Y-16629199D01*
X11274310Y-16782073D01*
X11407927Y-16915690D01*
X11560801Y-17026760D01*
X11618557Y-17056188D01*
X11729163Y-17112545D01*
X11729165Y-17112545D01*
X11729168Y-17112547D01*
X11809917Y-17138784D01*
X11908881Y-17170940D01*
X12095514Y-17200500D01*
X12095519Y-17200500D01*
X12284486Y-17200500D01*
X12471118Y-17170940D01*
X12472623Y-17170451D01*
X12650832Y-17112547D01*
X12819199Y-17026760D01*
X12972073Y-16915690D01*
X13105690Y-16782073D01*
X13216760Y-16629199D01*
X13302547Y-16460832D01*
X13342069Y-16339195D01*
X13381507Y-16281521D01*
X13445866Y-16254323D01*
X13514712Y-16266238D01*
X13566188Y-16313482D01*
X13577931Y-16339196D01*
X13617454Y-16460836D01*
X13703104Y-16628933D01*
X13703240Y-16629199D01*
X13814310Y-16782073D01*
X13947927Y-16915690D01*
X14100801Y-17026760D01*
X14158557Y-17056188D01*
X14269163Y-17112545D01*
X14269165Y-17112545D01*
X14269168Y-17112547D01*
X14349917Y-17138784D01*
X14448881Y-17170940D01*
X14635514Y-17200500D01*
X14635519Y-17200500D01*
X14824486Y-17200500D01*
X15011118Y-17170940D01*
X15012623Y-17170451D01*
X15190832Y-17112547D01*
X15359199Y-17026760D01*
X15512073Y-16915690D01*
X15645690Y-16782073D01*
X15756760Y-16629199D01*
X15842547Y-16460832D01*
X15882069Y-16339195D01*
X15921507Y-16281521D01*
X15985866Y-16254323D01*
X16054712Y-16266238D01*
X16106188Y-16313482D01*
X16117931Y-16339196D01*
X16157454Y-16460836D01*
X16243104Y-16628933D01*
X16243240Y-16629199D01*
X16354310Y-16782073D01*
X16487927Y-16915690D01*
X16640801Y-17026760D01*
X16698557Y-17056188D01*
X16809163Y-17112545D01*
X16809165Y-17112545D01*
X16809168Y-17112547D01*
X16889917Y-17138784D01*
X16988881Y-17170940D01*
X17175514Y-17200500D01*
X17175519Y-17200500D01*
X17364486Y-17200500D01*
X17551118Y-17170940D01*
X17552623Y-17170451D01*
X17730832Y-17112547D01*
X17899199Y-17026760D01*
X18052073Y-16915690D01*
X18185690Y-16782073D01*
X18296760Y-16629199D01*
X18382547Y-16460832D01*
X18422069Y-16339195D01*
X18461507Y-16281521D01*
X18525866Y-16254323D01*
X18594712Y-16266238D01*
X18646188Y-16313482D01*
X18657931Y-16339196D01*
X18697454Y-16460836D01*
X18783104Y-16628933D01*
X18783240Y-16629199D01*
X18894310Y-16782073D01*
X19027927Y-16915690D01*
X19180801Y-17026760D01*
X19238557Y-17056188D01*
X19349163Y-17112545D01*
X19349165Y-17112545D01*
X19349168Y-17112547D01*
X19429917Y-17138784D01*
X19528881Y-17170940D01*
X19715514Y-17200500D01*
X19715519Y-17200500D01*
X19904486Y-17200500D01*
X20091118Y-17170940D01*
X20092623Y-17170451D01*
X20270832Y-17112547D01*
X20439199Y-17026760D01*
X20592073Y-16915690D01*
X20725690Y-16782073D01*
X20836760Y-16629199D01*
X20922547Y-16460832D01*
X20962069Y-16339195D01*
X21001507Y-16281521D01*
X21065866Y-16254323D01*
X21134712Y-16266238D01*
X21186188Y-16313482D01*
X21197931Y-16339196D01*
X21237454Y-16460836D01*
X21323104Y-16628933D01*
X21323240Y-16629199D01*
X21434310Y-16782073D01*
X21567927Y-16915690D01*
X21720801Y-17026760D01*
X21778557Y-17056188D01*
X21889163Y-17112545D01*
X21889165Y-17112545D01*
X21889168Y-17112547D01*
X21969917Y-17138784D01*
X22068881Y-17170940D01*
X22255514Y-17200500D01*
X22255519Y-17200500D01*
X22444486Y-17200500D01*
X22631118Y-17170940D01*
X22632623Y-17170451D01*
X22810832Y-17112547D01*
X22979199Y-17026760D01*
X23132073Y-16915690D01*
X23265690Y-16782073D01*
X23376760Y-16629199D01*
X23462547Y-16460832D01*
X23502069Y-16339195D01*
X23541507Y-16281521D01*
X23605866Y-16254323D01*
X23674712Y-16266238D01*
X23726188Y-16313482D01*
X23737931Y-16339196D01*
X23777454Y-16460836D01*
X23863104Y-16628933D01*
X23863240Y-16629199D01*
X23974310Y-16782073D01*
X24107927Y-16915690D01*
X24260801Y-17026760D01*
X24318557Y-17056188D01*
X24429163Y-17112545D01*
X24429165Y-17112545D01*
X24429168Y-17112547D01*
X24509917Y-17138784D01*
X24608881Y-17170940D01*
X24795514Y-17200500D01*
X24795519Y-17200500D01*
X24984486Y-17200500D01*
X25171118Y-17170940D01*
X25172623Y-17170451D01*
X25350832Y-17112547D01*
X25519199Y-17026760D01*
X25672073Y-16915690D01*
X25805690Y-16782073D01*
X25916760Y-16629199D01*
X26002547Y-16460832D01*
X26042069Y-16339195D01*
X26081507Y-16281521D01*
X26145866Y-16254323D01*
X26214712Y-16266238D01*
X26266188Y-16313482D01*
X26277931Y-16339196D01*
X26317454Y-16460836D01*
X26403104Y-16628933D01*
X26403240Y-16629199D01*
X26514310Y-16782073D01*
X26647927Y-16915690D01*
X26800801Y-17026760D01*
X26858557Y-17056188D01*
X26969163Y-17112545D01*
X26969165Y-17112545D01*
X26969168Y-17112547D01*
X27049917Y-17138784D01*
X27148881Y-17170940D01*
X27335514Y-17200500D01*
X27335519Y-17200500D01*
X27524486Y-17200500D01*
X27711118Y-17170940D01*
X27712623Y-17170451D01*
X27890832Y-17112547D01*
X28059199Y-17026760D01*
X28212073Y-16915690D01*
X28345690Y-16782073D01*
X28456760Y-16629199D01*
X28542547Y-16460832D01*
X28582069Y-16339195D01*
X28621507Y-16281521D01*
X28685866Y-16254323D01*
X28754712Y-16266238D01*
X28806188Y-16313482D01*
X28817931Y-16339196D01*
X28857454Y-16460836D01*
X28943104Y-16628933D01*
X28943240Y-16629199D01*
X29054310Y-16782073D01*
X29187927Y-16915690D01*
X29340801Y-17026760D01*
X29398557Y-17056188D01*
X29509163Y-17112545D01*
X29509165Y-17112545D01*
X29509168Y-17112547D01*
X29589917Y-17138784D01*
X29688881Y-17170940D01*
X29875514Y-17200500D01*
X29875519Y-17200500D01*
X30064486Y-17200500D01*
X30251118Y-17170940D01*
X30252623Y-17170451D01*
X30430832Y-17112547D01*
X30599199Y-17026760D01*
X30752073Y-16915690D01*
X30885690Y-16782073D01*
X30996760Y-16629199D01*
X31082547Y-16460832D01*
X31122069Y-16339195D01*
X31161507Y-16281521D01*
X31225866Y-16254323D01*
X31294712Y-16266238D01*
X31346188Y-16313482D01*
X31357931Y-16339196D01*
X31397454Y-16460836D01*
X31483104Y-16628933D01*
X31483240Y-16629199D01*
X31594310Y-16782073D01*
X31727927Y-16915690D01*
X31880801Y-17026760D01*
X31938557Y-17056188D01*
X32049163Y-17112545D01*
X32049165Y-17112545D01*
X32049168Y-17112547D01*
X32129917Y-17138784D01*
X32228881Y-17170940D01*
X32415514Y-17200500D01*
X32415519Y-17200500D01*
X32604486Y-17200500D01*
X32791118Y-17170940D01*
X32792623Y-17170451D01*
X32970832Y-17112547D01*
X33139199Y-17026760D01*
X33292073Y-16915690D01*
X33425690Y-16782073D01*
X33536760Y-16629199D01*
X33622547Y-16460832D01*
X33662069Y-16339195D01*
X33701507Y-16281521D01*
X33765866Y-16254323D01*
X33834712Y-16266238D01*
X33886188Y-16313482D01*
X33897931Y-16339196D01*
X33937454Y-16460836D01*
X34023104Y-16628933D01*
X34023240Y-16629199D01*
X34134310Y-16782073D01*
X34267927Y-16915690D01*
X34420801Y-17026760D01*
X34478557Y-17056188D01*
X34589163Y-17112545D01*
X34589165Y-17112545D01*
X34589168Y-17112547D01*
X34669917Y-17138784D01*
X34768881Y-17170940D01*
X34955514Y-17200500D01*
X34955519Y-17200500D01*
X35144486Y-17200500D01*
X35331118Y-17170940D01*
X35332623Y-17170451D01*
X35510832Y-17112547D01*
X35679199Y-17026760D01*
X35832073Y-16915690D01*
X35965690Y-16782073D01*
X36076760Y-16629199D01*
X36162547Y-16460832D01*
X36202069Y-16339195D01*
X36241507Y-16281521D01*
X36305866Y-16254323D01*
X36374712Y-16266238D01*
X36426188Y-16313482D01*
X36437931Y-16339196D01*
X36477454Y-16460836D01*
X36563104Y-16628933D01*
X36563240Y-16629199D01*
X36674310Y-16782073D01*
X36807927Y-16915690D01*
X36960801Y-17026760D01*
X37018557Y-17056188D01*
X37129163Y-17112545D01*
X37129165Y-17112545D01*
X37129168Y-17112547D01*
X37209917Y-17138784D01*
X37308881Y-17170940D01*
X37495514Y-17200500D01*
X37495519Y-17200500D01*
X37684486Y-17200500D01*
X37871118Y-17170940D01*
X37872623Y-17170451D01*
X38050832Y-17112547D01*
X38219199Y-17026760D01*
X38372073Y-16915690D01*
X38505690Y-16782073D01*
X38616760Y-16629199D01*
X38702547Y-16460832D01*
X38742069Y-16339195D01*
X38781507Y-16281521D01*
X38845866Y-16254323D01*
X38914712Y-16266238D01*
X38966188Y-16313482D01*
X38977931Y-16339196D01*
X39017454Y-16460836D01*
X39103104Y-16628933D01*
X39103240Y-16629199D01*
X39214310Y-16782073D01*
X39347927Y-16915690D01*
X39500801Y-17026760D01*
X39558557Y-17056188D01*
X39669163Y-17112545D01*
X39669165Y-17112545D01*
X39669168Y-17112547D01*
X39749917Y-17138784D01*
X39848881Y-17170940D01*
X40035514Y-17200500D01*
X40035519Y-17200500D01*
X40224486Y-17200500D01*
X40411118Y-17170940D01*
X40412623Y-17170451D01*
X40590832Y-17112547D01*
X40759199Y-17026760D01*
X40912073Y-16915690D01*
X41045690Y-16782073D01*
X41156760Y-16629199D01*
X41242547Y-16460832D01*
X41282069Y-16339195D01*
X41321507Y-16281521D01*
X41385866Y-16254323D01*
X41454712Y-16266238D01*
X41506188Y-16313482D01*
X41517931Y-16339196D01*
X41557454Y-16460836D01*
X41643104Y-16628933D01*
X41643240Y-16629199D01*
X41754310Y-16782073D01*
X41887927Y-16915690D01*
X42040801Y-17026760D01*
X42098557Y-17056188D01*
X42209163Y-17112545D01*
X42209165Y-17112545D01*
X42209168Y-17112547D01*
X42289917Y-17138784D01*
X42388881Y-17170940D01*
X42575514Y-17200500D01*
X42575519Y-17200500D01*
X42764486Y-17200500D01*
X42951118Y-17170940D01*
X42952623Y-17170451D01*
X43130832Y-17112547D01*
X43299199Y-17026760D01*
X43452073Y-16915690D01*
X43585690Y-16782073D01*
X43696760Y-16629199D01*
X43782547Y-16460832D01*
X43822069Y-16339195D01*
X43861507Y-16281521D01*
X43925866Y-16254323D01*
X43994712Y-16266238D01*
X44046188Y-16313482D01*
X44057931Y-16339196D01*
X44097454Y-16460836D01*
X44183104Y-16628933D01*
X44183240Y-16629199D01*
X44294310Y-16782073D01*
X44427927Y-16915690D01*
X44580801Y-17026760D01*
X44638557Y-17056188D01*
X44749163Y-17112545D01*
X44749165Y-17112545D01*
X44749168Y-17112547D01*
X44829917Y-17138784D01*
X44928881Y-17170940D01*
X45115514Y-17200500D01*
X45115519Y-17200500D01*
X45304486Y-17200500D01*
X45491118Y-17170940D01*
X45492623Y-17170451D01*
X45670832Y-17112547D01*
X45839199Y-17026760D01*
X45992073Y-16915690D01*
X46125690Y-16782073D01*
X46236760Y-16629199D01*
X46322547Y-16460832D01*
X46362069Y-16339195D01*
X46401507Y-16281521D01*
X46465866Y-16254323D01*
X46534712Y-16266238D01*
X46586188Y-16313482D01*
X46597931Y-16339196D01*
X46637454Y-16460836D01*
X46723104Y-16628933D01*
X46723240Y-16629199D01*
X46834310Y-16782073D01*
X46967927Y-16915690D01*
X47120801Y-17026760D01*
X47178557Y-17056188D01*
X47289163Y-17112545D01*
X47289165Y-17112545D01*
X47289168Y-17112547D01*
X47369917Y-17138784D01*
X47468881Y-17170940D01*
X47655514Y-17200500D01*
X47655519Y-17200500D01*
X47844486Y-17200500D01*
X48031118Y-17170940D01*
X48032623Y-17170451D01*
X48210832Y-17112547D01*
X48379199Y-17026760D01*
X48532073Y-16915690D01*
X48665690Y-16782073D01*
X48776760Y-16629199D01*
X48862547Y-16460832D01*
X48902069Y-16339195D01*
X48941507Y-16281521D01*
X49005866Y-16254323D01*
X49074712Y-16266238D01*
X49126188Y-16313482D01*
X49137931Y-16339196D01*
X49177454Y-16460836D01*
X49263104Y-16628933D01*
X49263240Y-16629199D01*
X49374310Y-16782073D01*
X49507927Y-16915690D01*
X49660801Y-17026760D01*
X49718557Y-17056188D01*
X49829163Y-17112545D01*
X49829165Y-17112545D01*
X49829168Y-17112547D01*
X49909917Y-17138784D01*
X50008881Y-17170940D01*
X50195514Y-17200500D01*
X50195519Y-17200500D01*
X50384486Y-17200500D01*
X50571118Y-17170940D01*
X50572623Y-17170451D01*
X50750832Y-17112547D01*
X50919199Y-17026760D01*
X51072073Y-16915690D01*
X51205690Y-16782073D01*
X51316760Y-16629199D01*
X51402547Y-16460832D01*
X51442069Y-16339195D01*
X51481507Y-16281521D01*
X51545866Y-16254323D01*
X51614712Y-16266238D01*
X51666188Y-16313482D01*
X51677931Y-16339196D01*
X51717454Y-16460836D01*
X51803104Y-16628933D01*
X51803240Y-16629199D01*
X51914310Y-16782073D01*
X52047927Y-16915690D01*
X52200801Y-17026760D01*
X52258557Y-17056188D01*
X52369163Y-17112545D01*
X52369165Y-17112545D01*
X52369168Y-17112547D01*
X52449917Y-17138784D01*
X52548881Y-17170940D01*
X52735514Y-17200500D01*
X52735519Y-17200500D01*
X52924486Y-17200500D01*
X53111118Y-17170940D01*
X53112623Y-17170451D01*
X53290832Y-17112547D01*
X53459199Y-17026760D01*
X53612073Y-16915690D01*
X53745690Y-16782073D01*
X53856760Y-16629199D01*
X53942547Y-16460832D01*
X53982332Y-16338385D01*
X54021768Y-16280713D01*
X54086127Y-16253514D01*
X54154973Y-16265429D01*
X54206449Y-16312673D01*
X54218193Y-16338388D01*
X54257914Y-16460637D01*
X54343666Y-16628933D01*
X54406749Y-16715761D01*
X54913387Y-16209123D01*
X54969901Y-16307007D01*
X55062993Y-16400099D01*
X55160875Y-16456611D01*
X54654237Y-16963248D01*
X54654237Y-16963249D01*
X54741066Y-17026333D01*
X54909362Y-17112085D01*
X55088997Y-17170451D01*
X55275553Y-17200000D01*
X55464447Y-17200000D01*
X55651002Y-17170451D01*
X55830637Y-17112085D01*
X55998940Y-17026329D01*
X56085761Y-16963251D01*
X56085762Y-16963249D01*
X55579124Y-16456611D01*
X55677007Y-16400099D01*
X55770099Y-16307007D01*
X55826611Y-16209124D01*
X56333249Y-16715762D01*
X56333251Y-16715761D01*
X56396329Y-16628940D01*
X56482085Y-16460637D01*
X56540451Y-16281002D01*
X56570000Y-16094447D01*
X56570000Y-15905552D01*
X56540451Y-15718997D01*
X56482085Y-15539362D01*
X56396333Y-15371066D01*
X56333249Y-15284237D01*
X56333248Y-15284237D01*
X55826611Y-15790875D01*
X55770099Y-15692993D01*
X55677007Y-15599901D01*
X55579123Y-15543388D01*
X56085761Y-15036749D01*
X55998933Y-14973666D01*
X55830637Y-14887914D01*
X55651002Y-14829548D01*
X55464447Y-14800000D01*
X55275553Y-14800000D01*
X55088997Y-14829548D01*
X54909362Y-14887914D01*
X54741064Y-14973667D01*
X54741062Y-14973668D01*
X54654237Y-15036748D01*
X54654237Y-15036749D01*
X55160876Y-15543388D01*
X55062993Y-15599901D01*
X54969901Y-15692993D01*
X54913388Y-15790876D01*
X54406749Y-15284237D01*
X54406748Y-15284237D01*
X54343668Y-15371062D01*
X54343667Y-15371064D01*
X54257915Y-15539361D01*
X54218193Y-15661612D01*
X54178755Y-15719287D01*
X54114396Y-15746485D01*
X54045550Y-15734570D01*
X53994074Y-15687326D01*
X53982332Y-15661614D01*
X53942547Y-15539168D01*
X53856760Y-15370801D01*
X53745690Y-15217927D01*
X53612073Y-15084310D01*
X53459199Y-14973240D01*
X53290836Y-14887454D01*
X53111118Y-14829059D01*
X52924486Y-14799500D01*
X52924481Y-14799500D01*
X52735519Y-14799500D01*
X52735514Y-14799500D01*
X52548881Y-14829059D01*
X52369163Y-14887454D01*
X52200800Y-14973240D01*
X52113579Y-15036610D01*
X52047927Y-15084310D01*
X52047925Y-15084312D01*
X52047924Y-15084312D01*
X51914312Y-15217924D01*
X51914312Y-15217925D01*
X51914310Y-15217927D01*
X51866610Y-15283579D01*
X51803240Y-15370800D01*
X51717454Y-15539163D01*
X51677931Y-15660803D01*
X51638493Y-15718478D01*
X51574134Y-15745676D01*
X51505288Y-15733761D01*
X51453812Y-15686516D01*
X51442069Y-15660803D01*
X51402610Y-15539362D01*
X51402547Y-15539168D01*
X51402545Y-15539165D01*
X51402545Y-15539163D01*
X51316894Y-15371064D01*
X51316760Y-15370801D01*
X51205690Y-15217927D01*
X51072073Y-15084310D01*
X50919199Y-14973240D01*
X50750836Y-14887454D01*
X50571118Y-14829059D01*
X50384486Y-14799500D01*
X50384481Y-14799500D01*
X50195519Y-14799500D01*
X50195514Y-14799500D01*
X50008881Y-14829059D01*
X49829163Y-14887454D01*
X49660800Y-14973240D01*
X49573579Y-15036610D01*
X49507927Y-15084310D01*
X49507925Y-15084312D01*
X49507924Y-15084312D01*
X49374312Y-15217924D01*
X49374312Y-15217925D01*
X49374310Y-15217927D01*
X49326610Y-15283579D01*
X49263240Y-15370800D01*
X49177454Y-15539163D01*
X49137931Y-15660803D01*
X49098493Y-15718478D01*
X49034134Y-15745676D01*
X48965288Y-15733761D01*
X48913812Y-15686516D01*
X48902069Y-15660803D01*
X48862610Y-15539362D01*
X48862547Y-15539168D01*
X48862545Y-15539165D01*
X48862545Y-15539163D01*
X48776894Y-15371064D01*
X48776760Y-15370801D01*
X48665690Y-15217927D01*
X48532073Y-15084310D01*
X48379199Y-14973240D01*
X48210836Y-14887454D01*
X48031118Y-14829059D01*
X47844486Y-14799500D01*
X47844481Y-14799500D01*
X47655519Y-14799500D01*
X47655514Y-14799500D01*
X47468881Y-14829059D01*
X47289163Y-14887454D01*
X47120800Y-14973240D01*
X47033579Y-15036610D01*
X46967927Y-15084310D01*
X46967925Y-15084312D01*
X46967924Y-15084312D01*
X46834312Y-15217924D01*
X46834312Y-15217925D01*
X46834310Y-15217927D01*
X46786610Y-15283579D01*
X46723240Y-15370800D01*
X46637454Y-15539163D01*
X46597931Y-15660803D01*
X46558493Y-15718478D01*
X46494134Y-15745676D01*
X46425288Y-15733761D01*
X46373812Y-15686516D01*
X46362069Y-15660803D01*
X46322610Y-15539362D01*
X46322547Y-15539168D01*
X46322545Y-15539165D01*
X46322545Y-15539163D01*
X46236894Y-15371064D01*
X46236760Y-15370801D01*
X46125690Y-15217927D01*
X45992073Y-15084310D01*
X45839199Y-14973240D01*
X45670836Y-14887454D01*
X45491118Y-14829059D01*
X45304486Y-14799500D01*
X45304481Y-14799500D01*
X45115519Y-14799500D01*
X45115514Y-14799500D01*
X44928881Y-14829059D01*
X44749163Y-14887454D01*
X44580800Y-14973240D01*
X44493579Y-15036610D01*
X44427927Y-15084310D01*
X44427925Y-15084312D01*
X44427924Y-15084312D01*
X44294312Y-15217924D01*
X44294312Y-15217925D01*
X44294310Y-15217927D01*
X44246610Y-15283579D01*
X44183240Y-15370800D01*
X44097454Y-15539163D01*
X44057931Y-15660803D01*
X44018493Y-15718478D01*
X43954134Y-15745676D01*
X43885288Y-15733761D01*
X43833812Y-15686516D01*
X43822069Y-15660803D01*
X43782610Y-15539362D01*
X43782547Y-15539168D01*
X43782545Y-15539165D01*
X43782545Y-15539163D01*
X43696894Y-15371064D01*
X43696760Y-15370801D01*
X43585690Y-15217927D01*
X43452073Y-15084310D01*
X43299199Y-14973240D01*
X43130836Y-14887454D01*
X42951118Y-14829059D01*
X42764486Y-14799500D01*
X42764481Y-14799500D01*
X42575519Y-14799500D01*
X42575514Y-14799500D01*
X42388881Y-14829059D01*
X42209163Y-14887454D01*
X42040800Y-14973240D01*
X41953579Y-15036610D01*
X41887927Y-15084310D01*
X41887925Y-15084312D01*
X41887924Y-15084312D01*
X41754312Y-15217924D01*
X41754312Y-15217925D01*
X41754310Y-15217927D01*
X41706610Y-15283579D01*
X41643240Y-15370800D01*
X41557454Y-15539163D01*
X41517931Y-15660803D01*
X41478493Y-15718478D01*
X41414134Y-15745676D01*
X41345288Y-15733761D01*
X41293812Y-15686516D01*
X41282069Y-15660803D01*
X41242610Y-15539362D01*
X41242547Y-15539168D01*
X41242545Y-15539165D01*
X41242545Y-15539163D01*
X41156894Y-15371064D01*
X41156760Y-15370801D01*
X41045690Y-15217927D01*
X40912073Y-15084310D01*
X40759199Y-14973240D01*
X40590836Y-14887454D01*
X40411118Y-14829059D01*
X40224486Y-14799500D01*
X40224481Y-14799500D01*
X40035519Y-14799500D01*
X40035514Y-14799500D01*
X39848881Y-14829059D01*
X39669163Y-14887454D01*
X39500800Y-14973240D01*
X39413579Y-15036610D01*
X39347927Y-15084310D01*
X39347925Y-15084312D01*
X39347924Y-15084312D01*
X39214312Y-15217924D01*
X39214312Y-15217925D01*
X39214310Y-15217927D01*
X39166610Y-15283579D01*
X39103240Y-15370800D01*
X39017454Y-15539163D01*
X38977931Y-15660803D01*
X38938493Y-15718478D01*
X38874134Y-15745676D01*
X38805288Y-15733761D01*
X38753812Y-15686516D01*
X38742069Y-15660803D01*
X38702610Y-15539362D01*
X38702547Y-15539168D01*
X38702545Y-15539165D01*
X38702545Y-15539163D01*
X38616894Y-15371064D01*
X38616760Y-15370801D01*
X38505690Y-15217927D01*
X38372073Y-15084310D01*
X38219199Y-14973240D01*
X38050836Y-14887454D01*
X37871118Y-14829059D01*
X37684486Y-14799500D01*
X37684481Y-14799500D01*
X37495519Y-14799500D01*
X37495514Y-14799500D01*
X37308881Y-14829059D01*
X37129163Y-14887454D01*
X36960800Y-14973240D01*
X36873579Y-15036610D01*
X36807927Y-15084310D01*
X36807925Y-15084312D01*
X36807924Y-15084312D01*
X36674312Y-15217924D01*
X36674312Y-15217925D01*
X36674310Y-15217927D01*
X36626610Y-15283579D01*
X36563240Y-15370800D01*
X36477454Y-15539163D01*
X36437931Y-15660803D01*
X36398493Y-15718478D01*
X36334134Y-15745676D01*
X36265288Y-15733761D01*
X36213812Y-15686516D01*
X36202069Y-15660803D01*
X36162610Y-15539362D01*
X36162547Y-15539168D01*
X36162545Y-15539165D01*
X36162545Y-15539163D01*
X36076894Y-15371064D01*
X36076760Y-15370801D01*
X35965690Y-15217927D01*
X35832073Y-15084310D01*
X35679199Y-14973240D01*
X35510836Y-14887454D01*
X35331118Y-14829059D01*
X35144486Y-14799500D01*
X35144481Y-14799500D01*
X34955519Y-14799500D01*
X34955514Y-14799500D01*
X34768881Y-14829059D01*
X34589163Y-14887454D01*
X34420800Y-14973240D01*
X34333579Y-15036610D01*
X34267927Y-15084310D01*
X34267925Y-15084312D01*
X34267924Y-15084312D01*
X34134312Y-15217924D01*
X34134312Y-15217925D01*
X34134310Y-15217927D01*
X34086610Y-15283579D01*
X34023240Y-15370800D01*
X33937454Y-15539163D01*
X33897931Y-15660803D01*
X33858493Y-15718478D01*
X33794134Y-15745676D01*
X33725288Y-15733761D01*
X33673812Y-15686516D01*
X33662069Y-15660803D01*
X33622610Y-15539362D01*
X33622547Y-15539168D01*
X33622545Y-15539165D01*
X33622545Y-15539163D01*
X33536894Y-15371064D01*
X33536760Y-15370801D01*
X33425690Y-15217927D01*
X33292073Y-15084310D01*
X33139199Y-14973240D01*
X32970836Y-14887454D01*
X32791118Y-14829059D01*
X32604486Y-14799500D01*
X32604481Y-14799500D01*
X32415519Y-14799500D01*
X32415514Y-14799500D01*
X32228881Y-14829059D01*
X32049163Y-14887454D01*
X31880800Y-14973240D01*
X31793579Y-15036610D01*
X31727927Y-15084310D01*
X31727925Y-15084312D01*
X31727924Y-15084312D01*
X31594312Y-15217924D01*
X31594312Y-15217925D01*
X31594310Y-15217927D01*
X31546610Y-15283579D01*
X31483240Y-15370800D01*
X31397454Y-15539163D01*
X31357931Y-15660803D01*
X31318493Y-15718478D01*
X31254134Y-15745676D01*
X31185288Y-15733761D01*
X31133812Y-15686516D01*
X31122069Y-15660803D01*
X31082610Y-15539362D01*
X31082547Y-15539168D01*
X31082545Y-15539165D01*
X31082545Y-15539163D01*
X30996894Y-15371064D01*
X30996760Y-15370801D01*
X30885690Y-15217927D01*
X30752073Y-15084310D01*
X30599199Y-14973240D01*
X30430836Y-14887454D01*
X30251118Y-14829059D01*
X30064486Y-14799500D01*
X30064481Y-14799500D01*
X29875519Y-14799500D01*
X29875514Y-14799500D01*
X29688881Y-14829059D01*
X29509163Y-14887454D01*
X29340800Y-14973240D01*
X29253579Y-15036610D01*
X29187927Y-15084310D01*
X29187925Y-15084312D01*
X29187924Y-15084312D01*
X29054312Y-15217924D01*
X29054312Y-15217925D01*
X29054310Y-15217927D01*
X29006610Y-15283579D01*
X28943240Y-15370800D01*
X28857454Y-15539163D01*
X28817931Y-15660803D01*
X28778493Y-15718478D01*
X28714134Y-15745676D01*
X28645288Y-15733761D01*
X28593812Y-15686516D01*
X28582069Y-15660803D01*
X28542610Y-15539362D01*
X28542547Y-15539168D01*
X28542545Y-15539165D01*
X28542545Y-15539163D01*
X28456894Y-15371064D01*
X28456760Y-15370801D01*
X28345690Y-15217927D01*
X28212073Y-15084310D01*
X28059199Y-14973240D01*
X27890836Y-14887454D01*
X27711118Y-14829059D01*
X27524486Y-14799500D01*
X27524481Y-14799500D01*
X27335519Y-14799500D01*
X27335514Y-14799500D01*
X27148881Y-14829059D01*
X26969163Y-14887454D01*
X26800800Y-14973240D01*
X26713579Y-15036610D01*
X26647927Y-15084310D01*
X26647925Y-15084312D01*
X26647924Y-15084312D01*
X26514312Y-15217924D01*
X26514312Y-15217925D01*
X26514310Y-15217927D01*
X26466610Y-15283579D01*
X26403240Y-15370800D01*
X26317454Y-15539163D01*
X26277931Y-15660803D01*
X26238493Y-15718478D01*
X26174134Y-15745676D01*
X26105288Y-15733761D01*
X26053812Y-15686516D01*
X26042069Y-15660803D01*
X26002610Y-15539362D01*
X26002547Y-15539168D01*
X26002545Y-15539165D01*
X26002545Y-15539163D01*
X25916894Y-15371064D01*
X25916760Y-15370801D01*
X25805690Y-15217927D01*
X25672073Y-15084310D01*
X25519199Y-14973240D01*
X25350836Y-14887454D01*
X25171118Y-14829059D01*
X24984486Y-14799500D01*
X24984481Y-14799500D01*
X24795519Y-14799500D01*
X24795514Y-14799500D01*
X24608881Y-14829059D01*
X24429163Y-14887454D01*
X24260800Y-14973240D01*
X24173579Y-15036610D01*
X24107927Y-15084310D01*
X24107925Y-15084312D01*
X24107924Y-15084312D01*
X23974312Y-15217924D01*
X23974312Y-15217925D01*
X23974310Y-15217927D01*
X23926610Y-15283579D01*
X23863240Y-15370800D01*
X23777454Y-15539163D01*
X23737931Y-15660803D01*
X23698493Y-15718478D01*
X23634134Y-15745676D01*
X23565288Y-15733761D01*
X23513812Y-15686516D01*
X23502069Y-15660803D01*
X23462610Y-15539362D01*
X23462547Y-15539168D01*
X23462545Y-15539165D01*
X23462545Y-15539163D01*
X23376894Y-15371064D01*
X23376760Y-15370801D01*
X23265690Y-15217927D01*
X23132073Y-15084310D01*
X22979199Y-14973240D01*
X22810836Y-14887454D01*
X22631118Y-14829059D01*
X22444486Y-14799500D01*
X22444481Y-14799500D01*
X22255519Y-14799500D01*
X22255514Y-14799500D01*
X22068881Y-14829059D01*
X21889163Y-14887454D01*
X21720800Y-14973240D01*
X21633579Y-15036610D01*
X21567927Y-15084310D01*
X21567925Y-15084312D01*
X21567924Y-15084312D01*
X21434312Y-15217924D01*
X21434312Y-15217925D01*
X21434310Y-15217927D01*
X21386610Y-15283579D01*
X21323240Y-15370800D01*
X21237454Y-15539163D01*
X21197931Y-15660803D01*
X21158493Y-15718478D01*
X21094134Y-15745676D01*
X21025288Y-15733761D01*
X20973812Y-15686516D01*
X20962069Y-15660803D01*
X20922610Y-15539362D01*
X20922547Y-15539168D01*
X20922545Y-15539165D01*
X20922545Y-15539163D01*
X20836894Y-15371064D01*
X20836760Y-15370801D01*
X20725690Y-15217927D01*
X20592073Y-15084310D01*
X20439199Y-14973240D01*
X20270836Y-14887454D01*
X20091118Y-14829059D01*
X19904486Y-14799500D01*
X19904481Y-14799500D01*
X19715519Y-14799500D01*
X19715514Y-14799500D01*
X19528881Y-14829059D01*
X19349163Y-14887454D01*
X19180800Y-14973240D01*
X19093579Y-15036610D01*
X19027927Y-15084310D01*
X19027925Y-15084312D01*
X19027924Y-15084312D01*
X18894312Y-15217924D01*
X18894312Y-15217925D01*
X18894310Y-15217927D01*
X18846610Y-15283579D01*
X18783240Y-15370800D01*
X18697454Y-15539163D01*
X18657931Y-15660803D01*
X18618493Y-15718478D01*
X18554134Y-15745676D01*
X18485288Y-15733761D01*
X18433812Y-15686516D01*
X18422069Y-15660803D01*
X18382610Y-15539362D01*
X18382547Y-15539168D01*
X18382545Y-15539165D01*
X18382545Y-15539163D01*
X18296894Y-15371064D01*
X18296760Y-15370801D01*
X18185690Y-15217927D01*
X18052073Y-15084310D01*
X17899199Y-14973240D01*
X17730836Y-14887454D01*
X17551118Y-14829059D01*
X17364486Y-14799500D01*
X17364481Y-14799500D01*
X17175519Y-14799500D01*
X17175514Y-14799500D01*
X16988881Y-14829059D01*
X16809163Y-14887454D01*
X16640800Y-14973240D01*
X16553579Y-15036610D01*
X16487927Y-15084310D01*
X16487925Y-15084312D01*
X16487924Y-15084312D01*
X16354312Y-15217924D01*
X16354312Y-15217925D01*
X16354310Y-15217927D01*
X16306610Y-15283579D01*
X16243240Y-15370800D01*
X16157454Y-15539163D01*
X16117931Y-15660803D01*
X16078493Y-15718478D01*
X16014134Y-15745676D01*
X15945288Y-15733761D01*
X15893812Y-15686516D01*
X15882069Y-15660803D01*
X15842610Y-15539362D01*
X15842547Y-15539168D01*
X15842545Y-15539165D01*
X15842545Y-15539163D01*
X15756894Y-15371064D01*
X15756760Y-15370801D01*
X15645690Y-15217927D01*
X15512073Y-15084310D01*
X15359199Y-14973240D01*
X15190836Y-14887454D01*
X15011118Y-14829059D01*
X14824486Y-14799500D01*
X14824481Y-14799500D01*
X14635519Y-14799500D01*
X14635514Y-14799500D01*
X14448881Y-14829059D01*
X14269163Y-14887454D01*
X14100800Y-14973240D01*
X14013579Y-15036610D01*
X13947927Y-15084310D01*
X13947925Y-15084312D01*
X13947924Y-15084312D01*
X13814312Y-15217924D01*
X13814312Y-15217925D01*
X13814310Y-15217927D01*
X13766610Y-15283579D01*
X13703240Y-15370800D01*
X13617454Y-15539163D01*
X13577931Y-15660803D01*
X13538493Y-15718478D01*
X13474134Y-15745676D01*
X13405288Y-15733761D01*
X13353812Y-15686516D01*
X13342069Y-15660803D01*
X13302610Y-15539362D01*
X13302547Y-15539168D01*
X13302545Y-15539165D01*
X13302545Y-15539163D01*
X13216894Y-15371064D01*
X13216760Y-15370801D01*
X13105690Y-15217927D01*
X12972073Y-15084310D01*
X12819199Y-14973240D01*
X12650836Y-14887454D01*
X12471118Y-14829059D01*
X12284486Y-14799500D01*
X12284481Y-14799500D01*
X12095519Y-14799500D01*
X12095514Y-14799500D01*
X11908881Y-14829059D01*
X11729163Y-14887454D01*
X11560800Y-14973240D01*
X11473579Y-15036610D01*
X11407927Y-15084310D01*
X11407925Y-15084312D01*
X11407924Y-15084312D01*
X11274312Y-15217924D01*
X11274312Y-15217925D01*
X11274310Y-15217927D01*
X11226610Y-15283579D01*
X11163240Y-15370800D01*
X11077454Y-15539163D01*
X11037931Y-15660803D01*
X10998493Y-15718478D01*
X10934134Y-15745676D01*
X10865288Y-15733761D01*
X10813812Y-15686516D01*
X10802069Y-15660803D01*
X10762610Y-15539362D01*
X10762547Y-15539168D01*
X10762545Y-15539165D01*
X10762545Y-15539163D01*
X10676894Y-15371064D01*
X10676760Y-15370801D01*
X10565690Y-15217927D01*
X10432073Y-15084310D01*
X10279199Y-14973240D01*
X10110836Y-14887454D01*
X9931118Y-14829059D01*
X9744486Y-14799500D01*
X9744481Y-14799500D01*
X9555519Y-14799500D01*
X9555514Y-14799500D01*
X9368881Y-14829059D01*
X9189163Y-14887454D01*
X9020800Y-14973240D01*
X8933579Y-15036610D01*
X8867927Y-15084310D01*
X8867925Y-15084312D01*
X8867924Y-15084312D01*
X8734312Y-15217924D01*
X8734312Y-15217925D01*
X8734310Y-15217927D01*
X8686610Y-15283579D01*
X8623240Y-15370800D01*
X8544484Y-15525368D01*
X8496509Y-15576164D01*
X8428688Y-15592959D01*
X8362553Y-15570422D01*
X8319102Y-15515706D01*
X8309999Y-15469073D01*
X8309999Y-15116782D01*
X8300087Y-15048750D01*
X8248784Y-14943808D01*
X8166188Y-14861212D01*
X8061251Y-14809912D01*
X8061248Y-14809911D01*
X7993220Y-14800000D01*
X7285000Y-14800000D01*
X7285000Y-15529253D01*
X7175826Y-15500000D01*
X7044174Y-15500000D01*
X6935000Y-15529253D01*
X6935000Y-14800000D01*
X6226782Y-14800000D01*
X6158750Y-14809912D01*
X6053808Y-14861215D01*
X5971212Y-14943811D01*
X5919912Y-15048748D01*
X5919911Y-15048751D01*
X5910000Y-15116780D01*
X500000Y-15116780D01*
X500000Y-3499998D01*
X1000000Y-3499998D01*
X1000000Y-3500001D01*
X1085184Y-4147045D01*
X1085185Y-4147047D01*
X1310320Y-4690573D01*
X1334936Y-4750000D01*
X1732233Y-5267766D01*
X2250000Y-5665063D01*
X2250001Y-5665063D01*
X2250002Y-5665064D01*
X2338237Y-5701612D01*
X2852952Y-5914814D01*
X3086133Y-5945513D01*
X3499999Y-6000000D01*
X3500000Y-6000000D01*
X3500001Y-6000000D01*
X3715682Y-5971604D01*
X4147047Y-5914814D01*
X4750000Y-5665063D01*
X5267766Y-5267766D01*
X5665063Y-4750000D01*
X5743475Y-4560695D01*
X5787314Y-4506293D01*
X5853609Y-4484228D01*
X5921308Y-4501507D01*
X5964757Y-4548174D01*
X5964832Y-4548122D01*
X5965237Y-4548689D01*
X5968919Y-4552644D01*
X5969434Y-4553686D01*
X5970801Y-4556483D01*
X6053514Y-4639196D01*
X6053515Y-4639196D01*
X6053517Y-4639198D01*
X6158607Y-4690573D01*
X6166816Y-4691769D01*
X6226739Y-4700500D01*
X6578090Y-4700500D01*
X6645129Y-4720185D01*
X6690884Y-4772989D01*
X6700828Y-4842147D01*
X6671803Y-4905703D01*
X6634385Y-4934985D01*
X6480800Y-5013240D01*
X6393579Y-5076610D01*
X6327927Y-5124310D01*
X6327925Y-5124312D01*
X6327924Y-5124312D01*
X6194312Y-5257924D01*
X6194312Y-5257925D01*
X6194310Y-5257927D01*
X6187162Y-5267766D01*
X6083240Y-5410800D01*
X5997454Y-5579163D01*
X5939059Y-5758881D01*
X5909500Y-5945513D01*
X5909500Y-6134486D01*
X5939059Y-6321118D01*
X5997454Y-6500836D01*
X6083104Y-6668933D01*
X6083240Y-6669199D01*
X6194310Y-6822073D01*
X6327927Y-6955690D01*
X6480801Y-7066760D01*
X6560347Y-7107290D01*
X6649163Y-7152545D01*
X6649165Y-7152545D01*
X6649168Y-7152547D01*
X6745497Y-7183846D01*
X6828881Y-7210940D01*
X7015514Y-7240500D01*
X7015519Y-7240500D01*
X7204486Y-7240500D01*
X7391118Y-7210940D01*
X7392623Y-7210451D01*
X7570832Y-7152547D01*
X7739199Y-7066760D01*
X7892073Y-6955690D01*
X8025690Y-6822073D01*
X8136760Y-6669199D01*
X8222547Y-6500832D01*
X8262069Y-6379195D01*
X8301507Y-6321521D01*
X8365866Y-6294323D01*
X8434712Y-6306238D01*
X8486188Y-6353482D01*
X8497931Y-6379196D01*
X8537454Y-6500836D01*
X8623104Y-6668933D01*
X8623240Y-6669199D01*
X8734310Y-6822073D01*
X8867927Y-6955690D01*
X9020801Y-7066760D01*
X9100347Y-7107290D01*
X9189163Y-7152545D01*
X9189165Y-7152545D01*
X9189168Y-7152547D01*
X9285497Y-7183846D01*
X9368881Y-7210940D01*
X9555514Y-7240500D01*
X9555519Y-7240500D01*
X9744486Y-7240500D01*
X9931118Y-7210940D01*
X9932623Y-7210451D01*
X10110832Y-7152547D01*
X10279199Y-7066760D01*
X10432073Y-6955690D01*
X10565690Y-6822073D01*
X10676760Y-6669199D01*
X10762547Y-6500832D01*
X10802332Y-6378385D01*
X10841768Y-6320713D01*
X10906127Y-6293514D01*
X10974973Y-6305429D01*
X11026449Y-6352673D01*
X11038193Y-6378388D01*
X11077914Y-6500637D01*
X11163666Y-6668933D01*
X11226749Y-6755761D01*
X11733387Y-6249123D01*
X11789901Y-6347007D01*
X11882993Y-6440099D01*
X11980875Y-6496611D01*
X11474237Y-7003248D01*
X11474237Y-7003249D01*
X11561066Y-7066333D01*
X11729362Y-7152085D01*
X11908997Y-7210451D01*
X12095553Y-7240000D01*
X12284447Y-7240000D01*
X12471002Y-7210451D01*
X12650637Y-7152085D01*
X12818940Y-7066329D01*
X12905761Y-7003251D01*
X12905762Y-7003249D01*
X12399124Y-6496611D01*
X12497007Y-6440099D01*
X12590099Y-6347007D01*
X12646611Y-6249124D01*
X13153249Y-6755762D01*
X13153251Y-6755761D01*
X13216329Y-6668940D01*
X13302086Y-6500635D01*
X13341806Y-6378389D01*
X13381243Y-6320713D01*
X13445601Y-6293514D01*
X13514448Y-6305428D01*
X13565924Y-6352672D01*
X13577668Y-6378387D01*
X13617454Y-6500836D01*
X13703104Y-6668933D01*
X13703240Y-6669199D01*
X13814310Y-6822073D01*
X13947927Y-6955690D01*
X14100801Y-7066760D01*
X14180347Y-7107290D01*
X14269163Y-7152545D01*
X14269165Y-7152545D01*
X14269168Y-7152547D01*
X14365497Y-7183846D01*
X14448881Y-7210940D01*
X14635514Y-7240500D01*
X14635519Y-7240500D01*
X14824486Y-7240500D01*
X15011118Y-7210940D01*
X15012623Y-7210451D01*
X15190832Y-7152547D01*
X15359199Y-7066760D01*
X15512073Y-6955690D01*
X15645690Y-6822073D01*
X15756760Y-6669199D01*
X15842547Y-6500832D01*
X15882069Y-6379195D01*
X15921507Y-6321521D01*
X15985866Y-6294323D01*
X16054712Y-6306238D01*
X16106188Y-6353482D01*
X16117931Y-6379196D01*
X16157454Y-6500836D01*
X16243104Y-6668933D01*
X16243240Y-6669199D01*
X16354310Y-6822073D01*
X16487927Y-6955690D01*
X16640801Y-7066760D01*
X16720347Y-7107290D01*
X16809163Y-7152545D01*
X16809165Y-7152545D01*
X16809168Y-7152547D01*
X16905497Y-7183846D01*
X16988881Y-7210940D01*
X17175514Y-7240500D01*
X17175519Y-7240500D01*
X17364486Y-7240500D01*
X17551118Y-7210940D01*
X17552623Y-7210451D01*
X17730832Y-7152547D01*
X17899199Y-7066760D01*
X18052073Y-6955690D01*
X18185690Y-6822073D01*
X18296760Y-6669199D01*
X18382547Y-6500832D01*
X18422069Y-6379195D01*
X18461507Y-6321521D01*
X18525866Y-6294323D01*
X18594712Y-6306238D01*
X18646188Y-6353482D01*
X18657931Y-6379196D01*
X18697454Y-6500836D01*
X18783104Y-6668933D01*
X18783240Y-6669199D01*
X18894310Y-6822073D01*
X19027927Y-6955690D01*
X19180801Y-7066760D01*
X19260347Y-7107290D01*
X19349163Y-7152545D01*
X19349165Y-7152545D01*
X19349168Y-7152547D01*
X19445497Y-7183846D01*
X19528881Y-7210940D01*
X19715514Y-7240500D01*
X19715519Y-7240500D01*
X19904486Y-7240500D01*
X20091118Y-7210940D01*
X20092623Y-7210451D01*
X20270832Y-7152547D01*
X20439199Y-7066760D01*
X20592073Y-6955690D01*
X20725690Y-6822073D01*
X20836760Y-6669199D01*
X20922547Y-6500832D01*
X20962332Y-6378385D01*
X21001768Y-6320713D01*
X21066127Y-6293514D01*
X21134973Y-6305429D01*
X21186449Y-6352673D01*
X21198193Y-6378388D01*
X21237914Y-6500637D01*
X21323666Y-6668933D01*
X21386749Y-6755761D01*
X21893387Y-6249123D01*
X21949901Y-6347007D01*
X22042993Y-6440099D01*
X22140875Y-6496611D01*
X21634237Y-7003248D01*
X21634237Y-7003249D01*
X21721066Y-7066333D01*
X21889362Y-7152085D01*
X22068997Y-7210451D01*
X22255553Y-7240000D01*
X22444447Y-7240000D01*
X22631002Y-7210451D01*
X22810637Y-7152085D01*
X22978940Y-7066329D01*
X23065761Y-7003251D01*
X23065762Y-7003249D01*
X22559124Y-6496611D01*
X22657007Y-6440099D01*
X22750099Y-6347007D01*
X22806611Y-6249124D01*
X23313249Y-6755762D01*
X23313251Y-6755761D01*
X23376329Y-6668940D01*
X23462086Y-6500635D01*
X23501806Y-6378389D01*
X23541243Y-6320713D01*
X23605601Y-6293514D01*
X23674448Y-6305428D01*
X23725924Y-6352672D01*
X23737668Y-6378387D01*
X23777454Y-6500836D01*
X23863104Y-6668933D01*
X23863240Y-6669199D01*
X23974310Y-6822073D01*
X24107927Y-6955690D01*
X24260801Y-7066760D01*
X24340347Y-7107290D01*
X24429163Y-7152545D01*
X24429165Y-7152545D01*
X24429168Y-7152547D01*
X24525497Y-7183846D01*
X24608881Y-7210940D01*
X24795514Y-7240500D01*
X24795519Y-7240500D01*
X24984486Y-7240500D01*
X25171118Y-7210940D01*
X25172623Y-7210451D01*
X25350832Y-7152547D01*
X25519199Y-7066760D01*
X25672073Y-6955690D01*
X25805690Y-6822073D01*
X25916760Y-6669199D01*
X26002547Y-6500832D01*
X26042069Y-6379195D01*
X26081507Y-6321521D01*
X26145866Y-6294323D01*
X26214712Y-6306238D01*
X26266188Y-6353482D01*
X26277931Y-6379196D01*
X26317454Y-6500836D01*
X26403104Y-6668933D01*
X26403240Y-6669199D01*
X26514310Y-6822073D01*
X26647927Y-6955690D01*
X26800801Y-7066760D01*
X26880347Y-7107290D01*
X26969163Y-7152545D01*
X26969165Y-7152545D01*
X26969168Y-7152547D01*
X27065497Y-7183846D01*
X27148881Y-7210940D01*
X27335514Y-7240500D01*
X27335519Y-7240500D01*
X27524486Y-7240500D01*
X27711118Y-7210940D01*
X27712623Y-7210451D01*
X27890832Y-7152547D01*
X28059199Y-7066760D01*
X28212073Y-6955690D01*
X28345690Y-6822073D01*
X28456760Y-6669199D01*
X28542547Y-6500832D01*
X28582332Y-6378385D01*
X28621768Y-6320713D01*
X28686127Y-6293514D01*
X28754973Y-6305429D01*
X28806449Y-6352673D01*
X28818193Y-6378388D01*
X28857914Y-6500637D01*
X28943666Y-6668933D01*
X29006749Y-6755761D01*
X29513387Y-6249123D01*
X29569901Y-6347007D01*
X29662993Y-6440099D01*
X29760875Y-6496611D01*
X29254237Y-7003248D01*
X29254237Y-7003249D01*
X29341066Y-7066333D01*
X29509362Y-7152085D01*
X29688997Y-7210451D01*
X29875553Y-7240000D01*
X30064447Y-7240000D01*
X30251002Y-7210451D01*
X30430637Y-7152085D01*
X30598940Y-7066329D01*
X30685761Y-7003251D01*
X30685762Y-7003249D01*
X30179124Y-6496611D01*
X30277007Y-6440099D01*
X30370099Y-6347007D01*
X30426611Y-6249124D01*
X30933249Y-6755762D01*
X30933251Y-6755761D01*
X30996329Y-6668940D01*
X31082086Y-6500635D01*
X31121806Y-6378389D01*
X31161243Y-6320713D01*
X31225601Y-6293514D01*
X31294448Y-6305428D01*
X31345924Y-6352672D01*
X31357668Y-6378387D01*
X31397454Y-6500836D01*
X31483104Y-6668933D01*
X31483240Y-6669199D01*
X31594310Y-6822073D01*
X31727927Y-6955690D01*
X31880801Y-7066760D01*
X31960347Y-7107290D01*
X32049163Y-7152545D01*
X32049165Y-7152545D01*
X32049168Y-7152547D01*
X32145497Y-7183846D01*
X32228881Y-7210940D01*
X32415514Y-7240500D01*
X32415519Y-7240500D01*
X32604486Y-7240500D01*
X32791118Y-7210940D01*
X32792623Y-7210451D01*
X32970832Y-7152547D01*
X33139199Y-7066760D01*
X33292073Y-6955690D01*
X33425690Y-6822073D01*
X33536760Y-6669199D01*
X33622547Y-6500832D01*
X33662069Y-6379195D01*
X33701507Y-6321521D01*
X33765866Y-6294323D01*
X33834712Y-6306238D01*
X33886188Y-6353482D01*
X33897931Y-6379196D01*
X33937454Y-6500836D01*
X34023104Y-6668933D01*
X34023240Y-6669199D01*
X34134310Y-6822073D01*
X34267927Y-6955690D01*
X34420801Y-7066760D01*
X34500347Y-7107290D01*
X34589163Y-7152545D01*
X34589165Y-7152545D01*
X34589168Y-7152547D01*
X34685497Y-7183846D01*
X34768881Y-7210940D01*
X34955514Y-7240500D01*
X34955519Y-7240500D01*
X35144486Y-7240500D01*
X35331118Y-7210940D01*
X35332623Y-7210451D01*
X35510832Y-7152547D01*
X35679199Y-7066760D01*
X35832073Y-6955690D01*
X35965690Y-6822073D01*
X36076760Y-6669199D01*
X36162547Y-6500832D01*
X36202069Y-6379195D01*
X36241507Y-6321521D01*
X36305866Y-6294323D01*
X36374712Y-6306238D01*
X36426188Y-6353482D01*
X36437931Y-6379196D01*
X36477454Y-6500836D01*
X36563104Y-6668933D01*
X36563240Y-6669199D01*
X36674310Y-6822073D01*
X36807927Y-6955690D01*
X36960801Y-7066760D01*
X37040347Y-7107290D01*
X37129163Y-7152545D01*
X37129165Y-7152545D01*
X37129168Y-7152547D01*
X37225497Y-7183846D01*
X37308881Y-7210940D01*
X37495514Y-7240500D01*
X37495519Y-7240500D01*
X37684486Y-7240500D01*
X37871118Y-7210940D01*
X37872623Y-7210451D01*
X38050832Y-7152547D01*
X38219199Y-7066760D01*
X38372073Y-6955690D01*
X38505690Y-6822073D01*
X38616760Y-6669199D01*
X38702547Y-6500832D01*
X38742069Y-6379195D01*
X38781507Y-6321521D01*
X38845866Y-6294323D01*
X38914712Y-6306238D01*
X38966188Y-6353482D01*
X38977931Y-6379196D01*
X39017454Y-6500836D01*
X39103104Y-6668933D01*
X39103240Y-6669199D01*
X39214310Y-6822073D01*
X39347927Y-6955690D01*
X39500801Y-7066760D01*
X39580347Y-7107290D01*
X39669163Y-7152545D01*
X39669165Y-7152545D01*
X39669168Y-7152547D01*
X39765497Y-7183846D01*
X39848881Y-7210940D01*
X40035514Y-7240500D01*
X40035519Y-7240500D01*
X40224486Y-7240500D01*
X40411118Y-7210940D01*
X40412623Y-7210451D01*
X40590832Y-7152547D01*
X40759199Y-7066760D01*
X40912073Y-6955690D01*
X41045690Y-6822073D01*
X41156760Y-6669199D01*
X41242547Y-6500832D01*
X41282332Y-6378385D01*
X41321768Y-6320713D01*
X41386127Y-6293514D01*
X41454973Y-6305429D01*
X41506449Y-6352673D01*
X41518193Y-6378388D01*
X41557914Y-6500637D01*
X41643666Y-6668933D01*
X41706749Y-6755761D01*
X42213387Y-6249123D01*
X42269901Y-6347007D01*
X42362993Y-6440099D01*
X42460875Y-6496611D01*
X41954237Y-7003248D01*
X41954237Y-7003249D01*
X42041066Y-7066333D01*
X42209362Y-7152085D01*
X42388997Y-7210451D01*
X42575553Y-7240000D01*
X42764447Y-7240000D01*
X42951002Y-7210451D01*
X43130637Y-7152085D01*
X43298940Y-7066329D01*
X43385761Y-7003251D01*
X43385762Y-7003249D01*
X42879124Y-6496611D01*
X42977007Y-6440099D01*
X43070099Y-6347007D01*
X43126611Y-6249124D01*
X43633249Y-6755762D01*
X43633251Y-6755761D01*
X43696329Y-6668940D01*
X43782086Y-6500635D01*
X43821806Y-6378389D01*
X43861243Y-6320713D01*
X43925601Y-6293514D01*
X43994448Y-6305428D01*
X44045924Y-6352672D01*
X44057668Y-6378387D01*
X44097454Y-6500836D01*
X44183104Y-6668933D01*
X44183240Y-6669199D01*
X44294310Y-6822073D01*
X44427927Y-6955690D01*
X44580801Y-7066760D01*
X44660347Y-7107290D01*
X44749163Y-7152545D01*
X44749165Y-7152545D01*
X44749168Y-7152547D01*
X44845497Y-7183846D01*
X44928881Y-7210940D01*
X45115514Y-7240500D01*
X45115519Y-7240500D01*
X45304486Y-7240500D01*
X45491118Y-7210940D01*
X45492623Y-7210451D01*
X45670832Y-7152547D01*
X45839199Y-7066760D01*
X45992073Y-6955690D01*
X46125690Y-6822073D01*
X46236760Y-6669199D01*
X46322547Y-6500832D01*
X46362332Y-6378385D01*
X46401768Y-6320713D01*
X46466127Y-6293514D01*
X46534973Y-6305429D01*
X46586449Y-6352673D01*
X46598193Y-6378388D01*
X46637914Y-6500637D01*
X46723666Y-6668933D01*
X46786749Y-6755761D01*
X47293387Y-6249123D01*
X47349901Y-6347007D01*
X47442993Y-6440099D01*
X47540875Y-6496611D01*
X47034237Y-7003248D01*
X47034237Y-7003249D01*
X47121066Y-7066333D01*
X47289362Y-7152085D01*
X47468997Y-7210451D01*
X47655553Y-7240000D01*
X47844447Y-7240000D01*
X48031002Y-7210451D01*
X48210637Y-7152085D01*
X48378940Y-7066329D01*
X48465761Y-7003251D01*
X48465762Y-7003249D01*
X47959124Y-6496611D01*
X48057007Y-6440099D01*
X48150099Y-6347007D01*
X48206611Y-6249124D01*
X48713249Y-6755762D01*
X48713251Y-6755761D01*
X48776329Y-6668940D01*
X48862086Y-6500635D01*
X48901806Y-6378389D01*
X48941243Y-6320713D01*
X49005601Y-6293514D01*
X49074448Y-6305428D01*
X49125924Y-6352672D01*
X49137668Y-6378387D01*
X49177454Y-6500836D01*
X49263104Y-6668933D01*
X49263240Y-6669199D01*
X49374310Y-6822073D01*
X49507927Y-6955690D01*
X49660801Y-7066760D01*
X49740347Y-7107290D01*
X49829163Y-7152545D01*
X49829165Y-7152545D01*
X49829168Y-7152547D01*
X49925497Y-7183846D01*
X50008881Y-7210940D01*
X50195514Y-7240500D01*
X50195519Y-7240500D01*
X50384486Y-7240500D01*
X50571118Y-7210940D01*
X50572623Y-7210451D01*
X50750832Y-7152547D01*
X50919199Y-7066760D01*
X51072073Y-6955690D01*
X51205690Y-6822073D01*
X51316760Y-6669199D01*
X51402547Y-6500832D01*
X51442069Y-6379195D01*
X51481507Y-6321521D01*
X51545866Y-6294323D01*
X51614712Y-6306238D01*
X51666188Y-6353482D01*
X51677931Y-6379196D01*
X51717454Y-6500836D01*
X51803104Y-6668933D01*
X51803240Y-6669199D01*
X51914310Y-6822073D01*
X52047927Y-6955690D01*
X52200801Y-7066760D01*
X52280347Y-7107290D01*
X52369163Y-7152545D01*
X52369165Y-7152545D01*
X52369168Y-7152547D01*
X52465497Y-7183846D01*
X52548881Y-7210940D01*
X52735514Y-7240500D01*
X52735519Y-7240500D01*
X52924486Y-7240500D01*
X53111118Y-7210940D01*
X53112623Y-7210451D01*
X53290832Y-7152547D01*
X53459199Y-7066760D01*
X53612073Y-6955690D01*
X53745690Y-6822073D01*
X53856760Y-6669199D01*
X53942547Y-6500832D01*
X53982069Y-6379195D01*
X54021507Y-6321521D01*
X54085866Y-6294323D01*
X54154712Y-6306238D01*
X54206188Y-6353482D01*
X54217931Y-6379196D01*
X54257454Y-6500836D01*
X54343104Y-6668933D01*
X54343240Y-6669199D01*
X54454310Y-6822073D01*
X54587927Y-6955690D01*
X54740801Y-7066760D01*
X54820347Y-7107290D01*
X54909163Y-7152545D01*
X54909165Y-7152545D01*
X54909168Y-7152547D01*
X55005497Y-7183846D01*
X55088881Y-7210940D01*
X55275514Y-7240500D01*
X55275519Y-7240500D01*
X55464486Y-7240500D01*
X55651118Y-7210940D01*
X55652623Y-7210451D01*
X55830832Y-7152547D01*
X55999199Y-7066760D01*
X56152073Y-6955690D01*
X56285690Y-6822073D01*
X56396760Y-6669199D01*
X56482547Y-6500832D01*
X56540940Y-6321118D01*
X56545312Y-6293514D01*
X56570500Y-6134486D01*
X56570500Y-5945513D01*
X56540940Y-5758881D01*
X56482610Y-5579362D01*
X56482547Y-5579168D01*
X56482545Y-5579165D01*
X56482545Y-5579163D01*
X56396894Y-5411064D01*
X56396760Y-5410801D01*
X56285690Y-5257927D01*
X56152073Y-5124310D01*
X55999199Y-5013240D01*
X55830836Y-4927454D01*
X55710003Y-4888193D01*
X55708386Y-4887667D01*
X55650712Y-4848230D01*
X55623514Y-4783871D01*
X55635429Y-4715025D01*
X55682673Y-4663549D01*
X55708389Y-4651806D01*
X55830635Y-4612086D01*
X55998940Y-4526329D01*
X56085761Y-4463251D01*
X56085762Y-4463249D01*
X55579124Y-3956611D01*
X55677007Y-3900099D01*
X55770099Y-3807007D01*
X55826611Y-3709124D01*
X56333249Y-4215762D01*
X56333251Y-4215761D01*
X56396329Y-4128940D01*
X56482085Y-3960637D01*
X56540451Y-3781002D01*
X56570000Y-3594447D01*
X56570000Y-3499998D01*
X59000000Y-3499998D01*
X59000000Y-3500001D01*
X59085184Y-4147045D01*
X59085185Y-4147047D01*
X59310320Y-4690573D01*
X59334936Y-4750000D01*
X59732233Y-5267766D01*
X60250000Y-5665063D01*
X60250001Y-5665063D01*
X60250002Y-5665064D01*
X60338237Y-5701612D01*
X60852952Y-5914814D01*
X61086133Y-5945513D01*
X61499999Y-6000000D01*
X61500000Y-6000000D01*
X61500001Y-6000000D01*
X61715682Y-5971604D01*
X62147047Y-5914814D01*
X62750000Y-5665063D01*
X63267766Y-5267766D01*
X63665063Y-4750000D01*
X63914814Y-4147047D01*
X64000000Y-3500000D01*
X63967417Y-3252512D01*
X63917199Y-2871066D01*
X63914814Y-2852952D01*
X63665063Y-2249999D01*
X63267766Y-1732233D01*
X62750000Y-1334936D01*
X62749995Y-1334934D01*
X62147047Y-1085185D01*
X62147045Y-1085184D01*
X61500001Y-1000000D01*
X61499999Y-1000000D01*
X60852953Y-1085184D01*
X60852951Y-1085185D01*
X60250002Y-1334934D01*
X59732233Y-1732233D01*
X59334934Y-2250002D01*
X59085185Y-2852951D01*
X59085184Y-2852953D01*
X59000000Y-3499998D01*
X56570000Y-3499998D01*
X56570000Y-3405552D01*
X56540451Y-3218997D01*
X56482085Y-3039362D01*
X56396333Y-2871066D01*
X56333249Y-2784237D01*
X56333248Y-2784237D01*
X55826611Y-3290875D01*
X55770099Y-3192993D01*
X55677007Y-3099901D01*
X55579123Y-3043388D01*
X56085761Y-2536749D01*
X55998933Y-2473666D01*
X55830637Y-2387914D01*
X55651002Y-2329548D01*
X55464447Y-2300000D01*
X55275553Y-2300000D01*
X55088997Y-2329548D01*
X54909362Y-2387914D01*
X54741064Y-2473667D01*
X54741062Y-2473668D01*
X54654237Y-2536748D01*
X54654237Y-2536749D01*
X55160876Y-3043388D01*
X55062993Y-3099901D01*
X54969901Y-3192993D01*
X54913388Y-3290876D01*
X54406749Y-2784237D01*
X54406748Y-2784237D01*
X54343668Y-2871062D01*
X54343667Y-2871064D01*
X54257915Y-3039361D01*
X54218193Y-3161612D01*
X54178755Y-3219287D01*
X54114396Y-3246485D01*
X54045550Y-3234570D01*
X53994074Y-3187326D01*
X53982332Y-3161614D01*
X53942547Y-3039168D01*
X53856760Y-2870801D01*
X53745690Y-2717927D01*
X53612073Y-2584310D01*
X53459199Y-2473240D01*
X53417274Y-2451878D01*
X53290836Y-2387454D01*
X53111118Y-2329059D01*
X52924486Y-2299500D01*
X52924481Y-2299500D01*
X52735519Y-2299500D01*
X52735514Y-2299500D01*
X52548881Y-2329059D01*
X52369163Y-2387454D01*
X52200800Y-2473240D01*
X52171726Y-2494364D01*
X52047927Y-2584310D01*
X52047925Y-2584312D01*
X52047924Y-2584312D01*
X51914312Y-2717924D01*
X51914312Y-2717925D01*
X51914310Y-2717927D01*
X51866610Y-2783579D01*
X51803240Y-2870800D01*
X51717454Y-3039163D01*
X51677931Y-3160803D01*
X51638493Y-3218478D01*
X51574134Y-3245676D01*
X51505288Y-3233761D01*
X51453812Y-3186516D01*
X51442069Y-3160803D01*
X51414248Y-3075181D01*
X51402547Y-3039168D01*
X51402545Y-3039165D01*
X51402545Y-3039163D01*
X51316894Y-2871064D01*
X51316760Y-2870801D01*
X51205690Y-2717927D01*
X51072073Y-2584310D01*
X50919199Y-2473240D01*
X50877274Y-2451878D01*
X50750836Y-2387454D01*
X50571118Y-2329059D01*
X50384486Y-2299500D01*
X50384481Y-2299500D01*
X50195519Y-2299500D01*
X50195514Y-2299500D01*
X50008881Y-2329059D01*
X49829163Y-2387454D01*
X49660800Y-2473240D01*
X49631726Y-2494364D01*
X49507927Y-2584310D01*
X49507925Y-2584312D01*
X49507924Y-2584312D01*
X49374312Y-2717924D01*
X49374312Y-2717925D01*
X49374310Y-2717927D01*
X49326610Y-2783579D01*
X49263240Y-2870800D01*
X49177454Y-3039163D01*
X49137931Y-3160803D01*
X49098493Y-3218478D01*
X49034134Y-3245676D01*
X48965288Y-3233761D01*
X48913812Y-3186516D01*
X48902069Y-3160803D01*
X48874248Y-3075181D01*
X48862547Y-3039168D01*
X48862545Y-3039165D01*
X48862545Y-3039163D01*
X48776894Y-2871064D01*
X48776760Y-2870801D01*
X48665690Y-2717927D01*
X48532073Y-2584310D01*
X48379199Y-2473240D01*
X48337274Y-2451878D01*
X48210836Y-2387454D01*
X48031118Y-2329059D01*
X47844486Y-2299500D01*
X47844481Y-2299500D01*
X47655519Y-2299500D01*
X47655514Y-2299500D01*
X47468881Y-2329059D01*
X47289163Y-2387454D01*
X47120800Y-2473240D01*
X47091726Y-2494364D01*
X46967927Y-2584310D01*
X46967925Y-2584312D01*
X46967924Y-2584312D01*
X46834312Y-2717924D01*
X46834312Y-2717925D01*
X46834310Y-2717927D01*
X46786610Y-2783579D01*
X46723240Y-2870800D01*
X46637454Y-3039163D01*
X46597931Y-3160803D01*
X46558493Y-3218478D01*
X46494134Y-3245676D01*
X46425288Y-3233761D01*
X46373812Y-3186516D01*
X46362069Y-3160803D01*
X46334248Y-3075181D01*
X46322547Y-3039168D01*
X46322545Y-3039165D01*
X46322545Y-3039163D01*
X46236894Y-2871064D01*
X46236760Y-2870801D01*
X46125690Y-2717927D01*
X45992073Y-2584310D01*
X45839199Y-2473240D01*
X45797274Y-2451878D01*
X45670836Y-2387454D01*
X45491118Y-2329059D01*
X45304486Y-2299500D01*
X45304481Y-2299500D01*
X45115519Y-2299500D01*
X45115514Y-2299500D01*
X44928881Y-2329059D01*
X44749163Y-2387454D01*
X44580800Y-2473240D01*
X44551726Y-2494364D01*
X44427927Y-2584310D01*
X44427925Y-2584312D01*
X44427924Y-2584312D01*
X44294312Y-2717924D01*
X44294312Y-2717925D01*
X44294310Y-2717927D01*
X44246610Y-2783579D01*
X44183240Y-2870800D01*
X44097454Y-3039163D01*
X44057931Y-3160803D01*
X44018493Y-3218478D01*
X43954134Y-3245676D01*
X43885288Y-3233761D01*
X43833812Y-3186516D01*
X43822069Y-3160803D01*
X43794248Y-3075181D01*
X43782547Y-3039168D01*
X43782545Y-3039165D01*
X43782545Y-3039163D01*
X43696894Y-2871064D01*
X43696760Y-2870801D01*
X43585690Y-2717927D01*
X43452073Y-2584310D01*
X43299199Y-2473240D01*
X43257274Y-2451878D01*
X43130836Y-2387454D01*
X42951118Y-2329059D01*
X42764486Y-2299500D01*
X42764481Y-2299500D01*
X42575519Y-2299500D01*
X42575514Y-2299500D01*
X42388881Y-2329059D01*
X42209163Y-2387454D01*
X42040800Y-2473240D01*
X42011726Y-2494364D01*
X41887927Y-2584310D01*
X41887925Y-2584312D01*
X41887924Y-2584312D01*
X41754312Y-2717924D01*
X41754312Y-2717925D01*
X41754310Y-2717927D01*
X41706610Y-2783579D01*
X41643240Y-2870800D01*
X41557454Y-3039163D01*
X41517931Y-3160803D01*
X41478493Y-3218478D01*
X41414134Y-3245676D01*
X41345288Y-3233761D01*
X41293812Y-3186516D01*
X41282069Y-3160803D01*
X41254248Y-3075181D01*
X41242547Y-3039168D01*
X41242545Y-3039165D01*
X41242545Y-3039163D01*
X41156894Y-2871064D01*
X41156760Y-2870801D01*
X41045690Y-2717927D01*
X40912073Y-2584310D01*
X40759199Y-2473240D01*
X40717274Y-2451878D01*
X40590836Y-2387454D01*
X40411118Y-2329059D01*
X40224486Y-2299500D01*
X40224481Y-2299500D01*
X40035519Y-2299500D01*
X40035514Y-2299500D01*
X39848881Y-2329059D01*
X39669163Y-2387454D01*
X39500800Y-2473240D01*
X39471726Y-2494364D01*
X39347927Y-2584310D01*
X39347925Y-2584312D01*
X39347924Y-2584312D01*
X39214312Y-2717924D01*
X39214312Y-2717925D01*
X39214310Y-2717927D01*
X39166610Y-2783579D01*
X39103240Y-2870800D01*
X39017454Y-3039163D01*
X38977668Y-3161612D01*
X38938230Y-3219287D01*
X38873871Y-3246485D01*
X38805025Y-3234570D01*
X38753549Y-3187325D01*
X38741806Y-3161611D01*
X38702085Y-3039362D01*
X38616333Y-2871066D01*
X38553249Y-2784237D01*
X38046611Y-3290875D01*
X37990099Y-3192993D01*
X37897007Y-3099901D01*
X37799123Y-3043388D01*
X38305761Y-2536749D01*
X38218933Y-2473666D01*
X38050637Y-2387914D01*
X37871002Y-2329548D01*
X37684447Y-2300000D01*
X37495553Y-2300000D01*
X37308997Y-2329548D01*
X37129362Y-2387914D01*
X36961064Y-2473667D01*
X36961062Y-2473668D01*
X36874237Y-2536748D01*
X36874237Y-2536749D01*
X37380876Y-3043388D01*
X37282993Y-3099901D01*
X37189901Y-3192993D01*
X37133388Y-3290876D01*
X36626749Y-2784237D01*
X36626748Y-2784237D01*
X36563668Y-2871062D01*
X36563667Y-2871064D01*
X36477915Y-3039361D01*
X36438193Y-3161612D01*
X36398755Y-3219287D01*
X36334396Y-3246485D01*
X36265550Y-3234570D01*
X36214074Y-3187326D01*
X36202332Y-3161614D01*
X36162547Y-3039168D01*
X36076760Y-2870801D01*
X35965690Y-2717927D01*
X35832073Y-2584310D01*
X35679199Y-2473240D01*
X35637274Y-2451878D01*
X35510836Y-2387454D01*
X35331118Y-2329059D01*
X35144486Y-2299500D01*
X35144481Y-2299500D01*
X34955519Y-2299500D01*
X34955514Y-2299500D01*
X34768881Y-2329059D01*
X34589163Y-2387454D01*
X34420800Y-2473240D01*
X34391726Y-2494364D01*
X34267927Y-2584310D01*
X34267925Y-2584312D01*
X34267924Y-2584312D01*
X34134312Y-2717924D01*
X34134312Y-2717925D01*
X34134310Y-2717927D01*
X34086610Y-2783579D01*
X34023240Y-2870800D01*
X33937454Y-3039163D01*
X33897931Y-3160803D01*
X33858493Y-3218478D01*
X33794134Y-3245676D01*
X33725288Y-3233761D01*
X33673812Y-3186516D01*
X33662069Y-3160803D01*
X33634248Y-3075181D01*
X33622547Y-3039168D01*
X33622545Y-3039165D01*
X33622545Y-3039163D01*
X33536894Y-2871064D01*
X33536760Y-2870801D01*
X33425690Y-2717927D01*
X33292073Y-2584310D01*
X33139199Y-2473240D01*
X33097274Y-2451878D01*
X32970836Y-2387454D01*
X32791118Y-2329059D01*
X32604486Y-2299500D01*
X32604481Y-2299500D01*
X32415519Y-2299500D01*
X32415514Y-2299500D01*
X32228881Y-2329059D01*
X32049163Y-2387454D01*
X31880800Y-2473240D01*
X31851726Y-2494364D01*
X31727927Y-2584310D01*
X31727925Y-2584312D01*
X31727924Y-2584312D01*
X31594312Y-2717924D01*
X31594312Y-2717925D01*
X31594310Y-2717927D01*
X31546610Y-2783579D01*
X31483240Y-2870800D01*
X31397454Y-3039163D01*
X31357931Y-3160803D01*
X31318493Y-3218478D01*
X31254134Y-3245676D01*
X31185288Y-3233761D01*
X31133812Y-3186516D01*
X31122069Y-3160803D01*
X31094248Y-3075181D01*
X31082547Y-3039168D01*
X31082545Y-3039165D01*
X31082545Y-3039163D01*
X30996894Y-2871064D01*
X30996760Y-2870801D01*
X30885690Y-2717927D01*
X30752073Y-2584310D01*
X30599199Y-2473240D01*
X30557274Y-2451878D01*
X30430836Y-2387454D01*
X30251118Y-2329059D01*
X30064486Y-2299500D01*
X30064481Y-2299500D01*
X29875519Y-2299500D01*
X29875514Y-2299500D01*
X29688881Y-2329059D01*
X29509163Y-2387454D01*
X29340800Y-2473240D01*
X29311726Y-2494364D01*
X29187927Y-2584310D01*
X29187925Y-2584312D01*
X29187924Y-2584312D01*
X29054312Y-2717924D01*
X29054312Y-2717925D01*
X29054310Y-2717927D01*
X29006610Y-2783579D01*
X28943240Y-2870800D01*
X28857454Y-3039163D01*
X28817931Y-3160803D01*
X28778493Y-3218478D01*
X28714134Y-3245676D01*
X28645288Y-3233761D01*
X28593812Y-3186516D01*
X28582069Y-3160803D01*
X28554248Y-3075181D01*
X28542547Y-3039168D01*
X28542545Y-3039165D01*
X28542545Y-3039163D01*
X28456894Y-2871064D01*
X28456760Y-2870801D01*
X28345690Y-2717927D01*
X28212073Y-2584310D01*
X28059199Y-2473240D01*
X28017274Y-2451878D01*
X27890836Y-2387454D01*
X27711118Y-2329059D01*
X27524486Y-2299500D01*
X27524481Y-2299500D01*
X27335519Y-2299500D01*
X27335514Y-2299500D01*
X27148881Y-2329059D01*
X26969163Y-2387454D01*
X26800800Y-2473240D01*
X26771726Y-2494364D01*
X26647927Y-2584310D01*
X26647925Y-2584312D01*
X26647924Y-2584312D01*
X26514312Y-2717924D01*
X26514312Y-2717925D01*
X26514310Y-2717927D01*
X26466610Y-2783579D01*
X26403240Y-2870800D01*
X26317454Y-3039163D01*
X26277931Y-3160803D01*
X26238493Y-3218478D01*
X26174134Y-3245676D01*
X26105288Y-3233761D01*
X26053812Y-3186516D01*
X26042069Y-3160803D01*
X26014248Y-3075181D01*
X26002547Y-3039168D01*
X26002545Y-3039165D01*
X26002545Y-3039163D01*
X25916894Y-2871064D01*
X25916760Y-2870801D01*
X25805690Y-2717927D01*
X25672073Y-2584310D01*
X25519199Y-2473240D01*
X25477274Y-2451878D01*
X25350836Y-2387454D01*
X25171118Y-2329059D01*
X24984486Y-2299500D01*
X24984481Y-2299500D01*
X24795519Y-2299500D01*
X24795514Y-2299500D01*
X24608881Y-2329059D01*
X24429163Y-2387454D01*
X24260800Y-2473240D01*
X24231726Y-2494364D01*
X24107927Y-2584310D01*
X24107925Y-2584312D01*
X24107924Y-2584312D01*
X23974312Y-2717924D01*
X23974312Y-2717925D01*
X23974310Y-2717927D01*
X23926610Y-2783579D01*
X23863240Y-2870800D01*
X23777454Y-3039163D01*
X23737931Y-3160803D01*
X23698493Y-3218478D01*
X23634134Y-3245676D01*
X23565288Y-3233761D01*
X23513812Y-3186516D01*
X23502069Y-3160803D01*
X23474248Y-3075181D01*
X23462547Y-3039168D01*
X23462545Y-3039165D01*
X23462545Y-3039163D01*
X23376894Y-2871064D01*
X23376760Y-2870801D01*
X23265690Y-2717927D01*
X23132073Y-2584310D01*
X22979199Y-2473240D01*
X22937274Y-2451878D01*
X22810836Y-2387454D01*
X22631118Y-2329059D01*
X22444486Y-2299500D01*
X22444481Y-2299500D01*
X22255519Y-2299500D01*
X22255514Y-2299500D01*
X22068881Y-2329059D01*
X21889163Y-2387454D01*
X21720800Y-2473240D01*
X21691726Y-2494364D01*
X21567927Y-2584310D01*
X21567925Y-2584312D01*
X21567924Y-2584312D01*
X21434312Y-2717924D01*
X21434312Y-2717925D01*
X21434310Y-2717927D01*
X21386610Y-2783579D01*
X21323240Y-2870800D01*
X21237454Y-3039163D01*
X21197931Y-3160803D01*
X21158493Y-3218478D01*
X21094134Y-3245676D01*
X21025288Y-3233761D01*
X20973812Y-3186516D01*
X20962069Y-3160803D01*
X20934248Y-3075181D01*
X20922547Y-3039168D01*
X20922545Y-3039165D01*
X20922545Y-3039163D01*
X20836894Y-2871064D01*
X20836760Y-2870801D01*
X20725690Y-2717927D01*
X20592073Y-2584310D01*
X20439199Y-2473240D01*
X20397274Y-2451878D01*
X20270836Y-2387454D01*
X20091118Y-2329059D01*
X19904486Y-2299500D01*
X19904481Y-2299500D01*
X19715519Y-2299500D01*
X19715514Y-2299500D01*
X19528881Y-2329059D01*
X19349163Y-2387454D01*
X19180800Y-2473240D01*
X19151726Y-2494364D01*
X19027927Y-2584310D01*
X19027925Y-2584312D01*
X19027924Y-2584312D01*
X18894312Y-2717924D01*
X18894312Y-2717925D01*
X18894310Y-2717927D01*
X18846610Y-2783579D01*
X18783240Y-2870800D01*
X18697454Y-3039163D01*
X18657668Y-3161612D01*
X18618230Y-3219287D01*
X18553871Y-3246485D01*
X18485025Y-3234570D01*
X18433549Y-3187325D01*
X18421806Y-3161611D01*
X18382085Y-3039362D01*
X18296333Y-2871066D01*
X18233249Y-2784237D01*
X18233248Y-2784237D01*
X17726611Y-3290875D01*
X17670099Y-3192993D01*
X17577007Y-3099901D01*
X17479123Y-3043388D01*
X17985761Y-2536749D01*
X17898933Y-2473666D01*
X17730637Y-2387914D01*
X17551002Y-2329548D01*
X17364447Y-2300000D01*
X17175553Y-2300000D01*
X16988997Y-2329548D01*
X16809362Y-2387914D01*
X16641064Y-2473667D01*
X16641062Y-2473668D01*
X16554237Y-2536748D01*
X16554237Y-2536749D01*
X17060876Y-3043388D01*
X16962993Y-3099901D01*
X16869901Y-3192993D01*
X16813388Y-3290876D01*
X16306749Y-2784237D01*
X16306748Y-2784237D01*
X16243668Y-2871062D01*
X16243667Y-2871064D01*
X16157915Y-3039361D01*
X16118193Y-3161612D01*
X16078755Y-3219287D01*
X16014396Y-3246485D01*
X15945550Y-3234570D01*
X15894074Y-3187326D01*
X15882332Y-3161614D01*
X15842547Y-3039168D01*
X15756760Y-2870801D01*
X15645690Y-2717927D01*
X15512073Y-2584310D01*
X15359199Y-2473240D01*
X15317274Y-2451878D01*
X15190836Y-2387454D01*
X15011118Y-2329059D01*
X14824486Y-2299500D01*
X14824481Y-2299500D01*
X14635519Y-2299500D01*
X14635514Y-2299500D01*
X14448881Y-2329059D01*
X14269163Y-2387454D01*
X14100800Y-2473240D01*
X14071726Y-2494364D01*
X13947927Y-2584310D01*
X13947925Y-2584312D01*
X13947924Y-2584312D01*
X13814312Y-2717924D01*
X13814312Y-2717925D01*
X13814310Y-2717927D01*
X13766610Y-2783579D01*
X13703240Y-2870800D01*
X13617454Y-3039163D01*
X13577931Y-3160803D01*
X13538493Y-3218478D01*
X13474134Y-3245676D01*
X13405288Y-3233761D01*
X13353812Y-3186516D01*
X13342069Y-3160803D01*
X13314248Y-3075181D01*
X13302547Y-3039168D01*
X13302545Y-3039165D01*
X13302545Y-3039163D01*
X13216894Y-2871064D01*
X13216760Y-2870801D01*
X13105690Y-2717927D01*
X12972073Y-2584310D01*
X12819199Y-2473240D01*
X12777274Y-2451878D01*
X12650836Y-2387454D01*
X12471118Y-2329059D01*
X12284486Y-2299500D01*
X12284481Y-2299500D01*
X12095519Y-2299500D01*
X12095514Y-2299500D01*
X11908881Y-2329059D01*
X11729163Y-2387454D01*
X11560800Y-2473240D01*
X11531726Y-2494364D01*
X11407927Y-2584310D01*
X11407925Y-2584312D01*
X11407924Y-2584312D01*
X11274312Y-2717924D01*
X11274312Y-2717925D01*
X11274310Y-2717927D01*
X11226610Y-2783579D01*
X11163240Y-2870800D01*
X11077454Y-3039163D01*
X11037931Y-3160803D01*
X10998493Y-3218478D01*
X10934134Y-3245676D01*
X10865288Y-3233761D01*
X10813812Y-3186516D01*
X10802069Y-3160803D01*
X10774248Y-3075181D01*
X10762547Y-3039168D01*
X10762545Y-3039165D01*
X10762545Y-3039163D01*
X10676894Y-2871064D01*
X10676760Y-2870801D01*
X10565690Y-2717927D01*
X10432073Y-2584310D01*
X10279199Y-2473240D01*
X10237274Y-2451878D01*
X10110836Y-2387454D01*
X9931118Y-2329059D01*
X9744486Y-2299500D01*
X9744481Y-2299500D01*
X9555519Y-2299500D01*
X9555514Y-2299500D01*
X9368881Y-2329059D01*
X9189163Y-2387454D01*
X9020800Y-2473240D01*
X8991726Y-2494364D01*
X8867927Y-2584310D01*
X8867925Y-2584312D01*
X8867924Y-2584312D01*
X8734312Y-2717924D01*
X8734312Y-2717925D01*
X8734310Y-2717927D01*
X8686610Y-2783579D01*
X8623240Y-2870800D01*
X8544985Y-3024385D01*
X8497010Y-3075181D01*
X8429189Y-3091976D01*
X8363054Y-3069439D01*
X8319603Y-3014723D01*
X8310500Y-2968090D01*
X8310500Y-2616739D01*
X8300573Y-2548608D01*
X8294776Y-2536749D01*
X8249198Y-2443517D01*
X8249196Y-2443515D01*
X8249196Y-2443514D01*
X8166485Y-2360803D01*
X8061391Y-2309426D01*
X7993261Y-2299500D01*
X7993260Y-2299500D01*
X6226740Y-2299500D01*
X6226739Y-2299500D01*
X6158608Y-2309426D01*
X6053514Y-2360803D01*
X5970801Y-2443516D01*
X5969435Y-2446312D01*
X5966557Y-2449461D01*
X5964832Y-2451878D01*
X5964539Y-2451669D01*
X5922306Y-2497893D01*
X5854772Y-2515806D01*
X5788274Y-2494364D01*
X5743925Y-2440374D01*
X5743475Y-2439302D01*
X5665064Y-2250002D01*
X5665063Y-2249999D01*
X5267766Y-1732233D01*
X4750000Y-1334936D01*
X4749995Y-1334934D01*
X4147047Y-1085185D01*
X4147045Y-1085184D01*
X3500000Y-1000000D01*
X3499998Y-1000000D01*
X2852953Y-1085184D01*
X2852951Y-1085185D01*
X2250000Y-1334935D01*
X1732233Y-1732233D01*
X1334934Y-2250002D01*
X1085185Y-2852951D01*
X1085184Y-2852953D01*
X1000000Y-3499998D01*
X500000Y-3499998D01*
X500000Y-624000D01*
X519685Y-556961D01*
X572489Y-511206D01*
X624000Y-500000D01*
X64376000Y-500000D01*
X64443039Y-519685D01*
G37*
%TD.AperFunction*%
%TD*%
M02*
