M48
; DRILL file {KiCad 9.0.2+dfsg-1} date 2026-04-18T04:41:01-0700
; FORMAT={-:-/ absolute / metric / decimal}
; #@! TF.CreationDate,2026-04-18T04:41:01-07:00
; #@! TF.GenerationSoftware,Kicad,Pcbnew,9.0.2+dfsg-1
; #@! TF.FileFunction,MixedPlating,1,2
FMAT,2
METRIC
; #@! TA.AperFunction,Plated,PTH,ViaDrill
T1C0.400
; #@! TA.AperFunction,Plated,PTH,ComponentDrill
T2C0.800
; #@! TA.AperFunction,Plated,PTH,ComponentDrill
T3C1.000
; #@! TA.AperFunction,NonPlated,NPTH,ComponentDrill
T4C2.700
%
G90
G05
T1
X27.0Y-45.0
X52.0Y-45.0
T2
X10.0Y-30.0
X12.5Y-30.0
X44.92Y-25.0
X47.46Y-25.0
X50.0Y-25.0
X52.0Y-35.0
X59.62Y-35.0
T3
X7.11Y-3.5
X7.11Y-6.04
X7.11Y-16.0
X9.65Y-3.5
X9.65Y-6.04
X9.65Y-16.0
X12.0Y-48.0
X12.19Y-3.5
X12.19Y-6.04
X12.19Y-16.0
X14.5Y-48.0
X14.73Y-3.5
X14.73Y-6.04
X14.73Y-16.0
X17.27Y-3.5
X17.27Y-6.04
X17.27Y-16.0
X19.81Y-3.5
X19.81Y-6.04
X19.81Y-16.0
X22.0Y-48.0
X22.35Y-3.5
X22.35Y-6.04
X22.35Y-16.0
X24.5Y-48.0
X24.89Y-3.5
X24.89Y-6.04
X24.89Y-16.0
X27.43Y-3.5
X27.43Y-6.04
X27.43Y-16.0
X29.97Y-3.5
X29.97Y-6.04
X29.97Y-16.0
X32.51Y-3.5
X32.51Y-6.04
X32.51Y-16.0
X35.05Y-3.5
X35.05Y-6.04
X35.05Y-16.0
X37.59Y-3.5
X37.59Y-6.04
X37.59Y-16.0
X40.13Y-3.5
X40.13Y-6.04
X40.13Y-16.0
X42.67Y-3.5
X42.67Y-6.04
X42.67Y-16.0
X45.21Y-3.5
X45.21Y-6.04
X45.21Y-16.0
X47.75Y-3.5
X47.75Y-6.04
X47.75Y-16.0
X50.29Y-3.5
X50.29Y-6.04
X50.29Y-16.0
X52.83Y-3.5
X52.83Y-6.04
X52.83Y-16.0
X55.37Y-3.5
X55.37Y-6.04
X55.37Y-16.0
T4
X3.5Y-3.5
X3.5Y-52.5
X61.5Y-3.5
X61.5Y-52.5
M30
