%TF.GenerationSoftware,KiCad,Pcbnew,9.0.2+dfsg-1*%
%TF.CreationDate,2026-04-18T03:55:43-07:00*%
%TF.ProjectId,gx01-adapter,67783031-2d61-4646-9170-7465722e6b69,rev?*%
%TF.SameCoordinates,Original*%
%TF.FileFunction,Soldermask,Top*%
%TF.FilePolarity,Negative*%
%FSLAX46Y46*%
G04 Gerber Fmt 4.6, Leading zero omitted, Abs format (unit mm)*
G04 Created by KiCad (PCBNEW 9.0.2+dfsg-1) date 2026-04-18 03:55:43*
%MOMM*%
%LPD*%
G01*
G04 APERTURE LIST*
G04 Aperture macros list*
%AMRoundRect*
0 Rectangle with rounded corners*
0 $1 Rounding radius*
0 $2 $3 $4 $5 $6 $7 $8 $9 X,Y pos of 4 corners*
0 Add a 4 corners polygon primitive as box body*
4,1,4,$2,$3,$4,$5,$6,$7,$8,$9,$2,$3,0*
0 Add four circle primitives for the rounded corners*
1,1,$1+$1,$2,$3*
1,1,$1+$1,$4,$5*
1,1,$1+$1,$6,$7*
1,1,$1+$1,$8,$9*
0 Add four rect primitives between the rounded corners*
20,1,$1+$1,$2,$3,$4,$5,0*
20,1,$1+$1,$4,$5,$6,$7,0*
20,1,$1+$1,$6,$7,$8,$9,0*
20,1,$1+$1,$8,$9,$2,$3,0*%
G04 Aperture macros list end*
%ADD10C,1.440000*%
%ADD11R,1.700000X1.700000*%
%ADD12C,1.700000*%
%ADD13RoundRect,0.250000X-0.600000X-0.750000X0.600000X-0.750000X0.600000X0.750000X-0.600000X0.750000X0*%
%ADD14O,1.700000X2.000000*%
%ADD15C,2.700000*%
%ADD16C,1.600000*%
G04 APERTURE END LIST*
D10*
%TO.C,RV1*%
X50000000Y-25000000D03*
X47460000Y-25000000D03*
X44920000Y-25000000D03*
%TD*%
D11*
%TO.C,J2*%
X7110000Y-16000000D03*
D12*
X9650000Y-16000000D03*
X12190000Y-16000000D03*
X14730000Y-16000000D03*
X17270000Y-16000000D03*
X19810000Y-16000000D03*
X22350000Y-16000000D03*
X24890000Y-16000000D03*
X27430000Y-16000000D03*
X29970000Y-16000000D03*
X32510000Y-16000000D03*
X35050000Y-16000000D03*
X37590000Y-16000000D03*
X40130000Y-16000000D03*
X42670000Y-16000000D03*
X45210000Y-16000000D03*
X47750000Y-16000000D03*
X50290000Y-16000000D03*
X52830000Y-16000000D03*
X55370000Y-16000000D03*
%TD*%
D13*
%TO.C,J3*%
X12000000Y-48000000D03*
D14*
X14500000Y-48000000D03*
%TD*%
D15*
%TO.C,H1*%
X3500000Y-3500000D03*
%TD*%
D16*
%TO.C,R1*%
X52000000Y-35000000D03*
X59620000Y-35000000D03*
%TD*%
%TO.C,C1*%
X10000000Y-30000000D03*
X12500000Y-30000000D03*
%TD*%
D13*
%TO.C,J4*%
X22000000Y-48000000D03*
D14*
X24500000Y-48000000D03*
%TD*%
D15*
%TO.C,H2*%
X61500000Y-3500000D03*
%TD*%
%TO.C,H4*%
X61500000Y-52500000D03*
%TD*%
%TO.C,H3*%
X3500000Y-52500000D03*
%TD*%
D11*
%TO.C,J1*%
X7110000Y-3500000D03*
D12*
X7110000Y-6040000D03*
X9650000Y-3500000D03*
X9650000Y-6040000D03*
X12190000Y-3500000D03*
X12190000Y-6040000D03*
X14730000Y-3500000D03*
X14730000Y-6040000D03*
X17270000Y-3500000D03*
X17270000Y-6040000D03*
X19810000Y-3500000D03*
X19810000Y-6040000D03*
X22350000Y-3500000D03*
X22350000Y-6040000D03*
X24890000Y-3500000D03*
X24890000Y-6040000D03*
X27430000Y-3500000D03*
X27430000Y-6040000D03*
X29970000Y-3500000D03*
X29970000Y-6040000D03*
X32510000Y-3500000D03*
X32510000Y-6040000D03*
X35050000Y-3500000D03*
X35050000Y-6040000D03*
X37590000Y-3500000D03*
X37590000Y-6040000D03*
X40130000Y-3500000D03*
X40130000Y-6040000D03*
X42670000Y-3500000D03*
X42670000Y-6040000D03*
X45210000Y-3500000D03*
X45210000Y-6040000D03*
X47750000Y-3500000D03*
X47750000Y-6040000D03*
X50290000Y-3500000D03*
X50290000Y-6040000D03*
X52830000Y-3500000D03*
X52830000Y-6040000D03*
X55370000Y-3500000D03*
X55370000Y-6040000D03*
%TD*%
M02*
