%TF.GenerationSoftware,KiCad,Pcbnew,9.0.2+dfsg-1*%
%TF.CreationDate,2026-04-18T04:41:00-07:00*%
%TF.ProjectId,gx01-adapter,67783031-2d61-4646-9170-7465722e6b69,rev?*%
%TF.SameCoordinates,Original*%
%TF.FileFunction,Legend,Top*%
%TF.FilePolarity,Positive*%
%FSLAX46Y46*%
G04 Gerber Fmt 4.6, Leading zero omitted, Abs format (unit mm)*
G04 Created by KiCad (PCBNEW 9.0.2+dfsg-1) date 2026-04-18 04:41:00*
%MOMM*%
%LPD*%
G01*
G04 APERTURE LIST*
%ADD10C,0.150000*%
%ADD11C,0.120000*%
G04 APERTURE END LIST*
D10*
X11083333Y-28109580D02*
X11035714Y-28157200D01*
X11035714Y-28157200D02*
X10892857Y-28204819D01*
X10892857Y-28204819D02*
X10797619Y-28204819D01*
X10797619Y-28204819D02*
X10654762Y-28157200D01*
X10654762Y-28157200D02*
X10559524Y-28061961D01*
X10559524Y-28061961D02*
X10511905Y-27966723D01*
X10511905Y-27966723D02*
X10464286Y-27776247D01*
X10464286Y-27776247D02*
X10464286Y-27633390D01*
X10464286Y-27633390D02*
X10511905Y-27442914D01*
X10511905Y-27442914D02*
X10559524Y-27347676D01*
X10559524Y-27347676D02*
X10654762Y-27252438D01*
X10654762Y-27252438D02*
X10797619Y-27204819D01*
X10797619Y-27204819D02*
X10892857Y-27204819D01*
X10892857Y-27204819D02*
X11035714Y-27252438D01*
X11035714Y-27252438D02*
X11083333Y-27300057D01*
X12035714Y-28204819D02*
X11464286Y-28204819D01*
X11750000Y-28204819D02*
X11750000Y-27204819D01*
X11750000Y-27204819D02*
X11654762Y-27347676D01*
X11654762Y-27347676D02*
X11559524Y-27442914D01*
X11559524Y-27442914D02*
X11464286Y-27490533D01*
X22916666Y-43904819D02*
X22916666Y-44619104D01*
X22916666Y-44619104D02*
X22869047Y-44761961D01*
X22869047Y-44761961D02*
X22773809Y-44857200D01*
X22773809Y-44857200D02*
X22630952Y-44904819D01*
X22630952Y-44904819D02*
X22535714Y-44904819D01*
X23821428Y-44238152D02*
X23821428Y-44904819D01*
X23583333Y-43857200D02*
X23345238Y-44571485D01*
X23345238Y-44571485D02*
X23964285Y-44571485D01*
X12916666Y-43904819D02*
X12916666Y-44619104D01*
X12916666Y-44619104D02*
X12869047Y-44761961D01*
X12869047Y-44761961D02*
X12773809Y-44857200D01*
X12773809Y-44857200D02*
X12630952Y-44904819D01*
X12630952Y-44904819D02*
X12535714Y-44904819D01*
X13297619Y-43904819D02*
X13916666Y-43904819D01*
X13916666Y-43904819D02*
X13583333Y-44285771D01*
X13583333Y-44285771D02*
X13726190Y-44285771D01*
X13726190Y-44285771D02*
X13821428Y-44333390D01*
X13821428Y-44333390D02*
X13869047Y-44381009D01*
X13869047Y-44381009D02*
X13916666Y-44476247D01*
X13916666Y-44476247D02*
X13916666Y-44714342D01*
X13916666Y-44714342D02*
X13869047Y-44809580D01*
X13869047Y-44809580D02*
X13821428Y-44857200D01*
X13821428Y-44857200D02*
X13726190Y-44904819D01*
X13726190Y-44904819D02*
X13440476Y-44904819D01*
X13440476Y-44904819D02*
X13345238Y-44857200D01*
X13345238Y-44857200D02*
X13297619Y-44809580D01*
X46864761Y-21794819D02*
X46531428Y-21318628D01*
X46293333Y-21794819D02*
X46293333Y-20794819D01*
X46293333Y-20794819D02*
X46674285Y-20794819D01*
X46674285Y-20794819D02*
X46769523Y-20842438D01*
X46769523Y-20842438D02*
X46817142Y-20890057D01*
X46817142Y-20890057D02*
X46864761Y-20985295D01*
X46864761Y-20985295D02*
X46864761Y-21128152D01*
X46864761Y-21128152D02*
X46817142Y-21223390D01*
X46817142Y-21223390D02*
X46769523Y-21271009D01*
X46769523Y-21271009D02*
X46674285Y-21318628D01*
X46674285Y-21318628D02*
X46293333Y-21318628D01*
X47150476Y-20794819D02*
X47483809Y-21794819D01*
X47483809Y-21794819D02*
X47817142Y-20794819D01*
X48674285Y-21794819D02*
X48102857Y-21794819D01*
X48388571Y-21794819D02*
X48388571Y-20794819D01*
X48388571Y-20794819D02*
X48293333Y-20937676D01*
X48293333Y-20937676D02*
X48198095Y-21032914D01*
X48198095Y-21032914D02*
X48102857Y-21080533D01*
X4184819Y-16333333D02*
X4899104Y-16333333D01*
X4899104Y-16333333D02*
X5041961Y-16380952D01*
X5041961Y-16380952D02*
X5137200Y-16476190D01*
X5137200Y-16476190D02*
X5184819Y-16619047D01*
X5184819Y-16619047D02*
X5184819Y-16714285D01*
X4280057Y-15904761D02*
X4232438Y-15857142D01*
X4232438Y-15857142D02*
X4184819Y-15761904D01*
X4184819Y-15761904D02*
X4184819Y-15523809D01*
X4184819Y-15523809D02*
X4232438Y-15428571D01*
X4232438Y-15428571D02*
X4280057Y-15380952D01*
X4280057Y-15380952D02*
X4375295Y-15333333D01*
X4375295Y-15333333D02*
X4470533Y-15333333D01*
X4470533Y-15333333D02*
X4613390Y-15380952D01*
X4613390Y-15380952D02*
X5184819Y-15952380D01*
X5184819Y-15952380D02*
X5184819Y-15333333D01*
X60738095Y-49304819D02*
X60738095Y-48304819D01*
X60738095Y-48781009D02*
X61309523Y-48781009D01*
X61309523Y-49304819D02*
X61309523Y-48304819D01*
X62214285Y-48638152D02*
X62214285Y-49304819D01*
X61976190Y-48257200D02*
X61738095Y-48971485D01*
X61738095Y-48971485D02*
X62357142Y-48971485D01*
X60738095Y-304819D02*
X60738095Y695180D01*
X60738095Y218990D02*
X61309523Y218990D01*
X61309523Y-304819D02*
X61309523Y695180D01*
X61738095Y599942D02*
X61785714Y647561D01*
X61785714Y647561D02*
X61880952Y695180D01*
X61880952Y695180D02*
X62119047Y695180D01*
X62119047Y695180D02*
X62214285Y647561D01*
X62214285Y647561D02*
X62261904Y599942D01*
X62261904Y599942D02*
X62309523Y504704D01*
X62309523Y504704D02*
X62309523Y409466D01*
X62309523Y409466D02*
X62261904Y266609D01*
X62261904Y266609D02*
X61690476Y-304819D01*
X61690476Y-304819D02*
X62309523Y-304819D01*
X3794819Y-5103333D02*
X4509104Y-5103333D01*
X4509104Y-5103333D02*
X4651961Y-5150952D01*
X4651961Y-5150952D02*
X4747200Y-5246190D01*
X4747200Y-5246190D02*
X4794819Y-5389047D01*
X4794819Y-5389047D02*
X4794819Y-5484285D01*
X4794819Y-4103333D02*
X4794819Y-4674761D01*
X4794819Y-4389047D02*
X3794819Y-4389047D01*
X3794819Y-4389047D02*
X3937676Y-4484285D01*
X3937676Y-4484285D02*
X4032914Y-4579523D01*
X4032914Y-4579523D02*
X4080533Y-4674761D01*
X2738095Y-304819D02*
X2738095Y695180D01*
X2738095Y218990D02*
X3309523Y218990D01*
X3309523Y-304819D02*
X3309523Y695180D01*
X4309523Y-304819D02*
X3738095Y-304819D01*
X4023809Y-304819D02*
X4023809Y695180D01*
X4023809Y695180D02*
X3928571Y552323D01*
X3928571Y552323D02*
X3833333Y457085D01*
X3833333Y457085D02*
X3738095Y409466D01*
X55643333Y-33084819D02*
X55310000Y-32608628D01*
X55071905Y-33084819D02*
X55071905Y-32084819D01*
X55071905Y-32084819D02*
X55452857Y-32084819D01*
X55452857Y-32084819D02*
X55548095Y-32132438D01*
X55548095Y-32132438D02*
X55595714Y-32180057D01*
X55595714Y-32180057D02*
X55643333Y-32275295D01*
X55643333Y-32275295D02*
X55643333Y-32418152D01*
X55643333Y-32418152D02*
X55595714Y-32513390D01*
X55595714Y-32513390D02*
X55548095Y-32561009D01*
X55548095Y-32561009D02*
X55452857Y-32608628D01*
X55452857Y-32608628D02*
X55071905Y-32608628D01*
X56595714Y-33084819D02*
X56024286Y-33084819D01*
X56310000Y-33084819D02*
X56310000Y-32084819D01*
X56310000Y-32084819D02*
X56214762Y-32227676D01*
X56214762Y-32227676D02*
X56119524Y-32322914D01*
X56119524Y-32322914D02*
X56024286Y-32370533D01*
X2738095Y-49304819D02*
X2738095Y-48304819D01*
X2738095Y-48781009D02*
X3309523Y-48781009D01*
X3309523Y-49304819D02*
X3309523Y-48304819D01*
X3690476Y-48304819D02*
X4309523Y-48304819D01*
X4309523Y-48304819D02*
X3976190Y-48685771D01*
X3976190Y-48685771D02*
X4119047Y-48685771D01*
X4119047Y-48685771D02*
X4214285Y-48733390D01*
X4214285Y-48733390D02*
X4261904Y-48781009D01*
X4261904Y-48781009D02*
X4309523Y-48876247D01*
X4309523Y-48876247D02*
X4309523Y-49114342D01*
X4309523Y-49114342D02*
X4261904Y-49209580D01*
X4261904Y-49209580D02*
X4214285Y-49257200D01*
X4214285Y-49257200D02*
X4119047Y-49304819D01*
X4119047Y-49304819D02*
X3833333Y-49304819D01*
X3833333Y-49304819D02*
X3738095Y-49257200D01*
X3738095Y-49257200D02*
X3690476Y-49209580D01*
D11*
%TO.C,C1*%
X9630000Y-28880000D02*
X9630000Y-29028000D01*
X9630000Y-28880000D02*
X12870000Y-28880000D01*
X9630000Y-30972000D02*
X9630000Y-31120000D01*
X9630000Y-31120000D02*
X12870000Y-31120000D01*
X12870000Y-28880000D02*
X12870000Y-29028000D01*
X12870000Y-30972000D02*
X12870000Y-31120000D01*
%TO.C,J4*%
X19150000Y-45250000D02*
X19150000Y-46500000D01*
X19440000Y-45540000D02*
X19440000Y-51510000D01*
X19440000Y-51510000D02*
X27060000Y-51510000D01*
X19450000Y-45550000D02*
X19450000Y-46300000D01*
X19450000Y-46300000D02*
X21250000Y-46300000D01*
X19450000Y-47800000D02*
X20200000Y-47800000D01*
X20200000Y-47800000D02*
X20200000Y-50750000D01*
X20200000Y-50750000D02*
X23250000Y-50750000D01*
X20400000Y-45250000D02*
X19150000Y-45250000D01*
X21250000Y-45550000D02*
X19450000Y-45550000D01*
X21250000Y-46300000D02*
X21250000Y-45550000D01*
X22750000Y-45550000D02*
X22750000Y-46300000D01*
X22750000Y-46300000D02*
X23750000Y-46300000D01*
X23750000Y-45550000D02*
X22750000Y-45550000D01*
X23750000Y-46300000D02*
X23750000Y-45550000D01*
X25250000Y-45550000D02*
X25250000Y-46300000D01*
X25250000Y-46300000D02*
X27050000Y-46300000D01*
X26300000Y-47800000D02*
X26300000Y-50750000D01*
X26300000Y-50750000D02*
X23250000Y-50750000D01*
X27050000Y-45550000D02*
X25250000Y-45550000D01*
X27050000Y-46300000D02*
X27050000Y-45550000D01*
X27050000Y-47800000D02*
X26300000Y-47800000D01*
X27060000Y-45540000D02*
X19440000Y-45540000D01*
X27060000Y-51510000D02*
X27060000Y-45540000D01*
%TO.C,J3*%
X9150000Y-45250000D02*
X9150000Y-46500000D01*
X9440000Y-45540000D02*
X9440000Y-51510000D01*
X9440000Y-51510000D02*
X17060000Y-51510000D01*
X9450000Y-45550000D02*
X9450000Y-46300000D01*
X9450000Y-46300000D02*
X11250000Y-46300000D01*
X9450000Y-47800000D02*
X10200000Y-47800000D01*
X10200000Y-47800000D02*
X10200000Y-50750000D01*
X10200000Y-50750000D02*
X13250000Y-50750000D01*
X10400000Y-45250000D02*
X9150000Y-45250000D01*
X11250000Y-45550000D02*
X9450000Y-45550000D01*
X11250000Y-46300000D02*
X11250000Y-45550000D01*
X12750000Y-45550000D02*
X12750000Y-46300000D01*
X12750000Y-46300000D02*
X13750000Y-46300000D01*
X13750000Y-45550000D02*
X12750000Y-45550000D01*
X13750000Y-46300000D02*
X13750000Y-45550000D01*
X15250000Y-45550000D02*
X15250000Y-46300000D01*
X15250000Y-46300000D02*
X17050000Y-46300000D01*
X16300000Y-47800000D02*
X16300000Y-50750000D01*
X16300000Y-50750000D02*
X13250000Y-50750000D01*
X17050000Y-45550000D02*
X15250000Y-45550000D01*
X17050000Y-46300000D02*
X17050000Y-45550000D01*
X17050000Y-47800000D02*
X16300000Y-47800000D01*
X17060000Y-45540000D02*
X9440000Y-45540000D01*
X17060000Y-51510000D02*
X17060000Y-45540000D01*
%TO.C,RV1*%
X42585000Y-22480000D02*
X42585000Y-27530000D01*
X42585000Y-22480000D02*
X52335000Y-22480000D01*
X42585000Y-27530000D02*
X52335000Y-27530000D01*
X52335000Y-22480000D02*
X52335000Y-27530000D01*
%TO.C,J2*%
X5730000Y-17380000D02*
X5730000Y-16000000D01*
X7110000Y-17380000D02*
X5730000Y-17380000D01*
X8380000Y-14620000D02*
X56750000Y-14620000D01*
X8380000Y-17380000D02*
X8380000Y-14620000D01*
X8380000Y-17380000D02*
X56750000Y-17380000D01*
X56750000Y-17380000D02*
X56750000Y-14620000D01*
%TO.C,J1*%
X5780000Y-2170000D02*
X7110000Y-2170000D01*
X5780000Y-3500000D02*
X5780000Y-2170000D01*
X5780000Y-4770000D02*
X8380000Y-4770000D01*
X5780000Y-7370000D02*
X5780000Y-4770000D01*
X5780000Y-7370000D02*
X56700000Y-7370000D01*
X8380000Y-2170000D02*
X56700000Y-2170000D01*
X8380000Y-4770000D02*
X8380000Y-2170000D01*
X56700000Y-7370000D02*
X56700000Y-2170000D01*
%TO.C,R1*%
X52540000Y-33630000D02*
X59080000Y-33630000D01*
X52540000Y-33960000D02*
X52540000Y-33630000D01*
X52540000Y-36040000D02*
X52540000Y-36370000D01*
X52540000Y-36370000D02*
X59080000Y-36370000D01*
X59080000Y-33630000D02*
X59080000Y-33960000D01*
X59080000Y-36370000D02*
X59080000Y-36040000D01*
%TD*%
M02*
