%TF.GenerationSoftware,KiCad,Pcbnew,9.0.2+dfsg-1*%
%TF.CreationDate,2026-04-18T04:41:00-07:00*%
%TF.ProjectId,gx01-adapter,67783031-2d61-4646-9170-7465722e6b69,rev?*%
%TF.SameCoordinates,Original*%
%TF.FileFunction,Copper,L1,Top*%
%TF.FilePolarity,Positive*%
%FSLAX46Y46*%
G04 Gerber Fmt 4.6, Leading zero omitted, Abs format (unit mm)*
G04 Created by KiCad (PCBNEW 9.0.2+dfsg-1) date 2026-04-18 04:41:00*
%MOMM*%
%LPD*%
G01*
G04 APERTURE LIST*
G04 Aperture macros list*
%AMRoundRect*
0 Rectangle with rounded corners*
0 $1 Rounding radius*
0 $2 $3 $4 $5 $6 $7 $8 $9 X,Y pos of 4 corners*
0 Add a 4 corners polygon primitive as box body*
4,1,4,$2,$3,$4,$5,$6,$7,$8,$9,$2,$3,0*
0 Add four circle primitives for the rounded corners*
1,1,$1+$1,$2,$3*
1,1,$1+$1,$4,$5*
1,1,$1+$1,$6,$7*
1,1,$1+$1,$8,$9*
0 Add four rect primitives between the rounded corners*
20,1,$1+$1,$2,$3,$4,$5,0*
20,1,$1+$1,$4,$5,$6,$7,0*
20,1,$1+$1,$6,$7,$8,$9,0*
20,1,$1+$1,$8,$9,$2,$3,0*%
G04 Aperture macros list end*
%TA.AperFunction,ComponentPad*%
%ADD10C,1.600000*%
%TD*%
%TA.AperFunction,ComponentPad*%
%ADD11RoundRect,0.250000X-0.600000X-0.750000X0.600000X-0.750000X0.600000X0.750000X-0.600000X0.750000X0*%
%TD*%
%TA.AperFunction,ComponentPad*%
%ADD12O,1.700000X2.000000*%
%TD*%
%TA.AperFunction,ComponentPad*%
%ADD13C,1.440000*%
%TD*%
%TA.AperFunction,ComponentPad*%
%ADD14R,1.700000X1.700000*%
%TD*%
%TA.AperFunction,ComponentPad*%
%ADD15C,1.700000*%
%TD*%
%TA.AperFunction,ViaPad*%
%ADD16C,0.800000*%
%TD*%
%TA.AperFunction,Conductor*%
%ADD17C,0.500000*%
%TD*%
%TA.AperFunction,Conductor*%
%ADD18C,0.300000*%
%TD*%
%TA.AperFunction,Conductor*%
%ADD19C,0.200000*%
%TD*%
G04 APERTURE END LIST*
D10*
%TO.P,C1,1*%
%TO.N,+5V*%
X10000000Y-30000000D03*
%TO.P,C1,2*%
%TO.N,GND*%
X12500000Y-30000000D03*
%TD*%
D11*
%TO.P,J4,1*%
%TO.N,+5V*%
X22000000Y-48000000D03*
D12*
%TO.P,J4,2*%
%TO.N,GND*%
X24500000Y-48000000D03*
%TD*%
D11*
%TO.P,J3,1*%
%TO.N,+5V*%
X12000000Y-48000000D03*
D12*
%TO.P,J3,2*%
%TO.N,GND*%
X14500000Y-48000000D03*
%TD*%
D13*
%TO.P,RV1,1*%
%TO.N,+5V*%
X50000000Y-25000000D03*
%TO.P,RV1,2*%
%TO.N,V0*%
X47460000Y-25000000D03*
%TO.P,RV1,3*%
%TO.N,VEE*%
X44920000Y-25000000D03*
%TD*%
D14*
%TO.P,J2,1*%
%TO.N,GND*%
X7110000Y-16000000D03*
D15*
%TO.P,J2,2*%
%TO.N,+5V*%
X9650000Y-16000000D03*
%TO.P,J2,3*%
%TO.N,V0*%
X12190000Y-16000000D03*
%TO.P,J2,4*%
%TO.N,LCD_RS*%
X14730000Y-16000000D03*
%TO.P,J2,5*%
%TO.N,LCD_RW*%
X17270000Y-16000000D03*
%TO.P,J2,6*%
%TO.N,LCD_E*%
X19810000Y-16000000D03*
%TO.P,J2,7*%
%TO.N,LCD_DB0*%
X22350000Y-16000000D03*
%TO.P,J2,8*%
%TO.N,LCD_DB1*%
X24890000Y-16000000D03*
%TO.P,J2,9*%
%TO.N,LCD_DB2*%
X27430000Y-16000000D03*
%TO.P,J2,10*%
%TO.N,LCD_DB3*%
X29970000Y-16000000D03*
%TO.P,J2,11*%
%TO.N,LCD_DB4*%
X32510000Y-16000000D03*
%TO.P,J2,12*%
%TO.N,LCD_DB5*%
X35050000Y-16000000D03*
%TO.P,J2,13*%
%TO.N,LCD_DB6*%
X37590000Y-16000000D03*
%TO.P,J2,14*%
%TO.N,LCD_DB7*%
X40130000Y-16000000D03*
%TO.P,J2,15*%
%TO.N,LCD_CS1*%
X42670000Y-16000000D03*
%TO.P,J2,16*%
%TO.N,LCD_CS2*%
X45210000Y-16000000D03*
%TO.P,J2,17*%
%TO.N,LCD_RST*%
X47750000Y-16000000D03*
%TO.P,J2,18*%
%TO.N,VEE*%
X50290000Y-16000000D03*
%TO.P,J2,19*%
%TO.N,BLA*%
X52830000Y-16000000D03*
%TO.P,J2,20*%
%TO.N,GND*%
X55370000Y-16000000D03*
%TD*%
D14*
%TO.P,J1,1*%
%TO.N,N/C*%
X7110000Y-3500000D03*
D15*
%TO.P,J1,2*%
%TO.N,+5V*%
X7110000Y-6040000D03*
%TO.P,J1,3*%
%TO.N,N/C*%
X9650000Y-3500000D03*
%TO.P,J1,4*%
%TO.N,+5V*%
X9650000Y-6040000D03*
%TO.P,J1,5*%
%TO.N,N/C*%
X12190000Y-3500000D03*
%TO.P,J1,6*%
%TO.N,GND*%
X12190000Y-6040000D03*
%TO.P,J1,7*%
%TO.N,N/C*%
X14730000Y-3500000D03*
%TO.P,J1,8*%
X14730000Y-6040000D03*
%TO.P,J1,9*%
%TO.N,GND*%
X17270000Y-3500000D03*
%TO.P,J1,10*%
%TO.N,N/C*%
X17270000Y-6040000D03*
%TO.P,J1,11*%
%TO.N,LCD_RS*%
X19810000Y-3500000D03*
%TO.P,J1,12*%
%TO.N,N/C*%
X19810000Y-6040000D03*
%TO.P,J1,13*%
%TO.N,LCD_RW*%
X22350000Y-3500000D03*
%TO.P,J1,14*%
%TO.N,GND*%
X22350000Y-6040000D03*
%TO.P,J1,15*%
%TO.N,LCD_E*%
X24890000Y-3500000D03*
%TO.P,J1,16*%
%TO.N,N/C*%
X24890000Y-6040000D03*
%TO.P,J1,17*%
X27430000Y-3500000D03*
%TO.P,J1,18*%
%TO.N,LCD_DB0*%
X27430000Y-6040000D03*
%TO.P,J1,19*%
%TO.N,LCD_DB1*%
X29970000Y-3500000D03*
%TO.P,J1,20*%
%TO.N,GND*%
X29970000Y-6040000D03*
%TO.P,J1,21*%
%TO.N,N/C*%
X32510000Y-3500000D03*
%TO.P,J1,22*%
%TO.N,LCD_DB2*%
X32510000Y-6040000D03*
%TO.P,J1,23*%
%TO.N,LCD_DB3*%
X35050000Y-3500000D03*
%TO.P,J1,24*%
%TO.N,N/C*%
X35050000Y-6040000D03*
%TO.P,J1,25*%
%TO.N,GND*%
X37590000Y-3500000D03*
%TO.P,J1,26*%
%TO.N,LCD_DB4*%
X37590000Y-6040000D03*
%TO.P,J1,27*%
%TO.N,N/C*%
X40130000Y-3500000D03*
%TO.P,J1,28*%
X40130000Y-6040000D03*
%TO.P,J1,29*%
%TO.N,LCD_DB6*%
X42670000Y-3500000D03*
%TO.P,J1,30*%
%TO.N,GND*%
X42670000Y-6040000D03*
%TO.P,J1,31*%
%TO.N,LCD_DB7*%
X45210000Y-3500000D03*
%TO.P,J1,32*%
%TO.N,N/C*%
X45210000Y-6040000D03*
%TO.P,J1,33*%
%TO.N,LCD_CS1*%
X47750000Y-3500000D03*
%TO.P,J1,34*%
%TO.N,GND*%
X47750000Y-6040000D03*
%TO.P,J1,35*%
%TO.N,LCD_CS2*%
X50290000Y-3500000D03*
%TO.P,J1,36*%
%TO.N,N/C*%
X50290000Y-6040000D03*
%TO.P,J1,37*%
%TO.N,LCD_RST*%
X52830000Y-3500000D03*
%TO.P,J1,38*%
%TO.N,N/C*%
X52830000Y-6040000D03*
%TO.P,J1,39*%
%TO.N,GND*%
X55370000Y-3500000D03*
%TO.P,J1,40*%
%TO.N,LCD_DB5*%
X55370000Y-6040000D03*
%TD*%
D10*
%TO.P,R1,1*%
%TO.N,+5V*%
X52000000Y-35000000D03*
%TO.P,R1,2*%
%TO.N,BLA*%
X59620000Y-35000000D03*
%TD*%
D16*
%TO.N,+5V*%
X52000000Y-45000000D03*
X27000000Y-45000000D03*
%TD*%
D17*
%TO.N,+5V*%
X9650000Y-16000000D02*
X10000000Y-30000000D01*
X10000000Y-45000000D02*
X12000000Y-45000000D01*
X52000000Y-45000000D02*
X52000000Y-35000000D01*
X12000000Y-45000000D02*
X12000000Y-48000000D01*
X12000000Y-45000000D02*
X22000000Y-45000000D01*
X10000000Y-30000000D02*
X10000000Y-45000000D01*
X22000000Y-45000000D02*
X27000000Y-45000000D01*
X7110000Y-6040000D02*
X9650000Y-6040000D01*
X52000000Y-35000000D02*
X50000000Y-25000000D01*
X22000000Y-45000000D02*
X22000000Y-48000000D01*
X9650000Y-6040000D02*
X9650000Y-16000000D01*
D18*
%TO.N,VEE*%
X50290000Y-16000000D02*
X44920000Y-25000000D01*
%TO.N,BLA*%
X52830000Y-16000000D02*
X59620000Y-35000000D01*
D19*
%TO.N,LCD_RS*%
X14730000Y-16000000D02*
X18540000Y-12190000D01*
X18540000Y-12190000D02*
X18540000Y-4770000D01*
X18540000Y-4770000D02*
X19810000Y-3500000D01*
%TO.N,LCD_RW*%
X21080000Y-4770000D02*
X22350000Y-3500000D01*
X17270000Y-16000000D02*
X21080000Y-12190000D01*
X21080000Y-12190000D02*
X21080000Y-4770000D01*
%TO.N,LCD_E*%
X23620000Y-12190000D02*
X23620000Y-4770000D01*
X19810000Y-16000000D02*
X23620000Y-12190000D01*
X23620000Y-4770000D02*
X24890000Y-3500000D01*
%TO.N,LCD_CS1*%
X46480000Y-4770000D02*
X46480000Y-12190000D01*
X47750000Y-3500000D02*
X46480000Y-4770000D01*
X46480000Y-12190000D02*
X42670000Y-16000000D01*
%TO.N,LCD_CS2*%
X45210000Y-16000000D02*
X49020000Y-12190000D01*
X49020000Y-4770000D02*
X50290000Y-3500000D01*
X49020000Y-12190000D02*
X49020000Y-4770000D01*
%TO.N,LCD_RST*%
X52830000Y-3500000D02*
X51560000Y-4770000D01*
X51560000Y-12190000D02*
X47750000Y-16000000D01*
X51560000Y-4770000D02*
X51560000Y-12190000D01*
%TO.N,LCD_DB0*%
X27430000Y-6040000D02*
X27430000Y-10920000D01*
X27430000Y-10920000D02*
X22350000Y-16000000D01*
%TO.N,LCD_DB1*%
X28700000Y-4770000D02*
X28700000Y-12190000D01*
X29970000Y-3500000D02*
X28700000Y-4770000D01*
X28700000Y-12190000D02*
X24890000Y-16000000D01*
%TO.N,LCD_DB2*%
X32510000Y-6040000D02*
X32510000Y-10920000D01*
X32510000Y-10920000D02*
X27430000Y-16000000D01*
%TO.N,LCD_DB3*%
X33780000Y-4770000D02*
X35050000Y-3500000D01*
X29970000Y-16000000D02*
X33780000Y-12190000D01*
X33780000Y-12190000D02*
X33780000Y-4770000D01*
%TO.N,LCD_DB4*%
X37590000Y-10920000D02*
X37590000Y-6040000D01*
X32510000Y-16000000D02*
X37590000Y-10920000D01*
%TO.N,LCD_DB6*%
X37590000Y-16000000D02*
X41400000Y-12190000D01*
X41400000Y-4770000D02*
X42670000Y-3500000D01*
X41400000Y-12190000D02*
X41400000Y-4770000D01*
%TO.N,LCD_DB7*%
X43940000Y-4770000D02*
X45210000Y-3500000D01*
X43940000Y-12190000D02*
X43940000Y-4770000D01*
X40130000Y-16000000D02*
X43940000Y-12190000D01*
%TD*%
M02*
