%TF.GenerationSoftware,KiCad,Pcbnew,9.0.2+dfsg-1*%
%TF.CreationDate,2026-04-18T04:41:00-07:00*%
%TF.ProjectId,gx01-adapter,67783031-2d61-4646-9170-7465722e6b69,rev?*%
%TF.SameCoordinates,Original*%
%TF.FileFunction,Copper,L2,Bot*%
%TF.FilePolarity,Positive*%
%FSLAX46Y46*%
G04 Gerber Fmt 4.6, Leading zero omitted, Abs format (unit mm)*
G04 Created by KiCad (PCBNEW 9.0.2+dfsg-1) date 2026-04-18 04:41:00*
%MOMM*%
%LPD*%
G01*
G04 APERTURE LIST*
G04 Aperture macros list*
%AMRoundRect*
0 Rectangle with rounded corners*
0 $1 Rounding radius*
0 $2 $3 $4 $5 $6 $7 $8 $9 X,Y pos of 4 corners*
0 Add a 4 corners polygon primitive as box body*
4,1,4,$2,$3,$4,$5,$6,$7,$8,$9,$2,$3,0*
0 Add four circle primitives for the rounded corners*
1,1,$1+$1,$2,$3*
1,1,$1+$1,$4,$5*
1,1,$1+$1,$6,$7*
1,1,$1+$1,$8,$9*
0 Add four rect primitives between the rounded corners*
20,1,$1+$1,$2,$3,$4,$5,0*
20,1,$1+$1,$4,$5,$6,$7,0*
20,1,$1+$1,$6,$7,$8,$9,0*
20,1,$1+$1,$8,$9,$2,$3,0*%
G04 Aperture macros list end*
%TA.AperFunction,ComponentPad*%
%ADD10C,1.600000*%
%TD*%
%TA.AperFunction,ComponentPad*%
%ADD11RoundRect,0.250000X-0.600000X-0.750000X0.600000X-0.750000X0.600000X0.750000X-0.600000X0.750000X0*%
%TD*%
%TA.AperFunction,ComponentPad*%
%ADD12O,1.700000X2.000000*%
%TD*%
%TA.AperFunction,ComponentPad*%
%ADD13C,1.440000*%
%TD*%
%TA.AperFunction,ComponentPad*%
%ADD14R,1.700000X1.700000*%
%TD*%
%TA.AperFunction,ComponentPad*%
%ADD15C,1.700000*%
%TD*%
%TA.AperFunction,ViaPad*%
%ADD16C,0.800000*%
%TD*%
%TA.AperFunction,Conductor*%
%ADD17C,0.500000*%
%TD*%
%TA.AperFunction,Conductor*%
%ADD18C,0.200000*%
%TD*%
G04 APERTURE END LIST*
D10*
%TO.P,C1,1*%
%TO.N,+5V*%
X10000000Y-30000000D03*
%TO.P,C1,2*%
%TO.N,GND*%
X12500000Y-30000000D03*
%TD*%
D11*
%TO.P,J4,1*%
%TO.N,+5V*%
X22000000Y-48000000D03*
D12*
%TO.P,J4,2*%
%TO.N,GND*%
X24500000Y-48000000D03*
%TD*%
D11*
%TO.P,J3,1*%
%TO.N,+5V*%
X12000000Y-48000000D03*
D12*
%TO.P,J3,2*%
%TO.N,GND*%
X14500000Y-48000000D03*
%TD*%
D13*
%TO.P,RV1,1*%
%TO.N,+5V*%
X50000000Y-25000000D03*
%TO.P,RV1,2*%
%TO.N,V0*%
X47460000Y-25000000D03*
%TO.P,RV1,3*%
%TO.N,VEE*%
X44920000Y-25000000D03*
%TD*%
D14*
%TO.P,J2,1*%
%TO.N,GND*%
X7110000Y-16000000D03*
D15*
%TO.P,J2,2*%
%TO.N,+5V*%
X9650000Y-16000000D03*
%TO.P,J2,3*%
%TO.N,V0*%
X12190000Y-16000000D03*
%TO.P,J2,4*%
%TO.N,LCD_RS*%
X14730000Y-16000000D03*
%TO.P,J2,5*%
%TO.N,LCD_RW*%
X17270000Y-16000000D03*
%TO.P,J2,6*%
%TO.N,LCD_E*%
X19810000Y-16000000D03*
%TO.P,J2,7*%
%TO.N,LCD_DB0*%
X22350000Y-16000000D03*
%TO.P,J2,8*%
%TO.N,LCD_DB1*%
X24890000Y-16000000D03*
%TO.P,J2,9*%
%TO.N,LCD_DB2*%
X27430000Y-16000000D03*
%TO.P,J2,10*%
%TO.N,LCD_DB3*%
X29970000Y-16000000D03*
%TO.P,J2,11*%
%TO.N,LCD_DB4*%
X32510000Y-16000000D03*
%TO.P,J2,12*%
%TO.N,LCD_DB5*%
X35050000Y-16000000D03*
%TO.P,J2,13*%
%TO.N,LCD_DB6*%
X37590000Y-16000000D03*
%TO.P,J2,14*%
%TO.N,LCD_DB7*%
X40130000Y-16000000D03*
%TO.P,J2,15*%
%TO.N,LCD_CS1*%
X42670000Y-16000000D03*
%TO.P,J2,16*%
%TO.N,LCD_CS2*%
X45210000Y-16000000D03*
%TO.P,J2,17*%
%TO.N,LCD_RST*%
X47750000Y-16000000D03*
%TO.P,J2,18*%
%TO.N,VEE*%
X50290000Y-16000000D03*
%TO.P,J2,19*%
%TO.N,BLA*%
X52830000Y-16000000D03*
%TO.P,J2,20*%
%TO.N,GND*%
X55370000Y-16000000D03*
%TD*%
D14*
%TO.P,J1,1*%
%TO.N,N/C*%
X7110000Y-3500000D03*
D15*
%TO.P,J1,2*%
%TO.N,+5V*%
X7110000Y-6040000D03*
%TO.P,J1,3*%
%TO.N,N/C*%
X9650000Y-3500000D03*
%TO.P,J1,4*%
%TO.N,+5V*%
X9650000Y-6040000D03*
%TO.P,J1,5*%
%TO.N,N/C*%
X12190000Y-3500000D03*
%TO.P,J1,6*%
%TO.N,GND*%
X12190000Y-6040000D03*
%TO.P,J1,7*%
%TO.N,N/C*%
X14730000Y-3500000D03*
%TO.P,J1,8*%
X14730000Y-6040000D03*
%TO.P,J1,9*%
%TO.N,GND*%
X17270000Y-3500000D03*
%TO.P,J1,10*%
%TO.N,N/C*%
X17270000Y-6040000D03*
%TO.P,J1,11*%
%TO.N,LCD_RS*%
X19810000Y-3500000D03*
%TO.P,J1,12*%
%TO.N,N/C*%
X19810000Y-6040000D03*
%TO.P,J1,13*%
%TO.N,LCD_RW*%
X22350000Y-3500000D03*
%TO.P,J1,14*%
%TO.N,GND*%
X22350000Y-6040000D03*
%TO.P,J1,15*%
%TO.N,LCD_E*%
X24890000Y-3500000D03*
%TO.P,J1,16*%
%TO.N,N/C*%
X24890000Y-6040000D03*
%TO.P,J1,17*%
X27430000Y-3500000D03*
%TO.P,J1,18*%
%TO.N,LCD_DB0*%
X27430000Y-6040000D03*
%TO.P,J1,19*%
%TO.N,LCD_DB1*%
X29970000Y-3500000D03*
%TO.P,J1,20*%
%TO.N,GND*%
X29970000Y-6040000D03*
%TO.P,J1,21*%
%TO.N,N/C*%
X32510000Y-3500000D03*
%TO.P,J1,22*%
%TO.N,LCD_DB2*%
X32510000Y-6040000D03*
%TO.P,J1,23*%
%TO.N,LCD_DB3*%
X35050000Y-3500000D03*
%TO.P,J1,24*%
%TO.N,N/C*%
X35050000Y-6040000D03*
%TO.P,J1,25*%
%TO.N,GND*%
X37590000Y-3500000D03*
%TO.P,J1,26*%
%TO.N,LCD_DB4*%
X37590000Y-6040000D03*
%TO.P,J1,27*%
%TO.N,N/C*%
X40130000Y-3500000D03*
%TO.P,J1,28*%
X40130000Y-6040000D03*
%TO.P,J1,29*%
%TO.N,LCD_DB6*%
X42670000Y-3500000D03*
%TO.P,J1,30*%
%TO.N,GND*%
X42670000Y-6040000D03*
%TO.P,J1,31*%
%TO.N,LCD_DB7*%
X45210000Y-3500000D03*
%TO.P,J1,32*%
%TO.N,N/C*%
X45210000Y-6040000D03*
%TO.P,J1,33*%
%TO.N,LCD_CS1*%
X47750000Y-3500000D03*
%TO.P,J1,34*%
%TO.N,GND*%
X47750000Y-6040000D03*
%TO.P,J1,35*%
%TO.N,LCD_CS2*%
X50290000Y-3500000D03*
%TO.P,J1,36*%
%TO.N,N/C*%
X50290000Y-6040000D03*
%TO.P,J1,37*%
%TO.N,LCD_RST*%
X52830000Y-3500000D03*
%TO.P,J1,38*%
%TO.N,N/C*%
X52830000Y-6040000D03*
%TO.P,J1,39*%
%TO.N,GND*%
X55370000Y-3500000D03*
%TO.P,J1,40*%
%TO.N,LCD_DB5*%
X55370000Y-6040000D03*
%TD*%
D10*
%TO.P,R1,1*%
%TO.N,+5V*%
X52000000Y-35000000D03*
%TO.P,R1,2*%
%TO.N,BLA*%
X59620000Y-35000000D03*
%TD*%
D16*
%TO.N,+5V*%
X52000000Y-45000000D03*
X27000000Y-45000000D03*
%TD*%
D17*
%TO.N,+5V*%
X27000000Y-45000000D02*
X52000000Y-45000000D01*
D18*
%TO.N,V0*%
X44716700Y-22256700D02*
X47460000Y-25000000D01*
X18446700Y-22256700D02*
X44716700Y-22256700D01*
X12190000Y-16000000D02*
X18446700Y-22256700D01*
%TO.N,LCD_DB5*%
X55370000Y-6040000D02*
X49000200Y-12409800D01*
X49000200Y-12409800D02*
X38640200Y-12409800D01*
X38640200Y-12409800D02*
X35050000Y-16000000D01*
%TD*%
%TA.AperFunction,Conductor*%
%TO.N,GND*%
G36*
X64442539Y-520185D02*
G01*
X64488294Y-572989D01*
X64499500Y-624500D01*
X64499500Y-55875500D01*
X64479815Y-55942539D01*
X64427011Y-55988294D01*
X64375500Y-55999500D01*
X624500Y-55999500D01*
X557461Y-55979815D01*
X511706Y-55927011D01*
X500500Y-55875500D01*
X500500Y-52499998D01*
X1000000Y-52499998D01*
X1000000Y-52500001D01*
X1085184Y-53147045D01*
X1085185Y-53147047D01*
X1334936Y-53750000D01*
X1732233Y-54267766D01*
X2250000Y-54665063D01*
X2852952Y-54914814D01*
X3176476Y-54957407D01*
X3499999Y-55000000D01*
X3500000Y-55000000D01*
X3500001Y-55000000D01*
X3715682Y-54971604D01*
X4147047Y-54914814D01*
X4750000Y-54665063D01*
X5267766Y-54267766D01*
X5665063Y-53750000D01*
X5914814Y-53147047D01*
X6000000Y-52500000D01*
X6000000Y-52499998D01*
X59000000Y-52499998D01*
X59000000Y-52500001D01*
X59085184Y-53147045D01*
X59085185Y-53147047D01*
X59334936Y-53750000D01*
X59732233Y-54267766D01*
X60250000Y-54665063D01*
X60852952Y-54914814D01*
X61176476Y-54957407D01*
X61499999Y-55000000D01*
X61500000Y-55000000D01*
X61500001Y-55000000D01*
X61715682Y-54971604D01*
X62147047Y-54914814D01*
X62750000Y-54665063D01*
X63267766Y-54267766D01*
X63665063Y-53750000D01*
X63914814Y-53147047D01*
X64000000Y-52500000D01*
X63914814Y-51852952D01*
X63665063Y-51250000D01*
X63267766Y-50732233D01*
X62750000Y-50334936D01*
X62749995Y-50334934D01*
X62147047Y-50085185D01*
X62147045Y-50085184D01*
X61500001Y-50000000D01*
X61499999Y-50000000D01*
X60852953Y-50085184D01*
X60852951Y-50085185D01*
X60250002Y-50334934D01*
X59732233Y-50732233D01*
X59334934Y-51250002D01*
X59085185Y-51852951D01*
X59085184Y-51852953D01*
X59000000Y-52499998D01*
X6000000Y-52499998D01*
X5914814Y-51852952D01*
X5665063Y-51250000D01*
X5267766Y-50732233D01*
X4750000Y-50334936D01*
X4749995Y-50334934D01*
X4147047Y-50085185D01*
X4147045Y-50085184D01*
X3500000Y-50000000D01*
X3499998Y-50000000D01*
X2852953Y-50085184D01*
X2852951Y-50085185D01*
X2250000Y-50334935D01*
X1732233Y-50732233D01*
X1334934Y-51250002D01*
X1085185Y-51852951D01*
X1085184Y-51852953D01*
X1000000Y-52499998D01*
X500500Y-52499998D01*
X500500Y-47202135D01*
X10899500Y-47202135D01*
X10899500Y-48797870D01*
X10899501Y-48797876D01*
X10905908Y-48857483D01*
X10956202Y-48992328D01*
X10956206Y-48992335D01*
X11042452Y-49107544D01*
X11042455Y-49107547D01*
X11157664Y-49193793D01*
X11157671Y-49193797D01*
X11292517Y-49244091D01*
X11292516Y-49244091D01*
X11299444Y-49244835D01*
X11352127Y-49250500D01*
X12647872Y-49250499D01*
X12707483Y-49244091D01*
X12842331Y-49193796D01*
X12957546Y-49107546D01*
X13043796Y-48992331D01*
X13094091Y-48857483D01*
X13100500Y-48797873D01*
X13100499Y-48508966D01*
X13120183Y-48441930D01*
X13172987Y-48396175D01*
X13242146Y-48386231D01*
X13305701Y-48415256D01*
X13342430Y-48470651D01*
X13387914Y-48610637D01*
X13473670Y-48778940D01*
X13584685Y-48931741D01*
X13584689Y-48931746D01*
X13718253Y-49065310D01*
X13718258Y-49065314D01*
X13871059Y-49176329D01*
X14039362Y-49262085D01*
X14218995Y-49320451D01*
X14219000Y-49320452D01*
X14324999Y-49337240D01*
X14325000Y-49337240D01*
X14325000Y-48470746D01*
X14434174Y-48500000D01*
X14565826Y-48500000D01*
X14675000Y-48470746D01*
X14675000Y-49337240D01*
X14780999Y-49320452D01*
X14781004Y-49320451D01*
X14960637Y-49262085D01*
X15128940Y-49176329D01*
X15281741Y-49065314D01*
X15281746Y-49065310D01*
X15415310Y-48931746D01*
X15415314Y-48931741D01*
X15526329Y-48778940D01*
X15612085Y-48610637D01*
X15670451Y-48431002D01*
X15700000Y-48244447D01*
X15700000Y-48175000D01*
X14970746Y-48175000D01*
X15000000Y-48065826D01*
X15000000Y-47934174D01*
X14970746Y-47825000D01*
X15700000Y-47825000D01*
X15700000Y-47755552D01*
X15670451Y-47568997D01*
X15612085Y-47389362D01*
X15543675Y-47255101D01*
X15526329Y-47221058D01*
X15512581Y-47202135D01*
X20899500Y-47202135D01*
X20899500Y-48797870D01*
X20899501Y-48797876D01*
X20905908Y-48857483D01*
X20956202Y-48992328D01*
X20956206Y-48992335D01*
X21042452Y-49107544D01*
X21042455Y-49107547D01*
X21157664Y-49193793D01*
X21157671Y-49193797D01*
X21292517Y-49244091D01*
X21292516Y-49244091D01*
X21299444Y-49244835D01*
X21352127Y-49250500D01*
X22647872Y-49250499D01*
X22707483Y-49244091D01*
X22842331Y-49193796D01*
X22957546Y-49107546D01*
X23043796Y-48992331D01*
X23094091Y-48857483D01*
X23100500Y-48797873D01*
X23100499Y-48508966D01*
X23120183Y-48441930D01*
X23172987Y-48396175D01*
X23242146Y-48386231D01*
X23305701Y-48415256D01*
X23342430Y-48470651D01*
X23387914Y-48610637D01*
X23473670Y-48778940D01*
X23584685Y-48931741D01*
X23584689Y-48931746D01*
X23718253Y-49065310D01*
X23718258Y-49065314D01*
X23871059Y-49176329D01*
X24039362Y-49262085D01*
X24218995Y-49320451D01*
X24219000Y-49320452D01*
X24324999Y-49337240D01*
X24325000Y-49337240D01*
X24325000Y-48470746D01*
X24434174Y-48500000D01*
X24565826Y-48500000D01*
X24675000Y-48470746D01*
X24675000Y-49337240D01*
X24780999Y-49320452D01*
X24781004Y-49320451D01*
X24960637Y-49262085D01*
X25128940Y-49176329D01*
X25281741Y-49065314D01*
X25281746Y-49065310D01*
X25415310Y-48931746D01*
X25415314Y-48931741D01*
X25526329Y-48778940D01*
X25612085Y-48610637D01*
X25670451Y-48431002D01*
X25700000Y-48244447D01*
X25700000Y-48175000D01*
X24970746Y-48175000D01*
X25000000Y-48065826D01*
X25000000Y-47934174D01*
X24970746Y-47825000D01*
X25700000Y-47825000D01*
X25700000Y-47755552D01*
X25670451Y-47568997D01*
X25612085Y-47389362D01*
X25526329Y-47221059D01*
X25415314Y-47068258D01*
X25415310Y-47068253D01*
X25281746Y-46934689D01*
X25281741Y-46934685D01*
X25128940Y-46823670D01*
X24960637Y-46737914D01*
X24781002Y-46679548D01*
X24675000Y-46662758D01*
X24675000Y-47529253D01*
X24565826Y-47500000D01*
X24434174Y-47500000D01*
X24325000Y-47529253D01*
X24325000Y-46662758D01*
X24218997Y-46679548D01*
X24039362Y-46737914D01*
X23871059Y-46823670D01*
X23718258Y-46934685D01*
X23718253Y-46934689D01*
X23584689Y-47068253D01*
X23584685Y-47068258D01*
X23473670Y-47221059D01*
X23387914Y-47389362D01*
X23342430Y-47529350D01*
X23302993Y-47587025D01*
X23238634Y-47614224D01*
X23169788Y-47602309D01*
X23118312Y-47555065D01*
X23100499Y-47491032D01*
X23100499Y-47202129D01*
X23100498Y-47202123D01*
X23100497Y-47202116D01*
X23094091Y-47142517D01*
X23066394Y-47068258D01*
X23043797Y-47007671D01*
X23043793Y-47007664D01*
X22957547Y-46892455D01*
X22957544Y-46892452D01*
X22842335Y-46806206D01*
X22842328Y-46806202D01*
X22707482Y-46755908D01*
X22707483Y-46755908D01*
X22647883Y-46749501D01*
X22647881Y-46749500D01*
X22647873Y-46749500D01*
X22647864Y-46749500D01*
X21352129Y-46749500D01*
X21352123Y-46749501D01*
X21292516Y-46755908D01*
X21157671Y-46806202D01*
X21157664Y-46806206D01*
X21042455Y-46892452D01*
X21042452Y-46892455D01*
X20956206Y-47007664D01*
X20956202Y-47007671D01*
X20905908Y-47142517D01*
X20899501Y-47202116D01*
X20899501Y-47202123D01*
X20899500Y-47202135D01*
X15512581Y-47202135D01*
X15415314Y-47068258D01*
X15415310Y-47068253D01*
X15281746Y-46934689D01*
X15281741Y-46934685D01*
X15128940Y-46823670D01*
X14960637Y-46737914D01*
X14781002Y-46679548D01*
X14675000Y-46662758D01*
X14675000Y-47529253D01*
X14565826Y-47500000D01*
X14434174Y-47500000D01*
X14325000Y-47529253D01*
X14325000Y-46662758D01*
X14218997Y-46679548D01*
X14039362Y-46737914D01*
X13871059Y-46823670D01*
X13718258Y-46934685D01*
X13718253Y-46934689D01*
X13584689Y-47068253D01*
X13584685Y-47068258D01*
X13473670Y-47221059D01*
X13387914Y-47389362D01*
X13342430Y-47529350D01*
X13302993Y-47587025D01*
X13238634Y-47614224D01*
X13169788Y-47602309D01*
X13118312Y-47555065D01*
X13100499Y-47491032D01*
X13100499Y-47202129D01*
X13100498Y-47202123D01*
X13100497Y-47202116D01*
X13094091Y-47142517D01*
X13066394Y-47068258D01*
X13043797Y-47007671D01*
X13043793Y-47007664D01*
X12957547Y-46892455D01*
X12957544Y-46892452D01*
X12842335Y-46806206D01*
X12842328Y-46806202D01*
X12707482Y-46755908D01*
X12707483Y-46755908D01*
X12647883Y-46749501D01*
X12647881Y-46749500D01*
X12647873Y-46749500D01*
X12647864Y-46749500D01*
X11352129Y-46749500D01*
X11352123Y-46749501D01*
X11292516Y-46755908D01*
X11157671Y-46806202D01*
X11157664Y-46806206D01*
X11042455Y-46892452D01*
X11042452Y-46892455D01*
X10956206Y-47007664D01*
X10956202Y-47007671D01*
X10905908Y-47142517D01*
X10899501Y-47202116D01*
X10899501Y-47202123D01*
X10899500Y-47202135D01*
X500500Y-47202135D01*
X500500Y-45064071D01*
X26349499Y-45064071D01*
X26374497Y-45189738D01*
X26374499Y-45189744D01*
X26423533Y-45308124D01*
X26423538Y-45308133D01*
X26494723Y-45414668D01*
X26494726Y-45414672D01*
X26585327Y-45505273D01*
X26585331Y-45505276D01*
X26691866Y-45576461D01*
X26691872Y-45576464D01*
X26691873Y-45576465D01*
X26810256Y-45625501D01*
X26810260Y-45625501D01*
X26810261Y-45625502D01*
X26935928Y-45650500D01*
X26935931Y-45650500D01*
X27064071Y-45650500D01*
X27148615Y-45633682D01*
X27189744Y-45625501D01*
X27308127Y-45576465D01*
X27390541Y-45521398D01*
X27457218Y-45500520D01*
X27459432Y-45500500D01*
X51540568Y-45500500D01*
X51607607Y-45520185D01*
X51609459Y-45521398D01*
X51691866Y-45576461D01*
X51691872Y-45576464D01*
X51691873Y-45576465D01*
X51810256Y-45625501D01*
X51810260Y-45625501D01*
X51810261Y-45625502D01*
X51935928Y-45650500D01*
X51935931Y-45650500D01*
X52064071Y-45650500D01*
X52148615Y-45633682D01*
X52189744Y-45625501D01*
X52308127Y-45576465D01*
X52414669Y-45505276D01*
X52505276Y-45414669D01*
X52576465Y-45308127D01*
X52625501Y-45189744D01*
X52650500Y-45064069D01*
X52650500Y-44935931D01*
X52650500Y-44935928D01*
X52625502Y-44810261D01*
X52625501Y-44810260D01*
X52625501Y-44810256D01*
X52576465Y-44691873D01*
X52576464Y-44691872D01*
X52576461Y-44691866D01*
X52505276Y-44585331D01*
X52505273Y-44585327D01*
X52414672Y-44494726D01*
X52414668Y-44494723D01*
X52308133Y-44423538D01*
X52308124Y-44423533D01*
X52189744Y-44374499D01*
X52189738Y-44374497D01*
X52064071Y-44349500D01*
X52064069Y-44349500D01*
X51935931Y-44349500D01*
X51935929Y-44349500D01*
X51810261Y-44374497D01*
X51810255Y-44374499D01*
X51691875Y-44423533D01*
X51691866Y-44423538D01*
X51609459Y-44478602D01*
X51542782Y-44499480D01*
X51540568Y-44499500D01*
X27459432Y-44499500D01*
X27392393Y-44479815D01*
X27390541Y-44478602D01*
X27308133Y-44423538D01*
X27308124Y-44423533D01*
X27189744Y-44374499D01*
X27189738Y-44374497D01*
X27064071Y-44349500D01*
X27064069Y-44349500D01*
X26935931Y-44349500D01*
X26935929Y-44349500D01*
X26810261Y-44374497D01*
X26810255Y-44374499D01*
X26691875Y-44423533D01*
X26691866Y-44423538D01*
X26585331Y-44494723D01*
X26585327Y-44494726D01*
X26494726Y-44585327D01*
X26494723Y-44585331D01*
X26423538Y-44691866D01*
X26423533Y-44691875D01*
X26374499Y-44810255D01*
X26374497Y-44810261D01*
X26349500Y-44935928D01*
X26349500Y-44935931D01*
X26349500Y-45064069D01*
X26349500Y-45064071D01*
X26349499Y-45064071D01*
X500500Y-45064071D01*
X500500Y-34896530D01*
X50949500Y-34896530D01*
X50949500Y-35103469D01*
X50989868Y-35306412D01*
X50989870Y-35306420D01*
X51069058Y-35497596D01*
X51184024Y-35669657D01*
X51330342Y-35815975D01*
X51330345Y-35815977D01*
X51502402Y-35930941D01*
X51693580Y-36010130D01*
X51896530Y-36050499D01*
X51896534Y-36050500D01*
X51896535Y-36050500D01*
X52103466Y-36050500D01*
X52103467Y-36050499D01*
X52306420Y-36010130D01*
X52497598Y-35930941D01*
X52669655Y-35815977D01*
X52815977Y-35669655D01*
X52930941Y-35497598D01*
X53010130Y-35306420D01*
X53050500Y-35103465D01*
X53050500Y-34896535D01*
X53050499Y-34896530D01*
X58569500Y-34896530D01*
X58569500Y-35103469D01*
X58609868Y-35306412D01*
X58609870Y-35306420D01*
X58689058Y-35497596D01*
X58804024Y-35669657D01*
X58950342Y-35815975D01*
X58950345Y-35815977D01*
X59122402Y-35930941D01*
X59313580Y-36010130D01*
X59516530Y-36050499D01*
X59516534Y-36050500D01*
X59516535Y-36050500D01*
X59723466Y-36050500D01*
X59723467Y-36050499D01*
X59926420Y-36010130D01*
X60117598Y-35930941D01*
X60289655Y-35815977D01*
X60435977Y-35669655D01*
X60550941Y-35497598D01*
X60630130Y-35306420D01*
X60670500Y-35103465D01*
X60670500Y-34896535D01*
X60630130Y-34693580D01*
X60550941Y-34502402D01*
X60435977Y-34330345D01*
X60435975Y-34330342D01*
X60289657Y-34184024D01*
X60203626Y-34126541D01*
X60117598Y-34069059D01*
X59926420Y-33989870D01*
X59926412Y-33989868D01*
X59723469Y-33949500D01*
X59723465Y-33949500D01*
X59516535Y-33949500D01*
X59516530Y-33949500D01*
X59313587Y-33989868D01*
X59313579Y-33989870D01*
X59122403Y-34069058D01*
X58950342Y-34184024D01*
X58804024Y-34330342D01*
X58689058Y-34502403D01*
X58609870Y-34693579D01*
X58609868Y-34693587D01*
X58569500Y-34896530D01*
X53050499Y-34896530D01*
X53010130Y-34693580D01*
X52930941Y-34502402D01*
X52815977Y-34330345D01*
X52815975Y-34330342D01*
X52669657Y-34184024D01*
X52583626Y-34126541D01*
X52497598Y-34069059D01*
X52306420Y-33989870D01*
X52306412Y-33989868D01*
X52103469Y-33949500D01*
X52103465Y-33949500D01*
X51896535Y-33949500D01*
X51896530Y-33949500D01*
X51693587Y-33989868D01*
X51693579Y-33989870D01*
X51502403Y-34069058D01*
X51330342Y-34184024D01*
X51184024Y-34330342D01*
X51069058Y-34502403D01*
X50989870Y-34693579D01*
X50989868Y-34693587D01*
X50949500Y-34896530D01*
X500500Y-34896530D01*
X500500Y-29896530D01*
X8949500Y-29896530D01*
X8949500Y-30103469D01*
X8989868Y-30306412D01*
X8989870Y-30306420D01*
X9069058Y-30497596D01*
X9184024Y-30669657D01*
X9330342Y-30815975D01*
X9330345Y-30815977D01*
X9502402Y-30930941D01*
X9693580Y-31010130D01*
X9896530Y-31050499D01*
X9896534Y-31050500D01*
X9896535Y-31050500D01*
X10103466Y-31050500D01*
X10103467Y-31050499D01*
X10306420Y-31010130D01*
X10497598Y-30930941D01*
X10669655Y-30815977D01*
X10669658Y-30815974D01*
X10693121Y-30792512D01*
X10815974Y-30669658D01*
X10815975Y-30669657D01*
X10815977Y-30669655D01*
X10930941Y-30497598D01*
X11010130Y-30306420D01*
X11050500Y-30103465D01*
X11050500Y-29909493D01*
X11350000Y-29909493D01*
X11350000Y-30090506D01*
X11378317Y-30269293D01*
X11434251Y-30441444D01*
X11434252Y-30441447D01*
X11516434Y-30602734D01*
X11572545Y-30679965D01*
X11572547Y-30679965D01*
X12121100Y-30131411D01*
X12127259Y-30154394D01*
X12179920Y-30245606D01*
X12254394Y-30320080D01*
X12345606Y-30372741D01*
X12368587Y-30378898D01*
X11820032Y-30927452D01*
X11820033Y-30927453D01*
X11897265Y-30983565D01*
X12058552Y-31065747D01*
X12058555Y-31065748D01*
X12230706Y-31121682D01*
X12409494Y-31150000D01*
X12590506Y-31150000D01*
X12769293Y-31121682D01*
X12941444Y-31065748D01*
X12941447Y-31065747D01*
X13102731Y-30983567D01*
X13179965Y-30927452D01*
X13179966Y-30927452D01*
X12631412Y-30378898D01*
X12654394Y-30372741D01*
X12745606Y-30320080D01*
X12820080Y-30245606D01*
X12872741Y-30154394D01*
X12878898Y-30131412D01*
X13427452Y-30679966D01*
X13427452Y-30679965D01*
X13483567Y-30602731D01*
X13565747Y-30441447D01*
X13565748Y-30441444D01*
X13621682Y-30269293D01*
X13650000Y-30090506D01*
X13650000Y-29909493D01*
X13621682Y-29730706D01*
X13565748Y-29558555D01*
X13565747Y-29558552D01*
X13483565Y-29397265D01*
X13427453Y-29320033D01*
X13427452Y-29320032D01*
X12878898Y-29868586D01*
X12872741Y-29845606D01*
X12820080Y-29754394D01*
X12745606Y-29679920D01*
X12654394Y-29627259D01*
X12631411Y-29621101D01*
X13179965Y-29072547D01*
X13179965Y-29072545D01*
X13102734Y-29016434D01*
X12941447Y-28934252D01*
X12941444Y-28934251D01*
X12769293Y-28878317D01*
X12590506Y-28850000D01*
X12409494Y-28850000D01*
X12230706Y-28878317D01*
X12058555Y-28934251D01*
X12058552Y-28934252D01*
X11897272Y-29016430D01*
X11820033Y-29072546D01*
X12368588Y-29621100D01*
X12345606Y-29627259D01*
X12254394Y-29679920D01*
X12179920Y-29754394D01*
X12127259Y-29845606D01*
X12121101Y-29868588D01*
X11572546Y-29320033D01*
X11516430Y-29397272D01*
X11434252Y-29558552D01*
X11434251Y-29558555D01*
X11378317Y-29730706D01*
X11350000Y-29909493D01*
X11050500Y-29909493D01*
X11050500Y-29896535D01*
X11010130Y-29693580D01*
X10930941Y-29502402D01*
X10815977Y-29330345D01*
X10815975Y-29330342D01*
X10669657Y-29184024D01*
X10502818Y-29072547D01*
X10497598Y-29069059D01*
X10306420Y-28989870D01*
X10306412Y-28989868D01*
X10103469Y-28949500D01*
X10103465Y-28949500D01*
X9896535Y-28949500D01*
X9896530Y-28949500D01*
X9693587Y-28989868D01*
X9693579Y-28989870D01*
X9502403Y-29069058D01*
X9330342Y-29184024D01*
X9184024Y-29330342D01*
X9069058Y-29502403D01*
X8989870Y-29693579D01*
X8989868Y-29693587D01*
X8949500Y-29896530D01*
X500500Y-29896530D01*
X500500Y-25095588D01*
X43949499Y-25095588D01*
X43986794Y-25283078D01*
X43986797Y-25283088D01*
X44059951Y-25459700D01*
X44166164Y-25618660D01*
X44301339Y-25753835D01*
X44460299Y-25860048D01*
X44636911Y-25933202D01*
X44636916Y-25933204D01*
X44636920Y-25933204D01*
X44636921Y-25933205D01*
X44824411Y-25970500D01*
X44824414Y-25970500D01*
X45015588Y-25970500D01*
X45141729Y-25945408D01*
X45203084Y-25933204D01*
X45291394Y-25896625D01*
X45379700Y-25860048D01*
X45379701Y-25860047D01*
X45379704Y-25860046D01*
X45538658Y-25753837D01*
X45673837Y-25618658D01*
X45780046Y-25459704D01*
X45853204Y-25283084D01*
X45890500Y-25095586D01*
X45890500Y-24904414D01*
X45890500Y-24904411D01*
X45853205Y-24716921D01*
X45853204Y-24716917D01*
X45853204Y-24716916D01*
X45853202Y-24716910D01*
X45780048Y-24540299D01*
X45673835Y-24381339D01*
X45538660Y-24246164D01*
X45379700Y-24139951D01*
X45203088Y-24066797D01*
X45203078Y-24066794D01*
X45015588Y-24029500D01*
X45015586Y-24029500D01*
X44824414Y-24029500D01*
X44824412Y-24029500D01*
X44636921Y-24066794D01*
X44636911Y-24066797D01*
X44460299Y-24139951D01*
X44301339Y-24246164D01*
X44166164Y-24381339D01*
X44059951Y-24540299D01*
X43986797Y-24716911D01*
X43986794Y-24716921D01*
X43949500Y-24904411D01*
X43949500Y-24904414D01*
X43949500Y-25095586D01*
X43949500Y-25095588D01*
X43949499Y-25095588D01*
X500500Y-25095588D01*
X500500Y-15116780D01*
X5910000Y-15116780D01*
X5910000Y-15825000D01*
X6639254Y-15825000D01*
X6610000Y-15934174D01*
X6610000Y-16065826D01*
X6639254Y-16175000D01*
X5910001Y-16175000D01*
X5910001Y-16883217D01*
X5919912Y-16951249D01*
X5971215Y-17056191D01*
X6053811Y-17138787D01*
X6158748Y-17190087D01*
X6158751Y-17190088D01*
X6226780Y-17199999D01*
X6934999Y-17199999D01*
X6935000Y-17199998D01*
X6935000Y-16470746D01*
X7044174Y-16500000D01*
X7175826Y-16500000D01*
X7285000Y-16470746D01*
X7285000Y-17199999D01*
X7993218Y-17199999D01*
X8061249Y-17190087D01*
X8166191Y-17138784D01*
X8248787Y-17056188D01*
X8300087Y-16951251D01*
X8300088Y-16951248D01*
X8309999Y-16883219D01*
X8309999Y-16150031D01*
X8329683Y-16082992D01*
X8382487Y-16037237D01*
X8451646Y-16027293D01*
X8515202Y-16056318D01*
X8552976Y-16115096D01*
X8556472Y-16130633D01*
X8563499Y-16175000D01*
X8576598Y-16257701D01*
X8630127Y-16422445D01*
X8708768Y-16576788D01*
X8810586Y-16716928D01*
X8933072Y-16839414D01*
X9073212Y-16941232D01*
X9227555Y-17019873D01*
X9392299Y-17073402D01*
X9563389Y-17100500D01*
X9563390Y-17100500D01*
X9736610Y-17100500D01*
X9736611Y-17100500D01*
X9907701Y-17073402D01*
X10072445Y-17019873D01*
X10226788Y-16941232D01*
X10366928Y-16839414D01*
X10489414Y-16716928D01*
X10591232Y-16576788D01*
X10669873Y-16422445D01*
X10723402Y-16257701D01*
X10750500Y-16086611D01*
X10750500Y-15913389D01*
X11089500Y-15913389D01*
X11089500Y-16086611D01*
X11116598Y-16257701D01*
X11170127Y-16422445D01*
X11248768Y-16576788D01*
X11350586Y-16716928D01*
X11473072Y-16839414D01*
X11613212Y-16941232D01*
X11767555Y-17019873D01*
X11932299Y-17073402D01*
X12103389Y-17100500D01*
X12103390Y-17100500D01*
X12276610Y-17100500D01*
X12276611Y-17100500D01*
X12447701Y-17073402D01*
X12612445Y-17019873D01*
X12612447Y-17019871D01*
X12616971Y-17018402D01*
X12686812Y-17016407D01*
X12742970Y-17048652D01*
X18231488Y-22537170D01*
X18311412Y-22583314D01*
X18400556Y-22607200D01*
X44520156Y-22607200D01*
X44587195Y-22626885D01*
X44607837Y-22643519D01*
X46513442Y-24549124D01*
X46546927Y-24610447D01*
X46541943Y-24680139D01*
X46540323Y-24684255D01*
X46526797Y-24716910D01*
X46526795Y-24716917D01*
X46489500Y-24904411D01*
X46489500Y-24904414D01*
X46489500Y-25095586D01*
X46489500Y-25095588D01*
X46489499Y-25095588D01*
X46526794Y-25283078D01*
X46526797Y-25283088D01*
X46599951Y-25459700D01*
X46706164Y-25618660D01*
X46841339Y-25753835D01*
X47000299Y-25860048D01*
X47176911Y-25933202D01*
X47176916Y-25933204D01*
X47176920Y-25933204D01*
X47176921Y-25933205D01*
X47364411Y-25970500D01*
X47364414Y-25970500D01*
X47555588Y-25970500D01*
X47681729Y-25945408D01*
X47743084Y-25933204D01*
X47831394Y-25896625D01*
X47919700Y-25860048D01*
X47919701Y-25860047D01*
X47919704Y-25860046D01*
X48078658Y-25753837D01*
X48213837Y-25618658D01*
X48320046Y-25459704D01*
X48393204Y-25283084D01*
X48430500Y-25095588D01*
X49029499Y-25095588D01*
X49066794Y-25283078D01*
X49066797Y-25283088D01*
X49139951Y-25459700D01*
X49246164Y-25618660D01*
X49381339Y-25753835D01*
X49540299Y-25860048D01*
X49716911Y-25933202D01*
X49716916Y-25933204D01*
X49716920Y-25933204D01*
X49716921Y-25933205D01*
X49904411Y-25970500D01*
X49904414Y-25970500D01*
X50095588Y-25970500D01*
X50221729Y-25945408D01*
X50283084Y-25933204D01*
X50371394Y-25896625D01*
X50459700Y-25860048D01*
X50459701Y-25860047D01*
X50459704Y-25860046D01*
X50618658Y-25753837D01*
X50753837Y-25618658D01*
X50860046Y-25459704D01*
X50933204Y-25283084D01*
X50970500Y-25095586D01*
X50970500Y-24904414D01*
X50970500Y-24904411D01*
X50933205Y-24716921D01*
X50933204Y-24716917D01*
X50933204Y-24716916D01*
X50933202Y-24716910D01*
X50860048Y-24540299D01*
X50753835Y-24381339D01*
X50618660Y-24246164D01*
X50459700Y-24139951D01*
X50283088Y-24066797D01*
X50283078Y-24066794D01*
X50095588Y-24029500D01*
X50095586Y-24029500D01*
X49904414Y-24029500D01*
X49904412Y-24029500D01*
X49716921Y-24066794D01*
X49716911Y-24066797D01*
X49540299Y-24139951D01*
X49381339Y-24246164D01*
X49246164Y-24381339D01*
X49139951Y-24540299D01*
X49066797Y-24716911D01*
X49066794Y-24716921D01*
X49029500Y-24904411D01*
X49029500Y-24904414D01*
X49029500Y-25095586D01*
X49029500Y-25095588D01*
X49029499Y-25095588D01*
X48430500Y-25095588D01*
X48430500Y-25095586D01*
X48430500Y-24904414D01*
X48430500Y-24904411D01*
X48393205Y-24716921D01*
X48393204Y-24716917D01*
X48393204Y-24716916D01*
X48393202Y-24716910D01*
X48320048Y-24540299D01*
X48213835Y-24381339D01*
X48078660Y-24246164D01*
X47919700Y-24139951D01*
X47743088Y-24066797D01*
X47743078Y-24066794D01*
X47555588Y-24029500D01*
X47555586Y-24029500D01*
X47364414Y-24029500D01*
X47364412Y-24029500D01*
X47176917Y-24066795D01*
X47176910Y-24066797D01*
X47144255Y-24080323D01*
X47074786Y-24087790D01*
X47012307Y-24056514D01*
X47009124Y-24053442D01*
X44931913Y-21976231D01*
X44931908Y-21976227D01*
X44851990Y-21930087D01*
X44851989Y-21930086D01*
X44851988Y-21930086D01*
X44762844Y-21906200D01*
X44762843Y-21906200D01*
X18643244Y-21906200D01*
X18576205Y-21886515D01*
X18555563Y-21869881D01*
X13238652Y-16552970D01*
X13205167Y-16491647D01*
X13208402Y-16426971D01*
X13209873Y-16422445D01*
X13263402Y-16257701D01*
X13290500Y-16086611D01*
X13290500Y-15913389D01*
X13629500Y-15913389D01*
X13629500Y-16086611D01*
X13656598Y-16257701D01*
X13710127Y-16422445D01*
X13788768Y-16576788D01*
X13890586Y-16716928D01*
X14013072Y-16839414D01*
X14153212Y-16941232D01*
X14307555Y-17019873D01*
X14472299Y-17073402D01*
X14643389Y-17100500D01*
X14643390Y-17100500D01*
X14816610Y-17100500D01*
X14816611Y-17100500D01*
X14987701Y-17073402D01*
X15152445Y-17019873D01*
X15306788Y-16941232D01*
X15446928Y-16839414D01*
X15569414Y-16716928D01*
X15671232Y-16576788D01*
X15749873Y-16422445D01*
X15803402Y-16257701D01*
X15830500Y-16086611D01*
X15830500Y-15913389D01*
X16169500Y-15913389D01*
X16169500Y-16086611D01*
X16196598Y-16257701D01*
X16250127Y-16422445D01*
X16328768Y-16576788D01*
X16430586Y-16716928D01*
X16553072Y-16839414D01*
X16693212Y-16941232D01*
X16847555Y-17019873D01*
X17012299Y-17073402D01*
X17183389Y-17100500D01*
X17183390Y-17100500D01*
X17356610Y-17100500D01*
X17356611Y-17100500D01*
X17527701Y-17073402D01*
X17692445Y-17019873D01*
X17846788Y-16941232D01*
X17986928Y-16839414D01*
X18109414Y-16716928D01*
X18211232Y-16576788D01*
X18289873Y-16422445D01*
X18343402Y-16257701D01*
X18370500Y-16086611D01*
X18370500Y-15913389D01*
X18709500Y-15913389D01*
X18709500Y-16086611D01*
X18736598Y-16257701D01*
X18790127Y-16422445D01*
X18868768Y-16576788D01*
X18970586Y-16716928D01*
X19093072Y-16839414D01*
X19233212Y-16941232D01*
X19387555Y-17019873D01*
X19552299Y-17073402D01*
X19723389Y-17100500D01*
X19723390Y-17100500D01*
X19896610Y-17100500D01*
X19896611Y-17100500D01*
X20067701Y-17073402D01*
X20232445Y-17019873D01*
X20386788Y-16941232D01*
X20526928Y-16839414D01*
X20649414Y-16716928D01*
X20751232Y-16576788D01*
X20829873Y-16422445D01*
X20883402Y-16257701D01*
X20910500Y-16086611D01*
X20910500Y-15913389D01*
X21249500Y-15913389D01*
X21249500Y-16086611D01*
X21276598Y-16257701D01*
X21330127Y-16422445D01*
X21408768Y-16576788D01*
X21510586Y-16716928D01*
X21633072Y-16839414D01*
X21773212Y-16941232D01*
X21927555Y-17019873D01*
X22092299Y-17073402D01*
X22263389Y-17100500D01*
X22263390Y-17100500D01*
X22436610Y-17100500D01*
X22436611Y-17100500D01*
X22607701Y-17073402D01*
X22772445Y-17019873D01*
X22926788Y-16941232D01*
X23066928Y-16839414D01*
X23189414Y-16716928D01*
X23291232Y-16576788D01*
X23369873Y-16422445D01*
X23423402Y-16257701D01*
X23450500Y-16086611D01*
X23450500Y-15913389D01*
X23789500Y-15913389D01*
X23789500Y-16086611D01*
X23816598Y-16257701D01*
X23870127Y-16422445D01*
X23948768Y-16576788D01*
X24050586Y-16716928D01*
X24173072Y-16839414D01*
X24313212Y-16941232D01*
X24467555Y-17019873D01*
X24632299Y-17073402D01*
X24803389Y-17100500D01*
X24803390Y-17100500D01*
X24976610Y-17100500D01*
X24976611Y-17100500D01*
X25147701Y-17073402D01*
X25312445Y-17019873D01*
X25466788Y-16941232D01*
X25606928Y-16839414D01*
X25729414Y-16716928D01*
X25831232Y-16576788D01*
X25909873Y-16422445D01*
X25963402Y-16257701D01*
X25990500Y-16086611D01*
X25990500Y-15913389D01*
X26329500Y-15913389D01*
X26329500Y-16086611D01*
X26356598Y-16257701D01*
X26410127Y-16422445D01*
X26488768Y-16576788D01*
X26590586Y-16716928D01*
X26713072Y-16839414D01*
X26853212Y-16941232D01*
X27007555Y-17019873D01*
X27172299Y-17073402D01*
X27343389Y-17100500D01*
X27343390Y-17100500D01*
X27516610Y-17100500D01*
X27516611Y-17100500D01*
X27687701Y-17073402D01*
X27852445Y-17019873D01*
X28006788Y-16941232D01*
X28146928Y-16839414D01*
X28269414Y-16716928D01*
X28371232Y-16576788D01*
X28449873Y-16422445D01*
X28503402Y-16257701D01*
X28530500Y-16086611D01*
X28530500Y-15913389D01*
X28869500Y-15913389D01*
X28869500Y-16086611D01*
X28896598Y-16257701D01*
X28950127Y-16422445D01*
X29028768Y-16576788D01*
X29130586Y-16716928D01*
X29253072Y-16839414D01*
X29393212Y-16941232D01*
X29547555Y-17019873D01*
X29712299Y-17073402D01*
X29883389Y-17100500D01*
X29883390Y-17100500D01*
X30056610Y-17100500D01*
X30056611Y-17100500D01*
X30227701Y-17073402D01*
X30392445Y-17019873D01*
X30546788Y-16941232D01*
X30686928Y-16839414D01*
X30809414Y-16716928D01*
X30911232Y-16576788D01*
X30989873Y-16422445D01*
X31043402Y-16257701D01*
X31070500Y-16086611D01*
X31070500Y-15913389D01*
X31409500Y-15913389D01*
X31409500Y-16086611D01*
X31436598Y-16257701D01*
X31490127Y-16422445D01*
X31568768Y-16576788D01*
X31670586Y-16716928D01*
X31793072Y-16839414D01*
X31933212Y-16941232D01*
X32087555Y-17019873D01*
X32252299Y-17073402D01*
X32423389Y-17100500D01*
X32423390Y-17100500D01*
X32596610Y-17100500D01*
X32596611Y-17100500D01*
X32767701Y-17073402D01*
X32932445Y-17019873D01*
X33086788Y-16941232D01*
X33226928Y-16839414D01*
X33349414Y-16716928D01*
X33451232Y-16576788D01*
X33529873Y-16422445D01*
X33583402Y-16257701D01*
X33610500Y-16086611D01*
X33610500Y-15913389D01*
X33949500Y-15913389D01*
X33949500Y-16086611D01*
X33976598Y-16257701D01*
X34030127Y-16422445D01*
X34108768Y-16576788D01*
X34210586Y-16716928D01*
X34333072Y-16839414D01*
X34473212Y-16941232D01*
X34627555Y-17019873D01*
X34792299Y-17073402D01*
X34963389Y-17100500D01*
X34963390Y-17100500D01*
X35136610Y-17100500D01*
X35136611Y-17100500D01*
X35307701Y-17073402D01*
X35472445Y-17019873D01*
X35626788Y-16941232D01*
X35766928Y-16839414D01*
X35889414Y-16716928D01*
X35991232Y-16576788D01*
X36069873Y-16422445D01*
X36123402Y-16257701D01*
X36150500Y-16086611D01*
X36150500Y-15913389D01*
X36489500Y-15913389D01*
X36489500Y-16086611D01*
X36516598Y-16257701D01*
X36570127Y-16422445D01*
X36648768Y-16576788D01*
X36750586Y-16716928D01*
X36873072Y-16839414D01*
X37013212Y-16941232D01*
X37167555Y-17019873D01*
X37332299Y-17073402D01*
X37503389Y-17100500D01*
X37503390Y-17100500D01*
X37676610Y-17100500D01*
X37676611Y-17100500D01*
X37847701Y-17073402D01*
X38012445Y-17019873D01*
X38166788Y-16941232D01*
X38306928Y-16839414D01*
X38429414Y-16716928D01*
X38531232Y-16576788D01*
X38609873Y-16422445D01*
X38663402Y-16257701D01*
X38690500Y-16086611D01*
X38690500Y-15913389D01*
X39029500Y-15913389D01*
X39029500Y-16086611D01*
X39056598Y-16257701D01*
X39110127Y-16422445D01*
X39188768Y-16576788D01*
X39290586Y-16716928D01*
X39413072Y-16839414D01*
X39553212Y-16941232D01*
X39707555Y-17019873D01*
X39872299Y-17073402D01*
X40043389Y-17100500D01*
X40043390Y-17100500D01*
X40216610Y-17100500D01*
X40216611Y-17100500D01*
X40387701Y-17073402D01*
X40552445Y-17019873D01*
X40706788Y-16941232D01*
X40846928Y-16839414D01*
X40969414Y-16716928D01*
X41071232Y-16576788D01*
X41149873Y-16422445D01*
X41203402Y-16257701D01*
X41230500Y-16086611D01*
X41230500Y-15913389D01*
X41569500Y-15913389D01*
X41569500Y-16086611D01*
X41596598Y-16257701D01*
X41650127Y-16422445D01*
X41728768Y-16576788D01*
X41830586Y-16716928D01*
X41953072Y-16839414D01*
X42093212Y-16941232D01*
X42247555Y-17019873D01*
X42412299Y-17073402D01*
X42583389Y-17100500D01*
X42583390Y-17100500D01*
X42756610Y-17100500D01*
X42756611Y-17100500D01*
X42927701Y-17073402D01*
X43092445Y-17019873D01*
X43246788Y-16941232D01*
X43386928Y-16839414D01*
X43509414Y-16716928D01*
X43611232Y-16576788D01*
X43689873Y-16422445D01*
X43743402Y-16257701D01*
X43770500Y-16086611D01*
X43770500Y-15913389D01*
X44109500Y-15913389D01*
X44109500Y-16086611D01*
X44136598Y-16257701D01*
X44190127Y-16422445D01*
X44268768Y-16576788D01*
X44370586Y-16716928D01*
X44493072Y-16839414D01*
X44633212Y-16941232D01*
X44787555Y-17019873D01*
X44952299Y-17073402D01*
X45123389Y-17100500D01*
X45123390Y-17100500D01*
X45296610Y-17100500D01*
X45296611Y-17100500D01*
X45467701Y-17073402D01*
X45632445Y-17019873D01*
X45786788Y-16941232D01*
X45926928Y-16839414D01*
X46049414Y-16716928D01*
X46151232Y-16576788D01*
X46229873Y-16422445D01*
X46283402Y-16257701D01*
X46310500Y-16086611D01*
X46310500Y-15913389D01*
X46649500Y-15913389D01*
X46649500Y-16086611D01*
X46676598Y-16257701D01*
X46730127Y-16422445D01*
X46808768Y-16576788D01*
X46910586Y-16716928D01*
X47033072Y-16839414D01*
X47173212Y-16941232D01*
X47327555Y-17019873D01*
X47492299Y-17073402D01*
X47663389Y-17100500D01*
X47663390Y-17100500D01*
X47836610Y-17100500D01*
X47836611Y-17100500D01*
X48007701Y-17073402D01*
X48172445Y-17019873D01*
X48326788Y-16941232D01*
X48466928Y-16839414D01*
X48589414Y-16716928D01*
X48691232Y-16576788D01*
X48769873Y-16422445D01*
X48823402Y-16257701D01*
X48850500Y-16086611D01*
X48850500Y-15913389D01*
X49189500Y-15913389D01*
X49189500Y-16086611D01*
X49216598Y-16257701D01*
X49270127Y-16422445D01*
X49348768Y-16576788D01*
X49450586Y-16716928D01*
X49573072Y-16839414D01*
X49713212Y-16941232D01*
X49867555Y-17019873D01*
X50032299Y-17073402D01*
X50203389Y-17100500D01*
X50203390Y-17100500D01*
X50376610Y-17100500D01*
X50376611Y-17100500D01*
X50547701Y-17073402D01*
X50712445Y-17019873D01*
X50866788Y-16941232D01*
X51006928Y-16839414D01*
X51129414Y-16716928D01*
X51231232Y-16576788D01*
X51309873Y-16422445D01*
X51363402Y-16257701D01*
X51390500Y-16086611D01*
X51390500Y-15913389D01*
X51729500Y-15913389D01*
X51729500Y-16086611D01*
X51756598Y-16257701D01*
X51810127Y-16422445D01*
X51888768Y-16576788D01*
X51990586Y-16716928D01*
X52113072Y-16839414D01*
X52253212Y-16941232D01*
X52407555Y-17019873D01*
X52572299Y-17073402D01*
X52743389Y-17100500D01*
X52743390Y-17100500D01*
X52916610Y-17100500D01*
X52916611Y-17100500D01*
X53087701Y-17073402D01*
X53252445Y-17019873D01*
X53406788Y-16941232D01*
X53546928Y-16839414D01*
X53669414Y-16716928D01*
X53771232Y-16576788D01*
X53849873Y-16422445D01*
X53903402Y-16257701D01*
X53927156Y-16107720D01*
X53957085Y-16044587D01*
X54016396Y-16007655D01*
X54086259Y-16008653D01*
X54144492Y-16047262D01*
X54172102Y-16107720D01*
X54199548Y-16281002D01*
X54257914Y-16460637D01*
X54343666Y-16628933D01*
X54406749Y-16715761D01*
X54913387Y-16209123D01*
X54969901Y-16307007D01*
X55062993Y-16400099D01*
X55160875Y-16456611D01*
X54654237Y-16963248D01*
X54654237Y-16963249D01*
X54741066Y-17026333D01*
X54909362Y-17112085D01*
X55088997Y-17170451D01*
X55275553Y-17200000D01*
X55464447Y-17200000D01*
X55651002Y-17170451D01*
X55830637Y-17112085D01*
X55998940Y-17026329D01*
X56085761Y-16963251D01*
X56085762Y-16963249D01*
X55579124Y-16456611D01*
X55677007Y-16400099D01*
X55770099Y-16307007D01*
X55826611Y-16209124D01*
X56333249Y-16715762D01*
X56333251Y-16715761D01*
X56396329Y-16628940D01*
X56482085Y-16460637D01*
X56540451Y-16281002D01*
X56570000Y-16094447D01*
X56570000Y-15905552D01*
X56540451Y-15718997D01*
X56482085Y-15539362D01*
X56396333Y-15371066D01*
X56333249Y-15284237D01*
X55826611Y-15790875D01*
X55770099Y-15692993D01*
X55677007Y-15599901D01*
X55579123Y-15543388D01*
X56085761Y-15036749D01*
X55998933Y-14973666D01*
X55830637Y-14887914D01*
X55651002Y-14829548D01*
X55464447Y-14800000D01*
X55275553Y-14800000D01*
X55088997Y-14829548D01*
X54909362Y-14887914D01*
X54741064Y-14973667D01*
X54741062Y-14973668D01*
X54654237Y-15036748D01*
X54654237Y-15036749D01*
X55160876Y-15543388D01*
X55062993Y-15599901D01*
X54969901Y-15692993D01*
X54913388Y-15790876D01*
X54406749Y-15284237D01*
X54406748Y-15284237D01*
X54343668Y-15371062D01*
X54343667Y-15371064D01*
X54257914Y-15539362D01*
X54199548Y-15718997D01*
X54172102Y-15892279D01*
X54142172Y-15955413D01*
X54082861Y-15992344D01*
X54012998Y-15991346D01*
X53954766Y-15952736D01*
X53927156Y-15892277D01*
X53923527Y-15869367D01*
X53903402Y-15742299D01*
X53849873Y-15577555D01*
X53771232Y-15423212D01*
X53669414Y-15283072D01*
X53546928Y-15160586D01*
X53406788Y-15058768D01*
X53252445Y-14980127D01*
X53087701Y-14926598D01*
X53087699Y-14926597D01*
X53087698Y-14926597D01*
X52956271Y-14905781D01*
X52916611Y-14899500D01*
X52743389Y-14899500D01*
X52703728Y-14905781D01*
X52572302Y-14926597D01*
X52407552Y-14980128D01*
X52253211Y-15058768D01*
X52173366Y-15116780D01*
X52113072Y-15160586D01*
X52113070Y-15160588D01*
X52113069Y-15160588D01*
X51990588Y-15283069D01*
X51990588Y-15283070D01*
X51990586Y-15283072D01*
X51989740Y-15284237D01*
X51888768Y-15423211D01*
X51810128Y-15577552D01*
X51756597Y-15742302D01*
X51756597Y-15742303D01*
X51729500Y-15913389D01*
X51390500Y-15913389D01*
X51363402Y-15742299D01*
X51309873Y-15577555D01*
X51231232Y-15423212D01*
X51129414Y-15283072D01*
X51006928Y-15160586D01*
X50866788Y-15058768D01*
X50712445Y-14980127D01*
X50547701Y-14926598D01*
X50547699Y-14926597D01*
X50547698Y-14926597D01*
X50416271Y-14905781D01*
X50376611Y-14899500D01*
X50203389Y-14899500D01*
X50163728Y-14905781D01*
X50032302Y-14926597D01*
X49867552Y-14980128D01*
X49713211Y-15058768D01*
X49633366Y-15116780D01*
X49573072Y-15160586D01*
X49573070Y-15160588D01*
X49573069Y-15160588D01*
X49450588Y-15283069D01*
X49450588Y-15283070D01*
X49450586Y-15283072D01*
X49449740Y-15284237D01*
X49348768Y-15423211D01*
X49270128Y-15577552D01*
X49216597Y-15742302D01*
X49216597Y-15742303D01*
X49189500Y-15913389D01*
X48850500Y-15913389D01*
X48823402Y-15742299D01*
X48769873Y-15577555D01*
X48691232Y-15423212D01*
X48589414Y-15283072D01*
X48466928Y-15160586D01*
X48326788Y-15058768D01*
X48172445Y-14980127D01*
X48007701Y-14926598D01*
X48007699Y-14926597D01*
X48007698Y-14926597D01*
X47876271Y-14905781D01*
X47836611Y-14899500D01*
X47663389Y-14899500D01*
X47623728Y-14905781D01*
X47492302Y-14926597D01*
X47327552Y-14980128D01*
X47173211Y-15058768D01*
X47093366Y-15116780D01*
X47033072Y-15160586D01*
X47033070Y-15160588D01*
X47033069Y-15160588D01*
X46910588Y-15283069D01*
X46910588Y-15283070D01*
X46910586Y-15283072D01*
X46909740Y-15284237D01*
X46808768Y-15423211D01*
X46730128Y-15577552D01*
X46676597Y-15742302D01*
X46676597Y-15742303D01*
X46649500Y-15913389D01*
X46310500Y-15913389D01*
X46283402Y-15742299D01*
X46229873Y-15577555D01*
X46151232Y-15423212D01*
X46049414Y-15283072D01*
X45926928Y-15160586D01*
X45786788Y-15058768D01*
X45632445Y-14980127D01*
X45467701Y-14926598D01*
X45467699Y-14926597D01*
X45467698Y-14926597D01*
X45336271Y-14905781D01*
X45296611Y-14899500D01*
X45123389Y-14899500D01*
X45083728Y-14905781D01*
X44952302Y-14926597D01*
X44787552Y-14980128D01*
X44633211Y-15058768D01*
X44553366Y-15116780D01*
X44493072Y-15160586D01*
X44493070Y-15160588D01*
X44493069Y-15160588D01*
X44370588Y-15283069D01*
X44370588Y-15283070D01*
X44370586Y-15283072D01*
X44369740Y-15284237D01*
X44268768Y-15423211D01*
X44190128Y-15577552D01*
X44136597Y-15742302D01*
X44136597Y-15742303D01*
X44109500Y-15913389D01*
X43770500Y-15913389D01*
X43743402Y-15742299D01*
X43689873Y-15577555D01*
X43611232Y-15423212D01*
X43509414Y-15283072D01*
X43386928Y-15160586D01*
X43246788Y-15058768D01*
X43092445Y-14980127D01*
X42927701Y-14926598D01*
X42927699Y-14926597D01*
X42927698Y-14926597D01*
X42796271Y-14905781D01*
X42756611Y-14899500D01*
X42583389Y-14899500D01*
X42543728Y-14905781D01*
X42412302Y-14926597D01*
X42247552Y-14980128D01*
X42093211Y-15058768D01*
X42013366Y-15116780D01*
X41953072Y-15160586D01*
X41953070Y-15160588D01*
X41953069Y-15160588D01*
X41830588Y-15283069D01*
X41830588Y-15283070D01*
X41830586Y-15283072D01*
X41829740Y-15284237D01*
X41728768Y-15423211D01*
X41650128Y-15577552D01*
X41596597Y-15742302D01*
X41596597Y-15742303D01*
X41569500Y-15913389D01*
X41230500Y-15913389D01*
X41203402Y-15742299D01*
X41149873Y-15577555D01*
X41071232Y-15423212D01*
X40969414Y-15283072D01*
X40846928Y-15160586D01*
X40706788Y-15058768D01*
X40552445Y-14980127D01*
X40387701Y-14926598D01*
X40387699Y-14926597D01*
X40387698Y-14926597D01*
X40256271Y-14905781D01*
X40216611Y-14899500D01*
X40043389Y-14899500D01*
X40003728Y-14905781D01*
X39872302Y-14926597D01*
X39707552Y-14980128D01*
X39553211Y-15058768D01*
X39473366Y-15116780D01*
X39413072Y-15160586D01*
X39413070Y-15160588D01*
X39413069Y-15160588D01*
X39290588Y-15283069D01*
X39290588Y-15283070D01*
X39290586Y-15283072D01*
X39289740Y-15284237D01*
X39188768Y-15423211D01*
X39110128Y-15577552D01*
X39056597Y-15742302D01*
X39056597Y-15742303D01*
X39029500Y-15913389D01*
X38690500Y-15913389D01*
X38663402Y-15742299D01*
X38609873Y-15577555D01*
X38531232Y-15423212D01*
X38429414Y-15283072D01*
X38306928Y-15160586D01*
X38166788Y-15058768D01*
X38012445Y-14980127D01*
X37847701Y-14926598D01*
X37847699Y-14926597D01*
X37847698Y-14926597D01*
X37716271Y-14905781D01*
X37676611Y-14899500D01*
X37503389Y-14899500D01*
X37463728Y-14905781D01*
X37332302Y-14926597D01*
X37167552Y-14980128D01*
X37013211Y-15058768D01*
X36933366Y-15116780D01*
X36873072Y-15160586D01*
X36873070Y-15160588D01*
X36873069Y-15160588D01*
X36750588Y-15283069D01*
X36750588Y-15283070D01*
X36750586Y-15283072D01*
X36749740Y-15284237D01*
X36648768Y-15423211D01*
X36570128Y-15577552D01*
X36516597Y-15742302D01*
X36516597Y-15742303D01*
X36489500Y-15913389D01*
X36150500Y-15913389D01*
X36123402Y-15742299D01*
X36069873Y-15577555D01*
X36069869Y-15577547D01*
X36068401Y-15573029D01*
X36066406Y-15503188D01*
X36098649Y-15447031D01*
X38749063Y-12796619D01*
X38810386Y-12763134D01*
X38836744Y-12760300D01*
X49046342Y-12760300D01*
X49046344Y-12760300D01*
X49135488Y-12736414D01*
X49215412Y-12690270D01*
X54817031Y-7088649D01*
X54878352Y-7055166D01*
X54943029Y-7058401D01*
X54947547Y-7059869D01*
X54947555Y-7059873D01*
X55112299Y-7113402D01*
X55283389Y-7140500D01*
X55283390Y-7140500D01*
X55456610Y-7140500D01*
X55456611Y-7140500D01*
X55627701Y-7113402D01*
X55792445Y-7059873D01*
X55946788Y-6981232D01*
X56086928Y-6879414D01*
X56209414Y-6756928D01*
X56311232Y-6616788D01*
X56389873Y-6462445D01*
X56443402Y-6297701D01*
X56470500Y-6126611D01*
X56470500Y-5953389D01*
X56443402Y-5782299D01*
X56389873Y-5617555D01*
X56311232Y-5463212D01*
X56209414Y-5323072D01*
X56086928Y-5200586D01*
X55946788Y-5098768D01*
X55792445Y-5020127D01*
X55627701Y-4966598D01*
X55627699Y-4966597D01*
X55627697Y-4966597D01*
X55477721Y-4942843D01*
X55414586Y-4912914D01*
X55377655Y-4853602D01*
X55378653Y-4783740D01*
X55417263Y-4725507D01*
X55477721Y-4697897D01*
X55651002Y-4670451D01*
X55830637Y-4612085D01*
X55998940Y-4526329D01*
X56085761Y-4463251D01*
X56085762Y-4463249D01*
X55579124Y-3956611D01*
X55677007Y-3900099D01*
X55770099Y-3807007D01*
X55826611Y-3709124D01*
X56333249Y-4215762D01*
X56333251Y-4215761D01*
X56396329Y-4128940D01*
X56482085Y-3960637D01*
X56540451Y-3781002D01*
X56570000Y-3594447D01*
X56570000Y-3499998D01*
X59000000Y-3499998D01*
X59000000Y-3500001D01*
X59085184Y-4147045D01*
X59085185Y-4147047D01*
X59242288Y-4526329D01*
X59334936Y-4750000D01*
X59732233Y-5267766D01*
X60250000Y-5665063D01*
X60852952Y-5914814D01*
X61176476Y-5957407D01*
X61499999Y-6000000D01*
X61500000Y-6000000D01*
X61500001Y-6000000D01*
X61715682Y-5971604D01*
X62147047Y-5914814D01*
X62750000Y-5665063D01*
X63267766Y-5267766D01*
X63665063Y-4750000D01*
X63914814Y-4147047D01*
X63987566Y-3594447D01*
X64000000Y-3500001D01*
X64000000Y-3499998D01*
X63917199Y-2871066D01*
X63914814Y-2852952D01*
X63665063Y-2249999D01*
X63267766Y-1732233D01*
X62750000Y-1334936D01*
X62749995Y-1334934D01*
X62147047Y-1085185D01*
X62147045Y-1085184D01*
X61500001Y-1000000D01*
X61499999Y-1000000D01*
X60852953Y-1085184D01*
X60852951Y-1085185D01*
X60250002Y-1334934D01*
X59732233Y-1732233D01*
X59334934Y-2250002D01*
X59085185Y-2852951D01*
X59085184Y-2852953D01*
X59000000Y-3499998D01*
X56570000Y-3499998D01*
X56570000Y-3405552D01*
X56540451Y-3218997D01*
X56482085Y-3039362D01*
X56396333Y-2871066D01*
X56333249Y-2784237D01*
X55826611Y-3290875D01*
X55770099Y-3192993D01*
X55677007Y-3099901D01*
X55579123Y-3043388D01*
X56085761Y-2536749D01*
X55998933Y-2473666D01*
X55830637Y-2387914D01*
X55651002Y-2329548D01*
X55464447Y-2300000D01*
X55275553Y-2300000D01*
X55088997Y-2329548D01*
X54909362Y-2387914D01*
X54741064Y-2473667D01*
X54741062Y-2473668D01*
X54654237Y-2536748D01*
X54654237Y-2536749D01*
X55160876Y-3043388D01*
X55062993Y-3099901D01*
X54969901Y-3192993D01*
X54913388Y-3290876D01*
X54406749Y-2784237D01*
X54406748Y-2784237D01*
X54343668Y-2871062D01*
X54343667Y-2871064D01*
X54257914Y-3039362D01*
X54199548Y-3218997D01*
X54172102Y-3392279D01*
X54142172Y-3455413D01*
X54082861Y-3492344D01*
X54012998Y-3491346D01*
X53954766Y-3452736D01*
X53927156Y-3392277D01*
X53903403Y-3242303D01*
X53903402Y-3242302D01*
X53903402Y-3242299D01*
X53849873Y-3077555D01*
X53771232Y-2923212D01*
X53669414Y-2783072D01*
X53546928Y-2660586D01*
X53406788Y-2558768D01*
X53252445Y-2480127D01*
X53087701Y-2426598D01*
X53087699Y-2426597D01*
X53087698Y-2426597D01*
X52956271Y-2405781D01*
X52916611Y-2399500D01*
X52743389Y-2399500D01*
X52703728Y-2405781D01*
X52572302Y-2426597D01*
X52407552Y-2480128D01*
X52253211Y-2558768D01*
X52179563Y-2612277D01*
X52113072Y-2660586D01*
X52113070Y-2660588D01*
X52113069Y-2660588D01*
X51990588Y-2783069D01*
X51990588Y-2783070D01*
X51990586Y-2783072D01*
X51989740Y-2784237D01*
X51888768Y-2923211D01*
X51810128Y-3077552D01*
X51756597Y-3242302D01*
X51732844Y-3392277D01*
X51729500Y-3413389D01*
X51729500Y-3586611D01*
X51756598Y-3757701D01*
X51810127Y-3922445D01*
X51888768Y-4076788D01*
X51990586Y-4216928D01*
X52113072Y-4339414D01*
X52253212Y-4441232D01*
X52407555Y-4519873D01*
X52572299Y-4573402D01*
X52743389Y-4600500D01*
X52743390Y-4600500D01*
X52916610Y-4600500D01*
X52916611Y-4600500D01*
X53087701Y-4573402D01*
X53252445Y-4519873D01*
X53406788Y-4441232D01*
X53546928Y-4339414D01*
X53669414Y-4216928D01*
X53771232Y-4076788D01*
X53849873Y-3922445D01*
X53903402Y-3757701D01*
X53927156Y-3607720D01*
X53957085Y-3544587D01*
X54016396Y-3507655D01*
X54086259Y-3508653D01*
X54144492Y-3547262D01*
X54172102Y-3607720D01*
X54199548Y-3781002D01*
X54257914Y-3960637D01*
X54343666Y-4128933D01*
X54406749Y-4215761D01*
X54913387Y-3709123D01*
X54969901Y-3807007D01*
X55062993Y-3900099D01*
X55160875Y-3956611D01*
X54654237Y-4463248D01*
X54654237Y-4463249D01*
X54741066Y-4526333D01*
X54909362Y-4612085D01*
X55088997Y-4670451D01*
X55262278Y-4697897D01*
X55325413Y-4727826D01*
X55362344Y-4787138D01*
X55361346Y-4857000D01*
X55322736Y-4915233D01*
X55262278Y-4942843D01*
X55112302Y-4966597D01*
X54947552Y-5020128D01*
X54793211Y-5098768D01*
X54713256Y-5156859D01*
X54653072Y-5200586D01*
X54653070Y-5200588D01*
X54653069Y-5200588D01*
X54530588Y-5323069D01*
X54530588Y-5323070D01*
X54530586Y-5323072D01*
X54529740Y-5324237D01*
X54428768Y-5463211D01*
X54350128Y-5617552D01*
X54296597Y-5782302D01*
X54296597Y-5782303D01*
X54269500Y-5953389D01*
X54269500Y-6126611D01*
X54272844Y-6147722D01*
X54296597Y-6297698D01*
X54351597Y-6466970D01*
X54353592Y-6536811D01*
X54321347Y-6592969D01*
X48891337Y-12022981D01*
X48830014Y-12056466D01*
X48803656Y-12059300D01*
X38594056Y-12059300D01*
X38504912Y-12083186D01*
X38504909Y-12083187D01*
X38424991Y-12129327D01*
X38424986Y-12129331D01*
X35602969Y-14951347D01*
X35541646Y-14984832D01*
X35476970Y-14981597D01*
X35307698Y-14926597D01*
X35176271Y-14905781D01*
X35136611Y-14899500D01*
X34963389Y-14899500D01*
X34923728Y-14905781D01*
X34792302Y-14926597D01*
X34627552Y-14980128D01*
X34473211Y-15058768D01*
X34393366Y-15116780D01*
X34333072Y-15160586D01*
X34333070Y-15160588D01*
X34333069Y-15160588D01*
X34210588Y-15283069D01*
X34210588Y-15283070D01*
X34210586Y-15283072D01*
X34209740Y-15284237D01*
X34108768Y-15423211D01*
X34030128Y-15577552D01*
X33976597Y-15742302D01*
X33976597Y-15742303D01*
X33949500Y-15913389D01*
X33610500Y-15913389D01*
X33583402Y-15742299D01*
X33529873Y-15577555D01*
X33451232Y-15423212D01*
X33349414Y-15283072D01*
X33226928Y-15160586D01*
X33086788Y-15058768D01*
X32932445Y-14980127D01*
X32767701Y-14926598D01*
X32767699Y-14926597D01*
X32767698Y-14926597D01*
X32636271Y-14905781D01*
X32596611Y-14899500D01*
X32423389Y-14899500D01*
X32383728Y-14905781D01*
X32252302Y-14926597D01*
X32087552Y-14980128D01*
X31933211Y-15058768D01*
X31853366Y-15116780D01*
X31793072Y-15160586D01*
X31793070Y-15160588D01*
X31793069Y-15160588D01*
X31670588Y-15283069D01*
X31670588Y-15283070D01*
X31670586Y-15283072D01*
X31669740Y-15284237D01*
X31568768Y-15423211D01*
X31490128Y-15577552D01*
X31436597Y-15742302D01*
X31436597Y-15742303D01*
X31409500Y-15913389D01*
X31070500Y-15913389D01*
X31043402Y-15742299D01*
X30989873Y-15577555D01*
X30911232Y-15423212D01*
X30809414Y-15283072D01*
X30686928Y-15160586D01*
X30546788Y-15058768D01*
X30392445Y-14980127D01*
X30227701Y-14926598D01*
X30227699Y-14926597D01*
X30227698Y-14926597D01*
X30096271Y-14905781D01*
X30056611Y-14899500D01*
X29883389Y-14899500D01*
X29843728Y-14905781D01*
X29712302Y-14926597D01*
X29547552Y-14980128D01*
X29393211Y-15058768D01*
X29313366Y-15116780D01*
X29253072Y-15160586D01*
X29253070Y-15160588D01*
X29253069Y-15160588D01*
X29130588Y-15283069D01*
X29130588Y-15283070D01*
X29130586Y-15283072D01*
X29129740Y-15284237D01*
X29028768Y-15423211D01*
X28950128Y-15577552D01*
X28896597Y-15742302D01*
X28896597Y-15742303D01*
X28869500Y-15913389D01*
X28530500Y-15913389D01*
X28503402Y-15742299D01*
X28449873Y-15577555D01*
X28371232Y-15423212D01*
X28269414Y-15283072D01*
X28146928Y-15160586D01*
X28006788Y-15058768D01*
X27852445Y-14980127D01*
X27687701Y-14926598D01*
X27687699Y-14926597D01*
X27687698Y-14926597D01*
X27556271Y-14905781D01*
X27516611Y-14899500D01*
X27343389Y-14899500D01*
X27303728Y-14905781D01*
X27172302Y-14926597D01*
X27007552Y-14980128D01*
X26853211Y-15058768D01*
X26773366Y-15116780D01*
X26713072Y-15160586D01*
X26713070Y-15160588D01*
X26713069Y-15160588D01*
X26590588Y-15283069D01*
X26590588Y-15283070D01*
X26590586Y-15283072D01*
X26589740Y-15284237D01*
X26488768Y-15423211D01*
X26410128Y-15577552D01*
X26356597Y-15742302D01*
X26356597Y-15742303D01*
X26329500Y-15913389D01*
X25990500Y-15913389D01*
X25963402Y-15742299D01*
X25909873Y-15577555D01*
X25831232Y-15423212D01*
X25729414Y-15283072D01*
X25606928Y-15160586D01*
X25466788Y-15058768D01*
X25312445Y-14980127D01*
X25147701Y-14926598D01*
X25147699Y-14926597D01*
X25147698Y-14926597D01*
X25016271Y-14905781D01*
X24976611Y-14899500D01*
X24803389Y-14899500D01*
X24763728Y-14905781D01*
X24632302Y-14926597D01*
X24467552Y-14980128D01*
X24313211Y-15058768D01*
X24233366Y-15116780D01*
X24173072Y-15160586D01*
X24173070Y-15160588D01*
X24173069Y-15160588D01*
X24050588Y-15283069D01*
X24050588Y-15283070D01*
X24050586Y-15283072D01*
X24049740Y-15284237D01*
X23948768Y-15423211D01*
X23870128Y-15577552D01*
X23816597Y-15742302D01*
X23816597Y-15742303D01*
X23789500Y-15913389D01*
X23450500Y-15913389D01*
X23423402Y-15742299D01*
X23369873Y-15577555D01*
X23291232Y-15423212D01*
X23189414Y-15283072D01*
X23066928Y-15160586D01*
X22926788Y-15058768D01*
X22772445Y-14980127D01*
X22607701Y-14926598D01*
X22607699Y-14926597D01*
X22607698Y-14926597D01*
X22476271Y-14905781D01*
X22436611Y-14899500D01*
X22263389Y-14899500D01*
X22223728Y-14905781D01*
X22092302Y-14926597D01*
X21927552Y-14980128D01*
X21773211Y-15058768D01*
X21693366Y-15116780D01*
X21633072Y-15160586D01*
X21633070Y-15160588D01*
X21633069Y-15160588D01*
X21510588Y-15283069D01*
X21510588Y-15283070D01*
X21510586Y-15283072D01*
X21509740Y-15284237D01*
X21408768Y-15423211D01*
X21330128Y-15577552D01*
X21276597Y-15742302D01*
X21276597Y-15742303D01*
X21249500Y-15913389D01*
X20910500Y-15913389D01*
X20883402Y-15742299D01*
X20829873Y-15577555D01*
X20751232Y-15423212D01*
X20649414Y-15283072D01*
X20526928Y-15160586D01*
X20386788Y-15058768D01*
X20232445Y-14980127D01*
X20067701Y-14926598D01*
X20067699Y-14926597D01*
X20067698Y-14926597D01*
X19936271Y-14905781D01*
X19896611Y-14899500D01*
X19723389Y-14899500D01*
X19683728Y-14905781D01*
X19552302Y-14926597D01*
X19387552Y-14980128D01*
X19233211Y-15058768D01*
X19153366Y-15116780D01*
X19093072Y-15160586D01*
X19093070Y-15160588D01*
X19093069Y-15160588D01*
X18970588Y-15283069D01*
X18970588Y-15283070D01*
X18970586Y-15283072D01*
X18969740Y-15284237D01*
X18868768Y-15423211D01*
X18790128Y-15577552D01*
X18736597Y-15742302D01*
X18736597Y-15742303D01*
X18709500Y-15913389D01*
X18370500Y-15913389D01*
X18343402Y-15742299D01*
X18289873Y-15577555D01*
X18211232Y-15423212D01*
X18109414Y-15283072D01*
X17986928Y-15160586D01*
X17846788Y-15058768D01*
X17692445Y-14980127D01*
X17527701Y-14926598D01*
X17527699Y-14926597D01*
X17527698Y-14926597D01*
X17396271Y-14905781D01*
X17356611Y-14899500D01*
X17183389Y-14899500D01*
X17143728Y-14905781D01*
X17012302Y-14926597D01*
X16847552Y-14980128D01*
X16693211Y-15058768D01*
X16613366Y-15116780D01*
X16553072Y-15160586D01*
X16553070Y-15160588D01*
X16553069Y-15160588D01*
X16430588Y-15283069D01*
X16430588Y-15283070D01*
X16430586Y-15283072D01*
X16429740Y-15284237D01*
X16328768Y-15423211D01*
X16250128Y-15577552D01*
X16196597Y-15742302D01*
X16196597Y-15742303D01*
X16169500Y-15913389D01*
X15830500Y-15913389D01*
X15803402Y-15742299D01*
X15749873Y-15577555D01*
X15671232Y-15423212D01*
X15569414Y-15283072D01*
X15446928Y-15160586D01*
X15306788Y-15058768D01*
X15152445Y-14980127D01*
X14987701Y-14926598D01*
X14987699Y-14926597D01*
X14987698Y-14926597D01*
X14856271Y-14905781D01*
X14816611Y-14899500D01*
X14643389Y-14899500D01*
X14603728Y-14905781D01*
X14472302Y-14926597D01*
X14307552Y-14980128D01*
X14153211Y-15058768D01*
X14073366Y-15116780D01*
X14013072Y-15160586D01*
X14013070Y-15160588D01*
X14013069Y-15160588D01*
X13890588Y-15283069D01*
X13890588Y-15283070D01*
X13890586Y-15283072D01*
X13889740Y-15284237D01*
X13788768Y-15423211D01*
X13710128Y-15577552D01*
X13656597Y-15742302D01*
X13656597Y-15742303D01*
X13629500Y-15913389D01*
X13290500Y-15913389D01*
X13263402Y-15742299D01*
X13209873Y-15577555D01*
X13131232Y-15423212D01*
X13029414Y-15283072D01*
X12906928Y-15160586D01*
X12766788Y-15058768D01*
X12612445Y-14980127D01*
X12447701Y-14926598D01*
X12447699Y-14926597D01*
X12447698Y-14926597D01*
X12316271Y-14905781D01*
X12276611Y-14899500D01*
X12103389Y-14899500D01*
X12063728Y-14905781D01*
X11932302Y-14926597D01*
X11767552Y-14980128D01*
X11613211Y-15058768D01*
X11533366Y-15116780D01*
X11473072Y-15160586D01*
X11473070Y-15160588D01*
X11473069Y-15160588D01*
X11350588Y-15283069D01*
X11350588Y-15283070D01*
X11350586Y-15283072D01*
X11349740Y-15284237D01*
X11248768Y-15423211D01*
X11170128Y-15577552D01*
X11116597Y-15742302D01*
X11116597Y-15742303D01*
X11089500Y-15913389D01*
X10750500Y-15913389D01*
X10723402Y-15742299D01*
X10669873Y-15577555D01*
X10591232Y-15423212D01*
X10489414Y-15283072D01*
X10366928Y-15160586D01*
X10226788Y-15058768D01*
X10072445Y-14980127D01*
X9907701Y-14926598D01*
X9907699Y-14926597D01*
X9907698Y-14926597D01*
X9776271Y-14905781D01*
X9736611Y-14899500D01*
X9563389Y-14899500D01*
X9523728Y-14905781D01*
X9392302Y-14926597D01*
X9227552Y-14980128D01*
X9073211Y-15058768D01*
X8993366Y-15116780D01*
X8933072Y-15160586D01*
X8933070Y-15160588D01*
X8933069Y-15160588D01*
X8810588Y-15283069D01*
X8810588Y-15283070D01*
X8810586Y-15283072D01*
X8809740Y-15284237D01*
X8708768Y-15423211D01*
X8630128Y-15577552D01*
X8576597Y-15742302D01*
X8556472Y-15869367D01*
X8526543Y-15932502D01*
X8467231Y-15969433D01*
X8397369Y-15968435D01*
X8339136Y-15929825D01*
X8311022Y-15865861D01*
X8309999Y-15849969D01*
X8309999Y-15116782D01*
X8300087Y-15048750D01*
X8248784Y-14943808D01*
X8166188Y-14861212D01*
X8061251Y-14809912D01*
X8061248Y-14809911D01*
X7993220Y-14800000D01*
X7285000Y-14800000D01*
X7285000Y-15529253D01*
X7175826Y-15500000D01*
X7044174Y-15500000D01*
X6935000Y-15529253D01*
X6935000Y-14800000D01*
X6226782Y-14800000D01*
X6158750Y-14809912D01*
X6053808Y-14861215D01*
X5971212Y-14943811D01*
X5919912Y-15048748D01*
X5919911Y-15048751D01*
X5910000Y-15116780D01*
X500500Y-15116780D01*
X500500Y-3499998D01*
X1000000Y-3499998D01*
X1000000Y-3500001D01*
X1085184Y-4147045D01*
X1085185Y-4147047D01*
X1242288Y-4526329D01*
X1334936Y-4750000D01*
X1732233Y-5267766D01*
X2250000Y-5665063D01*
X2852952Y-5914814D01*
X3176476Y-5957407D01*
X3499999Y-6000000D01*
X3500000Y-6000000D01*
X3500001Y-6000000D01*
X3715682Y-5971604D01*
X3854039Y-5953389D01*
X6009500Y-5953389D01*
X6009500Y-6126611D01*
X6012844Y-6147722D01*
X6036597Y-6297697D01*
X6036597Y-6297699D01*
X6036598Y-6297701D01*
X6090127Y-6462445D01*
X6168768Y-6616788D01*
X6270586Y-6756928D01*
X6393072Y-6879414D01*
X6533212Y-6981232D01*
X6687555Y-7059873D01*
X6852299Y-7113402D01*
X7023389Y-7140500D01*
X7023390Y-7140500D01*
X7196610Y-7140500D01*
X7196611Y-7140500D01*
X7367701Y-7113402D01*
X7532445Y-7059873D01*
X7686788Y-6981232D01*
X7826928Y-6879414D01*
X7949414Y-6756928D01*
X8051232Y-6616788D01*
X8129873Y-6462445D01*
X8183402Y-6297701D01*
X8210500Y-6126611D01*
X8210500Y-5953389D01*
X8549500Y-5953389D01*
X8549500Y-6126611D01*
X8552844Y-6147722D01*
X8576597Y-6297697D01*
X8576597Y-6297699D01*
X8576598Y-6297701D01*
X8630127Y-6462445D01*
X8708768Y-6616788D01*
X8810586Y-6756928D01*
X8933072Y-6879414D01*
X9073212Y-6981232D01*
X9227555Y-7059873D01*
X9392299Y-7113402D01*
X9563389Y-7140500D01*
X9563390Y-7140500D01*
X9736610Y-7140500D01*
X9736611Y-7140500D01*
X9907701Y-7113402D01*
X10072445Y-7059873D01*
X10226788Y-6981232D01*
X10366928Y-6879414D01*
X10489414Y-6756928D01*
X10591232Y-6616788D01*
X10669873Y-6462445D01*
X10723402Y-6297701D01*
X10747156Y-6147720D01*
X10777085Y-6084587D01*
X10836396Y-6047655D01*
X10906259Y-6048653D01*
X10964492Y-6087262D01*
X10992102Y-6147720D01*
X11019548Y-6321002D01*
X11077914Y-6500637D01*
X11163666Y-6668933D01*
X11226749Y-6755761D01*
X11733387Y-6249123D01*
X11789901Y-6347007D01*
X11882993Y-6440099D01*
X11980875Y-6496611D01*
X11474237Y-7003248D01*
X11474237Y-7003249D01*
X11561066Y-7066333D01*
X11729362Y-7152085D01*
X11908997Y-7210451D01*
X12095553Y-7240000D01*
X12284447Y-7240000D01*
X12471002Y-7210451D01*
X12650637Y-7152085D01*
X12818940Y-7066329D01*
X12905761Y-7003251D01*
X12905762Y-7003249D01*
X12399124Y-6496611D01*
X12497007Y-6440099D01*
X12590099Y-6347007D01*
X12646611Y-6249124D01*
X13153249Y-6755762D01*
X13153251Y-6755761D01*
X13216329Y-6668940D01*
X13302085Y-6500637D01*
X13360451Y-6321002D01*
X13387897Y-6147721D01*
X13417826Y-6084586D01*
X13477138Y-6047655D01*
X13547000Y-6048653D01*
X13605233Y-6087263D01*
X13632843Y-6147721D01*
X13656597Y-6297697D01*
X13656597Y-6297699D01*
X13656598Y-6297701D01*
X13710127Y-6462445D01*
X13788768Y-6616788D01*
X13890586Y-6756928D01*
X14013072Y-6879414D01*
X14153212Y-6981232D01*
X14307555Y-7059873D01*
X14472299Y-7113402D01*
X14643389Y-7140500D01*
X14643390Y-7140500D01*
X14816610Y-7140500D01*
X14816611Y-7140500D01*
X14987701Y-7113402D01*
X15152445Y-7059873D01*
X15306788Y-6981232D01*
X15446928Y-6879414D01*
X15569414Y-6756928D01*
X15671232Y-6616788D01*
X15749873Y-6462445D01*
X15803402Y-6297701D01*
X15830500Y-6126611D01*
X15830500Y-5953389D01*
X15803402Y-5782299D01*
X15749873Y-5617555D01*
X15671232Y-5463212D01*
X15569414Y-5323072D01*
X15446928Y-5200586D01*
X15306788Y-5098768D01*
X15152445Y-5020127D01*
X14987701Y-4966598D01*
X14987699Y-4966597D01*
X14987698Y-4966597D01*
X14856271Y-4945781D01*
X14816611Y-4939500D01*
X14643389Y-4939500D01*
X14603728Y-4945781D01*
X14472302Y-4966597D01*
X14307552Y-5020128D01*
X14153211Y-5098768D01*
X14073256Y-5156859D01*
X14013072Y-5200586D01*
X14013070Y-5200588D01*
X14013069Y-5200588D01*
X13890588Y-5323069D01*
X13890588Y-5323070D01*
X13890586Y-5323072D01*
X13889740Y-5324237D01*
X13788768Y-5463211D01*
X13710128Y-5617552D01*
X13656597Y-5782302D01*
X13632843Y-5932278D01*
X13602914Y-5995413D01*
X13543602Y-6032344D01*
X13473739Y-6031346D01*
X13415507Y-5992736D01*
X13387897Y-5932278D01*
X13360451Y-5758997D01*
X13302085Y-5579362D01*
X13216333Y-5411066D01*
X13153249Y-5324237D01*
X13153248Y-5324237D01*
X12646611Y-5830875D01*
X12590099Y-5732993D01*
X12497007Y-5639901D01*
X12399123Y-5583388D01*
X12905761Y-5076749D01*
X12818933Y-5013666D01*
X12650637Y-4927914D01*
X12471002Y-4869548D01*
X12297720Y-4842102D01*
X12234586Y-4812172D01*
X12197655Y-4752861D01*
X12198653Y-4682998D01*
X12237263Y-4624766D01*
X12297720Y-4597156D01*
X12391306Y-4582334D01*
X12447696Y-4573403D01*
X12447696Y-4573402D01*
X12447701Y-4573402D01*
X12612445Y-4519873D01*
X12766788Y-4441232D01*
X12906928Y-4339414D01*
X13029414Y-4216928D01*
X13131232Y-4076788D01*
X13209873Y-3922445D01*
X13263402Y-3757701D01*
X13290500Y-3586611D01*
X13290500Y-3413389D01*
X13629500Y-3413389D01*
X13629500Y-3586611D01*
X13656598Y-3757701D01*
X13710127Y-3922445D01*
X13788768Y-4076788D01*
X13890586Y-4216928D01*
X14013072Y-4339414D01*
X14153212Y-4441232D01*
X14307555Y-4519873D01*
X14472299Y-4573402D01*
X14643389Y-4600500D01*
X14643390Y-4600500D01*
X14816610Y-4600500D01*
X14816611Y-4600500D01*
X14987701Y-4573402D01*
X15152445Y-4519873D01*
X15306788Y-4441232D01*
X15446928Y-4339414D01*
X15569414Y-4216928D01*
X15671232Y-4076788D01*
X15749873Y-3922445D01*
X15803402Y-3757701D01*
X15827156Y-3607720D01*
X15857085Y-3544587D01*
X15916396Y-3507655D01*
X15986259Y-3508653D01*
X16044492Y-3547262D01*
X16072102Y-3607720D01*
X16099548Y-3781002D01*
X16157914Y-3960637D01*
X16243666Y-4128933D01*
X16306749Y-4215761D01*
X16813387Y-3709123D01*
X16869901Y-3807007D01*
X16962993Y-3900099D01*
X17060875Y-3956611D01*
X16554237Y-4463248D01*
X16554237Y-4463249D01*
X16641066Y-4526333D01*
X16809362Y-4612085D01*
X16988997Y-4670451D01*
X17162278Y-4697897D01*
X17225413Y-4727826D01*
X17262344Y-4787138D01*
X17261346Y-4857000D01*
X17222736Y-4915233D01*
X17162278Y-4942843D01*
X17012302Y-4966597D01*
X16847552Y-5020128D01*
X16693211Y-5098768D01*
X16613256Y-5156859D01*
X16553072Y-5200586D01*
X16553070Y-5200588D01*
X16553069Y-5200588D01*
X16430588Y-5323069D01*
X16430588Y-5323070D01*
X16430586Y-5323072D01*
X16429740Y-5324237D01*
X16328768Y-5463211D01*
X16250128Y-5617552D01*
X16196597Y-5782302D01*
X16196597Y-5782303D01*
X16169500Y-5953389D01*
X16169500Y-6126611D01*
X16172844Y-6147722D01*
X16196597Y-6297697D01*
X16196597Y-6297699D01*
X16196598Y-6297701D01*
X16250127Y-6462445D01*
X16328768Y-6616788D01*
X16430586Y-6756928D01*
X16553072Y-6879414D01*
X16693212Y-6981232D01*
X16847555Y-7059873D01*
X17012299Y-7113402D01*
X17183389Y-7140500D01*
X17183390Y-7140500D01*
X17356610Y-7140500D01*
X17356611Y-7140500D01*
X17527701Y-7113402D01*
X17692445Y-7059873D01*
X17846788Y-6981232D01*
X17986928Y-6879414D01*
X18109414Y-6756928D01*
X18211232Y-6616788D01*
X18289873Y-6462445D01*
X18343402Y-6297701D01*
X18370500Y-6126611D01*
X18370500Y-5953389D01*
X18709500Y-5953389D01*
X18709500Y-6126611D01*
X18712844Y-6147722D01*
X18736597Y-6297697D01*
X18736597Y-6297699D01*
X18736598Y-6297701D01*
X18790127Y-6462445D01*
X18868768Y-6616788D01*
X18970586Y-6756928D01*
X19093072Y-6879414D01*
X19233212Y-6981232D01*
X19387555Y-7059873D01*
X19552299Y-7113402D01*
X19723389Y-7140500D01*
X19723390Y-7140500D01*
X19896610Y-7140500D01*
X19896611Y-7140500D01*
X20067701Y-7113402D01*
X20232445Y-7059873D01*
X20386788Y-6981232D01*
X20526928Y-6879414D01*
X20649414Y-6756928D01*
X20751232Y-6616788D01*
X20829873Y-6462445D01*
X20883402Y-6297701D01*
X20907156Y-6147720D01*
X20937085Y-6084587D01*
X20996396Y-6047655D01*
X21066259Y-6048653D01*
X21124492Y-6087262D01*
X21152102Y-6147720D01*
X21179548Y-6321002D01*
X21237914Y-6500637D01*
X21323666Y-6668933D01*
X21386749Y-6755761D01*
X21893387Y-6249123D01*
X21949901Y-6347007D01*
X22042993Y-6440099D01*
X22140875Y-6496611D01*
X21634237Y-7003248D01*
X21634237Y-7003249D01*
X21721066Y-7066333D01*
X21889362Y-7152085D01*
X22068997Y-7210451D01*
X22255553Y-7240000D01*
X22444447Y-7240000D01*
X22631002Y-7210451D01*
X22810637Y-7152085D01*
X22978940Y-7066329D01*
X23065761Y-7003251D01*
X23065762Y-7003249D01*
X22559124Y-6496611D01*
X22657007Y-6440099D01*
X22750099Y-6347007D01*
X22806611Y-6249124D01*
X23313249Y-6755762D01*
X23313251Y-6755761D01*
X23376329Y-6668940D01*
X23462085Y-6500637D01*
X23520451Y-6321002D01*
X23547897Y-6147721D01*
X23577826Y-6084586D01*
X23637138Y-6047655D01*
X23707000Y-6048653D01*
X23765233Y-6087263D01*
X23792843Y-6147721D01*
X23816597Y-6297697D01*
X23816597Y-6297699D01*
X23816598Y-6297701D01*
X23870127Y-6462445D01*
X23948768Y-6616788D01*
X24050586Y-6756928D01*
X24173072Y-6879414D01*
X24313212Y-6981232D01*
X24467555Y-7059873D01*
X24632299Y-7113402D01*
X24803389Y-7140500D01*
X24803390Y-7140500D01*
X24976610Y-7140500D01*
X24976611Y-7140500D01*
X25147701Y-7113402D01*
X25312445Y-7059873D01*
X25466788Y-6981232D01*
X25606928Y-6879414D01*
X25729414Y-6756928D01*
X25831232Y-6616788D01*
X25909873Y-6462445D01*
X25963402Y-6297701D01*
X25990500Y-6126611D01*
X25990500Y-5953389D01*
X26329500Y-5953389D01*
X26329500Y-6126611D01*
X26332844Y-6147722D01*
X26356597Y-6297697D01*
X26356597Y-6297699D01*
X26356598Y-6297701D01*
X26410127Y-6462445D01*
X26488768Y-6616788D01*
X26590586Y-6756928D01*
X26713072Y-6879414D01*
X26853212Y-6981232D01*
X27007555Y-7059873D01*
X27172299Y-7113402D01*
X27343389Y-7140500D01*
X27343390Y-7140500D01*
X27516610Y-7140500D01*
X27516611Y-7140500D01*
X27687701Y-7113402D01*
X27852445Y-7059873D01*
X28006788Y-6981232D01*
X28146928Y-6879414D01*
X28269414Y-6756928D01*
X28371232Y-6616788D01*
X28449873Y-6462445D01*
X28503402Y-6297701D01*
X28527156Y-6147720D01*
X28557085Y-6084587D01*
X28616396Y-6047655D01*
X28686259Y-6048653D01*
X28744492Y-6087262D01*
X28772102Y-6147720D01*
X28799548Y-6321002D01*
X28857914Y-6500637D01*
X28943666Y-6668933D01*
X29006749Y-6755761D01*
X29513387Y-6249123D01*
X29569901Y-6347007D01*
X29662993Y-6440099D01*
X29760875Y-6496611D01*
X29254237Y-7003248D01*
X29254237Y-7003249D01*
X29341066Y-7066333D01*
X29509362Y-7152085D01*
X29688997Y-7210451D01*
X29875553Y-7240000D01*
X30064447Y-7240000D01*
X30251002Y-7210451D01*
X30430637Y-7152085D01*
X30598940Y-7066329D01*
X30685761Y-7003251D01*
X30685762Y-7003249D01*
X30179124Y-6496611D01*
X30277007Y-6440099D01*
X30370099Y-6347007D01*
X30426611Y-6249124D01*
X30933249Y-6755762D01*
X30933251Y-6755761D01*
X30996329Y-6668940D01*
X31082085Y-6500637D01*
X31140451Y-6321002D01*
X31167897Y-6147721D01*
X31197826Y-6084586D01*
X31257138Y-6047655D01*
X31327000Y-6048653D01*
X31385233Y-6087263D01*
X31412843Y-6147721D01*
X31436597Y-6297697D01*
X31436597Y-6297699D01*
X31436598Y-6297701D01*
X31490127Y-6462445D01*
X31568768Y-6616788D01*
X31670586Y-6756928D01*
X31793072Y-6879414D01*
X31933212Y-6981232D01*
X32087555Y-7059873D01*
X32252299Y-7113402D01*
X32423389Y-7140500D01*
X32423390Y-7140500D01*
X32596610Y-7140500D01*
X32596611Y-7140500D01*
X32767701Y-7113402D01*
X32932445Y-7059873D01*
X33086788Y-6981232D01*
X33226928Y-6879414D01*
X33349414Y-6756928D01*
X33451232Y-6616788D01*
X33529873Y-6462445D01*
X33583402Y-6297701D01*
X33610500Y-6126611D01*
X33610500Y-5953389D01*
X33949500Y-5953389D01*
X33949500Y-6126611D01*
X33952844Y-6147722D01*
X33976597Y-6297697D01*
X33976597Y-6297699D01*
X33976598Y-6297701D01*
X34030127Y-6462445D01*
X34108768Y-6616788D01*
X34210586Y-6756928D01*
X34333072Y-6879414D01*
X34473212Y-6981232D01*
X34627555Y-7059873D01*
X34792299Y-7113402D01*
X34963389Y-7140500D01*
X34963390Y-7140500D01*
X35136610Y-7140500D01*
X35136611Y-7140500D01*
X35307701Y-7113402D01*
X35472445Y-7059873D01*
X35626788Y-6981232D01*
X35766928Y-6879414D01*
X35889414Y-6756928D01*
X35991232Y-6616788D01*
X36069873Y-6462445D01*
X36123402Y-6297701D01*
X36150500Y-6126611D01*
X36150500Y-5953389D01*
X36123402Y-5782299D01*
X36069873Y-5617555D01*
X35991232Y-5463212D01*
X35889414Y-5323072D01*
X35766928Y-5200586D01*
X35626788Y-5098768D01*
X35472445Y-5020127D01*
X35307701Y-4966598D01*
X35307699Y-4966597D01*
X35307698Y-4966597D01*
X35176271Y-4945781D01*
X35136611Y-4939500D01*
X34963389Y-4939500D01*
X34923728Y-4945781D01*
X34792302Y-4966597D01*
X34627552Y-5020128D01*
X34473211Y-5098768D01*
X34393256Y-5156859D01*
X34333072Y-5200586D01*
X34333070Y-5200588D01*
X34333069Y-5200588D01*
X34210588Y-5323069D01*
X34210588Y-5323070D01*
X34210586Y-5323072D01*
X34209740Y-5324237D01*
X34108768Y-5463211D01*
X34030128Y-5617552D01*
X33976597Y-5782302D01*
X33976597Y-5782303D01*
X33949500Y-5953389D01*
X33610500Y-5953389D01*
X33583402Y-5782299D01*
X33529873Y-5617555D01*
X33451232Y-5463212D01*
X33349414Y-5323072D01*
X33226928Y-5200586D01*
X33086788Y-5098768D01*
X32932445Y-5020127D01*
X32767701Y-4966598D01*
X32767699Y-4966597D01*
X32767698Y-4966597D01*
X32636271Y-4945781D01*
X32596611Y-4939500D01*
X32423389Y-4939500D01*
X32383728Y-4945781D01*
X32252302Y-4966597D01*
X32087552Y-5020128D01*
X31933211Y-5098768D01*
X31853256Y-5156859D01*
X31793072Y-5200586D01*
X31793070Y-5200588D01*
X31793069Y-5200588D01*
X31670588Y-5323069D01*
X31670588Y-5323070D01*
X31670586Y-5323072D01*
X31669740Y-5324237D01*
X31568768Y-5463211D01*
X31490128Y-5617552D01*
X31436597Y-5782302D01*
X31412843Y-5932278D01*
X31382914Y-5995413D01*
X31323602Y-6032344D01*
X31253739Y-6031346D01*
X31195507Y-5992736D01*
X31167897Y-5932278D01*
X31140451Y-5758997D01*
X31082085Y-5579362D01*
X30996333Y-5411066D01*
X30933249Y-5324237D01*
X30933248Y-5324237D01*
X30426611Y-5830875D01*
X30370099Y-5732993D01*
X30277007Y-5639901D01*
X30179123Y-5583388D01*
X30685761Y-5076749D01*
X30598933Y-5013666D01*
X30430637Y-4927914D01*
X30251002Y-4869548D01*
X30077720Y-4842102D01*
X30014586Y-4812172D01*
X29977655Y-4752861D01*
X29978653Y-4682998D01*
X30017263Y-4624766D01*
X30077720Y-4597156D01*
X30171306Y-4582334D01*
X30227696Y-4573403D01*
X30227696Y-4573402D01*
X30227701Y-4573402D01*
X30392445Y-4519873D01*
X30546788Y-4441232D01*
X30686928Y-4339414D01*
X30809414Y-4216928D01*
X30911232Y-4076788D01*
X30989873Y-3922445D01*
X31043402Y-3757701D01*
X31070500Y-3586611D01*
X31070500Y-3413389D01*
X31409500Y-3413389D01*
X31409500Y-3586611D01*
X31436598Y-3757701D01*
X31490127Y-3922445D01*
X31568768Y-4076788D01*
X31670586Y-4216928D01*
X31793072Y-4339414D01*
X31933212Y-4441232D01*
X32087555Y-4519873D01*
X32252299Y-4573402D01*
X32423389Y-4600500D01*
X32423390Y-4600500D01*
X32596610Y-4600500D01*
X32596611Y-4600500D01*
X32767701Y-4573402D01*
X32932445Y-4519873D01*
X33086788Y-4441232D01*
X33226928Y-4339414D01*
X33349414Y-4216928D01*
X33451232Y-4076788D01*
X33529873Y-3922445D01*
X33583402Y-3757701D01*
X33610500Y-3586611D01*
X33610500Y-3413389D01*
X33949500Y-3413389D01*
X33949500Y-3586611D01*
X33976598Y-3757701D01*
X34030127Y-3922445D01*
X34108768Y-4076788D01*
X34210586Y-4216928D01*
X34333072Y-4339414D01*
X34473212Y-4441232D01*
X34627555Y-4519873D01*
X34792299Y-4573402D01*
X34963389Y-4600500D01*
X34963390Y-4600500D01*
X35136610Y-4600500D01*
X35136611Y-4600500D01*
X35307701Y-4573402D01*
X35472445Y-4519873D01*
X35626788Y-4441232D01*
X35766928Y-4339414D01*
X35889414Y-4216928D01*
X35991232Y-4076788D01*
X36069873Y-3922445D01*
X36123402Y-3757701D01*
X36147156Y-3607720D01*
X36177085Y-3544587D01*
X36236396Y-3507655D01*
X36306259Y-3508653D01*
X36364492Y-3547262D01*
X36392102Y-3607720D01*
X36419548Y-3781002D01*
X36477914Y-3960637D01*
X36563666Y-4128933D01*
X36626749Y-4215761D01*
X37133387Y-3709123D01*
X37189901Y-3807007D01*
X37282993Y-3900099D01*
X37380875Y-3956611D01*
X36874237Y-4463248D01*
X36874237Y-4463249D01*
X36961066Y-4526333D01*
X37129362Y-4612085D01*
X37308997Y-4670451D01*
X37482278Y-4697897D01*
X37545413Y-4727826D01*
X37582344Y-4787138D01*
X37581346Y-4857000D01*
X37542736Y-4915233D01*
X37482278Y-4942843D01*
X37332302Y-4966597D01*
X37167552Y-5020128D01*
X37013211Y-5098768D01*
X36933256Y-5156859D01*
X36873072Y-5200586D01*
X36873070Y-5200588D01*
X36873069Y-5200588D01*
X36750588Y-5323069D01*
X36750588Y-5323070D01*
X36750586Y-5323072D01*
X36749740Y-5324237D01*
X36648768Y-5463211D01*
X36570128Y-5617552D01*
X36516597Y-5782302D01*
X36516597Y-5782303D01*
X36489500Y-5953389D01*
X36489500Y-6126611D01*
X36492844Y-6147722D01*
X36516597Y-6297697D01*
X36516597Y-6297699D01*
X36516598Y-6297701D01*
X36570127Y-6462445D01*
X36648768Y-6616788D01*
X36750586Y-6756928D01*
X36873072Y-6879414D01*
X37013212Y-6981232D01*
X37167555Y-7059873D01*
X37332299Y-7113402D01*
X37503389Y-7140500D01*
X37503390Y-7140500D01*
X37676610Y-7140500D01*
X37676611Y-7140500D01*
X37847701Y-7113402D01*
X38012445Y-7059873D01*
X38166788Y-6981232D01*
X38306928Y-6879414D01*
X38429414Y-6756928D01*
X38531232Y-6616788D01*
X38609873Y-6462445D01*
X38663402Y-6297701D01*
X38690500Y-6126611D01*
X38690500Y-5953389D01*
X39029500Y-5953389D01*
X39029500Y-6126611D01*
X39032844Y-6147722D01*
X39056597Y-6297697D01*
X39056597Y-6297699D01*
X39056598Y-6297701D01*
X39110127Y-6462445D01*
X39188768Y-6616788D01*
X39290586Y-6756928D01*
X39413072Y-6879414D01*
X39553212Y-6981232D01*
X39707555Y-7059873D01*
X39872299Y-7113402D01*
X40043389Y-7140500D01*
X40043390Y-7140500D01*
X40216610Y-7140500D01*
X40216611Y-7140500D01*
X40387701Y-7113402D01*
X40552445Y-7059873D01*
X40706788Y-6981232D01*
X40846928Y-6879414D01*
X40969414Y-6756928D01*
X41071232Y-6616788D01*
X41149873Y-6462445D01*
X41203402Y-6297701D01*
X41227156Y-6147720D01*
X41257085Y-6084587D01*
X41316396Y-6047655D01*
X41386259Y-6048653D01*
X41444492Y-6087262D01*
X41472102Y-6147720D01*
X41499548Y-6321002D01*
X41557914Y-6500637D01*
X41643666Y-6668933D01*
X41706749Y-6755761D01*
X42213387Y-6249123D01*
X42269901Y-6347007D01*
X42362993Y-6440099D01*
X42460875Y-6496611D01*
X41954237Y-7003248D01*
X41954237Y-7003249D01*
X42041066Y-7066333D01*
X42209362Y-7152085D01*
X42388997Y-7210451D01*
X42575553Y-7240000D01*
X42764447Y-7240000D01*
X42951002Y-7210451D01*
X43130637Y-7152085D01*
X43298940Y-7066329D01*
X43385761Y-7003251D01*
X43385762Y-7003249D01*
X42879124Y-6496611D01*
X42977007Y-6440099D01*
X43070099Y-6347007D01*
X43126611Y-6249124D01*
X43633249Y-6755762D01*
X43633251Y-6755761D01*
X43696329Y-6668940D01*
X43782085Y-6500637D01*
X43840451Y-6321002D01*
X43867897Y-6147721D01*
X43897826Y-6084586D01*
X43957138Y-6047655D01*
X44027000Y-6048653D01*
X44085233Y-6087263D01*
X44112843Y-6147721D01*
X44136597Y-6297697D01*
X44136597Y-6297699D01*
X44136598Y-6297701D01*
X44190127Y-6462445D01*
X44268768Y-6616788D01*
X44370586Y-6756928D01*
X44493072Y-6879414D01*
X44633212Y-6981232D01*
X44787555Y-7059873D01*
X44952299Y-7113402D01*
X45123389Y-7140500D01*
X45123390Y-7140500D01*
X45296610Y-7140500D01*
X45296611Y-7140500D01*
X45467701Y-7113402D01*
X45632445Y-7059873D01*
X45786788Y-6981232D01*
X45926928Y-6879414D01*
X46049414Y-6756928D01*
X46151232Y-6616788D01*
X46229873Y-6462445D01*
X46283402Y-6297701D01*
X46307156Y-6147720D01*
X46337085Y-6084587D01*
X46396396Y-6047655D01*
X46466259Y-6048653D01*
X46524492Y-6087262D01*
X46552102Y-6147720D01*
X46579548Y-6321002D01*
X46637914Y-6500637D01*
X46723666Y-6668933D01*
X46786749Y-6755761D01*
X47293387Y-6249123D01*
X47349901Y-6347007D01*
X47442993Y-6440099D01*
X47540875Y-6496611D01*
X47034237Y-7003248D01*
X47034237Y-7003249D01*
X47121066Y-7066333D01*
X47289362Y-7152085D01*
X47468997Y-7210451D01*
X47655553Y-7240000D01*
X47844447Y-7240000D01*
X48031002Y-7210451D01*
X48210637Y-7152085D01*
X48378940Y-7066329D01*
X48465761Y-7003251D01*
X48465762Y-7003249D01*
X47959124Y-6496611D01*
X48057007Y-6440099D01*
X48150099Y-6347007D01*
X48206611Y-6249124D01*
X48713249Y-6755762D01*
X48713251Y-6755761D01*
X48776329Y-6668940D01*
X48862085Y-6500637D01*
X48920451Y-6321002D01*
X48947897Y-6147721D01*
X48977826Y-6084586D01*
X49037138Y-6047655D01*
X49107000Y-6048653D01*
X49165233Y-6087263D01*
X49192843Y-6147721D01*
X49216597Y-6297697D01*
X49216597Y-6297699D01*
X49216598Y-6297701D01*
X49270127Y-6462445D01*
X49348768Y-6616788D01*
X49450586Y-6756928D01*
X49573072Y-6879414D01*
X49713212Y-6981232D01*
X49867555Y-7059873D01*
X50032299Y-7113402D01*
X50203389Y-7140500D01*
X50203390Y-7140500D01*
X50376610Y-7140500D01*
X50376611Y-7140500D01*
X50547701Y-7113402D01*
X50712445Y-7059873D01*
X50866788Y-6981232D01*
X51006928Y-6879414D01*
X51129414Y-6756928D01*
X51231232Y-6616788D01*
X51309873Y-6462445D01*
X51363402Y-6297701D01*
X51390500Y-6126611D01*
X51390500Y-5953389D01*
X51729500Y-5953389D01*
X51729500Y-6126611D01*
X51732844Y-6147722D01*
X51756597Y-6297697D01*
X51756597Y-6297699D01*
X51756598Y-6297701D01*
X51810127Y-6462445D01*
X51888768Y-6616788D01*
X51990586Y-6756928D01*
X52113072Y-6879414D01*
X52253212Y-6981232D01*
X52407555Y-7059873D01*
X52572299Y-7113402D01*
X52743389Y-7140500D01*
X52743390Y-7140500D01*
X52916610Y-7140500D01*
X52916611Y-7140500D01*
X53087701Y-7113402D01*
X53252445Y-7059873D01*
X53406788Y-6981232D01*
X53546928Y-6879414D01*
X53669414Y-6756928D01*
X53771232Y-6616788D01*
X53849873Y-6462445D01*
X53903402Y-6297701D01*
X53930500Y-6126611D01*
X53930500Y-5953389D01*
X53903402Y-5782299D01*
X53849873Y-5617555D01*
X53771232Y-5463212D01*
X53669414Y-5323072D01*
X53546928Y-5200586D01*
X53406788Y-5098768D01*
X53252445Y-5020127D01*
X53087701Y-4966598D01*
X53087699Y-4966597D01*
X53087698Y-4966597D01*
X52956271Y-4945781D01*
X52916611Y-4939500D01*
X52743389Y-4939500D01*
X52703728Y-4945781D01*
X52572302Y-4966597D01*
X52407552Y-5020128D01*
X52253211Y-5098768D01*
X52173256Y-5156859D01*
X52113072Y-5200586D01*
X52113070Y-5200588D01*
X52113069Y-5200588D01*
X51990588Y-5323069D01*
X51990588Y-5323070D01*
X51990586Y-5323072D01*
X51989740Y-5324237D01*
X51888768Y-5463211D01*
X51810128Y-5617552D01*
X51756597Y-5782302D01*
X51756597Y-5782303D01*
X51729500Y-5953389D01*
X51390500Y-5953389D01*
X51363402Y-5782299D01*
X51309873Y-5617555D01*
X51231232Y-5463212D01*
X51129414Y-5323072D01*
X51006928Y-5200586D01*
X50866788Y-5098768D01*
X50712445Y-5020127D01*
X50547701Y-4966598D01*
X50547699Y-4966597D01*
X50547698Y-4966597D01*
X50416271Y-4945781D01*
X50376611Y-4939500D01*
X50203389Y-4939500D01*
X50163728Y-4945781D01*
X50032302Y-4966597D01*
X49867552Y-5020128D01*
X49713211Y-5098768D01*
X49633256Y-5156859D01*
X49573072Y-5200586D01*
X49573070Y-5200588D01*
X49573069Y-5200588D01*
X49450588Y-5323069D01*
X49450588Y-5323070D01*
X49450586Y-5323072D01*
X49449740Y-5324237D01*
X49348768Y-5463211D01*
X49270128Y-5617552D01*
X49216597Y-5782302D01*
X49192843Y-5932278D01*
X49162914Y-5995413D01*
X49103602Y-6032344D01*
X49033739Y-6031346D01*
X48975507Y-5992736D01*
X48947897Y-5932278D01*
X48920451Y-5758997D01*
X48862085Y-5579362D01*
X48776333Y-5411066D01*
X48713249Y-5324237D01*
X48713248Y-5324237D01*
X48206611Y-5830875D01*
X48150099Y-5732993D01*
X48057007Y-5639901D01*
X47959123Y-5583388D01*
X48465761Y-5076749D01*
X48378933Y-5013666D01*
X48210637Y-4927914D01*
X48031002Y-4869548D01*
X47857720Y-4842102D01*
X47794586Y-4812172D01*
X47757655Y-4752861D01*
X47758653Y-4682998D01*
X47797263Y-4624766D01*
X47857720Y-4597156D01*
X47951306Y-4582334D01*
X48007696Y-4573403D01*
X48007696Y-4573402D01*
X48007701Y-4573402D01*
X48172445Y-4519873D01*
X48326788Y-4441232D01*
X48466928Y-4339414D01*
X48589414Y-4216928D01*
X48691232Y-4076788D01*
X48769873Y-3922445D01*
X48823402Y-3757701D01*
X48850500Y-3586611D01*
X48850500Y-3413389D01*
X49189500Y-3413389D01*
X49189500Y-3586611D01*
X49216598Y-3757701D01*
X49270127Y-3922445D01*
X49348768Y-4076788D01*
X49450586Y-4216928D01*
X49573072Y-4339414D01*
X49713212Y-4441232D01*
X49867555Y-4519873D01*
X50032299Y-4573402D01*
X50203389Y-4600500D01*
X50203390Y-4600500D01*
X50376610Y-4600500D01*
X50376611Y-4600500D01*
X50547701Y-4573402D01*
X50712445Y-4519873D01*
X50866788Y-4441232D01*
X51006928Y-4339414D01*
X51129414Y-4216928D01*
X51231232Y-4076788D01*
X51309873Y-3922445D01*
X51363402Y-3757701D01*
X51390500Y-3586611D01*
X51390500Y-3413389D01*
X51363402Y-3242299D01*
X51309873Y-3077555D01*
X51231232Y-2923212D01*
X51129414Y-2783072D01*
X51006928Y-2660586D01*
X50866788Y-2558768D01*
X50712445Y-2480127D01*
X50547701Y-2426598D01*
X50547699Y-2426597D01*
X50547698Y-2426597D01*
X50416271Y-2405781D01*
X50376611Y-2399500D01*
X50203389Y-2399500D01*
X50163728Y-2405781D01*
X50032302Y-2426597D01*
X49867552Y-2480128D01*
X49713211Y-2558768D01*
X49639563Y-2612277D01*
X49573072Y-2660586D01*
X49573070Y-2660588D01*
X49573069Y-2660588D01*
X49450588Y-2783069D01*
X49450588Y-2783070D01*
X49450586Y-2783072D01*
X49449740Y-2784237D01*
X49348768Y-2923211D01*
X49270128Y-3077552D01*
X49216597Y-3242302D01*
X49192844Y-3392277D01*
X49189500Y-3413389D01*
X48850500Y-3413389D01*
X48823402Y-3242299D01*
X48769873Y-3077555D01*
X48691232Y-2923212D01*
X48589414Y-2783072D01*
X48466928Y-2660586D01*
X48326788Y-2558768D01*
X48172445Y-2480127D01*
X48007701Y-2426598D01*
X48007699Y-2426597D01*
X48007698Y-2426597D01*
X47876271Y-2405781D01*
X47836611Y-2399500D01*
X47663389Y-2399500D01*
X47623728Y-2405781D01*
X47492302Y-2426597D01*
X47327552Y-2480128D01*
X47173211Y-2558768D01*
X47099563Y-2612277D01*
X47033072Y-2660586D01*
X47033070Y-2660588D01*
X47033069Y-2660588D01*
X46910588Y-2783069D01*
X46910588Y-2783070D01*
X46910586Y-2783072D01*
X46909740Y-2784237D01*
X46808768Y-2923211D01*
X46730128Y-3077552D01*
X46676597Y-3242302D01*
X46652844Y-3392277D01*
X46649500Y-3413389D01*
X46649500Y-3586611D01*
X46676598Y-3757701D01*
X46730127Y-3922445D01*
X46808768Y-4076788D01*
X46910586Y-4216928D01*
X47033072Y-4339414D01*
X47173212Y-4441232D01*
X47327555Y-4519873D01*
X47492299Y-4573402D01*
X47492302Y-4573402D01*
X47492303Y-4573403D01*
X47571631Y-4585967D01*
X47642277Y-4597156D01*
X47705412Y-4627085D01*
X47742344Y-4686396D01*
X47741346Y-4756259D01*
X47702737Y-4814492D01*
X47642279Y-4842102D01*
X47468997Y-4869548D01*
X47289362Y-4927914D01*
X47121064Y-5013667D01*
X47121062Y-5013668D01*
X47034237Y-5076748D01*
X47034237Y-5076749D01*
X47540876Y-5583388D01*
X47442993Y-5639901D01*
X47349901Y-5732993D01*
X47293388Y-5830876D01*
X46786749Y-5324237D01*
X46786748Y-5324237D01*
X46723668Y-5411062D01*
X46723667Y-5411064D01*
X46637914Y-5579362D01*
X46579548Y-5758997D01*
X46552102Y-5932279D01*
X46522172Y-5995413D01*
X46462861Y-6032344D01*
X46392998Y-6031346D01*
X46334766Y-5992736D01*
X46307156Y-5932277D01*
X46283403Y-5782303D01*
X46283402Y-5782302D01*
X46283402Y-5782299D01*
X46229873Y-5617555D01*
X46151232Y-5463212D01*
X46049414Y-5323072D01*
X45926928Y-5200586D01*
X45786788Y-5098768D01*
X45632445Y-5020127D01*
X45467701Y-4966598D01*
X45467699Y-4966597D01*
X45467698Y-4966597D01*
X45336271Y-4945781D01*
X45296611Y-4939500D01*
X45123389Y-4939500D01*
X45083728Y-4945781D01*
X44952302Y-4966597D01*
X44787552Y-5020128D01*
X44633211Y-5098768D01*
X44553256Y-5156859D01*
X44493072Y-5200586D01*
X44493070Y-5200588D01*
X44493069Y-5200588D01*
X44370588Y-5323069D01*
X44370588Y-5323070D01*
X44370586Y-5323072D01*
X44369740Y-5324237D01*
X44268768Y-5463211D01*
X44190128Y-5617552D01*
X44136597Y-5782302D01*
X44112843Y-5932278D01*
X44082914Y-5995413D01*
X44023602Y-6032344D01*
X43953739Y-6031346D01*
X43895507Y-5992736D01*
X43867897Y-5932278D01*
X43840451Y-5758997D01*
X43782085Y-5579362D01*
X43696333Y-5411066D01*
X43633249Y-5324237D01*
X43126611Y-5830875D01*
X43070099Y-5732993D01*
X42977007Y-5639901D01*
X42879123Y-5583388D01*
X43385761Y-5076749D01*
X43298933Y-5013666D01*
X43130637Y-4927914D01*
X42951002Y-4869548D01*
X42777720Y-4842102D01*
X42714586Y-4812172D01*
X42677655Y-4752861D01*
X42678653Y-4682998D01*
X42717263Y-4624766D01*
X42777720Y-4597156D01*
X42871306Y-4582334D01*
X42927696Y-4573403D01*
X42927696Y-4573402D01*
X42927701Y-4573402D01*
X43092445Y-4519873D01*
X43246788Y-4441232D01*
X43386928Y-4339414D01*
X43509414Y-4216928D01*
X43611232Y-4076788D01*
X43689873Y-3922445D01*
X43743402Y-3757701D01*
X43770500Y-3586611D01*
X43770500Y-3413389D01*
X44109500Y-3413389D01*
X44109500Y-3586611D01*
X44136598Y-3757701D01*
X44190127Y-3922445D01*
X44268768Y-4076788D01*
X44370586Y-4216928D01*
X44493072Y-4339414D01*
X44633212Y-4441232D01*
X44787555Y-4519873D01*
X44952299Y-4573402D01*
X45123389Y-4600500D01*
X45123390Y-4600500D01*
X45296610Y-4600500D01*
X45296611Y-4600500D01*
X45467701Y-4573402D01*
X45632445Y-4519873D01*
X45786788Y-4441232D01*
X45926928Y-4339414D01*
X46049414Y-4216928D01*
X46151232Y-4076788D01*
X46229873Y-3922445D01*
X46283402Y-3757701D01*
X46310500Y-3586611D01*
X46310500Y-3413389D01*
X46283402Y-3242299D01*
X46229873Y-3077555D01*
X46151232Y-2923212D01*
X46049414Y-2783072D01*
X45926928Y-2660586D01*
X45786788Y-2558768D01*
X45632445Y-2480127D01*
X45467701Y-2426598D01*
X45467699Y-2426597D01*
X45467698Y-2426597D01*
X45336271Y-2405781D01*
X45296611Y-2399500D01*
X45123389Y-2399500D01*
X45083728Y-2405781D01*
X44952302Y-2426597D01*
X44787552Y-2480128D01*
X44633211Y-2558768D01*
X44559563Y-2612277D01*
X44493072Y-2660586D01*
X44493070Y-2660588D01*
X44493069Y-2660588D01*
X44370588Y-2783069D01*
X44370588Y-2783070D01*
X44370586Y-2783072D01*
X44369740Y-2784237D01*
X44268768Y-2923211D01*
X44190128Y-3077552D01*
X44136597Y-3242302D01*
X44112844Y-3392277D01*
X44109500Y-3413389D01*
X43770500Y-3413389D01*
X43743402Y-3242299D01*
X43689873Y-3077555D01*
X43611232Y-2923212D01*
X43509414Y-2783072D01*
X43386928Y-2660586D01*
X43246788Y-2558768D01*
X43092445Y-2480127D01*
X42927701Y-2426598D01*
X42927699Y-2426597D01*
X42927698Y-2426597D01*
X42796271Y-2405781D01*
X42756611Y-2399500D01*
X42583389Y-2399500D01*
X42543728Y-2405781D01*
X42412302Y-2426597D01*
X42247552Y-2480128D01*
X42093211Y-2558768D01*
X42019563Y-2612277D01*
X41953072Y-2660586D01*
X41953070Y-2660588D01*
X41953069Y-2660588D01*
X41830588Y-2783069D01*
X41830588Y-2783070D01*
X41830586Y-2783072D01*
X41829740Y-2784237D01*
X41728768Y-2923211D01*
X41650128Y-3077552D01*
X41596597Y-3242302D01*
X41572844Y-3392277D01*
X41569500Y-3413389D01*
X41569500Y-3586611D01*
X41596598Y-3757701D01*
X41650127Y-3922445D01*
X41728768Y-4076788D01*
X41830586Y-4216928D01*
X41953072Y-4339414D01*
X42093212Y-4441232D01*
X42247555Y-4519873D01*
X42412299Y-4573402D01*
X42412302Y-4573402D01*
X42412303Y-4573403D01*
X42491631Y-4585967D01*
X42562277Y-4597156D01*
X42625412Y-4627085D01*
X42662344Y-4686396D01*
X42661346Y-4756259D01*
X42622737Y-4814492D01*
X42562279Y-4842102D01*
X42388997Y-4869548D01*
X42209362Y-4927914D01*
X42041064Y-5013667D01*
X42041062Y-5013668D01*
X41954237Y-5076748D01*
X41954237Y-5076749D01*
X42460876Y-5583388D01*
X42362993Y-5639901D01*
X42269901Y-5732993D01*
X42213388Y-5830876D01*
X41706749Y-5324237D01*
X41706748Y-5324237D01*
X41643668Y-5411062D01*
X41643667Y-5411064D01*
X41557914Y-5579362D01*
X41499548Y-5758997D01*
X41472102Y-5932279D01*
X41442172Y-5995413D01*
X41382861Y-6032344D01*
X41312998Y-6031346D01*
X41254766Y-5992736D01*
X41227156Y-5932277D01*
X41203403Y-5782303D01*
X41203402Y-5782302D01*
X41203402Y-5782299D01*
X41149873Y-5617555D01*
X41071232Y-5463212D01*
X40969414Y-5323072D01*
X40846928Y-5200586D01*
X40706788Y-5098768D01*
X40552445Y-5020127D01*
X40387701Y-4966598D01*
X40387699Y-4966597D01*
X40387698Y-4966597D01*
X40256271Y-4945781D01*
X40216611Y-4939500D01*
X40043389Y-4939500D01*
X40003728Y-4945781D01*
X39872302Y-4966597D01*
X39707552Y-5020128D01*
X39553211Y-5098768D01*
X39473256Y-5156859D01*
X39413072Y-5200586D01*
X39413070Y-5200588D01*
X39413069Y-5200588D01*
X39290588Y-5323069D01*
X39290588Y-5323070D01*
X39290586Y-5323072D01*
X39289740Y-5324237D01*
X39188768Y-5463211D01*
X39110128Y-5617552D01*
X39056597Y-5782302D01*
X39056597Y-5782303D01*
X39029500Y-5953389D01*
X38690500Y-5953389D01*
X38663402Y-5782299D01*
X38609873Y-5617555D01*
X38531232Y-5463212D01*
X38429414Y-5323072D01*
X38306928Y-5200586D01*
X38166788Y-5098768D01*
X38012445Y-5020127D01*
X37847701Y-4966598D01*
X37847699Y-4966597D01*
X37847697Y-4966597D01*
X37697721Y-4942843D01*
X37634586Y-4912914D01*
X37597655Y-4853602D01*
X37598653Y-4783740D01*
X37637263Y-4725507D01*
X37697721Y-4697897D01*
X37871002Y-4670451D01*
X38050637Y-4612085D01*
X38218940Y-4526329D01*
X38305761Y-4463251D01*
X38305762Y-4463249D01*
X37799124Y-3956611D01*
X37897007Y-3900099D01*
X37990099Y-3807007D01*
X38046611Y-3709124D01*
X38553249Y-4215762D01*
X38553251Y-4215761D01*
X38616329Y-4128940D01*
X38702085Y-3960637D01*
X38760451Y-3781002D01*
X38787897Y-3607721D01*
X38817826Y-3544586D01*
X38877138Y-3507655D01*
X38947000Y-3508653D01*
X39005233Y-3547263D01*
X39032843Y-3607721D01*
X39046349Y-3692993D01*
X39056598Y-3757701D01*
X39110127Y-3922445D01*
X39188768Y-4076788D01*
X39290586Y-4216928D01*
X39413072Y-4339414D01*
X39553212Y-4441232D01*
X39707555Y-4519873D01*
X39872299Y-4573402D01*
X40043389Y-4600500D01*
X40043390Y-4600500D01*
X40216610Y-4600500D01*
X40216611Y-4600500D01*
X40387701Y-4573402D01*
X40552445Y-4519873D01*
X40706788Y-4441232D01*
X40846928Y-4339414D01*
X40969414Y-4216928D01*
X41071232Y-4076788D01*
X41149873Y-3922445D01*
X41203402Y-3757701D01*
X41230500Y-3586611D01*
X41230500Y-3413389D01*
X41203402Y-3242299D01*
X41149873Y-3077555D01*
X41071232Y-2923212D01*
X40969414Y-2783072D01*
X40846928Y-2660586D01*
X40706788Y-2558768D01*
X40552445Y-2480127D01*
X40387701Y-2426598D01*
X40387699Y-2426597D01*
X40387698Y-2426597D01*
X40256271Y-2405781D01*
X40216611Y-2399500D01*
X40043389Y-2399500D01*
X40003728Y-2405781D01*
X39872302Y-2426597D01*
X39707552Y-2480128D01*
X39553211Y-2558768D01*
X39479563Y-2612277D01*
X39413072Y-2660586D01*
X39413070Y-2660588D01*
X39413069Y-2660588D01*
X39290588Y-2783069D01*
X39290588Y-2783070D01*
X39290586Y-2783072D01*
X39289740Y-2784237D01*
X39188768Y-2923211D01*
X39110128Y-3077552D01*
X39056597Y-3242302D01*
X39032843Y-3392278D01*
X39002914Y-3455413D01*
X38943602Y-3492344D01*
X38873739Y-3491346D01*
X38815507Y-3452736D01*
X38787897Y-3392278D01*
X38760451Y-3218997D01*
X38702085Y-3039362D01*
X38616333Y-2871066D01*
X38553249Y-2784237D01*
X38046611Y-3290875D01*
X37990099Y-3192993D01*
X37897007Y-3099901D01*
X37799123Y-3043388D01*
X38305761Y-2536749D01*
X38218933Y-2473666D01*
X38050637Y-2387914D01*
X37871002Y-2329548D01*
X37684447Y-2300000D01*
X37495553Y-2300000D01*
X37308997Y-2329548D01*
X37129362Y-2387914D01*
X36961064Y-2473667D01*
X36961062Y-2473668D01*
X36874237Y-2536748D01*
X36874237Y-2536749D01*
X37380876Y-3043388D01*
X37282993Y-3099901D01*
X37189901Y-3192993D01*
X37133388Y-3290876D01*
X36626749Y-2784237D01*
X36626748Y-2784237D01*
X36563668Y-2871062D01*
X36563667Y-2871064D01*
X36477914Y-3039362D01*
X36419548Y-3218997D01*
X36392102Y-3392279D01*
X36362172Y-3455413D01*
X36302861Y-3492344D01*
X36232998Y-3491346D01*
X36174766Y-3452736D01*
X36147156Y-3392277D01*
X36123403Y-3242303D01*
X36123402Y-3242302D01*
X36123402Y-3242299D01*
X36069873Y-3077555D01*
X35991232Y-2923212D01*
X35889414Y-2783072D01*
X35766928Y-2660586D01*
X35626788Y-2558768D01*
X35472445Y-2480127D01*
X35307701Y-2426598D01*
X35307699Y-2426597D01*
X35307698Y-2426597D01*
X35176271Y-2405781D01*
X35136611Y-2399500D01*
X34963389Y-2399500D01*
X34923728Y-2405781D01*
X34792302Y-2426597D01*
X34627552Y-2480128D01*
X34473211Y-2558768D01*
X34399563Y-2612277D01*
X34333072Y-2660586D01*
X34333070Y-2660588D01*
X34333069Y-2660588D01*
X34210588Y-2783069D01*
X34210588Y-2783070D01*
X34210586Y-2783072D01*
X34209740Y-2784237D01*
X34108768Y-2923211D01*
X34030128Y-3077552D01*
X33976597Y-3242302D01*
X33952844Y-3392277D01*
X33949500Y-3413389D01*
X33610500Y-3413389D01*
X33583402Y-3242299D01*
X33529873Y-3077555D01*
X33451232Y-2923212D01*
X33349414Y-2783072D01*
X33226928Y-2660586D01*
X33086788Y-2558768D01*
X32932445Y-2480127D01*
X32767701Y-2426598D01*
X32767699Y-2426597D01*
X32767698Y-2426597D01*
X32636271Y-2405781D01*
X32596611Y-2399500D01*
X32423389Y-2399500D01*
X32383728Y-2405781D01*
X32252302Y-2426597D01*
X32087552Y-2480128D01*
X31933211Y-2558768D01*
X31859563Y-2612277D01*
X31793072Y-2660586D01*
X31793070Y-2660588D01*
X31793069Y-2660588D01*
X31670588Y-2783069D01*
X31670588Y-2783070D01*
X31670586Y-2783072D01*
X31669740Y-2784237D01*
X31568768Y-2923211D01*
X31490128Y-3077552D01*
X31436597Y-3242302D01*
X31412844Y-3392277D01*
X31409500Y-3413389D01*
X31070500Y-3413389D01*
X31043402Y-3242299D01*
X30989873Y-3077555D01*
X30911232Y-2923212D01*
X30809414Y-2783072D01*
X30686928Y-2660586D01*
X30546788Y-2558768D01*
X30392445Y-2480127D01*
X30227701Y-2426598D01*
X30227699Y-2426597D01*
X30227698Y-2426597D01*
X30096271Y-2405781D01*
X30056611Y-2399500D01*
X29883389Y-2399500D01*
X29843728Y-2405781D01*
X29712302Y-2426597D01*
X29547552Y-2480128D01*
X29393211Y-2558768D01*
X29319563Y-2612277D01*
X29253072Y-2660586D01*
X29253070Y-2660588D01*
X29253069Y-2660588D01*
X29130588Y-2783069D01*
X29130588Y-2783070D01*
X29130586Y-2783072D01*
X29129740Y-2784237D01*
X29028768Y-2923211D01*
X28950128Y-3077552D01*
X28896597Y-3242302D01*
X28872844Y-3392277D01*
X28869500Y-3413389D01*
X28869500Y-3586611D01*
X28896598Y-3757701D01*
X28950127Y-3922445D01*
X29028768Y-4076788D01*
X29130586Y-4216928D01*
X29253072Y-4339414D01*
X29393212Y-4441232D01*
X29547555Y-4519873D01*
X29712299Y-4573402D01*
X29712302Y-4573402D01*
X29712303Y-4573403D01*
X29791631Y-4585967D01*
X29862277Y-4597156D01*
X29925412Y-4627085D01*
X29962344Y-4686396D01*
X29961346Y-4756259D01*
X29922737Y-4814492D01*
X29862279Y-4842102D01*
X29688997Y-4869548D01*
X29509362Y-4927914D01*
X29341064Y-5013667D01*
X29341062Y-5013668D01*
X29254237Y-5076748D01*
X29254237Y-5076749D01*
X29760876Y-5583388D01*
X29662993Y-5639901D01*
X29569901Y-5732993D01*
X29513388Y-5830876D01*
X29006749Y-5324237D01*
X29006748Y-5324237D01*
X28943668Y-5411062D01*
X28943667Y-5411064D01*
X28857914Y-5579362D01*
X28799548Y-5758997D01*
X28772102Y-5932279D01*
X28742172Y-5995413D01*
X28682861Y-6032344D01*
X28612998Y-6031346D01*
X28554766Y-5992736D01*
X28527156Y-5932277D01*
X28503403Y-5782303D01*
X28503402Y-5782302D01*
X28503402Y-5782299D01*
X28449873Y-5617555D01*
X28371232Y-5463212D01*
X28269414Y-5323072D01*
X28146928Y-5200586D01*
X28006788Y-5098768D01*
X27852445Y-5020127D01*
X27687701Y-4966598D01*
X27687699Y-4966597D01*
X27687698Y-4966597D01*
X27556271Y-4945781D01*
X27516611Y-4939500D01*
X27343389Y-4939500D01*
X27303728Y-4945781D01*
X27172302Y-4966597D01*
X27007552Y-5020128D01*
X26853211Y-5098768D01*
X26773256Y-5156859D01*
X26713072Y-5200586D01*
X26713070Y-5200588D01*
X26713069Y-5200588D01*
X26590588Y-5323069D01*
X26590588Y-5323070D01*
X26590586Y-5323072D01*
X26589740Y-5324237D01*
X26488768Y-5463211D01*
X26410128Y-5617552D01*
X26356597Y-5782302D01*
X26356597Y-5782303D01*
X26329500Y-5953389D01*
X25990500Y-5953389D01*
X25963402Y-5782299D01*
X25909873Y-5617555D01*
X25831232Y-5463212D01*
X25729414Y-5323072D01*
X25606928Y-5200586D01*
X25466788Y-5098768D01*
X25312445Y-5020127D01*
X25147701Y-4966598D01*
X25147699Y-4966597D01*
X25147698Y-4966597D01*
X25016271Y-4945781D01*
X24976611Y-4939500D01*
X24803389Y-4939500D01*
X24763728Y-4945781D01*
X24632302Y-4966597D01*
X24467552Y-5020128D01*
X24313211Y-5098768D01*
X24233256Y-5156859D01*
X24173072Y-5200586D01*
X24173070Y-5200588D01*
X24173069Y-5200588D01*
X24050588Y-5323069D01*
X24050588Y-5323070D01*
X24050586Y-5323072D01*
X24049740Y-5324237D01*
X23948768Y-5463211D01*
X23870128Y-5617552D01*
X23816597Y-5782302D01*
X23792843Y-5932278D01*
X23762914Y-5995413D01*
X23703602Y-6032344D01*
X23633739Y-6031346D01*
X23575507Y-5992736D01*
X23547897Y-5932278D01*
X23520451Y-5758997D01*
X23462085Y-5579362D01*
X23376333Y-5411066D01*
X23313249Y-5324237D01*
X22806611Y-5830875D01*
X22750099Y-5732993D01*
X22657007Y-5639901D01*
X22559123Y-5583388D01*
X23065761Y-5076749D01*
X22978933Y-5013666D01*
X22810637Y-4927914D01*
X22631002Y-4869548D01*
X22457720Y-4842102D01*
X22394586Y-4812172D01*
X22357655Y-4752861D01*
X22358653Y-4682998D01*
X22397263Y-4624766D01*
X22457720Y-4597156D01*
X22551306Y-4582334D01*
X22607696Y-4573403D01*
X22607696Y-4573402D01*
X22607701Y-4573402D01*
X22772445Y-4519873D01*
X22926788Y-4441232D01*
X23066928Y-4339414D01*
X23189414Y-4216928D01*
X23291232Y-4076788D01*
X23369873Y-3922445D01*
X23423402Y-3757701D01*
X23450500Y-3586611D01*
X23450500Y-3413389D01*
X23789500Y-3413389D01*
X23789500Y-3586611D01*
X23816598Y-3757701D01*
X23870127Y-3922445D01*
X23948768Y-4076788D01*
X24050586Y-4216928D01*
X24173072Y-4339414D01*
X24313212Y-4441232D01*
X24467555Y-4519873D01*
X24632299Y-4573402D01*
X24803389Y-4600500D01*
X24803390Y-4600500D01*
X24976610Y-4600500D01*
X24976611Y-4600500D01*
X25147701Y-4573402D01*
X25312445Y-4519873D01*
X25466788Y-4441232D01*
X25606928Y-4339414D01*
X25729414Y-4216928D01*
X25831232Y-4076788D01*
X25909873Y-3922445D01*
X25963402Y-3757701D01*
X25990500Y-3586611D01*
X25990500Y-3413389D01*
X26329500Y-3413389D01*
X26329500Y-3586611D01*
X26356598Y-3757701D01*
X26410127Y-3922445D01*
X26488768Y-4076788D01*
X26590586Y-4216928D01*
X26713072Y-4339414D01*
X26853212Y-4441232D01*
X27007555Y-4519873D01*
X27172299Y-4573402D01*
X27343389Y-4600500D01*
X27343390Y-4600500D01*
X27516610Y-4600500D01*
X27516611Y-4600500D01*
X27687701Y-4573402D01*
X27852445Y-4519873D01*
X28006788Y-4441232D01*
X28146928Y-4339414D01*
X28269414Y-4216928D01*
X28371232Y-4076788D01*
X28449873Y-3922445D01*
X28503402Y-3757701D01*
X28530500Y-3586611D01*
X28530500Y-3413389D01*
X28503402Y-3242299D01*
X28449873Y-3077555D01*
X28371232Y-2923212D01*
X28269414Y-2783072D01*
X28146928Y-2660586D01*
X28006788Y-2558768D01*
X27852445Y-2480127D01*
X27687701Y-2426598D01*
X27687699Y-2426597D01*
X27687698Y-2426597D01*
X27556271Y-2405781D01*
X27516611Y-2399500D01*
X27343389Y-2399500D01*
X27303728Y-2405781D01*
X27172302Y-2426597D01*
X27007552Y-2480128D01*
X26853211Y-2558768D01*
X26779563Y-2612277D01*
X26713072Y-2660586D01*
X26713070Y-2660588D01*
X26713069Y-2660588D01*
X26590588Y-2783069D01*
X26590588Y-2783070D01*
X26590586Y-2783072D01*
X26589740Y-2784237D01*
X26488768Y-2923211D01*
X26410128Y-3077552D01*
X26356597Y-3242302D01*
X26332844Y-3392277D01*
X26329500Y-3413389D01*
X25990500Y-3413389D01*
X25963402Y-3242299D01*
X25909873Y-3077555D01*
X25831232Y-2923212D01*
X25729414Y-2783072D01*
X25606928Y-2660586D01*
X25466788Y-2558768D01*
X25312445Y-2480127D01*
X25147701Y-2426598D01*
X25147699Y-2426597D01*
X25147698Y-2426597D01*
X25016271Y-2405781D01*
X24976611Y-2399500D01*
X24803389Y-2399500D01*
X24763728Y-2405781D01*
X24632302Y-2426597D01*
X24467552Y-2480128D01*
X24313211Y-2558768D01*
X24239563Y-2612277D01*
X24173072Y-2660586D01*
X24173070Y-2660588D01*
X24173069Y-2660588D01*
X24050588Y-2783069D01*
X24050588Y-2783070D01*
X24050586Y-2783072D01*
X24049740Y-2784237D01*
X23948768Y-2923211D01*
X23870128Y-3077552D01*
X23816597Y-3242302D01*
X23792844Y-3392277D01*
X23789500Y-3413389D01*
X23450500Y-3413389D01*
X23423402Y-3242299D01*
X23369873Y-3077555D01*
X23291232Y-2923212D01*
X23189414Y-2783072D01*
X23066928Y-2660586D01*
X22926788Y-2558768D01*
X22772445Y-2480127D01*
X22607701Y-2426598D01*
X22607699Y-2426597D01*
X22607698Y-2426597D01*
X22476271Y-2405781D01*
X22436611Y-2399500D01*
X22263389Y-2399500D01*
X22223728Y-2405781D01*
X22092302Y-2426597D01*
X21927552Y-2480128D01*
X21773211Y-2558768D01*
X21699563Y-2612277D01*
X21633072Y-2660586D01*
X21633070Y-2660588D01*
X21633069Y-2660588D01*
X21510588Y-2783069D01*
X21510588Y-2783070D01*
X21510586Y-2783072D01*
X21509740Y-2784237D01*
X21408768Y-2923211D01*
X21330128Y-3077552D01*
X21276597Y-3242302D01*
X21252844Y-3392277D01*
X21249500Y-3413389D01*
X21249500Y-3586611D01*
X21276598Y-3757701D01*
X21330127Y-3922445D01*
X21408768Y-4076788D01*
X21510586Y-4216928D01*
X21633072Y-4339414D01*
X21773212Y-4441232D01*
X21927555Y-4519873D01*
X22092299Y-4573402D01*
X22092302Y-4573402D01*
X22092303Y-4573403D01*
X22171631Y-4585967D01*
X22242277Y-4597156D01*
X22305412Y-4627085D01*
X22342344Y-4686396D01*
X22341346Y-4756259D01*
X22302737Y-4814492D01*
X22242279Y-4842102D01*
X22068997Y-4869548D01*
X21889362Y-4927914D01*
X21721064Y-5013667D01*
X21721062Y-5013668D01*
X21634237Y-5076748D01*
X21634237Y-5076749D01*
X22140876Y-5583388D01*
X22042993Y-5639901D01*
X21949901Y-5732993D01*
X21893388Y-5830876D01*
X21386749Y-5324237D01*
X21386748Y-5324237D01*
X21323668Y-5411062D01*
X21323667Y-5411064D01*
X21237914Y-5579362D01*
X21179548Y-5758997D01*
X21152102Y-5932279D01*
X21122172Y-5995413D01*
X21062861Y-6032344D01*
X20992998Y-6031346D01*
X20934766Y-5992736D01*
X20907156Y-5932277D01*
X20883403Y-5782303D01*
X20883402Y-5782302D01*
X20883402Y-5782299D01*
X20829873Y-5617555D01*
X20751232Y-5463212D01*
X20649414Y-5323072D01*
X20526928Y-5200586D01*
X20386788Y-5098768D01*
X20232445Y-5020127D01*
X20067701Y-4966598D01*
X20067699Y-4966597D01*
X20067698Y-4966597D01*
X19936271Y-4945781D01*
X19896611Y-4939500D01*
X19723389Y-4939500D01*
X19683728Y-4945781D01*
X19552302Y-4966597D01*
X19387552Y-5020128D01*
X19233211Y-5098768D01*
X19153256Y-5156859D01*
X19093072Y-5200586D01*
X19093070Y-5200588D01*
X19093069Y-5200588D01*
X18970588Y-5323069D01*
X18970588Y-5323070D01*
X18970586Y-5323072D01*
X18969740Y-5324237D01*
X18868768Y-5463211D01*
X18790128Y-5617552D01*
X18736597Y-5782302D01*
X18736597Y-5782303D01*
X18709500Y-5953389D01*
X18370500Y-5953389D01*
X18343402Y-5782299D01*
X18289873Y-5617555D01*
X18211232Y-5463212D01*
X18109414Y-5323072D01*
X17986928Y-5200586D01*
X17846788Y-5098768D01*
X17692445Y-5020127D01*
X17527701Y-4966598D01*
X17527699Y-4966597D01*
X17527697Y-4966597D01*
X17377721Y-4942843D01*
X17314586Y-4912914D01*
X17277655Y-4853602D01*
X17278653Y-4783740D01*
X17317263Y-4725507D01*
X17377721Y-4697897D01*
X17551002Y-4670451D01*
X17730637Y-4612085D01*
X17898940Y-4526329D01*
X17985761Y-4463251D01*
X17985762Y-4463249D01*
X17479124Y-3956611D01*
X17577007Y-3900099D01*
X17670099Y-3807007D01*
X17726611Y-3709124D01*
X18233249Y-4215762D01*
X18233251Y-4215761D01*
X18296329Y-4128940D01*
X18382085Y-3960637D01*
X18440451Y-3781002D01*
X18467897Y-3607721D01*
X18497826Y-3544586D01*
X18557138Y-3507655D01*
X18627000Y-3508653D01*
X18685233Y-3547263D01*
X18712843Y-3607721D01*
X18726349Y-3692993D01*
X18736598Y-3757701D01*
X18790127Y-3922445D01*
X18868768Y-4076788D01*
X18970586Y-4216928D01*
X19093072Y-4339414D01*
X19233212Y-4441232D01*
X19387555Y-4519873D01*
X19552299Y-4573402D01*
X19723389Y-4600500D01*
X19723390Y-4600500D01*
X19896610Y-4600500D01*
X19896611Y-4600500D01*
X20067701Y-4573402D01*
X20232445Y-4519873D01*
X20386788Y-4441232D01*
X20526928Y-4339414D01*
X20649414Y-4216928D01*
X20751232Y-4076788D01*
X20829873Y-3922445D01*
X20883402Y-3757701D01*
X20910500Y-3586611D01*
X20910500Y-3413389D01*
X20883402Y-3242299D01*
X20829873Y-3077555D01*
X20751232Y-2923212D01*
X20649414Y-2783072D01*
X20526928Y-2660586D01*
X20386788Y-2558768D01*
X20232445Y-2480127D01*
X20067701Y-2426598D01*
X20067699Y-2426597D01*
X20067698Y-2426597D01*
X19936271Y-2405781D01*
X19896611Y-2399500D01*
X19723389Y-2399500D01*
X19683728Y-2405781D01*
X19552302Y-2426597D01*
X19387552Y-2480128D01*
X19233211Y-2558768D01*
X19159563Y-2612277D01*
X19093072Y-2660586D01*
X19093070Y-2660588D01*
X19093069Y-2660588D01*
X18970588Y-2783069D01*
X18970588Y-2783070D01*
X18970586Y-2783072D01*
X18969740Y-2784237D01*
X18868768Y-2923211D01*
X18790128Y-3077552D01*
X18736597Y-3242302D01*
X18712843Y-3392278D01*
X18682914Y-3455413D01*
X18623602Y-3492344D01*
X18553739Y-3491346D01*
X18495507Y-3452736D01*
X18467897Y-3392278D01*
X18440451Y-3218997D01*
X18382085Y-3039362D01*
X18296333Y-2871066D01*
X18233249Y-2784237D01*
X17726611Y-3290875D01*
X17670099Y-3192993D01*
X17577007Y-3099901D01*
X17479123Y-3043388D01*
X17985761Y-2536749D01*
X17898933Y-2473666D01*
X17730637Y-2387914D01*
X17551002Y-2329548D01*
X17364447Y-2300000D01*
X17175553Y-2300000D01*
X16988997Y-2329548D01*
X16809362Y-2387914D01*
X16641064Y-2473667D01*
X16641062Y-2473668D01*
X16554237Y-2536748D01*
X16554237Y-2536749D01*
X17060876Y-3043388D01*
X16962993Y-3099901D01*
X16869901Y-3192993D01*
X16813388Y-3290876D01*
X16306749Y-2784237D01*
X16306748Y-2784237D01*
X16243668Y-2871062D01*
X16243667Y-2871064D01*
X16157914Y-3039362D01*
X16099548Y-3218997D01*
X16072102Y-3392279D01*
X16042172Y-3455413D01*
X15982861Y-3492344D01*
X15912998Y-3491346D01*
X15854766Y-3452736D01*
X15827156Y-3392277D01*
X15803403Y-3242303D01*
X15803402Y-3242302D01*
X15803402Y-3242299D01*
X15749873Y-3077555D01*
X15671232Y-2923212D01*
X15569414Y-2783072D01*
X15446928Y-2660586D01*
X15306788Y-2558768D01*
X15152445Y-2480127D01*
X14987701Y-2426598D01*
X14987699Y-2426597D01*
X14987698Y-2426597D01*
X14856271Y-2405781D01*
X14816611Y-2399500D01*
X14643389Y-2399500D01*
X14603728Y-2405781D01*
X14472302Y-2426597D01*
X14307552Y-2480128D01*
X14153211Y-2558768D01*
X14079563Y-2612277D01*
X14013072Y-2660586D01*
X14013070Y-2660588D01*
X14013069Y-2660588D01*
X13890588Y-2783069D01*
X13890588Y-2783070D01*
X13890586Y-2783072D01*
X13889740Y-2784237D01*
X13788768Y-2923211D01*
X13710128Y-3077552D01*
X13656597Y-3242302D01*
X13632844Y-3392277D01*
X13629500Y-3413389D01*
X13290500Y-3413389D01*
X13263402Y-3242299D01*
X13209873Y-3077555D01*
X13131232Y-2923212D01*
X13029414Y-2783072D01*
X12906928Y-2660586D01*
X12766788Y-2558768D01*
X12612445Y-2480127D01*
X12447701Y-2426598D01*
X12447699Y-2426597D01*
X12447698Y-2426597D01*
X12316271Y-2405781D01*
X12276611Y-2399500D01*
X12103389Y-2399500D01*
X12063728Y-2405781D01*
X11932302Y-2426597D01*
X11767552Y-2480128D01*
X11613211Y-2558768D01*
X11539563Y-2612277D01*
X11473072Y-2660586D01*
X11473070Y-2660588D01*
X11473069Y-2660588D01*
X11350588Y-2783069D01*
X11350588Y-2783070D01*
X11350586Y-2783072D01*
X11349740Y-2784237D01*
X11248768Y-2923211D01*
X11170128Y-3077552D01*
X11116597Y-3242302D01*
X11092844Y-3392277D01*
X11089500Y-3413389D01*
X11089500Y-3586611D01*
X11116598Y-3757701D01*
X11170127Y-3922445D01*
X11248768Y-4076788D01*
X11350586Y-4216928D01*
X11473072Y-4339414D01*
X11613212Y-4441232D01*
X11767555Y-4519873D01*
X11932299Y-4573402D01*
X11932302Y-4573402D01*
X11932303Y-4573403D01*
X12011631Y-4585967D01*
X12082277Y-4597156D01*
X12145412Y-4627085D01*
X12182344Y-4686396D01*
X12181346Y-4756259D01*
X12142737Y-4814492D01*
X12082279Y-4842102D01*
X11908997Y-4869548D01*
X11729362Y-4927914D01*
X11561064Y-5013667D01*
X11561062Y-5013668D01*
X11474237Y-5076748D01*
X11474237Y-5076749D01*
X11980876Y-5583388D01*
X11882993Y-5639901D01*
X11789901Y-5732993D01*
X11733388Y-5830876D01*
X11226749Y-5324237D01*
X11226748Y-5324237D01*
X11163668Y-5411062D01*
X11163667Y-5411064D01*
X11077914Y-5579362D01*
X11019548Y-5758997D01*
X10992102Y-5932279D01*
X10962172Y-5995413D01*
X10902861Y-6032344D01*
X10832998Y-6031346D01*
X10774766Y-5992736D01*
X10747156Y-5932277D01*
X10723403Y-5782303D01*
X10723402Y-5782302D01*
X10723402Y-5782299D01*
X10669873Y-5617555D01*
X10591232Y-5463212D01*
X10489414Y-5323072D01*
X10366928Y-5200586D01*
X10226788Y-5098768D01*
X10072445Y-5020127D01*
X9907701Y-4966598D01*
X9907699Y-4966597D01*
X9907698Y-4966597D01*
X9776271Y-4945781D01*
X9736611Y-4939500D01*
X9563389Y-4939500D01*
X9523728Y-4945781D01*
X9392302Y-4966597D01*
X9227552Y-5020128D01*
X9073211Y-5098768D01*
X8993256Y-5156859D01*
X8933072Y-5200586D01*
X8933070Y-5200588D01*
X8933069Y-5200588D01*
X8810588Y-5323069D01*
X8810588Y-5323070D01*
X8810586Y-5323072D01*
X8809740Y-5324237D01*
X8708768Y-5463211D01*
X8630128Y-5617552D01*
X8576597Y-5782302D01*
X8576597Y-5782303D01*
X8549500Y-5953389D01*
X8210500Y-5953389D01*
X8183402Y-5782299D01*
X8129873Y-5617555D01*
X8051232Y-5463212D01*
X7949414Y-5323072D01*
X7826928Y-5200586D01*
X7686788Y-5098768D01*
X7532445Y-5020127D01*
X7367701Y-4966598D01*
X7367699Y-4966597D01*
X7367698Y-4966597D01*
X7236271Y-4945781D01*
X7196611Y-4939500D01*
X7023389Y-4939500D01*
X6983728Y-4945781D01*
X6852302Y-4966597D01*
X6687552Y-5020128D01*
X6533211Y-5098768D01*
X6453256Y-5156859D01*
X6393072Y-5200586D01*
X6393070Y-5200588D01*
X6393069Y-5200588D01*
X6270588Y-5323069D01*
X6270588Y-5323070D01*
X6270586Y-5323072D01*
X6269740Y-5324237D01*
X6168768Y-5463211D01*
X6090128Y-5617552D01*
X6036597Y-5782302D01*
X6036597Y-5782303D01*
X6009500Y-5953389D01*
X3854039Y-5953389D01*
X4147047Y-5914814D01*
X4750000Y-5665063D01*
X5267766Y-5267766D01*
X5665063Y-4750000D01*
X5792588Y-4442126D01*
X5836428Y-4387725D01*
X5902722Y-4365660D01*
X5970421Y-4382939D01*
X6018032Y-4434076D01*
X6021708Y-4442127D01*
X6024031Y-4447735D01*
X6024033Y-4447739D01*
X6024034Y-4447740D01*
X6079399Y-4530601D01*
X6143458Y-4573403D01*
X6162260Y-4585966D01*
X6162264Y-4585967D01*
X6235321Y-4600499D01*
X6235324Y-4600500D01*
X6235326Y-4600500D01*
X7984676Y-4600500D01*
X7984677Y-4600499D01*
X8057740Y-4585966D01*
X8140601Y-4530601D01*
X8195966Y-4447740D01*
X8210500Y-4374674D01*
X8210500Y-3413389D01*
X8549500Y-3413389D01*
X8549500Y-3586611D01*
X8576598Y-3757701D01*
X8630127Y-3922445D01*
X8708768Y-4076788D01*
X8810586Y-4216928D01*
X8933072Y-4339414D01*
X9073212Y-4441232D01*
X9227555Y-4519873D01*
X9392299Y-4573402D01*
X9563389Y-4600500D01*
X9563390Y-4600500D01*
X9736610Y-4600500D01*
X9736611Y-4600500D01*
X9907701Y-4573402D01*
X10072445Y-4519873D01*
X10226788Y-4441232D01*
X10366928Y-4339414D01*
X10489414Y-4216928D01*
X10591232Y-4076788D01*
X10669873Y-3922445D01*
X10723402Y-3757701D01*
X10750500Y-3586611D01*
X10750500Y-3413389D01*
X10723402Y-3242299D01*
X10669873Y-3077555D01*
X10591232Y-2923212D01*
X10489414Y-2783072D01*
X10366928Y-2660586D01*
X10226788Y-2558768D01*
X10072445Y-2480127D01*
X9907701Y-2426598D01*
X9907699Y-2426597D01*
X9907698Y-2426597D01*
X9776271Y-2405781D01*
X9736611Y-2399500D01*
X9563389Y-2399500D01*
X9523728Y-2405781D01*
X9392302Y-2426597D01*
X9227552Y-2480128D01*
X9073211Y-2558768D01*
X8999563Y-2612277D01*
X8933072Y-2660586D01*
X8933070Y-2660588D01*
X8933069Y-2660588D01*
X8810588Y-2783069D01*
X8810588Y-2783070D01*
X8810586Y-2783072D01*
X8809740Y-2784237D01*
X8708768Y-2923211D01*
X8630128Y-3077552D01*
X8576597Y-3242302D01*
X8552844Y-3392277D01*
X8549500Y-3413389D01*
X8210500Y-3413389D01*
X8210500Y-2625326D01*
X8210500Y-2625323D01*
X8210499Y-2625321D01*
X8195967Y-2552264D01*
X8195966Y-2552260D01*
X8185601Y-2536748D01*
X8140601Y-2469399D01*
X8057740Y-2414034D01*
X8057739Y-2414033D01*
X8057735Y-2414032D01*
X7984677Y-2399500D01*
X7984674Y-2399500D01*
X6235326Y-2399500D01*
X6235323Y-2399500D01*
X6162264Y-2414032D01*
X6162260Y-2414033D01*
X6079399Y-2469399D01*
X6024030Y-2552264D01*
X6021707Y-2557875D01*
X5977864Y-2612277D01*
X5911570Y-2634339D01*
X5843871Y-2617058D01*
X5796262Y-2565919D01*
X5792589Y-2557875D01*
X5665063Y-2249999D01*
X5267766Y-1732233D01*
X4750000Y-1334936D01*
X4749995Y-1334934D01*
X4147047Y-1085185D01*
X4147045Y-1085184D01*
X3500000Y-1000000D01*
X3499998Y-1000000D01*
X2852953Y-1085184D01*
X2852951Y-1085185D01*
X2250000Y-1334935D01*
X1732233Y-1732233D01*
X1334934Y-2250002D01*
X1085185Y-2852951D01*
X1085184Y-2852953D01*
X1000000Y-3499998D01*
X500500Y-3499998D01*
X500500Y-624500D01*
X520185Y-557461D01*
X572989Y-511706D01*
X624500Y-500500D01*
X64375500Y-500500D01*
X64442539Y-520185D01*
G37*
%TD.AperFunction*%
%TD*%
M02*
