%TF.GenerationSoftware,KiCad,Pcbnew,9.0.2+dfsg-1*%
%TF.CreationDate,2026-04-19T10:53:22-07:00*%
%TF.ProjectId,gx01-front-panel,67783031-2d66-4726-9f6e-742d70616e65,rev?*%
%TF.SameCoordinates,Original*%
%TF.FileFunction,Legend,Top*%
%TF.FilePolarity,Positive*%
%FSLAX46Y46*%
G04 Gerber Fmt 4.6, Leading zero omitted, Abs format (unit mm)*
G04 Created by KiCad (PCBNEW 9.0.2+dfsg-1) date 2026-04-19 10:53:22*
%MOMM*%
%LPD*%
G01*
G04 APERTURE LIST*
%ADD10C,0.150000*%
%ADD11C,0.120000*%
G04 APERTURE END LIST*
D10*
X57833333Y-9929580D02*
X57785714Y-9977200D01*
X57785714Y-9977200D02*
X57642857Y-10024819D01*
X57642857Y-10024819D02*
X57547619Y-10024819D01*
X57547619Y-10024819D02*
X57404762Y-9977200D01*
X57404762Y-9977200D02*
X57309524Y-9881961D01*
X57309524Y-9881961D02*
X57261905Y-9786723D01*
X57261905Y-9786723D02*
X57214286Y-9596247D01*
X57214286Y-9596247D02*
X57214286Y-9453390D01*
X57214286Y-9453390D02*
X57261905Y-9262914D01*
X57261905Y-9262914D02*
X57309524Y-9167676D01*
X57309524Y-9167676D02*
X57404762Y-9072438D01*
X57404762Y-9072438D02*
X57547619Y-9024819D01*
X57547619Y-9024819D02*
X57642857Y-9024819D01*
X57642857Y-9024819D02*
X57785714Y-9072438D01*
X57785714Y-9072438D02*
X57833333Y-9120057D01*
X58214286Y-9120057D02*
X58261905Y-9072438D01*
X58261905Y-9072438D02*
X58357143Y-9024819D01*
X58357143Y-9024819D02*
X58595238Y-9024819D01*
X58595238Y-9024819D02*
X58690476Y-9072438D01*
X58690476Y-9072438D02*
X58738095Y-9120057D01*
X58738095Y-9120057D02*
X58785714Y-9215295D01*
X58785714Y-9215295D02*
X58785714Y-9310533D01*
X58785714Y-9310533D02*
X58738095Y-9453390D01*
X58738095Y-9453390D02*
X58166667Y-10024819D01*
X58166667Y-10024819D02*
X58785714Y-10024819D01*
X36666667Y-25907200D02*
X36809524Y-25954819D01*
X36809524Y-25954819D02*
X37047619Y-25954819D01*
X37047619Y-25954819D02*
X37142857Y-25907200D01*
X37142857Y-25907200D02*
X37190476Y-25859580D01*
X37190476Y-25859580D02*
X37238095Y-25764342D01*
X37238095Y-25764342D02*
X37238095Y-25669104D01*
X37238095Y-25669104D02*
X37190476Y-25573866D01*
X37190476Y-25573866D02*
X37142857Y-25526247D01*
X37142857Y-25526247D02*
X37047619Y-25478628D01*
X37047619Y-25478628D02*
X36857143Y-25431009D01*
X36857143Y-25431009D02*
X36761905Y-25383390D01*
X36761905Y-25383390D02*
X36714286Y-25335771D01*
X36714286Y-25335771D02*
X36666667Y-25240533D01*
X36666667Y-25240533D02*
X36666667Y-25145295D01*
X36666667Y-25145295D02*
X36714286Y-25050057D01*
X36714286Y-25050057D02*
X36761905Y-25002438D01*
X36761905Y-25002438D02*
X36857143Y-24954819D01*
X36857143Y-24954819D02*
X37095238Y-24954819D01*
X37095238Y-24954819D02*
X37238095Y-25002438D01*
X37571429Y-24954819D02*
X37809524Y-25954819D01*
X37809524Y-25954819D02*
X38000000Y-25240533D01*
X38000000Y-25240533D02*
X38190476Y-25954819D01*
X38190476Y-25954819D02*
X38428572Y-24954819D01*
X39285714Y-24954819D02*
X38809524Y-24954819D01*
X38809524Y-24954819D02*
X38761905Y-25431009D01*
X38761905Y-25431009D02*
X38809524Y-25383390D01*
X38809524Y-25383390D02*
X38904762Y-25335771D01*
X38904762Y-25335771D02*
X39142857Y-25335771D01*
X39142857Y-25335771D02*
X39238095Y-25383390D01*
X39238095Y-25383390D02*
X39285714Y-25431009D01*
X39285714Y-25431009D02*
X39333333Y-25526247D01*
X39333333Y-25526247D02*
X39333333Y-25764342D01*
X39333333Y-25764342D02*
X39285714Y-25859580D01*
X39285714Y-25859580D02*
X39238095Y-25907200D01*
X39238095Y-25907200D02*
X39142857Y-25954819D01*
X39142857Y-25954819D02*
X38904762Y-25954819D01*
X38904762Y-25954819D02*
X38809524Y-25907200D01*
X38809524Y-25907200D02*
X38761905Y-25859580D01*
X49666667Y-25907200D02*
X49809524Y-25954819D01*
X49809524Y-25954819D02*
X50047619Y-25954819D01*
X50047619Y-25954819D02*
X50142857Y-25907200D01*
X50142857Y-25907200D02*
X50190476Y-25859580D01*
X50190476Y-25859580D02*
X50238095Y-25764342D01*
X50238095Y-25764342D02*
X50238095Y-25669104D01*
X50238095Y-25669104D02*
X50190476Y-25573866D01*
X50190476Y-25573866D02*
X50142857Y-25526247D01*
X50142857Y-25526247D02*
X50047619Y-25478628D01*
X50047619Y-25478628D02*
X49857143Y-25431009D01*
X49857143Y-25431009D02*
X49761905Y-25383390D01*
X49761905Y-25383390D02*
X49714286Y-25335771D01*
X49714286Y-25335771D02*
X49666667Y-25240533D01*
X49666667Y-25240533D02*
X49666667Y-25145295D01*
X49666667Y-25145295D02*
X49714286Y-25050057D01*
X49714286Y-25050057D02*
X49761905Y-25002438D01*
X49761905Y-25002438D02*
X49857143Y-24954819D01*
X49857143Y-24954819D02*
X50095238Y-24954819D01*
X50095238Y-24954819D02*
X50238095Y-25002438D01*
X50571429Y-24954819D02*
X50809524Y-25954819D01*
X50809524Y-25954819D02*
X51000000Y-25240533D01*
X51000000Y-25240533D02*
X51190476Y-25954819D01*
X51190476Y-25954819D02*
X51428572Y-24954819D01*
X52238095Y-24954819D02*
X52047619Y-24954819D01*
X52047619Y-24954819D02*
X51952381Y-25002438D01*
X51952381Y-25002438D02*
X51904762Y-25050057D01*
X51904762Y-25050057D02*
X51809524Y-25192914D01*
X51809524Y-25192914D02*
X51761905Y-25383390D01*
X51761905Y-25383390D02*
X51761905Y-25764342D01*
X51761905Y-25764342D02*
X51809524Y-25859580D01*
X51809524Y-25859580D02*
X51857143Y-25907200D01*
X51857143Y-25907200D02*
X51952381Y-25954819D01*
X51952381Y-25954819D02*
X52142857Y-25954819D01*
X52142857Y-25954819D02*
X52238095Y-25907200D01*
X52238095Y-25907200D02*
X52285714Y-25859580D01*
X52285714Y-25859580D02*
X52333333Y-25764342D01*
X52333333Y-25764342D02*
X52333333Y-25526247D01*
X52333333Y-25526247D02*
X52285714Y-25431009D01*
X52285714Y-25431009D02*
X52238095Y-25383390D01*
X52238095Y-25383390D02*
X52142857Y-25335771D01*
X52142857Y-25335771D02*
X51952381Y-25335771D01*
X51952381Y-25335771D02*
X51857143Y-25383390D01*
X51857143Y-25383390D02*
X51809524Y-25431009D01*
X51809524Y-25431009D02*
X51761905Y-25526247D01*
X6666666Y-11154819D02*
X6666666Y-11869104D01*
X6666666Y-11869104D02*
X6619047Y-12011961D01*
X6619047Y-12011961D02*
X6523809Y-12107200D01*
X6523809Y-12107200D02*
X6380952Y-12154819D01*
X6380952Y-12154819D02*
X6285714Y-12154819D01*
X7666666Y-12154819D02*
X7095238Y-12154819D01*
X7380952Y-12154819D02*
X7380952Y-11154819D01*
X7380952Y-11154819D02*
X7285714Y-11297676D01*
X7285714Y-11297676D02*
X7190476Y-11392914D01*
X7190476Y-11392914D02*
X7095238Y-11440533D01*
X21666667Y-25907200D02*
X21809524Y-25954819D01*
X21809524Y-25954819D02*
X22047619Y-25954819D01*
X22047619Y-25954819D02*
X22142857Y-25907200D01*
X22142857Y-25907200D02*
X22190476Y-25859580D01*
X22190476Y-25859580D02*
X22238095Y-25764342D01*
X22238095Y-25764342D02*
X22238095Y-25669104D01*
X22238095Y-25669104D02*
X22190476Y-25573866D01*
X22190476Y-25573866D02*
X22142857Y-25526247D01*
X22142857Y-25526247D02*
X22047619Y-25478628D01*
X22047619Y-25478628D02*
X21857143Y-25431009D01*
X21857143Y-25431009D02*
X21761905Y-25383390D01*
X21761905Y-25383390D02*
X21714286Y-25335771D01*
X21714286Y-25335771D02*
X21666667Y-25240533D01*
X21666667Y-25240533D02*
X21666667Y-25145295D01*
X21666667Y-25145295D02*
X21714286Y-25050057D01*
X21714286Y-25050057D02*
X21761905Y-25002438D01*
X21761905Y-25002438D02*
X21857143Y-24954819D01*
X21857143Y-24954819D02*
X22095238Y-24954819D01*
X22095238Y-24954819D02*
X22238095Y-25002438D01*
X22571429Y-24954819D02*
X22809524Y-25954819D01*
X22809524Y-25954819D02*
X23000000Y-25240533D01*
X23000000Y-25240533D02*
X23190476Y-25954819D01*
X23190476Y-25954819D02*
X23428572Y-24954819D01*
X24238095Y-25288152D02*
X24238095Y-25954819D01*
X24000000Y-24907200D02*
X23761905Y-25621485D01*
X23761905Y-25621485D02*
X24380952Y-25621485D01*
X12261905Y-5024819D02*
X12261905Y-4024819D01*
X12261905Y-4024819D02*
X12500000Y-4024819D01*
X12500000Y-4024819D02*
X12642857Y-4072438D01*
X12642857Y-4072438D02*
X12738095Y-4167676D01*
X12738095Y-4167676D02*
X12785714Y-4262914D01*
X12785714Y-4262914D02*
X12833333Y-4453390D01*
X12833333Y-4453390D02*
X12833333Y-4596247D01*
X12833333Y-4596247D02*
X12785714Y-4786723D01*
X12785714Y-4786723D02*
X12738095Y-4881961D01*
X12738095Y-4881961D02*
X12642857Y-4977200D01*
X12642857Y-4977200D02*
X12500000Y-5024819D01*
X12500000Y-5024819D02*
X12261905Y-5024819D01*
X13214286Y-4120057D02*
X13261905Y-4072438D01*
X13261905Y-4072438D02*
X13357143Y-4024819D01*
X13357143Y-4024819D02*
X13595238Y-4024819D01*
X13595238Y-4024819D02*
X13690476Y-4072438D01*
X13690476Y-4072438D02*
X13738095Y-4120057D01*
X13738095Y-4120057D02*
X13785714Y-4215295D01*
X13785714Y-4215295D02*
X13785714Y-4310533D01*
X13785714Y-4310533D02*
X13738095Y-4453390D01*
X13738095Y-4453390D02*
X13166667Y-5024819D01*
X13166667Y-5024819D02*
X13785714Y-5024819D01*
X22261905Y-5024819D02*
X22261905Y-4024819D01*
X22261905Y-4024819D02*
X22500000Y-4024819D01*
X22500000Y-4024819D02*
X22642857Y-4072438D01*
X22642857Y-4072438D02*
X22738095Y-4167676D01*
X22738095Y-4167676D02*
X22785714Y-4262914D01*
X22785714Y-4262914D02*
X22833333Y-4453390D01*
X22833333Y-4453390D02*
X22833333Y-4596247D01*
X22833333Y-4596247D02*
X22785714Y-4786723D01*
X22785714Y-4786723D02*
X22738095Y-4881961D01*
X22738095Y-4881961D02*
X22642857Y-4977200D01*
X22642857Y-4977200D02*
X22500000Y-5024819D01*
X22500000Y-5024819D02*
X22261905Y-5024819D01*
X23690476Y-4358152D02*
X23690476Y-5024819D01*
X23452381Y-3977200D02*
X23214286Y-4691485D01*
X23214286Y-4691485D02*
X23833333Y-4691485D01*
X7261905Y-5024819D02*
X7261905Y-4024819D01*
X7261905Y-4024819D02*
X7500000Y-4024819D01*
X7500000Y-4024819D02*
X7642857Y-4072438D01*
X7642857Y-4072438D02*
X7738095Y-4167676D01*
X7738095Y-4167676D02*
X7785714Y-4262914D01*
X7785714Y-4262914D02*
X7833333Y-4453390D01*
X7833333Y-4453390D02*
X7833333Y-4596247D01*
X7833333Y-4596247D02*
X7785714Y-4786723D01*
X7785714Y-4786723D02*
X7738095Y-4881961D01*
X7738095Y-4881961D02*
X7642857Y-4977200D01*
X7642857Y-4977200D02*
X7500000Y-5024819D01*
X7500000Y-5024819D02*
X7261905Y-5024819D01*
X8785714Y-5024819D02*
X8214286Y-5024819D01*
X8500000Y-5024819D02*
X8500000Y-4024819D01*
X8500000Y-4024819D02*
X8404762Y-4167676D01*
X8404762Y-4167676D02*
X8309524Y-4262914D01*
X8309524Y-4262914D02*
X8214286Y-4310533D01*
X2738095Y-41304819D02*
X2738095Y-40304819D01*
X2738095Y-40781009D02*
X3309523Y-40781009D01*
X3309523Y-41304819D02*
X3309523Y-40304819D01*
X3690476Y-40304819D02*
X4309523Y-40304819D01*
X4309523Y-40304819D02*
X3976190Y-40685771D01*
X3976190Y-40685771D02*
X4119047Y-40685771D01*
X4119047Y-40685771D02*
X4214285Y-40733390D01*
X4214285Y-40733390D02*
X4261904Y-40781009D01*
X4261904Y-40781009D02*
X4309523Y-40876247D01*
X4309523Y-40876247D02*
X4309523Y-41114342D01*
X4309523Y-41114342D02*
X4261904Y-41209580D01*
X4261904Y-41209580D02*
X4214285Y-41257200D01*
X4214285Y-41257200D02*
X4119047Y-41304819D01*
X4119047Y-41304819D02*
X3833333Y-41304819D01*
X3833333Y-41304819D02*
X3738095Y-41257200D01*
X3738095Y-41257200D02*
X3690476Y-41209580D01*
X12833333Y-8024819D02*
X12500000Y-7548628D01*
X12261905Y-8024819D02*
X12261905Y-7024819D01*
X12261905Y-7024819D02*
X12642857Y-7024819D01*
X12642857Y-7024819D02*
X12738095Y-7072438D01*
X12738095Y-7072438D02*
X12785714Y-7120057D01*
X12785714Y-7120057D02*
X12833333Y-7215295D01*
X12833333Y-7215295D02*
X12833333Y-7358152D01*
X12833333Y-7358152D02*
X12785714Y-7453390D01*
X12785714Y-7453390D02*
X12738095Y-7501009D01*
X12738095Y-7501009D02*
X12642857Y-7548628D01*
X12642857Y-7548628D02*
X12261905Y-7548628D01*
X13166667Y-7024819D02*
X13785714Y-7024819D01*
X13785714Y-7024819D02*
X13452381Y-7405771D01*
X13452381Y-7405771D02*
X13595238Y-7405771D01*
X13595238Y-7405771D02*
X13690476Y-7453390D01*
X13690476Y-7453390D02*
X13738095Y-7501009D01*
X13738095Y-7501009D02*
X13785714Y-7596247D01*
X13785714Y-7596247D02*
X13785714Y-7834342D01*
X13785714Y-7834342D02*
X13738095Y-7929580D01*
X13738095Y-7929580D02*
X13690476Y-7977200D01*
X13690476Y-7977200D02*
X13595238Y-8024819D01*
X13595238Y-8024819D02*
X13309524Y-8024819D01*
X13309524Y-8024819D02*
X13214286Y-7977200D01*
X13214286Y-7977200D02*
X13166667Y-7929580D01*
X17833333Y-8024819D02*
X17500000Y-7548628D01*
X17261905Y-8024819D02*
X17261905Y-7024819D01*
X17261905Y-7024819D02*
X17642857Y-7024819D01*
X17642857Y-7024819D02*
X17738095Y-7072438D01*
X17738095Y-7072438D02*
X17785714Y-7120057D01*
X17785714Y-7120057D02*
X17833333Y-7215295D01*
X17833333Y-7215295D02*
X17833333Y-7358152D01*
X17833333Y-7358152D02*
X17785714Y-7453390D01*
X17785714Y-7453390D02*
X17738095Y-7501009D01*
X17738095Y-7501009D02*
X17642857Y-7548628D01*
X17642857Y-7548628D02*
X17261905Y-7548628D01*
X18690476Y-7358152D02*
X18690476Y-8024819D01*
X18452381Y-6977200D02*
X18214286Y-7691485D01*
X18214286Y-7691485D02*
X18833333Y-7691485D01*
X60738095Y-304819D02*
X60738095Y695180D01*
X60738095Y218990D02*
X61309523Y218990D01*
X61309523Y-304819D02*
X61309523Y695180D01*
X61738095Y599942D02*
X61785714Y647561D01*
X61785714Y647561D02*
X61880952Y695180D01*
X61880952Y695180D02*
X62119047Y695180D01*
X62119047Y695180D02*
X62214285Y647561D01*
X62214285Y647561D02*
X62261904Y599942D01*
X62261904Y599942D02*
X62309523Y504704D01*
X62309523Y504704D02*
X62309523Y409466D01*
X62309523Y409466D02*
X62261904Y266609D01*
X62261904Y266609D02*
X61690476Y-304819D01*
X61690476Y-304819D02*
X62309523Y-304819D01*
X5666667Y-25907200D02*
X5809524Y-25954819D01*
X5809524Y-25954819D02*
X6047619Y-25954819D01*
X6047619Y-25954819D02*
X6142857Y-25907200D01*
X6142857Y-25907200D02*
X6190476Y-25859580D01*
X6190476Y-25859580D02*
X6238095Y-25764342D01*
X6238095Y-25764342D02*
X6238095Y-25669104D01*
X6238095Y-25669104D02*
X6190476Y-25573866D01*
X6190476Y-25573866D02*
X6142857Y-25526247D01*
X6142857Y-25526247D02*
X6047619Y-25478628D01*
X6047619Y-25478628D02*
X5857143Y-25431009D01*
X5857143Y-25431009D02*
X5761905Y-25383390D01*
X5761905Y-25383390D02*
X5714286Y-25335771D01*
X5714286Y-25335771D02*
X5666667Y-25240533D01*
X5666667Y-25240533D02*
X5666667Y-25145295D01*
X5666667Y-25145295D02*
X5714286Y-25050057D01*
X5714286Y-25050057D02*
X5761905Y-25002438D01*
X5761905Y-25002438D02*
X5857143Y-24954819D01*
X5857143Y-24954819D02*
X6095238Y-24954819D01*
X6095238Y-24954819D02*
X6238095Y-25002438D01*
X6571429Y-24954819D02*
X6809524Y-25954819D01*
X6809524Y-25954819D02*
X7000000Y-25240533D01*
X7000000Y-25240533D02*
X7190476Y-25954819D01*
X7190476Y-25954819D02*
X7428572Y-24954819D01*
X7714286Y-24954819D02*
X8333333Y-24954819D01*
X8333333Y-24954819D02*
X8000000Y-25335771D01*
X8000000Y-25335771D02*
X8142857Y-25335771D01*
X8142857Y-25335771D02*
X8238095Y-25383390D01*
X8238095Y-25383390D02*
X8285714Y-25431009D01*
X8285714Y-25431009D02*
X8333333Y-25526247D01*
X8333333Y-25526247D02*
X8333333Y-25764342D01*
X8333333Y-25764342D02*
X8285714Y-25859580D01*
X8285714Y-25859580D02*
X8238095Y-25907200D01*
X8238095Y-25907200D02*
X8142857Y-25954819D01*
X8142857Y-25954819D02*
X7857143Y-25954819D01*
X7857143Y-25954819D02*
X7761905Y-25907200D01*
X7761905Y-25907200D02*
X7714286Y-25859580D01*
X13666667Y-33907200D02*
X13809524Y-33954819D01*
X13809524Y-33954819D02*
X14047619Y-33954819D01*
X14047619Y-33954819D02*
X14142857Y-33907200D01*
X14142857Y-33907200D02*
X14190476Y-33859580D01*
X14190476Y-33859580D02*
X14238095Y-33764342D01*
X14238095Y-33764342D02*
X14238095Y-33669104D01*
X14238095Y-33669104D02*
X14190476Y-33573866D01*
X14190476Y-33573866D02*
X14142857Y-33526247D01*
X14142857Y-33526247D02*
X14047619Y-33478628D01*
X14047619Y-33478628D02*
X13857143Y-33431009D01*
X13857143Y-33431009D02*
X13761905Y-33383390D01*
X13761905Y-33383390D02*
X13714286Y-33335771D01*
X13714286Y-33335771D02*
X13666667Y-33240533D01*
X13666667Y-33240533D02*
X13666667Y-33145295D01*
X13666667Y-33145295D02*
X13714286Y-33050057D01*
X13714286Y-33050057D02*
X13761905Y-33002438D01*
X13761905Y-33002438D02*
X13857143Y-32954819D01*
X13857143Y-32954819D02*
X14095238Y-32954819D01*
X14095238Y-32954819D02*
X14238095Y-33002438D01*
X14571429Y-32954819D02*
X14809524Y-33954819D01*
X14809524Y-33954819D02*
X15000000Y-33240533D01*
X15000000Y-33240533D02*
X15190476Y-33954819D01*
X15190476Y-33954819D02*
X15428572Y-32954819D01*
X15761905Y-33050057D02*
X15809524Y-33002438D01*
X15809524Y-33002438D02*
X15904762Y-32954819D01*
X15904762Y-32954819D02*
X16142857Y-32954819D01*
X16142857Y-32954819D02*
X16238095Y-33002438D01*
X16238095Y-33002438D02*
X16285714Y-33050057D01*
X16285714Y-33050057D02*
X16333333Y-33145295D01*
X16333333Y-33145295D02*
X16333333Y-33240533D01*
X16333333Y-33240533D02*
X16285714Y-33383390D01*
X16285714Y-33383390D02*
X15714286Y-33954819D01*
X15714286Y-33954819D02*
X16333333Y-33954819D01*
X22833333Y-8024819D02*
X22500000Y-7548628D01*
X22261905Y-8024819D02*
X22261905Y-7024819D01*
X22261905Y-7024819D02*
X22642857Y-7024819D01*
X22642857Y-7024819D02*
X22738095Y-7072438D01*
X22738095Y-7072438D02*
X22785714Y-7120057D01*
X22785714Y-7120057D02*
X22833333Y-7215295D01*
X22833333Y-7215295D02*
X22833333Y-7358152D01*
X22833333Y-7358152D02*
X22785714Y-7453390D01*
X22785714Y-7453390D02*
X22738095Y-7501009D01*
X22738095Y-7501009D02*
X22642857Y-7548628D01*
X22642857Y-7548628D02*
X22261905Y-7548628D01*
X23738095Y-7024819D02*
X23261905Y-7024819D01*
X23261905Y-7024819D02*
X23214286Y-7501009D01*
X23214286Y-7501009D02*
X23261905Y-7453390D01*
X23261905Y-7453390D02*
X23357143Y-7405771D01*
X23357143Y-7405771D02*
X23595238Y-7405771D01*
X23595238Y-7405771D02*
X23690476Y-7453390D01*
X23690476Y-7453390D02*
X23738095Y-7501009D01*
X23738095Y-7501009D02*
X23785714Y-7596247D01*
X23785714Y-7596247D02*
X23785714Y-7834342D01*
X23785714Y-7834342D02*
X23738095Y-7929580D01*
X23738095Y-7929580D02*
X23690476Y-7977200D01*
X23690476Y-7977200D02*
X23595238Y-8024819D01*
X23595238Y-8024819D02*
X23357143Y-8024819D01*
X23357143Y-8024819D02*
X23261905Y-7977200D01*
X23261905Y-7977200D02*
X23214286Y-7929580D01*
X17261905Y-5024819D02*
X17261905Y-4024819D01*
X17261905Y-4024819D02*
X17500000Y-4024819D01*
X17500000Y-4024819D02*
X17642857Y-4072438D01*
X17642857Y-4072438D02*
X17738095Y-4167676D01*
X17738095Y-4167676D02*
X17785714Y-4262914D01*
X17785714Y-4262914D02*
X17833333Y-4453390D01*
X17833333Y-4453390D02*
X17833333Y-4596247D01*
X17833333Y-4596247D02*
X17785714Y-4786723D01*
X17785714Y-4786723D02*
X17738095Y-4881961D01*
X17738095Y-4881961D02*
X17642857Y-4977200D01*
X17642857Y-4977200D02*
X17500000Y-5024819D01*
X17500000Y-5024819D02*
X17261905Y-5024819D01*
X18166667Y-4024819D02*
X18785714Y-4024819D01*
X18785714Y-4024819D02*
X18452381Y-4405771D01*
X18452381Y-4405771D02*
X18595238Y-4405771D01*
X18595238Y-4405771D02*
X18690476Y-4453390D01*
X18690476Y-4453390D02*
X18738095Y-4501009D01*
X18738095Y-4501009D02*
X18785714Y-4596247D01*
X18785714Y-4596247D02*
X18785714Y-4834342D01*
X18785714Y-4834342D02*
X18738095Y-4929580D01*
X18738095Y-4929580D02*
X18690476Y-4977200D01*
X18690476Y-4977200D02*
X18595238Y-5024819D01*
X18595238Y-5024819D02*
X18309524Y-5024819D01*
X18309524Y-5024819D02*
X18214286Y-4977200D01*
X18214286Y-4977200D02*
X18166667Y-4929580D01*
X2738095Y-304819D02*
X2738095Y695180D01*
X2738095Y218990D02*
X3309523Y218990D01*
X3309523Y-304819D02*
X3309523Y695180D01*
X4309523Y-304819D02*
X3738095Y-304819D01*
X4023809Y-304819D02*
X4023809Y695180D01*
X4023809Y695180D02*
X3928571Y552323D01*
X3928571Y552323D02*
X3833333Y457085D01*
X3833333Y457085D02*
X3738095Y409466D01*
X35238095Y-3554819D02*
X35238095Y-4364342D01*
X35238095Y-4364342D02*
X35285714Y-4459580D01*
X35285714Y-4459580D02*
X35333333Y-4507200D01*
X35333333Y-4507200D02*
X35428571Y-4554819D01*
X35428571Y-4554819D02*
X35619047Y-4554819D01*
X35619047Y-4554819D02*
X35714285Y-4507200D01*
X35714285Y-4507200D02*
X35761904Y-4459580D01*
X35761904Y-4459580D02*
X35809523Y-4364342D01*
X35809523Y-4364342D02*
X35809523Y-3554819D01*
X36809523Y-4554819D02*
X36238095Y-4554819D01*
X36523809Y-4554819D02*
X36523809Y-3554819D01*
X36523809Y-3554819D02*
X36428571Y-3697676D01*
X36428571Y-3697676D02*
X36333333Y-3792914D01*
X36333333Y-3792914D02*
X36238095Y-3840533D01*
X47833333Y-9929580D02*
X47785714Y-9977200D01*
X47785714Y-9977200D02*
X47642857Y-10024819D01*
X47642857Y-10024819D02*
X47547619Y-10024819D01*
X47547619Y-10024819D02*
X47404762Y-9977200D01*
X47404762Y-9977200D02*
X47309524Y-9881961D01*
X47309524Y-9881961D02*
X47261905Y-9786723D01*
X47261905Y-9786723D02*
X47214286Y-9596247D01*
X47214286Y-9596247D02*
X47214286Y-9453390D01*
X47214286Y-9453390D02*
X47261905Y-9262914D01*
X47261905Y-9262914D02*
X47309524Y-9167676D01*
X47309524Y-9167676D02*
X47404762Y-9072438D01*
X47404762Y-9072438D02*
X47547619Y-9024819D01*
X47547619Y-9024819D02*
X47642857Y-9024819D01*
X47642857Y-9024819D02*
X47785714Y-9072438D01*
X47785714Y-9072438D02*
X47833333Y-9120057D01*
X48785714Y-10024819D02*
X48214286Y-10024819D01*
X48500000Y-10024819D02*
X48500000Y-9024819D01*
X48500000Y-9024819D02*
X48404762Y-9167676D01*
X48404762Y-9167676D02*
X48309524Y-9262914D01*
X48309524Y-9262914D02*
X48214286Y-9310533D01*
X14833333Y-13024819D02*
X14500000Y-12548628D01*
X14261905Y-13024819D02*
X14261905Y-12024819D01*
X14261905Y-12024819D02*
X14642857Y-12024819D01*
X14642857Y-12024819D02*
X14738095Y-12072438D01*
X14738095Y-12072438D02*
X14785714Y-12120057D01*
X14785714Y-12120057D02*
X14833333Y-12215295D01*
X14833333Y-12215295D02*
X14833333Y-12358152D01*
X14833333Y-12358152D02*
X14785714Y-12453390D01*
X14785714Y-12453390D02*
X14738095Y-12501009D01*
X14738095Y-12501009D02*
X14642857Y-12548628D01*
X14642857Y-12548628D02*
X14261905Y-12548628D01*
X15785714Y-13024819D02*
X15214286Y-13024819D01*
X15500000Y-13024819D02*
X15500000Y-12024819D01*
X15500000Y-12024819D02*
X15404762Y-12167676D01*
X15404762Y-12167676D02*
X15309524Y-12262914D01*
X15309524Y-12262914D02*
X15214286Y-12310533D01*
X57032380Y-6309726D02*
X57032380Y-7337821D01*
X57032380Y-7337821D02*
X57092857Y-7458773D01*
X57092857Y-7458773D02*
X57153333Y-7519250D01*
X57153333Y-7519250D02*
X57274285Y-7579726D01*
X57274285Y-7579726D02*
X57516190Y-7579726D01*
X57516190Y-7579726D02*
X57637142Y-7519250D01*
X57637142Y-7519250D02*
X57697619Y-7458773D01*
X57697619Y-7458773D02*
X57758095Y-7337821D01*
X57758095Y-7337821D02*
X57758095Y-6309726D01*
X58302380Y-6430678D02*
X58362856Y-6370202D01*
X58362856Y-6370202D02*
X58483809Y-6309726D01*
X58483809Y-6309726D02*
X58786190Y-6309726D01*
X58786190Y-6309726D02*
X58907142Y-6370202D01*
X58907142Y-6370202D02*
X58967618Y-6430678D01*
X58967618Y-6430678D02*
X59028095Y-6551630D01*
X59028095Y-6551630D02*
X59028095Y-6672583D01*
X59028095Y-6672583D02*
X58967618Y-6854011D01*
X58967618Y-6854011D02*
X58241904Y-7579726D01*
X58241904Y-7579726D02*
X59028095Y-7579726D01*
X13666667Y-17907200D02*
X13809524Y-17954819D01*
X13809524Y-17954819D02*
X14047619Y-17954819D01*
X14047619Y-17954819D02*
X14142857Y-17907200D01*
X14142857Y-17907200D02*
X14190476Y-17859580D01*
X14190476Y-17859580D02*
X14238095Y-17764342D01*
X14238095Y-17764342D02*
X14238095Y-17669104D01*
X14238095Y-17669104D02*
X14190476Y-17573866D01*
X14190476Y-17573866D02*
X14142857Y-17526247D01*
X14142857Y-17526247D02*
X14047619Y-17478628D01*
X14047619Y-17478628D02*
X13857143Y-17431009D01*
X13857143Y-17431009D02*
X13761905Y-17383390D01*
X13761905Y-17383390D02*
X13714286Y-17335771D01*
X13714286Y-17335771D02*
X13666667Y-17240533D01*
X13666667Y-17240533D02*
X13666667Y-17145295D01*
X13666667Y-17145295D02*
X13714286Y-17050057D01*
X13714286Y-17050057D02*
X13761905Y-17002438D01*
X13761905Y-17002438D02*
X13857143Y-16954819D01*
X13857143Y-16954819D02*
X14095238Y-16954819D01*
X14095238Y-16954819D02*
X14238095Y-17002438D01*
X14571429Y-16954819D02*
X14809524Y-17954819D01*
X14809524Y-17954819D02*
X15000000Y-17240533D01*
X15000000Y-17240533D02*
X15190476Y-17954819D01*
X15190476Y-17954819D02*
X15428572Y-16954819D01*
X16333333Y-17954819D02*
X15761905Y-17954819D01*
X16047619Y-17954819D02*
X16047619Y-16954819D01*
X16047619Y-16954819D02*
X15952381Y-17097676D01*
X15952381Y-17097676D02*
X15857143Y-17192914D01*
X15857143Y-17192914D02*
X15761905Y-17240533D01*
X7833333Y-8024819D02*
X7500000Y-7548628D01*
X7261905Y-8024819D02*
X7261905Y-7024819D01*
X7261905Y-7024819D02*
X7642857Y-7024819D01*
X7642857Y-7024819D02*
X7738095Y-7072438D01*
X7738095Y-7072438D02*
X7785714Y-7120057D01*
X7785714Y-7120057D02*
X7833333Y-7215295D01*
X7833333Y-7215295D02*
X7833333Y-7358152D01*
X7833333Y-7358152D02*
X7785714Y-7453390D01*
X7785714Y-7453390D02*
X7738095Y-7501009D01*
X7738095Y-7501009D02*
X7642857Y-7548628D01*
X7642857Y-7548628D02*
X7261905Y-7548628D01*
X8214286Y-7120057D02*
X8261905Y-7072438D01*
X8261905Y-7072438D02*
X8357143Y-7024819D01*
X8357143Y-7024819D02*
X8595238Y-7024819D01*
X8595238Y-7024819D02*
X8690476Y-7072438D01*
X8690476Y-7072438D02*
X8738095Y-7120057D01*
X8738095Y-7120057D02*
X8785714Y-7215295D01*
X8785714Y-7215295D02*
X8785714Y-7310533D01*
X8785714Y-7310533D02*
X8738095Y-7453390D01*
X8738095Y-7453390D02*
X8166667Y-8024819D01*
X8166667Y-8024819D02*
X8785714Y-8024819D01*
X60738095Y-41304819D02*
X60738095Y-40304819D01*
X60738095Y-40781009D02*
X61309523Y-40781009D01*
X61309523Y-41304819D02*
X61309523Y-40304819D01*
X62214285Y-40638152D02*
X62214285Y-41304819D01*
X61976190Y-40257200D02*
X61738095Y-40971485D01*
X61738095Y-40971485D02*
X62357142Y-40971485D01*
D11*
%TO.C,C2*%
X57859420Y-10490000D02*
X58140580Y-10490000D01*
X57859420Y-11510000D02*
X58140580Y-11510000D01*
%TO.C,SW5*%
X34850000Y-26550000D02*
X41150000Y-26550000D01*
X34850000Y-26800000D02*
X34850000Y-26550000D01*
X34850000Y-31300000D02*
X34850000Y-28700000D01*
X34850000Y-33450000D02*
X34850000Y-33200000D01*
X41150000Y-26550000D02*
X41150000Y-26800000D01*
X41150000Y-28700000D02*
X41150000Y-31300000D01*
X41150000Y-33200000D02*
X41150000Y-33450000D01*
X41150000Y-33450000D02*
X34850000Y-33450000D01*
%TO.C,SW6*%
X47850000Y-26550000D02*
X54150000Y-26550000D01*
X47850000Y-26800000D02*
X47850000Y-26550000D01*
X47850000Y-31300000D02*
X47850000Y-28700000D01*
X47850000Y-33450000D02*
X47850000Y-33200000D01*
X54150000Y-26550000D02*
X54150000Y-26800000D01*
X54150000Y-28700000D02*
X54150000Y-31300000D01*
X54150000Y-33200000D02*
X54150000Y-33450000D01*
X54150000Y-33450000D02*
X47850000Y-33450000D01*
%TO.C,J1*%
X2890000Y-14960000D02*
X2890000Y-16110000D01*
X2890000Y-16110000D02*
X3940000Y-16110000D01*
X3940000Y-16110000D02*
X3940000Y-17100000D01*
X4060000Y-12990000D02*
X9940000Y-12990000D01*
X11110000Y-14960000D02*
X11110000Y-16110000D01*
X11110000Y-16110000D02*
X10060000Y-16110000D01*
%TO.C,SW4*%
X19850000Y-26550000D02*
X26150000Y-26550000D01*
X19850000Y-26800000D02*
X19850000Y-26550000D01*
X19850000Y-31300000D02*
X19850000Y-28700000D01*
X19850000Y-33450000D02*
X19850000Y-33200000D01*
X26150000Y-26550000D02*
X26150000Y-26800000D01*
X26150000Y-28700000D02*
X26150000Y-31300000D01*
X26150000Y-33200000D02*
X26150000Y-33450000D01*
X26150000Y-33450000D02*
X19850000Y-33450000D01*
%TO.C,D2*%
X11515000Y-5265000D02*
X11515000Y-6735000D01*
X11515000Y-6735000D02*
X13800000Y-6735000D01*
X13800000Y-5265000D02*
X11515000Y-5265000D01*
%TO.C,D4*%
X21515000Y-5265000D02*
X21515000Y-6735000D01*
X21515000Y-6735000D02*
X23800000Y-6735000D01*
X23800000Y-5265000D02*
X21515000Y-5265000D01*
%TO.C,D1*%
X6515000Y-5265000D02*
X6515000Y-6735000D01*
X6515000Y-6735000D02*
X8800000Y-6735000D01*
X8800000Y-5265000D02*
X6515000Y-5265000D01*
%TO.C,R3*%
X12762742Y-8477500D02*
X13237258Y-8477500D01*
X12762742Y-9522500D02*
X13237258Y-9522500D01*
%TO.C,R4*%
X17762742Y-8477500D02*
X18237258Y-8477500D01*
X17762742Y-9522500D02*
X18237258Y-9522500D01*
%TO.C,SW3*%
X3850000Y-26550000D02*
X10150000Y-26550000D01*
X3850000Y-26800000D02*
X3850000Y-26550000D01*
X3850000Y-31300000D02*
X3850000Y-28700000D01*
X3850000Y-33450000D02*
X3850000Y-33200000D01*
X10150000Y-26550000D02*
X10150000Y-26800000D01*
X10150000Y-28700000D02*
X10150000Y-31300000D01*
X10150000Y-33200000D02*
X10150000Y-33450000D01*
X10150000Y-33450000D02*
X3850000Y-33450000D01*
%TO.C,SW2*%
X11850000Y-34550000D02*
X18150000Y-34550000D01*
X11850000Y-34800000D02*
X11850000Y-34550000D01*
X11850000Y-39300000D02*
X11850000Y-36700000D01*
X11850000Y-41450000D02*
X11850000Y-41200000D01*
X18150000Y-34550000D02*
X18150000Y-34800000D01*
X18150000Y-36700000D02*
X18150000Y-39300000D01*
X18150000Y-41200000D02*
X18150000Y-41450000D01*
X18150000Y-41450000D02*
X11850000Y-41450000D01*
%TO.C,R5*%
X22762742Y-8477500D02*
X23237258Y-8477500D01*
X22762742Y-9522500D02*
X23237258Y-9522500D01*
%TO.C,D3*%
X16515000Y-5265000D02*
X16515000Y-6735000D01*
X16515000Y-6735000D02*
X18800000Y-6735000D01*
X18800000Y-5265000D02*
X16515000Y-5265000D01*
%TO.C,U1*%
X32140000Y-4940000D02*
X32140000Y-5185000D01*
X32140000Y-23060000D02*
X32140000Y-22815000D01*
X36000000Y-4940000D02*
X32140000Y-4940000D01*
X36000000Y-4940000D02*
X39860000Y-4940000D01*
X36000000Y-23060000D02*
X32140000Y-23060000D01*
X36000000Y-23060000D02*
X39860000Y-23060000D01*
X39860000Y-4940000D02*
X39860000Y-5185000D01*
X39860000Y-23060000D02*
X39860000Y-22815000D01*
X31287500Y-5185000D02*
X30947500Y-4715000D01*
X31627500Y-4715000D01*
X31287500Y-5185000D01*
G36*
X31287500Y-5185000D02*
G01*
X30947500Y-4715000D01*
X31627500Y-4715000D01*
X31287500Y-5185000D01*
G37*
%TO.C,C1*%
X47859420Y-10490000D02*
X48140580Y-10490000D01*
X47859420Y-11510000D02*
X48140580Y-11510000D01*
%TO.C,R1*%
X14762742Y-13477500D02*
X15237258Y-13477500D01*
X14762742Y-14522500D02*
X15237258Y-14522500D01*
%TO.C,U2*%
X57000000Y-6000000D02*
X59000000Y-6000000D01*
X57000000Y-8000000D02*
X57000000Y-6000000D01*
X59000000Y-6000000D02*
X59000000Y-8000000D01*
X59000000Y-8000000D02*
X57000000Y-8000000D01*
%TO.C,SW1*%
X11850000Y-18550000D02*
X18150000Y-18550000D01*
X11850000Y-18800000D02*
X11850000Y-18550000D01*
X11850000Y-23300000D02*
X11850000Y-20700000D01*
X11850000Y-25450000D02*
X11850000Y-25200000D01*
X18150000Y-18550000D02*
X18150000Y-18800000D01*
X18150000Y-20700000D02*
X18150000Y-23300000D01*
X18150000Y-25200000D02*
X18150000Y-25450000D01*
X18150000Y-25450000D02*
X11850000Y-25450000D01*
%TO.C,R2*%
X7762742Y-8477500D02*
X8237258Y-8477500D01*
X7762742Y-9522500D02*
X8237258Y-9522500D01*
%TD*%
M02*
