%TF.GenerationSoftware,KiCad,Pcbnew,9.0.2+dfsg-1*%
%TF.CreationDate,2026-04-19T10:36:37-07:00*%
%TF.ProjectId,gx01-front-panel,67783031-2d66-4726-9f6e-742d70616e65,rev?*%
%TF.SameCoordinates,Original*%
%TF.FileFunction,Soldermask,Top*%
%TF.FilePolarity,Negative*%
%FSLAX46Y46*%
G04 Gerber Fmt 4.6, Leading zero omitted, Abs format (unit mm)*
G04 Created by KiCad (PCBNEW 9.0.2+dfsg-1) date 2026-04-19 10:36:37*
%MOMM*%
%LPD*%
G01*
G04 APERTURE LIST*
G04 Aperture macros list*
%AMRoundRect*
0 Rectangle with rounded corners*
0 $1 Rounding radius*
0 $2 $3 $4 $5 $6 $7 $8 $9 X,Y pos of 4 corners*
0 Add a 4 corners polygon primitive as box body*
4,1,4,$2,$3,$4,$5,$6,$7,$8,$9,$2,$3,0*
0 Add four circle primitives for the rounded corners*
1,1,$1+$1,$2,$3*
1,1,$1+$1,$4,$5*
1,1,$1+$1,$6,$7*
1,1,$1+$1,$8,$9*
0 Add four rect primitives between the rounded corners*
20,1,$1+$1,$2,$3,$4,$5,0*
20,1,$1+$1,$4,$5,$6,$7,0*
20,1,$1+$1,$6,$7,$8,$9,0*
20,1,$1+$1,$8,$9,$2,$3,0*%
G04 Aperture macros list end*
%ADD10RoundRect,0.218750X-0.218750X-0.256250X0.218750X-0.256250X0.218750X0.256250X-0.218750X0.256250X0*%
%ADD11RoundRect,0.200000X-0.200000X-0.275000X0.200000X-0.275000X0.200000X0.275000X-0.200000X0.275000X0*%
%ADD12R,0.900000X1.700000*%
%ADD13RoundRect,0.225000X-0.225000X-0.250000X0.225000X-0.250000X0.225000X0.250000X-0.225000X0.250000X0*%
%ADD14RoundRect,0.150000X-0.150000X-0.625000X0.150000X-0.625000X0.150000X0.625000X-0.150000X0.625000X0*%
%ADD15RoundRect,0.250000X-0.350000X-0.650000X0.350000X-0.650000X0.350000X0.650000X-0.350000X0.650000X0*%
%ADD16C,2.700000*%
%ADD17RoundRect,0.150000X-0.875000X-0.150000X0.875000X-0.150000X0.875000X0.150000X-0.875000X0.150000X0*%
%ADD18R,0.300000X0.400000*%
G04 APERTURE END LIST*
D10*
%TO.C,D1*%
X7212500Y-6000000D03*
X8787500Y-6000000D03*
%TD*%
D11*
%TO.C,R4*%
X17175000Y-9000000D03*
X18825000Y-9000000D03*
%TD*%
D12*
%TO.C,SW5*%
X38300000Y-28000000D03*
X41700000Y-28000000D03*
%TD*%
%TO.C,SW4*%
X19300000Y-28000000D03*
X22700000Y-28000000D03*
%TD*%
D13*
%TO.C,C1*%
X47225000Y-11000000D03*
X48775000Y-11000000D03*
%TD*%
D12*
%TO.C,SW6*%
X51300000Y-28000000D03*
X54700000Y-28000000D03*
%TD*%
D11*
%TO.C,R1*%
X14175000Y-14000000D03*
X15825000Y-14000000D03*
%TD*%
%TO.C,R3*%
X12175000Y-9000000D03*
X13825000Y-9000000D03*
%TD*%
D12*
%TO.C,SW3*%
X5300000Y-28000000D03*
X8700000Y-28000000D03*
%TD*%
D14*
%TO.C,J1*%
X4500000Y-16325000D03*
X5500000Y-16325000D03*
X6500000Y-16325000D03*
X7500000Y-16325000D03*
X8500000Y-16325000D03*
X9500000Y-16325000D03*
D15*
X3200000Y-13800000D03*
X10800000Y-13800000D03*
%TD*%
D13*
%TO.C,C2*%
X57225000Y-11000000D03*
X58775000Y-11000000D03*
%TD*%
D12*
%TO.C,SW2*%
X12300000Y-34000000D03*
X15700000Y-34000000D03*
%TD*%
D16*
%TO.C,H1*%
X3500000Y-3500000D03*
%TD*%
%TO.C,H2*%
X61500000Y-3500000D03*
%TD*%
D10*
%TO.C,D2*%
X12212500Y-6000000D03*
X13787500Y-6000000D03*
%TD*%
%TO.C,D3*%
X17212500Y-6000000D03*
X18787500Y-6000000D03*
%TD*%
D17*
%TO.C,U1*%
X31350000Y-5745000D03*
X31350000Y-7015000D03*
X31350000Y-8285000D03*
X31350000Y-9555000D03*
X31350000Y-10825000D03*
X31350000Y-12095000D03*
X31350000Y-13365000D03*
X31350000Y-14635000D03*
X31350000Y-15905000D03*
X31350000Y-17175000D03*
X31350000Y-18445000D03*
X31350000Y-19715000D03*
X31350000Y-20985000D03*
X31350000Y-22255000D03*
X40650000Y-22255000D03*
X40650000Y-20985000D03*
X40650000Y-19715000D03*
X40650000Y-18445000D03*
X40650000Y-17175000D03*
X40650000Y-15905000D03*
X40650000Y-14635000D03*
X40650000Y-13365000D03*
X40650000Y-12095000D03*
X40650000Y-10825000D03*
X40650000Y-9555000D03*
X40650000Y-8285000D03*
X40650000Y-7015000D03*
X40650000Y-5745000D03*
%TD*%
D11*
%TO.C,R5*%
X22175000Y-9000000D03*
X23825000Y-9000000D03*
%TD*%
D16*
%TO.C,H3*%
X3500000Y-38500000D03*
%TD*%
D12*
%TO.C,SW1*%
X12300000Y-22000000D03*
X15700000Y-22000000D03*
%TD*%
D16*
%TO.C,H4*%
X61500000Y-38500000D03*
%TD*%
D18*
%TO.C,U2*%
X57500000Y-6400000D03*
X58000000Y-6400000D03*
X58500000Y-6400000D03*
X58500000Y-7600000D03*
X58000000Y-7600000D03*
X57500000Y-7600000D03*
%TD*%
D10*
%TO.C,D4*%
X22212500Y-6000000D03*
X23787500Y-6000000D03*
%TD*%
D11*
%TO.C,R2*%
X7175000Y-9000000D03*
X8825000Y-9000000D03*
%TD*%
M02*
