M48
; DRILL file {KiCad 9.0.2+dfsg-1} date 2026-04-19T10:36:37-0700
; FORMAT={-:-/ absolute / metric / decimal}
; #@! TF.CreationDate,2026-04-19T10:36:37-07:00
; #@! TF.GenerationSoftware,Kicad,Pcbnew,9.0.2+dfsg-1
; #@! TF.FileFunction,MixedPlating,1,2
FMAT,2
METRIC
; #@! TA.AperFunction,Plated,PTH,ViaDrill
T1C0.300
; #@! TA.AperFunction,NonPlated,NPTH,ComponentDrill
T2C2.700
%
G90
G05
T1
X5.214Y-14.758
X7.309Y-18.345
X8.2Y-19.02
X8.666Y-10.314
X10.452Y-26.626
X10.778Y-15.74
X12.377Y-7.407
X16.2Y-19.019
X16.916Y-21.428
X16.916Y-34.255
X19.164Y-12.559
X22.7Y-26.614
X24.178Y-6.996
X28.055Y-18.451
X29.953Y-17.81
X29.953Y-20.35
X38.621Y-17.213
X39.026Y-11.991
X39.026Y-12.84
X39.026Y-19.072
X39.91Y-23.888
X41.771Y-26.185
X42.241Y-13.442
X48.801Y-12.721
X54.728Y-26.185
X57.692Y-15.373
X57.719Y-18.213
X57.75Y-8.734
X58.775Y-9.472
T2
X3.5Y-3.5
X3.5Y-38.5
X61.5Y-3.5
X61.5Y-38.5
M30
