%TF.GenerationSoftware,KiCad,Pcbnew,9.0.2+dfsg-1*%
%TF.CreationDate,2026-04-19T10:36:37-07:00*%
%TF.ProjectId,gx01-front-panel,67783031-2d66-4726-9f6e-742d70616e65,rev?*%
%TF.SameCoordinates,Original*%
%TF.FileFunction,Copper,L2,Bot*%
%TF.FilePolarity,Positive*%
%FSLAX46Y46*%
G04 Gerber Fmt 4.6, Leading zero omitted, Abs format (unit mm)*
G04 Created by KiCad (PCBNEW 9.0.2+dfsg-1) date 2026-04-19 10:36:37*
%MOMM*%
%LPD*%
G01*
G04 APERTURE LIST*
%TA.AperFunction,ViaPad*%
%ADD10C,0.600000*%
%TD*%
%TA.AperFunction,Conductor*%
%ADD11C,0.200000*%
%TD*%
G04 APERTURE END LIST*
D10*
%TO.N,GND*%
X41770900Y-26184800D03*
X10452400Y-26626300D03*
X16916100Y-21428100D03*
X22700000Y-26613900D03*
X5213700Y-14757700D03*
X54728500Y-26184800D03*
X29952800Y-17810000D03*
X39910000Y-23887600D03*
X8666500Y-10314200D03*
X57750000Y-8733800D03*
X48801100Y-12720900D03*
X58775000Y-9471900D03*
X16916100Y-34254900D03*
%TO.N,SDA1*%
X29952800Y-20350000D03*
X8200200Y-19019700D03*
X57719200Y-18213200D03*
%TO.N,SCL1*%
X7309300Y-18345100D03*
X28055200Y-18451300D03*
X57692200Y-15372700D03*
%TO.N,MCP_INT*%
X10777700Y-15740200D03*
X38621300Y-17213000D03*
%TO.N,MCP_RST*%
X16200400Y-19018900D03*
X39026300Y-19072000D03*
%TO.N,D2_K*%
X39026300Y-12840400D03*
X12376600Y-7407500D03*
%TO.N,D3_K*%
X19164100Y-12559300D03*
X42240600Y-13442200D03*
%TO.N,D4_K*%
X24177600Y-6995600D03*
X39026300Y-11991200D03*
%TD*%
D11*
%TO.N,SDA1*%
X55582400Y-20350000D02*
X29952800Y-20350000D01*
X57719200Y-18213200D02*
X55582400Y-20350000D01*
X8200200Y-19019700D02*
X9530500Y-20350000D01*
X9530500Y-20350000D02*
X29952800Y-20350000D01*
%TO.N,SCL1*%
X28055200Y-18451300D02*
X54613600Y-18451300D01*
X27949000Y-18345100D02*
X28055200Y-18451300D01*
X7309300Y-18345100D02*
X27949000Y-18345100D01*
X54613600Y-18451300D02*
X57692200Y-15372700D01*
%TO.N,MCP_INT*%
X37148500Y-15740200D02*
X10777700Y-15740200D01*
X38621300Y-17213000D02*
X37148500Y-15740200D01*
%TO.N,MCP_RST*%
X16253500Y-19072000D02*
X39026300Y-19072000D01*
X16200400Y-19018900D02*
X16253500Y-19072000D01*
%TO.N,D2_K*%
X34279900Y-6393900D02*
X23928500Y-6393900D01*
X39026300Y-12840400D02*
X39028000Y-12840400D01*
X39628000Y-12240400D02*
X39628000Y-11742000D01*
X22915000Y-7407500D02*
X12376600Y-7407500D01*
X22915000Y-7407400D02*
X22915000Y-7407500D01*
X23928500Y-6393900D02*
X22915000Y-7407400D01*
X39028000Y-12840400D02*
X39628000Y-12240400D01*
X39628000Y-11742000D02*
X34279900Y-6393900D01*
%TO.N,D3_K*%
X20047000Y-13442200D02*
X42240600Y-13442200D01*
X19164100Y-12559300D02*
X20047000Y-13442200D01*
%TO.N,D4_K*%
X34030700Y-6995600D02*
X39026300Y-11991200D01*
X24177600Y-6995600D02*
X34030700Y-6995600D01*
%TD*%
%TA.AperFunction,Conductor*%
%TO.N,GND*%
G36*
X64442539Y-520185D02*
G01*
X64488294Y-572989D01*
X64499500Y-624500D01*
X64499500Y-41375500D01*
X64479815Y-41442539D01*
X64427011Y-41488294D01*
X64375500Y-41499500D01*
X624500Y-41499500D01*
X557461Y-41479815D01*
X511706Y-41427011D01*
X500500Y-41375500D01*
X500500Y-38499998D01*
X1000000Y-38499998D01*
X1000000Y-38500001D01*
X1085184Y-39147045D01*
X1085185Y-39147047D01*
X1334936Y-39750000D01*
X1732233Y-40267766D01*
X2250000Y-40665063D01*
X2852952Y-40914814D01*
X3176476Y-40957407D01*
X3499999Y-41000000D01*
X3500000Y-41000000D01*
X3500001Y-41000000D01*
X3715682Y-40971604D01*
X4147047Y-40914814D01*
X4750000Y-40665063D01*
X5267766Y-40267766D01*
X5665063Y-39750000D01*
X5914814Y-39147047D01*
X6000000Y-38500000D01*
X6000000Y-38499998D01*
X59000000Y-38499998D01*
X59000000Y-38500001D01*
X59085184Y-39147045D01*
X59085185Y-39147047D01*
X59334936Y-39750000D01*
X59732233Y-40267766D01*
X60250000Y-40665063D01*
X60852952Y-40914814D01*
X61176476Y-40957407D01*
X61499999Y-41000000D01*
X61500000Y-41000000D01*
X61500001Y-41000000D01*
X61715682Y-40971604D01*
X62147047Y-40914814D01*
X62750000Y-40665063D01*
X63267766Y-40267766D01*
X63665063Y-39750000D01*
X63914814Y-39147047D01*
X64000000Y-38500000D01*
X63914814Y-37852952D01*
X63665063Y-37250000D01*
X63267766Y-36732233D01*
X62750000Y-36334936D01*
X62749995Y-36334934D01*
X62147047Y-36085185D01*
X62147045Y-36085184D01*
X61500001Y-36000000D01*
X61499999Y-36000000D01*
X60852953Y-36085184D01*
X60852951Y-36085185D01*
X60250002Y-36334934D01*
X59732233Y-36732233D01*
X59334934Y-37250002D01*
X59085185Y-37852951D01*
X59085184Y-37852953D01*
X59000000Y-38499998D01*
X6000000Y-38499998D01*
X5914814Y-37852952D01*
X5665063Y-37250000D01*
X5267766Y-36732233D01*
X4750000Y-36334936D01*
X4749995Y-36334934D01*
X4147047Y-36085185D01*
X4147045Y-36085184D01*
X3500000Y-36000000D01*
X3499998Y-36000000D01*
X2852953Y-36085184D01*
X2852951Y-36085185D01*
X2250000Y-36334935D01*
X1732233Y-36732233D01*
X1334934Y-37250002D01*
X1085185Y-37852951D01*
X1085184Y-37852953D01*
X1000000Y-38499998D01*
X500500Y-38499998D01*
X500500Y-18272625D01*
X6758800Y-18272625D01*
X6758800Y-18417575D01*
X6794608Y-18551211D01*
X6796317Y-18557588D01*
X6868788Y-18683111D01*
X6868790Y-18683113D01*
X6868791Y-18683115D01*
X6971285Y-18785609D01*
X6971286Y-18785610D01*
X6971288Y-18785611D01*
X7096811Y-18858082D01*
X7096812Y-18858082D01*
X7096815Y-18858084D01*
X7236825Y-18895600D01*
X7236828Y-18895600D01*
X7381772Y-18895600D01*
X7381775Y-18895600D01*
X7493608Y-18865634D01*
X7563456Y-18867297D01*
X7621319Y-18906459D01*
X7648823Y-18970688D01*
X7649700Y-18985409D01*
X7649700Y-19092175D01*
X7687216Y-19232185D01*
X7687217Y-19232188D01*
X7759688Y-19357711D01*
X7759690Y-19357713D01*
X7759691Y-19357715D01*
X7862185Y-19460209D01*
X7862186Y-19460210D01*
X7862188Y-19460211D01*
X7987711Y-19532682D01*
X7987712Y-19532682D01*
X7987715Y-19532684D01*
X8127725Y-19570200D01*
X8203656Y-19570200D01*
X8270695Y-19589885D01*
X8291337Y-19606519D01*
X9250031Y-20565212D01*
X9315288Y-20630469D01*
X9315291Y-20630470D01*
X9315294Y-20630473D01*
X9395206Y-20676611D01*
X9395207Y-20676611D01*
X9395212Y-20676614D01*
X9484356Y-20700500D01*
X29473414Y-20700500D01*
X29540453Y-20720185D01*
X29561095Y-20736819D01*
X29614785Y-20790509D01*
X29614786Y-20790510D01*
X29614788Y-20790511D01*
X29740311Y-20862982D01*
X29740312Y-20862982D01*
X29740315Y-20862984D01*
X29880325Y-20900500D01*
X29880328Y-20900500D01*
X30025272Y-20900500D01*
X30025275Y-20900500D01*
X30165285Y-20862984D01*
X30290815Y-20790509D01*
X30344505Y-20736819D01*
X30405828Y-20703334D01*
X30432186Y-20700500D01*
X55628542Y-20700500D01*
X55628544Y-20700500D01*
X55717688Y-20676614D01*
X55728312Y-20670480D01*
X55797612Y-20630470D01*
X57628063Y-18800019D01*
X57689386Y-18766534D01*
X57715744Y-18763700D01*
X57791672Y-18763700D01*
X57791675Y-18763700D01*
X57931685Y-18726184D01*
X58057215Y-18653709D01*
X58159709Y-18551215D01*
X58232184Y-18425685D01*
X58269700Y-18285675D01*
X58269700Y-18140725D01*
X58232184Y-18000715D01*
X58228653Y-17994600D01*
X58159711Y-17875188D01*
X58159706Y-17875182D01*
X58057217Y-17772693D01*
X58057211Y-17772688D01*
X57931688Y-17700217D01*
X57931689Y-17700217D01*
X57920206Y-17697140D01*
X57791675Y-17662700D01*
X57646725Y-17662700D01*
X57518193Y-17697140D01*
X57506711Y-17700217D01*
X57381188Y-17772688D01*
X57381182Y-17772693D01*
X57278693Y-17875182D01*
X57278688Y-17875188D01*
X57206217Y-18000711D01*
X57206216Y-18000715D01*
X57168700Y-18140725D01*
X57168700Y-18140727D01*
X57168700Y-18216656D01*
X57149015Y-18283695D01*
X57132381Y-18304337D01*
X55473537Y-19963181D01*
X55412214Y-19996666D01*
X55385856Y-19999500D01*
X30432186Y-19999500D01*
X30365147Y-19979815D01*
X30344505Y-19963181D01*
X30290817Y-19909493D01*
X30290811Y-19909488D01*
X30165288Y-19837017D01*
X30165289Y-19837017D01*
X30153806Y-19833940D01*
X30025275Y-19799500D01*
X29880325Y-19799500D01*
X29751793Y-19833940D01*
X29740311Y-19837017D01*
X29614788Y-19909488D01*
X29614782Y-19909493D01*
X29561095Y-19963181D01*
X29499772Y-19996666D01*
X29473414Y-19999500D01*
X9727043Y-19999500D01*
X9660004Y-19979815D01*
X9639362Y-19963181D01*
X8787019Y-19110837D01*
X8753534Y-19049514D01*
X8752010Y-19041131D01*
X8750700Y-19032189D01*
X8750700Y-18947225D01*
X8723234Y-18844722D01*
X8722187Y-18837575D01*
X8726098Y-18809842D01*
X8726765Y-18781844D01*
X8730911Y-18775717D01*
X8731945Y-18768390D01*
X8750232Y-18747171D01*
X8765928Y-18723981D01*
X8772728Y-18721068D01*
X8777559Y-18715464D01*
X8804413Y-18707500D01*
X8830156Y-18696477D01*
X8844461Y-18695624D01*
X8844545Y-18695600D01*
X8844601Y-18695616D01*
X8844877Y-18695600D01*
X15555509Y-18695600D01*
X15622548Y-18715285D01*
X15668303Y-18768089D01*
X15678247Y-18837247D01*
X15675285Y-18851684D01*
X15649900Y-18946425D01*
X15649900Y-19091375D01*
X15687416Y-19231385D01*
X15687417Y-19231388D01*
X15759888Y-19356911D01*
X15759890Y-19356913D01*
X15759891Y-19356915D01*
X15862385Y-19459409D01*
X15862386Y-19459410D01*
X15862388Y-19459411D01*
X15987911Y-19531882D01*
X15987912Y-19531882D01*
X15987915Y-19531884D01*
X16127925Y-19569400D01*
X16127928Y-19569400D01*
X16272872Y-19569400D01*
X16272875Y-19569400D01*
X16412885Y-19531884D01*
X16538415Y-19459409D01*
X16539005Y-19458819D01*
X16539622Y-19458481D01*
X16544861Y-19454462D01*
X16545487Y-19455279D01*
X16600328Y-19425334D01*
X16626686Y-19422500D01*
X38546914Y-19422500D01*
X38613953Y-19442185D01*
X38634595Y-19458819D01*
X38688285Y-19512509D01*
X38688286Y-19512510D01*
X38688288Y-19512511D01*
X38813811Y-19584982D01*
X38813812Y-19584982D01*
X38813815Y-19584984D01*
X38953825Y-19622500D01*
X38953828Y-19622500D01*
X39098772Y-19622500D01*
X39098775Y-19622500D01*
X39238785Y-19584984D01*
X39364315Y-19512509D01*
X39466809Y-19410015D01*
X39539284Y-19284485D01*
X39576800Y-19144475D01*
X39576800Y-18999525D01*
X39565644Y-18957890D01*
X39567307Y-18888044D01*
X39606469Y-18830182D01*
X39670697Y-18802677D01*
X39685419Y-18801800D01*
X54659742Y-18801800D01*
X54659744Y-18801800D01*
X54748888Y-18777914D01*
X54773507Y-18763700D01*
X54828812Y-18731770D01*
X57601063Y-15959519D01*
X57662386Y-15926034D01*
X57688744Y-15923200D01*
X57764672Y-15923200D01*
X57764675Y-15923200D01*
X57904685Y-15885684D01*
X58030215Y-15813209D01*
X58132709Y-15710715D01*
X58205184Y-15585185D01*
X58242700Y-15445175D01*
X58242700Y-15300225D01*
X58205184Y-15160215D01*
X58132709Y-15034685D01*
X58030215Y-14932191D01*
X58030213Y-14932190D01*
X58030211Y-14932188D01*
X57904688Y-14859717D01*
X57904689Y-14859717D01*
X57893206Y-14856640D01*
X57764675Y-14822200D01*
X57619725Y-14822200D01*
X57491193Y-14856640D01*
X57479711Y-14859717D01*
X57354188Y-14932188D01*
X57354182Y-14932193D01*
X57251693Y-15034682D01*
X57251688Y-15034688D01*
X57179217Y-15160211D01*
X57179216Y-15160215D01*
X57141700Y-15300225D01*
X57141700Y-15300227D01*
X57141700Y-15376156D01*
X57122015Y-15443195D01*
X57105381Y-15463837D01*
X54504737Y-18064481D01*
X54443414Y-18097966D01*
X54417056Y-18100800D01*
X28534586Y-18100800D01*
X28467547Y-18081115D01*
X28446905Y-18064481D01*
X28393217Y-18010793D01*
X28393211Y-18010788D01*
X28267688Y-17938317D01*
X28267689Y-17938317D01*
X28256206Y-17935240D01*
X28127675Y-17900800D01*
X27982725Y-17900800D01*
X27842715Y-17938316D01*
X27774002Y-17977987D01*
X27712003Y-17994600D01*
X7788686Y-17994600D01*
X7721647Y-17974915D01*
X7701005Y-17958281D01*
X7647317Y-17904593D01*
X7647311Y-17904588D01*
X7521788Y-17832117D01*
X7521789Y-17832117D01*
X7510306Y-17829040D01*
X7381775Y-17794600D01*
X7236825Y-17794600D01*
X7108293Y-17829040D01*
X7096811Y-17832117D01*
X6971288Y-17904588D01*
X6971282Y-17904593D01*
X6868793Y-18007082D01*
X6868788Y-18007088D01*
X6796317Y-18132611D01*
X6796316Y-18132615D01*
X6758800Y-18272625D01*
X500500Y-18272625D01*
X500500Y-15667725D01*
X10227200Y-15667725D01*
X10227200Y-15812675D01*
X10257575Y-15926034D01*
X10264717Y-15952688D01*
X10337188Y-16078211D01*
X10337190Y-16078213D01*
X10337191Y-16078215D01*
X10439685Y-16180709D01*
X10439686Y-16180710D01*
X10439688Y-16180711D01*
X10565211Y-16253182D01*
X10565212Y-16253182D01*
X10565215Y-16253184D01*
X10705225Y-16290700D01*
X10705228Y-16290700D01*
X10850172Y-16290700D01*
X10850175Y-16290700D01*
X10990185Y-16253184D01*
X11115715Y-16180709D01*
X11169405Y-16127019D01*
X11230728Y-16093534D01*
X11257086Y-16090700D01*
X36951956Y-16090700D01*
X37018995Y-16110385D01*
X37039637Y-16127019D01*
X38034481Y-17121863D01*
X38067966Y-17183186D01*
X38070800Y-17209544D01*
X38070800Y-17285475D01*
X38108316Y-17425485D01*
X38108317Y-17425488D01*
X38180788Y-17551011D01*
X38180790Y-17551013D01*
X38180791Y-17551015D01*
X38283285Y-17653509D01*
X38283286Y-17653510D01*
X38283288Y-17653511D01*
X38408811Y-17725982D01*
X38408812Y-17725982D01*
X38408815Y-17725984D01*
X38548825Y-17763500D01*
X38548828Y-17763500D01*
X38693772Y-17763500D01*
X38693775Y-17763500D01*
X38833785Y-17725984D01*
X38959315Y-17653509D01*
X39061809Y-17551015D01*
X39134284Y-17425485D01*
X39171800Y-17285475D01*
X39171800Y-17140525D01*
X39134284Y-17000515D01*
X39061809Y-16874985D01*
X38959315Y-16772491D01*
X38959313Y-16772490D01*
X38959311Y-16772488D01*
X38833788Y-16700017D01*
X38833789Y-16700017D01*
X38822306Y-16696940D01*
X38693775Y-16662500D01*
X38693772Y-16662500D01*
X38617844Y-16662500D01*
X38550805Y-16642815D01*
X38530163Y-16626181D01*
X37363713Y-15459731D01*
X37363708Y-15459727D01*
X37283790Y-15413587D01*
X37283789Y-15413586D01*
X37283788Y-15413586D01*
X37194644Y-15389700D01*
X37194643Y-15389700D01*
X11257086Y-15389700D01*
X11190047Y-15370015D01*
X11169405Y-15353381D01*
X11115717Y-15299693D01*
X11115711Y-15299688D01*
X10990188Y-15227217D01*
X10990189Y-15227217D01*
X10978706Y-15224140D01*
X10850175Y-15189700D01*
X10705225Y-15189700D01*
X10576693Y-15224140D01*
X10565211Y-15227217D01*
X10439688Y-15299688D01*
X10439682Y-15299693D01*
X10337193Y-15402182D01*
X10337188Y-15402188D01*
X10264717Y-15527711D01*
X10264716Y-15527715D01*
X10227200Y-15667725D01*
X500500Y-15667725D01*
X500500Y-7335025D01*
X11826100Y-7335025D01*
X11826100Y-7479975D01*
X11862679Y-7616487D01*
X11863617Y-7619988D01*
X11936088Y-7745511D01*
X11936090Y-7745513D01*
X11936091Y-7745515D01*
X12038585Y-7848009D01*
X12038586Y-7848010D01*
X12038588Y-7848011D01*
X12164111Y-7920482D01*
X12164112Y-7920482D01*
X12164115Y-7920484D01*
X12304125Y-7958000D01*
X12304128Y-7958000D01*
X12449072Y-7958000D01*
X12449075Y-7958000D01*
X12589085Y-7920484D01*
X12714615Y-7848009D01*
X12768305Y-7794319D01*
X12829628Y-7760834D01*
X12855986Y-7758000D01*
X22961142Y-7758000D01*
X22961144Y-7758000D01*
X23050288Y-7734114D01*
X23130212Y-7687969D01*
X23195469Y-7622712D01*
X23195470Y-7622709D01*
X23200887Y-7617293D01*
X23201585Y-7616495D01*
X23530357Y-7287723D01*
X23591678Y-7254240D01*
X23661370Y-7259224D01*
X23717303Y-7301096D01*
X23725420Y-7313401D01*
X23737091Y-7333615D01*
X23839585Y-7436109D01*
X23839586Y-7436110D01*
X23839588Y-7436111D01*
X23965111Y-7508582D01*
X23965112Y-7508582D01*
X23965115Y-7508584D01*
X24105125Y-7546100D01*
X24105128Y-7546100D01*
X24250072Y-7546100D01*
X24250075Y-7546100D01*
X24390085Y-7508584D01*
X24515615Y-7436109D01*
X24569305Y-7382419D01*
X24630628Y-7348934D01*
X24656986Y-7346100D01*
X33834156Y-7346100D01*
X33901195Y-7365785D01*
X33921837Y-7382419D01*
X38439481Y-11900062D01*
X38472966Y-11961385D01*
X38475800Y-11987743D01*
X38475800Y-12063675D01*
X38513316Y-12203685D01*
X38513317Y-12203688D01*
X38585788Y-12329211D01*
X38590738Y-12335661D01*
X38589381Y-12336701D01*
X38618180Y-12389442D01*
X38613196Y-12459134D01*
X38589937Y-12495324D01*
X38590738Y-12495939D01*
X38585788Y-12502388D01*
X38513317Y-12627911D01*
X38512282Y-12631775D01*
X38475800Y-12767925D01*
X38475800Y-12767927D01*
X38475800Y-12912876D01*
X38481891Y-12935608D01*
X38480228Y-13005458D01*
X38441064Y-13063320D01*
X38376836Y-13090823D01*
X38362116Y-13091700D01*
X20243544Y-13091700D01*
X20176505Y-13072015D01*
X20155863Y-13055381D01*
X19750919Y-12650437D01*
X19717434Y-12589114D01*
X19714600Y-12562756D01*
X19714600Y-12486827D01*
X19714600Y-12486825D01*
X19677084Y-12346815D01*
X19670644Y-12335661D01*
X19604611Y-12221288D01*
X19604606Y-12221282D01*
X19502117Y-12118793D01*
X19502111Y-12118788D01*
X19376588Y-12046317D01*
X19376589Y-12046317D01*
X19365106Y-12043240D01*
X19236575Y-12008800D01*
X19091625Y-12008800D01*
X18963093Y-12043240D01*
X18951611Y-12046317D01*
X18826088Y-12118788D01*
X18826082Y-12118793D01*
X18723593Y-12221282D01*
X18723588Y-12221288D01*
X18651117Y-12346811D01*
X18651116Y-12346815D01*
X18613600Y-12486825D01*
X18613600Y-12631775D01*
X18648898Y-12763506D01*
X18651117Y-12771788D01*
X18723588Y-12897311D01*
X18723590Y-12897313D01*
X18723591Y-12897315D01*
X18826085Y-12999809D01*
X18826086Y-12999810D01*
X18826088Y-12999811D01*
X18951611Y-13072282D01*
X18951612Y-13072282D01*
X18951615Y-13072284D01*
X19091625Y-13109800D01*
X19167556Y-13109800D01*
X19234595Y-13129485D01*
X19255237Y-13146119D01*
X19831788Y-13722670D01*
X19901085Y-13762678D01*
X19901087Y-13762680D01*
X19908342Y-13766868D01*
X19911712Y-13768814D01*
X20000856Y-13792700D01*
X41761214Y-13792700D01*
X41828253Y-13812385D01*
X41848895Y-13829019D01*
X41902585Y-13882709D01*
X41902586Y-13882710D01*
X41902588Y-13882711D01*
X42028111Y-13955182D01*
X42028112Y-13955182D01*
X42028115Y-13955184D01*
X42168125Y-13992700D01*
X42168128Y-13992700D01*
X42313072Y-13992700D01*
X42313075Y-13992700D01*
X42453085Y-13955184D01*
X42578615Y-13882709D01*
X42681109Y-13780215D01*
X42753584Y-13654685D01*
X42791100Y-13514675D01*
X42791100Y-13369725D01*
X42753584Y-13229715D01*
X42681109Y-13104185D01*
X42578615Y-13001691D01*
X42578613Y-13001690D01*
X42578611Y-13001688D01*
X42453088Y-12929217D01*
X42453089Y-12929217D01*
X42441606Y-12926140D01*
X42313075Y-12891700D01*
X42168125Y-12891700D01*
X42039593Y-12926140D01*
X42028111Y-12929217D01*
X41902588Y-13001688D01*
X41902582Y-13001693D01*
X41848895Y-13055381D01*
X41787572Y-13088866D01*
X41761214Y-13091700D01*
X39690484Y-13091700D01*
X39623445Y-13072015D01*
X39577690Y-13019211D01*
X39566878Y-12957820D01*
X39567779Y-12946538D01*
X39576800Y-12912875D01*
X39576800Y-12833693D01*
X39577194Y-12828764D01*
X39587981Y-12800565D01*
X39596485Y-12771605D01*
X39601386Y-12765522D01*
X39602158Y-12763506D01*
X39604253Y-12761964D01*
X39613119Y-12750963D01*
X39749964Y-12614118D01*
X39908470Y-12455612D01*
X39954614Y-12375688D01*
X39962350Y-12346815D01*
X39971307Y-12313388D01*
X39971307Y-12313386D01*
X39978500Y-12286544D01*
X39978500Y-11695856D01*
X39954614Y-11606712D01*
X39922270Y-11550691D01*
X39908470Y-11526788D01*
X34495112Y-6113430D01*
X34495111Y-6113429D01*
X34495108Y-6113427D01*
X34415190Y-6067287D01*
X34415189Y-6067286D01*
X34415188Y-6067286D01*
X34326044Y-6043400D01*
X23882356Y-6043400D01*
X23793211Y-6067286D01*
X23713287Y-6113431D01*
X23713284Y-6113433D01*
X22806037Y-7020681D01*
X22744714Y-7054166D01*
X22718356Y-7057000D01*
X12855986Y-7057000D01*
X12788947Y-7037315D01*
X12768305Y-7020681D01*
X12714617Y-6966993D01*
X12714611Y-6966988D01*
X12589088Y-6894517D01*
X12589089Y-6894517D01*
X12577606Y-6891440D01*
X12449075Y-6857000D01*
X12304125Y-6857000D01*
X12175593Y-6891440D01*
X12164111Y-6894517D01*
X12038588Y-6966988D01*
X12038582Y-6966993D01*
X11936093Y-7069482D01*
X11936088Y-7069488D01*
X11863617Y-7195011D01*
X11863616Y-7195015D01*
X11826100Y-7335025D01*
X500500Y-7335025D01*
X500500Y-3499998D01*
X1000000Y-3499998D01*
X1000000Y-3500001D01*
X1085184Y-4147045D01*
X1085185Y-4147047D01*
X1334936Y-4750000D01*
X1732233Y-5267766D01*
X2250000Y-5665063D01*
X2852952Y-5914814D01*
X3176476Y-5957407D01*
X3499999Y-6000000D01*
X3500000Y-6000000D01*
X3500001Y-6000000D01*
X3715682Y-5971604D01*
X4147047Y-5914814D01*
X4750000Y-5665063D01*
X5267766Y-5267766D01*
X5665063Y-4750000D01*
X5914814Y-4147047D01*
X6000000Y-3500000D01*
X6000000Y-3499998D01*
X59000000Y-3499998D01*
X59000000Y-3500001D01*
X59085184Y-4147045D01*
X59085185Y-4147047D01*
X59334936Y-4750000D01*
X59732233Y-5267766D01*
X60250000Y-5665063D01*
X60852952Y-5914814D01*
X61176476Y-5957407D01*
X61499999Y-6000000D01*
X61500000Y-6000000D01*
X61500001Y-6000000D01*
X61715682Y-5971604D01*
X62147047Y-5914814D01*
X62750000Y-5665063D01*
X63267766Y-5267766D01*
X63665063Y-4750000D01*
X63914814Y-4147047D01*
X64000000Y-3500000D01*
X63914814Y-2852952D01*
X63665063Y-2249999D01*
X63267766Y-1732233D01*
X62750000Y-1334936D01*
X62749995Y-1334934D01*
X62147047Y-1085185D01*
X62147045Y-1085184D01*
X61500001Y-1000000D01*
X61499999Y-1000000D01*
X60852953Y-1085184D01*
X60852951Y-1085185D01*
X60250002Y-1334934D01*
X59732233Y-1732233D01*
X59334934Y-2250002D01*
X59085185Y-2852951D01*
X59085184Y-2852953D01*
X59000000Y-3499998D01*
X6000000Y-3499998D01*
X5914814Y-2852952D01*
X5665063Y-2249999D01*
X5267766Y-1732233D01*
X4750000Y-1334936D01*
X4749995Y-1334934D01*
X4147047Y-1085185D01*
X4147045Y-1085184D01*
X3500000Y-1000000D01*
X3499998Y-1000000D01*
X2852953Y-1085184D01*
X2852951Y-1085185D01*
X2250000Y-1334935D01*
X1732233Y-1732233D01*
X1334934Y-2250002D01*
X1085185Y-2852951D01*
X1085184Y-2852953D01*
X1000000Y-3499998D01*
X500500Y-3499998D01*
X500500Y-624500D01*
X520185Y-557461D01*
X572989Y-511706D01*
X624500Y-500500D01*
X64375500Y-500500D01*
X64442539Y-520185D01*
G37*
%TD.AperFunction*%
%TD*%
M02*
