M48
; DRILL file {KiCad 9.0.2+dfsg-1} date 2026-04-19T10:53:22-0700
; FORMAT={-:-/ absolute / metric / decimal}
; #@! TF.CreationDate,2026-04-19T10:53:22-07:00
; #@! TF.GenerationSoftware,Kicad,Pcbnew,9.0.2+dfsg-1
; #@! TF.FileFunction,MixedPlating,1,2
FMAT,2
METRIC
; #@! TA.AperFunction,Plated,PTH,ViaDrill
T1C0.300
; #@! TA.AperFunction,NonPlated,NPTH,ComponentDrill
T2C2.700
%
G90
G05
T1
X4.814Y-32.506
X5.214Y-14.989
X7.309Y-21.165
X8.495Y-14.814
X8.612Y-9.995
X9.496Y-32.506
X10.273Y-41.665
X11.002Y-23.091
X12.371Y-7.603
X13.237Y-12.383
X13.259Y-18.472
X16.2Y-19.111
X19.164Y-23.091
X19.164Y-33.412
X19.164Y-41.665
X27.162Y-33.412
X28.306Y-21.165
X28.308Y-18.52
X33.437Y-15.581
X33.983Y-33.412
X35.912Y-13.124
X36.946Y-20.406
X39.026Y-19.118
X39.028Y-17.194
X42.071Y-33.412
X45.303Y-32.506
X45.563Y-12.501
X48.023Y-12.593
X54.728Y-33.412
X56.78Y-6.485
X57.692Y-4.153
X57.692Y-18.329
X57.914Y-8.768
X58.637Y-9.953
T2
X3.5Y-3.5
X3.5Y-44.5
X61.5Y-3.5
X61.5Y-44.5
M30
